<svg xmlns="http://www.w3.org/2000/svg" width="124.13" height="120" viewBox="0 0 124.13 120">
  <g id="Grupo_131962" data-name="Grupo 131962" transform="translate(7208 3424)">
    <g id="Grupo_131958" data-name="Grupo 131958" transform="translate(-7286.84 -3365.807)">
      <path id="Trazado_138969" data-name="Trazado 138969" d="M180.139,51.45H169.255c-.431,0-.862.014-1.293,0a2.058,2.058,0,0,1-2.219-2.16c-.041-1.464-.055-2.932.012-4.394a6.314,6.314,0,0,1,2.765-4.856c-1.608-3.622-.443-7.333,3.265-8.833,3.462-1.4,6.512.277,8.512,4.709,1.059-2.948,3.4-3.3,6.1-3.043,0-2.235.072-4.336-.028-6.428a1.9,1.9,0,0,0-2.085-1.868q-10.276-.028-20.553,0c-1.432.006-2.131.881-2.134,2.5q-.014,8.274,0,16.548,0,5.688,0,11.377c0,1.947.7,2.649,2.643,2.655,3.1.009,6.2-.006,9.307.006,1.593.006,2.555.836,2.515,2.126-.039,1.239-.968,2-2.51,2-3.232.011-6.463.021-9.695,0a6.193,6.193,0,0,1-6.4-6.343c-.008-.594,0-1.188,0-1.853h-12.59c-.1.3-.209.65-.326,1a10.294,10.294,0,0,1-9.719,7.188c-3.36.042-6.722.02-10.083.006-1.52-.007-2.442-.818-2.434-2.076s.923-2.045,2.458-2.052c3.318-.015,6.636.024,9.953-.018a5.94,5.94,0,0,0,5.689-4.017h-56.8c.292,1.981,2.62,3.829,5.156,4,.987.066,1.981.03,2.972.031q11.7,0,23.4,0a7.27,7.27,0,0,1,1.162.025,2.049,2.049,0,0,1-.034,4.08c-1.072.079-2.153.031-3.23.031-7.885,0-15.77.02-23.656-.007A10.306,10.306,0,0,1,78.985,53c-.472-2.68.295-3.613,2.973-3.614H95.433c-.186-4.306-.348-8.577,3.933-11.145-2.734-4.867-2.3-9.026,1.162-11.819a8.257,8.257,0,0,1,10.686.214c3.278,2.869,3.638,7.071.89,11.587,4.255,2.563,4.178,6.8,3.944,11.1H134.7V48.094q0-12.411,0-24.822c0-2.2-.643-2.85-2.838-2.85q-19.907,0-39.813,0c-2.208,0-2.849.638-2.85,2.835q0,9.372,0,18.745c0,.3.008.6,0,.905a2.11,2.11,0,0,1-2.061,2.326,2.081,2.081,0,0,1-2.066-2.313c-.022-3.275-.008-6.55-.008-9.825a19.408,19.408,0,0,1,.016-2.325,3.849,3.849,0,0,0-2.026-4.262c-3-1.891-4.2-4.992-4.2-8.544q.011-31.286.008-62.571a31.9,31.9,0,0,1,.124-4.644,10.239,10.239,0,0,1,10.38-8.928c5.644-.027,11.289-.006,16.933-.006q42.916,0,85.832,0c5.636,0,9.8,3.461,10.7,8.872a11.848,11.848,0,0,1,.12,1.931q.011,12.864,0,25.727a6,6,0,0,1-.041,1.031,2.039,2.039,0,0,1-2.1,1.722,1.99,1.99,0,0,1-1.95-1.745,6.843,6.843,0,0,1-.041-1.289q0-12.605,0-25.21c0-4.408-2.487-6.9-6.875-6.9q-51.059,0-102.119,0c-4.3,0-6.831,2.52-6.832,6.817q0,32.514-.008,65.028a6.321,6.321,0,0,0,2,5c.049-.479.069-.8.116-1.111a6.226,6.226,0,0,1,6.394-5.4q17.063-.018,34.126,0h1.718c-.907-1.723-1.63-3.246-2.489-4.688a5.987,5.987,0,0,1-.8-4.935c.359-1.235.766-2.456,1.227-3.925-1.159.263-2.143.469-3.119.71-3.09.763-6.175,1.547-9.266,2.306-1.931.474-2.992-.353-3.01-2.34-.016-1.81-.018-3.62,0-5.43.016-1.444.794-2.34,2-2.375,1.255-.036,2.1.9,2.122,2.39.018,1.028,0,2.056,0,3.219l12.364-3.086V-15.212L114.02-18.295c0,2.483.006,4.8,0,7.126-.006,1.646-.747,2.592-2.026,2.619-1.324.028-2.1-.947-2.106-2.666q-.009-4.589,0-9.179c.008-2.091,1.043-2.918,3.041-2.427,4.052,1,8.116,1.949,12.143,3.038a25.649,25.649,0,0,0,7.386.926,34.406,34.406,0,0,1,6.309.232A10.107,10.107,0,0,1,147.1-9.212a10.163,10.163,0,0,1-7.327,10.472A2.3,2.3,0,0,0,137.8,3.23a3,3,0,0,1-.211.609c-.679,1.654-1.078,3.07.542,4.679,1.208,1.2,1.733,3.088,2.589,4.721a50.72,50.72,0,0,1,.741-5.133,16.047,16.047,0,0,1,7.151-9.91c1.358-.876,2.6-.725,3.285.356.7,1.1.33,2.187-1.059,3.12a12.364,12.364,0,0,0-5.785,10.782c-.014,2.844-.1,5.694.048,8.53a10.011,10.011,0,0,0,1.1,3.222c.1.22.652.335,1,.338,3.274.025,6.55.039,9.823-.018a1.6,1.6,0,0,0,1.132-.71,6.287,6.287,0,0,1,5.822-3.393q10.083-.006,20.165.008a20.04,20.04,0,0,1,2.04.194c0-3.6.343-7.246-.08-10.8-.642-5.4-5.658-9.681-11.1-10.052-.288-.019-.578,0-.87,0a33.706,33.706,0,0,1-.35,3.786,8.215,8.215,0,0,1-8.84,6.493,8.059,8.059,0,0,1-7.4-8.065c.1-2.879-.461-4.893-2.973-6.791-3.542-2.676-5.04-6.751-5.381-11.2a2.216,2.216,0,0,0-.688-1.376,20.712,20.712,0,0,1-7.574-16.448c0-3.146-.008-6.292,0-9.437.006-1.543.768-2.465,2.014-2.5,1.291-.032,2.109.925,2.115,2.527.015,3.491-.029,6.982.03,10.472a15.527,15.527,0,0,0,4.11,10.134c0-1.474-.011-2.78,0-4.085.019-1.77.75-2.569,2.529-2.491,3.837.169,6.538-1.325,8.032-4.968.639-1.557,2.222-1.673,3.6-.364a18.021,18.021,0,0,0,9.492,4.916,42.476,42.476,0,0,0,6.173.384c2.785.06,3.271.511,3.263,3.347,0,.215,0,.431,0,.646a2.012,2.012,0,0,1-1.659,2.161,1.958,1.958,0,0,1-2.352-1.346c-.081-.194-.144-.4-.239-.661a23.658,23.658,0,0,1-15.763-4.893,11.532,11.532,0,0,1-8.738,4.922c0,3.5-.356,6.977.077,10.355.81,6.315,6.526,10.647,12.969,10.3a12.465,12.465,0,0,0,11.549-11.692c.127-2.4.77-2.882,3.14-2.5a1.669,1.669,0,0,0,1.115-.429c3.685-2.981,4.7-6.863,3.652-11.35A14.382,14.382,0,0,0,171.9-41.625c-6.679-.047-13.357,0-20.036-.034a2.961,2.961,0,0,1-1.9-.536,2.356,2.356,0,0,1-.661-1.905c.165-.622.906-1.131,1.479-1.587.22-.175.666-.085,1.009-.085,6.808,0,13.616-.048,20.424.013a18.546,18.546,0,0,1,18.3,18.586c-.062,5.625-2.684,9.848-7.539,12.7-.41.24-.945.6-1.036,1a17.421,17.421,0,0,1-5.419,9.207c1.021.288,1.917.5,2.784.791a16.49,16.49,0,0,1,11.217,15.366c.063,3.7.016,7.412.018,11.118,0,.466,0,.932,0,1.379,4.824.924,8.269-1.889,8.272-6.673q.008-14.673,0-29.347a7.5,7.5,0,0,1,.032-1.29,1.947,1.947,0,0,1,2.028-1.793,1.95,1.95,0,0,1,2.04,1.78,7.162,7.162,0,0,1,.035,1.29q0,14.544,0,29.088c0,6.932-4.248,11.214-11.156,11.255-.378,0-.756,0-1.19,0v4.137q2.744,0,5.5,0c3.156.005,4.777,1.613,4.779,4.755q.007,9.76,0,19.521c0,3.069-1.632,4.678-4.726,4.683q-5.688.008-11.375,0c-2.9-.008-4.564-1.679-4.579-4.57-.009-1.767-.005-3.534-.009-5.3C180.2,51.834,180.179,51.749,180.139,51.45ZM196.663,57.6V37.074H184.413V57.6ZM138.9,41.017h18.454V28.763H138.9Zm-8.246-55.744V-2.352c2.271,0,4.462.1,6.641-.023A6.154,6.154,0,0,0,142.973-8.6a6.15,6.15,0,0,0-5.669-6.1C135.124-14.825,132.933-14.727,130.654-14.727Zm-18.709,64.05c0-1.526.049-2.9-.011-4.278a4.078,4.078,0,0,0-3.9-3.918c-1.5-.066-3.014-.056-4.519,0a3.876,3.876,0,0,0-3.832,3.226,38.447,38.447,0,0,0-.045,4.974Zm27-4.054v4.026h18.405V45.269ZM105.719,28.7a4.13,4.13,0,1,0,4.157,4.074A4.14,4.14,0,0,0,105.719,28.7Zm35.959-4.177-3.818-7.636c-.979-1.959-1.912-3.942-2.949-5.869a2.463,2.463,0,0,0-3.428-1.059,2.537,2.537,0,0,0-1.115,3.319c.295.713.711,1.376,1,2.091a1.381,1.381,0,0,0,1.456.945,6.144,6.144,0,0,1,6.012,6.164c.015.671,0,1.342,0,2.046ZM161.624-.5c-.09,2.143-.369,4.493,2.091,5.884A3.853,3.853,0,0,0,168.19,5.1c2.045-1.521,1.738-3.682,1.611-5.594Zm8.242,47.709h8.273c0-.463,0-.883,0-1.3-.008-2.03-.683-2.721-2.68-2.733q-1.416-.008-2.833,0c-2.1.008-2.756.674-2.761,2.779C169.865,46.341,169.866,46.726,169.866,47.212Zm-36-45.407c-1.167,0-2.194-.022-3.219.015-.259.009-.673.147-.739.328-.545,1.471-1.024,2.966-1.51,4.417,1.35-.39,2.571-.726,3.779-1.1a1.075,1.075,0,0,0,.649-.489C133.2,3.973,133.5,2.948,133.871,1.805Zm42.19,35.16a2.059,2.059,0,1,0-2.023,2.064A2.073,2.073,0,0,0,176.061,36.965Z" fill="#5038a1"/>
      <path id="Trazado_138970" data-name="Trazado 138970" d="M197.085-24.443a10.234,10.234,0,0,1-.557,1.173,2.284,2.284,0,0,1-.713.738c-2.6,1.612-3.008,3.881-2.066,6.6a2.178,2.178,0,0,1-.7,2.672,2.153,2.153,0,0,1-2.758-.153c-2.411-1.9-4.741-1.851-7.145.008a2.164,2.164,0,0,1-2.758.135,2.07,2.07,0,0,1-.688-2.554c1.106-3,.237-5.258-2.331-7.032a1.993,1.993,0,0,1-.866-2.37,1.953,1.953,0,0,1,2.039-1.477c3.339.142,5.269-1.461,6.28-4.569a2.36,2.36,0,0,1,1.858-1.219,3.131,3.131,0,0,1,2.01,1.244,11.917,11.917,0,0,1,1.444,2.869,1.834,1.834,0,0,0,1.749,1.228c1.154.111,2.3.3,3.444.5C196.405-26.454,196.958-25.763,197.085-24.443Zm-14.216,1.327a3.511,3.511,0,0,1,1.6,4.321,3.707,3.707,0,0,1,4.553-.06c-.625-1.842-.014-3.156,1.758-4.408-2.25.092-3.424-.78-3.94-2.568C185.253-23.562,185.253-23.562,182.869-23.116Z" transform="translate(-63.868 -16.829)" fill="#5038a1"/>
      <path id="Trazado_138971" data-name="Trazado 138971" d="M108.012-15.379c.185-1.075.371-2.309.62-3.53a1.77,1.77,0,0,0-.616-1.931,13.884,13.884,0,0,1-2.368-2.364,2.9,2.9,0,0,1-.61-2.151,2.812,2.812,0,0,1,1.715-1.428c1.089-.352,2.305-.294,3.418-.593a2.869,2.869,0,0,0,1.514-1.1c.589-.887.858-2,1.489-2.842a3.824,3.824,0,0,1,1.966-1.371c.978-.242,1.659.489,2.085,1.374.447.929.969,1.828,1.348,2.783a1.825,1.825,0,0,0,1.751,1.223,32.412,32.412,0,0,1,3.315.485,2.035,2.035,0,0,1,1.153,3.584c-.817.883-1.781,1.636-2.547,2.558a2.56,2.56,0,0,0-.506,1.661c.073,1.108.5,2.2.5,3.3a3.058,3.058,0,0,1-.8,2.224,2.953,2.953,0,0,1-2.359.074c-1.359-.493-2.617-1.784-3.915-1.782s-2.593,1.194-3.9,1.835C109.548-12.528,107.951-13.452,108.012-15.379Zm3.488-7.909c1.592,1.081,1.819,2.56,1.44,4.327a3.573,3.573,0,0,1,4.5-.029c-.611-1.844.018-3.192,1.738-4.449-2.247.1-3.378-.791-4.027-2.591A3.6,3.6,0,0,1,111.5-23.288Z" transform="translate(-17.118 -16.667)" fill="#5038a1"/>
      <path id="Trazado_138972" data-name="Trazado 138972" d="M201.093,207.756c-.213,3.19-.65,4.136-2.052,4.053-2.682-.159-2.023-2.356-2.194-4.057-1.7-.174-3.9.491-4.058-2.2-.083-1.415.852-1.847,4.106-2.052,0-.65-.032-1.321.007-1.987a2.055,2.055,0,1,1,4.11-.04c.044.637.008,1.28.008,2.033,1.7.214,4.174-.5,4.061,2.264C204.981,208.228,202.729,207.579,201.093,207.756Z" transform="translate(-74.597 -168.669)" fill="#5038a1"/>
      <path id="Trazado_138973" data-name="Trazado 138973" d="M318.74,73.536a7.906,7.906,0,0,1-5.321-2.065,2.067,2.067,0,1,1,2.591-3.216c2.141,1.52,3.312,1.515,5.472-.022a2.063,2.063,0,1,1,2.628,3.178A7.844,7.844,0,0,1,318.74,73.536Z" transform="translate(-153.002 -82.432)" fill="#5038a1"/>
      <path id="Trazado_138974" data-name="Trazado 138974" d="M128.915,55.927c-.327-.1-.782-.214-1.227-.362-1.792-.592-3.593-1.161-5.367-1.8a2.062,2.062,0,1,1,1.355-3.889c2.044.651,4.083,1.319,6.1,2.045a1.906,1.906,0,0,1,1.319,2.355A2.077,2.077,0,0,1,128.915,55.927Z" transform="translate(-27.483 -70.662)" fill="#5038a1"/>
      <path id="Trazado_138975" data-name="Trazado 138975" d="M131.164,106.142c-.326.327-.813,1.166-1.524,1.459-1.979.813-4.044,1.428-6.092,2.064a2.036,2.036,0,0,1-2.6-1.275,2,2,0,0,1,1.265-2.6c2.1-.759,4.209-1.482,6.345-2.121C129.867,103.278,131.123,104.285,131.164,106.142Z" transform="translate(-27.482 -105.914)" fill="#5038a1"/>
      <path id="Trazado_138976" data-name="Trazado 138976" d="M125.959,83.709c-.991,0-1.983.033-2.972-.008a2.057,2.057,0,0,1-2.137-2.109,2.031,2.031,0,0,1,2.108-2q3.035-.064,6.074,0a2.056,2.056,0,1,1,.028,4.11C128.028,83.744,126.993,83.709,125.959,83.709Z" transform="translate(-27.503 -90.184)" fill="#5038a1"/>
      <path id="Trazado_138977" data-name="Trazado 138977" d="M310.645,51.7a2.058,2.058,0,1,1-2.094-2.022A2.083,2.083,0,0,1,310.645,51.7Z" transform="translate(-149.064 -70.624)" fill="#5038a1"/>
      <path id="Trazado_138978" data-name="Trazado 138978" d="M344.622,49.679a2.061,2.061,0,1,1-2.158,1.956A2.086,2.086,0,0,1,344.622,49.679Z" transform="translate(-172.587 -70.62)" fill="#5038a1"/>
      <path id="Trazado_138987" data-name="Trazado 138987" d="M398.425,253.357a2.058,2.058,0,1,1-2.05,2.064A2.076,2.076,0,0,1,398.425,253.357Z" transform="translate(-207.883 -203.965)" fill="#5038a1"/>
    </g>
  </g>
</svg>
