<svg xmlns="http://www.w3.org/2000/svg" width="190" height="139" viewBox="0 0 190 139">
  <g id="Grupo_131965" data-name="Grupo 131965" transform="translate(8622 8074)">
    <g id="Grupo_131964" data-name="Grupo 131964" transform="translate(-10118.693 -8350.897)">
      <path id="Trazado_115175" data-name="Trazado 115175" d="M1586.215,268.349c0-3.887-.026-7.391.007-10.895.063-6.688,4.622-11.508,11.017-11.526q21.258-.06,42.517,0c6.257.022,10.859,4.852,10.9,11.409.055,9.658.033,19.316.01,28.974-.017,7.251-4.537,11.9-11.534,11.944-.816,0-1.632,0-2.616,0v29.431c3.553,2.038-.9,45.357-3.475,45.314-14.62.1-29.24.033-43.86.034q-36.586,0-73.175,0c-11.818,0-19.3-7.794-19.305-20.1q-.008-32.245,0-64.491c0-12.311,7.482-20.091,19.311-20.093q33.679-.007,67.356,0Zm42.879,29.911c-3.875,0-7.527-.1-11.168.057a6.5,6.5,0,0,0-3.422,1.213c-3.828,2.84-7.545,5.842-11.294,8.8-1.343,1.058-2.942,1.816-4.283.586a6.858,6.858,0,0,1-1.888-3.845,48.374,48.374,0,0,1-.082-6.679c-7.392-1.172-10.738-5.262-10.743-12.892,0-3.166,0-6.331,0-9.671h-2.457q-34.013,0-68.028,0c-7.548,0-11.868,4.563-11.871,12.52q-.007,22.549,0,45.1c0,6.932-.042,13.865.02,20.8.044,4.972,2.846,9.032,7.147,10.328,0-1.041-.016-2.022,0-3,.234-12.964,8.948-24.05,21.319-25.374a141.957,141.957,0,0,1,28.128-.176c12,1.118,20.078,10.089,21.915,22.577.333,2.262.268,4.588.392,6.968h33.852c16.947,1.02,13.485-36.376,12.462-37.2ZM1525.478,365.4h6.9c.38-5.133-.681-7.308-3.467-7.3S1525.062,360.3,1525.478,365.4Zm42.846.057c-.21-2.536.833-5.348-1.881-6.763a4.277,4.277,0,0,0-3.685.167c-2.411,1.529-1.483,4.178-1.551,6.6Zm39.357-93.261a3.565,3.565,0,1,0-3.612,3.614A3.694,3.694,0,0,0,1607.681,272.2Zm10.784,3.614a3.724,3.724,0,1,0-3.588-3.637A3.678,3.678,0,0,0,1618.465,275.81Zm14.282,0a3.725,3.725,0,1,0-3.548-3.68A3.676,3.676,0,0,0,1632.748,275.81Z" transform="translate(0 31)" fill="#261a4d"/>
      <path id="Trazado_115176" data-name="Trazado 115176" d="M1700.212,455.369c5.707.41,11.546.194,17.094,1.364,10.732,2.263,18.4,12.159,18.74,23.131.115,3.734.068,7.475.034,11.212-.025,2.786-1.354,4.094-4.138,4.142-2.088.036-4.177.05-6.265-.006-2.507-.068-3.81-1.4-3.9-3.922-.041-1.12.047-2.247-.04-3.362a3.552,3.552,0,0,0-7.1.022c-.087,1.19.019,2.394-.047,3.586a3.506,3.506,0,0,1-3.692,3.663q-10.628.084-21.258,0c-2.241-.019-3.546-1.433-3.662-3.689-.061-1.193.042-2.4-.048-3.586a3.551,3.551,0,0,0-7.1.034c-.086,1.19.02,2.394-.047,3.586a3.541,3.541,0,0,1-3.7,3.661c-2.31.075-4.625.059-6.937,0-1.967-.048-3.558-1.125-3.543-3.037.047-5.806-.31-11.758.831-17.38,2.257-11.123,12.24-18.763,23.565-19.009,3.728-.081,7.458-.013,11.188-.013Z" transform="translate(-49.424 -79.356)" fill="#261a4d"/>
      <path id="Trazado_115177" data-name="Trazado 115177" d="M1544.625,333.579a21.477,21.477,0,1,1,21.572,21.432A21.553,21.553,0,0,1,1544.625,333.579Z" transform="translate(-19.276 6.658)" fill="#261a4d"/>
      <path id="Trazado_138935" data-name="Trazado 138935" d="M1544.625,333.579a21.477,21.477,0,1,1,21.572,21.432A21.553,21.553,0,0,1,1544.625,333.579Z" transform="translate(81.019 13.975)" fill="#261a4d"/>
    </g>
  </g>
</svg>
