<svg xmlns="http://www.w3.org/2000/svg" width="140.406" height="120" viewBox="0 0 140.406 120">
  <g id="Grupo_131959" data-name="Grupo 131959" transform="translate(8222.203 3463.5)">
    <g id="Grupo_131955" data-name="Grupo 131955" transform="translate(-7911.203 -3707.957)">
      <path id="Trazado_138938" data-name="Trazado 138938" d="M-311,248.29c1.019-2.862,3.1-3.841,6.059-3.833,20.968.056,41.937.028,62.906.031,2.991,0,4.9,1.3,5.467,3.759a8.606,8.606,0,0,1,.133,1.9q.01,18.57.005,37.141v1.546c10.924-1.085,20.621,1.617,28.958,8.59s12.757,16.019,13.639,26.9a2.718,2.718,0,0,0,3.217-.9c1.24-1.576,2.686-2.988,4.009-4.5a4.069,4.069,0,0,1,3.254-1.46c3.015.013,6.031-.038,9.045.016s4.734,2.762,3.069,5.2c-1.864,2.735-1.856,4.973.009,7.7,1.633,2.388-.06,5.1-2.966,5.155-3.105.063-6.213,0-9.319.021a3.916,3.916,0,0,1-3.112-1.45c-1.264-1.443-2.656-2.785-3.817-4.3a2.952,2.952,0,0,0-3.407-1.093,39.68,39.68,0,0,1-2.547,11.574,37.987,37.987,0,0,1-56.491,17.75,4.818,4.818,0,0,0-2.512-.76c-8.634-.055-17.268-.033-25.9-.036a10.227,10.227,0,0,1-1.5-.062,1.827,1.827,0,0,1-1.685-1.852,1.844,1.844,0,0,1,1.566-2.087,7.991,7.991,0,0,1,1.635-.1q10.347-.009,20.695,0h1.766c-.729-.831-1.235-1.393-1.726-1.969a36.59,36.59,0,0,1-6.788-11.642,1.362,1.362,0,0,0-1.563-1.076q-5,.058-10,.006c-1.913-.018-3.07-1.71-2.045-3.075a3.015,3.015,0,0,1,2.067-.982c2.828-.111,5.663-.046,8.5-.046h1.349c-.261-2.88-.511-5.633-.777-8.568h-7.331c-.685,0-1.373.033-2.055-.021a2.094,2.094,0,0,1-2.1-2.089,2.032,2.032,0,0,1,2.181-1.981c2.923-.041,5.847-.018,8.771-.024.271,0,.542-.025.818-.038l2.123-8.495c-.474-.026-.946-.073-1.418-.074-3.289-.007-6.579,0-9.868-.007-1.643,0-2.569-.72-2.607-1.969-.039-1.284.96-2.125,2.631-2.133,4.02-.018,8.041-.04,12.06.018a1.973,1.973,0,0,0,1.914-1.124c1.6-2.484,3.333-4.888,5.106-7.457h-1.333q-8.84,0-17.679,0c-1.73,0-2.691-.729-2.7-2.022s.979-2.083,2.669-2.085c7.583-.007,15.167.016,22.75-.034a5.074,5.074,0,0,0,2.248-.7c2.123-1.148,4.131-2.529,6.308-3.554,2.134-1,4.422-1.682,6.739-2.539V262.7c-1.432,0-2.827,0-4.221,0-1.6-.005-3.2.04-4.795-.048a1.925,1.925,0,0,1-1.985-2.141,1.909,1.909,0,0,1,2.088-1.9c2.467-.031,4.934-.015,7.4-.018h1.57c0-3.09.038-6.008-.048-8.924-.011-.364-.641-.773-1.062-1.037-.23-.144-.624-.028-.943-.028h-62.22c-2.067,0-2.068,0-2.068,2.012,0,2.6,0,5.2,0,7.977h46.238c.411,0,.823-.014,1.233.007,1.438.07,2.25.813,2.246,2.04s-.814,1.96-2.255,2.052c-.455.029-.913.012-1.37.012h-46v90.356c.458.024.937.07,1.415.071,4.066.006,8.131,0,12.2.007a7.629,7.629,0,0,1,1.5.094,1.851,1.851,0,0,1,1.6,2.062,1.834,1.834,0,0,1-1.654,1.882,7.383,7.383,0,0,1-1.229.067c-4.568,0-9.138-.052-13.7.027-2.068.036-3.529-.676-4.333-2.611Zm112.841,76.184c-.067-13.087-11.223-30.34-31.5-31.711a33.793,33.793,0,0,0-35.876,33.328,33.8,33.8,0,0,0,34.877,34.24c20.364-.792,32.318-17.842,32.517-31.665h-5.5c-.089.721-.149,1.4-.26,2.062a28.119,28.119,0,0,1-31.523,23.682c-15.911-1.833-27.287-17.766-23.91-33.487a28.142,28.142,0,0,1,30.1-22.431,27.143,27.143,0,0,1,12.688,4.361,2.041,2.041,0,0,1,.882,2.914,2.1,2.1,0,0,1-3,.6c-.281-.152-.541-.34-.821-.495-8.591-4.739-17.213-4.768-25.408.623-8.3,5.457-11.846,13.5-10.63,23.345,1.364,11.036,10.265,19.383,21.535,20.636a24.028,24.028,0,0,0,24.813-15.768c.682-1.9,1.021-3.927,1.556-6.041h-5.807c-.237,1.006-.424,1.987-.7,2.943-2.449,8.5-10.29,13.816-19.423,13.183-8.2-.568-15.228-7.384-16.383-15.893a18.319,18.319,0,0,1,19.957-20.63,18.347,18.347,0,0,1,16.334,15.176c.07.379.492.969.778.986,1.629.1,3.266.046,5.021.046-.073-.742-.094-1.33-.193-1.9A23.564,23.564,0,0,0-211.9,313c-.721-1.04-1.018-2.07-.007-3.083.953-.956,2.369-.721,3.261.559a27.931,27.931,0,0,1,4.868,12.788c.052.425.448,1.134.722,1.152C-201.428,324.529-199.791,324.474-198.159,324.474Zm-19.637,0c-.29-6.522-7.181-12.389-14.106-12.212A14.325,14.325,0,0,0-246,326.76a14.256,14.256,0,0,0,14.437,13.983c6.968-.079,13.713-5.982,13.741-12.086h-5.565c-.168.439-.3.825-.461,1.2a8.653,8.653,0,0,1-7.988,5.259,8.664,8.664,0,0,1-7.874-5.432,8.533,8.533,0,0,1,2.029-9.329,8.568,8.568,0,0,1,13.933,3.04c.175.421.617,1.009.968,1.032C-221.152,324.538-219.509,324.477-217.8,324.477Zm32.088,4.113-.214.419c.864.8,1.657,2.163,2.605,2.28a66.412,66.412,0,0,0,8.019.11c-.672-1.227-1.166-2.253-1.773-3.206a2.807,2.807,0,0,1-.014-3.315c.642-1.013,1.169-2.1,1.838-3.323h-6.443a4.107,4.107,0,0,0-3.989,2.928c.886,0,1.753-.019,2.619,0a2.06,2.06,0,0,1,2.279,2.014,2.063,2.063,0,0,1-2.228,2.084C-183.907,328.619-184.808,328.59-185.709,328.59Zm-42.222-4.105a4.207,4.207,0,0,0-4.922-2.272,4.4,4.4,0,0,0-3.333,4.314,4.392,4.392,0,0,0,3.34,4.305,4.14,4.14,0,0,0,4.883-2.246c-1.289,0-2.5.042-3.708-.011a2.006,2.006,0,0,1-2.089-2.063,1.978,1.978,0,0,1,2.114-2.019C-230.464,324.454-229.281,324.485-227.93,324.485Z" fill="#5038a1"/>
      <path id="Trazado_138939" data-name="Trazado 138939" d="M-213.564,351.416q6.915,0,13.829,0c1.628,0,2.558.724,2.591,1.976.034,1.309-.937,2.127-2.615,2.129q-13.829.013-27.659,0c-1.916,0-3-1.377-2.342-2.876a2.132,2.132,0,0,1,2.229-1.236C-222.874,351.426-218.219,351.416-213.564,351.416Z" transform="translate(-51.365 -67.782)" fill="#5038a1"/>
      <path id="Trazado_138940" data-name="Trazado 138940" d="M-213.489,316.8c4.654,0,9.308.008,13.962-.005,1.062,0,2.017.317,2.22,1.395a2.942,2.942,0,0,1-.533,2.078,2.39,2.39,0,0,1-1.715.615q-13.962.055-27.924.017c-1.551,0-2.52-.91-2.465-2.149.052-1.2.965-1.94,2.493-1.944C-222.8,316.789-218.142,316.8-213.489,316.8Z" transform="translate(-51.37 -45.844)" fill="#5038a1"/>
      <path id="Trazado_138941" data-name="Trazado 138941" d="M-272.911,487.447c1.272-1.351,2.278-2.471,3.341-3.534s2.268-1.153,3.143-.317c.953.911.876,2.069-.265,3.236q-2.156,2.205-4.36,4.363c-1.359,1.332-2.305,1.332-3.643.025-.882-.862-1.768-1.722-2.612-2.621a2.021,2.021,0,0,1-.089-3.036,2.023,2.023,0,0,1,2.938.11C-273.961,486.137-273.555,486.7-272.911,487.447Z" transform="translate(-20.889 -151.203)" fill="#5038a1"/>
      <path id="Trazado_138942" data-name="Trazado 138942" d="M-272.884,348.914c1.231-1.312,2.234-2.433,3.295-3.5,1.1-1.1,2.372-1.171,3.241-.244s.765,2.011-.335,3.136c-1.469,1.5-2.947,3-4.454,4.46-1.291,1.254-2.244,1.23-3.544-.034-.884-.86-1.767-1.722-2.611-2.62a2.027,2.027,0,0,1-.127-3.038,2.054,2.054,0,0,1,3.037.164C-273.92,347.678-273.528,348.189-272.884,348.914Z" transform="translate(-20.886 -63.423)" fill="#5038a1"/>
      <path id="Trazado_138943" data-name="Trazado 138943" d="M-272.952,314.3c1.29-1.363,2.3-2.475,3.357-3.536,1.132-1.135,2.339-1.208,3.234-.265.873.919.78,2.022-.312,3.135-1.5,1.532-3.013,3.056-4.553,4.55-1.164,1.129-2.163,1.12-3.337,0-.957-.914-1.9-1.842-2.8-2.814a2,2,0,0,1-.075-2.936,2.038,2.038,0,0,1,2.943.04A20.482,20.482,0,0,1-272.952,314.3Z" transform="translate(-20.884 -41.44)" fill="#5038a1"/>
      <path id="Trazado_138944" data-name="Trazado 138944" d="M-272.962,452.795c1.319-1.385,2.333-2.494,3.4-3.554,1.085-1.082,2.238-1.169,3.139-.307.951.909.869,2.071-.27,3.23q-2.207,2.247-4.455,4.455c-1.23,1.2-2.214,1.212-3.435.041-.923-.884-1.834-1.783-2.709-2.714a2.024,2.024,0,0,1-.116-3.036,2.086,2.086,0,0,1,3.046.181A19.982,19.982,0,0,1-272.962,452.795Z" transform="translate(-20.888 -129.222)" fill="#5038a1"/>
      <path id="Trazado_138945" data-name="Trazado 138945" d="M-272.957,383.551c1.343-1.4,2.387-2.546,3.488-3.629a2.068,2.068,0,0,1,3.031-.242c.927.869.906,2.056-.135,3.132q-2.28,2.356-4.633,4.641a2.1,2.1,0,0,1-3.341,0q-1.378-1.326-2.7-2.707a2.033,2.033,0,0,1-.208-3.025c.868-.908,2.056-.864,3.12.173C-273.884,382.334-273.52,382.867-272.957,383.551Z" transform="translate(-20.891 -85.35)" fill="#5038a1"/>
      <path id="Trazado_138946" data-name="Trazado 138946" d="M-272.915,418.007c1.223-1.247,2.285-2.363,3.384-3.44s2.223-1.147,3.124-.263.851,2.045-.206,3.131q-2.288,2.346-4.635,4.635a2.072,2.072,0,0,1-3.235.036c-.988-.942-1.963-1.9-2.892-2.9a1.987,1.987,0,0,1-.057-2.925,2,2,0,0,1,2.934.038C-273.968,416.8-273.514,417.362-272.915,418.007Z" transform="translate(-20.884 -107.259)" fill="#5038a1"/>
    </g>
  </g>
</svg>
