<svg xmlns="http://www.w3.org/2000/svg" width="122.016" height="120" viewBox="0 0 122.016 120">
  <g id="Grupo_131960" data-name="Grupo 131960" transform="translate(7769 3413)">
    <g id="Grupo_131956" data-name="Grupo 131956" transform="translate(-7386.231 -3648.813)">
      <path id="Trazado_138947" data-name="Trazado 138947" d="M-326.531,289.028c3.156.794,5.942,1.476,8.718,2.2,4.571,1.188,7.913,5.3,7.737,9.573h-3.878c-.031-.116-.091-.3-.128-.493a6.255,6.255,0,0,0-5.044-5.236q-4.618-1.14-9.23-2.307c-1.489-.377-1.93-.961-1.95-2.511-.006-.466.034-.935-.007-1.4-.178-2,.052-3.67,2.136-4.794a4.271,4.271,0,0,0,1.924-3.946c.021-4.023.069-8.049-.014-12.071a8.08,8.08,0,0,0-8.208-7.832,8.092,8.092,0,0,0-8.012,7.905c-.066,3.98-.034,7.963-.009,11.944a4.989,4.989,0,0,0,2.583,4.522,2.653,2.653,0,0,1,1.485,2.694c-.059,1.013-.033,2.033-.007,3.049a2.207,2.207,0,0,1-1.9,2.448c-3.04.736-6.072,1.51-9.108,2.263-3.579.887-5.26,3.031-5.262,6.734q0,6.925,0,13.851v1.444h-4.066V315.9c0-4.829-.011-9.657,0-14.486a10.116,10.116,0,0,1,8.017-10.221c2.7-.689,5.408-1.358,8.111-2.036a1.575,1.575,0,0,0-.62-1.977,8.775,8.775,0,0,1-3.29-6.875c-.057-4.108-.079-8.218,0-12.325a12.178,12.178,0,0,1,12.177-11.83,12.212,12.212,0,0,1,12.184,11.832c.025.884,0,1.77,0,2.836l8-1.984a1.6,1.6,0,0,0-.657-2.027,8.734,8.734,0,0,1-3.242-6.769c-.064-4.15-.087-8.3,0-12.452a12.172,12.172,0,0,1,12.108-11.768,12.162,12.162,0,0,1,12.233,11.768c.092,4.106.06,8.217.009,12.325a9.354,9.354,0,0,1-3.308,7.023,8.141,8.141,0,0,0-1.077,1.751l8.353,2.1c.114-1.582.109-3.095.35-4.567a12.142,12.142,0,0,1,12.857-10.047,12.173,12.173,0,0,1,11.277,11.68c.1,4.149.066,8.3.009,12.452a9.309,9.309,0,0,1-3.252,6.919,8.606,8.606,0,0,0-1.119,1.789c3.112.79,5.85,1.478,8.583,2.181a10.125,10.125,0,0,1,8.008,10.23c.014,4.829,0,9.657,0,14.486v1.17h-4.067v-1.339q0-7.052,0-14.1a6.184,6.184,0,0,0-5.15-6.573c-3.035-.761-6.072-1.515-9.1-2.283-1.584-.4-1.994-.943-2.009-2.59,0-.508.04-1.021-.008-1.524-.186-1.93.115-3.491,2.093-4.56a4.273,4.273,0,0,0,1.965-3.927c.027-4.066.08-8.134-.015-12.2a8.07,8.07,0,0,0-8.142-7.765,8.084,8.084,0,0,0-8.069,7.845c-.076,4.022-.044,8.048-.008,12.071a4.978,4.978,0,0,0,2.634,4.491,2.573,2.573,0,0,1,1.428,2.6c-.055,1.056-.025,2.117-.008,3.176a2.163,2.163,0,0,1-1.842,2.363c-2.873.706-5.725,1.517-8.618,2.126-3.308.7-5.388,2.489-5.858,5.915h-3.927a9.88,9.88,0,0,1,7.034-9.337c2.589-.774,5.238-1.349,7.86-2.016.4-.1.8-.219,1.568-.427a7.369,7.369,0,0,0-1.039-1.767,9.464,9.464,0,0,1-3.3-7.026c-.042-1.69-.008-3.381-.008-5.2l-9.351-2.355c-.369-.093-.741-.175-1.109-.27a2.08,2.08,0,0,1-1.741-2.18,23.121,23.121,0,0,1,.049-3.677,3.244,3.244,0,0,1,1.167-2.038,5.83,5.83,0,0,0,2.858-5.311c-.039-3.642.005-7.285-.015-10.927a8.13,8.13,0,0,0-8.185-8.384,8.132,8.132,0,0,0-8.073,8.368c-.019,3.727,0,7.455-.006,11.182a5.292,5.292,0,0,0,2.764,4.942,2.351,2.351,0,0,1,1.312,2.274c-.032,1.143-.019,2.287,0,3.431a2.163,2.163,0,0,1-1.857,2.35c-3.079.754-6.147,1.554-9.231,2.282a1.232,1.232,0,0,0-1.142,1.452,43.535,43.535,0,0,1-.205,5.7,8.807,8.807,0,0,1-3.078,5.4A7.741,7.741,0,0,0-326.531,289.028Z" transform="translate(-15.846)" fill="#5038a1"/>
      <path id="Trazado_138948" data-name="Trazado 138948" d="M-296.22,453.213l-3.744.978a22.683,22.683,0,0,0-27.062-16.125A22.46,22.46,0,0,0-344.1,460.728a22.386,22.386,0,0,0,18.5,21.118,22.542,22.542,0,0,0,25.6-16.419l3.712.975c-1.207,9.666-12.084,18.732-23.47,19.8-11.725,1.1-27.177-7.668-28.451-24.35-3.755,0-7.529.182-11.277-.057a10.174,10.174,0,0,0-7.88,2.549c-1.133,1.005-2.479,1.769-3.711,2.665a2.251,2.251,0,0,1-2.916.049c-2.546-1.825-5.127-3.6-7.665-5.438-1.491-1.079-1.466-2.548.048-3.638,2.508-1.806,5.056-3.555,7.561-5.365a2.313,2.313,0,0,1,3.021.043c2.093,1.512,4.189,3.023,6.335,4.457a3.811,3.811,0,0,0,1.958.64c4.826.053,9.653.029,14.6.029.946-8.653,4.907-15.5,12.214-20.25a25.331,25.331,0,0,1,16.081-4.082A26.213,26.213,0,0,1-296.22,453.213ZM-368,459.818c-1.47-1.045-2.787-2-4.135-2.918a.885.885,0,0,0-.789-.061c-1.387.928-2.741,1.9-4.254,2.972,1.488,1.058,2.8,2.021,4.156,2.925a.992.992,0,0,0,.893-.011C-370.775,461.82-369.461,460.858-368,459.818Z" transform="translate(0 -130.48)" fill="#5038a1"/>
      <path id="Trazado_138949" data-name="Trazado 138949" d="M-202.772,493.387h1.569c10.919,0,21.838-.013,32.757.022a2.856,2.856,0,0,0,2.309-.978,56.735,56.735,0,0,1,4.144-4.11,3.982,3.982,0,0,1,2.32-.988c5.077-.088,10.156-.05,15.235-.042,1.834,0,2.553.708,2.558,2.517q.016,5.587,0,11.173c0,1.878-.714,2.569-2.635,2.571-5.036.006-10.074.044-15.109-.041a3.968,3.968,0,0,1-2.334-.955c-1.526-1.334-2.928-2.815-4.324-4.29a2.478,2.478,0,0,0-1.988-.829q-16.442.038-32.885.017h-1.619Zm39.257,1.971c1.342,1.319,2.422,2.455,3.592,3.489a2.572,2.572,0,0,0,1.532.613c3.807.051,7.615.03,11.423.023.322,0,.643-.056.924-.082v-8.046c-4.289,0-8.476-.006-12.663.013a1.462,1.462,0,0,0-.909.3C-160.893,492.833-162.13,494.039-163.515,495.358Z" transform="translate(-118.881 -166.083)" fill="#5038a1"/>
      <path id="Trazado_138950" data-name="Trazado 138950" d="M-221.787,468.818l-3.673,1.505a14.334,14.334,0,0,0-9.339-8.332,13.77,13.77,0,0,0-8.966.4,14.255,14.255,0,0,0-9.124,14.4A14.343,14.343,0,0,0-241.626,489.6c5.421,1.145,12.579-.876,16.18-8.556l3.543,1.416c-1.378,6.462-10.195,12.015-18.089,11.465a18.387,18.387,0,0,1-16.953-16.838,18.311,18.311,0,0,1,14.4-19.284A18.229,18.229,0,0,1-221.787,468.818Z" transform="translate(-83.061 -146.334)" fill="#5038a1"/>
      <path id="Trazado_138951" data-name="Trazado 138951" d="M-216.18,483.956l-2.552,2.877c-3.72-2.063-6.814-1.721-8.908.936a6.052,6.052,0,0,0,.269,7.813c2.2,2.434,5.267,2.663,8.6.56l2.547,2.889c-3.225,3.547-9.682,3.5-13.5-.036a10.149,10.149,0,0,1-.508-14.462A10.035,10.035,0,0,1-216.18,483.956Z" transform="translate(-98.911 -162.177)" fill="#5038a1"/>
      <path id="Trazado_138952" data-name="Trazado 138952" d="M-334.635,451.717V439.688h3.924v12.029Z" transform="translate(-31.791 -134.653)" fill="#5038a1"/>
      <path id="Trazado_138953" data-name="Trazado 138953" d="M-79.2,451.75H-83.1V439.711H-79.2Z" transform="translate(-197.918 -134.668)" fill="#5038a1"/>
    </g>
  </g>
</svg>
