<svg xmlns="http://www.w3.org/2000/svg" width="118.272" height="120" viewBox="0 0 118.272 120">
  <g id="Grupo_131961" data-name="Grupo 131961" transform="translate(7509 3304)">
    <g id="Grupo_131957" data-name="Grupo 131957" transform="translate(-7178.883 -3292.621)">
      <path id="Trazado_138954" data-name="Trazado 138954" d="M-265.074,217.6c1.405,0,2.633-.02,3.86.006a1.82,1.82,0,0,1,2,1.756,29,29,0,0,1-.095,5.517,9.7,9.7,0,0,1-10.032,8.451q-25.3.018-50.6,0a11.556,11.556,0,0,1-2.077-.185,9.773,9.773,0,0,1-8.081-9.488c-.026-1.269-.024-2.54,0-3.81.026-1.517.751-2.216,2.3-2.245,1.107-.021,2.215-.02,3.323-.032a1.858,1.858,0,0,0,.286-.1v-1.356q0-19.481,0-38.962c0-2.266.566-2.834,2.823-2.835,5.7,0,11.409.007,17.114-.007a2.06,2.06,0,0,1,2.237,1.349c.486,1.39-.518,2.582-2.194,2.587-4.843.015-9.686.005-14.528.006h-1.425V217.52h51.151v-1.348q0-8.727,0-17.453c0-1.336.551-2.111,1.572-2.3,1.376-.252,2.357.653,2.361,2.243q.019,8.726.005,17.453Zm1.894,4.018h-62.983c0,.7-.012,1.307,0,1.917a5.672,5.672,0,0,0,4.683,5.674,32.966,32.966,0,0,0,5.167.049c0-.55-.014-1.078,0-1.606a1.99,1.99,0,0,1,1.993-2.177c1.155.017,1.906.871,1.942,2.23.015.551,0,1.1,0,1.63h35.426c.175-1.573-.463-3.777,1.993-3.8,2.537-.02,1.817,2.288,2.069,3.772C-264.776,230.321-262.615,226.431-263.18,221.615Z" transform="translate(0 -124.713)" fill="#5038a1"/>
      <path id="Trazado_138955" data-name="Trazado 138955" d="M-242.65,125.378l-24.693,20.332c1.493,2.579,2.946,5.087,4.4,7.6.225.39.464.774.656,1.181a1.951,1.951,0,0,1-.72,2.672,1.953,1.953,0,0,1-2.674-.734c-.907-1.46-1.735-2.969-2.6-4.457-.759-1.307-1.52-2.613-2.359-4.054-2.479,1.469-4.971,2.806-7.3,4.377a3.615,3.615,0,0,0-.945,4.763c1.279,2.333,2.607,4.643,4,6.91a3.843,3.843,0,0,0,5.169,1.4.836.836,0,0,0,.108-.058c8.055-5.434,17.384-7.956,26.289-11.442,4.614-1.806,9.277-3.484,14.061-5.274-.241-.438-.439-.816-.652-1.184q-3.906-6.753-7.812-13.506c-.739-1.282-.531-2.376.512-2.992,1.059-.626,2.175-.227,2.944,1.1q3.484,6,6.943,12.021c.758,1.313,1.52,2.622,2.27,3.938,1.1,1.922.752,2.911-1.3,3.68q-13.689,5.142-27.382,10.273c-.458.172-.913.349-1.52.582,1.166,2.033,2.282,4.008,3.429,5.965a5.882,5.882,0,0,1,.675,4.842,5.542,5.542,0,0,1-4.7,4.15,5.582,5.582,0,0,1-5.985-2.743c-1.378-2.224-2.642-4.52-3.814-6.539a45.613,45.613,0,0,1-5.92,1.6c-2.09.283-3.882-.788-5.47-2.209-.691.378-1.361.764-2.049,1.117a5.923,5.923,0,0,1-8.012-2.241,5.863,5.863,0,0,1,2.186-8.006,2.975,2.975,0,0,1,.427-.243,1.915,1.915,0,0,0,1.333-2.4,7.337,7.337,0,0,1,3.142-6.939,3.063,3.063,0,0,1,.509-.344c8.523-4.136,15.346-10.594,22.582-16.485,4.389-3.573,8.74-7.192,13.111-10.787,1.609-1.323,2.707-1.118,3.777.7.519.882,1.051,1.758,1.537,2.658a1.992,1.992,0,0,1-.653,2.882,1.981,1.981,0,0,1-2.735-.859C-242.122,126.249-242.346,125.87-242.65,125.378Zm-19.8,40.511c1.367,2.356,2.644,4.629,4,6.857a1.824,1.824,0,0,0,2.473.711,1.782,1.782,0,0,0,.993-2.356c-1.269-2.4-2.677-4.734-4.071-7.167Zm-18.86-5.06c-1.125.8-2.693,1.024-2.634,2.683a2.331,2.331,0,0,0,.98,1.662c1.392.815,2.417-.276,3.613-.972Z" transform="translate(-28.367 -88.494)" fill="#5038a1"/>
      <path id="Trazado_138956" data-name="Trazado 138956" d="M-60.35-5.421c3.858,0,7.716-.011,11.574,0A5.884,5.884,0,0,1-42.588.763q.022,11.493,0,22.986a5.893,5.893,0,0,1-6.258,6.237q-11.451.017-22.9,0a5.917,5.917,0,0,1-6.305-6.315c-.009-3.728-.015-7.457.007-11.186a1.967,1.967,0,0,1,2-2.16,1.993,1.993,0,0,1,1.925,2.124c.013.286,0,.573,0,.86q0,5.1,0,10.2c0,1.856.671,2.539,2.5,2.54q11.267.009,22.533,0c1.861,0,2.548-.671,2.55-2.494q.009-11.247,0-22.494c0-1.863-.668-2.548-2.492-2.549q-11.328-.009-22.656,0c-1.755,0-2.423.7-2.437,2.479-.009,1.106.026,2.214-.012,3.318A1.961,1.961,0,0,1-76.11,6.371a1.968,1.968,0,0,1-1.936-2.106c-.032-1.269-.029-2.541,0-3.81A5.866,5.866,0,0,1-72.17-5.412C-68.23-5.451-64.29-5.421-60.35-5.421Z" transform="translate(-169.283 -3.994)" fill="#5038a1"/>
      <path id="Trazado_138957" data-name="Trazado 138957" d="M-78.043,198.025c0-3.81-.009-7.621,0-11.432s2.483-6.276,6.339-6.279q11.389-.01,22.779,0c3.864,0,6.336,2.444,6.349,6.269q.018,5.47,0,10.94c0,1.547-.744,2.451-1.969,2.451s-1.964-.9-1.967-2.451c-.008-3.605,0-7.211-.006-10.817,0-1.765-.694-2.456-2.459-2.458q-11.328-.01-22.656,0c-1.775,0-2.466.685-2.468,2.447q-.01,11.309,0,22.617c0,1.774.688,2.469,2.446,2.471q11.328.011,22.656,0c1.778,0,2.465-.687,2.482-2.438.011-1.106-.021-2.213.011-3.319a1.966,1.966,0,0,1,1.941-2.1,1.951,1.951,0,0,1,1.979,2.061c.037,1.392.056,2.789-.01,4.178a5.77,5.77,0,0,1-5.573,5.522q-12.127.1-24.256,0a5.779,5.779,0,0,1-5.61-5.866C-78.07,205.892-78.042,201.959-78.043,198.025Z" transform="translate(-169.295 -128.744)" fill="#5038a1"/>
      <path id="Trazado_138958" data-name="Trazado 138958" d="M-330.085,66.22q0-7.561,0-15.122c0-1.931.65-2.58,2.583-2.582q11.207-.006,22.415,0c1.932,0,2.588.652,2.588,2.578q.005,15.122,0,30.245c0,1.928-.657,2.583-2.585,2.584q-11.208.006-22.415,0c-1.931,0-2.584-.653-2.586-2.581Q-330.091,73.781-330.085,66.22Zm23.561,13.715V52.547h-19.555V79.935Z" transform="translate(-0.021 -40.225)" fill="#5038a1"/>
      <path id="Trazado_138959" data-name="Trazado 138959" d="M-234.058,6.322a17.736,17.736,0,0,1,17.8-17.7A17.726,17.726,0,0,1-198.594,6.446a17.745,17.745,0,0,1-17.921,17.578A17.737,17.737,0,0,1-234.058,6.322Zm31.523.011A13.79,13.79,0,0,0-216.281-7.447,13.8,13.8,0,0,0-230.116,6.37a13.808,13.808,0,0,0,13.687,13.72A13.793,13.793,0,0,0-202.535,6.334Z" transform="translate(-64.516 0)" fill="#5038a1"/>
      <path id="Trazado_138960" data-name="Trazado 138960" d="M-32.253,218.159a7.889,7.889,0,0,1-7.924,7.855,7.889,7.889,0,0,1-7.834-7.82,7.886,7.886,0,0,1,7.863-7.915A7.883,7.883,0,0,1-32.253,218.159Zm-7.889-3.942a3.948,3.948,0,0,0-3.925,3.907,3.946,3.946,0,0,0,4.005,3.948A3.95,3.95,0,0,0-36.2,218.1,3.962,3.962,0,0,0-40.141,214.216Z" transform="translate(-189.471 -148.872)" fill="#5038a1"/>
      <path id="Trazado_138961" data-name="Trazado 138961" d="M-40.081,26.271c3.3.438,4,.839,3.931,2.186-.066,1.313-.808,1.7-3.932,1.955,0,1.851.022,3.721-.007,5.589a1.975,1.975,0,0,1-2.465,2.118,2,2,0,0,1-1.472-2.152c.013-1.835,0-3.67,0-5.586-1.639-.182-3.748.47-3.909-2.081-.086-1.369.82-1.792,3.911-1.956,0-.662-.016-1.34,0-2.017a5.892,5.892,0,0,1,5.71-5.788c1.312-.043,2.627-.032,3.94,0a1.981,1.981,0,0,1,2.158,2.01,1.986,1.986,0,0,1-2.137,1.91c-1.025.029-2.052,0-3.078.008-2.021.007-2.652.633-2.657,2.633C-40.082,25.464-40.081,25.832-40.081,26.271Z" transform="translate(-189.522 -20.075)" fill="#5038a1"/>
      <path id="Trazado_138962" data-name="Trazado 138962" d="M-88.311,156.253a2.087,2.087,0,0,1-2.354-1.839,2.034,2.034,0,0,1,1.835-2.1q4.7-.955,9.4-1.9c1.482-.294,2.533.3,2.752,1.524.216,1.205-.449,2.084-1.881,2.383-3.049.638-6.1,1.246-9.159,1.861A5.018,5.018,0,0,1-88.311,156.253Z" transform="translate(-160.82 -108.62)" fill="#5038a1"/>
      <path id="Trazado_138963" data-name="Trazado 138963" d="M-115.892,86.1a13.789,13.789,0,0,1-.907,1.766q-2.691,3.648-5.442,7.252c-.889,1.17-1.987,1.414-2.953.706s-1.08-1.856-.217-3.017c1.851-2.491,3.723-4.967,5.589-7.448a1.777,1.777,0,0,1,2.224-.816A7.972,7.972,0,0,1-115.892,86.1Z" transform="translate(-137.092 -64.32)" fill="#5038a1"/>
      <path id="Trazado_138964" data-name="Trazado 138964" d="M-95.951,116.3a7.87,7.87,0,0,1-1.205,1.686c-2.518,1.953-5.076,3.856-7.647,5.739a1.921,1.921,0,0,1-2.831-.3,1.929,1.929,0,0,1,.542-2.879c2.505-1.9,5.034-3.776,7.553-5.661a1.794,1.794,0,0,1,2.266-.221A8.716,8.716,0,0,1-95.951,116.3Z" transform="translate(-149.136 -84.44)" fill="#5038a1"/>
      <path id="Trazado_138965" data-name="Trazado 138965" d="M-300.007,96.432c1.231,0,2.463-.028,3.694.008a1.954,1.954,0,0,1,2.068,1.972,1.958,1.958,0,0,1-2.1,1.94q-3.817.045-7.634,0a1.942,1.942,0,0,1-2.067-1.972,1.96,1.96,0,0,1,2.1-1.94C-302.634,96.406-301.32,96.432-300.007,96.432Z" transform="translate(-16.166 -72.402)" fill="#5038a1"/>
      <path id="Trazado_138966" data-name="Trazado 138966" d="M-300.035,124.323c-1.272,0-2.545.02-3.817-.005a1.985,1.985,0,0,1-2.2-1.973,1.983,1.983,0,0,1,2.218-1.948q3.694-.032,7.388,0a1.976,1.976,0,0,1,2.2,1.97,2,2,0,0,1-2.219,1.952C-297.654,124.341-298.844,124.323-300.035,124.323Z" transform="translate(-16.166 -88.493)" fill="#5038a1"/>
      <path id="Trazado_138967" data-name="Trazado 138967" d="M-290.04,76.364c-.7,0-1.4.04-2.092-.008a1.946,1.946,0,0,1-1.914-2,1.914,1.914,0,0,1,1.885-1.9c1.352-.058,2.71-.057,4.062,0a1.922,1.922,0,0,1,1.915,1.992,1.951,1.951,0,0,1-1.886,1.9C-288.724,76.4-289.384,76.364-290.04,76.364Z" transform="translate(-24.226 -56.281)" fill="#5038a1"/>
      <path id="Trazado_138968" data-name="Trazado 138968" d="M-195.83,18.626a8.7,8.7,0,0,1,.939.363c3.7,1.838,7.4,3.692,11.107,5.526a2.159,2.159,0,0,1,1.455,1.945,2.139,2.139,0,0,1-1.432,1.961c-3.7,1.837-7.4,3.7-11.108,5.524-1.85.909-3.185.073-3.194-1.986q-.026-5.528,0-11.056A2.057,2.057,0,0,1-195.83,18.626Zm1.766,10.535,5.363-2.69-5.363-2.679Z" transform="translate(-88.684 -20.152)" fill="#5038a1"/>
    </g>
  </g>
</svg>
