<svg xmlns="http://www.w3.org/2000/svg" xmlns:xlink="http://www.w3.org/1999/xlink" width="295" height="167.512" viewBox="0 0 295 167.512">
  <defs>
    <linearGradient id="linear-gradient" x1="-33.865" y1="0.754" x2="-32.835" y2="0.754" gradientUnits="objectBoundingBox">
      <stop offset="0" stop-color="#b7c0ce"/>
      <stop offset="1" stop-color="#ebeff2"/>
    </linearGradient>
    <linearGradient id="linear-gradient-2" x1="-33.306" y1="0.898" x2="-33.168" y2="0.669" gradientUnits="objectBoundingBox">
      <stop offset="0.494" stop-color="#ebeff2"/>
      <stop offset="1" stop-color="#fff"/>
    </linearGradient>
    <linearGradient id="linear-gradient-3" x1="0.506" y1="0.493" x2="1.087" y2="2.347" gradientUnits="objectBoundingBox">
      <stop offset="0" stop-color="#ffc444"/>
      <stop offset="0.996" stop-color="#f36f56"/>
    </linearGradient>
    <linearGradient id="linear-gradient-4" x1="-1173.652" y1="12.931" x2="-1203.449" y2="92.656" xlink:href="#linear-gradient-3"/>
    <clipPath id="clip-path">
      <path id="Trazado_116557" data-name="Trazado 116557" d="M4401.848,838.62l-102.692,6.155a2.6,2.6,0,0,1-2.91-2.47V779.552a2.8,2.8,0,0,1,2.91-2.656l102.692-.386c1.34-.005,4.592,1.069,4.592,2.4l-2.167,57.156A2.6,2.6,0,0,1,4401.848,838.62Z" transform="translate(-4296.245 -776.51)" fill="none"/>
    </clipPath>
    <linearGradient id="linear-gradient-5" x1="-83.678" y1="1.239" x2="-80.968" y2="-1.088" gradientUnits="objectBoundingBox">
      <stop offset="0" stop-color="#aa80f9"/>
      <stop offset="0.996" stop-color="#6165d7"/>
    </linearGradient>
    <clipPath id="clip-path-2">
      <path id="Trazado_116567" data-name="Trazado 116567" d="M5038.479,655.036l-4.9,37.144c-23.007-3.564,28.91,23.172,29.559,23.244l23.617,2.621a1.344,1.344,0,0,0,1.491-1.185l2.989-28.809,27.9-1.43a12.472,12.472,0,0,0,11.819-11.841c.714-14.45,1.758-37.654,1.229-37.639l-31.676.37C5082.814,621.423,5038.548,654.34,5038.479,655.036Z" transform="translate(-5027.703 -633.087)" fill="none"/>
    </clipPath>
    <linearGradient id="linear-gradient-6" x1="-0.099" y1="0.5" x2="1" y2="0.5" gradientUnits="objectBoundingBox">
      <stop offset="0" stop-color="#311944"/>
      <stop offset="1" stop-color="#6b3976"/>
    </linearGradient>
    <linearGradient id="linear-gradient-7" x1="0.638" y1="0.15" x2="-0.137" y2="2.372" xlink:href="#linear-gradient-5"/>
    <linearGradient id="linear-gradient-8" x1="263.27" y1="149.533" x2="264.322" y2="150.982" gradientUnits="objectBoundingBox">
      <stop offset="0" stop-color="#444b8c"/>
      <stop offset="0.996" stop-color="#26264f"/>
    </linearGradient>
    <linearGradient id="linear-gradient-9" x1="370.87" y1="16.924" x2="370.87" y2="15.509" xlink:href="#linear-gradient-3"/>
    <linearGradient id="linear-gradient-10" x1="332.973" y1="184.112" x2="334.305" y2="185.901" xlink:href="#linear-gradient-8"/>
    <linearGradient id="linear-gradient-11" x1="304.809" y1="-0.515" x2="305.903" y2="0.793" xlink:href="#linear-gradient-8"/>
    <linearGradient id="linear-gradient-12" x1="313.397" y1="-62.97" x2="313.397" y2="-64.334" xlink:href="#linear-gradient-3"/>
    <linearGradient id="linear-gradient-13" x1="378.398" y1="-1.298" x2="379.758" y2="0.479" xlink:href="#linear-gradient-8"/>
    <linearGradient id="linear-gradient-14" x1="0.624" y1="0.168" x2="-0.065" y2="1.411" xlink:href="#linear-gradient-3"/>
    <linearGradient id="linear-gradient-15" x1="-0.124" y1="0.253" x2="0.63" y2="0.79" gradientUnits="objectBoundingBox">
      <stop offset="0.004" stop-color="#e38ddd"/>
      <stop offset="1" stop-color="#9571f6"/>
    </linearGradient>
    <linearGradient id="linear-gradient-16" x1="-432.365" y1="56.719" x2="-433.151" y2="49.836" xlink:href="#linear-gradient-8"/>
    <linearGradient id="linear-gradient-17" x1="-1519.407" y1="50.11" x2="-1519.407" y2="40.274" xlink:href="#linear-gradient-3"/>
    <linearGradient id="linear-gradient-18" x1="-1049.763" y1="47.549" x2="-1049.763" y2="38.08" xlink:href="#linear-gradient-3"/>
    <linearGradient id="linear-gradient-19" x1="-560.487" y1="30.447" x2="-561.511" y2="26.656" xlink:href="#linear-gradient-8"/>
    <linearGradient id="linear-gradient-20" x1="-185.267" y1="2.348" x2="-185.431" y2="3.307" gradientUnits="objectBoundingBox">
      <stop offset="0" stop-color="#311944"/>
      <stop offset="1" stop-color="#893976"/>
    </linearGradient>
    <linearGradient id="linear-gradient-21" x1="-197.404" y1="2.348" x2="-197.579" y2="3.307" xlink:href="#linear-gradient-20"/>
    <linearGradient id="linear-gradient-22" x1="-165.134" y1="2.621" x2="-167.856" y2="2.587" xlink:href="#linear-gradient-20"/>
    <linearGradient id="linear-gradient-23" x1="-126.931" y1="6.57" x2="-127.472" y2="7.517" xlink:href="#linear-gradient-8"/>
    <linearGradient id="linear-gradient-24" x1="-431.571" y1="45.866" x2="-431.134" y2="43.824" xlink:href="#linear-gradient-5"/>
    <linearGradient id="linear-gradient-25" x1="-291.278" y1="46.013" x2="-290.265" y2="46.013" xlink:href="#linear-gradient-8"/>
    <linearGradient id="linear-gradient-26" x1="-293.048" y1="44.436" x2="-292.033" y2="44.436" xlink:href="#linear-gradient-8"/>
    <linearGradient id="linear-gradient-27" x1="-520.455" y1="65.298" x2="-519.439" y2="65.298" xlink:href="#linear-gradient-8"/>
    <linearGradient id="linear-gradient-28" x1="-61.76" y1="3.96" x2="-61.246" y2="2.839" xlink:href="#linear-gradient-8"/>
  </defs>
  <g id="Grupo_131954" data-name="Grupo 131954" transform="translate(8840 4271.104)">
    <g id="Grupo_131953" data-name="Grupo 131953" transform="translate(-9020 -11334.104)">
      <g id="Grupo_130825" data-name="Grupo 130825" transform="translate(0 188.108)">
        <g id="Grupo_130823" data-name="Grupo 130823" transform="translate(180 6874.892)">
          <path id="Trazado_115813" data-name="Trazado 115813" d="M292.238,32.977A195.814,195.814,0,0,1,274.591,49.5a144.159,144.159,0,0,1-19.927,13.775A104.7,104.7,0,0,1,232.009,73a73.75,73.75,0,0,1-12.5,2.477c-1.077.093-2.154.213-3.247.246-.545.023-1.09.057-1.638.07l-1.65.007c-1.108.011-2.174-.036-3.268-.056-1.081-.066-2.173-.11-3.253-.216A91.009,91.009,0,0,1,181.53,69.3c-7.856-3.052-15.2-6.735-22.271-10.261-3.532-1.771-7.009-3.493-10.429-5.094-1.713-.809-3.407-1.567-5.094-2.309-.841-.355-1.681-.725-2.516-1.061l-2.586-1.05c-7.2-2.915-14.243-5.629-21.174-7.794C114,40.648,110.568,39.7,107.2,38.939c-1.685-.381-3.356-.717-5.006-1s-3.283-.494-4.885-.658a47.052,47.052,0,0,0-17.279,1.045,31.437,31.437,0,0,0-3.53,1.212c-.562.227-1.106.479-1.642.733l-.789.4c-.237.135-.475.259-.707.4a24.7,24.7,0,0,0-5.118,3.976c-.378.388-.749.782-1.1,1.193l-1.367,1.536c-.472.53-.895,1.083-1.345,1.613-.434.54-.83,1.1-1.249,1.632a41.327,41.327,0,0,0-3.993,6.686,37.024,37.024,0,0,0-2.494,6.87,37.414,37.414,0,0,0-1.12,7.128A53.614,53.614,0,0,0,56.936,87,80.252,80.252,0,0,0,62.6,103.117a86.432,86.432,0,0,0,4.158,7.833c.752,1.259,1.531,2.488,2.312,3.646.389.574.786,1.129,1.165,1.632.189.25.377.492.545.689a3.341,3.341,0,0,0,.233.257c.029.023.071.072.083.065l.014,0s.017.017,0-.028l-.082-.186a33.654,33.654,0,0,1-58.294,33.646l-.264-.507-.169-.346-.27-.579-.461-1.039c-.29-.669-.551-1.3-.8-1.924-.5-1.247-.963-2.456-1.409-3.655-.88-2.394-1.677-4.755-2.415-7.123-1.472-4.73-2.7-9.487-3.737-14.317A140.181,140.181,0,0,1,0,91.191,106.1,106.1,0,0,1,4.7,59.743a92.674,92.674,0,0,1,6.283-15.165,86.183,86.183,0,0,1,8.891-13.673,88.894,88.894,0,0,1,10.9-11.486c.981-.836,1.952-1.687,2.945-2.49,1-.786,1.991-1.595,3.006-2.343l1.525-1.112c.519-.375.979-.716,1.6-1.146,1.17-.824,2.372-1.6,3.592-2.351a67.339,67.339,0,0,1,15.6-7.033c.682-.213,1.372-.4,2.06-.591.674-.174,1.339-.342,2.01-.5,1.342-.308,2.685-.589,4.031-.816a71.531,71.531,0,0,1,8.03-.92,77.562,77.562,0,0,1,15.4.694,93.54,93.54,0,0,1,14.055,3.166,142.641,142.641,0,0,1,24.459,10.275c7.518,3.939,14.525,8.228,21.268,12.48l2.63,1.666c.9.572,1.773,1.157,2.657,1.736,1.737,1.17,3.453,2.345,5.115,3.532,3.343,2.369,6.544,4.757,9.7,7.077,6.308,4.648,12.389,9.117,18.659,12.9a74.471,74.471,0,0,0,19.537,8.637c.85.235,1.709.411,2.568.618l1.3.251.65.127c.216.038.428.059.642.09l1.286.173c.431.05.867.079,1.3.121.868.1,1.75.114,2.632.161.884.028,1.774.026,2.667.023.894-.042,1.792-.033,2.692-.114l1.353-.095c.452-.034.9-.093,1.355-.139.9-.088,1.808-.225,2.713-.362.908-.118,1.808-.316,2.716-.471.9-.174,1.806-.384,2.712-.578.9-.238,1.8-.459,2.693-.711.891-.27,1.793-.508,2.679-.8,1.783-.562,3.547-1.2,5.292-1.9.874-.347,1.748-.7,2.608-1.084l1.3-.568,1.278-.61A95.686,95.686,0,0,0,270.289,44.22a93.883,93.883,0,0,0,15.886-16.386,3.983,3.983,0,1,1,6.082,5.123Z" transform="translate(0 0)" fill="#fdb74d"/>
          <g id="Grupo_80729" data-name="Grupo 80729" transform="translate(62.966 6.271)">
            <ellipse id="Elipse_4784" data-name="Elipse 4784" cx="110.376" cy="74.078" rx="110.376" ry="74.078" transform="translate(0 0)" fill="#8c6df2" opacity="0.25"/>
          </g>
        </g>
        <g id="Grupo_130824" data-name="Grupo 130824" transform="translate(257.782 6909.077)">
          <path id="Trazado_116536" data-name="Trazado 116536" d="M4184.234,1237.406c-6.057.9-14.388,2.1-14.4,3.815-.02,3.167,28.284,6.663,53.9,7.015a330.1,330.1,0,0,0,41.1-2.092c68.26-7.008,106.118-5.372,106.206-8.738.106-4.125-56.713-8.5-56.61-9.6.059-.631,40.965,3.982,41.227,2.215.186-1.254-19.878-7.131-43.319-9.476C4274.625,1216.772,4263.233,1225.654,4184.234,1237.406Z" transform="translate(-4169.835 -1130.387)" fill="#d8dee8"/>
          <g id="Grupo_130448" data-name="Grupo 130448" transform="translate(146.091 42.414)">
            <g id="Grupo_130447" data-name="Grupo 130447" transform="translate(0 0)">
              <g id="Grupo_130446" data-name="Grupo 130446">
                <path id="Trazado_116537" data-name="Trazado 116537" d="M5296.186,865.011l-4.824,49.126a1.322,1.322,0,0,0,1.123,1.464l24.241,3.01c1.507.115,2.321-.646,2.4-1.432l5.533-53.107c.084-.8-.679-1.514-2.218-1.484l-24.839,1.025A1.56,1.56,0,0,0,5296.186,865.011Z" transform="translate(-5290.255 -862.587)" fill="url(#linear-gradient)"/>
                <path id="Trazado_116538" data-name="Trazado 116538" d="M5287.816,864.939l-4.833,49.337a1.328,1.328,0,0,0,1.125,1.47l25.106,2.861a1.441,1.441,0,0,0,1.6-1.268l5.546-53.347a1.258,1.258,0,0,0-1.344-1.412l-25.784.955A1.565,1.565,0,0,0,5287.816,864.939Z" transform="translate(-5282.976 -862.58)" fill="url(#linear-gradient-2)"/>
                <path id="Trazado_116539" data-name="Trazado 116539" d="M5294.114,888.207l-4.489,45.745a1.238,1.238,0,0,0,1.055,1.372l23.617,2.621a1.344,1.344,0,0,0,1.491-1.185l5.108-49.228a1.18,1.18,0,0,0-1.246-1.324l-24.208.7A1.449,1.449,0,0,0,5294.114,888.207Z" transform="translate(-5288.748 -883.107)" fill="url(#linear-gradient-3)"/>
              </g>
              <path id="Trazado_116540" data-name="Trazado 116540" d="M5420.563,875.073a.411.411,0,0,0,.428.471.569.569,0,0,0,.528-.5.412.412,0,0,0-.43-.471A.568.568,0,0,0,5420.563,875.073Z" transform="translate(-5402.503 -872.997)" fill="url(#linear-gradient-4)"/>
            </g>
          </g>
          <g id="Grupo_130454" data-name="Grupo 130454" transform="translate(10.036 26.957)">
            <g id="Grupo_130450" data-name="Grupo 130450" transform="translate(0 0)">
              <path id="Trazado_116541" data-name="Trazado 116541" d="M4435.614,1324.678l-175.913-1.309v3.873a2.129,2.129,0,0,0,1.807,2.1l49.743,7.627a7.969,7.969,0,0,0,1.784.072l120.667-8.7a2.06,2.06,0,0,0,1.912-2.055Z" transform="translate(-4257.943 -1247.437)" fill="#bfc8d6"/>
              <g id="Grupo_130449" data-name="Grupo 130449">
                <path id="Trazado_116542" data-name="Trazado 116542" d="M4360.139,815.641l-110.256,7.086a3.172,3.172,0,0,1-3.577-3.009V748.041a3.422,3.422,0,0,1,3.577-3.239h110.256a2.933,2.933,0,0,1,2.94,2.928v64.794A3.172,3.172,0,0,1,4360.139,815.641Z" transform="translate(-4246.306 -744.802)" fill="#bfc8d6"/>
                <path id="Trazado_116543" data-name="Trazado 116543" d="M4373.534,815.641l-110.256,7.086a3.172,3.172,0,0,1-3.577-3.009V748.041a3.422,3.422,0,0,1,3.577-3.239h110.256a2.933,2.933,0,0,1,2.939,2.928v64.794A3.172,3.172,0,0,1,4373.534,815.641Z" transform="translate(-4257.943 -744.802)" fill="#d8dee8"/>
                <path id="Trazado_116544" data-name="Trazado 116544" d="M4401.848,838.62l-102.692,6.155a2.6,2.6,0,0,1-2.91-2.47V779.552a2.8,2.8,0,0,1,2.91-2.656l102.692-.386a2.4,2.4,0,0,1,2.425,2.4v57.156A2.6,2.6,0,0,1,4401.848,838.62Z" transform="translate(-4289.691 -772.348)" fill="#eff2f6"/>
                <path id="Trazado_116545" data-name="Trazado 116545" d="M4719.864,751.762a1.271,1.271,0,1,1-1.268-1.205A1.242,1.242,0,0,1,4719.864,751.762Z" transform="translate(-4655.508 -749.802)" fill="#fff"/>
                <path id="Trazado_116546" data-name="Trazado 116546" d="M4347.416,796.018c-8.542-4.162-15.26,1.112-21.743-4.091-3.931-3.154-2-5.507-6.837-10.22-5.356-5.221-8.844-3.466-14.227-8.165-6.807-5.942-3.4-10.564-9.265-14.83-7.113-5.175-14.784-.385-21.555-5.348a14.7,14.7,0,0,1-5.359-8.562H4261.8a2.011,2.011,0,0,0-2.1,1.9v74.349a1.864,1.864,0,0,0,2.1,1.768l112.945-7.258a1.855,1.855,0,0,0,1.361-.753c-8.268-.273-13.347-2.782-16.594-5.376C4353.164,804.359,4354.266,799.355,4347.416,796.018Z" transform="translate(-4257.943 -744.802)" fill="#fff" opacity="0.48" style="mix-blend-mode: soft-light;isolation: isolate"/>
              </g>
              <path id="Trazado_116547" data-name="Trazado 116547" d="M4377.929,1282.918l-118.228,7.458,51.55,7.9a7.976,7.976,0,0,0,1.784.072l122.579-8.834-55.805-6.549A10.486,10.486,0,0,0,4377.929,1282.918Z" transform="translate(-4257.943 -1212.276)" fill="#fff"/>
              <path id="Trazado_116548" data-name="Trazado 116548" d="M4391.146,1298.658l98.428-6.3,30.462,3.546-97.58,6.736Z" transform="translate(-4372.137 -1220.494)" fill="#d8dee8" opacity="0.47"/>
            </g>
            <g id="Grupo_130453" data-name="Grupo 130453" transform="translate(6.554 4.161)">
              <g id="Grupo_130452" data-name="Grupo 130452" clip-path="url(#clip-path)">
                <g id="Grupo_130451" data-name="Grupo 130451" transform="translate(10.814 3.126)">
                  <path id="Trazado_116549" data-name="Trazado 116549" d="M5001.019,906.335c.676-1.948.4-3.016,0-3.637-.564-.867-1.857-1.585-4.243-3.334-.156-.115-.426-.319-.392-.431.084-.278,1.383-.134,2.514.431a13.19,13.19,0,0,0,2.953,1.172c1.721.513,3.234.084,5.534-.566a19.646,19.646,0,0,0,3.788-1.516s1.667-.758,2.122,0l-2.425,1.212s2.122-.909,3.333-.3l-4.243,1.818s3.183-.909,3.334-.3a10.912,10.912,0,0,1-5.3,2.122c-2.172.219-3.807-.372-4.395.455-.475.667.018,1.858.606,2.879Z" transform="translate(-4915.307 -885.284)" fill="#e8b1a7"/>
                  <path id="Trazado_116550" data-name="Trazado 116550" d="M4792.524,970.96a18.543,18.543,0,0,1,5.893-5.552,19.966,19.966,0,0,1,2.6,1.387c3.07,1.94,3.408,3.338,6.014,4.956a8.773,8.773,0,0,0,5.291,1.776,8.054,8.054,0,0,0,4.983-2.534c4.942-4.767,3.009-13.8,2.8-14.733l5.607-.151c.983,1.724,6.4,12.717,2.425,23.792-5.7,15.862-28.861,16-35.865,8.7C4788.1,984.249,4788.125,977.55,4792.524,970.96Z" transform="translate(-4735.303 -935.664)" fill="#fdb74d"/>
                  <path id="Trazado_116551" data-name="Trazado 116551" d="M4503.56,1046.031a22.425,22.425,0,0,1-2.6-5.171,26.472,26.472,0,0,1-.746-14.065c1.047-5.582,1.207-15.86-2.265-36.335a79.176,79.176,0,0,1,47.456,2.681,141.978,141.978,0,0,1-1.339,21.926c-1.139,8.076-2.248,10.654-2.378,17.559-.2,10.392,2.179,11.856.369,15.079C4536.855,1056.968,4510.813,1056.331,4503.56,1046.031Z" transform="translate(-4482.291 -963.396)" fill="#fdb74d"/>
                  <path id="Trazado_116552" data-name="Trazado 116552" d="M4594.53,906.393l-.926,8.789a1.661,1.661,0,0,1-1.516,1.481l-9.446.779L4600.1,922.8l8-3.818-7.327-2.271a1.662,1.662,0,0,1-1.158-1.393q-.318-2.714-.637-5.427Z" transform="translate(-4555.869 -892.473)" fill="#e8b1a7"/>
                  <path id="Trazado_116553" data-name="Trazado 116553" d="M4653.28,834.151c1.925,4.417,6.742,8.073,9.231,6.989s2.224-6.58.3-11-5.612-6.1-8.1-5.017S4651.355,829.734,4653.28,834.151Z" transform="translate(-4616.324 -821.594)" fill="#e8b1a7"/>
                  <path id="Trazado_116554" data-name="Trazado 116554" d="M4626.649,812.485c-.243.182-1.191-1.118-1.716-.886-.443.2-.563,1.472-.026,2.347.458.745,1.066.671,1.244,1.252.292.955-.98,2.382-1.457,2.214-.306-.108-.052-.79-.349-1.57-.584-1.532-2.5-1.355-4.063-2.527-2.459-1.843-3.129-6.33-1.663-8.009.558-.638,1.182-.6,1.94-1.623.82-1.113.462-1.672,1.093-2.387,1.07-1.214,3.42-1.1,4.906-.652,1.868.565,2,1.55,3.254,1.478,1.48-.086,1.694-1.492,3.46-1.751a4.045,4.045,0,0,1,2.992.842c1.612,1.392,1.217,3.816,1.162,4.16a5.832,5.832,0,0,1-4.133,4.623c-.418.094-.333,0-4.533-.1-1.388-.034-2.226-.044-2.505.444C4625.852,811.047,4626.894,812.3,4626.649,812.485Z" transform="translate(-4586.456 -800.329)" fill="#12263f"/>
                  <path id="Trazado_116555" data-name="Trazado 116555" d="M4511.095,1130.562a8.638,8.638,0,0,1,4.118,3.474c2.622,4.5-1.411,8.919,1.485,14.55,1.993,3.875,4.635,3.207,5.938,6.83,1.673,4.648-1.967,7.712-1.782,12.472.094,2.4,1.168,5.4,4.811,8.822-4.78-1.319-8.936-3.6-11.223-6.852a22.4,22.4,0,0,1-2.6-5.171,26.482,26.482,0,0,1-.746-14.065C4511.817,1146.77,4512.118,1140.685,4511.095,1130.562Z" transform="translate(-4493.172 -1087.221)" opacity="0.3" fill="url(#linear-gradient-5)" style="mix-blend-mode: multiply;isolation: isolate"/>
                  <path id="Trazado_116556" data-name="Trazado 116556" d="M4386.747,1063.021c-7.776-3.76-7.977-17.074-8.083-23.934-.084-5.393-.437-28.045,12.656-34.288a16.5,16.5,0,0,1,6.05-1.535,14.788,14.788,0,0,1,6.616,8.2c.759,2.651.526,5.226-.481,8.71-2.607,9.014-6.5,10.61-8.892,16.564-4.865,12.112,4.015,22.923-.67,26.613C4391.52,1065.266,4387.146,1063.214,4386.747,1063.021Z" transform="translate(-4378.644 -976.631)" fill="#fdb74d"/>
                </g>
              </g>
            </g>
          </g>
          <g id="Grupo_130460" data-name="Grupo 130460" transform="translate(112.589 12.295)">
            <g id="Grupo_130459" data-name="Grupo 130459" transform="translate(0 0)" clip-path="url(#clip-path-2)">
              <g id="Grupo_130458" data-name="Grupo 130458" transform="translate(17.149 5.832)">
                <path id="Trazado_116558" data-name="Trazado 116558" d="M5176.421,821.136c-.33-1.3-1.577-6.034-2.382-8.132-1.117-2.9-2.823-6.466-3.223-6.323-.235.084.031,1.425.07,1.621.351,1.768,1.046,2.011.938,2.984-.116,1.04-.952,1.128-1.01,2.273a2.881,2.881,0,0,0,.546,1.758c.57.773,1.188.684,1.783,1.31.958,1.008,1.206,4.126,1.205,5.533Z" transform="translate(-5169.1 -789.727)" fill="#e8b1a7"/>
                <path id="Trazado_116559" data-name="Trazado 116559" d="M5165.725,909.641l-2.485,1.049a32.062,32.062,0,0,0-3.526,8.685c-1,4.125-3.276,13.529,2.1,19.194,4.1,4.32,10.637,4.351,13.123,4.349,2.3,0,4.347.015,6.3-1.091,4.271-2.418,6.018-8.981,4.913-16.4-4.458,4.213-9.794,5.808-13.029,3.92-2.544-1.485-3.707-5.078-4.2-6.605-.738-2.272-.51-3.334-1.152-6.479A35.476,35.476,0,0,0,5165.725,909.641Z" transform="translate(-5158.373 -879.178)" fill="#5038a1"/>
                <path id="Trazado_116561" data-name="Trazado 116561" d="M5342.348,1059.333c.047-2.3.17-14.962-5.962-24.071a22.843,22.843,0,0,0-8.668-8.226,20.435,20.435,0,0,0-4.693-1.712l-4.085.607a24.839,24.839,0,0,0-4.637,5.687,19.51,19.51,0,0,0-3.008,8c-.442,4.155,1.21,5.793,2.566,12.265a51.392,51.392,0,0,1,1.049,8.392l14.134,1.215a66.432,66.432,0,0,1,2.208-14.906,57.146,57.146,0,0,1,1.711,15.127,8.531,8.531,0,0,0,6.9-.221A7.536,7.536,0,0,0,5342.348,1059.333Z" transform="translate(-5291.16 -979.678)" fill="#5038a1"/>
                <path id="Trazado_116562" data-name="Trazado 116562" d="M5347.713,715.635c-3.145-2.563-4.718-3.845-5.3-5.483-1.28-3.579.443-7.632,2.5-9.968,2.891-3.279,7.107-3.93,9.775-4.342,3.428-.529,3.646.278,5.244-.411,4.416-1.9,2.928-8.143,7.032-12.933,4.529-5.284,12.659-5.062,14.712-4.924,10.939.731,16.554,10.2,17.113,11.182,5.177,9.079,2.712,20.034-2.563,26.342-1.508,1.8-5.367,6.418-9.833,5.96-4.3-.441-5.514-5.212-11.5-5.994a12.435,12.435,0,0,0-6.146.63c-3.138,1.209-3.627,3.065-6.973,4.231a12.4,12.4,0,0,1-5.543.6C5353.271,720.123,5351.377,718.621,5347.713,715.635Z" transform="translate(-5317.874 -677.525)" fill="#12263f"/>
                <g id="Grupo_130456" data-name="Grupo 130456" transform="translate(29.452 13.343)" opacity="0.3" style="mix-blend-mode: multiply;isolation: isolate">
                  <path id="Trazado_116563" data-name="Trazado 116563" d="M5435.3,779.194c1.12,10.171-.008,13.835-1.856,14.581-2.586,1.043-5.961-3.877-10-2.526-3.634,1.215-3.155,5.948-6.492,6.988-4.218,1.314-7.057-5.6-12.1-5.169-6,.516-6.757,10.726-13.437,12.528-2.023.546-4.808.376-8.633-1.95l.387.316c3.664,2.986,5.557,4.487,8.523,4.887a12.4,12.4,0,0,0,5.542-.6c3.346-1.166,3.835-3.022,6.973-4.231a12.436,12.436,0,0,1,6.146-.63c5.98.782,7.194,5.553,11.495,5.994,4.467.458,8.326-4.156,9.833-5.96C5436.555,797.6,5439.029,787.809,5435.3,779.194Z" transform="translate(-5382.783 -779.194)" fill="url(#linear-gradient-6)"/>
                </g>
                <path id="Trazado_116564" data-name="Trazado 116564" d="M5367.1,958.765s-.114,2.95,0,4.931a2.74,2.74,0,0,1-1.17,2.276s-.688,1.18,3.035,1.377,7.346,0,7.346,0-3.64-2.421-4.472-3.064-1.277-5.454-.745-8.5Z" transform="translate(-5338.643 -919.265)" fill="#e8b1a7"/>
                <path id="Trazado_116565" data-name="Trazado 116565" d="M5355.434,895.085s-1.9,4.569-1.885,7.329,1.94,4.345,3.4,3.663,3.67-3.553,3.67-3.553.3.773,1.419,0,1.957-5.113-.227-3.882a5.712,5.712,0,0,0-.192-2.981C5361.084,893.9,5356.072,891.992,5355.434,895.085Z" transform="translate(-5327.933 -865.105)" fill="#e8b1a7"/>
              </g>
            </g>
          </g>
          <g id="Grupo_130464" data-name="Grupo 130464" transform="translate(130.172 0)">
            <g id="Grupo_130461" data-name="Grupo 130461" transform="translate(0 15.229)" style="mix-blend-mode: multiply;isolation: isolate">
              <path id="Trazado_116568" data-name="Trazado 116568" d="M5225.794,655.958l-19.926-.511a2.8,2.8,0,0,0-2.926,2.7l-.182,9.882a2.787,2.787,0,0,0,2.839,2.8h20.038a2.71,2.71,0,0,0,2.7-2.682l.09-9.465A2.711,2.711,0,0,0,5225.794,655.958Z" transform="translate(-5197.369 -655.446)" fill="#fdb74d"/>
              <path id="Trazado_116569" data-name="Trazado 116569" d="M5168.819,735.556l-7.042,4.5a.2.2,0,0,0,.112.374h9.95Z" transform="translate(-5161.68 -725.042)" fill="#fdb74d"/>
            </g>
            <g id="Grupo_130463" data-name="Grupo 130463" transform="translate(17.549)">
              <path id="Trazado_116570" data-name="Trazado 116570" d="M5336.351,561.045l-6.233-4.555.029-12.891a2.652,2.652,0,0,0-2.452-2.664l-29.283-1.524a2.6,2.6,0,0,0-2.785,2.549l-.231,16.248a2.755,2.755,0,0,0,2.729,2.77l25.975.4,3.532.054,8.567.132A.286.286,0,0,0,5336.351,561.045Z" transform="translate(-5295.396 -539.407)" fill="url(#linear-gradient-7)" style="mix-blend-mode: multiply;isolation: isolate"/>
              <g id="Grupo_130462" data-name="Grupo 130462" transform="translate(9.465 8.797)">
                <path id="Trazado_116571" data-name="Trazado 116571" d="M5370.924,608.2a1.655,1.655,0,0,1-1.718,1.642,1.754,1.754,0,0,1-1.694-1.761,1.654,1.654,0,0,1,1.729-1.64A1.755,1.755,0,0,1,5370.924,608.2Z" transform="translate(-5367.512 -606.437)" fill="#fff"/>
                <path id="Trazado_116572" data-name="Trazado 116572" d="M5415.348,609.841a1.626,1.626,0,0,1-1.681,1.627,1.732,1.732,0,0,1-1.663-1.742,1.626,1.626,0,0,1,1.691-1.624A1.733,1.733,0,0,1,5415.348,609.841Z" transform="translate(-5406.165 -607.882)" fill="#fff"/>
                <path id="Trazado_116573" data-name="Trazado 116573" d="M5458.891,611.454a1.6,1.6,0,0,1-1.645,1.611,1.711,1.711,0,0,1-1.634-1.725,1.6,1.6,0,0,1,1.654-1.609A1.712,1.712,0,0,1,5458.891,611.454Z" transform="translate(-5444.05 -609.298)" fill="#fff"/>
              </g>
            </g>
          </g>
          <g id="Grupo_130468" data-name="Grupo 130468" transform="translate(112.043 80.774)">
            <path id="Trazado_116574" data-name="Trazado 116574" d="M5134.26,1501.81c.035-.193.656-.367.965-.109.153.128.258.388.17.5-.032.042.1.118-.027.119C5134.949,1502.33,5134.225,1502,5134.26,1501.81Z" transform="translate(-5119.729 -1456.069)" fill="url(#linear-gradient-8)"/>
            <path id="Trazado_116575" data-name="Trazado 116575" d="M5139.407,1493.605l.645.032a3.163,3.163,0,0,1,.045-1.512l-.7.021s.017.321.059.8A2.978,2.978,0,0,1,5139.407,1493.605Z" transform="translate(-5124.196 -1447.863)" fill="url(#linear-gradient-9)"/>
            <path id="Trazado_116576" data-name="Trazado 116576" d="M5138.729,1502.751s.77-.177.854-.025.148.562-.34.549S5138.685,1502.88,5138.729,1502.751Z" transform="translate(-5123.602 -1457.018)" fill="url(#linear-gradient-10)"/>
            <path id="Trazado_116577" data-name="Trazado 116577" d="M5072.018,1512.917c.062-.186.7-.271.97.027.134.148.2.42.1.524-.038.038.083.13-.043.114C5072.627,1513.528,5071.957,1513.1,5072.018,1512.917Z" transform="translate(-5065.653 -1465.779)" fill="url(#linear-gradient-11)"/>
            <path id="Trazado_116578" data-name="Trazado 116578" d="M5077.809,1505.834l.634.124c-.163-.434.262-1.489.262-1.489l-.693-.08s-.028.32-.055.8A3.05,3.05,0,0,1,5077.809,1505.834Z" transform="translate(-5070.688 -1458.516)" fill="url(#linear-gradient-12)"/>
            <path id="Trazado_116579" data-name="Trazado 116579" d="M5076.374,1514.509s.787-.068.848.1.068.577-.414.5S5076.313,1514.631,5076.374,1514.509Z" transform="translate(-5069.418 -1467.296)" fill="url(#linear-gradient-13)"/>
            <path id="Trazado_116580" data-name="Trazado 116580" d="M5120.913,1342.653c.173,2.952.414,6.021.74,9.2.377,3.68.835,7.2,1.349,10.538a1.987,1.987,0,0,0,1.219,0,14.113,14.113,0,0,0,1.307-4.437,17.624,17.624,0,0,0,.391-2.4c.021-1.821-.618-2.348-.74-3.975-.112-1.506.367-1.956.653-3.651a12.844,12.844,0,0,0-.392-5.685Z" transform="translate(-5108.135 -1317.646)" fill="#12263f"/>
            <path id="Trazado_116581" data-name="Trazado 116581" d="M5079.779,1344.7a62.068,62.068,0,0,0-2.437,21.492l.827.231a8.6,8.6,0,0,0,2.394-4.344c.323-1.665-.164-2.23.261-4.114.1-.433.235-.9,1.829-4.021,1.52-2.98,1.832-3.413,2.089-4.483a9.806,9.806,0,0,0,.13-3.79Z" transform="translate(-5070.178 -1319.787)" fill="#12263f"/>
            <g id="Grupo_130465" data-name="Grupo 130465" transform="translate(0 10.238)">
              <path id="Trazado_116582" data-name="Trazado 116582" d="M5026.313,1241.236l-2.72-6.372a.56.56,0,0,1,.383-.764l4.982-1.21a.56.56,0,0,1,.651.333l2.5,6.124a.56.56,0,0,1-.354.747l-4.764,1.458A.561.561,0,0,1,5026.313,1241.236Z" transform="translate(-5023.548 -1232.874)" fill="#26264f"/>
              <path id="Trazado_116583" data-name="Trazado 116583" d="M5028.458,1242.55l-2.541-5.952a.523.523,0,0,1,.358-.714l4.654-1.13a.523.523,0,0,1,.608.311l2.337,5.72a.524.524,0,0,1-.331.7l-4.451,1.362A.524.524,0,0,1,5028.458,1242.55Z" transform="translate(-5025.57 -1234.495)" fill="#fff3ce"/>
            </g>
            <path id="Trazado_116584" data-name="Trazado 116584" d="M5029.608,1262.663l-.082-.751-.433-.825a.781.781,0,0,1-.09-.364v-.819l.522,1.208a3.947,3.947,0,0,1,.473-.375c.131-.065.114.2.017.294s.049.9-.049.979l.032.49Z" transform="translate(-5028.288 -1246.118)" fill="url(#linear-gradient-14)"/>
            <path id="Trazado_116585" data-name="Trazado 116585" d="M5063.953,1221.084a4.249,4.249,0,0,1,1.73-1.861c1.07-.7,1.754-.573,4.211-.947,3.274-.5,3.666-.97,4.767-.588a5,5,0,0,1,2.546,2.416c1.745,3.031-.295,4.572.229,10.61.214,2.466.762,4.609-.555,5.876a3.977,3.977,0,0,1-1.208.686,11.212,11.212,0,0,1-6.006.783c-1.476-.146-2.221-.23-2.612-.751-.625-.832.019-1.891.131-3.722a12.706,12.706,0,0,0-.816-4.44C5064.979,1224.3,5063.175,1222.987,5063.953,1221.084Z" transform="translate(-5058.488 -1209.322)" fill="#544191"/>
            <g id="Grupo_130467" data-name="Grupo 130467" transform="translate(8.459 0)">
              <g id="Grupo_130466" data-name="Grupo 130466">
                <path id="Trazado_116586" data-name="Trazado 116586" d="M5100.125,1198.342a2.544,2.544,0,0,1,.272-1.821c.388-.715.487-.813.672-.937l.258-.159.03-.011a2.975,2.975,0,0,1,.842-.052c.365.078.752,1.562.642,3.659.015.08.029.16.044.242q.086.5.138.973c.034.3.464.3.77.277,1.238-.079,1.843.026,1.9.211.1.345-1.368,1.474-3.181,1.729-2.434.018-4.412-.241-4.2-.624a23.114,23.114,0,0,0,2.509-1.151,1.623,1.623,0,0,0,.486-1.239C5101.155,1199.362,5100.3,1198.973,5100.125,1198.342Z" transform="translate(-5098.292 -1192.522)" fill="#e8b1a7"/>
                <path id="Trazado_116587" data-name="Trazado 116587" d="M5109.065,1184.3a2.445,2.445,0,0,0,.464,1.455,1.071,1.071,0,0,1,.235.257.34.34,0,0,1,.037.077c.142.409-.509.891-.383,1.075.091.133.534-.045.586.07s-.318.332-.262.461c.042.1.269.008.411.158.071.075.051.134.126.362a2.075,2.075,0,0,0,.148.349c.225.382.861.521.983.368.034-.043,0-.078.039-.221a1.127,1.127,0,0,1,.125-.285,2.965,2.965,0,0,1,.769-.606,2.109,2.109,0,0,0,.8-.915c.017-.044.027-.077.036-.1a2.413,2.413,0,0,0-.061-1.615c-.36-.725-1.174-.381-1.84-1.1-.769-.829-.311-1.961-.729-2.086C5110.1,1181.863,5109.062,1183.1,5109.065,1184.3Z" transform="translate(-5106.784 -1181.99)" fill="#26264f"/>
                <path id="Trazado_116588" data-name="Trazado 116588" d="M5110.942,1205.35c.16-.219.439-.013.441.27s-.273.578-.539.522S5110.729,1205.644,5110.942,1205.35Z" transform="translate(-5108.075 -1200.332)" fill="#e8b1a7"/>
              </g>
              <path id="Trazado_116589" data-name="Trazado 116589" d="M5106.459,1203.454l-.369.481s-.4.589-.631.266c-.189-.264-.239-.258-.25-.247s0,.005,0,.005.028-.131.057-.246a2.154,2.154,0,0,0-.316.678,1.2,1.2,0,0,0,0,.928.925.925,0,0,0,.543.425,2.434,2.434,0,0,0,.714-.07s-.631-.458-.64-.566c-.026-.3.384-.456.688-1.062A2.425,2.425,0,0,0,5106.459,1203.454Z" transform="translate(-5103.462 -1198.91)" fill="#26264f"/>
            </g>
            <path id="Trazado_116590" data-name="Trazado 116590" d="M5078.36,1270.668c-.434-.864.629-2.013-.065-3.33-.59-1.119-1.662-.868-2.155-1.894-.6-1.238.7-2.164.653-4.048-.056-2.252-1.993-4.507-3.134-4.309-.738.128-.833,1.229-1.352,2.434a27.414,27.414,0,0,1,1.483,3.964,12.688,12.688,0,0,1,.815,4.44c-.112,1.831-.755,2.889-.13,3.722.391.521,1.136.6,2.612.751a11.213,11.213,0,0,0,6.006-.784c.312-.14.545-.245.735-.349C5079.984,1271.844,5078.7,1271.354,5078.36,1270.668Z" transform="translate(-5065.908 -1243.661)" opacity="0.3" fill="url(#linear-gradient-15)" style="mix-blend-mode: multiply;isolation: isolate"/>
            <path id="Trazado_116591" data-name="Trazado 116591" d="M5032.394,1237l.718-.31c.4.414.92.816,1.355.686.647-.195.485-1.385,1.273-3.477.893-2.37,1.905-2.979,2.416-3.2a1.092,1.092,0,0,1,.717-.147c1.088.266,1.448,3.1,1.143,5.223-.172,1.2-.509,3.539-2.432,4.652a3.682,3.682,0,0,1-3.265.343A3.738,3.738,0,0,1,5032.394,1237Z" transform="translate(-5031.221 -1220.602)" fill="#544191"/>
          </g>
          <g id="Grupo_130470" data-name="Grupo 130470" transform="translate(87.768 86.706)">
            <path id="Trazado_116592" data-name="Trazado 116592" d="M4944.382,1538.857c.23.385.189.563.147.643-.125.235-.489.053-1.383.236a1.523,1.523,0,0,1-.562.027c-.221-.033-.485-.127-.479-.186,0-.021.041-.033.054-.037.246-.074,1.775-.687,1.775-.687Z" transform="translate(-4928.518 -1494.389)" fill="url(#linear-gradient-16)"/>
            <path id="Trazado_116593" data-name="Trazado 116593" d="M4955.166,1532.083l-.065.91s-.363.3-.492-.018a4.629,4.629,0,0,1-.145-.874Z" transform="translate(-4939.256 -1488.508)" fill="url(#linear-gradient-17)"/>
            <path id="Trazado_116594" data-name="Trazado 116594" d="M4925.4,1537.85l.465,1,.543-.134-.208-.947Z" transform="translate(-4914.001 -1493.451)" fill="url(#linear-gradient-18)"/>
            <path id="Trazado_116595" data-name="Trazado 116595" d="M4921.521,1543.507c.24-.338.479-.329.51-.551a.446.446,0,0,0-.263-.441.607.607,0,0,0-.542.148c-.39.3-.242.712-.616.926a1.047,1.047,0,0,0-.316.225c-.051.057-.178.2-.139.283s.291.075.523.052a1.019,1.019,0,0,0,.546-.136C4921.4,1543.882,4921.336,1543.768,4921.521,1543.507Z" transform="translate(-4909.443 -1497.549)" fill="url(#linear-gradient-19)"/>
            <path id="Trazado_116596" data-name="Trazado 116596" d="M4932.993,1366.578a29.713,29.713,0,0,1-.3,5.386,24.3,24.3,0,0,0-.449,2.972c-.079,2.381.705,2.673,1.011,5.34a16.338,16.338,0,0,1-.556,6.257,16.956,16.956,0,0,1-.65,1.9c-.256.253-.676.188-1.118.126-.327-2.67-.684-5.179-1.011-7.85l-2.306-12Z" transform="translate(-4915.933 -1344.724)" fill="url(#linear-gradient-20)"/>
            <path id="Trazado_116597" data-name="Trazado 116597" d="M4930.935,1388.562c-.327-2.67-.684-5.179-1.011-7.85l-2.306-12,5.375-2.136c0,.139.006.273.009.409-2.428,2.387-2.821,4.183-2.721,5.386.121,1.458.964,2.133.939,4.26-.018,1.521-.457,1.816-.372,3.182a9.12,9.12,0,0,0,1.356,3.7,6.375,6.375,0,0,1,.065,4.366c-.078.21-.151.4-.218.56C4931.8,1388.688,4931.376,1388.623,4930.935,1388.562Z" transform="translate(-4915.933 -1344.724)" opacity="0.3" fill="url(#linear-gradient-21)" style="mix-blend-mode: multiply;isolation: isolate"/>
            <path id="Trazado_116598" data-name="Trazado 116598" d="M4902.986,1367.7a31.363,31.363,0,0,0-2.177,5.315,7.544,7.544,0,0,0-.382,2.326,7.213,7.213,0,0,0,.518,2.623,13.86,13.86,0,0,1,.862,2.6,14.693,14.693,0,0,1-.369,7.573l-.953.422a53.932,53.932,0,0,1-2.817-8.442,29.173,29.173,0,0,1-.965-5.433,23.061,23.061,0,0,1,1.41-9.368Z" transform="translate(-4889.038 -1343.629)" fill="url(#linear-gradient-22)"/>
            <path id="Trazado_116599" data-name="Trazado 116599" d="M4901.379,1245.672c-2.044.483-3.6.95-4.231,2.076-.671,1.19.562,1.977,1.038,4.466.729,3.81-1.39,5.382-.515,9.21a10,10,0,0,0,1.143,2.85,10.526,10.526,0,0,0,3.28,1.6c2.142.6,3.148.113,5.979.1,4.629-.022,5.4,1.273,7.436.321,2.055-.962,3.439-3.3,2.934-4.235-.3-.558-1.125-.147-2.379-.778-1.616-.813-1.431-2.071-2.763-3.057-1.912-1.417-3.565.236-5.2-1-1.656-1.248-2.046-4.509-1.5-6.5.358-1.3.28-2.684.523-4.009a.835.835,0,0,0-.049-.477c-.3-.734-1.686-.793-2.73-.828A11.878,11.878,0,0,0,4901.379,1245.672Z" transform="translate(-4889.291 -1239.453)" fill="#ca923d"/>
            <path id="Trazado_116601" data-name="Trazado 116601" d="M4916.151,1220.759a6.64,6.64,0,0,0-.584,2.2c.012.892,1.012.765,1.012.765l0,.563a1.218,1.218,0,0,1-.728,1.109l-.388.17s2.619.393,3.97-.691l-.41-.015a1.218,1.218,0,0,1-1.158-1.019l-.04-.239S4918.1,1220.8,4916.151,1220.759Z" transform="translate(-4905.918 -1218.674)" fill="#e8b1a7"/>
            <g id="Grupo_130469" data-name="Grupo 130469" transform="translate(0 8.957)">
              <path id="Trazado_116602" data-name="Trazado 116602" d="M4846.777,1274.192l-3.193-5.783a.186.186,0,0,0-.2-.092l-4.658.987a.185.185,0,0,0-.121.276l3.716,6.227a.185.185,0,0,0,.218.081l4.1-1.386Z" transform="translate(-4838.579 -1268.313)" fill="url(#linear-gradient-23)"/>
              <path id="Trazado_116603" data-name="Trazado 116603" d="M4851,1276.526l-2.586-4.683a.15.15,0,0,0-.163-.074l-3.771.8a.15.15,0,0,0-.1.224l3.009,5.042a.15.15,0,0,0,.177.065l3.323-1.122Z" transform="translate(-4843.602 -1271.313)" fill="#fff4e4"/>
              <path id="Trazado_116604" data-name="Trazado 116604" d="M4853.317,1269.683l-.206-.375a.135.135,0,0,0-.146-.068l-1.939.394a.135.135,0,0,0-.091.2l.228.408a.136.136,0,0,0,.148.066l1.917-.427A.136.136,0,0,0,4853.317,1269.683Z" transform="translate(-4849.298 -1269.116)" fill="url(#linear-gradient-24)"/>
              <path id="Trazado_116605" data-name="Trazado 116605" d="M4849.114,1278.485h.01l3.415-.731a.078.078,0,0,0,.06-.093.079.079,0,0,0-.093-.06l-3.415.731a.078.078,0,0,0,.023.154Z" transform="translate(-4847.657 -1276.379)" fill="url(#linear-gradient-25)"/>
              <path id="Trazado_116606" data-name="Trazado 116606" d="M4850.687,1280.815l.009,0,3.4-.763a.078.078,0,0,0-.035-.153l-3.4.763a.078.078,0,0,0,.025.154Z" transform="translate(-4849.023 -1278.375)" fill="url(#linear-gradient-26)"/>
              <path id="Trazado_116607" data-name="Trazado 116607" d="M4864.2,1285.843l.011,0,1.847-.469a.078.078,0,0,0-.039-.151l-1.847.468a.078.078,0,0,0-.057.095A.079.079,0,0,0,4864.2,1285.843Z" transform="translate(-4860.766 -1283)" fill="url(#linear-gradient-27)"/>
            </g>
            <path id="Trazado_116608" data-name="Trazado 116608" d="M4852.973,1301.407s-.811-.458-.931-.818a5.323,5.323,0,0,1-.155-1.054l.528.937a.526.526,0,0,0,.277-.409c.066-.329.248-.048.205.2A7.165,7.165,0,0,0,4852.973,1301.407Z" transform="translate(-4850.141 -1286.48)" fill="#e8b1a7"/>
            <path id="Trazado_116609" data-name="Trazado 116609" d="M4862.436,1260.274a5.736,5.736,0,0,0-1.441,1.509c-1.37,2.117-.594,4.185-1.8,5.041a2.462,2.462,0,0,1-2.154.161l-.422.272s-.31,2.787,3.028,2.612,4.652-4.454,4.652-4.454Z" transform="translate(-4854.241 -1252.372)" fill="#ca923d"/>
            <path id="Trazado_116610" data-name="Trazado 116610" d="M4917.134,1210.68c.133-.019.232-.2.327-.151s.1.294.031.473a.623.623,0,0,1-.226.275,1.634,1.634,0,0,1,.33.637,2.275,2.275,0,0,1-.271,1.484c-.556,1.4.573,3.5,1.733,4.517.943.83,1.336.448,1.911,1.138,1.12,1.342-.209,2.976.441,4.836.991,2.828,5.588,3.4,5.778,3.424l.2.021c2.059.2,5.179.5,7.251-1.311a6.361,6.361,0,0,0,1.92-5.489,6.217,6.217,0,0,0-1.994-3.877,5.669,5.669,0,0,0-3.806-1.5c-1.051.056-1.24.439-2.057.26a4.321,4.321,0,0,1-2.318-1.8c-.843-1.093-.544-1.356-1.135-1.883-1.158-1.032-2.383-.089-3.607-.987-1.206-.885-.594-2.225-1.753-2.985-1.2-.783-3.362-.349-3.766.7C4915.782,1209.355,4916.726,1210.739,4917.134,1210.68Z" transform="translate(-4906.417 -1207.36)" fill="url(#linear-gradient-28)"/>
          </g>
        </g>
      </g>
    </g>
  </g>
</svg>
