<svg xmlns="http://www.w3.org/2000/svg" xmlns:xlink="http://www.w3.org/1999/xlink" width="437.566" height="334.718" viewBox="0 0 437.566 334.718">
  <defs>
    <linearGradient id="linear-gradient" y1="0.5" x2="1" y2="0.5" gradientUnits="objectBoundingBox">
      <stop offset="0" stop-color="#444b8c"/>
      <stop offset="0.996" stop-color="#26264f"/>
    </linearGradient>
    <linearGradient id="linear-gradient-2" y1="0.5" x2="1" y2="0.5" gradientUnits="objectBoundingBox">
      <stop offset="0" stop-color="#aa80f9"/>
      <stop offset="0.996" stop-color="#6165d7"/>
    </linearGradient>
    <linearGradient id="linear-gradient-4" y1="0.5" x2="1" y2="0.5" gradientUnits="objectBoundingBox">
      <stop offset="0" stop-color="#fff"/>
      <stop offset="0.996" stop-color="#ebeff2"/>
    </linearGradient>
    <clipPath id="clip-path">
      <path id="Trazado_115140" data-name="Trazado 115140" d="M636.492,269.674l-67.528.975V200.768l67.528,1.92Z" transform="translate(-568.963 -200.768)" fill="none"/>
    </clipPath>
    <linearGradient id="linear-gradient-5" x1="0.847" y1="-0.084" x2="0.572" y2="0.467" gradientUnits="objectBoundingBox">
      <stop offset="0" stop-color="#ab316d"/>
      <stop offset="1" stop-color="#792d3d"/>
    </linearGradient>
    <clipPath id="clip-path-2">
      <path id="Trazado_115167" data-name="Trazado 115167" d="M543.106,329.227l-84.831,3.523V252.819l84.831.465Z" transform="translate(-458.275 -252.819)" fill="none"/>
    </clipPath>
    <linearGradient id="linear-gradient-7" x1="0.863" y1="-13.178" x2="0.544" y2="-1.426" gradientUnits="objectBoundingBox">
      <stop offset="0" stop-color="#ffc444"/>
      <stop offset="0.996" stop-color="#f36f56"/>
    </linearGradient>
  </defs>
  <g id="Grupo_131961" data-name="Grupo 131961" transform="translate(8972.283 10540.359)">
    <g id="Grupo_131960" data-name="Grupo 131960" transform="translate(-9236 -11908.111)">
      <path id="Trazado_115114" data-name="Trazado 115114" d="M775.256,362.788c-78.979,57.654-263.94,58.58-315.142,26.555-20.436-12.78-25.831-34.729-33.763-66.97a172.288,172.288,0,0,1-4.688-36.613c-1.119-29.2-1.674-43.8,6.561-53.73,23.591-28.431,105.542-39.5,158.51-40.011q5.546-.055,11.188.042c62.023,1.055,132.011,15.79,175.177,47.276a130.157,130.157,0,0,1,12.476,10.286C824.974,286.6,818.343,331.338,775.256,362.788Z" transform="translate(-136.613 1195.295)" fill="#e5e1f1"/>
      <g id="Grupo_130794" data-name="Grupo 130794" transform="matrix(0.946, 0.326, -0.326, 0.946, 335.615, 1367.752)">
        <g id="Grupo_130789" data-name="Grupo 130789" transform="translate(0 0)">
          <path id="Trazado_115813" data-name="Trazado 115813" d="M385.276,43.476a258.155,258.155,0,0,1-23.265,21.779,190.056,190.056,0,0,1-26.271,18.16,138.034,138.034,0,0,1-29.869,12.827A97.231,97.231,0,0,1,289.4,99.508c-1.42.123-2.84.28-4.281.325-.719.031-1.437.075-2.16.092l-2.175.009c-1.46.014-2.866-.048-4.309-.074-1.425-.088-2.865-.146-4.288-.285-11.448-1-22.537-4.193-32.862-8.211-10.357-4.023-20.043-8.879-29.361-13.528-4.656-2.334-9.24-4.6-13.749-6.715-2.258-1.067-4.492-2.066-6.715-3.044-1.108-.468-2.216-.955-3.317-1.4l-3.41-1.384c-9.5-3.843-18.777-7.421-27.916-10.276-4.565-1.43-9.086-2.678-13.531-3.682-2.222-.5-4.424-.946-6.6-1.318s-4.328-.651-6.44-.867c-8.459-.885-16.282-.436-22.78,1.378a41.446,41.446,0,0,0-4.654,1.6c-.741.3-1.458.632-2.165.967l-1.04.525c-.312.178-.626.342-.932.529a32.56,32.56,0,0,0-6.748,5.242c-.5.512-.987,1.03-1.45,1.573l-1.8,2.025c-.623.7-1.18,1.428-1.774,2.126-.573.712-1.094,1.445-1.647,2.151a54.484,54.484,0,0,0-5.265,8.815,48.812,48.812,0,0,0-3.288,9.057,49.326,49.326,0,0,0-1.476,9.4,70.682,70.682,0,0,0,1.8,20.166,105.8,105.8,0,0,0,7.464,21.245,113.945,113.945,0,0,0,5.481,10.326c.992,1.66,2.018,3.281,3.048,4.807.513.757,1.036,1.489,1.536,2.152.249.329.5.649.719.909a4.4,4.4,0,0,0,.307.339c.039.031.094.095.11.086l.019,0s.023.023-.005-.037l-.109-.246a44.368,44.368,0,0,1-76.853,44.358l-.348-.668-.222-.457-.356-.764-.608-1.37c-.383-.882-.726-1.712-1.059-2.536-.664-1.644-1.269-3.238-1.858-4.819-1.16-3.156-2.211-6.269-3.184-9.39C7.2,172.4,5.585,166.134,4.217,159.765A184.81,184.81,0,0,1,0,120.224,139.879,139.879,0,0,1,6.2,78.764a122.177,122.177,0,0,1,8.283-19.992A113.621,113.621,0,0,1,26.2,40.745,117.2,117.2,0,0,1,40.565,25.6c1.293-1.1,2.573-2.224,3.882-3.283,1.321-1.036,2.625-2.1,3.963-3.089l2.011-1.466c.684-.495,1.291-.943,2.111-1.511,1.543-1.086,3.127-2.114,4.736-3.1A88.777,88.777,0,0,1,77.83,3.884c.9-.281,1.809-.528,2.716-.78.889-.229,1.766-.451,2.65-.661,1.769-.406,3.54-.776,5.314-1.076A94.3,94.3,0,0,1,99.1.154a102.255,102.255,0,0,1,20.3.915,123.32,123.32,0,0,1,18.529,4.174,188.053,188.053,0,0,1,32.246,13.546c9.911,5.193,19.149,10.848,28.039,16.453l3.467,2.2c1.19.754,2.338,1.526,3.5,2.289,2.29,1.542,4.553,3.092,6.743,4.656,4.407,3.123,8.627,6.272,12.79,9.33,8.316,6.128,16.334,12.02,24.6,17A98.18,98.18,0,0,0,275.069,82.1c1.121.309,2.253.542,3.386.814l1.709.33.857.167c.284.05.564.078.847.118l1.7.228c.568.066,1.143.1,1.716.16,1.144.127,2.308.15,3.47.213,1.165.037,2.339.034,3.516.03,1.179-.055,2.362-.043,3.549-.15l1.783-.125c.6-.045,1.19-.122,1.786-.183,1.193-.117,2.384-.3,3.577-.478,1.2-.156,2.383-.417,3.58-.621,1.193-.229,2.381-.506,3.575-.762,1.181-.313,2.369-.605,3.551-.937,1.174-.356,2.363-.67,3.532-1.06,2.351-.741,4.676-1.583,6.976-2.509,1.152-.458,2.3-.921,3.439-1.429l1.709-.749,1.685-.8A126.149,126.149,0,0,0,356.339,58.3a123.772,123.772,0,0,0,20.944-21.6A5.25,5.25,0,1,1,385.3,43.45Z" transform="translate(0 0)" fill="#fdb74d"/>
        </g>
      </g>
      <g id="Grupo_130782" data-name="Grupo 130782" transform="translate(393.096 1405.364)">
        <g id="Grupo_129062" data-name="Grupo 129062" transform="translate(0 70.394)">
          <g id="Grupo_129061" data-name="Grupo 129061">
            <path id="Trazado_115115" data-name="Trazado 115115" d="M618.13,432.948l-189.178-1.612v4.771a2.539,2.539,0,0,0,1.942,2.593l53.495,9.4a7.5,7.5,0,0,0,1.919.088l129.767-10.712a2.422,2.422,0,0,0,2.055-2.53Z" transform="translate(-427.061 -338.038)" fill="#26264f"/>
            <g id="Grupo_129060" data-name="Grupo 129060">
              <path id="Trazado_115116" data-name="Trazado 115116" d="M548.706,387.185l-118.57,8.729a3.594,3.594,0,0,1-3.847-3.707v-88.3a3.922,3.922,0,0,1,3.847-3.99h118.57a3.4,3.4,0,0,1,3.161,3.607v79.817A3.724,3.724,0,0,1,548.706,387.185Z" transform="translate(-426.289 -299.92)" fill="#26264f"/>
              <path id="Trazado_115117" data-name="Trazado 115117" d="M551.369,387.185,432.8,395.913a3.594,3.594,0,0,1-3.847-3.707v-88.3a3.922,3.922,0,0,1,3.847-3.99h118.57a3.4,3.4,0,0,1,3.161,3.607v79.817A3.724,3.724,0,0,1,551.369,387.185Z" transform="translate(-427.061 -299.92)" fill="url(#linear-gradient)"/>
              <path id="Trazado_115118" data-name="Trazado 115118" d="M549.782,383.652l-110.435,7.582a2.946,2.946,0,0,1-3.13-3.043v-77.3a3.214,3.214,0,0,1,3.13-3.271l110.435-.476a2.791,2.791,0,0,1,2.608,2.956v70.409A3.048,3.048,0,0,1,549.782,383.652Z" transform="translate(-429.169 -302.014)" fill="url(#linear-gradient-2)"/>
              <path id="Trazado_115119" data-name="Trazado 115119" d="M522.659,302.715a1.37,1.37,0,1,1-1.364-1.484A1.434,1.434,0,0,1,522.659,302.715Z" transform="translate(-453.449 -300.3)" fill="#fff"/>
              <path id="Trazado_115120" data-name="Trazado 115120" d="M432.8,395.913l117.97-8.685.6-.044a3.183,3.183,0,0,0,2.089-1.056c-8.49-.465-13.762-3.477-17.164-6.59-6.83-6.251-5.646-12.416-13.012-16.526-9.187-5.127-16.412,1.369-23.384-5.04-4.226-3.885-2.152-6.784-7.352-12.59-5.761-6.431-9.511-4.27-15.3-10.058-7.32-7.319-3.659-13.013-9.964-18.268-7.649-6.375-15.9-.474-23.18-6.588-3.14-2.637-4.864-6.47-5.763-10.547H432.8a3.922,3.922,0,0,0-3.847,3.99v88.3A3.594,3.594,0,0,0,432.8,395.913Z" transform="translate(-427.061 -299.92)" fill="#fff" opacity="0.48" style="mix-blend-mode: soft-light;isolation: isolate"/>
            </g>
            <path id="Trazado_115121" data-name="Trazado 115121" d="M556.1,422.145l-127.143,9.187,55.437,9.737a7.492,7.492,0,0,0,1.919.088L618.13,430.275l-60.013-8.068A9.882,9.882,0,0,0,556.1,422.145Z" transform="translate(-427.061 -335.364)" fill="url(#linear-gradient)"/>
            <path id="Trazado_115122" data-name="Trazado 115122" d="M455.084,432.036l105.85-7.763,32.76,4.369-104.938,8.3Z" transform="translate(-434.641 -335.989)" fill="#26264f"/>
          </g>
        </g>
        <g id="Grupo_129081" data-name="Grupo 129081" transform="translate(9.731)">
          <g id="Grupo_129071" data-name="Grupo 129071" transform="translate(81.227)">
            <g id="Grupo_129065" data-name="Grupo 129065" transform="translate(0 3.764)">
              <path id="Trazado_115123" data-name="Trazado 115123" d="M641.162,213.149v57.739c0,2.663-1.812,4.866-4.09,4.921l-18.978.464L559.554,277.7a4.929,4.929,0,0,1-4.862-4.431c-.021-.194-.283-.389-.283-.59V211.166a5.6,5.6,0,0,1,1.016-2.791c.014-.023.153-.041.167-.062a4.5,4.5,0,0,1,3.907-2.152l8.88.235,68.679,1.822C639.335,208.279,641.162,210.485,641.162,213.149Z" transform="translate(-554.408 -206.096)" fill="#fff"/>
              <path id="Trazado_115124" data-name="Trazado 115124" d="M560.377,276.738a3.251,3.251,0,0,1-3.157-3.419V211.878a3.242,3.242,0,0,1,3.157-3.412l77.539,1.967a3.171,3.171,0,0,1,2.806,3.356v57.795a3.164,3.164,0,0,1-2.806,3.35Z" transform="translate(-555.224 -206.764)" fill="url(#linear-gradient-4)"/>
              <path id="Trazado_115125" data-name="Trazado 115125" d="M637.309,208.22l-77.539-2.057a4.757,4.757,0,0,0-4.643,5.013v3.685l86.3,1.749V213.15C641.428,210.487,639.587,208.28,637.309,208.22Z" transform="translate(-554.617 -206.096)" fill="#d8dee8"/>
              <path id="Trazado_115126" data-name="Trazado 115126" d="M565.529,211.955a1.478,1.478,0,0,1-1.509,1.5,1.564,1.564,0,0,1-1.511-1.566,1.479,1.479,0,0,1,1.511-1.5A1.565,1.565,0,0,1,565.529,211.955Z" transform="translate(-556.758 -207.322)" fill="#fff"/>
              <path id="Trazado_115127" data-name="Trazado 115127" d="M572.964,212.13a1.47,1.47,0,0,1-1.5,1.491,1.556,1.556,0,0,1-1.5-1.561,1.47,1.47,0,0,1,1.5-1.49A1.555,1.555,0,0,1,572.964,212.13Z" transform="translate(-558.921 -207.375)" fill="#fff"/>
              <path id="Trazado_115128" data-name="Trazado 115128" d="M580.345,212.3a1.462,1.462,0,0,1-1.486,1.485,1.547,1.547,0,0,1-1.489-1.555,1.462,1.462,0,0,1,1.489-1.485A1.547,1.547,0,0,1,580.345,212.3Z" transform="translate(-561.068 -207.427)" fill="#fff"/>
              <path id="Trazado_115129" data-name="Trazado 115129" d="M638.833,278.382l-76.082,1.583V231.575l76.082,1.041Z" transform="translate(-556.828 -213.468)" fill="#d8dee8"/>
              <g id="Grupo_129063" data-name="Grupo 129063" transform="translate(5.923 13.096)" opacity="0.5">
                <path id="Trazado_115130" data-name="Trazado 115130" d="M603.432,225.219l-40.68-.7v2.614l40.68.626Z" transform="translate(-562.751 -224.517)" fill="#fff"/>
                <path id="Trazado_115131" data-name="Trazado 115131" d="M663.728,226.259v2.48l4.393.068v-2.472Z" transform="translate(-592.04 -225.022)" fill="#fff"/>
              </g>
              <g id="Grupo_129064" data-name="Grupo 129064" transform="translate(0.481)" opacity="0.5" style="mix-blend-mode: soft-light;isolation: isolate">
                <path id="Trazado_115132" data-name="Trazado 115132" d="M618.784,276.246l-58.546,1.432a4.946,4.946,0,0,1-4.881-4.431c0-.057-.273-.111-.273-.167V211.113a5.684,5.684,0,0,1,1-2.764c.014-.022.161-.041.174-.062a4.5,4.5,0,0,1,3.939-2.216l8.832.234c.006.022.031.043.038.065.165.538.354,1.084.552,1.638a35.453,35.453,0,0,0,3.233,6.766c.086.14.175.277.263.414a29.057,29.057,0,0,0,3.278,4.243,27.11,27.11,0,0,0,2.836,2.628,29.815,29.815,0,0,0,3.5,2.415c8.6,5.1,18.25,5.766,24.654,15.992,5.489,8.764,1.557,13.363,6.865,26.771q.866,2.186,1.854,4.182.838,1.706,1.752,3.282Q618.314,275.491,618.784,276.246Z" transform="translate(-555.085 -206.07)" fill="#fff"/>
              </g>
            </g>
            <g id="Grupo_129069" data-name="Grupo 129069" transform="translate(10.334)">
              <g id="Grupo_129068" data-name="Grupo 129068" clip-path="url(#clip-path)">
                <g id="Grupo_129067" data-name="Grupo 129067" transform="translate(4.452 12.402)">
                  <g id="Grupo_129066" data-name="Grupo 129066">
                    <path id="Trazado_115133" data-name="Trazado 115133" d="M593.65,274.046c-13.209-2.035-16.151-3.536-17.515-6.339-1.985-4.078-.542-10.715,2.848-14.8,2.963-3.569,6.646-4.264,6.539-6.733-.089-2.031-2.613-2.3-4.47-6.14a9.545,9.545,0,0,1-1.138-5.906,9.143,9.143,0,0,1,4.368-5.928c3.562-1.968,5.589.384,8.259-1.384,3.332-2.206,1.823-6.976,4.94-8.288,2.263-.952,5.149.688,5.9,1.115,2.5,1.423,2.24,2.81,4.349,3.7,2.469,1.042,3.646-.52,6.5.162,2.354.562,4.056,2.3,5.442,4.04,3.107,3.9,1.563,6.177,3.856,10.96,3.217,6.714,8.056,5.968,8.912,11.319.447,2.8-.7,4.066.181,8.349.6,2.89,1.345,3.4,1.477,5.1.381,4.887-5.141,9.238-6.175,10.005C621.327,278.188,612.117,276.89,593.65,274.046Z" transform="translate(-575.234 -218.236)" fill="#5038a1"/>
                    <path id="Trazado_115134" data-name="Trazado 115134" d="M614.655,261.113c-8.645-.6-14.533,7.647-16.877,5.623-2.226-1.922,4.049-8.5,1.909-16.141-2.1-7.515-10.4-9.132-9.74-13.379.744-4.8,11.832-5.907,11.572-9.435-.153-2.081-4.061-2.586-4.844-5.908a5.319,5.319,0,0,1,.08-2.62c-2.157,1.715-1.176,5.849-4.211,7.858-2.671,1.768-4.7-.584-8.259,1.384a9.144,9.144,0,0,0-4.368,5.928,9.545,9.545,0,0,0,1.138,5.906c1.857,3.837,4.381,4.109,4.47,6.14.107,2.469-3.577,3.164-6.539,6.733-3.39,4.084-4.833,10.722-2.848,14.8,1.364,2.8,4.305,4.3,17.515,6.339,18.467,2.844,27.677,4.141,34.28-.763,2.549-1.893,5.546-5.1,6.188-7.936a7.459,7.459,0,0,1-3.714,2.046C624.916,268.768,622.371,261.652,614.655,261.113Z" transform="translate(-575.234 -218.531)" opacity="0.7" fill="url(#linear-gradient-5)" style="mix-blend-mode: multiply;isolation: isolate"/>
                  </g>
                  <path id="Trazado_115135" data-name="Trazado 115135" d="M579.961,307.118c-2-5.021-.782-12.95-.525-14.621a32.214,32.214,0,0,1,4.224-11.99c5.876-9.811,14.766-9.738,21.434-9.684,3.287.027,6.684-.047,10.827,1.484a28.344,28.344,0,0,1,6.029,3.222c8.218,6,14.682,25.632,8.078,33.168-4.222,4.818-8.562-1.176-27.521,2.035-7.671,1.3-15.788,3.421-20.628-.77A7.149,7.149,0,0,1,579.961,307.118Z" transform="translate(-576.278 -233.487)" fill="#8c6df2"/>
                  <path id="Trazado_115136" data-name="Trazado 115136" d="M608.228,254.261s1.406,10.516-5.737,12.617a1.168,1.168,0,0,0-.455,1.944l8.8,8.559a1.262,1.262,0,0,0,1.853-.1l7.888-9.185a1.161,1.161,0,0,0-.431-1.828c-2.525-.97-7.062-3.807-6.108-11.476Z" transform="translate(-582.906 -228.685)" fill="#b28b67"/>
                  <path id="Trazado_115137" data-name="Trazado 115137" d="M604.735,242.491c0,.115,1.929,10.409,6.857,10.421,4.64.011,6.4-7.5,6.967-11q.091-.893.182-1.788a3.4,3.4,0,0,1-2.027.04,3.249,3.249,0,0,1-2.054-1.624c-.557-1.3.466-2.316-.116-3.454A2.5,2.5,0,0,0,613,233.942a3.457,3.457,0,0,1,.64,2.8c-.256.721-.971,1.406-2.569,1.81C606.485,239.717,604.689,240.16,604.735,242.491Z" transform="translate(-583.79 -222.792)" fill="#b28b67"/>
                  <path id="Trazado_115138" data-name="Trazado 115138" d="M605.279,247.184s-2.554-2.268-2.777-.894c-.465,2.865,1.721,4.461,2.906,3.612S605.279,247.184,605.279,247.184Z" transform="translate(-583.124 -226.245)" fill="#b28b67"/>
                  <path id="Trazado_115139" data-name="Trazado 115139" d="M621.912,247.332s2.51-2.2,2.729-.841c.455,2.841-1.69,4.4-2.856,3.538S621.912,247.332,621.912,247.332Z" transform="translate(-588.594 -226.302)" fill="#b28b67"/>
                </g>
              </g>
            </g>
            <g id="Grupo_129070" data-name="Grupo 129070" transform="translate(29.924 61.451)">
              <path id="Trazado_115141" data-name="Trazado 115141" d="M601.81,290.35a2.714,2.714,0,0,1-2.622,2.755,2.64,2.64,0,0,1-2.63-2.695,2.713,2.713,0,0,1,2.63-2.755A2.641,2.641,0,0,1,601.81,290.35Z" transform="translate(-596.558 -287.42)" fill="#fff"/>
              <path id="Trazado_115142" data-name="Trazado 115142" d="M619,290.164a2.684,2.684,0,0,1-2.582,2.733,2.611,2.611,0,0,1-2.59-2.675,2.684,2.684,0,0,1,2.59-2.734A2.612,2.612,0,0,1,619,290.164Z" transform="translate(-601.567 -287.372)" fill="#fff"/>
              <path id="Trazado_115143" data-name="Trazado 115143" d="M635.93,289.98a2.655,2.655,0,0,1-2.543,2.713,2.583,2.583,0,0,1-2.551-2.656,2.654,2.654,0,0,1,2.551-2.713A2.583,2.583,0,0,1,635.93,289.98Z" transform="translate(-606.5 -287.325)" fill="#fff"/>
            </g>
          </g>
          <path id="Trazado_115144" data-name="Trazado 115144" d="M586.5,331.489v22.558c0,3.2-2.3,5.917-5.15,6.064l-17,.88-3.193.163-1.334.07V336.4c0-.045,0-.089,0-.134s.008-.1.01-.156a4.86,4.86,0,0,1,.658-1.995c.01-.019.058-.036.067-.053a3.859,3.859,0,0,1,3.168-1.981l7.178-.2a.51.51,0,0,0,.022.05Z" transform="translate(-474.752 -238.684)" fill="#d8dee8" style="mix-blend-mode: multiply;isolation: isolate"/>
          <g id="Grupo_129080" data-name="Grupo 129080" transform="translate(0 36.954)">
            <path id="Trazado_115145" data-name="Trazado 115145" d="M549.273,259.469a5.72,5.72,0,0,0-4.115-5.7c-.084-.02-.177-.037-.262-.052a4.642,4.642,0,0,0-.787-.071l-49.187-.287-48.533-.284q-.153,0-.3.006a5.676,5.676,0,0,0-3.425,1.372l-.052.044q-.2.178-.391.373l-.009.009c-.074.077-.146.158-.216.239a6.38,6.38,0,0,0-1.519,4.165v4.478h0v70.284a6.434,6.434,0,0,0,.187,1.551,6.05,6.05,0,0,0,.278.855,5.608,5.608,0,0,0,4.246,3.463,5.529,5.529,0,0,0,1.2.068l74.272-3.846h0l23.462-1.214c2.84-.147,5.151-2.86,5.151-6.061V263.626h0Z" transform="translate(-440.134 -252.893)" fill="#d8dee8"/>
            <g id="Grupo_129074" data-name="Grupo 129074" transform="translate(0 0.057)">
              <path id="Trazado_115146" data-name="Trazado 115146" d="M549.339,259.416V328.88c0,3.2-2.3,5.918-5.15,6.064l-23.8,1.231-74.123,3.839a5.834,5.834,0,0,1-6.057-5.22c-.027-.236-.21-75.568-.21-75.568a6.575,6.575,0,0,1,1.142-3.421c.018-.028.117-.054.135-.08a5.877,5.877,0,0,1,4.948-2.716l11.3.066,86.663.507C547.027,253.6,549.339,256.21,549.339,259.416Z" transform="translate(-439.996 -252.932)" fill="#fff"/>
              <path id="Trazado_115147" data-name="Trazado 115147" d="M447.176,338.836a3.907,3.907,0,0,1-4.03-4.046v-74.75a4.128,4.128,0,0,1,4.03-4.231l97.923.444a3.773,3.773,0,0,1,3.506,3.969v69.544a3.99,3.99,0,0,1-3.506,4.13Z" transform="translate(-440.91 -253.744)" fill="url(#linear-gradient-4)"/>
              <path id="Trazado_115148" data-name="Trazado 115148" d="M544.323,253.582,446.4,253.01a6.057,6.057,0,0,0-5.928,6.216v4.483l109-.135v-4.161C549.469,256.21,547.17,253.6,544.323,253.582Z" transform="translate(-440.134 -252.932)" fill="#d8dee8"/>
              <path id="Trazado_115149" data-name="Trazado 115149" d="M453.748,259.939a1.927,1.927,0,1,1-1.923-1.866A1.89,1.89,0,0,1,453.748,259.939Z" transform="translate(-442.868 -254.4)" fill="#fff"/>
              <path id="Trazado_115150" data-name="Trazado 115150" d="M463.222,259.963a1.909,1.909,0,1,1-1.906-1.857A1.877,1.877,0,0,1,463.222,259.963Z" transform="translate(-445.626 -254.41)" fill="#fff"/>
              <path id="Trazado_115151" data-name="Trazado 115151" d="M472.611,259.987a1.892,1.892,0,1,1-1.889-1.849A1.864,1.864,0,0,1,472.611,259.987Z" transform="translate(-448.359 -254.419)" fill="#fff"/>
              <path id="Trazado_115152" data-name="Trazado 115152" d="M546.287,337.8l-96.081,4.58V283.543l96.081-.834Z" transform="translate(-442.957 -261.546)" fill="#d8dee8"/>
              <g id="Grupo_129072" data-name="Grupo 129072" transform="translate(7.249 15.458)" opacity="0.5">
                <path id="Trazado_115153" data-name="Trazado 115153" d="M501.82,274.964l-51.614.239v3.178l51.614-.348Z" transform="translate(-450.206 -274.757)" fill="#fff"/>
                <path id="Trazado_115154" data-name="Trazado 115154" d="M577.8,274.7v2.988l5.5-.037v-2.976Z" transform="translate(-487.215 -274.673)" fill="#fff"/>
              </g>
              <g id="Grupo_129073" data-name="Grupo 129073" opacity="0.5" style="mix-blend-mode: soft-light;isolation: isolate">
                <path id="Trazado_115155" data-name="Trazado 115155" d="M520.383,336.142l-74.121,3.839a5.85,5.85,0,0,1-6.074-5.218c0-.069-.192-75.6-.192-75.6a6.671,6.671,0,0,1,1.123-3.387c.018-.028.127-.054.144-.08a5.88,5.88,0,0,1,4.989-2.793l11.236.067c.008.026.028.052.038.077.209.65.446,1.308.7,1.976a41.228,41.228,0,0,0,4.111,8.135c.109.168.221.332.334.495a34.368,34.368,0,0,0,4.165,5.064,32.728,32.728,0,0,0,3.6,3.112,36.793,36.793,0,0,0,4.445,2.833c10.89,5.94,23.09,6.473,31.167,18.649,6.911,10.419,1.962,16.1,8.644,32.119q1.088,2.61,2.331,4.985,1.054,2.031,2.2,3.9C519.6,334.935,519.992,335.546,520.383,336.142Z" transform="translate(-439.996 -252.9)" fill="#fff"/>
              </g>
            </g>
            <g id="Grupo_129075" data-name="Grupo 129075" transform="translate(37.249 65.417)">
              <path id="Trazado_115156" data-name="Trazado 115156" d="M500.14,350.406a4.107,4.107,0,0,1-3.828,4.13,3.724,3.724,0,0,1-3.849-3.82,4.1,4.1,0,0,1,3.849-4.13A3.724,3.724,0,0,1,500.14,350.406Z" transform="translate(-492.463 -345.433)" fill="#fff"/>
              <path id="Trazado_115157" data-name="Trazado 115157" d="M521.873,349.547a4.04,4.04,0,0,1-3.744,4.082,3.663,3.663,0,0,1-3.765-3.779,4.038,4.038,0,0,1,3.765-4.083A3.665,3.665,0,0,1,521.873,349.547Z" transform="translate(-498.815 -345.196)" fill="#fff"/>
              <path id="Trazado_115158" data-name="Trazado 115158" d="M543.134,348.706a3.978,3.978,0,0,1-3.663,4.037,3.606,3.606,0,0,1-3.683-3.74,3.974,3.974,0,0,1,3.683-4.037A3.607,3.607,0,0,1,543.134,348.706Z" transform="translate(-505.029 -344.964)" fill="#fff"/>
            </g>
            <g id="Grupo_129078" data-name="Grupo 129078" transform="translate(12.977)">
              <g id="Grupo_129077" data-name="Grupo 129077" clip-path="url(#clip-path-2)">
                <g id="Grupo_129076" data-name="Grupo 129076" transform="translate(3.32 0.321)">
                  <path id="Trazado_115159" data-name="Trazado 115159" d="M504.28,353.923c-26.009,1.362-35.32,5.234-39.573-.266-3.932-5.085-.673-24.049,4-29.46,7.334-8.492,18.977-9.144,34.647-9.907,14.471-.7,23.263-1.132,30.14,4.918,6.377,5.611,10.424,25.339,6.478,31.034C536.294,355.553,528.374,352.661,504.28,353.923Z" transform="translate(-462.952 -270.856)" fill="#fdb74d"/>
                  <path id="Trazado_115160" data-name="Trazado 115160" d="M506.144,314.078l-3.038.838a1.14,1.14,0,0,0-.671,1.71c2.072,3.166,7.533,11.074,10.935,11.92,3.5.87,10.006-9.432,12.158-13.035a1.094,1.094,0,0,0-.6-1.621l-2.177-.654a14.289,14.289,0,0,0-5.545-.524l-8.222.833A17.192,17.192,0,0,0,506.144,314.078Z" transform="translate(-474.352 -270.491)" fill="#5038a1"/>
                  <path id="Trazado_115161" data-name="Trazado 115161" d="M510.639,298.028s1.661,11.9-.637,13.091l6.522,6.952,6.555-8.537s-2.471-1.821-1.82-11.651Z" transform="translate(-476.599 -266.211)" fill="#d4a181"/>
                  <path id="Trazado_115162" data-name="Trazado 115162" d="M505.205,272.353c-.237.321-3.329,15.439,7.322,16.874,10.516,1.418,10.977-9.61,10.844-14.285s-4.926-6.368-7.681-6.693S506.048,271.215,505.205,272.353Z" transform="translate(-475.034 -257.609)" fill="#d4a181"/>
                  <path id="Trazado_115163" data-name="Trazado 115163" d="M503.373,285.865s-.535-2.461-2.368-.909,1.083,5.612,3.484,5.416Z" transform="translate(-473.821 -262.312)" fill="#d4a181"/>
                  <path id="Trazado_115164" data-name="Trazado 115164" d="M530.107,283.587c-.3.207-1.163,5.941-1.163,5.941s1.509.162,2.6-1.9S533.156,281.488,530.107,283.587Z" transform="translate(-482.093 -261.895)" fill="#d4a181"/>
                  <path id="Trazado_115165" data-name="Trazado 115165" d="M524.068,264.025c-1.1-1.834-3.871-.963-4.684-2.737-.682-1.491.922-2.89.061-4.179-.72-1.08-2.483-1.06-2.8-1.056-2.389.027-2.936,1.926-4.645,1.879-2.091-.058-2.173-2.922-4.946-4.143-2.7-1.188-6.661-.252-8.268,1.948-1.252,1.714-.187,2.979-1.828,5.183-1.131,1.519-2.131,1.586-2.694,3.075a5.739,5.739,0,0,0,.109,3.718c.67,2.368,1.918,3.407,3.8,5.915a40.181,40.181,0,0,1,3.183,4.968,55.857,55.857,0,0,1,1.866,5.93c.6,2.341.562,2.817,1.12,3.57,1.921,2.589,6.291,2.262,8.122,2.125,2.1-.157,4.7-.352,6-2.193.7-.995.616-1.881.78-4.26a59.267,59.267,0,0,1,.9-6.969,21.424,21.424,0,0,1,.849-2.957c.756-2.037,1.541-2.366,2.393-4.468C524.079,267.691,524.959,265.517,524.068,264.025Zm-8.657,15.93c-1.293.363-2.166.058-3.923-.024-3.526-.165-4.645,1.5-6.316.792a4.291,4.291,0,0,1-2.658-2.757,13.1,13.1,0,0,1-.11-4.175c.278-2.045.6-4.4,2.241-5.453,2.376-1.517,5.4,1.066,7.565-.62a3.915,3.915,0,0,0,1.308-2.365,9.434,9.434,0,0,1,5.676,5.608,9.214,9.214,0,0,1-.051,5.961A6.883,6.883,0,0,1,515.411,279.955Z" transform="translate(-471.956 -253.271)" fill="#26264f"/>
                  <path id="Trazado_115166" data-name="Trazado 115166" d="M513.759,294.361a8.669,8.669,0,0,0,5.692-.23c.237-.093.439.164.241.307a5.284,5.284,0,0,1-3.308,1.146,6.8,6.8,0,0,1-2.827-.892C513.338,294.571,513.511,294.287,513.759,294.361Z" transform="translate(-477.601 -265.117)" fill="url(#linear-gradient-7)"/>
                </g>
              </g>
            </g>
            <g id="Grupo_129079" data-name="Grupo 129079" transform="translate(37.732 66.133)">
              <path id="Trazado_115168" data-name="Trazado 115168" d="M499.8,350.644a3.466,3.466,0,0,1-3.32,3.424,3.173,3.173,0,0,1-3.333-3.181,3.465,3.465,0,0,1,3.333-3.424A3.173,3.173,0,0,1,499.8,350.644Z" transform="translate(-493.143 -346.403)" fill="#fff"/>
              <path id="Trazado_115169" data-name="Trazado 115169" d="M521.529,349.865a3.418,3.418,0,0,1-3.259,3.391A3.129,3.129,0,0,1,515,350.1a3.417,3.417,0,0,1,3.272-3.391A3.13,3.13,0,0,1,521.529,349.865Z" transform="translate(-499.482 -346.185)" fill="#fff"/>
              <path id="Trazado_115170" data-name="Trazado 115170" d="M542.865,349.1a3.371,3.371,0,0,1-3.2,3.359,3.085,3.085,0,0,1-3.213-3.125,3.37,3.37,0,0,1,3.213-3.359A3.087,3.087,0,0,1,542.865,349.1Z" transform="translate(-505.705 -345.971)" fill="#fff"/>
            </g>
          </g>
        </g>
        <g id="Grupo_129085" data-name="Grupo 129085" transform="translate(0.174 19.516)">
          <g id="Grupo_129082" data-name="Grupo 129082">
            <path id="Trazado_115171" data-name="Trazado 115171" d="M468.339,254.313a14.189,14.189,0,0,0,3.265-8.9c0-9.476-10.089-17.157-22.535-17.157s-22.534,7.681-22.534,17.157,10.089,17.157,22.534,17.157a27.634,27.634,0,0,0,12.593-2.927c2.377.405,6.066,1.087,8.012,1.449a.749.749,0,0,0,.838-1Z" transform="translate(-426.534 -228.257)" fill="#fedc72"/>
          </g>
          <g id="Grupo_129084" data-name="Grupo 129084" transform="translate(8.354 10.022)">
            <path id="Trazado_115172" data-name="Trazado 115172" d="M467.427,243.238a.866.866,0,0,1-.865.865h-27.4a.865.865,0,0,1-.865-.865h0a.864.864,0,0,1,.865-.865h27.4a.865.865,0,0,1,.865.865Z" transform="translate(-438.301 -242.373)" fill="#fff"/>
            <g id="Grupo_129083" data-name="Grupo 129083" transform="translate(0 5.19)">
              <path id="Trazado_115173" data-name="Trazado 115173" d="M467.427,250.549a.865.865,0,0,1-.865.865h-27.4a.864.864,0,0,1-.865-.865h0a.865.865,0,0,1,.865-.865h27.4a.866.866,0,0,1,.865.865Z" transform="translate(-438.301 -249.684)" fill="#fff"/>
              <path id="Trazado_115174" data-name="Trazado 115174" d="M454.449,257.86a.864.864,0,0,1-.865.865H439.166a.864.864,0,0,1-.865-.865h0a.865.865,0,0,1,.865-.865h14.419a.865.865,0,0,1,.865.865Z" transform="translate(-438.301 -251.805)" fill="#fff"/>
            </g>
          </g>
        </g>
        <g id="Grupo_129088" data-name="Grupo 129088" transform="translate(208.166 36.673)">
          <g id="humaaan-12" transform="translate(0 0)">
            <g id="Head_Front_Pony" data-name="Head Front Pony" transform="translate(15.23)">
              <g id="Head" transform="translate(0 4.243)">
                <path id="Trazado_113840" data-name="Trazado 113840" d="M668.6,318.666l-7.684-1.621,3.245-8.934c-2.341.812-4.506.985-5.41.538-2.269-1.125-.641-9.942,1.947-13.013s12.445-2.562,11.481,4.392a8.868,8.868,0,0,1-3.623,5.747Z" transform="translate(-657.669 -293.843)" fill="#d4a181" fill-rule="evenodd"/>
              </g>
              <path id="hair" d="M669.357,301.138h0a1.963,1.963,0,0,0-1.516-2.326,1.53,1.53,0,0,0-1.226.354,9.891,9.891,0,0,1,.2-1.825,6.831,6.831,0,0,1,.571-1.674,16.5,16.5,0,0,1-3.454-1.365,3.273,3.273,0,1,1,4.053-2.5c.334.065.681.142,1.025.228a16.3,16.3,0,0,1,4.539,1.783,3.627,3.627,0,0,1,.581.408,2.629,2.629,0,0,1,.649.7,6.366,6.366,0,0,1,1.115,2.941c2.125-.572,4.49-.762,9.016.193,6.654,1.4,2.736,10.612-2.027,9.607-3.5-.738-4.785-4.747-7.047-7.121q-.032.188-.072.378c-.759,3.6-3.243,6.565-5.744,6.037-1.316-.278-2.344-1.934-2.911-3.964A2.068,2.068,0,0,0,669.357,301.138Z" transform="translate(-658.782 -287.867)" fill="#5038a1" fill-rule="evenodd"/>
            </g>
            <g id="Bottom_Standing_Sweatpants" data-name="Bottom Standing Sweatpants" transform="translate(0 56.045)">
              <path id="Leg" d="M659.71,366.81l-5.65,72.331h5.66l5.639-31.018,11.989-41.313Z" transform="translate(-641.392 -366.81)" fill="#ba8b72" fill-rule="evenodd"/>
              <path id="Leg-2" d="M658.708,366.81c4.744,20.532,7.993,32.238,9.093,35.117A345.507,345.507,0,0,0,681.841,439.8h5.887c-7.243-22.86-8.306-35.918-8.493-37.869s-.518-13.656.319-35.117Z" transform="translate(-642.74 -366.81)" fill="#d4a181" fill-rule="evenodd"/>
              <path id="Pant" d="M659.421,366.81c-4.506,15.029-7.1,36.084-6.494,68.076H661.2q11.5-46.752,16.181-68.076Z" transform="translate(-641.038 -366.81)" fill="#fdb74d" fill-rule="evenodd"/>
              <path id="Pant-2" d="M658.608,374.193c4.71,25.771,10.4,39.425,20.008,61.027h8.833c-6.576-25.805-8.7-46.949-7.881-68.41Z" transform="translate(-642.711 -366.81)" fill="#fedc72" fill-rule="evenodd"/>
              <g id="Accessories_Shoe_Flat-Simple" data-name="Accessories Shoe Flat-Simple" transform="translate(26.189 71.349)">
                <path id="Shoe" d="M692.094,474.185H673.58l-.45-1.584c-.006-.023-.011-.047-.016-.071h0a.655.655,0,0,1,.535-.755,27.99,27.99,0,0,0,11.623-4.466q4.294,1.489,7.146.655l.325,5.236Z" transform="translate(-673.106 -467.309)" fill="#5038a1" fill-rule="evenodd"/>
              </g>
              <g id="Accessories_Shoe_Flat-Simple-2" data-name="Accessories Shoe Flat-Simple-2" transform="translate(0 71.349)">
                <path id="Shoe-2" d="M655.205,474.185H636.691l-.449-1.584c-.006-.023-.011-.047-.016-.071h0a.655.655,0,0,1,.535-.755,27.991,27.991,0,0,0,11.623-4.466q4.294,1.489,7.146.655l.325,5.236Z" transform="translate(-636.217 -467.309)" fill="#5038a1" fill-rule="evenodd"/>
              </g>
            </g>
            <g id="Body_Pointing-Forward" data-name="Body Pointing-Forward" transform="translate(13.216 21.398)">
              <path id="Clothes" d="M655.664,328.57c2.968-8.187,4.649-7.4,4.649-9.981l8.238-.582c.9-.063,10.487,9.679,10.489,17.872s5.249,19.609,1.052,27.305c-2.929,3.848-19.855,3.106-23.031-2.99C658.762,346.219,652.7,336.757,655.664,328.57Z" transform="translate(-654.833 -318.006)" fill="#8c6df2" fill-rule="evenodd"/>
            </g>
          </g>
          <g id="Grupo_129087" data-name="Grupo 129087" transform="translate(21.399 16.132)">
            <g id="humaaans_standing-11" data-name="humaaans standing-11">
              <g id="A-Human_Standing" data-name="A-Human Standing">
                <g id="Head_Front_Short-Beard" data-name="Head Front Short-Beard" transform="translate(11.71)">
                  <g id="Head-2" data-name="Head" transform="translate(0.262 0.92)">
                    <path id="Trazado_113841" data-name="Trazado 113841" d="M694.13,323.979a8.9,8.9,0,0,0,3.878-5.6c1.268-6.934-8.595-7.865-11.319-4.9s-4.739,11.739-2.513,12.962c.888.488,3.065.408,5.444-.307l-3.636,8.815,7.633,1.956Z" transform="translate(-683.223 -311.886)" fill="#b28b67" fill-rule="evenodd"/>
                  </g>
                  <path id="Hair-2" data-name="Hair" d="M691.321,317.113q-2,5.994-3.885,5.513c-1.881-.483-3.167-2.089-3.993-2.3-.6-.154-.66.633-.4,1.294.212.545,1.7,1.4,1.517,2.114s-1.308-.163-1.416.261c-.18.7-.74,1.96.476,2.272s4.873.771,5.947-.9a32.87,32.87,0,0,0,2.634-7.134,1.972,1.972,0,0,1,1.7,2.215,2.08,2.08,0,0,1-.045.228,1.964,1.964,0,0,1-.924,1.219c.281.736.61,1.515,1.005,2.332,2.459-.733,5-4.069,3.836-8.2a4.866,4.866,0,0,0-2.619-4.014,5.721,5.721,0,0,0-3.567-1.2,12.224,12.224,0,0,0-4.911.047c-.52,2.028-.281,2.73,3.09,3.538A6.383,6.383,0,0,1,691.321,317.113Z" transform="translate(-682.854 -310.589)" fill="#5038a1" fill-rule="evenodd"/>
                </g>
                <g id="Bottom_Standing_Skinny-Jeans" data-name="Bottom Standing Skinny-Jeans" transform="translate(0 51.054)">
                  <path id="Leg-2-2" data-name="Leg" d="M697.684,391.848l-4.85,38.361-3.194,28.259-6.247.49-3.191-64.34Z" transform="translate(-670.374 -385.213)" fill="#fedc72" fill-rule="evenodd"/>
                  <path id="Leg-2-3" data-name="Leg-2" d="M703.965,382.5c.275,21.537,1.215,33.284,1.5,35.241s4.661,14.4,13.118,37.343H712.02c-10.765-22.008-19.595-34.455-20.851-37.343s-2.3-14.637-8.125-35.241Z" transform="translate(-671.198 -382.502)" fill="#fedc72" fill-rule="evenodd"/>
                  <g id="Accessories_Shoe_Flat-Pointy" data-name="Accessories Shoe Flat-Pointy" transform="translate(27.917 71.6)">
                    <path id="Shoe-2-2" data-name="Shoe" d="M725.716,490.252l-.328-6.9h-6.9a40.688,40.688,0,0,1-12.809,5.584v1.314h12.481l4.27-.657v.657Z" transform="translate(-705.681 -483.355)" fill="#5038a1" fill-rule="evenodd"/>
                  </g>
                  <g id="Accessories_Shoe_Flat-Pointy-2" data-name="Accessories Shoe Flat-Pointy-2" transform="translate(0 71.6)">
                    <path id="Shoe-2-3" data-name="Shoe-2" d="M686.394,490.252l-.328-6.9h-6.9a40.687,40.687,0,0,1-12.809,5.584v1.314H678.84l4.27-.657v.657Z" transform="translate(-666.359 -483.355)" fill="#5038a1" fill-rule="evenodd"/>
                  </g>
                </g>
                <g id="Body_Lab-Coat" data-name="Body Lab-Coat" transform="translate(8.857 17.587)">
                  <path id="Skin" d="M726.531,368.806l-5.747,1.251q10.771,19.625,11.527,20.749c1.136,1.685.16,4.826-.192,6.478,2.4.515,1.394-3.068,4.432-2.37,2.774.637,5.15,2.356,7.68-.064.312-.3.527-1.214-.562-1.662-2.713-1.119-6.721-3.231-7.38-4.067Q734.942,387.41,726.531,368.806Z" transform="translate(-691.002 -345.062)" fill="#b28b67" fill-rule="evenodd"/>
                  <path id="Shirt" d="M703.985,382.081q-15.309,3.241-24.334,1.707c-.745-.127-.975-1.733-.711-2.853,4.1-17.431,6.684-32.571,5.853-44.42q1.525.864,5.122-.068C697.3,348.2,701.281,362,703.985,382.081Z" transform="translate(-678.834 -335.676)" fill="#5038a1" fill-rule="evenodd"/>
                  <path id="Coat-Front" d="M691.242,335.362c-.372,3.77,1.165,54.355-3.842,71.289l33.372-2.341c-1.786-15.066-8.767-32.825-15.613-47.615q8.16,6.477,15.035,22.841l6.138-2.043c-6.052-19.7-17.314-33.735-32.437-42.133Z" transform="translate(-681.319 -335.361)" fill="#fedc72" fill-rule="evenodd"/>
                </g>
              </g>
            </g>
            <path id="Coat-Front-2" d="M691.107,335.1c-.372,3.77,1.271,54.66-3.736,71.6l33.372-2.341c-1.784-15.067-8.93-33.174-15.612-47.616s-7.763-16.084-11.126-21.842Z" transform="translate(-672.453 -317.64)" fill="#fdb74d" fill-rule="evenodd"/>
          </g>
        </g>
      </g>
    </g>
  </g>
</svg>
