<svg xmlns="http://www.w3.org/2000/svg" xmlns:xlink="http://www.w3.org/1999/xlink" width="278.393" height="313.292" viewBox="0 0 278.393 313.292">
  <defs>
    <linearGradient id="linear-gradient" x1="273.921" y1="96.055" x2="274.973" y2="97.504" gradientUnits="objectBoundingBox">
      <stop offset="0" stop-color="#444b8c"/>
      <stop offset="0.996" stop-color="#26264f"/>
    </linearGradient>
    <linearGradient id="linear-gradient-2" x1="387.379" y1="26.402" x2="387.379" y2="24.987" gradientUnits="objectBoundingBox">
      <stop offset="0" stop-color="#ffc444"/>
      <stop offset="0.996" stop-color="#f36f56"/>
    </linearGradient>
    <linearGradient id="linear-gradient-3" x1="347.455" y1="118.102" x2="348.787" y2="119.89" xlink:href="#linear-gradient"/>
    <linearGradient id="linear-gradient-4" x1="299.203" y1="-0.515" x2="300.297" y2="0.793" xlink:href="#linear-gradient"/>
    <linearGradient id="linear-gradient-5" x1="314.542" y1="-27.68" x2="314.542" y2="-29.044" xlink:href="#linear-gradient-2"/>
    <linearGradient id="linear-gradient-6" x1="372.412" y1="-1.298" x2="373.772" y2="0.479" xlink:href="#linear-gradient"/>
    <linearGradient id="linear-gradient-7" x1="-15.561" y1="0.168" x2="-16.25" y2="1.411" xlink:href="#linear-gradient-2"/>
    <linearGradient id="linear-gradient-8" x1="55.77" y1="-10.725" x2="56.951" y2="-9.177" gradientUnits="objectBoundingBox">
      <stop offset="0" stop-color="#e8c36e"/>
      <stop offset="0.996" stop-color="#f36f56"/>
      <stop offset="1" stop-color="#f36f56"/>
    </linearGradient>
    <linearGradient id="linear-gradient-9" x1="0.238" y1="0.253" x2="0.991" y2="0.79" gradientUnits="objectBoundingBox">
      <stop offset="0.004" stop-color="#e38ddd"/>
      <stop offset="1" stop-color="#9571f6"/>
    </linearGradient>
  </defs>
  <g id="Grupo_131946" data-name="Grupo 131946" transform="translate(8841.288 6432.782)">
    <g id="Grupo_131945" data-name="Grupo 131945" transform="translate(-9030 -11953.629)">
      <g id="Grupo_130816" data-name="Grupo 130816" transform="translate(475 5670.449) rotate(131)">
        <g id="Grupo_80729" data-name="Grupo 80729" transform="matrix(-0.07, 0.998, -0.998, -0.07, 230.237, 16.451)">
          <path id="Trazado_138936" data-name="Trazado 138936" d="M86.906-.45c48-.249,86.652,48.515,86.339,108.916S133.769,218.034,85.773,218.283-.879,169.768-.567,109.367,38.909-.2,86.906-.45Z" transform="translate(0 0)" fill="#8c6df2" opacity="0.25"/>
        </g>
      </g>
      <g id="Grupo_130817" data-name="Grupo 130817" transform="translate(273.39 5522.972)">
        <path id="Trazado_138084" data-name="Trazado 138084" d="M2871.653,1529.071c-.212-1.156-3.981-2.2-5.848-.654-.927.768-1.565,2.326-1.029,3.029.195.256-.6.706.162.715C2867.477,1532.19,2871.863,1530.219,2871.653,1529.071Z" transform="translate(-2841.895 -1253.544)" fill="url(#linear-gradient)"/>
        <path id="Trazado_138085" data-name="Trazado 138085" d="M2867.214,1527.069l-3.911.193c1.355-2.438-.273-9.069-.273-9.069l4.223.123s-.1,1.925-.362,4.785A17.918,17.918,0,0,0,2867.214,1527.069Z" transform="translate(-2841.578 -1251.536)" fill="url(#linear-gradient-2)"/>
        <path id="Trazado_138086" data-name="Trazado 138086" d="M2867.517,1529.251s-4.667-1.064-5.173-.149-.9,3.37,2.064,3.291S2867.78,1530.028,2867.517,1529.251Z" transform="translate(-2841.366 -1253.776)" fill="url(#linear-gradient-3)"/>
        <path id="Trazado_138087" data-name="Trazado 138087" d="M2933.951,1539.827c-.373-1.114-4.254-1.627-5.883.163-.809.89-1.221,2.52-.591,3.142.23.226-.5.782.262.685C2930.257,1543.494,2934.322,1540.935,2933.951,1539.827Z" transform="translate(-2854.692 -1255.921)" fill="url(#linear-gradient-4)"/>
        <path id="Trazado_138088" data-name="Trazado 138088" d="M2928.534,1539.123l-3.842.746c.987-2.605-1.586-8.936-1.586-8.936l4.2-.478s.176,1.919.335,4.785A17.917,17.917,0,0,0,2928.534,1539.123Z" transform="translate(-2853.861 -1254.143)" fill="url(#linear-gradient-5)"/>
        <path id="Trazado_138089" data-name="Trazado 138089" d="M2929.827,1540.646s-4.772-.407-5.142.571-.412,3.46,2.51,2.971S2930.2,1541.379,2929.827,1540.646Z" transform="translate(-2854.148 -1256.293)" fill="url(#linear-gradient-6)"/>
        <path id="Trazado_138090" data-name="Trazado 138090" d="M2878.917,1370.8q-1.569,26.562-4.485,55.178c-2.287,22.076-5.064,43.171-8.179,63.218a12.171,12.171,0,0,1-7.388,0s-4.489-7.277-7.916-26.618c-2.2-12.41-2.35-12.253-2.375-14.419-.124-10.921,3.748-14.083,4.485-23.845.683-9.032-2.222-11.737-3.957-21.9-1.335-7.818-1.835-19.213,2.374-34.1Z" transform="translate(-2838.536 -1219.661)" fill="#5038a1"/>
        <path id="Trazado_138091" data-name="Trazado 138091" d="M2902.906,1370.769a368.88,368.88,0,0,1,14.776,128.932l-5.014,1.386c-9.717-10.061-13.185-19.31-14.511-26.063-1.961-9.991.994-13.379-1.583-24.678-.593-2.6-1.426-5.39-11.081-24.122-9.215-17.878-11.1-20.475-12.664-26.9a58.2,58.2,0,0,1-.792-22.736Z" transform="translate(-2843.264 -1220.185)" fill="#5038a1"/>
        <path id="Trazado_138092" data-name="Trazado 138092" d="M2973.376,1302.52l.494-4.5,2.622-4.948a4.665,4.665,0,0,0,.544-2.184v-4.913l-3.167,7.247a23.834,23.834,0,0,0-2.869-2.253c-.791-.391-.692,1.176-.1,1.763s-.3,5.385.3,5.875l-.2,2.938Z" transform="translate(-2863.537 -1202.152)" fill="url(#linear-gradient-7)"/>
        <path id="Trazado_138093" data-name="Trazado 138093" d="M2920.772,1264.821c-2.462-5.959-7.747-9.386-10.488-11.163-6.484-4.2-10.635-3.437-25.527-5.679-19.846-2.989-22.221-5.82-28.891-3.526-8.761,3.015-13.338,10.886-15.434,14.493-10.573,18.184,1.788,27.426-1.385,63.65-1.3,14.793-4.619,27.648,3.364,35.252,1.681,1.6,3.561,2.438,7.322,4.112,14.914,6.641,28.285,5.5,36.411,4.7,8.94-.876,13.459-1.378,15.831-4.5,3.787-4.994-.112-11.341-.792-22.326-.489-7.887,1.323-14.136,4.947-26.635C2914.552,1284.138,2925.489,1276.238,2920.772,1264.821Z" transform="translate(-2836.065 -1193.145)" fill="#8c6df2"/>
        <g id="Grupo_130813" data-name="Grupo 130813" transform="translate(24.418 0)">
          <g id="Grupo_130812" data-name="Grupo 130812">
            <path id="Trazado_138094" data-name="Trazado 138094" d="M2902.5,1221.336c1.543-5.442-1.155-10.482-1.75-11.568-2.49-4.547-3.128-5.167-4.316-5.955l-1.651-1.008s-.1-.038-.2-.074a19.3,19.3,0,0,0-5.4-.327c-2.337.494-4.826,9.919-4.116,23.245q-.146.762-.281,1.536-.553,3.157-.887,6.184c-.216,1.929-2.98,1.885-4.937,1.761-7.944-.5-11.831.168-12.169,1.339-.633,2.194,8.789,9.368,20.424,10.981,15.615.115,28.317-1.53,26.952-3.964-.606-1.08-12.7-4.209-16.107-7.31-3.115-2.84-2.862-5.771-3.118-7.87C2895.884,1227.821,2901.36,1225.345,2902.5,1221.336Z" transform="translate(-2866.758 -1184.366)" fill="url(#linear-gradient-8)"/>
            <path id="Trazado_138095" data-name="Trazado 138095" d="M2901.1,1194.166c-.014,4.128-1.979,8.537-2.981,9.246a6.92,6.92,0,0,0-1.511,1.633,2.1,2.1,0,0,0-.237.488c-.914,2.6,3.266,5.663,2.459,6.828-.586.845-3.426-.285-3.764.445-.318.687,2.042,2.109,1.681,2.931-.273.621-1.726.053-2.642,1-.457.474-.322.85-.807,2.3a13.029,13.029,0,0,1-.952,2.214c-1.442,2.424-5.525,3.31-6.311,2.34-.218-.271-.031-.5-.254-1.406a7.208,7.208,0,0,0-.8-1.812c-.845-1.389-2.884-2.383-4.941-3.849-3.809-2.715-4.845-5.029-5.155-5.811-.111-.279-.18-.489-.229-.641-.99-3.043-1-7.512.388-10.261,2.315-4.605,7.539-2.419,11.813-6.981,4.934-5.263,2-12.458,4.673-13.253C2894.478,1178.7,2901.121,1186.533,2901.1,1194.166Z" transform="translate(-2868.229 -1179.512)" fill="#26264f"/>
            <path id="Trazado_138096" data-name="Trazado 138096" d="M2902.606,1219.844c-1.023-1.39-2.819-.084-2.83,1.715s1.751,3.669,3.459,3.314S2903.981,1221.715,2902.606,1219.844Z" transform="translate(-2873.509 -1187.965)" fill="#e8c36e"/>
          </g>
          <path id="Trazado_138097" data-name="Trazado 138097" d="M2902.291,1216.179l2.372,3.053s2.557,3.741,4.049,1.692c1.219-1.675,1.536-1.638,1.61-1.568.014.013.018.034.021.033.021-.006-.178-.834-.359-1.561a13.635,13.635,0,0,1,2.029,4.31c.512,1.9,1.061,3.938-.023,5.893a5.9,5.9,0,0,1-3.487,2.7s-.877.2-4.583-.446c0,0,4.05-2.908,4.112-3.6.168-1.879-2.466-2.894-4.42-6.746A15.319,15.319,0,0,1,2902.291,1216.179Z" transform="translate(-2874.023 -1187.31)" fill="#26264f"/>
        </g>
        <path id="Trazado_138098" data-name="Trazado 138098" d="M2880.793,1364.686c2.63-5.184-3.815-12.074.4-19.976,3.577-6.711,10.073-5.208,13.06-11.359,3.608-7.429-4.239-12.982-3.958-24.284.336-13.512,12.083-27.037,19-25.852,4.473.768,5.048,7.372,8.2,14.6a163.223,163.223,0,0,0-8.987,23.783c-3.624,12.5-5.435,18.748-4.947,26.635.68,10.985,4.578,17.332.792,22.326-2.371,3.127-6.89,3.628-15.831,4.5-8.125.8-21.5,1.941-36.41-4.7-1.888-.841-3.3-1.47-4.455-2.091C2870.946,1371.737,2878.706,1368.8,2880.793,1364.686Z" transform="translate(-2838.432 -1201.55)" opacity="0.3" fill="url(#linear-gradient-9)" style="mix-blend-mode: multiply;isolation: isolate"/>
        <path id="Trazado_138099" data-name="Trazado 138099" d="M2963.213,1295.392l-4.353-1.861c-2.453,2.482-5.581,4.9-8.212,4.113-3.922-1.168-2.941-8.31-7.718-20.857-5.411-14.217-11.55-17.871-14.643-19.192-1.728-.738-2.92-1.228-4.354-.882-6.6,1.6-8.776,18.607-6.925,31.335,1.042,7.171,3.087,21.233,14.742,27.907,1.656.948,10.769,6.167,19.788,2.056C2959.244,1314.5,2964.005,1305.49,2963.213,1295.392Z" transform="translate(-2852.485 -1195.906)" fill="#8c6df2"/>
      </g>
      <path id="Trazado_138100" data-name="Trazado 138100" d="M249.868,21.36a156.89,156.89,0,0,1-15.045,10.176,131.157,131.157,0,0,1-17,8.468,109.186,109.186,0,0,1-19.343,5.954A84.316,84.316,0,0,1,187.8,47.453c-.921.054-1.841.125-2.775.142-.466.013-.931.032-1.4.038h-1.41c-.947,0-1.858-.029-2.794-.045-.924-.045-1.857-.075-2.781-.144a103.044,103.044,0,0,1-21.32-3.937c-6.722-1.915-13.01-4.22-19.06-6.427-3.023-1.108-6-2.186-8.926-3.188-1.466-.507-2.916-.982-4.359-1.446-.719-.223-1.439-.454-2.153-.665l-2.213-.659c-6.164-1.829-12.187-3.532-18.117-4.9-2.962-.683-5.9-1.28-8.779-1.763q-2.162-.362-4.281-.635T83.258,23.4A55.059,55.059,0,0,0,68.491,24c-1.054.209-2.058.457-3.015.739-.48.139-.944.293-1.4.449l-.673.244c-.2.083-.405.159-.6.246a21.449,21.449,0,0,0-4.366,2.446c-.323.239-.638.482-.937.736L56.33,29.8c-.4.327-.762.668-1.146.994s-.707.676-1.064,1.007a25.258,25.258,0,0,0-3.4,4.129,19.158,19.158,0,0,0-2.116,4.247,17.3,17.3,0,0,0-.941,4.412,24.489,24.489,0,0,0,1.2,9.479,41.921,41.921,0,0,0,4.876,10,51.474,51.474,0,0,0,3.572,4.865c.646.782,1.314,1.546,1.984,2.266.334.357.674.7,1,1.015.162.155.323.306.468.429a2.53,2.53,0,0,0,.2.16c.025.015.061.045.071.041l.012,0s.015.011,0-.018l-.071-.116c7.978,10,3.31,22.731-10.428,28.434s-31.343,2.22-39.321-7.78L11,93.054l-.145-.215-.232-.36-.4-.645c-.25-.415-.474-.806-.691-1.194C9.1,89.866,8.7,89.116,8.32,88.372c-.758-1.486-1.444-2.951-2.081-4.419a80.539,80.539,0,0,1-3.227-8.88,64.255,64.255,0,0,1-2.8-18.588A49.042,49.042,0,0,1,4.154,37.02,49.691,49.691,0,0,1,9.49,27.647a54.69,54.69,0,0,1,7.568-8.441,67.38,67.38,0,0,1,9.287-7.079c.836-.515,1.664-1.039,2.511-1.533s1.7-.981,2.564-1.441l1.3-.684c.443-.231.836-.44,1.366-.7,1-.506,2.024-.986,3.065-1.444A69.487,69.487,0,0,1,50.467,2.014c.582-.13,1.172-.244,1.76-.36s1.144-.208,1.717-.3c1.146-.186,2.294-.356,3.443-.492C59.684.579,61.981.4,64.249.313A91.315,91.315,0,0,1,77.412.792,106.856,106.856,0,0,1,89.432,2.8a151.345,151.345,0,0,1,20.93,6.442c6.435,2.464,12.434,5.143,18.207,7.8l2.252,1.04c.773.357,1.518.722,2.275,1.084,1.487.73,2.957,1.464,4.38,2.2,2.863,1.478,5.6,2.968,8.309,4.415,5.4,2.9,10.611,5.687,15.978,8.048a78.174,78.174,0,0,0,16.719,5.412c.727.148,1.461.26,2.2.391l1.108.159.556.081c.184.024.366.038.549.058l1.1.111c.369.032.741.052,1.113.079.742.063,1.5.076,2.25.108s1.517.022,2.28.023c.764-.023,1.531-.014,2.3-.062l1.156-.054c.386-.02.772-.054,1.158-.082.773-.052,1.545-.134,2.318-.216s1.544-.19,2.32-.283,1.543-.232,2.316-.349c.765-.144,1.535-.279,2.3-.431s1.531-.309,2.288-.489q2.284-.514,4.519-1.162c.746-.212,1.492-.427,2.227-.663l1.107-.348,1.091-.374a89.748,89.748,0,0,0,16.395-7.484,71.857,71.857,0,0,0,13.541-10.1,4.3,4.3,0,0,1,4.763-.48c1.509.821,1.822,2.368.7,3.455a2.828,2.828,0,0,1-.253.218Z" transform="translate(467.419 5561.247) rotate(113)" fill="#fdb74d"/>
    </g>
  </g>
</svg>
