<svg xmlns="http://www.w3.org/2000/svg" width="85" height="84.998" viewBox="0 0 85 84.998">
  <g id="Grupo_131947" data-name="Grupo 131947" transform="translate(-10275.988 9964.25)">
    <g id="Grupo_131733" data-name="Grupo 131733" transform="translate(9375.988 -11765.25)">
      <g id="Grupo_131729" data-name="Grupo 131729" transform="translate(900 1801)">
        <path id="Trazado_138932" data-name="Trazado 138932" d="M1553.953,274.077a33.524,33.524,0,0,1-4.182-.942c-6.2-2.226-10.13-6.536-11.5-13.027a18.281,18.281,0,0,1,.346-8.221,1.788,1.788,0,0,0-.563-1.937q-13.147-13.089-26.226-26.247a1.721,1.721,0,0,0-1.866-.545,17.86,17.86,0,0,1-9.672.022c-6.7-2.094-10.784-6.657-12.236-13.527a16.275,16.275,0,0,1,.241-7.313,2.486,2.486,0,0,1,4.371-1.282c2.116,2.07,4.186,4.188,6.289,6.272a5.036,5.036,0,0,0,6.065,1.134,4.869,4.869,0,0,0,1.6-7.42c-1.529-1.779-3.272-3.375-4.922-5.049-.66-.67-1.345-1.317-1.991-2a2.494,2.494,0,0,1,1.308-4.375c7.23-1.58,13.285.478,17.88,6.232A16.112,16.112,0,0,1,1522.126,210a3.915,3.915,0,0,0,1.282,4.251c8.478,8.347,16.86,16.792,25.246,25.231a1.663,1.663,0,0,0,1.8.519,17.9,17.9,0,0,1,10.935.362,17.039,17.039,0,0,1,10.978,12.933c.146.668.233,1.349.347,2.024v2.49c-.176.975-.342,1.951-.531,2.923a2.52,2.52,0,0,1-1.76,2.111,2.49,2.49,0,0,1-2.641-.746c-.864-.857-1.717-1.725-2.584-2.579-1.477-1.455-2.888-2.989-4.461-4.332a4.895,4.895,0,0,0-6.785.676,4.957,4.957,0,0,0,.459,6.947c2.077,2.108,4.177,4.193,6.275,6.281a2.542,2.542,0,0,1,.82,2.627,2.569,2.569,0,0,1-2.229,1.848q-1.417.256-2.833.516Z" transform="translate(-1487.714 -189.079)" fill="#fedc72"/>
        <path id="Trazado_138933" data-name="Trazado 138933" d="M1496.38,442.748a12.168,12.168,0,0,1-4.775-1.964,9.947,9.947,0,0,1-1.454-14.646c.706-.777,1.465-1.507,2.207-2.25q10.559-10.562,21.116-21.124a7.988,7.988,0,0,0,.575-.7l14.277,14.276a3.789,3.789,0,0,0-.717.478c-7.087,7.072-14.194,14.124-21.227,21.249-2.2,2.224-4.448,4.223-7.68,4.686Zm4.564-9.931a6.8,6.8,0,0,0,1.518-.957q7.37-7.293,14.677-14.65a4.078,4.078,0,0,0,.484-.566,2.463,2.463,0,0,0-1.455-3.811,2.668,2.668,0,0,0-2.662.954q-7.236,7.253-14.481,14.5a4.677,4.677,0,0,0-.548.62,2.364,2.364,0,0,0-.182,2.584A2.6,2.6,0,0,0,1500.944,432.817Z" transform="translate(-1487.589 -357.75)" fill="#fedc72"/>
        <path id="Trazado_138934" data-name="Trazado 138934" d="M1754.569,196.273c-2.748,4.633-5.477,9.277-8.256,13.891a2.436,2.436,0,0,1-3.963.5,20.428,20.428,0,0,1-1.39-1.62l-16.6,16.8-7.016-6.992,16.583-16.779a10.378,10.378,0,0,1-1.03-.855,2.475,2.475,0,0,1,.5-4.026c1.543-.971,3.124-1.885,4.688-2.824q3.982-2.389,7.966-4.775a2.664,2.664,0,0,1,3.853.471c1.1,1.092,2.223,2.162,3.274,3.3a18.549,18.549,0,0,1,1.384,1.918Z" transform="translate(-1669.569 -188.978)" fill="#fedc72"/>
      </g>
    </g>
  </g>
</svg>
