<svg xmlns="http://www.w3.org/2000/svg" width="136.973" height="136.973" viewBox="0 0 136.973 136.973">
  <g id="Grupo_132230" data-name="Grupo 132230" transform="translate(195.986 10073.973)">
    <g id="Grupo_89571" data-name="Grupo 89571" transform="translate(-195.986 -10073.973)">
      <g id="Trazado_137458" data-name="Trazado 137458" transform="translate(0 0)" fill="#fff">
        <path d="M 68.48631286621094 131.9726409912109 C 59.91350936889648 131.9726409912109 51.59981155395508 130.2947692871094 43.77611541748047 126.9856185913086 C 40.01535797119141 125.3949661254883 36.38774871826172 123.4259033203125 32.9940071105957 121.1331405639648 C 29.6312255859375 118.8612899780273 26.46885681152344 116.2520523071289 23.5947265625 113.3779220581055 C 20.72059631347656 110.503791809082 18.11135673522949 107.341423034668 15.83950805664062 103.9786376953125 C 13.5467472076416 100.5848999023438 11.57768249511719 96.95726776123047 9.987030029296875 93.196533203125 C 6.677877902984619 85.37283325195312 5.000008583068848 77.05912017822266 5.000008583068848 68.48631286621094 C 5.000008583068848 59.91350936889648 6.677877902984619 51.59981155395508 9.987030029296875 43.77611541748047 C 11.57768249511719 40.01535797119141 13.5467472076416 36.38774871826172 15.83950805664062 32.9940071105957 C 18.11135673522949 29.6312255859375 20.72059631347656 26.46885681152344 23.5947265625 23.5947265625 C 26.46885681152344 20.72059631347656 29.6312255859375 18.11135673522949 32.9940071105957 15.83950805664062 C 36.38774871826172 13.5467472076416 40.01535797119141 11.57768249511719 43.77611541748047 9.987030029296875 C 51.59981155395508 6.677877902984619 59.91350936889648 5.000008583068848 68.48631286621094 5.000008583068848 C 77.05912017822266 5.000008583068848 85.37283325195312 6.677877902984619 93.196533203125 9.987030029296875 C 96.95726776123047 11.57768249511719 100.5848999023438 13.5467472076416 103.9786376953125 15.83950805664062 C 107.341423034668 18.11135673522949 110.503791809082 20.72059631347656 113.3779220581055 23.5947265625 C 116.2520523071289 26.46885681152344 118.8612899780273 29.6312255859375 121.1331405639648 32.9940071105957 C 123.4259033203125 36.38774871826172 125.3949661254883 40.01535797119141 126.9856185913086 43.77611541748047 C 130.2947692871094 51.59981155395508 131.9726409912109 59.91350936889648 131.9726409912109 68.48631286621094 C 131.9726409912109 77.05912017822266 130.2947692871094 85.37283325195312 126.9856185913086 93.196533203125 C 125.3949661254883 96.95726776123047 123.4259033203125 100.5848999023438 121.1331405639648 103.9786376953125 C 118.8612899780273 107.341423034668 116.2520523071289 110.503791809082 113.3779220581055 113.3779220581055 C 110.503791809082 116.2520523071289 107.341423034668 118.8612899780273 103.9786376953125 121.1331405639648 C 100.5848999023438 123.4259033203125 96.95726776123047 125.3949661254883 93.196533203125 126.9856185913086 C 85.37283325195312 130.2947692871094 77.05912017822266 131.9726409912109 68.48631286621094 131.9726409912109 Z" stroke="none"/>
        <path d="M 68.48631286621094 10.00000762939453 C 36.23686981201172 10.00000762939453 10.00000762939453 36.23686981201172 10.00000762939453 68.48631286621094 C 10.00000762939453 100.7357559204102 36.23686981201172 126.9726181030273 68.48631286621094 126.9726181030273 C 100.7357559204102 126.9726181030273 126.9726181030273 100.7357559204102 126.9726181030273 68.48631286621094 C 126.9726181030273 36.23686981201172 100.7357559204102 10.00000762939453 68.48631286621094 10.00000762939453 M 68.48631286621094 0 C 106.3102569580078 0 136.9726257324219 30.66236877441406 136.9726257324219 68.48631286621094 C 136.9726257324219 106.3102569580078 106.3102569580078 136.9726257324219 68.48631286621094 136.9726257324219 C 30.66236877441406 136.9726257324219 0 106.3102569580078 0 68.48631286621094 C 0 30.66236877441406 30.66236877441406 0 68.48631286621094 0 Z" stroke="none" fill="#8c6df2"/>
      </g>
    </g>
    <g id="Grupo_132099" data-name="Grupo 132099" transform="translate(-1609.353 -10252.542)">
      <path id="Trazado_137473" data-name="Trazado 137473" d="M1706.12,272.216a2.607,2.607,0,0,1-2.815,1.793c-6.168-.041-12.336-.017-18.5-.018-1.831,0-2.669-.828-2.669-2.642q0-9.243,0-18.485V252.2h5.589c.021.1.048.19.058.282a2.386,2.386,0,0,0,3.845,1.736c1.327-.972,2.6-2.012,3.9-3.023.727-.566,1.457-1.127,2.176-1.7a2.429,2.429,0,0,0-.006-4.083c-1.911-1.5-3.878-2.933-5.73-4.5a2.488,2.488,0,0,0-4.231,1.8h-5.57c-.012-.183-.032-.354-.032-.525,0-1.962-.013-3.925.011-5.887a1.641,1.641,0,0,1,.281-.851c.5-.729,1.052-1.416,1.564-2.134a3.448,3.448,0,0,0-1.491-5.364.509.509,0,0,1-.372-.557c.012-1.864-.008-3.729.013-5.593a2.191,2.191,0,0,1,2.252-2.223q9.722-.013,19.445,0a2.362,2.362,0,0,1,2.285,1.773Z" transform="translate(-194.321 0)" fill="#8c6df2"/>
      <path id="Trazado_137474" data-name="Trazado 137474" d="M1469.245,302.643c-.114,1.633-.223,3.177-.329,4.721-.081,1.174-.148,2.35-.243,3.523a2.667,2.667,0,0,1-2.295,2.405c-1.829.329-3.661.64-5.493.955-1.966.338-3.935.664-5.9,1.012a2.708,2.708,0,0,1-3.309-2.131,2.672,2.672,0,0,1,2.307-3.124c2.907-.516,5.819-1.012,8.728-1.517.248-.043.494-.1.838-.166.114-6.655,1.2-13.205,2.234-19.886-1,.585-1.878,1.089-2.74,1.623a.56.56,0,0,0-.17.439c.142,2.271.3,4.541.454,6.812.04.587.1,1.175.1,1.762a2.2,2.2,0,0,1-2.048,2.239,2.153,2.153,0,0,1-2.357-1.967c-.219-2.659-.386-5.322-.572-7.983-.052-.744-.095-1.488-.14-2.232a2.19,2.19,0,0,1,1.148-2.159q3.567-2.1,7.143-4.185a5.784,5.784,0,0,1,3.91-.668c1.915.29,3.837.534,5.753.818a2.7,2.7,0,0,1,2.316,2.034l-1.45-.151-.029.1c1.153.4,2.3.806,3.466,1.17.115.036.359-.177.472-.327q1.993-2.658,3.961-5.335a2.373,2.373,0,0,1,1.452-1.021,2.227,2.227,0,0,1,2.247,3.516c-1.248,1.71-2.517,3.4-3.778,5.105-.49.661-.975,1.327-1.472,1.983a2.231,2.231,0,0,1-2.792.851c-1.482-.5-2.959-1.013-4.439-1.519a1.138,1.138,0,0,0-.592-.072c.661.393,1.308.815,1.989,1.169a.73.73,0,0,1,.453.876c-.381,2.639-.726,5.283-1.115,7.921a2.471,2.471,0,0,0,.219,1.524c.839,1.726,1.564,3.512,2.481,5.2a13.123,13.123,0,0,1,1.363,5.236c.3,3.2.671,6.4.994,9.6a5.211,5.211,0,0,1-.011,1.576,2.613,2.613,0,0,1-2.79,2.022,2.655,2.655,0,0,1-2.436-2.383c-.43-3.978-.848-7.957-1.28-11.934a2.351,2.351,0,0,0-.192-.728c-.891-1.919-1.8-3.828-2.69-5.748a.792.792,0,0,0-.688-.527C1471.058,302.956,1470.195,302.8,1469.245,302.643Z" transform="translate(0 -50.406)" fill="#8c6df2"/>
      <path id="Trazado_137475" data-name="Trazado 137475" d="M1676.234,369.628h-.9q-3.581,0-7.163,0c-1.057,0-1.41-.358-1.413-1.417,0-1.275-.007-2.55,0-3.825.006-.96.367-1.319,1.315-1.32q3.728,0,7.457,0h.7c0-.522.01-.988,0-1.452s.133-.879.57-.985a1.437,1.437,0,0,1,1.072.146c2.049,1.542,4.065,3.129,6.08,4.716a.989.989,0,0,1,0,1.689c-2.012,1.591-4.029,3.177-6.077,4.721a1.451,1.451,0,0,1-1.078.153c-.439-.1-.583-.53-.572-.985S1676.234,370.171,1676.234,369.628Z" transform="translate(-181.365 -118.883)" fill="#8c6df2"/>
      <path id="Trazado_137476" data-name="Trazado 137476" d="M1572.99,232.159a4.914,4.914,0,1,1,4.913,4.957A4.944,4.944,0,0,1,1572.99,232.159Z" transform="translate(-102.315 -6.483)" fill="#8c6df2"/>
    </g>
  </g>
</svg>
