<svg xmlns="http://www.w3.org/2000/svg" width="136.973" height="136.973" viewBox="0 0 136.973 136.973">
  <g id="Grupo_132229" data-name="Grupo 132229" transform="translate(547.243 10069.973)">
    <g id="Grupo_132228" data-name="Grupo 132228" transform="translate(-0.243 -95.973)">
      <g id="Grupo_89571" data-name="Grupo 89571" transform="translate(-547 -9974)">
        <g id="Trazado_137458" data-name="Trazado 137458" transform="translate(0 0)" fill="#fff">
          <path d="M 68.48631286621094 131.9726409912109 C 59.91350936889648 131.9726409912109 51.59981155395508 130.2947692871094 43.77611541748047 126.9856185913086 C 40.01535797119141 125.3949661254883 36.38774871826172 123.4259033203125 32.9940071105957 121.1331405639648 C 29.6312255859375 118.8612899780273 26.46885681152344 116.2520523071289 23.5947265625 113.3779220581055 C 20.72059631347656 110.503791809082 18.11135673522949 107.341423034668 15.83950805664062 103.9786376953125 C 13.5467472076416 100.5848999023438 11.57768249511719 96.95726776123047 9.987030029296875 93.196533203125 C 6.677877902984619 85.37283325195312 5.000008583068848 77.05912017822266 5.000008583068848 68.48631286621094 C 5.000008583068848 59.91350936889648 6.677877902984619 51.59981155395508 9.987030029296875 43.77611541748047 C 11.57768249511719 40.01535797119141 13.5467472076416 36.38774871826172 15.83950805664062 32.9940071105957 C 18.11135673522949 29.6312255859375 20.72059631347656 26.46885681152344 23.5947265625 23.5947265625 C 26.46885681152344 20.72059631347656 29.6312255859375 18.11135673522949 32.9940071105957 15.83950805664062 C 36.38774871826172 13.5467472076416 40.01535797119141 11.57768249511719 43.77611541748047 9.987030029296875 C 51.59981155395508 6.677877902984619 59.91350936889648 5.000008583068848 68.48631286621094 5.000008583068848 C 77.05912017822266 5.000008583068848 85.37283325195312 6.677877902984619 93.196533203125 9.987030029296875 C 96.95726776123047 11.57768249511719 100.5848999023438 13.5467472076416 103.9786376953125 15.83950805664062 C 107.341423034668 18.11135673522949 110.503791809082 20.72059631347656 113.3779220581055 23.5947265625 C 116.2520523071289 26.46885681152344 118.8612899780273 29.6312255859375 121.1331405639648 32.9940071105957 C 123.4259033203125 36.38774871826172 125.3949661254883 40.01535797119141 126.9856185913086 43.77611541748047 C 130.2947692871094 51.59981155395508 131.9726409912109 59.91350936889648 131.9726409912109 68.48631286621094 C 131.9726409912109 77.05912017822266 130.2947692871094 85.37283325195312 126.9856185913086 93.196533203125 C 125.3949661254883 96.95726776123047 123.4259033203125 100.5848999023438 121.1331405639648 103.9786376953125 C 118.8612899780273 107.341423034668 116.2520523071289 110.503791809082 113.3779220581055 113.3779220581055 C 110.503791809082 116.2520523071289 107.341423034668 118.8612899780273 103.9786376953125 121.1331405639648 C 100.5848999023438 123.4259033203125 96.95726776123047 125.3949661254883 93.196533203125 126.9856185913086 C 85.37283325195312 130.2947692871094 77.05912017822266 131.9726409912109 68.48631286621094 131.9726409912109 Z" stroke="none"/>
          <path d="M 68.48631286621094 10.00000762939453 C 36.23686981201172 10.00000762939453 10.00000762939453 36.23686981201172 10.00000762939453 68.48631286621094 C 10.00000762939453 100.7357559204102 36.23686981201172 126.9726181030273 68.48631286621094 126.9726181030273 C 100.7357559204102 126.9726181030273 126.9726181030273 100.7357559204102 126.9726181030273 68.48631286621094 C 126.9726181030273 36.23686981201172 100.7357559204102 10.00000762939453 68.48631286621094 10.00000762939453 M 68.48631286621094 0 C 106.3102569580078 0 136.9726257324219 30.66236877441406 136.9726257324219 68.48631286621094 C 136.9726257324219 106.3102569580078 106.3102569580078 136.9726257324219 68.48631286621094 136.9726257324219 C 30.66236877441406 136.9726257324219 0 106.3102569580078 0 68.48631286621094 C 0 30.66236877441406 30.66236877441406 0 68.48631286621094 0 Z" stroke="none" fill="#8c6df2"/>
        </g>
      </g>
      <g id="Grupo_132096" data-name="Grupo 132096" transform="translate(-1993.828 -10117.288)">
        <path id="Trazado_137484" data-name="Trazado 137484" d="M1488.838,201.183c0-3.844.007-7.689-.01-11.533a.652.652,0,0,1,.532-.754q12.714-4.26,25.421-8.542a1.518,1.518,0,0,1,.9.007q12.683,4.251,25.359,8.522a.655.655,0,0,1,.548.746c-.018,7.308.039,14.617-.029,21.925a32.5,32.5,0,0,1-26.038,31.412,3.994,3.994,0,0,1-1.727-.219c-12-3.268-19.94-10.8-23.689-22.684a29.9,29.9,0,0,1-1.271-9.121C1488.844,207.688,1488.838,204.436,1488.838,201.183Zm49.056,1.449h.008q0-4.911,0-9.822c0-.922-.148-1.146-1.01-1.437q-10.517-3.548-21.042-7.072a2.158,2.158,0,0,0-1.276,0q-10.532,3.507-21.046,7.066c-.844.284-1.014.522-1.014,1.436q0,9.125,0,18.25a25.339,25.339,0,0,0,.779,6.649q4.554,16.886,21.45,21.479a1.906,1.906,0,0,0,.87.021,28.982,28.982,0,0,0,22.278-27.386C1537.922,208.757,1537.894,205.694,1537.894,202.632Z" transform="translate(0)" fill="#8c6df2"/>
        <path id="Trazado_137485" data-name="Trazado 137485" d="M1563.892,222.625c0,1.22,0,2.4,0,3.584,0,4.858.034,9.716-.01,14.574A26.906,26.906,0,0,1,1544,266.477a3.427,3.427,0,0,1-1.906-.11,26.909,26.909,0,0,1-19.288-22.3,27.5,27.5,0,0,1-.235-3.409c-.023-5.872-.011-11.744-.012-17.616v-.436c.753-.26,1.5-.524,2.251-.777q8.992-3.026,17.988-6.039a1.341,1.341,0,0,1,.791-.034q10.046,3.365,20.08,6.761C1563.729,222.543,1563.784,222.575,1563.892,222.625Zm-20.7,27.426c3.1,0,6.207.019,9.31-.005a4.25,4.25,0,0,0,3.778-6.412q-4.614-8.147-9.362-16.218a4.215,4.215,0,0,0-7.4,0q-4.763,8.1-9.379,16.281a4.552,4.552,0,0,0-.52,2.419,4.178,4.178,0,0,0,4.323,3.927C1537.031,250.063,1540.114,250.051,1543.2,250.051Z" transform="translate(-28.017 -29.429)" fill="#8c6df2"/>
        <path id="Trazado_137486" data-name="Trazado 137486" d="M1638.918,311.587c0,1.328.021,2.6,0,3.924a1.386,1.386,0,0,1-1.417,1.33c-.69,0-1.125-.48-1.157-1.3q-.151-3.889-.289-7.777c-.035-.993.435-1.437,1.485-1.429.994.008,1.428.461,1.418,1.437" transform="translate(-122.297 -104.703)" fill="#8c6df2"/>
        <path id="Trazado_137487" data-name="Trazado 137487" d="M1639.106,380.23a1.413,1.413,0,1,1-1.413-1.446A1.384,1.384,0,0,1,1639.106,380.23Z" transform="translate(-122.485 -164.886)" fill="#8c6df2"/>
      </g>
    </g>
  </g>
</svg>
