<svg xmlns="http://www.w3.org/2000/svg" width="136.973" height="136.973" viewBox="0 0 136.973 136.973">
  <g id="Grupo_132236" data-name="Grupo 132236" transform="translate(-1904.028 10066)">
    <g id="Grupo_89571" data-name="Grupo 89571" transform="translate(1904.028 -10066)">
      <g id="Trazado_137458" data-name="Trazado 137458" transform="translate(0 0)" fill="#fff">
        <path d="M 68.48631286621094 131.9726409912109 C 59.91350936889648 131.9726409912109 51.59981155395508 130.2947692871094 43.77611541748047 126.9856185913086 C 40.01535797119141 125.3949661254883 36.38774871826172 123.4259033203125 32.9940071105957 121.1331405639648 C 29.6312255859375 118.8612899780273 26.46885681152344 116.2520523071289 23.5947265625 113.3779220581055 C 20.72059631347656 110.503791809082 18.11135673522949 107.341423034668 15.83950805664062 103.9786376953125 C 13.5467472076416 100.5848999023438 11.57768249511719 96.95726776123047 9.987030029296875 93.196533203125 C 6.677877902984619 85.37283325195312 5.000008583068848 77.05912017822266 5.000008583068848 68.48631286621094 C 5.000008583068848 59.91350936889648 6.677877902984619 51.59981155395508 9.987030029296875 43.77611541748047 C 11.57768249511719 40.01535797119141 13.5467472076416 36.38774871826172 15.83950805664062 32.9940071105957 C 18.11135673522949 29.6312255859375 20.72059631347656 26.46885681152344 23.5947265625 23.5947265625 C 26.46885681152344 20.72059631347656 29.6312255859375 18.11135673522949 32.9940071105957 15.83950805664062 C 36.38774871826172 13.5467472076416 40.01535797119141 11.57768249511719 43.77611541748047 9.987030029296875 C 51.59981155395508 6.677877902984619 59.91350936889648 5.000008583068848 68.48631286621094 5.000008583068848 C 77.05912017822266 5.000008583068848 85.37283325195312 6.677877902984619 93.196533203125 9.987030029296875 C 96.95726776123047 11.57768249511719 100.5848999023438 13.5467472076416 103.9786376953125 15.83950805664062 C 107.341423034668 18.11135673522949 110.503791809082 20.72059631347656 113.3779220581055 23.5947265625 C 116.2520523071289 26.46885681152344 118.8612899780273 29.6312255859375 121.1331405639648 32.9940071105957 C 123.4259033203125 36.38774871826172 125.3949661254883 40.01535797119141 126.9856185913086 43.77611541748047 C 130.2947692871094 51.59981155395508 131.9726409912109 59.91350936889648 131.9726409912109 68.48631286621094 C 131.9726409912109 77.05912017822266 130.2947692871094 85.37283325195312 126.9856185913086 93.196533203125 C 125.3949661254883 96.95726776123047 123.4259033203125 100.5848999023438 121.1331405639648 103.9786376953125 C 118.8612899780273 107.341423034668 116.2520523071289 110.503791809082 113.3779220581055 113.3779220581055 C 110.503791809082 116.2520523071289 107.341423034668 118.8612899780273 103.9786376953125 121.1331405639648 C 100.5848999023438 123.4259033203125 96.95726776123047 125.3949661254883 93.196533203125 126.9856185913086 C 85.37283325195312 130.2947692871094 77.05912017822266 131.9726409912109 68.48631286621094 131.9726409912109 Z" stroke="none"/>
        <path d="M 68.48631286621094 10.00000762939453 C 36.23686981201172 10.00000762939453 10.00000762939453 36.23686981201172 10.00000762939453 68.48631286621094 C 10.00000762939453 100.7357559204102 36.23686981201172 126.9726181030273 68.48631286621094 126.9726181030273 C 100.7357559204102 126.9726181030273 126.9726181030273 100.7357559204102 126.9726181030273 68.48631286621094 C 126.9726181030273 36.23686981201172 100.7357559204102 10.00000762939453 68.48631286621094 10.00000762939453 M 68.48631286621094 0 C 106.3102569580078 0 136.9726257324219 30.66236877441406 136.9726257324219 68.48631286621094 C 136.9726257324219 106.3102569580078 106.3102569580078 136.9726257324219 68.48631286621094 136.9726257324219 C 30.66236877441406 136.9726257324219 0 106.3102569580078 0 68.48631286621094 C 0 30.66236877441406 30.66236877441406 0 68.48631286621094 0 Z" stroke="none" fill="#8c6df2"/>
      </g>
    </g>
    <g id="Capa_1" data-name="Capa 1" transform="translate(531.053 -10222)">
      <g id="Grupo_130511" data-name="Grupo 130511" transform="translate(1412.974 192)">
        <path id="Trazado_137477" data-name="Trazado 137477" d="M1441.417,192h1.018c.665.545,1.344,1.073,1.991,1.638a34.718,34.718,0,0,0,15.267,7.406,43.977,43.977,0,0,0,8.667,1.185,1.935,1.935,0,0,1,2.046,1.85,67.64,67.64,0,0,1-.515,19.53,48.965,48.965,0,0,1-7.5,19.024,34.543,34.543,0,0,1-15.121,12.893c-1.643.7-3.393,1.152-5.094,1.718h-.509l-1.574-.454a32.486,32.486,0,0,1-16.472-11.256c-6.58-8.153-9.578-17.676-10.439-27.982a69.259,69.259,0,0,1,.243-13.283,1.986,1.986,0,0,1,2.127-2.045,44.367,44.367,0,0,0,10.142-1.564,33.783,33.783,0,0,0,13.682-6.978C1440.044,193.1,1440.738,192.56,1441.417,192Zm-1.4,27.775a6.488,6.488,0,0,0-.654-.152,26.594,26.594,0,0,0-4.081-.451,7.047,7.047,0,0,0-6.745,4.73,13.223,13.223,0,0,0-.619,6.833,14.171,14.171,0,0,0,28.091-3.759,10.679,10.679,0,0,0-1.393-4.519,7.154,7.154,0,0,0-3.594-2.861c.142-.172.241-.3.353-.425a8.8,8.8,0,0,0,2.409-4.751,31.962,31.962,0,0,0,.242-4.055,1.845,1.845,0,0,0-2.005-1.977c-.8-.015-1.612-.019-2.415.024a9.859,9.859,0,0,0-7.588,4.05c-.188.244-.365.5-.542.737a.75.75,0,0,1-.157-.081c-.661-.659-1.317-1.322-1.98-1.979a1.919,1.919,0,1,0-2.683,2.713c1,1.011,2.014,2.007,3,3.025a1.127,1.127,0,0,1,.34.631C1440.044,218.247,1440.018,218.99,1440.018,219.775Z" transform="translate(-1412.974 -192)" fill="#8c6df2"/>
        <path id="Trazado_137478" data-name="Trazado 137478" d="M1543.18,379.839a10.489,10.489,0,0,1-9.231,10.414,10.343,10.343,0,0,1-11.374-8.547,10.484,10.484,0,0,1,.265-4.911,3.4,3.4,0,0,1,3.488-2.6,11.425,11.425,0,0,1,5.157,1.152,2.8,2.8,0,0,0,2.541.009,11.476,11.476,0,0,1,5.027-1.165,3.49,3.49,0,0,1,3.736,2.951C1543,378.022,1543.054,378.939,1543.18,379.839Z" transform="translate(-1503.812 -343.233)" fill="#8c6df2"/>
        <path id="Trazado_137479" data-name="Trazado 137479" d="M1601.177,311.137c.4,3.222-2.96,6.609-6.236,6.325C1594.588,314.37,1597.6,310.954,1601.177,311.137Z" transform="translate(-1564.001 -290.889)" fill="#8c6df2"/>
      </g>
    </g>
  </g>
</svg>
