<svg xmlns="http://www.w3.org/2000/svg" width="136.973" height="136.973" viewBox="0 0 136.973 136.973">
  <g id="Grupo_132232" data-name="Grupo 132232" transform="translate(-502 10103)">
    <g id="Grupo_89571" data-name="Grupo 89571" transform="translate(502 -10103)">
      <g id="Trazado_137458" data-name="Trazado 137458" transform="translate(0 0)" fill="#fff">
        <path d="M 68.48631286621094 131.9726409912109 C 59.91350936889648 131.9726409912109 51.59981155395508 130.2947692871094 43.77611541748047 126.9856185913086 C 40.01535797119141 125.3949661254883 36.38774871826172 123.4259033203125 32.9940071105957 121.1331405639648 C 29.6312255859375 118.8612899780273 26.46885681152344 116.2520523071289 23.5947265625 113.3779220581055 C 20.72059631347656 110.503791809082 18.11135673522949 107.341423034668 15.83950805664062 103.9786376953125 C 13.5467472076416 100.5848999023438 11.57768249511719 96.95726776123047 9.987030029296875 93.196533203125 C 6.677877902984619 85.37283325195312 5.000008583068848 77.05912017822266 5.000008583068848 68.48631286621094 C 5.000008583068848 59.91350936889648 6.677877902984619 51.59981155395508 9.987030029296875 43.77611541748047 C 11.57768249511719 40.01535797119141 13.5467472076416 36.38774871826172 15.83950805664062 32.9940071105957 C 18.11135673522949 29.6312255859375 20.72059631347656 26.46885681152344 23.5947265625 23.5947265625 C 26.46885681152344 20.72059631347656 29.6312255859375 18.11135673522949 32.9940071105957 15.83950805664062 C 36.38774871826172 13.5467472076416 40.01535797119141 11.57768249511719 43.77611541748047 9.987030029296875 C 51.59981155395508 6.677877902984619 59.91350936889648 5.000008583068848 68.48631286621094 5.000008583068848 C 77.05912017822266 5.000008583068848 85.37283325195312 6.677877902984619 93.196533203125 9.987030029296875 C 96.95726776123047 11.57768249511719 100.5848999023438 13.5467472076416 103.9786376953125 15.83950805664062 C 107.341423034668 18.11135673522949 110.503791809082 20.72059631347656 113.3779220581055 23.5947265625 C 116.2520523071289 26.46885681152344 118.8612899780273 29.6312255859375 121.1331405639648 32.9940071105957 C 123.4259033203125 36.38774871826172 125.3949661254883 40.01535797119141 126.9856185913086 43.77611541748047 C 130.2947692871094 51.59981155395508 131.9726409912109 59.91350936889648 131.9726409912109 68.48631286621094 C 131.9726409912109 77.05912017822266 130.2947692871094 85.37283325195312 126.9856185913086 93.196533203125 C 125.3949661254883 96.95726776123047 123.4259033203125 100.5848999023438 121.1331405639648 103.9786376953125 C 118.8612899780273 107.341423034668 116.2520523071289 110.503791809082 113.3779220581055 113.3779220581055 C 110.503791809082 116.2520523071289 107.341423034668 118.8612899780273 103.9786376953125 121.1331405639648 C 100.5848999023438 123.4259033203125 96.95726776123047 125.3949661254883 93.196533203125 126.9856185913086 C 85.37283325195312 130.2947692871094 77.05912017822266 131.9726409912109 68.48631286621094 131.9726409912109 Z" stroke="none"/>
        <path d="M 68.48631286621094 10.00000762939453 C 36.23686981201172 10.00000762939453 10.00000762939453 36.23686981201172 10.00000762939453 68.48631286621094 C 10.00000762939453 100.7357559204102 36.23686981201172 126.9726181030273 68.48631286621094 126.9726181030273 C 100.7357559204102 126.9726181030273 126.9726181030273 100.7357559204102 126.9726181030273 68.48631286621094 C 126.9726181030273 36.23686981201172 100.7357559204102 10.00000762939453 68.48631286621094 10.00000762939453 M 68.48631286621094 0 C 106.3102569580078 0 136.9726257324219 30.66236877441406 136.9726257324219 68.48631286621094 C 136.9726257324219 106.3102569580078 106.3102569580078 136.9726257324219 68.48631286621094 136.9726257324219 C 30.66236877441406 136.9726257324219 0 106.3102569580078 0 68.48631286621094 C 0 30.66236877441406 30.66236877441406 0 68.48631286621094 0 Z" stroke="none" fill="#8c6df2"/>
      </g>
    </g>
    <g id="Grupo_132089" data-name="Grupo 132089" transform="translate(-956.231 -10214.987)">
      <path id="Trazado_137465" data-name="Trazado 137465" d="M1534.944,190.173v3.474c0,.87-.008,1.74,0,2.609a2.462,2.462,0,0,0,2.55,2.571c1.877.021,3.755.005,5.632.007.119,0,.238.011.44.022v.655q0,21.419,0,42.838c0,1.193-.322,1.518-1.5,1.518h-38.334c-1.186,0-1.5-.317-1.5-1.508q0-25.363,0-50.726c0-1.126.323-1.458,1.429-1.458q15.321,0,30.643,0Zm-12.036,15.739h-11.737a3.707,3.707,0,0,0-.6.021.821.821,0,0,0-.765.867.807.807,0,0,0,.735.829,3.254,3.254,0,0,0,.542.031q11.828,0,23.656,0c.219,0,.5.035.645-.08.245-.192.563-.5.558-.747a1.369,1.369,0,0,0-.533-.827c-.15-.129-.461-.089-.7-.09Q1528.807,205.908,1522.908,205.912Zm-.017,16.2q5.989,0,11.979,0c.708,0,1.092-.3,1.112-.84.021-.562-.377-.889-1.107-.907-.081,0-.161,0-.242,0h-23.474a4.011,4.011,0,0,0-.6.028.808.808,0,0,0-.751.815.821.821,0,0,0,.747.882,3.341,3.341,0,0,0,.6.023Zm-.011-7.242h11.8a3.856,3.856,0,0,0,.544-.011.853.853,0,0,0,.028-1.692,2.482,2.482,0,0,0-.423-.014H1510.99c-.1,0-.2,0-.3,0a.856.856,0,0,0-.886.871.832.832,0,0,0,.859.839c.181.01.363,0,.545,0Zm-.033,12.729h-11.677c-.949,0-1.389.282-1.377.88.012.58.433.845,1.349.845h23.535a4.472,4.472,0,0,0,.544-.015.785.785,0,0,0,.754-.8.8.8,0,0,0-.727-.89,3.394,3.394,0,0,0-.6-.017Zm-.005,8.97h11.8c.919,0,1.327-.262,1.343-.856.016-.616-.391-.881-1.362-.881h-23.473c-.162,0-.323,0-.484.007a.812.812,0,0,0-.859.833.834.834,0,0,0,.817.884,3.935,3.935,0,0,0,.544.013Zm-3.37-37.865h-5.684c-1.028,0-2.056-.009-3.084.006a.855.855,0,0,0-.909.848.885.885,0,0,0,.907.862c.12.008.242,0,.363,0h16.751a3.226,3.226,0,0,0,.543-.018.833.833,0,0,0,.695-1.024c-.126-.567-.542-.681-1.054-.679C1525.157,198.71,1522.314,198.706,1519.472,198.706Z" transform="translate(0 -33.683)" fill="#8c6df2"/>
      <path id="Trazado_137466" data-name="Trazado 137466" d="M1549.56,154.548c0-1.24-.018-2.392.008-3.542a1.039,1.039,0,0,1,1.016-1.01c.161-.015.323-.007.484-.007h31.194v.681c0,1.76,0,3.519,0,5.279a2.478,2.478,0,0,0,2.676,2.685c1.736.011,3.472,0,5.208,0h.711c.013.268.031.482.031.7q0,21.417,0,42.834c0,1.2-.307,1.513-1.494,1.516-1.387,0-2.774,0-4.225,0v-.842q0-19.354.013-38.708a3.86,3.86,0,0,0-1.221-2.969q-2.782-2.7-5.482-5.489a3.609,3.609,0,0,0-2.755-1.136q-12.656.024-25.312.009Z" transform="translate(-39.665 0)" fill="#8c6df2"/>
      <path id="Trazado_137467" data-name="Trazado 137467" d="M1722.667,198.921c-1.763,0-3.695,0-5.627,0a.588.588,0,0,1-.669-.667c0-1.937,0-3.874,0-5.657Z" transform="translate(-179.49 -35.714)" fill="#8c6df2"/>
      <path id="Trazado_137468" data-name="Trazado 137468" d="M1763.667,150.923l6.476,6.507a3.421,3.421,0,0,1-.411.046q-2.6.005-5.2,0c-.763,0-.865-.11-.867-.888C1763.665,154.72,1763.667,152.851,1763.667,150.923Z" transform="translate(-219.131 -0.784)" fill="#8c6df2"/>
    </g>
  </g>
</svg>
