<svg xmlns="http://www.w3.org/2000/svg" xmlns:xlink="http://www.w3.org/1999/xlink" width="219.422" height="310.115" viewBox="0 0 219.422 310.115">
  <defs>
    <linearGradient id="linear-gradient" x1="-198.475" y1="26.512" x2="-199.261" y2="19.629" gradientUnits="objectBoundingBox">
      <stop offset="0" stop-color="#444b8c"/>
      <stop offset="0.996" stop-color="#26264f"/>
    </linearGradient>
    <linearGradient id="linear-gradient-2" x1="-700.042" y1="23.243" x2="-700.042" y2="13.407" gradientUnits="objectBoundingBox">
      <stop offset="0" stop-color="#ffc444"/>
      <stop offset="0.996" stop-color="#f36f56"/>
    </linearGradient>
    <linearGradient id="linear-gradient-3" x1="-479.582" y1="21.684" x2="-479.582" y2="12.215" xlink:href="#linear-gradient-2"/>
    <linearGradient id="linear-gradient-4" x1="-255.646" y1="13.809" x2="-256.67" y2="10.018" xlink:href="#linear-gradient"/>
    <linearGradient id="linear-gradient-5" x1="-90.682" y1="1.081" x2="-90.857" y2="2.04" gradientUnits="objectBoundingBox">
      <stop offset="0" stop-color="#311944"/>
      <stop offset="1" stop-color="#893976"/>
    </linearGradient>
    <linearGradient id="linear-gradient-6" x1="6.316" y1="6.526" x2="6.774" y2="8.463" gradientUnits="objectBoundingBox">
      <stop offset="0" stop-color="#ff9085"/>
      <stop offset="1" stop-color="#fb6fbb"/>
    </linearGradient>
    <linearGradient id="linear-gradient-7" x1="-56.846" y1="2.886" x2="-57.388" y2="3.833" xlink:href="#linear-gradient"/>
    <linearGradient id="linear-gradient-8" x1="-193.754" y1="19.845" x2="-193.317" y2="17.803" gradientUnits="objectBoundingBox">
      <stop offset="0" stop-color="#aa80f9"/>
      <stop offset="0.996" stop-color="#6165d7"/>
    </linearGradient>
    <linearGradient id="linear-gradient-9" x1="-130.33" y1="18.993" x2="-129.316" y2="18.993" xlink:href="#linear-gradient"/>
    <linearGradient id="linear-gradient-10" x1="-131.179" y1="18.362" x2="-130.164" y2="18.362" xlink:href="#linear-gradient"/>
    <linearGradient id="linear-gradient-11" x1="-233.506" y1="26.92" x2="-232.49" y2="26.92" xlink:href="#linear-gradient"/>
    <linearGradient id="linear-gradient-12" x1="-429.789" y1="11.019" x2="-430.769" y2="11.94" xlink:href="#linear-gradient-2"/>
    <linearGradient id="linear-gradient-13" x1="-28.634" y1="2.315" x2="-28.12" y2="1.194" xlink:href="#linear-gradient"/>
  </defs>
  <g id="Grupo_131952" data-name="Grupo 131952" transform="translate(-1105 -2393.881)">
    <g id="Grupo_130517" data-name="Grupo 130517" transform="translate(-1193.006 2196.389) rotate(-74)">
      <path id="Trazado_138057" data-name="Trazado 138057" d="M142.623,0c78.769,0,142.623,29.171,142.623,65.156s-63.855,65.156-142.623,65.156S0,101.141,0,65.156,63.855,0,142.623,0Z" transform="translate(180 2339)" fill="#e5e1f1"/>
    </g>
    <g id="Grupo_130834" data-name="Grupo 130834" transform="translate(-1540.639 1198.073)">
      <path id="Trazado_138105" data-name="Trazado 138105" d="M2762.03,1564.945c1.3,2.177,1.071,3.178.83,3.63-.707,1.327-2.761.3-7.813,1.332a8.621,8.621,0,0,1-3.176.154c-1.245-.186-2.739-.716-2.7-1.048.013-.121.226-.187.306-.211,1.391-.421,10.029-3.881,10.029-3.881Z" transform="translate(-26.758 -85.679)" fill="url(#linear-gradient)"/>
      <path id="Trazado_138106" data-name="Trazado 138106" d="M2765.487,1558.15l-.368,5.139s-2.05,1.722-2.779-.1a26.309,26.309,0,0,1-.815-4.936Z" transform="translate(-29.953 -83.929)" fill="url(#linear-gradient-2)"/>
      <path id="Trazado_138107" data-name="Trazado 138107" d="M2732.455,1564.28l2.627,5.662,3.067-.755-1.172-5.348Z" transform="translate(-22.439 -85.399)" fill="url(#linear-gradient-3)"/>
      <path id="Trazado_138108" data-name="Trazado 138108" d="M2734.963,1574.3c1.356-1.912,2.712-1.861,2.881-3.111a2.52,2.52,0,0,0-1.485-2.49c-1.3-.527-2.739.586-3.063.837-2.2,1.707-1.37,4.02-3.478,5.229a5.907,5.907,0,0,0-1.786,1.274c-.289.32-1,1.112-.78,1.6.259.562,1.64.426,2.954.3,1.577-.155,2.365-.231,3.084-.769C2734.288,1576.418,2733.917,1575.773,2734.963,1574.3Z" transform="translate(-21.083 -86.619)" fill="url(#linear-gradient-4)"/>
      <path id="Trazado_138109" data-name="Trazado 138109" d="M2765.048,1392.645a167.854,167.854,0,0,1-1.673,30.433c-1.329,9.005-2.33,10.61-2.536,16.793-.447,13.454,3.982,15.1,5.71,30.172a92.271,92.271,0,0,1-3.14,35.353,95.762,95.762,0,0,1-3.675,10.747c-1.447,1.43-3.82,1.062-6.318.713-1.847-15.086-3.863-29.265-5.711-44.351l-13.027-67.79Z" transform="translate(-23.013 -41.152)" fill="#5038a1"/>
      <path id="Trazado_138110" data-name="Trazado 138110" d="M2753.416,1516.855c-1.847-15.086-3.863-29.265-5.711-44.351l-13.027-67.79,30.37-12.069c.028.784.035,1.542.051,2.313-13.717,13.488-15.936,23.637-15.373,30.431.683,8.24,5.448,12.051,5.307,24.068-.1,8.592-2.578,10.259-2.1,17.977.617,9.939,5.229,15.263,7.662,20.877,2.352,5.427,3.554,13.245.368,24.668-.438,1.186-.856,2.249-1.23,3.163C2758.286,1517.571,2755.914,1517.2,2753.416,1516.855Z" transform="translate(-23.013 -41.152)" opacity="0.3" fill="url(#linear-gradient-5)" style="mix-blend-mode: multiply;isolation: isolate"/>
      <path id="Trazado_138111" data-name="Trazado 138111" d="M2739.459,1404.845a177.715,177.715,0,0,0-12.3,30.033,42.739,42.739,0,0,0-2.156,13.144,40.7,40.7,0,0,0,2.927,14.82,78.419,78.419,0,0,1,4.873,14.7,83.036,83.036,0,0,1-2.083,42.787l-5.383,2.382a304.148,304.148,0,0,1-15.917-47.7c-2.687-10.995-4.754-19.62-5.455-30.7-.738-11.681-.222-30.263,7.969-52.933Z" transform="translate(-15.012 -40.826)" fill="#5038a1"/>
      <path id="Trazado_138112" data-name="Trazado 138112" d="M2729.025,1272.989c-11.554,2.729-20.316,5.367-23.907,11.73-3.792,6.721,3.175,11.171,5.866,25.233,4.12,21.529-7.856,30.409-2.912,52.038a56.609,56.609,0,0,0,6.454,16.1,59.563,59.563,0,0,0,18.537,9.016c12.1,3.409,17.791.639,33.78.562,26.153-.125,30.523,7.192,42.009,1.815,11.609-5.435,19.435-18.661,16.575-23.929-1.713-3.155-6.355-.831-13.44-4.4-9.131-4.593-8.085-11.7-15.608-17.274-10.806-8.008-20.145,1.333-29.395-5.639-9.357-7.053-11.563-25.475-8.468-36.717,2.021-7.342,1.583-15.162,2.958-22.652a4.752,4.752,0,0,0-.277-2.692c-1.719-4.149-9.527-4.483-15.426-4.679A67.1,67.1,0,0,0,2729.025,1272.989Z" transform="translate(-15.087 -9.833)" fill="#8c6df2"/>
      <path id="Trazado_138113" data-name="Trazado 138113" d="M2807.965,1403.225c-3.757-2.181-2.225-9.119-7.793-12.406-5.168-3.051-8.764,1.581-16.213-.207-9.553-2.294-9.623-11.351-18.786-13.676-6.589-1.671-8.283,2.574-17.59,3.329-9.292.755-21.726-2.329-30.059-11.713a33.267,33.267,0,0,1-6.905-12.415c-1.99,8.19-4.21,16.127-1.557,27.736a56.6,56.6,0,0,0,6.454,16.1,59.551,59.551,0,0,0,18.537,9.015c12.1,3.41,17.791.639,33.78.563,26.152-.125,30.523,7.191,42.009,1.814a33.864,33.864,0,0,0,15.8-15.851C2815.81,1403.648,2810.692,1404.807,2807.965,1403.225Z" transform="translate(-16.078 -31.716)" opacity="0.3" fill="url(#linear-gradient-6)" style="mix-blend-mode: multiply;isolation: isolate"/>
      <path id="Trazado_138114" data-name="Trazado 138114" d="M2720.426,1244.506s-4.3,7.306-4.333,12.227,6.884,4.083,6.884,4.083l-.1,3.109c-.083,2.654-2.111,5.09-5.176,6.218l-2.7.992s18.03,1.813,27.5-4.356l-2.824-.025c-4-.036-7.286-2.321-7.86-5.466l-.239-1.311S2733.873,1244.49,2720.426,1244.506Z" transform="translate(-17.929 -2.863)" fill="#eabc87"/>
      <g id="Grupo_130833" data-name="Grupo 130833" transform="translate(2645.639 1278.626)">
        <path id="Trazado_138115" data-name="Trazado 138115" d="M2691.963,1327.6l-18.044-32.677a1.048,1.048,0,0,0-1.134-.518l-26.315,5.575a1.047,1.047,0,0,0-.682,1.561l21,35.182a1.048,1.048,0,0,0,1.235.455l23.19-7.832Z" transform="translate(-2645.639 -1294.38)" fill="url(#linear-gradient-7)"/>
        <path id="Trazado_138116" data-name="Trazado 138116" d="M2688.929,1324.729l-14.61-26.458a.85.85,0,0,0-.918-.42l-21.307,4.514a.847.847,0,0,0-.553,1.263l17,28.488a.849.849,0,0,0,1,.368l18.776-6.342Z" transform="translate(-2647.133 -1295.272)" fill="#fedc72"/>
        <path id="Trazado_138117" data-name="Trazado 138117" d="M2671.536,1297.824l-1.16-2.121a.767.767,0,0,0-.825-.384l-10.958,2.226a.766.766,0,0,0-.516,1.125l1.291,2.307a.767.767,0,0,0,.836.375l10.826-2.411A.767.767,0,0,0,2671.536,1297.824Z" transform="translate(-2648.828 -1294.619)" fill="url(#linear-gradient-8)"/>
        <path id="Trazado_138118" data-name="Trazado 138118" d="M2656.574,1308.678c.017,0,.032-.005.05-.008l19.3-4.132a.442.442,0,0,0,.34-.524.448.448,0,0,0-.524-.34l-19.3,4.132a.442.442,0,0,0,.135.872Z" transform="translate(-2648.339 -1296.779)" fill="url(#linear-gradient-9)"/>
        <path id="Trazado_138119" data-name="Trazado 138119" d="M2658.145,1311.157c.018,0,.036-.005.055-.008l19.181-4.313a.442.442,0,1,0-.193-.863l-19.182,4.313a.442.442,0,0,0,.139.871Z" transform="translate(-2648.746 -1297.373)" fill="url(#linear-gradient-10)"/>
        <path id="Trazado_138120" data-name="Trazado 138120" d="M2671.662,1314.814a.535.535,0,0,0,.067-.011l10.435-2.647a.442.442,0,1,0-.217-.857l-10.435,2.647a.442.442,0,0,0,.15.868Z" transform="translate(-2652.239 -1298.749)" fill="url(#linear-gradient-11)"/>
      </g>
      <path id="Trazado_138121" data-name="Trazado 138121" d="M2665.085,1336.179s-4.58-2.586-5.259-4.621a30.088,30.088,0,0,1-.879-5.956l2.986,5.3a2.97,2.97,0,0,0,1.566-2.311c.375-1.859,1.4-.271,1.158,1.13S2665.085,1336.179,2665.085,1336.179Z" transform="translate(-3.439 -23.824)" fill="url(#linear-gradient-12)"/>
      <path id="Trazado_138122" data-name="Trazado 138122" d="M2696.592,1286.341a32.392,32.392,0,0,0-8.14,8.526c-7.741,11.96-3.358,23.648-10.185,28.481-1.951,1.383-5.474,2.667-12.173.908l-2.383,1.535s-1.752,15.749,17.111,14.757,26.284-25.165,26.284-25.165Z" transform="translate(-4.66 -13.676)" fill="#8c6df2"/>
      <path id="Trazado_138123" data-name="Trazado 138123" d="M2728.262,1249.251c.633-.092,1.109-.933,1.56-.719.473.222.5,1.4.149,2.254a2.982,2.982,0,0,1-1.077,1.31,7.83,7.83,0,0,1,1.572,3.038c.767,3.027-.709,5.591-1.3,7.074-2.649,6.687,2.735,16.665,8.268,21.53,4.5,3.955,6.366,2.136,9.107,5.424,5.337,6.4-1,14.187,2.1,23.052,4.72,13.479,26.635,16.218,27.542,16.321.358.04.6.064.97.1,9.813.942,24.687,2.369,34.564-6.249,7.391-6.447,10.307-17.054,9.152-26.166a29.61,29.61,0,0,0-9.5-18.48c-1.255-1.11-8.683-7.667-18.141-7.166-5.01.265-5.91,2.092-9.807,1.238-5.334-1.168-8.858-5.735-11.045-8.567-4.021-5.21-2.6-6.464-5.412-8.974-5.518-4.918-11.358-.426-17.192-4.706-5.751-4.219-2.835-10.608-8.358-14.227-5.7-3.732-16.028-1.666-17.948,3.318C2721.821,1242.938,2726.319,1249.533,2728.262,1249.251Z" transform="translate(-20.025)" fill="url(#linear-gradient-13)"/>
    </g>
    <path id="Trazado_138124" data-name="Trazado 138124" d="M244.2,20.465a154.838,154.838,0,0,1-14.746,10.252A128.162,128.162,0,0,1,212.8,39.265,105.526,105.526,0,0,1,193.872,45.3a80.811,80.811,0,0,1-10.443,1.537c-.9.058-1.8.132-2.713.153-.456.014-.911.036-1.369.043l-1.378,0c-.926.007-1.816-.022-2.731-.035-.9-.041-1.816-.069-2.718-.134a98.157,98.157,0,0,1-20.829-3.865c-6.565-1.894-12.7-4.18-18.61-6.368-2.951-1.1-5.857-2.167-8.715-3.161-1.431-.5-2.847-.973-4.256-1.433-.7-.22-1.4-.45-2.1-.659l-2.161-.652c-6.019-1.809-11.9-3.493-17.694-4.837-2.894-.673-5.759-1.261-8.576-1.733q-2.112-.354-4.183-.62t-4.082-.408a52.594,52.594,0,0,0-14.439.649c-1.032.213-2.013.466-2.95.752-.47.141-.924.3-1.372.455l-.659.247c-.2.084-.4.161-.591.249a21.035,21.035,0,0,0-4.277,2.467c-.316.241-.625.485-.919.741l-1.142.953c-.395.329-.748.672-1.124,1s-.694.68-1.044,1.013a25.464,25.464,0,0,0-3.337,4.149,19.562,19.562,0,0,0-2.084,4.264,17.784,17.784,0,0,0-.936,4.424,25.042,25.042,0,0,0,1.14,9.492,42.087,42.087,0,0,0,4.731,10,50.986,50.986,0,0,0,3.474,4.861c.629.781,1.279,1.544,1.932,2.263.325.356.657.7.973,1.013.158.155.315.306.456.428a2.459,2.459,0,0,0,.194.16c.024.015.059.045.07.04l.012,0s.015.011,0-.018l-.069-.116c7.764,9.99,3.153,22.762-10.3,28.528S18.4,103.5,10.634,93.506l-.22-.314-.141-.215-.225-.36-.385-.645c-.243-.415-.46-.806-.671-1.194-.421-.774-.8-1.524-1.177-2.268-.735-1.486-1.4-2.951-2.018-4.42A81.431,81.431,0,0,1,2.673,75.2,65.648,65.648,0,0,1,0,56.592,49.685,49.685,0,0,1,9.177,27.665a54.972,54.972,0,0,1,7.429-8.485,66.788,66.788,0,0,1,9.1-7.128c.82-.519,1.631-1.047,2.461-1.545s1.664-.99,2.512-1.454l1.274-.69c.434-.233.818-.444,1.338-.711.978-.511,1.982-1,3-1.459A67.216,67.216,0,0,1,49.331,1.828c.57-.132,1.147-.248,1.721-.367s1.119-.212,1.68-.311C53.854.959,54.976.785,56.1.644c2.247-.287,4.492-.476,6.71-.571A87.053,87.053,0,0,1,75.677.5,101.77,101.77,0,0,1,87.422,2.468a144.4,144.4,0,0,1,20.439,6.376c6.282,2.445,12.137,5.106,17.772,7.745l2.2,1.034c.754.355,1.482.718,2.22,1.077,1.451.726,2.886,1.456,4.274,2.192,2.793,1.47,5.468,2.952,8.107,4.392,5.271,2.884,10.353,5.658,15.592,8a74.619,74.619,0,0,0,16.325,5.36c.71.146,1.428.255,2.146.383l1.083.156.543.079c.18.024.358.037.537.056l1.075.107c.36.031.724.049,1.088.075.725.06,1.463.07,2.2.1s1.483.016,2.229.014c.747-.026,1.5-.02,2.249-.071l1.13-.059c.377-.021.754-.057,1.132-.086.756-.055,1.511-.14,2.267-.225s1.511-.2,2.269-.293,1.509-.238,2.266-.358c.748-.148,1.5-.285,2.25-.441s1.5-.315,2.239-.5q2.235-.523,4.422-1.181c.73-.215,1.46-.434,2.18-.673l1.083-.353L209.8,35a87.484,87.484,0,0,0,16.055-7.56,71.17,71.17,0,0,0,13.275-10.169,4.134,4.134,0,0,1,4.658-.5c1.472.817,1.773,2.366.672,3.459a2.823,2.823,0,0,1-.248.219Z" transform="translate(1324.422 2456.04) rotate(121)" fill="#fdb74d"/>
    <g id="Grupo_131951" data-name="Grupo 131951" transform="translate(-1540.639 1198.073)">
      <path id="Trazado_138105-2" data-name="Trazado 138105" d="M2762.03,1564.945c1.3,2.177,1.071,3.178.83,3.63-.707,1.327-2.761.3-7.813,1.332a8.621,8.621,0,0,1-3.176.154c-1.245-.186-2.739-.716-2.7-1.048.013-.121.226-.187.306-.211,1.391-.421,10.029-3.881,10.029-3.881Z" transform="translate(-26.758 -85.679)" fill="url(#linear-gradient)"/>
      <path id="Trazado_138106-2" data-name="Trazado 138106" d="M2765.487,1558.15l-.368,5.139s-2.05,1.722-2.779-.1a26.309,26.309,0,0,1-.815-4.936Z" transform="translate(-29.953 -83.929)" fill="url(#linear-gradient-2)"/>
      <path id="Trazado_138107-2" data-name="Trazado 138107" d="M2732.455,1564.28l2.627,5.662,3.067-.755-1.172-5.348Z" transform="translate(-22.439 -85.399)" fill="url(#linear-gradient-3)"/>
      <path id="Trazado_138108-2" data-name="Trazado 138108" d="M2734.963,1574.3c1.356-1.912,2.712-1.861,2.881-3.111a2.52,2.52,0,0,0-1.485-2.49c-1.3-.527-2.739.586-3.063.837-2.2,1.707-1.37,4.02-3.478,5.229a5.907,5.907,0,0,0-1.786,1.274c-.289.32-1,1.112-.78,1.6.259.562,1.64.426,2.954.3,1.577-.155,2.365-.231,3.084-.769C2734.288,1576.418,2733.917,1575.773,2734.963,1574.3Z" transform="translate(-21.083 -86.619)" fill="url(#linear-gradient-4)"/>
      <path id="Trazado_138109-2" data-name="Trazado 138109" d="M2765.048,1392.645a167.854,167.854,0,0,1-1.673,30.433c-1.329,9.005-2.33,10.61-2.536,16.793-.447,13.454,3.982,15.1,5.71,30.172a92.271,92.271,0,0,1-3.14,35.353,95.762,95.762,0,0,1-3.675,10.747c-1.447,1.43-3.82,1.062-6.318.713-1.847-15.086-3.863-29.265-5.711-44.351l-13.027-67.79Z" transform="translate(-23.013 -41.152)" fill="#5038a1"/>
      <path id="Trazado_138110-2" data-name="Trazado 138110" d="M2753.416,1516.855c-1.847-15.086-3.863-29.265-5.711-44.351l-13.027-67.79,30.37-12.069c.028.784.035,1.542.051,2.313-13.717,13.488-15.936,23.637-15.373,30.431.683,8.24,5.448,12.051,5.307,24.068-.1,8.592-2.578,10.259-2.1,17.977.617,9.939,5.229,15.263,7.662,20.877,2.352,5.427,3.554,13.245.368,24.668-.438,1.186-.856,2.249-1.23,3.163C2758.286,1517.571,2755.914,1517.2,2753.416,1516.855Z" transform="translate(-23.013 -41.152)" opacity="0.3" fill="url(#linear-gradient-5)" style="mix-blend-mode: multiply;isolation: isolate"/>
      <path id="Trazado_138111-2" data-name="Trazado 138111" d="M2739.459,1404.845a177.715,177.715,0,0,0-12.3,30.033,42.739,42.739,0,0,0-2.156,13.144,40.7,40.7,0,0,0,2.927,14.82,78.419,78.419,0,0,1,4.873,14.7,83.036,83.036,0,0,1-2.083,42.787l-5.383,2.382a304.148,304.148,0,0,1-15.917-47.7c-2.687-10.995-4.754-19.62-5.455-30.7-.738-11.681-.222-30.263,7.969-52.933Z" transform="translate(-15.012 -40.826)" fill="#5038a1"/>
      <path id="Trazado_138112-2" data-name="Trazado 138112" d="M2729.025,1272.989c-11.554,2.729-20.316,5.367-23.907,11.73-3.792,6.721,3.175,11.171,5.866,25.233,4.12,21.529-7.856,30.409-2.912,52.038a56.609,56.609,0,0,0,6.454,16.1,59.563,59.563,0,0,0,18.537,9.016c12.1,3.409,17.791.639,33.78.562,26.153-.125,30.523,7.192,42.009,1.815,11.609-5.435,19.435-18.661,16.575-23.929-1.713-3.155-6.355-.831-13.44-4.4-9.131-4.593-8.085-11.7-15.608-17.274-10.806-8.008-20.145,1.333-29.395-5.639-9.357-7.053-11.563-25.475-8.468-36.717,2.021-7.342,1.583-15.162,2.958-22.652a4.752,4.752,0,0,0-.277-2.692c-1.719-4.149-9.527-4.483-15.426-4.679A67.1,67.1,0,0,0,2729.025,1272.989Z" transform="translate(-15.087 -9.833)" fill="#8c6df2"/>
      <path id="Trazado_138113-2" data-name="Trazado 138113" d="M2807.965,1403.225c-3.757-2.181-2.225-9.119-7.793-12.406-5.168-3.051-8.764,1.581-16.213-.207-9.553-2.294-9.623-11.351-18.786-13.676-6.589-1.671-8.283,2.574-17.59,3.329-9.292.755-21.726-2.329-30.059-11.713a33.267,33.267,0,0,1-6.905-12.415c-1.99,8.19-4.21,16.127-1.557,27.736a56.6,56.6,0,0,0,6.454,16.1,59.551,59.551,0,0,0,18.537,9.015c12.1,3.41,17.791.639,33.78.563,26.152-.125,30.523,7.191,42.009,1.814a33.864,33.864,0,0,0,15.8-15.851C2815.81,1403.648,2810.692,1404.807,2807.965,1403.225Z" transform="translate(-16.078 -31.716)" opacity="0.3" fill="url(#linear-gradient-6)" style="mix-blend-mode: multiply;isolation: isolate"/>
      <path id="Trazado_138114-2" data-name="Trazado 138114" d="M2720.426,1244.506s-4.3,7.306-4.333,12.227,6.884,4.083,6.884,4.083l-.1,3.109c-.083,2.654-2.111,5.09-5.176,6.218l-2.7.992s18.03,1.813,27.5-4.356l-2.824-.025c-4-.036-7.286-2.321-7.86-5.466l-.239-1.311S2733.873,1244.49,2720.426,1244.506Z" transform="translate(-17.929 -2.863)" fill="#eabc87"/>
      <g id="Grupo_130833-2" data-name="Grupo 130833" transform="translate(2645.639 1278.626)">
        <path id="Trazado_138115-2" data-name="Trazado 138115" d="M2691.963,1327.6l-18.044-32.677a1.048,1.048,0,0,0-1.134-.518l-26.315,5.575a1.047,1.047,0,0,0-.682,1.561l21,35.182a1.048,1.048,0,0,0,1.235.455l23.19-7.832Z" transform="translate(-2645.639 -1294.38)" fill="url(#linear-gradient-7)"/>
        <path id="Trazado_138116-2" data-name="Trazado 138116" d="M2688.929,1324.729l-14.61-26.458a.85.85,0,0,0-.918-.42l-21.307,4.514a.847.847,0,0,0-.553,1.263l17,28.488a.849.849,0,0,0,1,.368l18.776-6.342Z" transform="translate(-2647.133 -1295.272)" fill="#fedc72"/>
        <path id="Trazado_138117-2" data-name="Trazado 138117" d="M2671.536,1297.824l-1.16-2.121a.767.767,0,0,0-.825-.384l-10.958,2.226a.766.766,0,0,0-.516,1.125l1.291,2.307a.767.767,0,0,0,.836.375l10.826-2.411A.767.767,0,0,0,2671.536,1297.824Z" transform="translate(-2648.828 -1294.619)" fill="url(#linear-gradient-8)"/>
        <path id="Trazado_138118-2" data-name="Trazado 138118" d="M2656.574,1308.678c.017,0,.032-.005.05-.008l19.3-4.132a.442.442,0,0,0,.34-.524.448.448,0,0,0-.524-.34l-19.3,4.132a.442.442,0,0,0,.135.872Z" transform="translate(-2648.339 -1296.779)" fill="url(#linear-gradient-9)"/>
        <path id="Trazado_138119-2" data-name="Trazado 138119" d="M2658.145,1311.157c.018,0,.036-.005.055-.008l19.181-4.313a.442.442,0,1,0-.193-.863l-19.182,4.313a.442.442,0,0,0,.139.871Z" transform="translate(-2648.746 -1297.373)" fill="url(#linear-gradient-10)"/>
        <path id="Trazado_138120-2" data-name="Trazado 138120" d="M2671.662,1314.814a.535.535,0,0,0,.067-.011l10.435-2.647a.442.442,0,1,0-.217-.857l-10.435,2.647a.442.442,0,0,0,.15.868Z" transform="translate(-2652.239 -1298.749)" fill="url(#linear-gradient-11)"/>
      </g>
      <path id="Trazado_138121-2" data-name="Trazado 138121" d="M2665.085,1336.179s-4.58-2.586-5.259-4.621a30.088,30.088,0,0,1-.879-5.956l2.986,5.3a2.97,2.97,0,0,0,1.566-2.311c.375-1.859,1.4-.271,1.158,1.13S2665.085,1336.179,2665.085,1336.179Z" transform="translate(-3.439 -23.824)" fill="url(#linear-gradient-12)"/>
      <path id="Trazado_138122-2" data-name="Trazado 138122" d="M2696.592,1286.341a32.392,32.392,0,0,0-8.14,8.526c-7.741,11.96-3.358,23.648-10.185,28.481-1.951,1.383-5.474,2.667-12.173.908l-2.383,1.535s-1.752,15.749,17.111,14.757,26.284-25.165,26.284-25.165Z" transform="translate(-4.66 -13.676)" fill="#8c6df2"/>
      <path id="Trazado_138123-2" data-name="Trazado 138123" d="M2728.262,1249.251c.633-.092,1.109-.933,1.56-.719.473.222.5,1.4.149,2.254a2.982,2.982,0,0,1-1.077,1.31,7.83,7.83,0,0,1,1.572,3.038c.767,3.027-.709,5.591-1.3,7.074-2.649,6.687,2.735,16.665,8.268,21.53,4.5,3.955,6.366,2.136,9.107,5.424,5.337,6.4-1,14.187,2.1,23.052,4.72,13.479,26.635,16.218,27.542,16.321.358.04.6.064.97.1,9.813.942,24.687,2.369,34.564-6.249,7.391-6.447,10.307-17.054,9.152-26.166a29.61,29.61,0,0,0-9.5-18.48c-1.255-1.11-8.683-7.667-18.141-7.166-5.01.265-5.91,2.092-9.807,1.238-5.334-1.168-8.858-5.735-11.045-8.567-4.021-5.21-2.6-6.464-5.412-8.974-5.518-4.918-11.358-.426-17.192-4.706-5.751-4.219-2.835-10.608-8.358-14.227-5.7-3.732-16.028-1.666-17.948,3.318C2721.821,1242.938,2726.319,1249.533,2728.262,1249.251Z" transform="translate(-20.025)" fill="url(#linear-gradient-13)"/>
    </g>
  </g>
</svg>
