<svg xmlns="http://www.w3.org/2000/svg" width="150" height="147.542" viewBox="0 0 150 147.542">
  <g id="Grupo_121041" data-name="Grupo 121041" transform="translate(1497 6808.542)">
    <g id="Grupo_121030" data-name="Grupo 121030">
      <g id="Fill_Outline" data-name="Fill Outline" transform="translate(-1499 -6810.542)">
        <g id="Color" transform="translate(4.308 4.46)">
          <g id="Grupo_120307" data-name="Grupo 120307" transform="translate(0)">
            <g id="Grupo_120303" data-name="Grupo 120303" transform="translate(61.627)">
              <path id="Trazado_114242" data-name="Trazado 114242" d="M108.689,85.77H30v-41.8l.344-2.4A96.654,96.654,0,0,0,30,12h78.689v.519a44.325,44.325,0,0,1-.865,8.722,44.41,44.41,0,0,0-.256,16l.516,3.1a44.325,44.325,0,0,1,.6,7.316Z" transform="translate(-25.082 10.131)" fill="#79d2dc"/>
              <path id="Trazado_114243" data-name="Trazado 114243" d="M30,8h78.689v9.836H30Z" transform="translate(-25.082 4.295)" fill="#ffca66"/>
              <path id="Trazado_114244" data-name="Trazado 114244" d="M111.607,15.3H32.918L28,3,40.686,4.409a80.507,80.507,0,0,0,18.875-.128l1.257-.157a80.506,80.506,0,0,1,18-.224l5.857.588a80.628,80.628,0,0,0,19.4-.411L111.607,3Z" transform="translate(-28 -3)" fill="#79d2dc"/>
              <path id="Trazado_114245" data-name="Trazado 114245" d="M47.213,16.918V12H30a96.654,96.654,0,0,1,.344,29.562L30,43.967v41.8h78.689V66.1h-12.3a49.18,49.18,0,0,1-49.18-49.18Z" transform="translate(-25.082 10.131)" fill="#42ccdc"/>
              <path id="Trazado_114246" data-name="Trazado 114246" d="M30,8H47.213v9.836H30Z" transform="translate(-25.082 4.295)" fill="#ffb933"/>
              <path id="Trazado_114247" data-name="Trazado 114247" d="M50.131,4.9a80.848,80.848,0,0,1-9.445-.492L28,3l4.918,12.3H50.131Z" transform="translate(-28 -3)" fill="#42ccdc"/>
              <path id="Trazado_114248" data-name="Trazado 114248" d="M41.377,17a7.377,7.377,0,0,1,7.377,7.377V61.262H34V24.377A7.377,7.377,0,0,1,41.377,17Z" transform="translate(-19.246 17.426)" fill="#f9e109"/>
              <path id="Trazado_114249" data-name="Trazado 114249" d="M34,24.377V61.262H48.754V35.443A48.765,48.765,0,0,1,42,17.069,5.23,5.23,0,0,0,41.377,17,7.377,7.377,0,0,0,34,24.377Z" transform="translate(-19.246 17.426)" fill="#ffdb10"/>
              <g id="Grupo_120302" data-name="Grupo 120302" transform="translate(29.508 34.426)">
                <path id="Trazado_114250" data-name="Trazado 114250" d="M47.377,17a7.377,7.377,0,0,1,7.377,7.377V61.262H40V24.377A7.377,7.377,0,0,1,47.377,17Z" transform="translate(-40 -17)" fill="#ffec80"/>
                <path id="Trazado_114251" data-name="Trazado 114251" d="M53.377,17a7.377,7.377,0,0,1,7.377,7.377V61.262H46V24.377A7.377,7.377,0,0,1,53.377,17Z" transform="translate(-31.246 -17)" fill="#ffec80"/>
                <path id="Trazado_114252" data-name="Trazado 114252" d="M59.377,17a7.377,7.377,0,0,1,7.377,7.377V61.262H52V24.377A7.377,7.377,0,0,1,59.377,17Z" transform="translate(-22.492 -17)" fill="#ffec80"/>
              </g>
              <path id="Trazado_114253" data-name="Trazado 114253" d="M59.377,29.3V17A7.377,7.377,0,0,0,52,24.377V61.262H66.754V36.672A7.377,7.377,0,0,1,59.377,29.3Z" transform="translate(7.016 17.426)" fill="#ffdb10"/>
              <path id="Trazado_114254" data-name="Trazado 114254" d="M53.377,29.3V17A7.377,7.377,0,0,0,46,24.377V61.262H60.754V36.672A7.377,7.377,0,0,1,53.377,29.3Z" transform="translate(-1.738 17.426)" fill="#ffdb10"/>
              <path id="Trazado_114255" data-name="Trazado 114255" d="M47.377,31.754V17A7.377,7.377,0,0,0,40,24.377V61.262H54.754V39.131A7.377,7.377,0,0,1,47.377,31.754Z" transform="translate(-10.492 17.426)" fill="#ffdb10"/>
              <path id="Trazado_114256" data-name="Trazado 114256" d="M40,50.32H54.754V39.746A49.358,49.358,0,0,1,40,24.5Z" transform="translate(-10.492 28.369)" fill="#d9ba0e"/>
              <path id="Trazado_114257" data-name="Trazado 114257" d="M41.377,34.213V17A7.377,7.377,0,0,0,34,24.377V61.262H48.754V41.59A7.377,7.377,0,0,1,41.377,34.213Z" transform="translate(-19.246 17.426)" fill="#d9ba0e"/>
              <path id="Trazado_114258" data-name="Trazado 114258" d="M108.689,66.249H30V29.363l4.365,1.456a49.257,49.257,0,0,0,34.98-1.456,49.257,49.257,0,0,1,34.98-1.456l4.365,1.456Z" transform="translate(-25.082 29.653)" fill="#ffca66"/>
              <path id="Trazado_114259" data-name="Trazado 114259" d="M61.426,29.6a49.247,49.247,0,0,1-27.061-1.143L30,27V63.885h78.689V44.213h-12.3A49.023,49.023,0,0,1,61.426,29.6Z" transform="translate(-25.082 32.016)" fill="#ffb933"/>
            </g>
            <g id="Grupo_120304" data-name="Grupo 120304" transform="translate(0 48.801)">
              <path id="Trazado_114260" data-name="Trazado 114260" d="M6,27H74.852v73.771a9.836,9.836,0,0,1-9.836,9.836H15.836A9.836,9.836,0,0,1,6,100.771Z" transform="translate(1.528 -16.784)" fill="#f8b470"/>
              <path id="Trazado_114261" data-name="Trazado 114261" d="M25.672,34.377h49.18V27H6v73.771a9.836,9.836,0,0,0,9.836,9.836h49.18a9.836,9.836,0,0,0,9.836-9.836V95.852H67.475A51.639,51.639,0,0,1,15.836,44.213a9.836,9.836,0,0,1,9.836-9.836Z" transform="translate(1.528 -16.784)" fill="#f87c00"/>
              <path id="Trazado_114262" data-name="Trazado 114262" d="M6,33H74.852V82.18H6Z" transform="translate(1.528 -8.03)" fill="#79d2dc"/>
              <circle id="Elipse_5721" data-name="Elipse 5721" cx="7.5" cy="7.5" r="7.5" transform="translate(34.327 49.327)" fill="#f8b470"/>
              <rect id="Rectángulo_37104" data-name="Rectángulo 37104" width="83.654" height="10.385" rx="2" transform="translate(0 0)" fill="#d0d8da"/>
              <path id="Trazado_114263" data-name="Trazado 114263" d="M29.281,50.117a7.357,7.357,0,0,1-7.333-6.939,7.365,7.365,0,1,0,9.792,6.939c0-.15-.034-.29-.044-.438a7.284,7.284,0,0,1-2.415.438Z" transform="translate(17.591 6.82)" fill="#f87c00"/>
              <circle id="Elipse_5722" data-name="Elipse 5722" cx="7.5" cy="7.5" r="7.5" transform="translate(24.519 49.327)" fill="#f8b470"/>
              <path id="Trazado_114264" data-name="Trazado 114264" d="M22.832,51.73a7.377,7.377,0,0,1-7.377-7.377c0-.2.044-.393.059-.6a7.355,7.355,0,1,0,12.177,6.108,7.328,7.328,0,0,1-4.859,1.864Z" transform="translate(11.746 7.666)" fill="#f87c00"/>
              <path id="Trazado_114265" data-name="Trazado 114265" d="M15.836,35.459A9.78,9.78,0,0,1,16.183,33H6V82.18H45.59A51.6,51.6,0,0,1,15.836,35.459Z" transform="translate(1.528 -8.03)" fill="#42ccdc"/>
              <path id="Trazado_114266" data-name="Trazado 114266" d="M20.377,54.744a7.033,7.033,0,0,0,.76-.074,51.686,51.686,0,0,1-7.716-9.607,7.087,7.087,0,0,0-.42,2.3A7.377,7.377,0,0,0,20.377,54.744Z" transform="translate(11.741 9.57)" fill="#cc5144"/>
              <path id="Trazado_114267" data-name="Trazado 114267" d="M12.836,23H7.918a4.918,4.918,0,0,0,0,9.836h73.77a4.918,4.918,0,0,0,4.918-4.918H17.754A4.918,4.918,0,0,1,12.836,23Z" transform="translate(-2.849 -22.621)" fill="#93999a"/>
            </g>
            <g id="Grupo_120306" data-name="Grupo 120306" transform="translate(51.346 83.607)">
              <path id="Trazado_114283" data-name="Trazado 114283" d="M1.154,0H92.885a1.154,1.154,0,0,1,1.154,1.154V57.692a1.154,1.154,0,0,1-1.154,1.154H1.154A1.154,1.154,0,0,1,0,57.692V1.154A1.154,1.154,0,0,1,1.154,0Z" transform="translate(0 0.387)" fill="#d2e1f1"/>
              <path id="Trazado_114268" data-name="Trazado 114268" d="M73.18,81.262A34.426,34.426,0,0,1,38.754,46.836V37H33.836A9.836,9.836,0,0,0,24,46.836V86.18a9.836,9.836,0,0,0,9.836,9.836h73.77a9.836,9.836,0,0,0,9.836-9.836V81.262Z" transform="translate(-23.555 -37)" fill="#b0c0d2"/>
              <g id="Grupo_120305" data-name="Grupo 120305" transform="translate(12.213 17.213)">
                <ellipse id="Elipse_5723" data-name="Elipse 5723" cx="22.655" cy="12.295" rx="22.655" ry="12.295" transform="translate(0.003 0)" fill="#ffe44d"/>
                <path id="Trazado_114269" data-name="Trazado 114269" d="M66.983,56.3A34.305,34.305,0,0,1,69.28,44,27.007,27.007,0,0,0,46.787,56.3,27.007,27.007,0,0,0,69.28,68.59a34.305,34.305,0,0,1-2.3-12.3Z" transform="translate(-2.522 -44)" fill="#ffe44d"/>
                <path id="Trazado_114270" data-name="Trazado 114270" d="M56.36,57.641A26.948,26.948,0,0,1,34.524,46.448a27.214,27.214,0,0,0-5.737,6.275,27.02,27.02,0,0,0,45.31,0c-.246-.384-.551-.738-.819-1.1a26.84,26.84,0,0,1-16.918,6.02Z" transform="translate(-28.784 -40.428)" fill="#d9ba0e"/>
                <path id="Trazado_114271" data-name="Trazado 114271" d="M51.442,65c.585,0,1.148-.074,1.721-.111A34.527,34.527,0,0,1,34.487,46.461a27.233,27.233,0,0,0-5.7,6.243A27.01,27.01,0,0,0,51.442,65Z" transform="translate(-28.784 -40.409)" fill="#e59730"/>
                <path id="Trazado_114272" data-name="Trazado 114272" d="M49.981,47.4a27.274,27.274,0,0,0-3.2,3.934,27.007,27.007,0,0,0,22.493,12.3,35.309,35.309,0,0,1-1.532-5.265A26.966,26.966,0,0,1,49.981,47.4Z" transform="translate(-2.526 -39.039)" fill="#d9ba0e"/>
                <path id="Trazado_114273" data-name="Trazado 114273" d="M28.789,56.3a27.01,27.01,0,0,0,22.655,12.3c.165,0,.32-.027.492-.032a39.066,39.066,0,0,0,0-24.526c-.165,0-.32-.032-.492-.032A27.012,27.012,0,0,0,28.786,56.3Z" transform="translate(-28.786 -44)" fill="#79d2dc"/>
                <path id="Trazado_114274" data-name="Trazado 114274" d="M34.524,46.448a27.214,27.214,0,0,0-5.737,6.275,27.01,27.01,0,0,0,22.655,12.3c.165,0,.32-.027.492-.032a39.687,39.687,0,0,0,1.652-7.525A26.946,26.946,0,0,1,34.524,46.448Z" transform="translate(-28.784 -40.428)" fill="#42ccdc"/>
                <path id="Trazado_114275" data-name="Trazado 114275" d="M51.442,65.415c.165,0,.32-.027.492-.032.293-.89.546-1.8.777-2.717a34.534,34.534,0,0,1-17.368-16.49,27.238,27.238,0,0,0-6.556,6.944,27.01,27.01,0,0,0,22.655,12.3Z" transform="translate(-28.784 -40.825)" fill="#57b7eb"/>
                <path id="Trazado_114276" data-name="Trazado 114276" d="M51.442,65c.165,0,.32-.027.492-.032.059-.182.1-.374.152-.561A34.53,34.53,0,0,1,34.5,46.459a27.234,27.234,0,0,0-5.71,6.248A27.01,27.01,0,0,0,51.442,65Z" transform="translate(-28.784 -40.412)" fill="#0ba1b3"/>
              </g>
            </g>
          </g>
        </g>
        <g id="Outlines_copy" data-name="Outlines copy" transform="translate(2 1.999)">
          <g id="Grupo_120308" data-name="Grupo 120308">
            <path id="Trazado_114277" data-name="Trazado 114277" d="M99.025,44.07A2.73,2.73,0,0,0,96.988,43,29.508,29.508,0,0,0,75.032,53.082a29.417,29.417,0,0,0-46.844,3.334,2.459,2.459,0,0,0,0,2.69,29.417,29.417,0,0,0,46.844,3.32A29.508,29.508,0,0,0,96.988,72.508H97A2.459,2.459,0,0,0,99.3,69.171a31.549,31.549,0,0,1,0-22.815,2.459,2.459,0,0,0-.273-2.287ZM33.246,57.754A24.487,24.487,0,0,1,51.543,48a35.749,35.749,0,0,1,0,19.515,24.487,24.487,0,0,1-18.3-9.757Zm23.457,9.5a40.972,40.972,0,0,0,0-19,24.639,24.639,0,0,1,15.8,9.5A24.639,24.639,0,0,1,56.7,67.253Zm36.824.054A24.674,24.674,0,0,1,77.56,57.754,24.674,24.674,0,0,1,93.526,48.2a36.258,36.258,0,0,0,0,19.107Z" transform="translate(35.624 57.821)"/>
            <ellipse id="Elipse_5724" data-name="Elipse 5724" cx="2.596" cy="2.308" rx="2.596" ry="2.308" transform="translate(76.154 110.973)"/>
            <path id="Trazado_114278" data-name="Trazado 114278" d="M125.064,36.006H51.293A12.31,12.31,0,0,0,39,48.3v5.857a9.787,9.787,0,0,0-5.41-3.2,16.126,16.126,0,0,1,1.527-9.044l1.175-2.351a2.459,2.459,0,0,0-2.978-3.443A20.971,20.971,0,0,0,19.572,51.033a9.836,9.836,0,0,0,2.213,19.4A9.706,9.706,0,0,0,26.7,69.068,9.654,9.654,0,0,0,39,67.034V87.646a12.31,12.31,0,0,0,12.3,12.3h73.77a12.31,12.31,0,0,0,12.3-12.3V63.055a2.459,2.459,0,1,0-4.918,0v24.59a7.377,7.377,0,0,1-7.377,7.377H51.293a7.377,7.377,0,0,1-7.377-7.377V48.3a7.377,7.377,0,0,1,7.377-7.377h73.77a7.377,7.377,0,0,1,7.377,7.377v4.918a2.459,2.459,0,0,0,4.918,0V48.3a12.31,12.31,0,0,0-12.3-12.3ZM29.081,44.178a21.234,21.234,0,0,0-.465,7.1,9.836,9.836,0,0,0-1.92.851,9.606,9.606,0,0,0-2.073-.9,16.124,16.124,0,0,1,4.458-7.05ZM16.867,60.6a4.918,4.918,0,0,1,4.709-4.9l.246-.02A4.918,4.918,0,1,1,16.867,60.6Zm14.754,4.918a4.61,4.61,0,0,1-1.266-.187,9.47,9.47,0,0,0,0-9.462,4.611,4.611,0,0,1,1.266-.187,4.918,4.918,0,0,1,0,9.836Z" transform="translate(12.641 47.602)"/>
            <path id="Trazado_114279" data-name="Trazado 114279" d="M48.721,115.443H21.672a7.377,7.377,0,0,1-7.377-7.377v-7.377H46.262a2.459,2.459,0,0,0,0-4.918H14.3V51.508H80.689a2.459,2.459,0,0,0,2.459-2.459v-12.3a7.377,7.377,0,0,0,0-14.754H31.508a2.459,2.459,0,0,0,0,4.918H83.148a2.459,2.459,0,0,1,0,4.918H9.377a2.459,2.459,0,0,1,0-4.918h12.3a2.459,2.459,0,1,0,0-4.918H9.377a7.377,7.377,0,0,0,0,14.754v71.311a12.31,12.31,0,0,0,12.3,12.3H48.721a2.459,2.459,0,0,0,0-4.918ZM78.23,36.754V46.59H14.3V36.754Z" transform="translate(-2 27.182)"/>
            <path id="Trazado_114280" data-name="Trazado 114280" d="M114.681,2.6a2.459,2.459,0,0,0-1.967-.575L105.175,3.1a77.7,77.7,0,0,1-18.8.4l-5.857-.585a83.056,83.056,0,0,0-18.543.231L60.713,3.3a78.115,78.115,0,0,1-18.3.125L29.727,2.016a2.459,2.459,0,0,0-2.555,3.357l4.751,11.857v9.361c0,.071.034.13.039.2a1.1,1.1,0,0,0,0,.2,94.18,94.18,0,0,1,1.247,17.58,2.459,2.459,0,0,0,2.4,2.516h.057a2.459,2.459,0,0,0,2.459-2.406,98.823,98.823,0,0,0-.912-15.634h73.3a42.109,42.109,0,0,1-.718,6.29,46.69,46.69,0,0,0-.273,16.9l.516,3.1a42.182,42.182,0,0,1,.492,4.7l-1.038-.347c-1.252-.418-2.518-.755-3.789-1.075V46.263a9.794,9.794,0,0,0-17.213-6.438c-.148-.167-.266-.354-.425-.514a9.76,9.76,0,0,0-14.341.514c-.148-.167-.266-.354-.425-.514a9.76,9.76,0,0,0-14.329.514c-.148-.167-.266-.354-.425-.514a9.836,9.836,0,0,0-16.788,6.952,2.459,2.459,0,0,0,4.918,0,4.918,4.918,0,0,1,9.836,0V67.239A2.459,2.459,0,0,0,58.972,69.7c.069,0,.125-.032.192-.037h.246A51.261,51.261,0,0,0,74.7,65.748a46.778,46.778,0,0,1,33.231-1.384l2.68.883V80.689a2.459,2.459,0,0,0,4.918,0V62.247a46.969,46.969,0,0,0-.639-7.707l-.516-3.113A41.821,41.821,0,0,1,114.62,36.3a46.831,46.831,0,0,0,.91-9.187V4.46a2.459,2.459,0,0,0-.848-1.859ZM81.1,41.345a4.918,4.918,0,0,1,4.918,4.918v11.27a51.711,51.711,0,0,0-9.836,2.4V46.263A4.918,4.918,0,0,1,81.1,41.345Zm-14.754,0a4.918,4.918,0,0,1,4.918,4.918V61.789a46.461,46.461,0,0,1-9.836,2.624V46.263a4.918,4.918,0,0,1,4.918-4.918Zm24.59,15.738V46.263a4.918,4.918,0,1,1,9.836,0V57.621a51.305,51.305,0,0,0-9.836-.539Zm-54.1-37.869h73.77v4.918H36.841Zm5.039-10.9A83.251,83.251,0,0,0,61.328,8.18l1.259-.157a78.369,78.369,0,0,1,17.444-.216l5.857.588a83.265,83.265,0,0,0,19.989-.42l4.734-.679v7H36.047L33.271,7.357Z" transform="translate(34.47 -1.999)"/>
            <path id="Trazado_114281" data-name="Trazado 114281" d="M40.459,36.918h24.59a2.459,2.459,0,0,0,0-4.918H40.459a2.459,2.459,0,1,0,0,4.918Z" transform="translate(50.525 41.772)"/>
            <path id="Trazado_114282" data-name="Trazado 114282" d="M66.754,36.918a2.459,2.459,0,1,0,0-4.918h-12.3a2.459,2.459,0,1,0,0,4.918Z" transform="translate(70.951 41.772)"/>
          </g>
        </g>
      </g>
    </g>
  </g>
</svg>
