<svg xmlns="http://www.w3.org/2000/svg" width="230" height="278" viewBox="0 0 230 278">
  <g id="Grupo_131964" data-name="Grupo 131964" transform="translate(-940 -1711)">
    <rect id="Rectángulo_35534" data-name="Rectángulo 35534" width="230" height="278" rx="10" transform="translate(940 1711)" fill="#8c6df2"/>
    <g id="Grupo_89574" data-name="Grupo 89574" transform="translate(1009.856 1805.226)">
      <g id="Trazado_137461" data-name="Trazado 137461" transform="translate(0 0)" fill="#8c6df2">
        <path d="M 45.05898666381836 85.11797332763672 C 39.64885330200195 85.11797332763672 34.40320205688477 84.05950164794922 29.46775245666504 81.97198486328125 C 24.69815254211426 79.95462036132812 20.41357040405273 77.06553649902344 16.73300361633301 73.38497161865234 C 13.05245304107666 69.70440673828125 10.16335296630859 65.41982269287109 8.145986557006836 60.65021896362305 C 6.058469772338867 55.71477127075195 5.000003337860107 50.46912002563477 5.000003337860107 45.05898666381836 C 5.000003337860107 39.64885330200195 6.058469772338867 34.40320205688477 8.145986557006836 29.46775245666504 C 10.16335296630859 24.69815254211426 13.05245304107666 20.41357040405273 16.73300361633301 16.73300361633301 C 20.41357040405273 13.05245304107666 24.69815254211426 10.16335296630859 29.46775245666504 8.145986557006836 C 34.40320205688477 6.058469772338867 39.64885330200195 5.000003337860107 45.05898666381836 5.000003337860107 C 50.46912002563477 5.000003337860107 55.71477127075195 6.058469772338867 60.65021896362305 8.145986557006836 C 65.41982269287109 10.16335296630859 69.70440673828125 13.05245304107666 73.38497161865234 16.73300361633301 C 77.06553649902344 20.41357040405273 79.95462036132812 24.69815254211426 81.97198486328125 29.46775245666504 C 84.05950164794922 34.40320205688477 85.11797332763672 39.64885330200195 85.11797332763672 45.05898666381836 C 85.11797332763672 50.46912002563477 84.05950164794922 55.71477127075195 81.97198486328125 60.65021896362305 C 79.95462036132812 65.41982269287109 77.06553649902344 69.70440673828125 73.38497161865234 73.38497161865234 C 69.70440673828125 77.06553649902344 65.41982269287109 79.95462036132812 60.65021896362305 81.97198486328125 C 55.71477127075195 84.05950164794922 50.46912002563477 85.11797332763672 45.05898666381836 85.11797332763672 Z" stroke="none"/>
        <path d="M 45.05898666381836 10.00000762939453 C 25.72740173339844 10.00000762939453 10.00000762939453 25.72740173339844 10.00000762939453 45.05898666381836 C 10.00000762939453 64.39057159423828 25.72740173339844 80.11796569824219 45.05898666381836 80.11796569824219 C 64.39057159423828 80.11796569824219 80.11796569824219 64.39057159423828 80.11796569824219 45.05898666381836 C 80.11796569824219 25.72740173339844 64.39057159423828 10.00000762939453 45.05898666381836 10.00000762939453 M 45.05898666381836 7.62939453125e-06 C 69.94438171386719 7.62939453125e-06 90.11796569824219 20.17359161376953 90.11796569824219 45.05898666381836 C 90.11796569824219 69.94438171386719 69.94438171386719 90.11796569824219 45.05898666381836 90.11796569824219 C 20.17359161376953 90.11796569824219 7.62939453125e-06 69.94438171386719 7.62939453125e-06 45.05898666381836 C 7.62939453125e-06 20.17359161376953 20.17359161376953 7.62939453125e-06 45.05898666381836 7.62939453125e-06 Z" stroke="none" fill="#fff"/>
      </g>
    </g>
    <g id="Grupo_130513" data-name="Grupo 130513" transform="translate(-452.828 1646.712)">
      <path id="Trazado_137484" data-name="Trazado 137484" d="M1488.835,195.346c0-2.77.005-5.541-.007-8.311a.47.47,0,0,1,.384-.544q9.163-3.07,18.32-6.156a1.093,1.093,0,0,1,.65.005q9.14,3.064,18.275,6.142a.472.472,0,0,1,.395.538c-.013,5.267.028,10.534-.021,15.8a23.421,23.421,0,0,1-18.764,22.637,2.878,2.878,0,0,1-1.244-.158c-8.651-2.355-14.37-7.787-17.072-16.348a21.539,21.539,0,0,1-.916-6.573C1488.839,200.035,1488.835,197.69,1488.835,195.346Zm35.353,1.044h.006q0-3.539,0-7.078c0-.664-.107-.826-.728-1.035q-7.579-2.557-15.165-5.1a1.555,1.555,0,0,0-.919,0q-7.59,2.527-15.167,5.092c-.609.205-.731.376-.731,1.035q0,6.576,0,13.152a18.266,18.266,0,0,0,.561,4.792q3.282,12.169,15.458,15.479a1.374,1.374,0,0,0,.627.015,20.886,20.886,0,0,0,16.055-19.736C1524.208,200.805,1524.188,198.6,1524.188,196.39Z" fill="#fff"/>
      <path id="Trazado_137485" data-name="Trazado 137485" d="M1552.345,220.695c0,.879,0,1.731,0,2.583,0,3.5.024,7-.007,10.5A19.391,19.391,0,0,1,1538.01,252.3a2.47,2.47,0,0,1-1.374-.079,19.393,19.393,0,0,1-13.9-16.068,19.808,19.808,0,0,1-.169-2.457c-.017-4.232-.008-8.463-.009-12.7v-.314c.543-.188,1.081-.378,1.623-.56q6.48-2.181,12.963-4.352a.966.966,0,0,1,.57-.024q7.24,2.425,14.471,4.873C1552.228,220.636,1552.268,220.659,1552.345,220.695Zm-14.915,19.765c2.236,0,4.473.014,6.709,0a3.063,3.063,0,0,0,2.723-4.621q-3.325-5.872-6.747-11.688a3.038,3.038,0,0,0-5.33,0q-3.432,5.836-6.759,11.733a3.281,3.281,0,0,0-.375,1.743,3.011,3.011,0,0,0,3.115,2.83C1532.988,240.469,1535.209,240.46,1537.431,240.46Z" transform="translate(-29.612 -31.105)" fill="#fff"/>
      <path id="Trazado_137486" data-name="Trazado 137486" d="M1638.118,310.119c0,.957.015,1.871,0,2.828a1,1,0,0,1-1.021.958c-.5,0-.811-.346-.834-.937q-.109-2.8-.208-5.6c-.025-.715.313-1.036,1.07-1.03.717.006,1.029.333,1.022,1.035" transform="translate(-129.26 -110.664)" fill="#fff"/>
      <path id="Trazado_137487" data-name="Trazado 137487" d="M1638.317,379.826a1.018,1.018,0,1,1-1.018-1.042A1,1,0,0,1,1638.317,379.826Z" transform="translate(-129.459 -174.274)" fill="#fff"/>
    </g>
  </g>
</svg>
