<svg xmlns="http://www.w3.org/2000/svg" width="230" height="277" viewBox="0 0 230 277">
  <g id="Grupo_131967" data-name="Grupo 131967" transform="translate(-433 -2011)">
    <rect id="Rectángulo_35541" data-name="Rectángulo 35541" width="230" height="277" rx="10" transform="translate(433 2011)" fill="#8c6df2"/>
    <g id="Grupo_89577" data-name="Grupo 89577" transform="translate(503.693 2104.654)">
      <g id="Trazado_137459" data-name="Trazado 137459" transform="translate(0 0)" fill="#8c6df2">
        <path d="M 45.05898666381836 85.11797332763672 C 39.64885330200195 85.11797332763672 34.40320205688477 84.05950164794922 29.46775245666504 81.97198486328125 C 24.69815254211426 79.95462036132812 20.41357040405273 77.06553649902344 16.73300361633301 73.38497161865234 C 13.05245304107666 69.70440673828125 10.16335296630859 65.41982269287109 8.145986557006836 60.65021896362305 C 6.058469772338867 55.71477127075195 5.000003337860107 50.46912002563477 5.000003337860107 45.05898666381836 C 5.000003337860107 39.64885330200195 6.058469772338867 34.40320205688477 8.145986557006836 29.46775245666504 C 10.16335296630859 24.69815254211426 13.05245304107666 20.41357040405273 16.73300361633301 16.73300361633301 C 20.41357040405273 13.05245304107666 24.69815254211426 10.16335296630859 29.46775245666504 8.145986557006836 C 34.40320205688477 6.058469772338867 39.64885330200195 5.000003337860107 45.05898666381836 5.000003337860107 C 50.46912002563477 5.000003337860107 55.71477127075195 6.058469772338867 60.65021896362305 8.145986557006836 C 65.41982269287109 10.16335296630859 69.70440673828125 13.05245304107666 73.38497161865234 16.73300361633301 C 77.06553649902344 20.41357040405273 79.95462036132812 24.69815254211426 81.97198486328125 29.46775245666504 C 84.05950164794922 34.40320205688477 85.11797332763672 39.64885330200195 85.11797332763672 45.05898666381836 C 85.11797332763672 50.46912002563477 84.05950164794922 55.71477127075195 81.97198486328125 60.65021896362305 C 79.95462036132812 65.41982269287109 77.06553649902344 69.70440673828125 73.38497161865234 73.38497161865234 C 69.70440673828125 77.06553649902344 65.41982269287109 79.95462036132812 60.65021896362305 81.97198486328125 C 55.71477127075195 84.05950164794922 50.46912002563477 85.11797332763672 45.05898666381836 85.11797332763672 Z" stroke="none"/>
        <path d="M 45.05898666381836 10.00000762939453 C 25.72740173339844 10.00000762939453 10.00000762939453 25.72740173339844 10.00000762939453 45.05898666381836 C 10.00000762939453 64.39057159423828 25.72740173339844 80.11796569824219 45.05898666381836 80.11796569824219 C 64.39057159423828 80.11796569824219 80.11796569824219 64.39057159423828 80.11796569824219 45.05898666381836 C 80.11796569824219 25.72740173339844 64.39057159423828 10.00000762939453 45.05898666381836 10.00000762939453 M 45.05898666381836 7.62939453125e-06 C 69.94438171386719 7.62939453125e-06 90.11796569824219 20.17359161376953 90.11796569824219 45.05898666381836 C 90.11796569824219 69.94438171386719 69.94438171386719 90.11796569824219 45.05898666381836 90.11796569824219 C 20.17359161376953 90.11796569824219 7.62939453125e-06 69.94438171386719 7.62939453125e-06 45.05898666381836 C 7.62939453125e-06 20.17359161376953 20.17359161376953 7.62939453125e-06 45.05898666381836 7.62939453125e-06 Z" stroke="none" fill="#fff"/>
      </g>
    </g>
    <g id="Grupo_130514" data-name="Grupo 130514" transform="translate(-982.797 1899)">
      <path id="Trazado_137488" data-name="Trazado 137488" d="M1523.547,229h17.086a8.1,8.1,0,0,1,1.2.386,3.8,3.8,0,0,1,2.2,3.675q0,7.99,0,15.98c0,.138-.011.275-.017.4a.588.588,0,0,1-.1.039c-.056.007-.113.008-.169.011a12.59,12.59,0,0,0-11.208,7.316.547.547,0,0,1-.588.334q-7.2-.011-14.407-.005c-.156,0-.313-.006-.467.008a1.27,1.27,0,0,0-.009,2.532c.154.015.311.009.467.009h13.98c-.09.863-.176,1.686-.265,2.55H1517.4c-.908,0-1.49.493-1.5,1.261s.583,1.286,1.514,1.289h14.125a13.12,13.12,0,0,0,4.884,7.711c-.155.014-.208.024-.262.024-7.154,0-14.308.01-21.462-.017a4.029,4.029,0,0,1-1.711-.4,3.845,3.845,0,0,1-2.191-3.73q0-13.047,0-26.095c0-.137.012-.274.021-.44h11.156c1.111,0,1.573-.462,1.573-1.573Q1523.548,234.631,1523.547,229Zm3.867,17.936h-9.9c-1.019,0-1.613.47-1.612,1.275s.593,1.275,1.613,1.275h19.8a3.891,3.891,0,0,0,.425-.007,1.236,1.236,0,0,0,1.111-.853,1.272,1.272,0,0,0-1.323-1.687Q1532.472,246.931,1527.415,246.936Zm-2.3,5.1h-4.077c-1.288,0-2.577-.01-3.865.006a1.264,1.264,0,0,0-1.274,1.224,1.282,1.282,0,0,0,1.1,1.3,3.3,3.3,0,0,0,.466.015h15.29c.128,0,.256,0,.382-.008a1.274,1.274,0,0,0-.206-2.539C1530.327,252.032,1527.722,252.036,1525.117,252.036Zm7.44-15.3c-1.686,0-3.371,0-5.057,0a1.288,1.288,0,0,0-1.3.783,1.265,1.265,0,0,0,1.212,1.764c1.629.015,3.258,0,4.887,0,1.742,0,3.485,0,5.227,0a1.288,1.288,0,0,0,1.3-.783,1.264,1.264,0,0,0-1.212-1.764C1535.929,236.726,1534.243,236.736,1532.557,236.735Zm-.041,7.65c1.672,0,3.343,0,5.015,0a1.288,1.288,0,0,0,1.3-.782,1.265,1.265,0,0,0-1.211-1.765c-1.6-.015-3.2,0-4.8,0-1.771,0-3.541,0-5.312,0a1.288,1.288,0,0,0-1.3.782,1.27,1.27,0,0,0,1.254,1.766C1529.144,244.393,1530.83,244.385,1532.516,244.386Z" transform="translate(0 0)" fill="#fff"/>
      <path id="Trazado_137489" data-name="Trazado 137489" d="M1747.634,456.461a27.977,27.977,0,0,1-.733,2.863,10.179,10.179,0,1,1,.526-5.728c.081.386.139.777.208,1.165Zm-11.563,1.192c-.557-.565-1.071-1.089-1.588-1.609a1.273,1.273,0,1,0-1.826,1.769c.764.8,1.557,1.567,2.339,2.346a1.325,1.325,0,0,0,2.162,0q2.375-2.371,4.745-4.746a2.915,2.915,0,0,0,.284-.314,1.255,1.255,0,0,0-.628-1.963,1.305,1.305,0,0,0-1.414.429C1738.808,454.907,1737.469,456.249,1736.07,457.653Z" transform="translate(-193.315 -193.374)" fill="#fff"/>
      <path id="Trazado_137490" data-name="Trazado 137490" d="M1527.389,248.6h-9.4l9.4-9.157Z" transform="translate(-6.424 -9.331)" fill="#fff"/>
    </g>
  </g>
</svg>
