<svg xmlns="http://www.w3.org/2000/svg" width="229" height="277" viewBox="0 0 229 277">
  <g id="Grupo_131970" data-name="Grupo 131970" transform="translate(-1192 -2011)">
    <rect id="Rectángulo_35544" data-name="Rectángulo 35544" width="229" height="277" rx="10" transform="translate(1192 2011)" fill="#8c6df2"/>
    <g id="Grupo_89580" data-name="Grupo 89580" transform="translate(1263.188 2104.654)">
      <g id="Trazado_137462" data-name="Trazado 137462" transform="translate(0 0)" fill="#8c6df2">
        <path d="M 45.05898666381836 85.11797332763672 C 39.64885330200195 85.11797332763672 34.40320205688477 84.05950164794922 29.46775245666504 81.97198486328125 C 24.69815254211426 79.95462036132812 20.41357040405273 77.06553649902344 16.73300361633301 73.38497161865234 C 13.05245304107666 69.70440673828125 10.16335296630859 65.41982269287109 8.145986557006836 60.65021896362305 C 6.058469772338867 55.71477127075195 5.000003337860107 50.46912002563477 5.000003337860107 45.05898666381836 C 5.000003337860107 39.64885330200195 6.058469772338867 34.40320205688477 8.145986557006836 29.46775245666504 C 10.16335296630859 24.69815254211426 13.05245304107666 20.41357040405273 16.73300361633301 16.73300361633301 C 20.41357040405273 13.05245304107666 24.69815254211426 10.16335296630859 29.46775245666504 8.145986557006836 C 34.40320205688477 6.058469772338867 39.64885330200195 5.000003337860107 45.05898666381836 5.000003337860107 C 50.46912002563477 5.000003337860107 55.71477127075195 6.058469772338867 60.65021896362305 8.145986557006836 C 65.41982269287109 10.16335296630859 69.70440673828125 13.05245304107666 73.38497161865234 16.73300361633301 C 77.06553649902344 20.41357040405273 79.95462036132812 24.69815254211426 81.97198486328125 29.46775245666504 C 84.05950164794922 34.40320205688477 85.11797332763672 39.64885330200195 85.11797332763672 45.05898666381836 C 85.11797332763672 50.46912002563477 84.05950164794922 55.71477127075195 81.97198486328125 60.65021896362305 C 79.95462036132812 65.41982269287109 77.06553649902344 69.70440673828125 73.38497161865234 73.38497161865234 C 69.70440673828125 77.06553649902344 65.41982269287109 79.95462036132812 60.65021896362305 81.97198486328125 C 55.71477127075195 84.05950164794922 50.46912002563477 85.11797332763672 45.05898666381836 85.11797332763672 Z" stroke="none"/>
        <path d="M 45.05898666381836 10.00000762939453 C 25.72740173339844 10.00000762939453 10.00000762939453 25.72740173339844 10.00000762939453 45.05898666381836 C 10.00000762939453 64.39057159423828 25.72740173339844 80.11796569824219 45.05898666381836 80.11796569824219 C 64.39057159423828 80.11796569824219 80.11796569824219 64.39057159423828 80.11796569824219 45.05898666381836 C 80.11796569824219 25.72740173339844 64.39057159423828 10.00000762939453 45.05898666381836 10.00000762939453 M 45.05898666381836 7.62939453125e-06 C 69.94438171386719 7.62939453125e-06 90.11796569824219 20.17359161376953 90.11796569824219 45.05898666381836 C 90.11796569824219 69.94438171386719 69.94438171386719 90.11796569824219 45.05898666381836 90.11796569824219 C 20.17359161376953 90.11796569824219 7.62939453125e-06 69.94438171386719 7.62939453125e-06 45.05898666381836 C 7.62939453125e-06 20.17359161376953 20.17359161376953 7.62939453125e-06 45.05898666381836 7.62939453125e-06 Z" stroke="none" fill="#fff"/>
      </g>
    </g>
    <g id="Capa_1" data-name="Capa 1" transform="translate(-122.974 1938)">
      <g id="Grupo_130511" data-name="Grupo 130511" transform="translate(1412.974 192)">
        <path id="Trazado_137477" data-name="Trazado 137477" d="M1430.73,192h.635c.415.34.839.67,1.243,1.022a21.674,21.674,0,0,0,9.531,4.623,27.454,27.454,0,0,0,5.411.74,1.208,1.208,0,0,1,1.277,1.155,42.223,42.223,0,0,1-.322,12.192,30.565,30.565,0,0,1-4.679,11.876,21.564,21.564,0,0,1-9.439,8.049c-1.026.438-2.118.719-3.18,1.072h-.318l-.983-.283a20.281,20.281,0,0,1-10.283-7.027c-4.108-5.089-5.979-11.035-6.517-17.468a43.234,43.234,0,0,1,.151-8.292,1.24,1.24,0,0,1,1.328-1.277,27.7,27.7,0,0,0,6.331-.976,21.09,21.09,0,0,0,8.541-4.356C1429.873,192.689,1430.306,192.349,1430.73,192Zm-.873,17.339a4.05,4.05,0,0,0-.408-.095,16.6,16.6,0,0,0-2.547-.282,4.4,4.4,0,0,0-4.211,2.953,8.256,8.256,0,0,0-.386,4.266,8.847,8.847,0,0,0,17.536-2.347,6.667,6.667,0,0,0-.87-2.821,4.466,4.466,0,0,0-2.243-1.786c.089-.107.15-.19.22-.265a5.494,5.494,0,0,0,1.5-2.966,19.992,19.992,0,0,0,.151-2.532,1.152,1.152,0,0,0-1.252-1.234c-.5-.009-1.006-.012-1.508.015a6.155,6.155,0,0,0-4.737,2.528c-.117.152-.228.31-.338.46a.469.469,0,0,1-.1-.05c-.413-.411-.822-.825-1.236-1.235a1.2,1.2,0,1,0-1.675,1.694c.624.631,1.257,1.253,1.876,1.889a.7.7,0,0,1,.212.394C1429.873,208.385,1429.857,208.849,1429.857,209.339Z" transform="translate(-1412.974 -192)" fill="#fff"/>
        <path id="Trazado_137478" data-name="Trazado 137478" d="M1535.374,377.716a6.548,6.548,0,0,1-5.763,6.5,6.457,6.457,0,0,1-7.1-5.335,6.546,6.546,0,0,1,.165-3.066,2.125,2.125,0,0,1,2.178-1.625,7.133,7.133,0,0,1,3.219.719,1.749,1.749,0,0,0,1.586.006,7.163,7.163,0,0,1,3.138-.727,2.179,2.179,0,0,1,2.332,1.842C1535.26,376.582,1535.3,377.154,1535.374,377.716Z" transform="translate(-1510.798 -354.864)" fill="#fff"/>
        <path id="Trazado_137479" data-name="Trazado 137479" d="M1598.824,311.134a3.826,3.826,0,0,1-3.893,3.949A3.815,3.815,0,0,1,1598.824,311.134Z" transform="translate(-1575.616 -298.494)" fill="#fff"/>
      </g>
    </g>
  </g>
</svg>
