<svg xmlns="http://www.w3.org/2000/svg" width="228" height="278" viewBox="0 0 228 278">
  <g id="Grupo_131963" data-name="Grupo 131963" transform="translate(-688 -1711)">
    <rect id="Rectángulo_35533" data-name="Rectángulo 35533" width="228" height="278" rx="10" transform="translate(688 1711)" fill="#8c6df2"/>
    <g id="Grupo_89573" data-name="Grupo 89573" transform="translate(756.524 1805.226)">
      <g id="Trazado_137460" data-name="Trazado 137460" transform="translate(0 0)" fill="#8c6df2">
        <path d="M 45.05898666381836 85.11797332763672 C 39.64885330200195 85.11797332763672 34.40320205688477 84.05950164794922 29.46775245666504 81.97198486328125 C 24.69815254211426 79.95462036132812 20.41357040405273 77.06553649902344 16.73300361633301 73.38497161865234 C 13.05245304107666 69.70440673828125 10.16335296630859 65.41982269287109 8.145986557006836 60.65021896362305 C 6.058469772338867 55.71477127075195 5.000003337860107 50.46912002563477 5.000003337860107 45.05898666381836 C 5.000003337860107 39.64885330200195 6.058469772338867 34.40320205688477 8.145986557006836 29.46775245666504 C 10.16335296630859 24.69815254211426 13.05245304107666 20.41357040405273 16.73300361633301 16.73300361633301 C 20.41357040405273 13.05245304107666 24.69815254211426 10.16335296630859 29.46775245666504 8.145986557006836 C 34.40320205688477 6.058469772338867 39.64885330200195 5.000003337860107 45.05898666381836 5.000003337860107 C 50.46912002563477 5.000003337860107 55.71477127075195 6.058469772338867 60.65021896362305 8.145986557006836 C 65.41982269287109 10.16335296630859 69.70440673828125 13.05245304107666 73.38497161865234 16.73300361633301 C 77.06553649902344 20.41357040405273 79.95462036132812 24.69815254211426 81.97198486328125 29.46775245666504 C 84.05950164794922 34.40320205688477 85.11797332763672 39.64885330200195 85.11797332763672 45.05898666381836 C 85.11797332763672 50.46912002563477 84.05950164794922 55.71477127075195 81.97198486328125 60.65021896362305 C 79.95462036132812 65.41982269287109 77.06553649902344 69.70440673828125 73.38497161865234 73.38497161865234 C 69.70440673828125 77.06553649902344 65.41982269287109 79.95462036132812 60.65021896362305 81.97198486328125 C 55.71477127075195 84.05950164794922 50.46912002563477 85.11797332763672 45.05898666381836 85.11797332763672 Z" stroke="none"/>
        <path d="M 45.05898666381836 10.00000762939453 C 25.72740173339844 10.00000762939453 10.00000762939453 25.72740173339844 10.00000762939453 45.05898666381836 C 10.00000762939453 64.39057159423828 25.72740173339844 80.11796569824219 45.05898666381836 80.11796569824219 C 64.39057159423828 80.11796569824219 80.11796569824219 64.39057159423828 80.11796569824219 45.05898666381836 C 80.11796569824219 25.72740173339844 64.39057159423828 10.00000762939453 45.05898666381836 10.00000762939453 M 45.05898666381836 7.62939453125e-06 C 69.94438171386719 7.62939453125e-06 90.11796569824219 20.17359161376953 90.11796569824219 45.05898666381836 C 90.11796569824219 69.94438171386719 69.94438171386719 90.11796569824219 45.05898666381836 90.11796569824219 C 20.17359161376953 90.11796569824219 7.62939453125e-06 69.94438171386719 7.62939453125e-06 45.05898666381836 C 7.62939453125e-06 20.17359161376953 20.17359161376953 7.62939453125e-06 45.05898666381836 7.62939453125e-06 Z" stroke="none" fill="#fff"/>
      </g>
    </g>
    <g id="Grupo_130507" data-name="Grupo 130507" transform="translate(-717.23 1679.013)">
      <path id="Trazado_137465" data-name="Trazado 137465" d="M1525.12,190.173V192.6c0,.609-.006,1.217,0,1.826a1.723,1.723,0,0,0,1.784,1.8c1.313.015,2.627,0,3.941,0,.083,0,.166.008.308.015v.458q0,14.987,0,29.974c0,.834-.225,1.062-1.049,1.062h-26.822c-.83,0-1.052-.222-1.053-1.055q0-17.747,0-35.493c0-.788.226-1.02,1-1.02q10.72,0,21.441,0Zm-8.422,11.012h-8.212a2.6,2.6,0,0,0-.422.014.574.574,0,0,0-.535.607.565.565,0,0,0,.515.58,2.278,2.278,0,0,0,.379.022q8.276,0,16.552,0c.154,0,.349.024.452-.056.171-.134.394-.347.391-.522a.958.958,0,0,0-.373-.579c-.105-.09-.323-.062-.49-.063Q1520.826,201.183,1516.7,201.185Zm-.012,11.336q4.191,0,8.382,0c.5,0,.764-.211.778-.588.015-.393-.264-.622-.775-.635-.057,0-.113,0-.169,0h-16.425a2.8,2.8,0,0,0-.422.019.565.565,0,0,0-.526.57.574.574,0,0,0,.522.617,2.338,2.338,0,0,0,.422.016Zm-.008-5.067h8.255a2.7,2.7,0,0,0,.38-.008.6.6,0,0,0,.02-1.184,1.735,1.735,0,0,0-.3-.01h-16.679c-.071,0-.141,0-.212,0a.6.6,0,0,0-.62.61.582.582,0,0,0,.6.587c.127.007.254,0,.381,0Zm-.023,8.907h-8.17c-.664,0-.972.2-.963.616s.3.591.944.591h16.467a3.136,3.136,0,0,0,.38-.011.549.549,0,0,0,.528-.561.561.561,0,0,0-.509-.623,2.376,2.376,0,0,0-.422-.012Zm0,6.276h8.254c.643,0,.929-.183.94-.6.011-.431-.274-.616-.953-.616H1508.47c-.113,0-.226,0-.339,0a.568.568,0,0,0-.6.583.584.584,0,0,0,.572.618,2.749,2.749,0,0,0,.38.009Zm-2.358-26.494h-3.977c-.719,0-1.439-.006-2.158,0a.6.6,0,0,0-.636.593.619.619,0,0,0,.635.6c.084.006.169,0,.254,0h11.721a2.257,2.257,0,0,0,.38-.013.583.583,0,0,0,.486-.717c-.088-.4-.379-.476-.738-.475C1518.272,196.146,1516.283,196.143,1514.294,196.143Z" transform="translate(0 -35.635)" fill="#fff"/>
      <path id="Trazado_137466" data-name="Trazado 137466" d="M1549.558,153.179c0-.868-.013-1.673.006-2.478a.727.727,0,0,1,.711-.707c.112-.01.226,0,.339,0h21.826v.476c0,1.231,0,2.462,0,3.693a1.734,1.734,0,0,0,1.873,1.878c1.214.007,2.429,0,3.644,0h.5c.009.188.022.338.022.488q0,14.986,0,29.971c0,.842-.215,1.059-1.046,1.061-.97,0-1.941,0-2.956,0v-.589q0-13.542.009-27.084a2.7,2.7,0,0,0-.854-2.077q-1.947-1.891-3.836-3.841a2.525,2.525,0,0,0-1.928-.795q-8.855.017-17.71.006Z" transform="translate(-41.965 0)" fill="#fff"/>
      <path id="Trazado_137467" data-name="Trazado 137467" d="M1720.777,197.022c-1.233,0-2.585,0-3.937,0a.411.411,0,0,1-.468-.467c0-1.355,0-2.711,0-3.958Z" transform="translate(-189.896 -37.784)" fill="#fff"/>
      <path id="Trazado_137468" data-name="Trazado 137468" d="M1763.666,150.923l4.531,4.553a2.393,2.393,0,0,1-.288.032q-1.818,0-3.636,0c-.534,0-.605-.077-.606-.621C1763.665,153.58,1763.666,152.272,1763.666,150.923Z" transform="translate(-231.835 -0.829)" fill="#fff"/>
    </g>
  </g>
</svg>
