<svg xmlns="http://www.w3.org/2000/svg" width="230" height="277" viewBox="0 0 230 277">
  <g id="Grupo_131969" data-name="Grupo 131969" transform="translate(-940 -2011)">
    <rect id="Rectángulo_35543" data-name="Rectángulo 35543" width="230" height="277" rx="10" transform="translate(940 2011)" fill="#8c6df2"/>
    <g id="Grupo_89579" data-name="Grupo 89579" transform="translate(1009.856 2104.654)">
      <g id="Trazado_137461" data-name="Trazado 137461" transform="translate(0 0)" fill="#8c6df2">
        <path d="M 45.05898666381836 85.11797332763672 C 39.64885330200195 85.11797332763672 34.40320205688477 84.05950164794922 29.46775245666504 81.97198486328125 C 24.69815254211426 79.95462036132812 20.41357040405273 77.06553649902344 16.73300361633301 73.38497161865234 C 13.05245304107666 69.70440673828125 10.16335296630859 65.41982269287109 8.145986557006836 60.65021896362305 C 6.058469772338867 55.71477127075195 5.000003337860107 50.46912002563477 5.000003337860107 45.05898666381836 C 5.000003337860107 39.64885330200195 6.058469772338867 34.40320205688477 8.145986557006836 29.46775245666504 C 10.16335296630859 24.69815254211426 13.05245304107666 20.41357040405273 16.73300361633301 16.73300361633301 C 20.41357040405273 13.05245304107666 24.69815254211426 10.16335296630859 29.46775245666504 8.145986557006836 C 34.40320205688477 6.058469772338867 39.64885330200195 5.000003337860107 45.05898666381836 5.000003337860107 C 50.46912002563477 5.000003337860107 55.71477127075195 6.058469772338867 60.65021896362305 8.145986557006836 C 65.41982269287109 10.16335296630859 69.70440673828125 13.05245304107666 73.38497161865234 16.73300361633301 C 77.06553649902344 20.41357040405273 79.95462036132812 24.69815254211426 81.97198486328125 29.46775245666504 C 84.05950164794922 34.40320205688477 85.11797332763672 39.64885330200195 85.11797332763672 45.05898666381836 C 85.11797332763672 50.46912002563477 84.05950164794922 55.71477127075195 81.97198486328125 60.65021896362305 C 79.95462036132812 65.41982269287109 77.06553649902344 69.70440673828125 73.38497161865234 73.38497161865234 C 69.70440673828125 77.06553649902344 65.41982269287109 79.95462036132812 60.65021896362305 81.97198486328125 C 55.71477127075195 84.05950164794922 50.46912002563477 85.11797332763672 45.05898666381836 85.11797332763672 Z" stroke="none"/>
        <path d="M 45.05898666381836 10.00000762939453 C 25.72740173339844 10.00000762939453 10.00000762939453 25.72740173339844 10.00000762939453 45.05898666381836 C 10.00000762939453 64.39057159423828 25.72740173339844 80.11796569824219 45.05898666381836 80.11796569824219 C 64.39057159423828 80.11796569824219 80.11796569824219 64.39057159423828 80.11796569824219 45.05898666381836 C 80.11796569824219 25.72740173339844 64.39057159423828 10.00000762939453 45.05898666381836 10.00000762939453 M 45.05898666381836 7.62939453125e-06 C 69.94438171386719 7.62939453125e-06 90.11796569824219 20.17359161376953 90.11796569824219 45.05898666381836 C 90.11796569824219 69.94438171386719 69.94438171386719 90.11796569824219 45.05898666381836 90.11796569824219 C 20.17359161376953 90.11796569824219 7.62939453125e-06 69.94438171386719 7.62939453125e-06 45.05898666381836 C 7.62939453125e-06 20.17359161376953 20.17359161376953 7.62939453125e-06 45.05898666381836 7.62939453125e-06 Z" stroke="none" fill="#fff"/>
      </g>
    </g>
    <g id="Grupo_130512" data-name="Grupo 130512" transform="translate(-465.675 1899.842)">
      <path id="Trazado_137480" data-name="Trazado 137480" d="M1543.765,308.129v9.2a1.763,1.763,0,0,1-1.922,1.126c-1.769-.043-3.54,0-5.31-.021a.521.521,0,0,0-.595.437,5.755,5.755,0,0,1-5.494,4.024,5.845,5.845,0,0,1-5.54-4.046.489.489,0,0,0-.559-.413q-4.77.018-9.54,0c-.408,0-.551.138-.677.511a5.565,5.565,0,0,1-2.9,3.342,5.812,5.812,0,0,1-8.121-3.467.459.459,0,0,0-.534-.383c-1.095.018-2.19,0-3.285.008a1.552,1.552,0,0,1-1.189-.433,1.739,1.739,0,0,1-.423-1.331q.131-10.123.251-20.246c.016-1.295.513-1.784,1.815-1.785q4.028,0,8.055,0c3.945,0,7.89-.006,11.835.01.383,0,.507-.116.57-.484.174-1.02.4-2.032.6-3.048a1.5,1.5,0,0,1,1.668-1.4c1.065-.006,2.13,0,3.2,0a1.6,1.6,0,0,1,1.8,1.342c.328,1.061.667,2.118.969,3.186a.473.473,0,0,0,.563.4c.81-.021,1.621.023,2.43-.015a1.957,1.957,0,0,1,1.816.927c1.906,2.661,3.844,5.3,5.774,7.943a3.28,3.28,0,0,0,.445.5c1.115,1.005,2.248,1.991,3.351,3.009A12.272,12.272,0,0,1,1543.765,308.129Zm-18.034-4.843h9.4a1.311,1.311,0,0,0-.08-.162c-1.291-1.77-2.578-3.544-3.886-5.3a.746.746,0,0,0-.531-.217c-1.5-.017-3-.01-4.5-.008-.129,0-.259.019-.406.031Zm-14.377.239c-.572,0-1.093-.011-1.613,0a1.4,1.4,0,0,0-1.357.988,1.471,1.471,0,0,0,1.458,1.961c.488.02.978,0,1.513,0,0,.581-.015,1.1,0,1.625a1.4,1.4,0,0,0,1.312,1.4,1.444,1.444,0,0,0,1.627-1.5c.021-.49,0-.982,0-1.527.558,0,1.065.025,1.568-.006a1.462,1.462,0,0,0,1.463-1.549,1.439,1.439,0,0,0-1.555-1.4c-.475-.006-.951,0-1.491,0,0-.6.038-1.155-.009-1.7a1.42,1.42,0,0,0-1.549-1.353,1.445,1.445,0,0,0-1.375,1.492C1511.345,302.454,1511.354,302.949,1511.354,303.525Zm.131,13.594a2.847,2.847,0,1,0-5.693-.1,2.847,2.847,0,1,0,5.693.1Zm18.846-2.9a2.854,2.854,0,1,0,2.9,2.778A2.838,2.838,0,0,0,1530.331,314.221Z" transform="translate(0 -55.04)" fill="#fff"/>
      <path id="Trazado_137481" data-name="Trazado 137481" d="M1643.147,250.016l-1.965,1.971-4.359-4.382,1.961-1.963Z" transform="translate(-122.418 -16.262)" fill="#fff"/>
      <path id="Trazado_137482" data-name="Trazado 137482" d="M1753.72,247.773l-4.35,4.369-1.948-1.972,4.336-4.347Z" transform="translate(-219.719 -16.42)" fill="#fff"/>
      <path id="Trazado_137483" data-name="Trazado 137483" d="M1708.7,233.275h-2.859v-6.117h2.859Z" transform="translate(-183.134 0)" fill="#fff"/>
    </g>
  </g>
</svg>
