<svg xmlns="http://www.w3.org/2000/svg" width="229" height="278" viewBox="0 0 229 278">
  <g id="Grupo_131961" data-name="Grupo 131961" transform="translate(-181 -1711)">
    <rect id="Rectángulo_35531" data-name="Rectángulo 35531" width="229" height="278" rx="10" transform="translate(181 1711)" fill="#8c6df2"/>
    <g id="Grupo_89571" data-name="Grupo 89571" transform="translate(250.862 1805.226)">
      <g id="Trazado_137458" data-name="Trazado 137458" transform="translate(0 0)" fill="#8c6df2">
        <path d="M 45.05898666381836 85.11797332763672 C 39.64885330200195 85.11797332763672 34.40320205688477 84.05950164794922 29.46775245666504 81.97198486328125 C 24.69815254211426 79.95462036132812 20.41357040405273 77.06553649902344 16.73300361633301 73.38497161865234 C 13.05245304107666 69.70440673828125 10.16335296630859 65.41982269287109 8.145986557006836 60.65021896362305 C 6.058469772338867 55.71477127075195 5.000003337860107 50.46912002563477 5.000003337860107 45.05898666381836 C 5.000003337860107 39.64885330200195 6.058469772338867 34.40320205688477 8.145986557006836 29.46775245666504 C 10.16335296630859 24.69815254211426 13.05245304107666 20.41357040405273 16.73300361633301 16.73300361633301 C 20.41357040405273 13.05245304107666 24.69815254211426 10.16335296630859 29.46775245666504 8.145986557006836 C 34.40320205688477 6.058469772338867 39.64885330200195 5.000003337860107 45.05898666381836 5.000003337860107 C 50.46912002563477 5.000003337860107 55.71477127075195 6.058469772338867 60.65021896362305 8.145986557006836 C 65.41982269287109 10.16335296630859 69.70440673828125 13.05245304107666 73.38497161865234 16.73300361633301 C 77.06553649902344 20.41357040405273 79.95462036132812 24.69815254211426 81.97198486328125 29.46775245666504 C 84.05950164794922 34.40320205688477 85.11797332763672 39.64885330200195 85.11797332763672 45.05898666381836 C 85.11797332763672 50.46912002563477 84.05950164794922 55.71477127075195 81.97198486328125 60.65021896362305 C 79.95462036132812 65.41982269287109 77.06553649902344 69.70440673828125 73.38497161865234 73.38497161865234 C 69.70440673828125 77.06553649902344 65.41982269287109 79.95462036132812 60.65021896362305 81.97198486328125 C 55.71477127075195 84.05950164794922 50.46912002563477 85.11797332763672 45.05898666381836 85.11797332763672 Z" stroke="none"/>
        <path d="M 45.05898666381836 10.00000762939453 C 25.72740173339844 10.00000762939453 10.00000762939453 25.72740173339844 10.00000762939453 45.05898666381836 C 10.00000762939453 64.39057159423828 25.72740173339844 80.11796569824219 45.05898666381836 80.11796569824219 C 64.39057159423828 80.11796569824219 80.11796569824219 64.39057159423828 80.11796569824219 45.05898666381836 C 80.11796569824219 25.72740173339844 64.39057159423828 10.00000762939453 45.05898666381836 10.00000762939453 M 45.05898666381836 7.62939453125e-06 C 69.94438171386719 7.62939453125e-06 90.11796569824219 20.17359161376953 90.11796569824219 45.05898666381836 C 90.11796569824219 69.94438171386719 69.94438171386719 90.11796569824219 45.05898666381836 90.11796569824219 C 20.17359161376953 90.11796569824219 7.62939453125e-06 69.94438171386719 7.62939453125e-06 45.05898666381836 C 7.62939453125e-06 20.17359161376953 20.17359161376953 7.62939453125e-06 45.05898666381836 7.62939453125e-06 Z" stroke="none" fill="#fff"/>
      </g>
    </g>
    <g id="Grupo_130509" data-name="Grupo 130509" transform="translate(-1165.186 1614.121)">
      <path id="Trazado_137471" data-name="Trazado 137471" d="M1473.762,257h-25.617c-.02-.018-.036-.046-.059-.052a3.53,3.53,0,0,1-2.9-3.819q0-11.9,0-23.81c0-3.619-.009-7.238,0-10.856a3.428,3.428,0,0,1,2.111-3.288,8.123,8.123,0,0,1,.84-.3h19.213c.186.156.385.3.557.47q4.167,4.167,8.332,8.336a1.517,1.517,0,0,1,.479,1.163q-.016,11.407-.007,22.815c0,1.946.009,3.892,0,5.837a3.5,3.5,0,0,1-2.339,3.3C1474.172,256.87,1473.966,256.933,1473.762,257Zm-19.726-7.555c.452-.812.917-1.571,1.305-2.367a3.111,3.111,0,0,0,.28-2.158,2.5,2.5,0,0,0-1.8-1.845,2.034,2.034,0,0,0-2.224.65,3.736,3.736,0,0,0-.621,4.611c.2.369.419.727.626,1.085a1.126,1.126,0,0,1-.094.113c-.236.209-.475.413-.708.624a.873.873,0,1,0,1.115,1.341c.3-.235.584-.494.861-.73a14.3,14.3,0,0,0,1.224.75,1.622,1.622,0,0,0,2.083-.391,4.291,4.291,0,0,0,.524-.682c.245-.393.462-.8.7-1.226.2.521.369,1.041.6,1.527a1.361,1.361,0,0,0,2.209.665,22.214,22.214,0,0,0,4.117-3.5.832.832,0,0,0-.018-1.157.855.855,0,0,0-1.155-.1,3.208,3.208,0,0,0-.276.245c-.872.791-1.741,1.585-2.618,2.37-.229.205-.484.382-.762.6-.1-.3-.183-.543-.269-.787a19.083,19.083,0,0,0-.7-1.924,1.056,1.056,0,0,0-1.914-.165,4.73,4.73,0,0,0-.428.7c-.275.52-.528,1.052-.806,1.57C1454.821,250.136,1454.716,250.145,1454.036,249.444Zm6.938-20.518q-4.7,0-9.393,0a1.779,1.779,0,0,0-.639.093.836.836,0,0,0-.479.948.916.916,0,0,0,1.016.7q9.475,0,18.95,0c.624,0,1.025-.343,1.032-.866s-.389-.871-1.012-.881c-.109,0-.219,0-.328,0Zm-.006,5.265h-9.27c-.15,0-.3,0-.451.009a.86.86,0,0,0-.8.836.88.88,0,0,0,.75.89,2.767,2.767,0,0,0,.409.012h18.7a2.97,2.97,0,0,0,.369-.009.88.88,0,0,0,.78-.9.86.86,0,0,0-.811-.827c-.15-.012-.3-.008-.451-.008Zm3.474,5.265q-3,0-5.991,0a.886.886,0,0,0-1,.812c-.041.553.379.933,1.046.933q5.951,0,11.9,0a1.685,1.685,0,0,0,.327-.015.853.853,0,0,0,.706-.663.753.753,0,0,0-.314-.868,1.467,1.467,0,0,0-.729-.193C1468.409,239.449,1466.425,239.456,1464.442,239.456Zm-7.859-15.8h-3.2c-.7,0-1.395-.01-2.091.009a.847.847,0,0,0-.845.833.88.88,0,0,0,.828.9c.122.011.246,0,.369,0h8.981c.41,0,.821.016,1.23-.007a.872.872,0,0,0,.8-1.166.887.887,0,0,0-.942-.574C1460,223.659,1458.291,223.661,1456.582,223.661Zm11.378-5.613c0,1.288-.034,2.617.011,3.943a1.72,1.72,0,0,0,1.792,1.667c.506.014,1.012,0,1.519,0h2.283Z" transform="translate(0)" fill="#fff"/>
      <path id="Trazado_137472" data-name="Trazado 137472" d="M1509.889,490.652c-.851-1.152-.876-2.191-.121-3.033.133-.148.42-.307.567-.257a.994.994,0,0,1,.556.516,1.161,1.161,0,0,1-.033.793C1510.583,489.319,1510.244,489.94,1509.889,490.652Z" transform="translate(-57.015 -242.587)" fill="#fff"/>
    </g>
  </g>
</svg>
