<svg xmlns="http://www.w3.org/2000/svg" width="229" height="278" viewBox="0 0 229 278">
  <g id="Grupo_131965" data-name="Grupo 131965" transform="translate(-1192 -1711)">
    <rect id="Rectángulo_35535" data-name="Rectángulo 35535" width="229" height="278" rx="10" transform="translate(1192 1711)" fill="#8c6df2"/>
    <g id="Grupo_89575" data-name="Grupo 89575" transform="translate(1263.188 1805.226)">
      <g id="Trazado_137462" data-name="Trazado 137462" transform="translate(0 0)" fill="#8c6df2">
        <path d="M 45.05898666381836 85.11797332763672 C 39.64885330200195 85.11797332763672 34.40320205688477 84.05950164794922 29.46775245666504 81.97198486328125 C 24.69815254211426 79.95462036132812 20.41357040405273 77.06553649902344 16.73300361633301 73.38497161865234 C 13.05245304107666 69.70440673828125 10.16335296630859 65.41982269287109 8.145986557006836 60.65021896362305 C 6.058469772338867 55.71477127075195 5.000003337860107 50.46912002563477 5.000003337860107 45.05898666381836 C 5.000003337860107 39.64885330200195 6.058469772338867 34.40320205688477 8.145986557006836 29.46775245666504 C 10.16335296630859 24.69815254211426 13.05245304107666 20.41357040405273 16.73300361633301 16.73300361633301 C 20.41357040405273 13.05245304107666 24.69815254211426 10.16335296630859 29.46775245666504 8.145986557006836 C 34.40320205688477 6.058469772338867 39.64885330200195 5.000003337860107 45.05898666381836 5.000003337860107 C 50.46912002563477 5.000003337860107 55.71477127075195 6.058469772338867 60.65021896362305 8.145986557006836 C 65.41982269287109 10.16335296630859 69.70440673828125 13.05245304107666 73.38497161865234 16.73300361633301 C 77.06553649902344 20.41357040405273 79.95462036132812 24.69815254211426 81.97198486328125 29.46775245666504 C 84.05950164794922 34.40320205688477 85.11797332763672 39.64885330200195 85.11797332763672 45.05898666381836 C 85.11797332763672 50.46912002563477 84.05950164794922 55.71477127075195 81.97198486328125 60.65021896362305 C 79.95462036132812 65.41982269287109 77.06553649902344 69.70440673828125 73.38497161865234 73.38497161865234 C 69.70440673828125 77.06553649902344 65.41982269287109 79.95462036132812 60.65021896362305 81.97198486328125 C 55.71477127075195 84.05950164794922 50.46912002563477 85.11797332763672 45.05898666381836 85.11797332763672 Z" stroke="none"/>
        <path d="M 45.05898666381836 10.00000762939453 C 25.72740173339844 10.00000762939453 10.00000762939453 25.72740173339844 10.00000762939453 45.05898666381836 C 10.00000762939453 64.39057159423828 25.72740173339844 80.11796569824219 45.05898666381836 80.11796569824219 C 64.39057159423828 80.11796569824219 80.11796569824219 64.39057159423828 80.11796569824219 45.05898666381836 C 80.11796569824219 25.72740173339844 64.39057159423828 10.00000762939453 45.05898666381836 10.00000762939453 M 45.05898666381836 7.62939453125e-06 C 69.94438171386719 7.62939453125e-06 90.11796569824219 20.17359161376953 90.11796569824219 45.05898666381836 C 90.11796569824219 69.94438171386719 69.94438171386719 90.11796569824219 45.05898666381836 90.11796569824219 C 20.17359161376953 90.11796569824219 7.62939453125e-06 69.94438171386719 7.62939453125e-06 45.05898666381836 C 7.62939453125e-06 20.17359161376953 20.17359161376953 7.62939453125e-06 45.05898666381836 7.62939453125e-06 Z" stroke="none" fill="#fff"/>
      </g>
    </g>
    <g id="Grupo_130510" data-name="Grupo 130510" transform="translate(-168.627 1609.431)">
      <path id="Trazado_137473" data-name="Trazado 137473" d="M1701.064,261.122a2.057,2.057,0,0,1-2.222,1.415c-4.868-.032-9.737-.014-14.605-.014-1.445,0-2.106-.654-2.106-2.085q0-7.295,0-14.59v-.523h4.411c.017.079.038.15.046.222a1.883,1.883,0,0,0,3.035,1.37c1.047-.767,2.055-1.588,3.08-2.386.573-.446,1.15-.889,1.718-1.343a1.917,1.917,0,0,0,0-3.222c-1.509-1.183-3.061-2.315-4.523-3.553a1.963,1.963,0,0,0-3.339,1.419h-4.4c-.009-.145-.026-.28-.026-.414,0-1.549-.01-3.1.009-4.646a1.3,1.3,0,0,1,.222-.671c.391-.575.831-1.117,1.234-1.684a2.722,2.722,0,0,0-1.177-4.233.4.4,0,0,1-.294-.439c.01-1.471-.006-2.943.01-4.414a1.729,1.729,0,0,1,1.777-1.754q7.674-.01,15.347,0a1.864,1.864,0,0,1,1.8,1.4Z" transform="translate(-201.945 0)" fill="#fff"/>
      <path id="Trazado_137474" data-name="Trazado 137474" d="M1465.532,297.736c-.09,1.289-.176,2.507-.26,3.726-.064.927-.116,1.855-.192,2.781a2.1,2.1,0,0,1-1.811,1.9c-1.443.26-2.89.5-4.335.754-1.552.267-3.106.524-4.656.8a2.137,2.137,0,0,1-2.612-1.682,2.109,2.109,0,0,1,1.821-2.466c2.295-.407,4.593-.8,6.889-1.2.2-.034.39-.077.661-.131a115.908,115.908,0,0,1,1.763-15.7c-.787.462-1.482.86-2.163,1.281a.441.441,0,0,0-.134.346c.112,1.793.238,3.584.359,5.377.031.463.077.927.08,1.391a1.733,1.733,0,0,1-1.617,1.767,1.7,1.7,0,0,1-1.86-1.552c-.173-2.1-.3-4.2-.451-6.3-.041-.587-.075-1.174-.111-1.762a1.728,1.728,0,0,1,.906-1.7q2.815-1.658,5.638-3.3a4.565,4.565,0,0,1,3.086-.527c1.511.229,3.028.422,4.541.646a2.13,2.13,0,0,1,1.828,1.606l-1.144-.119-.023.082c.91.313,1.817.636,2.736.923.091.028.283-.139.373-.258q1.573-2.1,3.127-4.211a1.873,1.873,0,0,1,1.146-.806,1.758,1.758,0,0,1,1.774,2.775c-.985,1.35-1.987,2.687-2.982,4.029-.387.522-.77,1.047-1.162,1.565a1.761,1.761,0,0,1-2.2.672c-1.17-.394-2.336-.8-3.5-1.2a.9.9,0,0,0-.467-.057c.522.311,1.032.643,1.57.923a.576.576,0,0,1,.357.692c-.3,2.083-.573,4.17-.88,6.252a1.951,1.951,0,0,0,.173,1.2c.662,1.362,1.235,2.772,1.958,4.1a10.356,10.356,0,0,1,1.076,4.132c.234,2.527.53,5.049.785,7.575a4.113,4.113,0,0,1-.009,1.244,2.063,2.063,0,0,1-2.2,1.6,2.1,2.1,0,0,1-1.923-1.881c-.339-3.14-.67-6.28-1.01-9.419a1.859,1.859,0,0,0-.151-.575c-.7-1.514-1.422-3.021-2.123-4.537a.625.625,0,0,0-.543-.416C1466.964,297.984,1466.282,297.858,1465.532,297.736Z" transform="translate(0 -52.384)" fill="#fff"/>
      <path id="Trazado_137475" data-name="Trazado 137475" d="M1674.237,367.722h-.706q-2.827,0-5.654,0c-.834,0-1.113-.282-1.116-1.119,0-1.006-.006-2.013,0-3.019,0-.757.29-1.041,1.038-1.042q2.943,0,5.886,0h.551c0-.412.008-.78,0-1.146s.105-.694.45-.778a1.134,1.134,0,0,1,.846.115c1.617,1.217,3.209,2.469,4.8,3.722a.781.781,0,0,1,0,1.333c-1.588,1.256-3.18,2.508-4.8,3.726a1.146,1.146,0,0,1-.851.121c-.346-.082-.46-.418-.451-.777S1674.237,368.151,1674.237,367.722Z" transform="translate(-188.48 -123.547)" fill="#fff"/>
      <path id="Trazado_137476" data-name="Trazado 137476" d="M1572.991,231.126a3.879,3.879,0,1,1,3.878,3.912A3.9,3.9,0,0,1,1572.991,231.126Z" transform="translate(-106.329 -6.737)" fill="#fff"/>
    </g>
  </g>
</svg>
