<svg xmlns="http://www.w3.org/2000/svg" width="230" height="278" viewBox="0 0 230 278">
  <g id="Grupo_131962" data-name="Grupo 131962" transform="translate(-433 -1711)">
    <rect id="Rectángulo_35532" data-name="Rectángulo 35532" width="230" height="278" rx="10" transform="translate(433 1711)" fill="#8c6df2"/>
    <g id="Grupo_89572" data-name="Grupo 89572" transform="translate(503.693 1805.226)">
      <g id="Trazado_137459" data-name="Trazado 137459" transform="translate(0 0)" fill="#8c6df2">
        <path d="M 45.05898666381836 85.11797332763672 C 39.64885330200195 85.11797332763672 34.40320205688477 84.05950164794922 29.46775245666504 81.97198486328125 C 24.69815254211426 79.95462036132812 20.41357040405273 77.06553649902344 16.73300361633301 73.38497161865234 C 13.05245304107666 69.70440673828125 10.16335296630859 65.41982269287109 8.145986557006836 60.65021896362305 C 6.058469772338867 55.71477127075195 5.000003337860107 50.46912002563477 5.000003337860107 45.05898666381836 C 5.000003337860107 39.64885330200195 6.058469772338867 34.40320205688477 8.145986557006836 29.46775245666504 C 10.16335296630859 24.69815254211426 13.05245304107666 20.41357040405273 16.73300361633301 16.73300361633301 C 20.41357040405273 13.05245304107666 24.69815254211426 10.16335296630859 29.46775245666504 8.145986557006836 C 34.40320205688477 6.058469772338867 39.64885330200195 5.000003337860107 45.05898666381836 5.000003337860107 C 50.46912002563477 5.000003337860107 55.71477127075195 6.058469772338867 60.65021896362305 8.145986557006836 C 65.41982269287109 10.16335296630859 69.70440673828125 13.05245304107666 73.38497161865234 16.73300361633301 C 77.06553649902344 20.41357040405273 79.95462036132812 24.69815254211426 81.97198486328125 29.46775245666504 C 84.05950164794922 34.40320205688477 85.11797332763672 39.64885330200195 85.11797332763672 45.05898666381836 C 85.11797332763672 50.46912002563477 84.05950164794922 55.71477127075195 81.97198486328125 60.65021896362305 C 79.95462036132812 65.41982269287109 77.06553649902344 69.70440673828125 73.38497161865234 73.38497161865234 C 69.70440673828125 77.06553649902344 65.41982269287109 79.95462036132812 60.65021896362305 81.97198486328125 C 55.71477127075195 84.05950164794922 50.46912002563477 85.11797332763672 45.05898666381836 85.11797332763672 Z" stroke="none"/>
        <path d="M 45.05898666381836 10.00000762939453 C 25.72740173339844 10.00000762939453 10.00000762939453 25.72740173339844 10.00000762939453 45.05898666381836 C 10.00000762939453 64.39057159423828 25.72740173339844 80.11796569824219 45.05898666381836 80.11796569824219 C 64.39057159423828 80.11796569824219 80.11796569824219 64.39057159423828 80.11796569824219 45.05898666381836 C 80.11796569824219 25.72740173339844 64.39057159423828 10.00000762939453 45.05898666381836 10.00000762939453 M 45.05898666381836 7.62939453125e-06 C 69.94438171386719 7.62939453125e-06 90.11796569824219 20.17359161376953 90.11796569824219 45.05898666381836 C 90.11796569824219 69.94438171386719 69.94438171386719 90.11796569824219 45.05898666381836 90.11796569824219 C 20.17359161376953 90.11796569824219 7.62939453125e-06 69.94438171386719 7.62939453125e-06 45.05898666381836 C 7.62939453125e-06 20.17359161376953 20.17359161376953 7.62939453125e-06 45.05898666381836 7.62939453125e-06 Z" stroke="none" fill="#fff"/>
      </g>
    </g>
    <g id="Grupo_130508" data-name="Grupo 130508" transform="translate(-905.569 1622.969)">
      <path id="Trazado_137469" data-name="Trazado 137469" d="M1453.741,320h20.7c1.122,0,1.413.3,1.413,1.436q0,3.143,0,6.285c0,1.01-.348,1.35-1.369,1.353-.613,0-1.227-.013-1.839.013a3,3,0,0,0-.293,5.967,22.113,22.113,0,0,0,2.305.069c.818.016,1.19.368,1.193,1.182q.011,3.355,0,6.711a1.052,1.052,0,0,1-1.159,1.182c-.11,0-.22,0-.33,0h-41.31c-1.185,0-1.483-.3-1.483-1.475q0-3.143,0-6.285c0-.98.328-1.3,1.3-1.316a19.444,19.444,0,0,0,2.165-.061,3.006,3.006,0,0,0-.311-5.977c-.644-.023-1.289,0-1.933-.011-.831-.01-1.214-.387-1.217-1.219q-.009-3.284,0-6.569c0-.942.341-1.285,1.278-1.285Q1443.3,320,1453.741,320Zm-3.066,18.149c1.963,0,3.926.005,5.889,0a1.041,1.041,0,0,0,1.172-1.017c0-.6-.462-1-1.179-1.012-.11,0-.22,0-.33,0h-9.093c-.785,0-1.571-.008-2.356,0a1.027,1.027,0,0,0-1.066.692c-.237.711.27,1.33,1.12,1.334C1446.78,338.154,1448.727,338.148,1450.675,338.148Zm.021-12.1h-1.885c-1.382,0-2.764-.006-4.146.007a.944.944,0,0,0-.969.738.922.922,0,0,0,.438,1.092,1.778,1.778,0,0,0,.764.164q5.8.015,11.59.006a2.561,2.561,0,0,0,.376-.013,1.014,1.014,0,0,0,.871-1.017.994.994,0,0,0-.916-.967c-.156-.015-.313-.011-.47-.011Zm0,7.042c1.963,0,3.926,0,5.889,0a1.007,1.007,0,0,0,1.1-.7c.218-.707-.276-1.3-1.1-1.3q-5.889-.006-11.779,0a1.678,1.678,0,0,0-.328.02,1,1,0,0,0-.647,1.544,1.106,1.106,0,0,0,1.028.446C1446.8,333.087,1448.75,333.091,1450.7,333.091Zm11.062-7.065h0c0,.33-.016.662,0,.991a1.014,1.014,0,0,0,1,1.037,1,1,0,0,0,1.009-1.029c.026-.66.027-1.322,0-1.982a1,1,0,1,0-2.009-.008C1461.74,325.363,1461.759,325.695,1461.759,326.025Zm2.017,6.081c0-.346.021-.694,0-1.038a1.014,1.014,0,0,0-1-.994,1,1,0,0,0-1,.986c-.032.675-.03,1.354,0,2.029a1,1,0,0,0,.976,1.014,1.006,1.006,0,0,0,1.032-1.006C1463.8,332.769,1463.777,332.437,1463.776,332.106Zm0,6.069h0c0-.362.024-.726-.006-1.085a1.007,1.007,0,0,0-.977-.966.994.994,0,0,0-1.02.967c-.035.691-.034,1.385,0,2.076a.99.99,0,0,0,1,.985,1,1,0,0,0,1-.987C1463.8,338.837,1463.776,338.505,1463.776,338.175Z" transform="translate(0 -97.862)" fill="#fff"/>
      <path id="Trazado_137470" data-name="Trazado 137470" d="M1500.517,220.087h-28.5c-.034-.24-.048-.473-.1-.7a2.969,2.969,0,0,0-1.76-2.137c-.589-.259-1.193-.483-1.785-.734a1,1,0,0,1-.61-1.447q1.285-3.167,2.592-6.326c.293-.708.807-.882,1.582-.563q6.745,2.781,13.488,5.566,7.418,3.063,14.835,6.128c.1.04.189.087.284.13Z" transform="translate(-31.533)" fill="#fff"/>
    </g>
  </g>
</svg>
