<svg xmlns="http://www.w3.org/2000/svg" width="229" height="277" viewBox="0 0 229 277">
  <g id="Grupo_131966" data-name="Grupo 131966" transform="translate(-181 -2011)">
    <rect id="Rectángulo_35545" data-name="Rectángulo 35545" width="229" height="277" rx="10" transform="translate(181 2011)" fill="#8c6df2"/>
    <g id="Grupo_89576" data-name="Grupo 89576" transform="translate(250.862 2104.654)">
      <g id="Trazado_137458" data-name="Trazado 137458" transform="translate(0 0)" fill="#8c6df2">
        <path d="M 45.05898666381836 85.11797332763672 C 39.64885330200195 85.11797332763672 34.40320205688477 84.05950164794922 29.46775245666504 81.97198486328125 C 24.69815254211426 79.95462036132812 20.41357040405273 77.06553649902344 16.73300361633301 73.38497161865234 C 13.05245304107666 69.70440673828125 10.16335296630859 65.41982269287109 8.145986557006836 60.65021896362305 C 6.058469772338867 55.71477127075195 5.000003337860107 50.46912002563477 5.000003337860107 45.05898666381836 C 5.000003337860107 39.64885330200195 6.058469772338867 34.40320205688477 8.145986557006836 29.46775245666504 C 10.16335296630859 24.69815254211426 13.05245304107666 20.41357040405273 16.73300361633301 16.73300361633301 C 20.41357040405273 13.05245304107666 24.69815254211426 10.16335296630859 29.46775245666504 8.145986557006836 C 34.40320205688477 6.058469772338867 39.64885330200195 5.000003337860107 45.05898666381836 5.000003337860107 C 50.46912002563477 5.000003337860107 55.71477127075195 6.058469772338867 60.65021896362305 8.145986557006836 C 65.41982269287109 10.16335296630859 69.70440673828125 13.05245304107666 73.38497161865234 16.73300361633301 C 77.06553649902344 20.41357040405273 79.95462036132812 24.69815254211426 81.97198486328125 29.46775245666504 C 84.05950164794922 34.40320205688477 85.11797332763672 39.64885330200195 85.11797332763672 45.05898666381836 C 85.11797332763672 50.46912002563477 84.05950164794922 55.71477127075195 81.97198486328125 60.65021896362305 C 79.95462036132812 65.41982269287109 77.06553649902344 69.70440673828125 73.38497161865234 73.38497161865234 C 69.70440673828125 77.06553649902344 65.41982269287109 79.95462036132812 60.65021896362305 81.97198486328125 C 55.71477127075195 84.05950164794922 50.46912002563477 85.11797332763672 45.05898666381836 85.11797332763672 Z" stroke="none"/>
        <path d="M 45.05898666381836 10.00000762939453 C 25.72740173339844 10.00000762939453 10.00000762939453 25.72740173339844 10.00000762939453 45.05898666381836 C 10.00000762939453 64.39057159423828 25.72740173339844 80.11796569824219 45.05898666381836 80.11796569824219 C 64.39057159423828 80.11796569824219 80.11796569824219 64.39057159423828 80.11796569824219 45.05898666381836 C 80.11796569824219 25.72740173339844 64.39057159423828 10.00000762939453 45.05898666381836 10.00000762939453 M 45.05898666381836 7.62939453125e-06 C 69.94438171386719 7.62939453125e-06 90.11796569824219 20.17359161376953 90.11796569824219 45.05898666381836 C 90.11796569824219 69.94438171386719 69.94438171386719 90.11796569824219 45.05898666381836 90.11796569824219 C 20.17359161376953 90.11796569824219 7.62939453125e-06 69.94438171386719 7.62939453125e-06 45.05898666381836 C 7.62939453125e-06 20.17359161376953 20.17359161376953 7.62939453125e-06 45.05898666381836 7.62939453125e-06 Z" stroke="none" fill="#fff"/>
      </g>
    </g>
    <g id="Grupo_130516" data-name="Grupo 130516" transform="translate(-11 293)">
      <g id="Grupo_130515" data-name="Grupo 130515" transform="translate(286 1836)">
        <path id="Trazado_137491" data-name="Trazado 137491" d="M1569.413,192c.86.185,1.743.3,2.577.567a10.937,10.937,0,0,1,7.547,11,14.2,14.2,0,0,1-1.219,4.318,92,92,0,0,1-6.336,12.145c-.3.51-.6,1.025-.924,1.52a2.974,2.974,0,0,1-5.023-.005,94.565,94.565,0,0,1-7.252-13.623,14.133,14.133,0,0,1-1.248-4.511,11.023,11.023,0,0,1,8.353-11.08c.589-.133,1.189-.219,1.784-.326Zm-.851,5.849a4.432,4.432,0,1,0,4.412,4.436A4.429,4.429,0,0,0,1568.562,197.849Z" transform="translate(-1548.285 -192)" fill="#fff"/>
        <path id="Trazado_137492" data-name="Trazado 137492" d="M1470,463.97c.435-1.936,1.827-3.039,3.44-3.943a1.175,1.175,0,0,1,1.614.435,1.193,1.193,0,0,1-.4,1.6,15.24,15.24,0,0,0-1.623,1.182,1.455,1.455,0,0,0-.032,2.416,9.391,9.391,0,0,0,3.536,2.028,32.945,32.945,0,0,0,7.923,1.747,51.78,51.78,0,0,0,8.725.234,34.82,34.82,0,0,0,11.381-2.226,11.925,11.925,0,0,0,2.565-1.451c1.362-1.015,1.333-2,.009-3.074a12.122,12.122,0,0,0-1.177-.794,1.19,1.19,0,1,1,1.186-2.058c.1.057.206.118.307.179a5.869,5.869,0,0,1,3.062,3.728v.95a5.465,5.465,0,0,1-2.986,3.685,22.389,22.389,0,0,1-3.374,1.525,37.522,37.522,0,0,1-9.678,1.833l-2.083.158h-4.273c-.115-.021-.229-.049-.345-.061-2.105-.218-4.221-.363-6.314-.67a24.652,24.652,0,0,1-7.456-2.214c-1.849-.918-3.519-2.04-4.007-4.256Z" transform="translate(-1470 -431.605)" fill="#fff"/>
        <path id="Trazado_137493" data-name="Trazado 137493" d="M1542.713,449.8c-1.914.4-3.835.648-5.519,1.887.286.2.495.375.729.5a12,12,0,0,0,3.67,1.177,38.038,38.038,0,0,0,12.047.227,16.293,16.293,0,0,0,4.354-1.1,6.915,6.915,0,0,0,1.29-.774c-1.6-1.293-3.532-1.52-5.443-1.928.4-.687.782-1.348,1.182-1.995a.382.382,0,0,1,.324-.121,14,14,0,0,1,4.515,1.493,5.243,5.243,0,0,1,1.09.841,2.313,2.313,0,0,1-.015,3.393,6.957,6.957,0,0,1-2.905,1.622,26.414,26.414,0,0,1-6.476,1.179,41.688,41.688,0,0,1-8.056-.148,19.464,19.464,0,0,1-6.365-1.609,5.966,5.966,0,0,1-1.483-1.029,2.305,2.305,0,0,1,0-3.474,6.57,6.57,0,0,1,2.732-1.534c.888-.286,1.8-.482,2.706-.727a.409.409,0,0,1,.536.244C1541.966,448.557,1542.336,449.161,1542.713,449.8Z" transform="translate(-1528.018 -420.693)" fill="#fff"/>
      </g>
    </g>
  </g>
</svg>
