<svg xmlns="http://www.w3.org/2000/svg" width="228" height="277" viewBox="0 0 228 277">
  <g id="Grupo_131968" data-name="Grupo 131968" transform="translate(-688 -2011)">
    <rect id="Rectángulo_35542" data-name="Rectángulo 35542" width="228" height="277" rx="10" transform="translate(688 2011)" fill="#8c6df2"/>
    <g id="Grupo_89578" data-name="Grupo 89578" transform="translate(756.524 2104.654)">
      <g id="Trazado_137460" data-name="Trazado 137460" transform="translate(0 0)" fill="#8c6df2">
        <path d="M 45.05898666381836 85.11797332763672 C 39.64885330200195 85.11797332763672 34.40320205688477 84.05950164794922 29.46775245666504 81.97198486328125 C 24.69815254211426 79.95462036132812 20.41357040405273 77.06553649902344 16.73300361633301 73.38497161865234 C 13.05245304107666 69.70440673828125 10.16335296630859 65.41982269287109 8.145986557006836 60.65021896362305 C 6.058469772338867 55.71477127075195 5.000003337860107 50.46912002563477 5.000003337860107 45.05898666381836 C 5.000003337860107 39.64885330200195 6.058469772338867 34.40320205688477 8.145986557006836 29.46775245666504 C 10.16335296630859 24.69815254211426 13.05245304107666 20.41357040405273 16.73300361633301 16.73300361633301 C 20.41357040405273 13.05245304107666 24.69815254211426 10.16335296630859 29.46775245666504 8.145986557006836 C 34.40320205688477 6.058469772338867 39.64885330200195 5.000003337860107 45.05898666381836 5.000003337860107 C 50.46912002563477 5.000003337860107 55.71477127075195 6.058469772338867 60.65021896362305 8.145986557006836 C 65.41982269287109 10.16335296630859 69.70440673828125 13.05245304107666 73.38497161865234 16.73300361633301 C 77.06553649902344 20.41357040405273 79.95462036132812 24.69815254211426 81.97198486328125 29.46775245666504 C 84.05950164794922 34.40320205688477 85.11797332763672 39.64885330200195 85.11797332763672 45.05898666381836 C 85.11797332763672 50.46912002563477 84.05950164794922 55.71477127075195 81.97198486328125 60.65021896362305 C 79.95462036132812 65.41982269287109 77.06553649902344 69.70440673828125 73.38497161865234 73.38497161865234 C 69.70440673828125 77.06553649902344 65.41982269287109 79.95462036132812 60.65021896362305 81.97198486328125 C 55.71477127075195 84.05950164794922 50.46912002563477 85.11797332763672 45.05898666381836 85.11797332763672 Z" stroke="none"/>
        <path d="M 45.05898666381836 10.00000762939453 C 25.72740173339844 10.00000762939453 10.00000762939453 25.72740173339844 10.00000762939453 45.05898666381836 C 10.00000762939453 64.39057159423828 25.72740173339844 80.11796569824219 45.05898666381836 80.11796569824219 C 64.39057159423828 80.11796569824219 80.11796569824219 64.39057159423828 80.11796569824219 45.05898666381836 C 80.11796569824219 25.72740173339844 64.39057159423828 10.00000762939453 45.05898666381836 10.00000762939453 M 45.05898666381836 7.62939453125e-06 C 69.94438171386719 7.62939453125e-06 90.11796569824219 20.17359161376953 90.11796569824219 45.05898666381836 C 90.11796569824219 69.94438171386719 69.94438171386719 90.11796569824219 45.05898666381836 90.11796569824219 C 20.17359161376953 90.11796569824219 7.62939453125e-06 69.94438171386719 7.62939453125e-06 45.05898666381836 C 7.62939453125e-06 20.17359161376953 20.17359161376953 7.62939453125e-06 45.05898666381836 7.62939453125e-06 Z" stroke="none" fill="#fff"/>
      </g>
    </g>
    <g id="Grupo_130506" data-name="Grupo 130506" transform="translate(-739.684 1876.379)">
      <path id="Trazado_137463" data-name="Trazado 137463" d="M1660.65,612.89a2.061,2.061,0,0,1-1.285-2.228c.051-1.336.012-2.675.012-4.046h18.275v1.458c0,.883-.041,1.769.01,2.649a1.976,1.976,0,0,1-1.291,2.167Z" transform="translate(-127.723 -313.752)" fill="#fff"/>
      <path id="Trazado_137464" data-name="Trazado 137464" d="M1530.736,255.225a1.793,1.793,0,0,1,.912,2.367q-3.344,11.488-6.693,22.975a1.731,1.731,0,0,1-2.542,1.242q-3.695-1.459-7.385-2.927a1.735,1.735,0,0,1-1.02-2.675q5.433-10.666,10.873-21.328c.574-1.126,1.26-1.373,2.6-.931a2.036,2.036,0,0,0,.2-.243,6.3,6.3,0,0,1,5.714-3.189c1.882-.017,3.764,0,5.495,0a9.048,9.048,0,0,1,.962-1.353,1.557,1.557,0,0,1,.948-.314c.828-.043,1.372.464,1.735,1.541q2.246-.306,4.505-.614c2.22-.307,4.439-.624,6.66-.923a1.7,1.7,0,0,1,1.924,1.232,1.677,1.677,0,0,1-1.053,2.021l-.2.084a5.777,5.777,0,0,1,.846.575,1.635,1.635,0,0,1,.285,1.908,1.709,1.709,0,0,1-1.758.912q-4.765-.654-9.529-1.319c-.549-.076-1.1-.144-1.727-.226,0,.691-.014,1.353.016,2.014,0,.087.222.2.359.24a8.965,8.965,0,0,1,6.681,6.347,8.73,8.73,0,0,1,.369,2.51c.027,8.351.017,16.7.017,25.055,0,.1-.01.2-.018.332h-18.228c-.01-.131-.027-.256-.027-.382,0-8.3-.017-16.6.006-24.907a9.087,9.087,0,0,1,7.073-8.944c.258-.064.394-.143.383-.444-.024-.619-.007-1.24-.007-1.894a3.492,3.492,0,0,0-.4-.047q-2.7,0-5.4,0A2.919,2.919,0,0,0,1530.736,255.225Z" fill="#fff"/>
    </g>
  </g>
</svg>
