<svg xmlns="http://www.w3.org/2000/svg" width="196" height="278" viewBox="0 0 196 278">
  <g id="Grupo_131955" data-name="Grupo 131955" transform="translate(-180 -667)">
    <g id="Grupo_131954" data-name="Grupo 131954">
      <rect id="Rectángulo_41407" data-name="Rectángulo 41407" width="196" height="278" rx="10" transform="translate(180 667)" fill="#8c6df2"/>
      <g id="Grupo_131834" data-name="Grupo 131834" transform="translate(233 761)">
        <g id="Trazado_137458" data-name="Trazado 137458" fill="#8c6df2">
          <path d="M 45.05898666381836 85.11797332763672 C 39.64885330200195 85.11797332763672 34.40320205688477 84.05950164794922 29.46775245666504 81.97198486328125 C 24.69815254211426 79.95462036132812 20.41357040405273 77.06553649902344 16.73300361633301 73.38497161865234 C 13.05245304107666 69.70440673828125 10.16335296630859 65.41982269287109 8.145986557006836 60.65021896362305 C 6.058469772338867 55.71477127075195 5.000003337860107 50.46912002563477 5.000003337860107 45.05898666381836 C 5.000003337860107 39.64885330200195 6.058469772338867 34.40320205688477 8.145986557006836 29.46775245666504 C 10.16335296630859 24.69815254211426 13.05245304107666 20.41357040405273 16.73300361633301 16.73300361633301 C 20.41357040405273 13.05245304107666 24.69815254211426 10.16335296630859 29.46775245666504 8.145986557006836 C 34.40320205688477 6.058469772338867 39.64885330200195 5.000003337860107 45.05898666381836 5.000003337860107 C 50.46912002563477 5.000003337860107 55.71477127075195 6.058469772338867 60.65021896362305 8.145986557006836 C 65.41982269287109 10.16335296630859 69.70440673828125 13.05245304107666 73.38497161865234 16.73300361633301 C 77.06553649902344 20.41357040405273 79.95462036132812 24.69815254211426 81.97198486328125 29.46775245666504 C 84.05950164794922 34.40320205688477 85.11797332763672 39.64885330200195 85.11797332763672 45.05898666381836 C 85.11797332763672 50.46912002563477 84.05950164794922 55.71477127075195 81.97198486328125 60.65021896362305 C 79.95462036132812 65.41982269287109 77.06553649902344 69.70440673828125 73.38497161865234 73.38497161865234 C 69.70440673828125 77.06553649902344 65.41982269287109 79.95462036132812 60.65021896362305 81.97198486328125 C 55.71477127075195 84.05950164794922 50.46912002563477 85.11797332763672 45.05898666381836 85.11797332763672 Z" stroke="none"/>
          <path d="M 45.05898666381836 10.00000762939453 C 25.72740173339844 10.00000762939453 10.00000762939453 25.72740173339844 10.00000762939453 45.05898666381836 C 10.00000762939453 64.39057159423828 25.72740173339844 80.11796569824219 45.05898666381836 80.11796569824219 C 64.39057159423828 80.11796569824219 80.11796569824219 64.39057159423828 80.11796569824219 45.05898666381836 C 80.11796569824219 25.72740173339844 64.39057159423828 10.00000762939453 45.05898666381836 10.00000762939453 M 45.05898666381836 7.62939453125e-06 C 69.94438171386719 7.62939453125e-06 90.11796569824219 20.17359161376953 90.11796569824219 45.05898666381836 C 90.11796569824219 69.94438171386719 69.94438171386719 90.11796569824219 45.05898666381836 90.11796569824219 C 20.17359161376953 90.11796569824219 7.62939453125e-06 69.94438171386719 7.62939453125e-06 45.05898666381836 C 7.62939453125e-06 20.17359161376953 20.17359161376953 7.62939453125e-06 45.05898666381836 7.62939453125e-06 Z" stroke="none" fill="#fff"/>
        </g>
      </g>
    </g>
    <g id="Grupo_131836" data-name="Grupo 131836" transform="translate(257.002 785)">
      <path id="Trazado_187696" data-name="Trazado 187696" d="M1.657,235.789H3.051c.1.036.2.077.309.107a4.282,4.282,0,0,1,1.9,7.319,1.017,1.017,0,0,0-.335.792c.01,1.543.018,3.087,0,4.63a.777.777,0,0,0,.522.812c1.837.876,3.662,1.774,5.491,2.667q2.964,1.447,5.924,2.9a.946.946,0,0,0,.924.013q5.7-2.805,11.411-5.576a.781.781,0,0,0,.517-.815c-.022-1.447-.027-2.9,0-4.343a1.588,1.588,0,0,0-.509-1.259,4.266,4.266,0,0,1,.271-6.206,5.4,5.4,0,0,1,2.109-1.041H32.98c.064.023.127.051.193.067A4.168,4.168,0,0,1,36.454,239a4.126,4.126,0,0,1-1.355,4.334.6.6,0,0,0-.223.463q0,1.209,0,2.419c0,.247.1.383.368.382a1.032,1.032,0,0,1,.979.682c.4.838.818,1.669,1.214,2.509a1,1,0,0,1-.516,1.5c-.547.281-1.1.555-1.655.816a.6.6,0,0,0-.4.6q.009,5.35,0,10.7a.57.57,0,0,0,.364.576c.593.281,1.183.568,1.763.873a.968.968,0,0,1,.475,1.382c-.421.9-.866,1.8-1.307,2.692a.929.929,0,0,1-.876.573c-.333,0-.422.168-.419.462.007.6,0,1.2,0,1.8,0,.547.033.586.582.58a2.783,2.783,0,0,1,2.3,1.058,4.752,4.752,0,0,1,.56,1.089v2.624a1.125,1.125,0,0,1-1.078.674c-3.293-.005-6.585,0-9.878-.005a1,1,0,0,1-1.092-1.066c-.019-.491-.012-.984-.006-1.475a2.77,2.77,0,0,1,2.888-2.9c.52-.009.559-.044.56-.564,0-1.421-.015-2.842.011-4.263a.834.834,0,0,0-.545-.881q-5.7-2.759-11.379-5.558a.951.951,0,0,0-.925-.008q-5.739,2.818-11.489,5.613a.7.7,0,0,0-.448.733c.015,1.407.005,2.814.006,4.222,0,.692,0,.692.706.707a2.717,2.717,0,0,1,2.685,2.307,9.78,9.78,0,0,1,.035,2.208.949.949,0,0,1-1.016.919q-5,.011-10,0a.954.954,0,0,1-1.026-1.03c-.014-.573-.008-1.148,0-1.721a2.617,2.617,0,0,1,.8-1.873,2.755,2.755,0,0,1,2.158-.81c.273.01.5-.031.494-.382,0-.7,0-1.393,0-2.09,0-.222-.084-.373-.333-.37a1.1,1.1,0,0,1-1.036-.735c-.4-.823-.806-1.644-1.2-2.472a.994.994,0,0,1,.5-1.469c.559-.288,1.121-.568,1.691-.834a.6.6,0,0,0,.384-.606q-.008-5.329,0-10.657a.621.621,0,0,0-.408-.633q-.873-.406-1.727-.853a.955.955,0,0,1-.482-1.345c.423-.918.876-1.822,1.323-2.729a.9.9,0,0,1,.838-.564c.377,0,.461-.186.456-.512q-.016-1.065,0-2.131a.867.867,0,0,0-.321-.71,4.284,4.284,0,0,1-.556-5.759A4.666,4.666,0,0,1,1.657,235.789Zm3.276,22.232c0,.914,0,1.828,0,2.742,0,.472.044.5.452.3q2.852-1.386,5.7-2.779c.115-.056.3-.079.291-.245,0-.139-.167-.165-.273-.217q-2.868-1.4-5.739-2.795c-.386-.187-.43-.159-.432.291C4.93,256.221,4.933,257.121,4.933,258.021Zm24.771.053c0-.929,0-1.857,0-2.786,0-.413-.053-.443-.424-.263q-2.892,1.406-5.781,2.819c-.095.046-.233.072-.236.2s.142.15.235.2q2.887,1.417,5.776,2.829c.386.188.428.16.43-.291C29.707,259.877,29.7,258.975,29.7,258.074Z" transform="translate(3.691 -235.789)" fill="#fff"/>
    </g>
  </g>
</svg>
