<svg xmlns="http://www.w3.org/2000/svg" width="197" height="278" viewBox="0 0 197 278">
  <g id="Grupo_131956" data-name="Grupo 131956" transform="translate(-387 -667)">
    <rect id="Rectángulo_41405" data-name="Rectángulo 41405" width="197" height="278" rx="10" transform="translate(387 667)" fill="#8c6df2"/>
    <g id="Grupo_131834" data-name="Grupo 131834" transform="translate(433.307 761)">
      <g id="Trazado_137458" data-name="Trazado 137458" fill="#8c6df2">
        <path d="M 45.05898666381836 85.11797332763672 C 39.64885330200195 85.11797332763672 34.40320205688477 84.05950164794922 29.46775245666504 81.97198486328125 C 24.69815254211426 79.95462036132812 20.41357040405273 77.06553649902344 16.73300361633301 73.38497161865234 C 13.05245304107666 69.70440673828125 10.16335296630859 65.41982269287109 8.145986557006836 60.65021896362305 C 6.058469772338867 55.71477127075195 5.000003337860107 50.46912002563477 5.000003337860107 45.05898666381836 C 5.000003337860107 39.64885330200195 6.058469772338867 34.40320205688477 8.145986557006836 29.46775245666504 C 10.16335296630859 24.69815254211426 13.05245304107666 20.41357040405273 16.73300361633301 16.73300361633301 C 20.41357040405273 13.05245304107666 24.69815254211426 10.16335296630859 29.46775245666504 8.145986557006836 C 34.40320205688477 6.058469772338867 39.64885330200195 5.000003337860107 45.05898666381836 5.000003337860107 C 50.46912002563477 5.000003337860107 55.71477127075195 6.058469772338867 60.65021896362305 8.145986557006836 C 65.41982269287109 10.16335296630859 69.70440673828125 13.05245304107666 73.38497161865234 16.73300361633301 C 77.06553649902344 20.41357040405273 79.95462036132812 24.69815254211426 81.97198486328125 29.46775245666504 C 84.05950164794922 34.40320205688477 85.11797332763672 39.64885330200195 85.11797332763672 45.05898666381836 C 85.11797332763672 50.46912002563477 84.05950164794922 55.71477127075195 81.97198486328125 60.65021896362305 C 79.95462036132812 65.41982269287109 77.06553649902344 69.70440673828125 73.38497161865234 73.38497161865234 C 69.70440673828125 77.06553649902344 65.41982269287109 79.95462036132812 60.65021896362305 81.97198486328125 C 55.71477127075195 84.05950164794922 50.46912002563477 85.11797332763672 45.05898666381836 85.11797332763672 Z" stroke="none"/>
        <path d="M 45.05898666381836 10.00000762939453 C 25.72740173339844 10.00000762939453 10.00000762939453 25.72740173339844 10.00000762939453 45.05898666381836 C 10.00000762939453 64.39057159423828 25.72740173339844 80.11796569824219 45.05898666381836 80.11796569824219 C 64.39057159423828 80.11796569824219 80.11796569824219 64.39057159423828 80.11796569824219 45.05898666381836 C 80.11796569824219 25.72740173339844 64.39057159423828 10.00000762939453 45.05898666381836 10.00000762939453 M 45.05898666381836 7.62939453125e-06 C 69.94438171386719 7.62939453125e-06 90.11796569824219 20.17359161376953 90.11796569824219 45.05898666381836 C 90.11796569824219 69.94438171386719 69.94438171386719 90.11796569824219 45.05898666381836 90.11796569824219 C 20.17359161376953 90.11796569824219 7.62939453125e-06 69.94438171386719 7.62939453125e-06 45.05898666381836 C 7.62939453125e-06 20.17359161376953 20.17359161376953 7.62939453125e-06 45.05898666381836 7.62939453125e-06 Z" stroke="none" fill="#fff"/>
      </g>
    </g>
    <g id="Grupo_131837" data-name="Grupo 131837" transform="translate(457.797 785)">
      <path id="Trazado_187697" data-name="Trazado 187697" d="M83.811,199.634v2.625a2.936,2.936,0,0,0-.071.358,20.34,20.34,0,0,1-1.548,6.424,21.058,21.058,0,0,1-40.152-4.474c-.131-.765-.213-1.538-.318-2.308v-2.625c.134-.93.235-1.866.408-2.789A21.024,21.024,0,0,1,59.1,180.266c.781-.128,1.568-.216,2.352-.323h2.631c.106.023.21.051.317.068,1.08.167,2.176.267,3.239.509a20.981,20.981,0,0,1,15.855,16.805C83.621,198.091,83.706,198.864,83.811,199.634Zm-21.018-14.11A15.423,15.423,0,1,0,78.22,200.972,15.465,15.465,0,0,0,62.793,185.524Z" transform="translate(-41.723 -179.943)" fill="#fff"/>
      <path id="Trazado_187698" data-name="Trazado 187698" d="M141.269,266.344A12.978,12.978,0,1,1,128.3,253.4,13,13,0,0,1,141.269,266.344Zm-4.307-.543a.37.37,0,0,1,.035-.1,2.115,2.115,0,0,0-.846-3.549,4.5,4.5,0,0,0-3.517.013,2.17,2.17,0,0,0-1.444,1.793,2.026,2.026,0,0,0,.686,1.8.661.661,0,0,1-.092.107,2.223,2.223,0,0,0,.485,3.834,4.814,4.814,0,0,0,4.281,0,2.223,2.223,0,0,0,1.369-2.111A2.161,2.161,0,0,0,136.962,265.8Zm-9.4-1.873V270H130v-7.982h-3.853v1.912Zm-4.64,3.167h1.848v-2.2h-1.854v-1.8h-2.321v1.812h-1.844v2.19h1.875v1.815h2.3Z" transform="translate(-107.247 -245.344)" fill="#fff"/>
      <path id="Trazado_187699" data-name="Trazado 187699" d="M282.183,375.518c0,.517-.4.853-1.029.858s-1.041-.329-1.045-.84.4-.853,1.027-.857S282.179,375.007,282.183,375.518Z" transform="translate(-253.981 -353.335)" fill="#fff"/>
      <path id="Trazado_187700" data-name="Trazado 187700" d="M283.129,346.77c.518,0,.819.258.812.7-.006.42-.314.68-.8.678s-.787-.264-.788-.692S282.63,346.773,283.129,346.77Z" transform="translate(-255.975 -328.485)" fill="#fff"/>
    </g>
  </g>
</svg>
