<svg xmlns="http://www.w3.org/2000/svg" width="136.973" height="136.973" viewBox="0 0 136.973 136.973">
  <g id="Grupo_132225" data-name="Grupo 132225" transform="translate(-18203.961 11133.486)">
    <g id="Grupo_132144" data-name="Grupo 132144" transform="translate(18203.961 -11133.486)">
      <g id="Trazado_137458" data-name="Trazado 137458" transform="translate(0 0)" fill="#fff">
        <path d="M 68.48631286621094 131.9726409912109 C 59.91350936889648 131.9726409912109 51.59981155395508 130.2947692871094 43.77611541748047 126.9856185913086 C 40.01535797119141 125.3949661254883 36.38774871826172 123.4259033203125 32.9940071105957 121.1331405639648 C 29.6312255859375 118.8612899780273 26.46885681152344 116.2520523071289 23.5947265625 113.3779220581055 C 20.72059631347656 110.503791809082 18.11135673522949 107.341423034668 15.83950805664062 103.9786376953125 C 13.5467472076416 100.5848999023438 11.57768249511719 96.95726776123047 9.987030029296875 93.196533203125 C 6.677877902984619 85.37283325195312 5.000008583068848 77.05912017822266 5.000008583068848 68.48631286621094 C 5.000008583068848 59.91350936889648 6.677877902984619 51.59981155395508 9.987030029296875 43.77611541748047 C 11.57768249511719 40.01535797119141 13.5467472076416 36.38774871826172 15.83950805664062 32.9940071105957 C 18.11135673522949 29.6312255859375 20.72059631347656 26.46885681152344 23.5947265625 23.5947265625 C 26.46885681152344 20.72059631347656 29.6312255859375 18.11135673522949 32.9940071105957 15.83950805664062 C 36.38774871826172 13.5467472076416 40.01535797119141 11.57768249511719 43.77611541748047 9.987030029296875 C 51.59981155395508 6.677877902984619 59.91350936889648 5.000008583068848 68.48631286621094 5.000008583068848 C 77.05912017822266 5.000008583068848 85.37283325195312 6.677877902984619 93.196533203125 9.987030029296875 C 96.95726776123047 11.57768249511719 100.5848999023438 13.5467472076416 103.9786376953125 15.83950805664062 C 107.341423034668 18.11135673522949 110.503791809082 20.72059631347656 113.3779220581055 23.5947265625 C 116.2520523071289 26.46885681152344 118.8612899780273 29.6312255859375 121.1331405639648 32.9940071105957 C 123.4259033203125 36.38774871826172 125.3949661254883 40.01535797119141 126.9856185913086 43.77611541748047 C 130.2947692871094 51.59981155395508 131.9726409912109 59.91350936889648 131.9726409912109 68.48631286621094 C 131.9726409912109 77.05912017822266 130.2947692871094 85.37283325195312 126.9856185913086 93.196533203125 C 125.3949661254883 96.95726776123047 123.4259033203125 100.5848999023438 121.1331405639648 103.9786376953125 C 118.8612899780273 107.341423034668 116.2520523071289 110.503791809082 113.3779220581055 113.3779220581055 C 110.503791809082 116.2520523071289 107.341423034668 118.8612899780273 103.9786376953125 121.1331405639648 C 100.5848999023438 123.4259033203125 96.95726776123047 125.3949661254883 93.196533203125 126.9856185913086 C 85.37283325195312 130.2947692871094 77.05912017822266 131.9726409912109 68.48631286621094 131.9726409912109 Z" stroke="none"/>
        <path d="M 68.48631286621094 10.00000762939453 C 36.23686981201172 10.00000762939453 10.00000762939453 36.23686981201172 10.00000762939453 68.48631286621094 C 10.00000762939453 100.7357559204102 36.23686981201172 126.9726181030273 68.48631286621094 126.9726181030273 C 100.7357559204102 126.9726181030273 126.9726181030273 100.7357559204102 126.9726181030273 68.48631286621094 C 126.9726181030273 36.23686981201172 100.7357559204102 10.00000762939453 68.48631286621094 10.00000762939453 M 68.48631286621094 0 C 106.3102569580078 0 136.9726257324219 30.66236877441406 136.9726257324219 68.48631286621094 C 136.9726257324219 106.3102569580078 106.3102569580078 136.9726257324219 68.48631286621094 136.9726257324219 C 30.66236877441406 136.9726257324219 0 106.3102569580078 0 68.48631286621094 C 0 30.66236877441406 30.66236877441406 0 68.48631286621094 0 Z" stroke="none" fill="#8c6df2"/>
      </g>
    </g>
    <g id="Grupo_132165" data-name="Grupo 132165" transform="translate(18237.961 -11099.486)">
      <path id="Trazado_187697" data-name="Trazado 187697" d="M109.942,211.858v4.255a4.76,4.76,0,0,0-.115.581,32.968,32.968,0,0,1-2.509,10.412,34.132,34.132,0,0,1-65.079-7.252c-.212-1.24-.346-2.493-.516-3.74v-4.255c.217-1.508.381-3.025.661-4.521a34.077,34.077,0,0,1,27.5-26.87c1.265-.208,2.542-.351,3.813-.524h4.264c.171.037.341.083.513.11,1.751.271,3.526.432,5.249.826a34.007,34.007,0,0,1,25.7,27.239C109.632,209.358,109.771,210.611,109.942,211.858Zm-34.067-22.87a25,25,0,1,0,25,25.039A25.066,25.066,0,0,0,75.875,188.988Z" transform="translate(-41.723 -179.943)" fill="#8c6df2"/>
      <path id="Trazado_187698" data-name="Trazado 187698" d="M157.384,274.383A21.036,21.036,0,1,1,136.36,253.4,21.072,21.072,0,0,1,157.384,274.383Zm-6.981-.88a.6.6,0,0,1,.057-.155c1.8-2.126,1.214-4.688-1.372-5.752a7.3,7.3,0,0,0-5.7.021,3.517,3.517,0,0,0-2.34,2.906,3.283,3.283,0,0,0,1.112,2.917,1.076,1.076,0,0,1-.15.174,3.6,3.6,0,0,0,.786,6.214,7.8,7.8,0,0,0,6.939,0,3.6,3.6,0,0,0,2.219-3.421A3.5,3.5,0,0,0,150.4,273.5Zm-15.242-3.035v9.839h3.953V267.369h-6.246v3.1ZM127.64,275.6h3v-3.571h-3.005v-2.911h-3.762v2.937H120.88v3.55h3.04v2.942h3.721Z" transform="translate(-102.239 -240.346)" fill="#8c6df2"/>
      <path id="Trazado_187699" data-name="Trazado 187699" d="M283.471,376.04c.007.838-.648,1.383-1.667,1.391s-1.687-.533-1.694-1.362.648-1.383,1.665-1.39S283.464,375.211,283.471,376.04Z" transform="translate(-237.76 -340.083)" fill="#8c6df2"/>
      <path id="Trazado_187700" data-name="Trazado 187700" d="M283.613,346.77c.839,0,1.327.418,1.317,1.141-.01.681-.51,1.1-1.3,1.1s-1.276-.428-1.277-1.122C282.348,347.179,282.8,346.774,283.613,346.77Z" transform="translate(-239.601 -317.132)" fill="#8c6df2"/>
    </g>
  </g>
</svg>
