<svg xmlns="http://www.w3.org/2000/svg" width="196" height="278" viewBox="0 0 196 278">
  <g id="Grupo_131957" data-name="Grupo 131957" transform="translate(-596 -667)">
    <rect id="Rectángulo_41406" data-name="Rectángulo 41406" width="196" height="278" rx="10" transform="translate(596 667)" fill="#8c6df2"/>
    <g id="Grupo_131834" data-name="Grupo 131834" transform="translate(649.053 761)">
      <g id="Trazado_137458" data-name="Trazado 137458" fill="#8c6df2">
        <path d="M 45.05898666381836 85.11797332763672 C 39.64885330200195 85.11797332763672 34.40320205688477 84.05950164794922 29.46775245666504 81.97198486328125 C 24.69815254211426 79.95462036132812 20.41357040405273 77.06553649902344 16.73300361633301 73.38497161865234 C 13.05245304107666 69.70440673828125 10.16335296630859 65.41982269287109 8.145986557006836 60.65021896362305 C 6.058469772338867 55.71477127075195 5.000003337860107 50.46912002563477 5.000003337860107 45.05898666381836 C 5.000003337860107 39.64885330200195 6.058469772338867 34.40320205688477 8.145986557006836 29.46775245666504 C 10.16335296630859 24.69815254211426 13.05245304107666 20.41357040405273 16.73300361633301 16.73300361633301 C 20.41357040405273 13.05245304107666 24.69815254211426 10.16335296630859 29.46775245666504 8.145986557006836 C 34.40320205688477 6.058469772338867 39.64885330200195 5.000003337860107 45.05898666381836 5.000003337860107 C 50.46912002563477 5.000003337860107 55.71477127075195 6.058469772338867 60.65021896362305 8.145986557006836 C 65.41982269287109 10.16335296630859 69.70440673828125 13.05245304107666 73.38497161865234 16.73300361633301 C 77.06553649902344 20.41357040405273 79.95462036132812 24.69815254211426 81.97198486328125 29.46775245666504 C 84.05950164794922 34.40320205688477 85.11797332763672 39.64885330200195 85.11797332763672 45.05898666381836 C 85.11797332763672 50.46912002563477 84.05950164794922 55.71477127075195 81.97198486328125 60.65021896362305 C 79.95462036132812 65.41982269287109 77.06553649902344 69.70440673828125 73.38497161865234 73.38497161865234 C 69.70440673828125 77.06553649902344 65.41982269287109 79.95462036132812 60.65021896362305 81.97198486328125 C 55.71477127075195 84.05950164794922 50.46912002563477 85.11797332763672 45.05898666381836 85.11797332763672 Z" stroke="none"/>
        <path d="M 45.05898666381836 10.00000762939453 C 25.72740173339844 10.00000762939453 10.00000762939453 25.72740173339844 10.00000762939453 45.05898666381836 C 10.00000762939453 64.39057159423828 25.72740173339844 80.11796569824219 45.05898666381836 80.11796569824219 C 64.39057159423828 80.11796569824219 80.11796569824219 64.39057159423828 80.11796569824219 45.05898666381836 C 80.11796569824219 25.72740173339844 64.39057159423828 10.00000762939453 45.05898666381836 10.00000762939453 M 45.05898666381836 7.62939453125e-06 C 69.94438171386719 7.62939453125e-06 90.11796569824219 20.17359161376953 90.11796569824219 45.05898666381836 C 90.11796569824219 69.94438171386719 69.94438171386719 90.11796569824219 45.05898666381836 90.11796569824219 C 20.17359161376953 90.11796569824219 7.62939453125e-06 69.94438171386719 7.62939453125e-06 45.05898666381836 C 7.62939453125e-06 20.17359161376953 20.17359161376953 7.62939453125e-06 45.05898666381836 7.62939453125e-06 Z" stroke="none" fill="#fff"/>
      </g>
    </g>
    <path id="Trazado_187701" data-name="Trazado 187701" d="M93.422,317.876c0-.72-.007-1.368,0-2.014a2.027,2.027,0,1,1,4.053,0c.009.658,0,1.315,0,1.993h16.132c0-.7-.01-1.385,0-2.07a2,2,0,0,1,1.349-1.862,2.029,2.029,0,0,1,2.246.644,2.1,2.1,0,0,1,.459,1.373c0,.63,0,1.26,0,1.884a17.81,17.81,0,0,1,1.877.174,6.1,6.1,0,0,1,4.956,6.048c.014,3.155,0,6.309,0,9.464,0,5.351.017,10.7-.007,16.054a6.007,6.007,0,0,1-3.45,5.621,5.548,5.548,0,0,1-2.6.618q-12.9.006-25.808,0a6.1,6.1,0,0,1-6.049-6.071q-.019-12.886,0-25.772a6.12,6.12,0,0,1,6-6.08C92.848,317.871,93.112,317.876,93.422,317.876Zm26.992,10.8c0-1.682.059-3.328-.021-4.968a1.888,1.888,0,0,0-2.089-1.773q-12.755-.007-25.509,0a2.008,2.008,0,0,0-2.151,2.177c-.005,1.394,0,2.788,0,4.182,0,.122.015.244.024.382Zm-14.873,19.3c.282,0,.564.009.845,0a2.028,2.028,0,0,0,.045-4.053,16.79,16.79,0,0,0-1.774,0,2.028,2.028,0,0,0,.039,4.053C104.978,347.981,105.26,347.972,105.541,347.972Zm8.716,0c.268,0,.535.008.8,0a2.03,2.03,0,0,0,.026-4.058c-.563-.021-1.127-.023-1.69,0a2.029,2.029,0,0,0,.016,4.056C113.694,347.981,113.976,347.972,114.258,347.973Zm-17.417,0c.267,0,.535.008.8,0a2.028,2.028,0,0,0,.1-4.051,14.7,14.7,0,0,0-1.813,0A2.028,2.028,0,0,0,96,347.971C96.278,347.981,96.56,347.972,96.841,347.973Zm8.686-7.859v0c.323,0,.648.021.97,0a2.015,2.015,0,0,0,1.857-1.952,1.977,1.977,0,0,0-1.744-2.045,11.513,11.513,0,0,0-2.145,0,1.977,1.977,0,0,0-1.734,2.012,2.017,2.017,0,0,0,1.827,1.98C104.879,340.137,105.2,340.114,105.527,340.114Zm8.7,0c.337,0,.677.025,1.012,0a2.016,2.016,0,0,0,1.822-1.985,1.977,1.977,0,0,0-1.741-2.007,11.552,11.552,0,0,0-2.145,0,1.977,1.977,0,0,0-1.74,2.008,2.018,2.018,0,0,0,1.823,1.984C113.581,340.137,113.906,340.113,114.229,340.113Zm-17.4,0c.324,0,.649.023.971,0a2,2,0,0,0,1.827-1.976,1.957,1.957,0,0,0-1.726-2.016,11.4,11.4,0,0,0-2.147,0,1.974,1.974,0,0,0-1.731,2.018,2.017,2.017,0,0,0,1.836,1.975C96.182,340.138,96.508,340.115,96.831,340.115Z" transform="translate(588.311 471.192)" fill="#fff"/>
  </g>
</svg>
