<svg xmlns="http://www.w3.org/2000/svg" width="197" height="278" viewBox="0 0 197 278">
  <g id="Grupo_131958" data-name="Grupo 131958" transform="translate(-804 -667)">
    <rect id="Rectángulo_41403" data-name="Rectángulo 41403" width="197" height="278" rx="10" transform="translate(804 667)" fill="#8c6df2"/>
    <g id="Grupo_131834" data-name="Grupo 131834" transform="translate(857.092 761)">
      <g id="Trazado_137458" data-name="Trazado 137458" fill="#8c6df2">
        <path d="M 45.05898666381836 85.11797332763672 C 39.64885330200195 85.11797332763672 34.40320205688477 84.05950164794922 29.46775245666504 81.97198486328125 C 24.69815254211426 79.95462036132812 20.41357040405273 77.06553649902344 16.73300361633301 73.38497161865234 C 13.05245304107666 69.70440673828125 10.16335296630859 65.41982269287109 8.145986557006836 60.65021896362305 C 6.058469772338867 55.71477127075195 5.000003337860107 50.46912002563477 5.000003337860107 45.05898666381836 C 5.000003337860107 39.64885330200195 6.058469772338867 34.40320205688477 8.145986557006836 29.46775245666504 C 10.16335296630859 24.69815254211426 13.05245304107666 20.41357040405273 16.73300361633301 16.73300361633301 C 20.41357040405273 13.05245304107666 24.69815254211426 10.16335296630859 29.46775245666504 8.145986557006836 C 34.40320205688477 6.058469772338867 39.64885330200195 5.000003337860107 45.05898666381836 5.000003337860107 C 50.46912002563477 5.000003337860107 55.71477127075195 6.058469772338867 60.65021896362305 8.145986557006836 C 65.41982269287109 10.16335296630859 69.70440673828125 13.05245304107666 73.38497161865234 16.73300361633301 C 77.06553649902344 20.41357040405273 79.95462036132812 24.69815254211426 81.97198486328125 29.46775245666504 C 84.05950164794922 34.40320205688477 85.11797332763672 39.64885330200195 85.11797332763672 45.05898666381836 C 85.11797332763672 50.46912002563477 84.05950164794922 55.71477127075195 81.97198486328125 60.65021896362305 C 79.95462036132812 65.41982269287109 77.06553649902344 69.70440673828125 73.38497161865234 73.38497161865234 C 69.70440673828125 77.06553649902344 65.41982269287109 79.95462036132812 60.65021896362305 81.97198486328125 C 55.71477127075195 84.05950164794922 50.46912002563477 85.11797332763672 45.05898666381836 85.11797332763672 Z" stroke="none"/>
        <path d="M 45.05898666381836 10.00000762939453 C 25.72740173339844 10.00000762939453 10.00000762939453 25.72740173339844 10.00000762939453 45.05898666381836 C 10.00000762939453 64.39057159423828 25.72740173339844 80.11796569824219 45.05898666381836 80.11796569824219 C 64.39057159423828 80.11796569824219 80.11796569824219 64.39057159423828 80.11796569824219 45.05898666381836 C 80.11796569824219 25.72740173339844 64.39057159423828 10.00000762939453 45.05898666381836 10.00000762939453 M 45.05898666381836 7.62939453125e-06 C 69.94438171386719 7.62939453125e-06 90.11796569824219 20.17359161376953 90.11796569824219 45.05898666381836 C 90.11796569824219 69.94438171386719 69.94438171386719 90.11796569824219 45.05898666381836 90.11796569824219 C 20.17359161376953 90.11796569824219 7.62939453125e-06 69.94438171386719 7.62939453125e-06 45.05898666381836 C 7.62939453125e-06 20.17359161376953 20.17359161376953 7.62939453125e-06 45.05898666381836 7.62939453125e-06 Z" stroke="none" fill="#fff"/>
      </g>
    </g>
    <g id="Grupo_131838" data-name="Grupo 131838" transform="translate(881.236 785)">
      <path id="Trazado_187702" data-name="Trazado 187702" d="M433.2,206.161l1.578-5.814c.545-2.008,1.086-4.018,1.638-6.024a2.5,2.5,0,0,1,3.3-1.9q1.979.52,3.951,1.069a2.506,2.506,0,0,1,1.88,3.211c-.141.572-.3,1.139-.464,1.751l6.942-.377c-.023-.13-.038-.248-.066-.364-.358-1.473-.723-2.945-1.076-4.419a.988.988,0,0,1,.491-1.2.926.926,0,0,1,1.16.229,1.753,1.753,0,0,1,.287.632q1.3,5.3,2.582,10.606c.095.4.244.54.655.513.575-.038,1.154-.01,1.793-.01-.054-.843-.1-1.649-.158-2.454q-.272-3.924-.548-7.848-.142-2.045-.277-4.09c-.055-.833.5-1.366,1.218-1.175a.975.975,0,0,1,.724.949q.17,2.25.321,4.5.338,4.895.666,9.79c.016.247.094.334.345.33.8-.012,1.6-.008,2.4,0a1.247,1.247,0,0,1,1.422,1.421q0,6.585,0,13.171v.557h2.517a6.076,6.076,0,0,1-.619-2.427c-.407-2.1-.758-4.206-1.136-6.31-.137-.761.188-1.171.96-1.173q3.852-.006,7.7,0c.755,0,1.1.4.969,1.135q-.711,4.012-1.446,8.019a4.992,4.992,0,0,1-.287.783c.426,0,.875-.006,1.323,0a1.585,1.585,0,0,1,1.666,1.667c.009.676.007,1.353,0,2.029a1.012,1.012,0,0,1-1.119,1.135c-.3.008-.6,0-.941,0a3.94,3.94,0,0,0-1.559-3,3.7,3.7,0,0,0-2.437-.764c-1.983.075-3.236,1.314-3.757,3.763h-2.3c-.469,0-.939-.013-1.408.005-.262.01-.354-.078-.386-.342a3.8,3.8,0,0,0-4.058-3.419,3.852,3.852,0,0,0-3.569,3.426c-.009.093-.017.187-.027.3a14.581,14.581,0,0,1-1.5-.012.815.815,0,0,1-.718-.7,3.15,3.15,0,0,1-.058-.615q-.005-4.577,0-9.153v-.54h-1.017c-.842,0-1.684.008-2.526,0a.988.988,0,1,1,0-1.964c1.158-.014,2.317,0,3.523,0,.007-.164.019-.309.02-.454,0-1.408-.01-2.817.012-4.224a1.766,1.766,0,0,1,.232-.667,8.824,8.824,0,0,0,.592-1.213c.1-.329.2-.479.541-.424a2.641,2.641,0,0,0,.356,0l-.712-2.931c-.164.075-.283.141-.409.185a.694.694,0,0,1-.817-.14,4.21,4.21,0,0,0-2.522-.9c-1.324-.193-2.647-.387-3.967-.607a.934.934,0,0,1-.487-.331c-.942-1.12-1.869-2.252-2.8-3.38a.966.966,0,0,0-.315-.272c.042.11.079.223.128.329.737,1.588,1.481,3.173,2.208,4.765a.655.655,0,0,0,.582.421q2.621.376,5.235.8a1.652,1.652,0,0,1,1.461,1.983,1.693,1.693,0,0,1-2.031,1.308c-2.071-.322-4.142-.649-6.217-.947a1.935,1.935,0,0,1-1.611-1.185c-.844-1.842-1.706-3.676-2.562-5.513a.993.993,0,0,0-.238-.347q.3,1.46.6,2.919c.207,1,.462,1.99.614,3a3.249,3.249,0,0,0,2.809,2.692c.175.024.349.063.563.1-.194.727-.4,1.424-.556,2.133a1.062,1.062,0,0,0,.09.687q1.471,2.638,2.986,5.251a2.6,2.6,0,0,1,.355,1.66c-.33,2.92-.639,5.842-.945,8.765a2.022,2.022,0,0,1-1.421,1.935,1.922,1.922,0,0,1-2.482-2.046c.1-1.251.254-2.5.389-3.746.171-1.577.35-3.154.516-4.732a.7.7,0,0,0-.086-.388q-2.137-3.782-4.288-7.556a1.28,1.28,0,0,0-.143-.151c.3,1.257.581,2.44.864,3.622s.638,2.375.831,3.583a8.119,8.119,0,0,1-.055,2.21q-.458,3.821-.988,7.633a1.909,1.909,0,0,1-1.8,1.657,1.872,1.872,0,0,1-1.945-1.359,4.077,4.077,0,0,1-.019-1.428c.316-2.588.661-5.172.989-7.758a1.3,1.3,0,0,0-.048-.446q-1-4.226-2-8.45a.4.4,0,0,0-.062-.1Z" transform="translate(-433.2 -184.587)" fill="#fff"/>
      <path id="Trazado_187703" data-name="Trazado 187703" d="M501.407,158.446a3.668,3.668,0,0,1-3.459-3.886,3.683,3.683,0,1,1,7.344.564A3.666,3.666,0,0,1,501.407,158.446Z" transform="translate(-491.224 -151.1)" fill="#fff"/>
      <path id="Trazado_187704" data-name="Trazado 187704" d="M647.875,511.426a2.436,2.436,0,0,1,4.872-.019,2.461,2.461,0,0,1-2.452,2.446A2.437,2.437,0,0,1,647.875,511.426Zm1.578-.019a.856.856,0,0,0,.855.868.878.878,0,0,0,.858-.829.86.86,0,0,0-.841-.882A.844.844,0,0,0,649.453,511.407Z" transform="translate(-625.601 -471.855)" fill="#fff"/>
      <path id="Trazado_187705" data-name="Trazado 187705" d="M763.83,508.987a2.433,2.433,0,1,1-2.426,2.422A2.44,2.44,0,0,1,763.83,508.987Zm.877,2.431a.864.864,0,1,0-1.727.018.864.864,0,0,0,1.727-.018Z" transform="translate(-727.35 -471.854)" fill="#fff"/>
    </g>
  </g>
</svg>
