<svg xmlns="http://www.w3.org/2000/svg" width="196" height="278" viewBox="0 0 196 278">
  <g id="Grupo_131959" data-name="Grupo 131959" transform="translate(-1011 -667)">
    <rect id="Rectángulo_41404" data-name="Rectángulo 41404" width="196" height="278" rx="10" transform="translate(1011 667)" fill="#8c6df2"/>
    <g id="Grupo_131834" data-name="Grupo 131834" transform="translate(1065.131 761)">
      <g id="Trazado_137458" data-name="Trazado 137458" fill="#8c6df2">
        <path d="M 45.05898666381836 85.11797332763672 C 39.64885330200195 85.11797332763672 34.40320205688477 84.05950164794922 29.46775245666504 81.97198486328125 C 24.69815254211426 79.95462036132812 20.41357040405273 77.06553649902344 16.73300361633301 73.38497161865234 C 13.05245304107666 69.70440673828125 10.16335296630859 65.41982269287109 8.145986557006836 60.65021896362305 C 6.058469772338867 55.71477127075195 5.000003337860107 50.46912002563477 5.000003337860107 45.05898666381836 C 5.000003337860107 39.64885330200195 6.058469772338867 34.40320205688477 8.145986557006836 29.46775245666504 C 10.16335296630859 24.69815254211426 13.05245304107666 20.41357040405273 16.73300361633301 16.73300361633301 C 20.41357040405273 13.05245304107666 24.69815254211426 10.16335296630859 29.46775245666504 8.145986557006836 C 34.40320205688477 6.058469772338867 39.64885330200195 5.000003337860107 45.05898666381836 5.000003337860107 C 50.46912002563477 5.000003337860107 55.71477127075195 6.058469772338867 60.65021896362305 8.145986557006836 C 65.41982269287109 10.16335296630859 69.70440673828125 13.05245304107666 73.38497161865234 16.73300361633301 C 77.06553649902344 20.41357040405273 79.95462036132812 24.69815254211426 81.97198486328125 29.46775245666504 C 84.05950164794922 34.40320205688477 85.11797332763672 39.64885330200195 85.11797332763672 45.05898666381836 C 85.11797332763672 50.46912002563477 84.05950164794922 55.71477127075195 81.97198486328125 60.65021896362305 C 79.95462036132812 65.41982269287109 77.06553649902344 69.70440673828125 73.38497161865234 73.38497161865234 C 69.70440673828125 77.06553649902344 65.41982269287109 79.95462036132812 60.65021896362305 81.97198486328125 C 55.71477127075195 84.05950164794922 50.46912002563477 85.11797332763672 45.05898666381836 85.11797332763672 Z" stroke="none"/>
        <path d="M 45.05898666381836 10.00000762939453 C 25.72740173339844 10.00000762939453 10.00000762939453 25.72740173339844 10.00000762939453 45.05898666381836 C 10.00000762939453 64.39057159423828 25.72740173339844 80.11796569824219 45.05898666381836 80.11796569824219 C 64.39057159423828 80.11796569824219 80.11796569824219 64.39057159423828 80.11796569824219 45.05898666381836 C 80.11796569824219 25.72740173339844 64.39057159423828 10.00000762939453 45.05898666381836 10.00000762939453 M 45.05898666381836 7.62939453125e-06 C 69.94438171386719 7.62939453125e-06 90.11796569824219 20.17359161376953 90.11796569824219 45.05898666381836 C 90.11796569824219 69.94438171386719 69.94438171386719 90.11796569824219 45.05898666381836 90.11796569824219 C 20.17359161376953 90.11796569824219 7.62939453125e-06 69.94438171386719 7.62939453125e-06 45.05898666381836 C 7.62939453125e-06 20.17359161376953 20.17359161376953 7.62939453125e-06 45.05898666381836 7.62939453125e-06 Z" stroke="none" fill="#fff"/>
      </g>
    </g>
    <g id="Grupo_131839" data-name="Grupo 131839" transform="translate(1090.605 785)">
      <path id="Trazado_187706" data-name="Trazado 187706" d="M101.039,570.512c0-2.008.01-4.016,0-6.023a.554.554,0,0,1,.326-.577q3.183-1.729,6.346-3.495a1.6,1.6,0,0,1,1.3-.153c2.228.64,4.463,1.254,6.688,1.9a5.771,5.771,0,0,1,4.226,5.474c.014.423-.022.849.016,1.269a1.459,1.459,0,0,1-.848,1.6Zm9.454-4.925c-1.188,0-2.375,0-3.563,0a1.235,1.235,0,1,0-.022,2.458q3.583.007,7.166,0a1.234,1.234,0,1,0-.019-2.458C112.868,565.585,111.68,565.587,110.493,565.587Z" transform="translate(-79.698 -528.513)" fill="#fff"/>
      <path id="Trazado_187707" data-name="Trazado 187707" d="M-158.219,570.594a1.4,1.4,0,0,1-.912-1.518,9.4,9.4,0,0,1,.357-3.195,5.894,5.894,0,0,1,4.205-3.726q3.154-.873,6.3-1.787a1.729,1.729,0,0,1,1.413.145c2.1,1.17,4.2,2.32,6.3,3.491a.609.609,0,0,1,.3.4c.016,2.062.007,4.124,0,6.186Zm8.552-2.465h0c1.174,0,2.348,0,3.522,0a1.246,1.246,0,0,0,1.385-1.234,1.236,1.236,0,0,0-1.385-1.226q-3.543,0-7.085,0a1.782,1.782,0,0,0-.446.04A1.239,1.239,0,0,0-154.6,567a1.243,1.243,0,0,0,1.245,1.127C-152.124,568.138-150.9,568.129-149.667,568.129Z" transform="translate(159.131 -528.594)" fill="#fff"/>
      <path id="Trazado_187708" data-name="Trazado 187708" d="M-16.02,174c.885.363,1,1.1.9,1.952a9.3,9.3,0,0,1,6.235,3.7,8.99,8.99,0,0,1,1.777,4.645,42.8,42.8,0,0,0-18.387-.006c-.021-2.738,2.455-7.482,7.932-8.34-.075-.833.012-1.619.971-1.948Zm.909,6.128a1.232,1.232,0,0,0-1.2-1.25,1.252,1.252,0,0,0-1.255,1.205,1.239,1.239,0,0,0,1.211,1.244A1.217,1.217,0,0,0-15.111,180.128Z" transform="translate(36.459 -174)" fill="#fff"/>
      <path id="Trazado_187709" data-name="Trazado 187709" d="M-87.374,320.633c-.784.282-1.514.537-2.235.814a.407.407,0,0,0-.171.29,6.062,6.062,0,0,0-.053.816c0,1.419,0,2.837,0,4.269a7.524,7.524,0,0,1-3.365-2.109,2.766,2.766,0,0,1,.069-3.806,7.91,7.91,0,0,1,3.469-2.094,27.461,27.461,0,0,1,7.055-1.384,41.017,41.017,0,0,1,7.78.08,23.311,23.311,0,0,1,7.447,1.817,6.543,6.543,0,0,1,2.218,1.587,2.81,2.81,0,0,1,.014,3.872,8,8,0,0,1-3.39,2.074c.023-.368.06-.7.06-1.031,0-1.285-.008-2.569-.008-3.854a.6.6,0,0,0-.47-.661c-.635-.2-1.259-.428-1.947-.665-.01.217-.022.36-.023.5-.009,1.189.03,2.38-.032,3.567a8.294,8.294,0,0,1-7.221,7.492,8.307,8.307,0,0,1-9.2-8.322C-87.367,322.835-87.374,321.783-87.374,320.633Z" transform="translate(99.272 -305.529)" fill="#fff"/>
      <path id="Trazado_187710" data-name="Trazado 187710" d="M29.142,510.616c0,.9.008,1.729-.01,2.56a.446.446,0,0,1-.219.3q-2.576,1.435-5.166,2.844a.491.491,0,0,1-.4-.006q-2.609-1.418-5.2-2.865a.4.4,0,0,1-.2-.265c-.015-.843-.009-1.687-.009-2.591A10.776,10.776,0,0,0,29.142,510.616Z" transform="translate(-3.411 -482.98)" fill="#fff"/>
    </g>
  </g>
</svg>
