<svg xmlns="http://www.w3.org/2000/svg" width="196" height="278" viewBox="0 0 196 278">
  <g id="Grupo_131960" data-name="Grupo 131960" transform="translate(-1224 -667)">
    <rect id="Rectángulo_41409" data-name="Rectángulo 41409" width="196" height="278" rx="10" transform="translate(1224 667)" fill="#8c6df2"/>
    <g id="Grupo_131834" data-name="Grupo 131834" transform="translate(1277 761.001)">
      <g id="Trazado_137458" data-name="Trazado 137458" fill="#8c6df2">
        <path d="M 45.05898666381836 85.11797332763672 C 39.64885330200195 85.11797332763672 34.40320205688477 84.05950164794922 29.46775245666504 81.97198486328125 C 24.69815254211426 79.95462036132812 20.41357040405273 77.06553649902344 16.73300361633301 73.38497161865234 C 13.05245304107666 69.70440673828125 10.16335296630859 65.41982269287109 8.145986557006836 60.65021896362305 C 6.058469772338867 55.71477127075195 5.000003337860107 50.46912002563477 5.000003337860107 45.05898666381836 C 5.000003337860107 39.64885330200195 6.058469772338867 34.40320205688477 8.145986557006836 29.46775245666504 C 10.16335296630859 24.69815254211426 13.05245304107666 20.41357040405273 16.73300361633301 16.73300361633301 C 20.41357040405273 13.05245304107666 24.69815254211426 10.16335296630859 29.46775245666504 8.145986557006836 C 34.40320205688477 6.058469772338867 39.64885330200195 5.000003337860107 45.05898666381836 5.000003337860107 C 50.46912002563477 5.000003337860107 55.71477127075195 6.058469772338867 60.65021896362305 8.145986557006836 C 65.41982269287109 10.16335296630859 69.70440673828125 13.05245304107666 73.38497161865234 16.73300361633301 C 77.06553649902344 20.41357040405273 79.95462036132812 24.69815254211426 81.97198486328125 29.46775245666504 C 84.05950164794922 34.40320205688477 85.11797332763672 39.64885330200195 85.11797332763672 45.05898666381836 C 85.11797332763672 50.46912002563477 84.05950164794922 55.71477127075195 81.97198486328125 60.65021896362305 C 79.95462036132812 65.41982269287109 77.06553649902344 69.70440673828125 73.38497161865234 73.38497161865234 C 69.70440673828125 77.06553649902344 65.41982269287109 79.95462036132812 60.65021896362305 81.97198486328125 C 55.71477127075195 84.05950164794922 50.46912002563477 85.11797332763672 45.05898666381836 85.11797332763672 Z" stroke="none"/>
        <path d="M 45.05898666381836 10.00000762939453 C 25.72740173339844 10.00000762939453 10.00000762939453 25.72740173339844 10.00000762939453 45.05898666381836 C 10.00000762939453 64.39057159423828 25.72740173339844 80.11796569824219 45.05898666381836 80.11796569824219 C 64.39057159423828 80.11796569824219 80.11796569824219 64.39057159423828 80.11796569824219 45.05898666381836 C 80.11796569824219 25.72740173339844 64.39057159423828 10.00000762939453 45.05898666381836 10.00000762939453 M 45.05898666381836 7.62939453125e-06 C 69.94438171386719 7.62939453125e-06 90.11796569824219 20.17359161376953 90.11796569824219 45.05898666381836 C 90.11796569824219 69.94438171386719 69.94438171386719 90.11796569824219 45.05898666381836 90.11796569824219 C 20.17359161376953 90.11796569824219 7.62939453125e-06 69.94438171386719 7.62939453125e-06 45.05898666381836 C 7.62939453125e-06 20.17359161376953 20.17359161376953 7.62939453125e-06 45.05898666381836 7.62939453125e-06 Z" stroke="none" fill="#fff"/>
      </g>
    </g>
    <g id="Grupo_131840" data-name="Grupo 131840" transform="translate(1306 785)">
      <g id="Grupo_131840-2" data-name="Grupo 131840" transform="translate(0)">
        <path id="Trazado_187711" data-name="Trazado 187711" d="M99.219,338.593a3.61,3.61,0,0,1-1.925-1.082,3.275,3.275,0,0,1-.768-2.194c0-7.194-.023-14.389.007-21.583a7.715,7.715,0,0,1,5.948-7.6c.078-.021.156-.047.271-.082,0-.347.016-.7-.009-1.053a.543.543,0,0,0-.2-.3c-.445-.4-.917-.762-1.344-1.175a.361.361,0,0,0-.446-.117A10.862,10.862,0,0,0,94.5,309c-.078.158-.158.315-.262.521l-2.863-1.184a14.53,14.53,0,0,1,6.375-7.07H91.88v-3.134h.476c3.078,0,6.155,0,9.232-.009a1.462,1.462,0,0,0,.721-.2,3.856,3.856,0,0,1,5.362,1.4.6.6,0,0,0,.627.374c.779-.027,1.559,0,2.339-.015a.455.455,0,0,0,.341-.134,3.972,3.972,0,0,1,3.3-1.9c2.823-.332,5.642-.7,8.463-1.05a2.01,2.01,0,0,1,.224,0v9.3c-.934-.113-1.839-.221-2.743-.334q-3.132-.391-6.265-.786A3.716,3.716,0,0,1,111.024,303a.483.483,0,0,0-.35-.193c-.848-.017-1.7-.018-2.544,0a.512.512,0,0,0-.373.217,4.132,4.132,0,0,1-1.657,1.658.534.534,0,0,0-.224.367,7.955,7.955,0,0,0-.011.856,23.549,23.549,0,0,1,2.734,1.324,7.525,7.525,0,0,1,3.481,6.056c.015.2.016.41.016.615q0,10.648,0,21.3a3.145,3.145,0,0,1-1.783,3.073,7.311,7.311,0,0,1-.92.319Zm.445-24.874v21.724h4.621V313.719Zm6.951-12.452a2.342,2.342,0,0,0-2.358-2.328,2.251,2.251,0,0,0-2.251,2.274,2.366,2.366,0,0,0,2.361,2.334A2.255,2.255,0,0,0,106.615,301.267Z" transform="translate(-91.38 -296.593)" fill="#fff"/>
        <path id="Trazado_187712" data-name="Trazado 187712" d="M188.2,325.611c.55.219,1.022.383,1.471.6a.517.517,0,0,1,.291.685,1.037,1.037,0,0,1-.518.488.527.527,0,0,1-.672-.327C188.57,326.611,188.408,326.153,188.2,325.611Z" transform="translate(-176.363 -322.065)" fill="#fff"/>
      </g>
    </g>
  </g>
</svg>
