<svg xmlns="http://www.w3.org/2000/svg" width="54.246" height="78" viewBox="0 0 54.246 78">
  <g id="Grupo_110043" data-name="Grupo 110043" transform="translate(16856.746 22875)">
    <g id="Grupo_109840" data-name="Grupo 109840" transform="translate(-17765.338 -24026.416)">
      <path id="Trazado_160452" data-name="Trazado 160452" d="M945.478,1199.116a4,4,0,0,1,4.817,1.081c.23.256.333.15.55.026a3.9,3.9,0,0,1,5.553,1.268c.208.308.349.333.648.171a3.978,3.978,0,0,1,5.769,3.664c.026,4.8.041,9.61-.006,14.415-.043,4.437-2.21,7.651-6.016,9.112a7.91,7.91,0,0,1-2.843.565c-2.98,0-5.961-.038-8.941-.039a9.162,9.162,0,0,1-7.65-4,17.508,17.508,0,0,1-1.517-2.487q-2.81-5.441-5.627-10.877a8.076,8.076,0,0,1-.976-2.644,3.72,3.72,0,0,1,5.106-4.169,5.476,5.476,0,0,1,1.573.778c.472.347.921.726,1.427,1.128a11.347,11.347,0,0,0,.062-2.118c.018-1.1-.012-2.21.013-3.314.009-.4-.091-.533-.509-.469a24.156,24.156,0,0,1-3.995.178,24.951,24.951,0,1,1,13-3.232C945.509,1198.376,945.278,1198.623,945.478,1199.116Zm-.072-3.217c.309-.178.508-.28.694-.4a22.776,22.776,0,1,0-9.325,3.547c.505-.07.683-.252.677-.776q-.04-3.583-.007-7.166a3.986,3.986,0,1,1,7.959.023C945.411,1192.666,945.405,1194.206,945.405,1195.9Zm-5.817,4.9q0,1.156,0,2.312.006,3.661.016,7.322a1.127,1.127,0,0,1-.608,1.144,1.02,1.02,0,0,1-1.147-.125,2.308,2.308,0,0,1-.477-.687c-.983-1.486-1.992-2.967-3.809-3.535-1.489-.466-2.514.536-2.135,2.047a8.976,8.976,0,0,0,.8,1.911q2.68,5.191,5.362,10.382a15.5,15.5,0,0,0,1.877,2.992,6.717,6.717,0,0,0,5.183,2.622c2.954.032,5.909.05,8.863.071a7.013,7.013,0,0,0,5.723-2.819,7.739,7.739,0,0,0,1.4-5.094c.03-4.573.01-9.146.009-13.72a4.109,4.109,0,0,0-.022-.538,1.818,1.818,0,0,0-3.632.115c-.025.41,0,.822-.01,1.233-.013.857-.382,1.3-1.075,1.3s-1.057-.449-1.069-1.311c-.014-1,.025-2.005-.022-3.005a1.786,1.786,0,0,0-1.794-1.666,1.718,1.718,0,0,0-1.763,1.664c-.055,1.076-.042,2.156-.075,3.234-.025.8-.429,1.227-1.092,1.208-.633-.018-1.01-.432-1.023-1.194-.022-1.257-.025-2.514-.017-3.771a1.86,1.86,0,0,0-1.822-1.971,1.8,1.8,0,0,0-1.807,1.887c-.016,1.387-.007,2.775-.012,4.162,0,.945-.405,1.472-1.1,1.456-.667-.015-1.048-.524-1.049-1.424q0-3.661,0-7.323c0-2.9.008-5.807-.006-8.71a1.822,1.822,0,0,0-3.639-.183,6.29,6.29,0,0,0-.021.77Q939.588,1196.173,939.589,1200.8Z" fill="#040303"/>
      <path id="Trazado_160453" data-name="Trazado 160453" d="M953.674,1204.432c0-1.693.005-3.233,0-4.773a3.986,3.986,0,1,0-7.96-.023q-.031,3.583.007,7.166c.006.525-.171.706-.677.776a22.906,22.906,0,1,1,9.325-3.547C954.182,1204.151,953.983,1204.254,953.674,1204.432Zm-18.266-19.14c0,2.955-.014,5.91.006,8.865.009,1.293.77,1.735,1.867,1.1q7.673-4.415,15.335-8.851c1.1-.639,1.092-1.529-.009-2.173-1.75-1.024-3.51-2.029-5.266-3.042q-5-2.886-10-5.772c-.792-.456-1.325-.41-1.706.126a1.8,1.8,0,0,0-.225,1.112Q935.405,1180.975,935.408,1185.292Zm21.53,13.718a7.26,7.26,0,0,0-10.83-5.917,7.052,7.052,0,0,0-3.677,6.19,1.056,1.056,0,0,0,1.028,1.191,1.076,1.076,0,0,0,1.1-1.062c.017-.127.01-.256.018-.384a5.131,5.131,0,0,1,6.276-4.612,5.071,5.071,0,0,1,3.939,4.651c0,.026,0,.051,0,.077.081.9.5,1.379,1.164,1.336S956.968,1199.937,956.939,1199.01Z" transform="translate(-8.269 -8.533)" fill="#3d46c2"/>
      <path id="Trazado_160454" data-name="Trazado 160454" d="M1027.275,1345.812q0-4.625,0-9.25a6.288,6.288,0,0,1,.021-.77,1.822,1.822,0,0,1,3.639.183c.014,2.9.005,5.807.005,8.71q0,3.661,0,7.323c0,.9.382,1.409,1.049,1.424.694.016,1.1-.511,1.1-1.456.005-1.387,0-2.775.012-4.162a1.8,1.8,0,0,1,1.807-1.887,1.86,1.86,0,0,1,1.822,1.971c-.008,1.257-.005,2.514.017,3.771.013.763.39,1.176,1.023,1.194.663.019,1.067-.412,1.092-1.208.034-1.078.02-2.157.075-3.234a1.718,1.718,0,0,1,1.763-1.664,1.786,1.786,0,0,1,1.794,1.666c.048,1,.008,2,.022,3.005.012.862.388,1.308,1.069,1.311s1.063-.442,1.075-1.3c.006-.411-.015-.823.01-1.233a1.818,1.818,0,0,1,3.632-.115,4.118,4.118,0,0,1,.022.538c0,4.573.021,9.147-.009,13.72a7.739,7.739,0,0,1-1.4,5.094,7.013,7.013,0,0,1-5.723,2.819c-2.954-.021-5.909-.039-8.863-.071a6.716,6.716,0,0,1-5.183-2.621,15.492,15.492,0,0,1-1.877-2.992q-2.688-5.187-5.362-10.382a8.973,8.973,0,0,1-.8-1.911c-.379-1.511.647-2.513,2.135-2.047,1.817.569,2.826,2.049,3.809,3.535a2.311,2.311,0,0,0,.477.687,1.02,1.02,0,0,0,1.148.125,1.127,1.127,0,0,0,.608-1.144q-.012-3.661-.016-7.322Q1027.274,1346.968,1027.275,1345.812Z" transform="translate(-87.687 -145.014)" fill="#fcdfc6"/>
      <path id="Trazado_160455" data-name="Trazado 160455" d="M998.59,1235.177q0-4.317,0-8.633a1.8,1.8,0,0,1,.225-1.112c.381-.535.914-.582,1.706-.126q5,2.882,10,5.772c1.756,1.014,3.516,2.019,5.266,3.043,1.1.645,1.112,1.534.01,2.173q-7.66,4.439-15.335,8.851c-1.1.631-1.858.189-1.867-1.1C998.577,1241.086,998.59,1238.131,998.59,1235.177Zm14.808.03c-4.117-2.377-8.137-4.689-12.146-7.021-.516-.3-.528-.068-.526.354.009,2.312,0,4.624,0,6.936,0,2.106.019,4.213-.011,6.319-.009.667.18.678.667.361s1.019-.593,1.529-.888Z" transform="translate(-71.451 -58.417)" fill="#030202"/>
      <path id="Trazado_160456" data-name="Trazado 160456" d="M1047.2,1314.489c.03.927-.3,1.425-.974,1.469s-1.083-.44-1.164-1.336c0-.026,0-.051,0-.077a5.071,5.071,0,0,0-3.939-4.651,5.131,5.131,0,0,0-6.276,4.612c-.008.128,0,.258-.018.385a1.076,1.076,0,0,1-1.1,1.062,1.056,1.056,0,0,1-1.028-1.191,7.052,7.052,0,0,1,3.677-6.19A7.26,7.26,0,0,1,1047.2,1314.489Z" transform="translate(-98.525 -124.011)" fill="#030202"/>
      <path id="Trazado_160457" data-name="Trazado 160457" d="M1021.612,1246.985l-10.483,6.06c-.511.3-1.036.567-1.529.888s-.677.306-.667-.361c.03-2.106.011-4.212.011-6.319,0-2.312.005-4.624,0-6.936,0-.422.01-.654.526-.354C1013.475,1242.3,1017.495,1244.609,1021.612,1246.985Z" transform="translate(-79.665 -70.195)" fill="#e1dce0"/>
    </g>
  </g>
</svg>
