<svg xmlns="http://www.w3.org/2000/svg" width="483" height="226.129" viewBox="0 0 483 226.129">
  <g id="Grupo_131956" data-name="Grupo 131956" transform="translate(9935 12014)">
    <g id="Grupo_131955" data-name="Grupo 131955" transform="translate(-10850 -12426)">
      <g id="Grupo_130790" data-name="Grupo 130790" transform="translate(915 412)">
        <g id="Grupo_130789" data-name="Grupo 130789" transform="translate(0 0)">
          <path id="Trazado_115813" data-name="Trazado 115813" d="M394.5,44.517a264.335,264.335,0,0,1-23.822,22.3,194.606,194.606,0,0,1-26.9,18.595A141.339,141.339,0,0,1,313.2,98.547a99.558,99.558,0,0,1-16.87,3.344c-1.454.126-2.908.287-4.383.333-.736.032-1.471.077-2.211.094l-2.227.009c-1.5.014-2.934-.049-4.412-.076-1.459-.09-2.933-.149-4.391-.292-11.723-1.02-23.077-4.294-33.649-8.407-10.605-4.12-20.523-9.092-30.064-13.852-4.767-2.39-9.462-4.715-14.079-6.876-2.312-1.093-4.6-2.116-6.876-3.117-1.135-.479-2.27-.978-3.4-1.433l-3.492-1.417c-9.724-3.935-19.227-7.6-28.584-10.522-4.675-1.464-9.3-2.743-13.855-3.77-2.275-.514-4.53-.968-6.758-1.349s-4.432-.667-6.595-.888c-8.661-.907-16.672-.446-23.326,1.411a42.44,42.44,0,0,0-4.765,1.636c-.759.306-1.493.647-2.216.99l-1.065.538c-.32.182-.641.35-.955.542a33.339,33.339,0,0,0-6.909,5.367c-.511.524-1.01,1.055-1.485,1.611L88.789,64.5c-.638.715-1.208,1.462-1.816,2.177-.586.729-1.121,1.479-1.686,2.2A55.788,55.788,0,0,0,79.9,77.9a49.98,49.98,0,0,0-3.367,9.274A50.506,50.506,0,0,0,75.017,96.8a72.375,72.375,0,0,0,1.842,20.649A108.334,108.334,0,0,0,84.5,139.2a116.678,116.678,0,0,0,5.613,10.574c1.015,1.7,2.067,3.359,3.12,4.922.526.775,1.061,1.524,1.573,2.2.255.337.509.665.736.931a4.509,4.509,0,0,0,.314.348c.04.032.1.1.113.088l.019,0s.023.023-.006-.038l-.111-.252A45.43,45.43,0,0,1,17.179,203.4l-.356-.684-.228-.468-.364-.782-.622-1.4c-.392-.9-.743-1.753-1.085-2.6-.68-1.683-1.3-3.315-1.9-4.934-1.188-3.232-2.264-6.419-3.26-9.615-1.988-6.386-3.644-12.807-5.044-19.328A189.236,189.236,0,0,1,0,123.1,143.229,143.229,0,0,1,6.344,80.65a125.1,125.1,0,0,1,8.481-20.471,116.342,116.342,0,0,1,12-18.458,120,120,0,0,1,14.709-15.5c1.324-1.129,2.634-2.277,3.975-3.362,1.352-1.061,2.688-2.153,4.058-3.163l2.059-1.5c.7-.506,1.322-.966,2.162-1.547,1.58-1.112,3.2-2.164,4.849-3.173A90.9,90.9,0,0,1,79.694,3.977c.92-.288,1.853-.54,2.781-.8.91-.235,1.808-.462,2.714-.677C87,2.086,88.814,1.707,90.63,1.4A96.563,96.563,0,0,1,101.47.158a104.7,104.7,0,0,1,20.786.937,126.273,126.273,0,0,1,18.973,4.274,192.557,192.557,0,0,1,33.019,13.87c10.149,5.318,19.608,11.108,28.71,16.847l3.55,2.249c1.218.772,2.394,1.562,3.586,2.344,2.344,1.579,4.662,3.166,6.9,4.768,4.513,3.2,8.833,6.422,13.1,9.554,8.515,6.274,16.725,12.308,25.188,17.41a100.531,100.531,0,0,0,26.373,11.659c1.148.317,2.307.555,3.467.834l1.749.338.878.171c.291.051.578.08.867.121l1.736.234c.582.067,1.17.107,1.757.164,1.172.13,2.363.153,3.553.218,1.193.038,2.4.035,3.6.031,1.207-.056,2.419-.044,3.634-.154l1.826-.128c.61-.046,1.219-.125,1.829-.187,1.221-.119,2.441-.3,3.663-.489,1.226-.16,2.44-.427,3.666-.636,1.221-.234,2.438-.518,3.66-.78,1.209-.321,2.426-.62,3.636-.959,1.2-.365,2.42-.686,3.617-1.085,2.407-.759,4.788-1.621,7.143-2.569,1.18-.469,2.359-.943,3.521-1.463l1.75-.767,1.725-.823a129.17,129.17,0,0,0,25.937-16.444,126.737,126.737,0,0,0,21.445-22.12,5.376,5.376,0,1,1,8.211,6.916Z" transform="translate(0 0)" fill="#fdb74d"/>
          <g id="Grupo_80729" data-name="Grupo 80729" transform="translate(85 8.466)">
            <ellipse id="Elipse_4784" data-name="Elipse 4784" cx="149" cy="100" rx="149" ry="100" transform="translate(0 0)" fill="#8c6df2" opacity="0.25"/>
          </g>
        </g>
      </g>
      <g id="OBJECT" transform="translate(1000 440.492)">
        <g id="Grupo_80294" data-name="Grupo 80294" transform="translate(82.282 67.849)">
          <ellipse id="Elipse_4785" data-name="Elipse 4785" cx="5.411" cy="5.411" rx="5.411" ry="5.411" transform="translate(0 10.534) rotate(-76.763)" fill="#fff"/>
        </g>
        <g id="Grupo_80300" data-name="Grupo 80300" transform="translate(0 0)">
          <g id="Grupo_80299" data-name="Grupo 80299">
            <g id="Grupo_80298" data-name="Grupo 80298">
              <g id="Grupo_80295" data-name="Grupo 80295" transform="translate(0 144.039)">
                <path id="Rectángulo_36095" data-name="Rectángulo 36095" d="M11.964,0H278.728a11.964,11.964,0,0,1,11.964,11.964V23.777a0,0,0,0,1,0,0H0a0,0,0,0,1,0,0V11.964A11.964,11.964,0,0,1,11.964,0Z" transform="translate(11.478)" fill="#c5bce8"/>
                <rect id="Rectángulo_36096" data-name="Rectángulo 36096" width="290.692" height="6.707" transform="translate(11.478 17.07)" fill="#bdb1dd"/>
                <rect id="Rectángulo_36097" data-name="Rectángulo 36097" width="315" height="3.87" transform="translate(0 23.777)" fill="#a79bd3"/>
              </g>
              <g id="Grupo_80297" data-name="Grupo 80297" transform="translate(101.943)">
                <g id="Grupo_80296" data-name="Grupo 80296">
                  <path id="Trazado_115042" data-name="Trazado 115042" d="M288.537,372.145H149.585l9.249-28.4,1.675-5.134,1.654-5.079H276.526l1.552,5,1.62,5.2Z" transform="translate(-145.696 -204.482)" fill="#8c8cea"/>
                  <rect id="Rectángulo_36098" data-name="Rectángulo 36098" width="15.213" height="12.486" transform="translate(65.198 8.898)" fill="#ce9e4a"/>
                  <path id="Trazado_115043" data-name="Trazado 115043" d="M283.3,345.674a73.543,73.543,0,0,1-38.481,28.418H200.9a73.5,73.5,0,0,1-38.46-28.4l1.675-5.134a73.438,73.438,0,0,0,117.568-.082Z" transform="translate(-149.3 -206.429)" fill="#7878d1"/>
                  <rect id="Rectángulo_36099" data-name="Rectángulo 36099" width="32.004" height="11.194" rx="1.834" transform="translate(56.73)" fill="#e7b142"/>
                  <path id="Trazado_115044" data-name="Trazado 115044" d="M290.945,250.88a73.382,73.382,0,1,1-133.229-42.473l.006-.007a73.386,73.386,0,0,1,133.223,42.48Z" transform="translate(-144.18 -160.732)" fill="#a5a5ff"/>
                  <path id="Trazado_115045" data-name="Trazado 115045" d="M226.729,177.3a73.1,73.1,0,0,0-49.393,19.126A73.382,73.382,0,0,1,273.1,306.968c-.994,1.018,3.294-2.112,6.133-5.02a73.379,73.379,0,0,0-52.5-124.651Z" transform="translate(-153.477 -160.675)" fill="#cacaff"/>
                  <path id="Trazado_115046" data-name="Trazado 115046" d="M270.061,314.191a73.384,73.384,0,0,1-112.345-93.744l.006-.007Z" transform="translate(-144.18 -172.772)" fill="#9b9bf9"/>
                  <path id="Trazado_115047" data-name="Trazado 115047" d="M280.448,257.582A56.184,56.184,0,1,1,224.261,201.4,56.012,56.012,0,0,1,280.448,257.582Z" transform="translate(-150.882 -167.434)" fill="#f4eeff"/>
                  <path id="Trazado_115048" data-name="Trazado 115048" d="M245.372,220.6h0a2.679,2.679,0,0,1-2.679-2.679V210.46a2.679,2.679,0,0,1,2.679-2.679h0a2.679,2.679,0,0,1,2.679,2.679v7.463A2.679,2.679,0,0,1,245.372,220.6Z" transform="translate(-171.803 -169.223)" fill="#6f6fb2"/>
                  <path id="Trazado_115049" data-name="Trazado 115049" d="M263.706,306.712a56.182,56.182,0,0,1-85.069-72.791Z" transform="translate(-150.882 -176.552)" fill="#eae1ff"/>
                  <path id="Trazado_115050" data-name="Trazado 115050" d="M282.986,239.025h0a1.8,1.8,0,0,1-.125-2.542l3.367-3.714a1.8,1.8,0,0,1,2.542-.124h0a1.8,1.8,0,0,1,.125,2.542l-1.683,1.857-1.684,1.857A1.8,1.8,0,0,1,282.986,239.025Z" transform="translate(-182.935 -176.064)" fill="#6f6fb2"/>
                  <path id="Trazado_115051" data-name="Trazado 115051" d="M194.966,325.981h0a1.8,1.8,0,0,1-.124-2.542l3.367-3.713a1.8,1.8,0,0,1,2.542-.125h0a1.8,1.8,0,0,1,.124,2.542L199.191,324l-1.684,1.857A1.8,1.8,0,0,1,194.966,325.981Z" transform="translate(-158.255 -200.446)" fill="#6f6fb2"/>
                  <path id="Trazado_115052" data-name="Trazado 115052" d="M202.08,239.025h0a1.8,1.8,0,0,0,.124-2.542l-3.367-3.714a1.8,1.8,0,0,0-2.542-.124h0a1.8,1.8,0,0,0-.125,2.542l1.683,1.857,1.684,1.857A1.8,1.8,0,0,0,202.08,239.025Z" transform="translate(-158.628 -176.064)" fill="#6f6fb2"/>
                  <path id="Trazado_115053" data-name="Trazado 115053" d="M290.1,325.981h0a1.8,1.8,0,0,0,.125-2.542l-3.367-3.713a1.8,1.8,0,0,0-2.542-.125h0a1.8,1.8,0,0,0-.124,2.542L285.875,324l1.684,1.857A1.8,1.8,0,0,0,290.1,325.981Z" transform="translate(-183.308 -200.446)" fill="#6f6fb2"/>
                  <rect id="Rectángulo_36100" data-name="Rectángulo 36100" width="5.358" height="12.821" rx="2.679" transform="translate(70.89 127.922)" fill="#6f6fb2"/>
                  <rect id="Rectángulo_36101" data-name="Rectángulo 36101" width="5.358" height="12.821" rx="2.679" transform="translate(123.992 86.972) rotate(90)" fill="#6f6fb2"/>
                  <rect id="Rectángulo_36102" data-name="Rectángulo 36102" width="5.358" height="12.821" rx="2.679" transform="translate(34.628 86.972) rotate(90)" fill="#6f6fb2"/>
                  <path id="Trazado_115054" data-name="Trazado 115054" d="M261.742,288.511l-.615-6.817-2.3,2.5-12.08-10.967a4.875,4.875,0,0,0-3.127-7.451V242.1h3.106l-4.3-5.071-4.6,5.071h3.4v23.8a4.88,4.88,0,1,0,3.753,8.959l12.225,11.1-2.1,2.284Z" transform="translate(-170.425 -177.423)" fill="#6f6fb2"/>
                  <ellipse id="Elipse_4786" data-name="Elipse 4786" cx="4.898" cy="4.898" rx="4.898" ry="4.898" transform="translate(87.777 44.969)" fill="#eae1ff"/>
                </g>
                <rect id="Rectángulo_36103" data-name="Rectángulo 36103" width="1.428" height="8.404" rx="0.714" transform="translate(58.651 1.374)" fill="#ce9e4a"/>
                <rect id="Rectángulo_36104" data-name="Rectángulo 36104" width="1.428" height="8.404" rx="0.714" transform="translate(64.025 1.374)" fill="#ce9e4a"/>
                <rect id="Rectángulo_36105" data-name="Rectángulo 36105" width="1.428" height="8.404" rx="0.714" transform="translate(69.398 1.374)" fill="#ce9e4a"/>
                <rect id="Rectángulo_36106" data-name="Rectángulo 36106" width="1.428" height="8.404" rx="0.714" transform="translate(74.772 1.374)" fill="#ce9e4a"/>
                <rect id="Rectángulo_36107" data-name="Rectángulo 36107" width="1.428" height="8.404" rx="0.714" transform="translate(80.146 1.374)" fill="#ce9e4a"/>
                <rect id="Rectángulo_36108" data-name="Rectángulo 36108" width="1.428" height="8.404" rx="0.714" transform="translate(85.519 1.374)" fill="#ce9e4a"/>
              </g>
            </g>
          </g>
        </g>
        <g id="Grupo_80305" data-name="Grupo 80305" transform="translate(35.22 7.853)">
          <g id="Grupo_80304" data-name="Grupo 80304">
            <g id="Grupo_80302" data-name="Grupo 80302" transform="translate(17.611)">
              <path id="Trazado_115055" data-name="Trazado 115055" d="M151.376,168.589v54.94a3.109,3.109,0,0,1-3.1,3.109H86.221a3.1,3.1,0,0,1-3.1-3.109v-54.94Z" transform="translate(-83.119 -157.572)" fill="#6f6fb2"/>
              <path id="Trazado_115056" data-name="Trazado 115056" d="M151.376,164.434v8.278H83.119v-8.278a1.814,1.814,0,0,1,.006-.184,6.507,6.507,0,0,1,6.507-6.33h55.231a6.507,6.507,0,0,1,6.507,6.33A1.814,1.814,0,0,1,151.376,164.434Z" transform="translate(-83.119 -154.299)" fill="#a5a5ff"/>
              <path id="Trazado_115057" data-name="Trazado 115057" d="M150.2,229.238a3.073,3.073,0,0,1-1.923.672H86.221a3.1,3.1,0,0,1-3.1-3.109V179.257Z" transform="translate(-83.119 -160.844)" fill="#5f5fa0"/>
              <path id="Trazado_115058" data-name="Trazado 115058" d="M102.7,162.651h0a2.2,2.2,0,0,1-2.2-2.2V154.9a2.2,2.2,0,0,1,2.2-2.2h0a2.2,2.2,0,0,1,2.2,2.2v5.555A2.2,2.2,0,0,1,102.7,162.651Z" transform="translate(-88.451 -152.697)" fill="#6f6fb2"/>
              <path id="Trazado_115059" data-name="Trazado 115059" d="M131.124,162.651h0a2.2,2.2,0,0,1-2.2-2.2V154.9a2.2,2.2,0,0,1,2.2-2.2h0a2.2,2.2,0,0,1,2.2,2.2v5.555A2.2,2.2,0,0,1,131.124,162.651Z" transform="translate(-97.169 -152.697)" fill="#6f6fb2"/>
              <path id="Trazado_115060" data-name="Trazado 115060" d="M157.769,162.651h0a2.2,2.2,0,0,1-2.2-2.2V154.9a2.2,2.2,0,0,1,2.2-2.2h0a2.2,2.2,0,0,1,2.2,2.2v5.555A2.2,2.2,0,0,1,157.769,162.651Z" transform="translate(-105.342 -152.697)" fill="#6f6fb2"/>
              <path id="Trazado_115061" data-name="Trazado 115061" d="M105.337,198.723H96.76a1.649,1.649,0,0,1-1.649-1.649V188.5a1.649,1.649,0,0,1,1.649-1.649h8.576a1.649,1.649,0,0,1,1.649,1.649v8.576A1.649,1.649,0,0,1,105.337,198.723Z" transform="translate(-86.797 -163.172)" fill="none" stroke="#fff" stroke-miterlimit="10" stroke-width="1"/>
              <path id="Trazado_115062" data-name="Trazado 115062" d="M134.011,198.723h-8.576a1.649,1.649,0,0,1-1.649-1.649V188.5a1.649,1.649,0,0,1,1.649-1.649h8.576a1.65,1.65,0,0,1,1.649,1.649v8.576A1.65,1.65,0,0,1,134.011,198.723Z" transform="translate(-95.592 -163.172)" fill="none" stroke="#fff" stroke-miterlimit="10" stroke-width="1"/>
              <path id="Trazado_115063" data-name="Trazado 115063" d="M162.684,198.723h-8.576a1.65,1.65,0,0,1-1.649-1.649V188.5a1.65,1.65,0,0,1,1.649-1.649h8.576a1.649,1.649,0,0,1,1.649,1.649v8.576A1.649,1.649,0,0,1,162.684,198.723Z" transform="translate(-104.387 -163.172)" fill="none" stroke="#fff" stroke-miterlimit="10" stroke-width="1"/>
              <path id="Trazado_115064" data-name="Trazado 115064" d="M134.011,226.573h-8.576a1.649,1.649,0,0,1-1.649-1.649v-8.576a1.65,1.65,0,0,1,1.649-1.649h8.576a1.65,1.65,0,0,1,1.649,1.649v8.576A1.65,1.65,0,0,1,134.011,226.573Z" transform="translate(-95.592 -171.714)" fill="#e7b142"/>
              <path id="Trazado_115065" data-name="Trazado 115065" d="M105.337,226.573H96.76a1.649,1.649,0,0,1-1.649-1.649v-8.576A1.65,1.65,0,0,1,96.76,214.7h8.576a1.65,1.65,0,0,1,1.649,1.649v8.576A1.649,1.649,0,0,1,105.337,226.573Z" transform="translate(-86.797 -171.714)" fill="none" stroke="#fff" stroke-miterlimit="10" stroke-width="1"/>
              <path id="Trazado_115066" data-name="Trazado 115066" d="M162.684,226.573h-8.576a1.65,1.65,0,0,1-1.649-1.649v-8.576a1.65,1.65,0,0,1,1.649-1.649h8.576a1.65,1.65,0,0,1,1.649,1.649v8.576A1.649,1.649,0,0,1,162.684,226.573Z" transform="translate(-104.387 -171.714)" fill="none" stroke="#fff" stroke-miterlimit="10" stroke-width="1"/>
              <g id="Grupo_80301" data-name="Grupo 80301" transform="translate(49.564 25.479)">
                <line id="Línea_141" data-name="Línea 141" x2="8.576" y2="8.444" fill="none" stroke="#fff" stroke-linecap="round" stroke-linejoin="round" stroke-width="1"/>
                <line id="Línea_142" data-name="Línea 142" x1="8.576" y2="8.444" transform="translate(0.156)" fill="none" stroke="#fff" stroke-linecap="round" stroke-linejoin="round" stroke-width="1"/>
              </g>
              <path id="Trazado_115067" data-name="Trazado 115067" d="M125.048,223.413l2.859,2.155,6.773-8.268" transform="translate(-95.98 -172.512)" fill="none" stroke="#fff" stroke-linecap="round" stroke-linejoin="round" stroke-width="1"/>
              <path id="Trazado_115068" data-name="Trazado 115068" d="M151.376,167.234v8.278H83.119v-8.278a1.814,1.814,0,0,1,.006-.184H151.37A1.814,1.814,0,0,1,151.376,167.234Z" transform="translate(-83.119 -157.099)" fill="#9494ed"/>
            </g>
            <g id="Grupo_80303" data-name="Grupo 80303" transform="translate(0 48.306)">
              <path id="Trazado_115069" data-name="Trazado 115069" d="M62.16,367.854l-1.121,8.06h5.828l1.289-8.06Z" transform="translate(-58.735 -266.998)" fill="#e2b3de"/>
              <path id="Trazado_115070" data-name="Trazado 115070" d="M60.766,378a19.329,19.329,0,0,0-1.084,5.188H72.525s-.547-4-5.942-4.987C66.583,378.2,64.812,378.661,60.766,378Z" transform="translate(-58.319 -270.111)" fill="#4a4a89"/>
              <path id="Trazado_115071" data-name="Trazado 115071" d="M96.021,368.548l1.482,7.636h6.022l-1.576-7.636Z" transform="translate(-69.465 -267.211)" fill="#e2b3de"/>
              <path id="Trazado_115072" data-name="Trazado 115072" d="M97.227,376.891a18.152,18.152,0,0,0-.911,5.958h15.572a6.118,6.118,0,0,0-3.011-3.717,16.122,16.122,0,0,0-5.494-1.479S102.748,379.024,97.227,376.891Z" transform="translate(-69.549 -269.77)" fill="#4a4a89"/>
              <path id="Trazado_115073" data-name="Trazado 115073" d="M93.7,344.472H80.859l-5.519-37.1-5.288,37.1H57.716s3.379-37.566,5.493-45.727a20.526,20.526,0,0,1,6.059-10.439,9.3,9.3,0,0,1,1.048-.817l14.778,2.516Z" transform="translate(-57.716 -242.348)" fill="#4a4a89"/>
              <path id="Trazado_115074" data-name="Trazado 115074" d="M73.733,289.1a16.234,16.234,0,0,0-7.33,9.372c-1.746,5.848-5.374,38.68-6.211,46.359H57.716s3.379-37.566,5.493-45.727a20.526,20.526,0,0,1,6.059-10.439Z" transform="translate(-57.716 -242.71)" fill="#5d5da3"/>
              <path id="Trazado_115075" data-name="Trazado 115075" d="M96.695,259.564l13.145,5.274-1.974,5.455-11.681-3.9Z" transform="translate(-69.515 -233.783)" fill="#e2b3de"/>
              <path id="Trazado_115076" data-name="Trazado 115076" d="M84.96,234.833s-2.556-1.767-6.644.491S74.5,243.75,71.99,246.564s-4.978,7.023-.967,10.488,12.935,3.563,17.317-1.07,3.249-14.543,1.476-18.247S84.96,234.833,84.96,234.833Z" transform="translate(-61.148 -225.995)" fill="#3a3a6b"/>
              <path id="Trazado_115077" data-name="Trazado 115077" d="M92.6,264.562l-3.694,15.807-15.642-1.034h-.04l-1.08-16.123a7.653,7.653,0,0,1,8.133-7.125l5.2.342a7.645,7.645,0,0,1,7.119,8.133Z" transform="translate(-62.142 -232.711)" fill="#a5a5ff"/>
              <path id="Trazado_115078" data-name="Trazado 115078" d="M93.112,265.718l-3.7,15.807-15.642-1.034,17.433-20.345A7.609,7.609,0,0,1,93.112,265.718Z" transform="translate(-62.642 -233.961)" fill="#9595ef"/>
              <path id="Trazado_115079" data-name="Trazado 115079" d="M92.649,244.271c-.191,2.9-1.824,5.21-4.6,5.579l-.066.994-.04.547-1.929-.132-2.305-.152.151-2.266a6,6,0,0,1-2.463-3.715,5.653,5.653,0,0,1-.112-1.607,5.986,5.986,0,0,1,6.368-5.578C90.957,238.159,92.867,240.978,92.649,244.271Z" transform="translate(-64.942 -227.147)" fill="#ffe0fa"/>
              <path id="Trazado_115080" data-name="Trazado 115080" d="M88.108,252.915l-.066.994a11.571,11.571,0,0,1-1.969.415l-2.305-.152.151-2.266a6,6,0,0,1-2.463-3.715l1.211-.27A12.417,12.417,0,0,0,88.108,252.915Z" transform="translate(-64.998 -230.212)" fill="#e2b3de"/>
              <path id="Trazado_115081" data-name="Trazado 115081" d="M89.662,256.727l-7.492-.5.163-.342a1.755,1.755,0,0,1,1.728-.87l3.886.257a1.755,1.755,0,0,1,1.6,1.09Z" transform="translate(-65.217 -232.387)" fill="#4a4a89"/>
              <path id="Trazado_115082" data-name="Trazado 115082" d="M89.182,238.129s.431,1.067-2.04,4.146a9.2,9.2,0,0,1-5.826,3.378s-1.358-3.64,1.162-6.367C82.478,239.285,85.625,235.937,89.182,238.129Z" transform="translate(-64.843 -226.98)" fill="#3a3a6b"/>
              <path id="Trazado_115083" data-name="Trazado 115083" d="M130.471,235.864l-13.324,54.071-15.181-4.011,11.921-54.434,11.585-9.115Z" transform="translate(-71.289 -222.376)" fill="#b8b2ff"/>
              <path id="Trazado_115084" data-name="Trazado 115084" d="M123.45,226.965l-14.892,64.38,5.9.81,14.913-63.307Z" transform="translate(-73.311 -223.783)" fill="#a19fed"/>
              <path id="Trazado_115085" data-name="Trazado 115085" d="M101.162,280.446a.592.592,0,0,1-.764.369l-2.134-.757.006.177,1.93.771a.6.6,0,0,1-.428,1.126l-1.482-.527v.178l1.363.546a.6.6,0,0,1-.428,1.127l-.916-.323.007.2.81.329a.6.6,0,0,1,.382.56.7.7,0,0,1-.033.191.6.6,0,0,1-.771.376l-.369-.132v.019s-3.708,1.258-4.524.731l-12.995-1.423a5.3,5.3,0,0,1-.862-.171,5.676,5.676,0,0,1-3.109-2.173,5.507,5.507,0,0,1-.823-1.66l-3.938-12.968a3.2,3.2,0,0,1,6.092-1.99l4.406,12.626,11.98,2.285v.007l3.681-1.206,2.562.962A.592.592,0,0,1,101.162,280.446Z" transform="translate(-62.08 -234.797)" fill="#ffe0fa"/>
              <path id="Trazado_115086" data-name="Trazado 115086" d="M135.745,235.864c-9.675,2.885-16.583-4.373-16.583-4.373l7.541-5.934,4.044-3.181,1.877,5.065Z" transform="translate(-76.563 -222.376)" fill="#e1d7f7"/>
              <path id="Trazado_115087" data-name="Trazado 115087" d="M102.79,307.553l15.32,3.947-1.17,5.1a3.911,3.911,0,0,1-4.727,2.929l-7.776-1.869a3.911,3.911,0,0,1-2.9-4.682Z" transform="translate(-71.127 -248.502)" fill="#6f6fb2"/>
              <path id="Trazado_115088" data-name="Trazado 115088" d="M135.96,227.441a5.924,5.924,0,0,1-3.484-.013,5.128,5.128,0,0,1-2.437-1.87l4.044-3.181Z" transform="translate(-79.9 -222.376)" fill="#6f6fb2"/>
              <path id="Trazado_115089" data-name="Trazado 115089" d="M83.154,313.9l2.62-5.134L92.087,351H88.675Z" transform="translate(-65.519 -248.873)" fill="#3a3a6b"/>
              <path id="Trazado_115090" data-name="Trazado 115090" d="M108.183,285.751l-3.837,4.915.152-3.71Z" transform="translate(-72.019 -241.815)" fill="#e2b3de"/>
              <path id="Trazado_115091" data-name="Trazado 115091" d="M82.235,291.264a1.93,1.93,0,0,1-.112.652,5.676,5.676,0,0,1-3.109-2.173,1.949,1.949,0,0,1,1.251-.448A1.97,1.97,0,0,1,82.235,291.264Z" transform="translate(-64.249 -242.902)" fill="#e2b3de"/>
              <path id="Trazado_115092" data-name="Trazado 115092" d="M67.584,336.812l5.787.494a2.729,2.729,0,0,1-2.47,2.47A2.872,2.872,0,0,1,67.584,336.812Z" transform="translate(-60.731 -257.477)" fill="#3a3a6b"/>
              <path id="Trazado_115093" data-name="Trazado 115093" d="M95.776,337.334l5.783-.541a2.73,2.73,0,0,1-1.992,2.869A2.873,2.873,0,0,1,95.776,337.334Z" transform="translate(-69.389 -257.471)" fill="#3a3a6b"/>
            </g>
          </g>
        </g>
        <g id="Grupo_80306" data-name="Grupo 80306" transform="matrix(0.998, 0.07, -0.07, 0.998, 234.931, 77.689)">
          <path id="Trazado_115094" data-name="Trazado 115094" d="M29.722.056A3.913,3.913,0,0,0,28.9,0a3.873,3.873,0,0,0-3.636,3.131l-1.712,8.8-1.64,8.429-13.4,5.213-.018-.022-5.444,1.93a2.594,2.594,0,0,0-1.562,1.532L.059,32.812a.91.91,0,0,0,1.653.753l.6-1.113-.246,1.531a.857.857,0,0,0,1.647.441l.536-1.408-.02,1.467a.926.926,0,0,0,1.843.147l.186-1.285.22.964a.934.934,0,0,0,1.84-.289l-.074-.838a9.092,9.092,0,0,0,3.21-.886L26.6,26.416a5.468,5.468,0,0,0,3.41-4.209l1.468-8.992L32.9,4.5A3.879,3.879,0,0,0,29.722.056Z" transform="translate(9.029 20.416)" fill="#cc9aca"/>
          <path id="Trazado_115095" data-name="Trazado 115095" d="M9.812,4.636l-1.5,8.983L0,12.305,1.8,3.234A4.048,4.048,0,0,1,5.619,0a4.226,4.226,0,0,1,.864.053A4,4,0,0,1,9.812,4.636Z" transform="translate(31.441 20.045)" fill="#6f6fb2"/>
          <path id="Trazado_115096" data-name="Trazado 115096" d="M26.469,10.648l.83,19.433L.84,31.211.01,11.777A10.98,10.98,0,0,1,1.284,6.129,11.1,11.1,0,0,1,10.648.192L14.883.01A11.125,11.125,0,0,1,26.469,10.648Z" transform="translate(34.465 17.6)" fill="#a5a5ff"/>
          <path id="Trazado_115097" data-name="Trazado 115097" d="M27.3,23.953.84,25.082.01,5.648A10.98,10.98,0,0,1,1.284,0Z" transform="translate(34.465 23.729)" fill="#9595ef"/>
          <path id="Trazado_115098" data-name="Trazado 115098" d="M14.7,7.4a7.727,7.727,0,0,1-3.492,6.795l.126,2.937-5.478.234L5.775,15.37C2.211,14.811.169,11.77.009,8.024-.173,3.759,2.383.189,6.648.007A7.727,7.727,0,0,1,14.7,7.4Z" transform="translate(38.417 1.175)" fill="#e2b3de"/>
          <path id="Trazado_115099" data-name="Trazado 115099" d="M14.742,2.4A2.668,2.668,0,0,0,11.979,0L3.433.367A3.586,3.586,0,0,0,0,4.1,1.412,1.412,0,0,0,1.475,5.454L11.652,5.02a4.221,4.221,0,0,0,4.327,3.44L15.8,4.276A2.388,2.388,0,0,0,14.742,2.4Z" transform="translate(37.137 0)" fill="#3a3a6b"/>
          <path id="Trazado_115100" data-name="Trazado 115100" d="M45.617,0l.32,7.505a8.535,8.535,0,0,1-4.96,8.119l-23.891,11-2.34,23.563L0,50.813,3.946,20.387A14.747,14.747,0,0,1,12.467,8.818L30.413.649Z" transform="translate(5.877 48.118)" fill="#4f4f8e"/>
          <path id="Trazado_115101" data-name="Trazado 115101" d="M45.617,0l.32,7.505a8.538,8.538,0,0,1-4.96,8.119l-23.891,11-2.34,23.563L0,50.813,3.946,20.387A14.747,14.747,0,0,1,12.467,8.819L30.412.649Z" transform="translate(16.146 47.68)" fill="#6f6fb2"/>
          <path id="Trazado_115102" data-name="Trazado 115102" d="M32.9,4.5l-1.426,8.719-1.4,8.618-.062.372a5.46,5.46,0,0,1-2.3,3.617,5.053,5.053,0,0,1-1.112.595L13.9,31.344l-2.447.95a9.1,9.1,0,0,1-3.211.884l.079.842a.935.935,0,0,1-1.843.285l-.218-.964-.187,1.287a.929.929,0,0,1-1.847-.148l.023-1.466-.537,1.41a.85.85,0,0,1-1.023.519.861.861,0,0,1-.624-.96l.247-1.532-.6,1.113A.91.91,0,0,1,.059,32.81l1.423-3.793a1.532,1.532,0,0,1,.1-.217,2.646,2.646,0,0,1,1.465-1.321l5.449-1.924a.1.1,0,0,1,.015.021l13.4-5.214,1.638-8.43,1.714-8.8A3.867,3.867,0,0,1,28.9,0a3.982,3.982,0,0,1,.819.05A3.883,3.883,0,0,1,32.9,4.5Z" transform="translate(26.808 19.66)" fill="#e2b3de"/>
          <path id="Trazado_115103" data-name="Trazado 115103" d="M9.347,4.5,7.926,13.215,0,11.934l1.712-8.8A3.873,3.873,0,0,1,5.347,0,4.042,4.042,0,0,1,6.17.055,3.878,3.878,0,0,1,9.347,4.5Z" transform="translate(50.358 19.658)" fill="#6f6fb2"/>
          <path id="Trazado_115104" data-name="Trazado 115104" d="M.321.363,0,3.4l8.417-.359L8.829,0Z" transform="translate(8.107 98.458)" fill="#cc9aca"/>
          <path id="Trazado_115105" data-name="Trazado 115105" d="M7.809.36S4.534,2.066,2.283,3.211,0,7.57,0,7.57l16-.683L16.227,0Z" transform="translate(0.297 101.497)" fill="#4a4a89"/>
          <path id="Trazado_115106" data-name="Trazado 115106" d="M0,.935,21.911,0l6.935,14.511L36.6,14.18l.071,1.669L8.04,17.07Z" transform="translate(0 40.303)" fill="#e7b142"/>
          <path id="Trazado_115107" data-name="Trazado 115107" d="M.321.363,0,3.4l8.417-.359L8.829,0Z" transform="translate(18.91 97.997)" fill="#cc9aca"/>
          <path id="Trazado_115108" data-name="Trazado 115108" d="M7.809.359S4.534,2.065,2.283,3.21,0,7.569,0,7.569l16-.683L16.227,0Z" transform="translate(11.1 101.037)" fill="#6f6fb2"/>
          <path id="Trazado_115109" data-name="Trazado 115109" d="M5.437,0,5.5,1.589l-5.18.7S.212,2.32.05,2.348L0,1.178A14.757,14.757,0,0,0,5.437,0Z" transform="translate(44.192 15.367)" fill="#cc9aca"/>
          <path id="Trazado_115110" data-name="Trazado 115110" d="M0,1.977l7.821-.334-.165-.449A1.825,1.825,0,0,0,5.865,0L1.809.174A1.826,1.826,0,0,0,.127,1.516Z" transform="translate(43.211 16.605)" fill="#6f6fb2"/>
          <path id="Trazado_115111" data-name="Trazado 115111" d="M3.062.1,3,.469A5.46,5.46,0,0,1,.7,4.086,2.367,2.367,0,0,1,0,2.5,2.4,2.4,0,0,1,2.291,0,2.277,2.277,0,0,1,3.062.1Z" transform="translate(53.817 41.396)" fill="#cc9aca"/>
          <path id="Trazado_115112" data-name="Trazado 115112" d="M0,0,28.612,15.26,8.04,16.135Z" transform="translate(0 41.238)" fill="#ce9e4a"/>
        </g>
      </g>
      <g id="Elipse_4971" data-name="Elipse 4971" transform="translate(1374 488)" fill="none" stroke="#fff" stroke-width="3">
        <circle cx="12" cy="12" r="12" stroke="none"/>
        <circle cx="12" cy="12" r="10.5" fill="none"/>
      </g>
    </g>
  </g>
</svg>
