<svg xmlns="http://www.w3.org/2000/svg" width="295" height="191.581" viewBox="0 0 295 191.581">
  <g id="Grupo_131954" data-name="Grupo 131954" transform="translate(-1020 -389)">
    <g id="Grupo_131953" data-name="Grupo 131953">
      <g id="Grupo_131427" data-name="Grupo 131427">
        <g id="Grupo_131425" data-name="Grupo 131425" transform="translate(1020 438.381)">
          <ellipse id="Elipse_4784" data-name="Elipse 4784" cx="124.5" cy="67.5" rx="124.5" ry="67.5" transform="translate(0 0.302)" fill="#d7ccfb" opacity="0.25"/>
        </g>
        <path id="Trazado_138660" data-name="Trazado 138660" d="M291.308,29.672a188.789,188.789,0,0,1-17.59,14.865,145.086,145.086,0,0,1-19.864,12.394,110.6,110.6,0,0,1-22.584,8.755,80.559,80.559,0,0,1-12.457,2.229c-1.074.084-2.148.191-3.237.222-.543.021-1.086.052-1.633.063l-1.644.006c-1.1.009-2.167-.033-3.258-.051-1.078-.06-2.166-.1-3.242-.195a98.777,98.777,0,0,1-24.847-5.6c-7.831-2.746-15.154-6.06-22.2-9.233-3.52-1.593-6.987-3.143-10.4-4.583-1.707-.728-3.4-1.41-5.077-2.077-.838-.319-1.676-.652-2.508-.955l-2.578-.945c-7.18-2.623-14.2-5.065-21.107-7.013-3.452-.976-6.87-1.828-10.231-2.513q-2.52-.514-4.99-.9T97,33.546a51.819,51.819,0,0,0-17.224.941,33.7,33.7,0,0,0-3.519,1.09c-.56.2-1.1.431-1.637.66l-.786.359c-.236.122-.474.233-.705.361a24.465,24.465,0,0,0-5.1,3.577c-.377.349-.746.7-1.1,1.074L65.564,42.99c-.471.477-.892.974-1.341,1.451-.433.486-.827.986-1.245,1.468A36.619,36.619,0,0,0,59,51.926a31.283,31.283,0,0,0-2.486,6.182,30.653,30.653,0,0,0-1.116,6.414,43.709,43.709,0,0,0,1.36,13.763,67.658,67.658,0,0,0,5.643,14.5,75.533,75.533,0,0,0,4.145,7.048c.75,1.133,1.526,2.239,2.3,3.281.388.516.783,1.016,1.161,1.469.188.225.376.443.543.62a3.14,3.14,0,0,0,.232.232c.029.021.071.065.083.059l.014,0s.017.016,0-.026l-.082-.168c9.261,14.484,3.761,33-12.285,41.363s-36.563,3.4-45.824-11.089l-.263-.456-.168-.312-.269-.521-.459-.935c-.29-.6-.549-1.168-.8-1.731-.5-1.122-.96-2.21-1.4-3.289-.877-2.154-1.672-4.279-2.407-6.409-1.468-4.256-2.691-8.536-3.725-12.883A114.369,114.369,0,0,1,0,82.053a86.917,86.917,0,0,1,4.683-28.3,79.083,79.083,0,0,1,6.263-13.645,77.224,77.224,0,0,1,8.863-12.3A84.175,84.175,0,0,1,30.671,17.474c.978-.752,1.945-1.518,2.935-2.241,1-.707,1.985-1.435,3-2.108l1.52-1c.517-.338.976-.644,1.6-1.031,1.167-.741,2.365-1.443,3.581-2.115A70.861,70.861,0,0,1,58.847,2.651c.679-.192,1.368-.36,2.054-.532.672-.157,1.335-.308,2-.451,1.338-.277,2.677-.53,4.018-.734a78.7,78.7,0,0,1,8-.828A85.564,85.564,0,0,1,90.276.73a101.883,101.883,0,0,1,14.01,2.849,150.934,150.934,0,0,1,24.382,9.245c7.494,3.544,14.479,7.4,21.2,11.229l2.622,1.5c.9.514,1.768,1.041,2.648,1.562,1.731,1.052,3.442,2.11,5.1,3.178,3.332,2.131,6.523,4.281,9.671,6.368,6.288,4.182,12.35,8.2,18.6,11.6a78.485,78.485,0,0,0,19.475,7.771c.848.211,1.7.37,2.56.556l1.292.225.648.114c.215.034.426.053.64.081l1.282.156c.43.045.864.071,1.3.109.865.087,1.745.1,2.624.145.881.026,1.769.023,2.659.021.891-.038,1.786-.029,2.683-.1l1.348-.085c.45-.031.9-.083,1.351-.125.9-.08,1.8-.2,2.7-.326.905-.106,1.8-.284,2.707-.424.9-.156,1.8-.345,2.7-.52.893-.214,1.791-.413,2.685-.639.888-.243,1.787-.457,2.671-.723q2.666-.759,5.275-1.712c.871-.312,1.742-.629,2.6-.975L249,51.3l1.274-.549a97.331,97.331,0,0,0,19.153-10.961,89.183,89.183,0,0,0,15.836-14.744,4.259,4.259,0,0,1,5.557-.724,3.36,3.36,0,0,1,.8,5.016,3.682,3.682,0,0,1-.3.318Z" transform="translate(1315 557.278) rotate(179)" fill="#fdb74d"/>
        <g id="Grupo_131426" data-name="Grupo 131426" transform="translate(1020 389)">
          <g id="Filing_Cabinets" data-name="Filing Cabinets" transform="translate(0 45.971)">
            <g id="Grupo_131368" data-name="Grupo 131368">
              <g id="Grupo_131355" data-name="Grupo 131355">
                <g id="Grupo_131331" data-name="Grupo 131331" transform="translate(0.001 35.932)">
                  <g id="Grupo_131320" data-name="Grupo 131320" transform="translate(0 13.066)">
                    <path id="Trazado_138574" data-name="Trazado 138574" d="M61.03,279.051,45.188,269.9V235.932l15.842,9.147Z" transform="translate(-45.187 -235.932)" fill="#e0e0e0"/>
                  </g>
                  <g id="Grupo_131321" data-name="Grupo 131321" transform="translate(15.842 9.147)">
                    <path id="Trazado_138575" data-name="Trazado 138575" d="M73.622,241.963,96.253,228.9v33.972L73.622,275.935Z" transform="translate(-73.622 -228.896)" fill="#ebebeb"/>
                  </g>
                  <g id="Grupo_131322" data-name="Grupo 131322">
                    <path id="Trazado_138576" data-name="Trazado 138576" d="M83.661,221.626,61.03,234.692l-15.842-9.147,22.631-13.066Z" transform="translate(-45.187 -212.479)" fill="#f5f5f5"/>
                  </g>
                  <g id="Grupo_131326" data-name="Grupo 131326" transform="translate(18.105 13.066)">
                    <g id="Grupo_131323" data-name="Grupo 131323">
                      <path id="Trazado_138577" data-name="Trazado 138577" d="M77.684,246.385,95.79,235.932l.416.241v12.584L78.1,259.208l-.416-.241Z" transform="translate(-77.684 -235.932)" fill="#e0e0e0"/>
                    </g>
                    <g id="Grupo_131324" data-name="Grupo 131324" transform="translate(0.416 0.241)">
                      <path id="Trazado_138578" data-name="Trazado 138578" d="M78.431,246.816l18.105-10.453v12.584L78.431,259.4Z" transform="translate(-78.431 -236.363)" fill="#f5f5f5"/>
                    </g>
                    <g id="Grupo_131325" data-name="Grupo 131325" transform="translate(6.79 6.829)">
                      <path id="Trazado_138579" data-name="Trazado 138579" d="M90.594,250.088l3.079-1.778c.4-.231.724-.125.724.236a1.448,1.448,0,0,1-.724,1.071l-3.079,1.777c-.4.231-.724.126-.724-.235A1.448,1.448,0,0,1,90.594,250.088Z" transform="translate(-89.87 -248.188)" fill="#e0e0e0"/>
                    </g>
                  </g>
                  <g id="Grupo_131330" data-name="Grupo 131330" transform="translate(17.689 28.989)">
                    <g id="Grupo_131327" data-name="Grupo 131327">
                      <path id="Trazado_138580" data-name="Trazado 138580" d="M76.937,274.963,95.042,264.51v12.584l.417.24L77.352,287.787l-.416-.241Z" transform="translate(-76.936 -264.51)" fill="#e0e0e0"/>
                    </g>
                    <g id="Grupo_131328" data-name="Grupo 131328" transform="translate(0.416 0.24)">
                      <path id="Trazado_138581" data-name="Trazado 138581" d="M77.684,275.4l18.105-10.454v12.584L77.683,287.978Z" transform="translate(-77.683 -264.941)" fill="#f5f5f5"/>
                    </g>
                    <g id="Grupo_131329" data-name="Grupo 131329" transform="translate(6.79 6.829)">
                      <path id="Trazado_138582" data-name="Trazado 138582" d="M89.847,278.667l3.079-1.778c.4-.231.724-.125.724.236a1.45,1.45,0,0,1-.724,1.071l-3.079,1.777c-.4.231-.724.125-.723-.235A1.45,1.45,0,0,1,89.847,278.667Z" transform="translate(-89.123 -276.767)" fill="#e0e0e0"/>
                    </g>
                  </g>
                </g>
                <g id="Grupo_131354" data-name="Grupo 131354">
                  <g id="Grupo_131342" data-name="Grupo 131342">
                    <g id="Grupo_131332" data-name="Grupo 131332" transform="translate(0 13.066)">
                      <path id="Trazado_138583" data-name="Trazado 138583" d="M61.029,214.558l-15.842-9.147V171.439l15.842,9.146Z" transform="translate(-45.186 -171.439)" fill="#e0e0e0"/>
                    </g>
                    <g id="Grupo_131333" data-name="Grupo 131333" transform="translate(15.842 9.146)">
                      <path id="Trazado_138584" data-name="Trazado 138584" d="M73.621,177.469,96.252,164.4v33.973L73.621,211.442Z" transform="translate(-73.621 -164.403)" fill="#ebebeb"/>
                    </g>
                    <g id="Grupo_131334" data-name="Grupo 131334">
                      <path id="Trazado_138585" data-name="Trazado 138585" d="M83.66,157.133,61.028,170.2l-15.842-9.146,22.631-13.066Z" transform="translate(-45.186 -147.986)" fill="#f5f5f5"/>
                    </g>
                    <g id="Grupo_131337" data-name="Grupo 131337" transform="translate(18.105 13.066)">
                      <g id="Grupo_131335" data-name="Grupo 131335">
                        <path id="Trazado_138586" data-name="Trazado 138586" d="M77.683,181.891l18.105-10.453.416.241v12.583L78.1,194.715l-.417-.241Z" transform="translate(-77.682 -171.438)" fill="#e0e0e0"/>
                      </g>
                      <g id="Grupo_131336" data-name="Grupo 131336" transform="translate(6.79 6.829)">
                        <path id="Trazado_138587" data-name="Trazado 138587" d="M90.593,185.595l3.079-1.777c.4-.231.724-.125.724.235a1.448,1.448,0,0,1-.724,1.071L90.592,186.9c-.4.231-.723.125-.723-.235A1.45,1.45,0,0,1,90.593,185.595Z" transform="translate(-89.869 -183.695)" fill="#e0e0e0"/>
                      </g>
                    </g>
                    <g id="Grupo_131341" data-name="Grupo 131341" transform="translate(17.688 28.989)">
                      <g id="Grupo_131338" data-name="Grupo 131338">
                        <path id="Trazado_138588" data-name="Trazado 138588" d="M76.935,210.47,95.04,200.017V212.6l.416.241L77.351,223.293l-.416-.24Z" transform="translate(-76.935 -200.017)" fill="#e0e0e0"/>
                      </g>
                      <g id="Grupo_131339" data-name="Grupo 131339" transform="translate(0.416 0.241)">
                        <path id="Trazado_138589" data-name="Trazado 138589" d="M77.683,210.9l18.105-10.453v12.583L77.682,223.485Z" transform="translate(-77.682 -200.449)" fill="#f5f5f5"/>
                      </g>
                      <g id="Grupo_131340" data-name="Grupo 131340" transform="translate(6.79 6.829)">
                        <path id="Trazado_138590" data-name="Trazado 138590" d="M89.845,214.174l3.079-1.778c.4-.231.724-.125.724.236a1.448,1.448,0,0,1-.724,1.071l-3.079,1.778c-.4.231-.724.125-.724-.236A1.45,1.45,0,0,1,89.845,214.174Z" transform="translate(-89.121 -212.274)" fill="#e0e0e0"/>
                      </g>
                    </g>
                  </g>
                  <g id="Grupo_131353" data-name="Grupo 131353" transform="translate(18.105 13.066)">
                    <g id="Grupo_131343" data-name="Grupo 131343">
                      <path id="Trazado_138591" data-name="Trazado 138591" d="M77.682,181.891l18.105-10.453v12.583L77.682,194.474Z" transform="translate(-77.682 -171.438)" fill="#e0e0e0"/>
                    </g>
                    <g id="Grupo_131344" data-name="Grupo 131344" transform="translate(17.248 0.496)">
                      <path id="Trazado_138592" data-name="Trazado 138592" d="M118.55,178.049l-9.91-5.72v11.086l9.91,5.72Z" transform="translate(-108.639 -172.329)" fill="#e0e0e0"/>
                    </g>
                    <g id="Grupo_131347" data-name="Grupo 131347" transform="translate(6.79 1.307)">
                      <g id="Grupo_131345" data-name="Grupo 131345">
                        <path id="Trazado_138593" data-name="Trazado 138593" d="M89.869,197.3v-15.68l3.885-2.25.641.944,11.316-6.533v14.373Z" transform="translate(-89.869 -173.783)" fill="#ebebeb"/>
                      </g>
                      <g id="Grupo_131346" data-name="Grupo 131346" transform="translate(0 0.653)">
                        <path id="Trazado_138594" data-name="Trazado 138594" d="M89.869,197.822,91,184.1l15.842-9.146-1.131,13.719Z" transform="translate(-89.869 -174.956)" fill="#f5f5f5"/>
                      </g>
                    </g>
                    <g id="Grupo_131348" data-name="Grupo 131348" transform="translate(0.415 11.683)">
                      <path id="Trazado_138595" data-name="Trazado 138595" d="M87.065,197.394l-8.637-4.987v11.086l8.637,4.987Z" transform="translate(-78.427 -192.407)" fill="#ebebeb"/>
                    </g>
                    <g id="Grupo_131349" data-name="Grupo 131349" transform="translate(9.053 5.227)">
                      <path id="Trazado_138596" data-name="Trazado 138596" d="M93.931,191.271l18.105-10.453V193.4L93.93,203.855Z" transform="translate(-93.93 -180.818)" fill="#f5f5f5"/>
                    </g>
                    <g id="Grupo_131350" data-name="Grupo 131350" transform="translate(15.426 11.815)">
                      <path id="Trazado_138597" data-name="Trazado 138597" d="M106.093,194.544l3.079-1.778c.4-.231.724-.125.724.236a1.449,1.449,0,0,1-.724,1.071l-3.079,1.778c-.4.231-.724.125-.724-.236A1.451,1.451,0,0,1,106.093,194.544Z" transform="translate(-105.369 -192.644)" fill="#e0e0e0"/>
                    </g>
                    <g id="Grupo_131351" data-name="Grupo 131351" transform="translate(8.45 15.332)">
                      <path id="Trazado_138598" data-name="Trazado 138598" d="M93.452,199.3l-.6-.348v12.583l.6.348Z" transform="translate(-92.848 -198.956)" fill="#e0e0e0"/>
                    </g>
                    <g id="Grupo_131352" data-name="Grupo 131352" transform="translate(8.45 4.879)">
                      <path id="Trazado_138599" data-name="Trazado 138599" d="M92.848,190.647l18.105-10.453.6.348L93.452,190.995Z" transform="translate(-92.848 -180.194)" fill="#ebebeb"/>
                    </g>
                  </g>
                </g>
              </g>
              <g id="Grupo_131367" data-name="Grupo 131367" transform="translate(187.134 15.348)">
                <g id="Grupo_131356" data-name="Grupo 131356" transform="translate(0 13.066)">
                  <path id="Trazado_138600" data-name="Trazado 138600" d="M396.907,242.1l-15.842-9.146V198.985l15.842,9.147Z" transform="translate(-381.064 -198.985)" fill="#e0e0e0"/>
                </g>
                <g id="Grupo_131357" data-name="Grupo 131357" transform="translate(15.842 9.146)">
                  <path id="Trazado_138601" data-name="Trazado 138601" d="M409.5,205.016,432.13,191.95v33.972L409.5,238.989Z" transform="translate(-409.499 -191.95)" fill="#ebebeb"/>
                </g>
                <g id="Grupo_131358" data-name="Grupo 131358">
                  <path id="Trazado_138602" data-name="Trazado 138602" d="M419.538,184.68l-22.631,13.066L381.064,188.6,403.7,175.534Z" transform="translate(-381.064 -175.534)" fill="#f5f5f5"/>
                </g>
                <g id="Grupo_131362" data-name="Grupo 131362" transform="translate(18.105 13.066)">
                  <g id="Grupo_131359" data-name="Grupo 131359">
                    <path id="Trazado_138603" data-name="Trazado 138603" d="M413.561,209.438l18.105-10.453.416.241V211.81l-18.105,10.453-.416-.241Z" transform="translate(-413.56 -198.985)" fill="#e0e0e0"/>
                  </g>
                  <g id="Grupo_131360" data-name="Grupo 131360" transform="translate(0.416 0.241)">
                    <path id="Trazado_138604" data-name="Trazado 138604" d="M414.308,209.871l18.105-10.453V212l-18.105,10.453Z" transform="translate(-414.308 -199.417)" fill="#f5f5f5"/>
                  </g>
                  <g id="Grupo_131361" data-name="Grupo 131361" transform="translate(6.79 6.829)">
                    <path id="Trazado_138605" data-name="Trazado 138605" d="M426.471,213.142l3.078-1.777c.4-.231.724-.125.724.235a1.448,1.448,0,0,1-.724,1.071l-3.079,1.778c-.4.231-.724.125-.724-.236A1.449,1.449,0,0,1,426.471,213.142Z" transform="translate(-425.747 -211.242)" fill="#e0e0e0"/>
                  </g>
                </g>
                <g id="Grupo_131366" data-name="Grupo 131366" transform="translate(17.689 28.989)">
                  <g id="Grupo_131363" data-name="Grupo 131363">
                    <path id="Trazado_138606" data-name="Trazado 138606" d="M412.814,238.017l18.105-10.453v12.583l.416.241L413.23,250.841l-.416-.241Z" transform="translate(-412.813 -227.564)" fill="#e0e0e0"/>
                  </g>
                  <g id="Grupo_131364" data-name="Grupo 131364" transform="translate(0.416 0.241)">
                    <path id="Trazado_138607" data-name="Trazado 138607" d="M413.561,238.449,431.666,228v12.583L413.56,251.032Z" transform="translate(-413.56 -227.996)" fill="#f5f5f5"/>
                  </g>
                  <g id="Grupo_131365" data-name="Grupo 131365" transform="translate(6.789 6.829)">
                    <path id="Trazado_138608" data-name="Trazado 138608" d="M425.723,241.721l3.079-1.778c.4-.231.724-.125.724.236a1.451,1.451,0,0,1-.724,1.071l-3.079,1.777c-.4.231-.724.125-.724-.235A1.45,1.45,0,0,1,425.723,241.721Z" transform="translate(-424.999 -239.821)" fill="#e0e0e0"/>
                  </g>
                </g>
              </g>
            </g>
          </g>
          <g id="Folder_2" data-name="Folder 2" transform="translate(52.054 26.945)">
            <g id="Grupo_131372" data-name="Grupo 131372" transform="translate(0 0)">
              <g id="Grupo_131369" data-name="Grupo 131369" transform="translate(0 0)">
                <path id="Trazado_138609" data-name="Trazado 138609" d="M138.615,156.957v86.238l88.263-50.958v-78.4l-65.631,37.892-2.263-6.533Z" transform="translate(-138.615 -113.838)" fill="#907dde"/>
                <path id="Trazado_138610" data-name="Trazado 138610" d="M138.615,156.957v86.238l88.263-50.958v-78.4l-65.631,37.892-2.263-6.533Z" transform="translate(-138.615 -113.838)" opacity="0.7"/>
              </g>
              <g id="Grupo_131370" data-name="Grupo 131370">
                <path id="Trazado_138611" data-name="Trazado 138611" d="M138.615,243.195l4.526-78.4L231.4,113.838l-4.525,78.4Z" transform="translate(-138.615 -113.838)" fill="#e0e0e0"/>
              </g>
              <g id="Grupo_131371" data-name="Grupo 131371" transform="translate(0 1.307)">
                <path id="Trazado_138612" data-name="Trazado 138612" d="M138.615,244.233l6.789-77.091,88.263-50.959-6.789,77.092Z" transform="translate(-138.615 -116.183)" fill="#907dde"/>
                <path id="Trazado_138613" data-name="Trazado 138613" d="M138.615,244.233l6.789-77.091,88.263-50.959-6.789,77.092Z" transform="translate(-138.615 -116.183)" opacity="0.7"/>
              </g>
            </g>
          </g>
          <g id="Folder_1" data-name="Folder 1" transform="translate(65.633 34.785)">
            <g id="Grupo_131376" data-name="Grupo 131376">
              <g id="Grupo_131373" data-name="Grupo 131373" transform="translate(0 0)">
                <path id="Trazado_138614" data-name="Trazado 138614" d="M162.988,171.028v86.238l88.263-50.958v-78.4L185.62,165.8l-2.263-6.533Z" transform="translate(-162.988 -127.91)" fill="#907dde"/>
                <path id="Trazado_138615" data-name="Trazado 138615" d="M162.988,171.028v86.238l88.263-50.958v-78.4L185.62,165.8l-2.263-6.533Z" transform="translate(-162.988 -127.91)" opacity="0.5"/>
              </g>
              <g id="Grupo_131374" data-name="Grupo 131374">
                <path id="Trazado_138616" data-name="Trazado 138616" d="M162.988,257.266l4.526-78.4,88.263-50.959-4.525,78.4Z" transform="translate(-162.988 -127.909)" fill="#e0e0e0"/>
              </g>
              <g id="Grupo_131375" data-name="Grupo 131375" transform="translate(0 1.307)">
                <path id="Trazado_138617" data-name="Trazado 138617" d="M162.988,258.3l6.789-77.091,88.263-50.959-6.789,77.092Z" transform="translate(-162.988 -130.254)" fill="#907dde"/>
                <path id="Trazado_138618" data-name="Trazado 138618" d="M162.988,258.3l6.789-77.091,88.263-50.959-6.789,77.092Z" transform="translate(-162.988 -130.254)" opacity="0.5"/>
              </g>
            </g>
          </g>
          <g id="Documents" transform="translate(81.474 0)">
            <g id="Grupo_131423" data-name="Grupo 131423">
              <g id="Grupo_131377" data-name="Grupo 131377" transform="translate(21.593 149.062)">
                <path id="Trazado_138619" data-name="Trazado 138619" d="M267.427,375.539c-15.842-9.147-30.54-19.091-37.25-30.76l20.368-11.76Z" transform="translate(-230.177 -333.02)" fill="#e0e0e0"/>
              </g>
              <g id="Grupo_131401" data-name="Grupo 131401">
                <g id="Grupo_131378" data-name="Grupo 131378" transform="translate(0 43.931)">
                  <path id="Trazado_138620" data-name="Trazado 138620" d="M191.421,187.445v86.238l88.263-50.959v-78.4l-65.631,37.892-2.263-6.533Z" transform="translate(-191.421 -144.326)" fill="#907dde"/>
                  <path id="Trazado_138621" data-name="Trazado 138621" d="M191.421,187.445v86.238l88.263-50.959v-78.4l-65.631,37.892-2.263-6.533Z" transform="translate(-191.421 -144.326)" opacity="0.2"/>
                </g>
                <g id="Grupo_131397" data-name="Grupo 131397" transform="translate(24.894)">
                  <g id="Grupo_131381" data-name="Grupo 131381">
                    <g id="Grupo_131379" data-name="Grupo 131379" transform="translate(0.279 0.279)">
                      <path id="Trazado_138622" data-name="Trazado 138622" d="M236.858,178.244c-.222,0-.256-.256-.256-.41V104.278a1.856,1.856,0,0,1,.826-1.43l63.7-36.778a.61.61,0,0,1,.291-.095c.223,0,.256.257.256.41v73.557a1.855,1.855,0,0,1-.826,1.43l-63.7,36.778A.614.614,0,0,1,236.858,178.244Z" transform="translate(-236.602 -65.975)" fill="#fff"/>
                    </g>
                    <g id="Grupo_131380" data-name="Grupo 131380">
                      <path id="Trazado_138623" data-name="Trazado 138623" d="M301.163,66.038a.487.487,0,0,1,.014.125v73.557a1.593,1.593,0,0,1-.686,1.189l-63.7,36.778a.078.078,0,1,1-.129-.075V104.056a1.591,1.591,0,0,1,.686-1.189l63.7-36.778a.486.486,0,0,1,.115-.051m.037-.563a.877.877,0,0,0-.431.131l-63.7,36.778a2.133,2.133,0,0,0-.965,1.671v73.556c0,.436.218.689.534.689a.874.874,0,0,0,.431-.132l63.7-36.778a2.133,2.133,0,0,0,.965-1.671V66.164c0-.436-.217-.689-.534-.689Z" transform="translate(-236.102 -65.475)" fill="#907dde"/>
                      <path id="Trazado_138624" data-name="Trazado 138624" d="M301.163,66.038a.487.487,0,0,1,.014.125v73.557a1.593,1.593,0,0,1-.686,1.189l-63.7,36.778a.078.078,0,1,1-.129-.075V104.056a1.591,1.591,0,0,1,.686-1.189l63.7-36.778a.486.486,0,0,1,.115-.051m.037-.563a.877.877,0,0,0-.431.131l-63.7,36.778a2.133,2.133,0,0,0-.965,1.671v73.556c0,.436.218.689.534.689a.874.874,0,0,0,.431-.132l63.7-36.778a2.133,2.133,0,0,0,.965-1.671V66.164c0-.436-.217-.689-.534-.689Z" transform="translate(-236.102 -65.475)" fill="#fff" opacity="0.7"/>
                    </g>
                  </g>
                  <g id="Grupo_131386" data-name="Grupo 131386" transform="translate(6.79 28.32)">
                    <g id="Grupo_131382" data-name="Grupo 131382">
                      <path id="Trazado_138625" data-name="Trazado 138625" d="M248.289,129.372l22.631-13.066v26.133l-22.631,13.066Z" transform="translate(-248.289 -116.306)" fill="#907dde"/>
                      <path id="Trazado_138626" data-name="Trazado 138626" d="M248.289,129.372l22.631-13.066v26.133l-22.631,13.066Z" transform="translate(-248.289 -116.306)" fill="#fff" opacity="0.8"/>
                    </g>
                    <g id="Grupo_131385" data-name="Grupo 131385" transform="translate(3.395 6.533)">
                      <g id="Grupo_131383" data-name="Grupo 131383">
                        <path id="Trazado_138627" data-name="Trazado 138627" d="M270.224,128.032v7.84l-.709.4v-2.4c0-1.326-1.08-1.778-2.412-1.009l-9.6,5.542a4.994,4.994,0,0,0-2.412,3.794v2.4l-.709.423v-7.84Z" transform="translate(-254.382 -128.032)" fill="#fff"/>
                      </g>
                      <g id="Grupo_131384" data-name="Grupo 131384" transform="translate(2.263 5.834)">
                        <path id="Trazado_138628" data-name="Trazado 138628" d="M267.658,152.651c-1.161.671-2.1-.033-2.1-1.572V138.5l-2.907,1.582v12.671a5.016,5.016,0,0,1-2.1,4l-2.1,1.213v.832l11.316-6.533v-.832Z" transform="translate(-258.444 -138.504)" fill="#fff"/>
                      </g>
                    </g>
                  </g>
                  <g id="Grupo_131392" data-name="Grupo 131392" transform="translate(33.948 11.925)">
                    <g id="Grupo_131391" data-name="Grupo 131391">
                      <g id="Grupo_131387" data-name="Grupo 131387">
                        <path id="Trazado_138629" data-name="Trazado 138629" d="M297.033,101.968c0,.721.649.933,1.448.471l22-12.7a2.9,2.9,0,0,0,1.447-2.142c0-.721-.648-.933-1.447-.471l-22,12.7A2.9,2.9,0,0,0,297.033,101.968Z" transform="translate(-297.033 -86.879)" fill="#5b5464"/>
                      </g>
                      <g id="Grupo_131388" data-name="Grupo 131388" transform="translate(0 7.84)">
                        <path id="Trazado_138630" data-name="Trazado 138630" d="M297.033,116.039c0,.722.649.933,1.448.471l22-12.7a2.9,2.9,0,0,0,1.447-2.143c0-.721-.648-.933-1.447-.471l-22,12.7A2.9,2.9,0,0,0,297.033,116.039Z" transform="translate(-297.033 -100.951)" fill="#5b5464"/>
                      </g>
                      <g id="Grupo_131389" data-name="Grupo 131389" transform="translate(0 15.68)">
                        <path id="Trazado_138631" data-name="Trazado 138631" d="M297.033,130.111c0,.721.649.932,1.448.471l22-12.7a2.9,2.9,0,0,0,1.447-2.143c0-.722-.648-.932-1.447-.471l-22,12.7A2.9,2.9,0,0,0,297.033,130.111Z" transform="translate(-297.033 -115.022)" fill="#5b5464"/>
                      </g>
                      <g id="Grupo_131390" data-name="Grupo 131390" transform="translate(0 23.519)">
                        <path id="Trazado_138632" data-name="Trazado 138632" d="M297.033,144.182c0,.722.649.933,1.448.471l22-12.7a2.9,2.9,0,0,0,1.447-2.143c0-.721-.648-.932-1.447-.471l-22,12.7A2.9,2.9,0,0,0,297.033,144.182Z" transform="translate(-297.033 -129.093)" fill="#5b5464"/>
                      </g>
                    </g>
                  </g>
                  <g id="Grupo_131396" data-name="Grupo 131396" transform="translate(6.79 43.285)">
                    <g id="Grupo_131393" data-name="Grupo 131393">
                      <path id="Trazado_138633" data-name="Trazado 138633" d="M248.289,173.936c0,.721.649.932,1.447.471l49.158-28.383a2.9,2.9,0,0,0,1.447-2.143c0-.721-.648-.933-1.447-.471l-49.158,28.383A2.9,2.9,0,0,0,248.289,173.936Z" transform="translate(-248.289 -143.165)" fill="#5b5464"/>
                    </g>
                    <g id="Grupo_131394" data-name="Grupo 131394" transform="translate(0 7.84)">
                      <path id="Trazado_138634" data-name="Trazado 138634" d="M248.289,188.007c0,.722.649.933,1.447.471l49.158-28.383a2.9,2.9,0,0,0,1.447-2.143c0-.722-.648-.932-1.447-.471l-49.158,28.383A2.9,2.9,0,0,0,248.289,188.007Z" transform="translate(-248.289 -157.236)" fill="#5b5464"/>
                    </g>
                    <g id="Grupo_131395" data-name="Grupo 131395" transform="translate(0 15.68)">
                      <path id="Trazado_138635" data-name="Trazado 138635" d="M248.289,202.078c0,.722.649.933,1.447.471l49.158-28.383a2.9,2.9,0,0,0,1.447-2.143c0-.722-.648-.933-1.447-.471l-49.158,28.383A2.9,2.9,0,0,0,248.289,202.078Z" transform="translate(-248.289 -171.307)" fill="#5b5464"/>
                    </g>
                  </g>
                </g>
                <g id="Grupo_131400" data-name="Grupo 131400" transform="translate(0.001 53.078)">
                  <g id="Grupo_131398" data-name="Grupo 131398">
                    <path id="Trazado_138636" data-name="Trazado 138636" d="M191.422,280.953,207.264,211.7l88.263-50.959-15.842,69.251Z" transform="translate(-191.422 -160.743)" fill="#907dde"/>
                  </g>
                  <g id="Grupo_131399" data-name="Grupo 131399" transform="translate(21.592 44.623)">
                    <path id="Trazado_138637" data-name="Trazado 138637" d="M230.177,252.594v51.361l20.369-11.76v-51.36Z" transform="translate(-230.177 -240.835)" fill="#907dde"/>
                    <path id="Trazado_138638" data-name="Trazado 138638" d="M230.177,252.594v51.361l20.369-11.76v-51.36Z" transform="translate(-230.177 -240.835)" opacity="0.2"/>
                  </g>
                </g>
              </g>
              <g id="Grupo_131422" data-name="Grupo 131422" transform="translate(22.631 72.678)">
                <g id="Grupo_131404" data-name="Grupo 131404">
                  <g id="Grupo_131402" data-name="Grupo 131402" transform="translate(0.279 0.482)">
                    <path id="Trazado_138639" data-name="Trazado 138639" d="M268.492,314.876c-1.73-1.289-18.433-14.057-26.924-32.293-9.039-19.411-9.03-42.051-9.027-50.573v-.265l60.549-34.957c0,8.6.008,31.272,9.079,50.752,8.293,17.812,24.357,30.434,26.9,32.361Z" transform="translate(-232.541 -196.787)" fill="#fff"/>
                  </g>
                  <g id="Grupo_131403" data-name="Grupo 131403">
                    <path id="Trazado_138640" data-name="Trazado 138640" d="M292.589,196.886c0,8.958.174,31.206,9.105,50.387,8.015,17.213,23.259,29.593,26.656,32.21l-60.06,34.676c-2.347-1.77-18.423-14.32-26.691-32.078-9.012-19.354-9-41.949-9-50.455v-.1l59.991-34.636m.557-.965L232.041,231.2c0,8.015-.169,31.311,9.053,51.117,9.053,19.442,27.158,32.508,27.158,32.508l61.106-35.279s-18.106-13.067-27.158-32.508c-9.222-19.806-9.053-43.1-9.053-51.117Z" transform="translate(-232.041 -195.921)" fill="#907dde"/>
                    <path id="Trazado_138641" data-name="Trazado 138641" d="M292.589,196.886c0,8.958.174,31.206,9.105,50.387,8.015,17.213,23.259,29.593,26.656,32.21l-60.06,34.676c-2.347-1.77-18.423-14.32-26.691-32.078-9.012-19.354-9-41.949-9-50.455v-.1l59.991-34.636m.557-.965L232.041,231.2c0,8.015-.169,31.311,9.053,51.117,9.053,19.442,27.158,32.508,27.158,32.508l61.106-35.279s-18.106-13.067-27.158-32.508c-9.222-19.806-9.053-43.1-9.053-51.117Z" transform="translate(-232.041 -195.921)" fill="#fff" opacity="0.7"/>
                  </g>
                </g>
                <g id="Grupo_131417" data-name="Grupo 131417" transform="translate(11.904 11.58)">
                  <g id="Grupo_131405" data-name="Grupo 131405" transform="translate(21.562)">
                    <path id="Trazado_138642" data-name="Trazado 138642" d="M312.837,216.954l-19.325,11.157a2.748,2.748,0,0,0-1.4,2.114c.027.706.7.9,1.5.443l19.325-11.158a2.734,2.734,0,0,0,1.394-2.114C314.3,216.691,313.637,216.493,312.837,216.954Z" transform="translate(-292.108 -216.705)" fill="#5b5464"/>
                  </g>
                  <g id="Grupo_131406" data-name="Grupo 131406" transform="translate(22.029 7.597)">
                    <path id="Trazado_138643" data-name="Trazado 138643" d="M313.62,230.595l-19.325,11.157a2.569,2.569,0,0,0-1.346,2.082c.06.687.761.869,1.561.408l19.325-11.157a2.554,2.554,0,0,0,1.334-2.08C315.11,230.317,314.419,230.134,313.62,230.595Z" transform="translate(-292.945 -230.341)" fill="#5b5464"/>
                  </g>
                  <g id="Grupo_131407" data-name="Grupo 131407" transform="translate(22.858 14.984)">
                    <path id="Trazado_138644" data-name="Trazado 138644" d="M315.05,243.861l-19.325,11.157a2.381,2.381,0,0,0-1.282,2.044c.1.667.826.833,1.625.371l19.326-11.157a2.368,2.368,0,0,0,1.27-2.042C316.569,243.567,315.85,243.4,315.05,243.861Z" transform="translate(-294.434 -243.6)" fill="#5b5464"/>
                  </g>
                  <g id="Grupo_131408" data-name="Grupo 131408" transform="translate(24.073 22.149)">
                    <path id="Trazado_138645" data-name="Trazado 138645" d="M317.175,256.727,297.85,267.884a2.207,2.207,0,0,0-1.216,2.006c.132.647.892.794,1.692.333l19.325-11.157a2.188,2.188,0,0,0,1.2-2C318.723,256.416,317.974,256.265,317.175,256.727Z" transform="translate(-296.614 -256.459)" fill="#5b5464"/>
                  </g>
                  <g id="Grupo_131409" data-name="Grupo 131409" transform="translate(25.703 29.073)">
                    <path id="Trazado_138646" data-name="Trazado 138646" d="M320.042,269.163l-19.325,11.157a2.025,2.025,0,0,0-1.144,1.965c.17.623.964.752,1.764.29l19.325-11.157a2.007,2.007,0,0,0,1.131-1.962C321.621,268.834,320.841,268.7,320.042,269.163Z" transform="translate(-299.54 -268.888)" fill="#5b5464"/>
                  </g>
                  <g id="Grupo_131410" data-name="Grupo 131410" transform="translate(0 35.743)">
                    <path id="Trazado_138647" data-name="Trazado 138647" d="M301.623,281.144l-47.1,27.193a1.84,1.84,0,0,0-1.064,1.919c.216.6,1.046.7,1.845.243l47.1-27.193a1.821,1.821,0,0,0,1.049-1.914C303.238,280.794,302.423,280.682,301.623,281.144Z" transform="translate(-253.407 -280.859)" fill="#5b5464"/>
                  </g>
                  <g id="Grupo_131411" data-name="Grupo 131411" transform="translate(2.576 42.111)">
                    <path id="Trazado_138648" data-name="Trazado 138648" d="M306.18,292.584l-47.1,27.194c-.8.461-1.238,1.3-.973,1.868s1.13.655,1.93.193l47.1-27.193c.8-.462,1.229-1.3.965-1.864S306.98,292.123,306.18,292.584Z" transform="translate(-258.03 -292.289)" fill="#5b5464"/>
                  </g>
                  <g id="Grupo_131412" data-name="Grupo 131412" transform="translate(5.708 48.18)">
                    <path id="Trazado_138649" data-name="Trazado 138649" d="M311.742,303.488l-47.1,27.193c-.8.461-1.2,1.276-.881,1.815s1.23.6,2.029.135l47.1-27.194c.8-.461,1.183-1.268.866-1.807S312.541,303.026,311.742,303.488Z" transform="translate(-263.652 -303.181)" fill="#5b5464"/>
                  </g>
                  <g id="Grupo_131413" data-name="Grupo 131413" transform="translate(9.388 53.914)">
                    <path id="Trazado_138650" data-name="Trazado 138650" d="M318.293,313.792l-47.1,27.193c-.8.462-1.158,1.255-.793,1.766a1.671,1.671,0,0,0,2.114.085l47.1-27.194c.8-.461,1.146-1.245.781-1.756A1.652,1.652,0,0,0,318.293,313.792Z" transform="translate(-270.256 -313.472)" fill="#5b5464"/>
                  </g>
                  <g id="Grupo_131414" data-name="Grupo 131414" transform="translate(13.542 59.367)">
                    <path id="Trazado_138651" data-name="Trazado 138651" d="M325.7,323.592l-47.1,27.194c-.8.461-1.123,1.235-.716,1.722a1.83,1.83,0,0,0,2.19.041l47.1-27.193c.8-.462,1.113-1.226.706-1.713A1.813,1.813,0,0,0,325.7,323.592Z" transform="translate(-277.712 -323.261)" fill="#5b5464"/>
                  </g>
                  <g id="Grupo_131415" data-name="Grupo 131415" transform="translate(18.133 64.564)">
                    <path id="Trazado_138652" data-name="Trazado 138652" d="M333.906,332.931l-47.1,27.194c-.8.461-1.091,1.216-.645,1.68a1.991,1.991,0,0,0,2.259,0l47.1-27.193c.8-.462,1.081-1.208.636-1.672A1.974,1.974,0,0,0,333.906,332.931Z" transform="translate(-285.952 -332.589)" fill="#5b5464"/>
                  </g>
                  <g id="Grupo_131416" data-name="Grupo 131416" transform="translate(23.147 69.524)">
                    <path id="Trazado_138653" data-name="Trazado 138653" d="M342.872,341.845l-47.1,27.193c-.8.461-1.06,1.2-.576,1.641a2.16,2.16,0,0,0,2.328-.04l47.1-27.193c.8-.461,1.051-1.19.567-1.632A2.142,2.142,0,0,0,342.872,341.845Z" transform="translate(-294.952 -341.491)" fill="#5b5464"/>
                  </g>
                </g>
                <g id="Grupo_131421" data-name="Grupo 131421" transform="translate(5.648 27.029)">
                  <g id="Grupo_131418" data-name="Grupo 131418">
                    <path id="Trazado_138654" data-name="Trazado 138654" d="M264.4,244.435l-22.22,12.829a129.62,129.62,0,0,0,4.533,31.355l22.22-12.829A129.615,129.615,0,0,1,264.4,244.435Z" transform="translate(-242.178 -244.435)" fill="#907dde"/>
                    <path id="Trazado_138655" data-name="Trazado 138655" d="M264.4,244.435l-22.22,12.829a129.62,129.62,0,0,0,4.533,31.355l22.22-12.829A129.615,129.615,0,0,1,264.4,244.435Z" transform="translate(-242.178 -244.435)" fill="#fff" opacity="0.8"/>
                  </g>
                  <g id="Grupo_131419" data-name="Grupo 131419" transform="translate(0 8.224)">
                    <path id="Trazado_138656" data-name="Trazado 138656" d="M251.241,262.018a3.682,3.682,0,0,0-1.086-2.823l-7.977,4.605c.065,2.126.18,4.507.372,7.067a5.212,5.212,0,0,0,3.018-.532C248.7,268.874,251.241,265.15,251.241,262.018Z" transform="translate(-242.178 -259.195)" fill="#907dde"/>
                    <path id="Trazado_138657" data-name="Trazado 138657" d="M251.241,262.018a3.682,3.682,0,0,0-1.086-2.823l-7.977,4.605c.065,2.126.18,4.507.372,7.067a5.212,5.212,0,0,0,3.018-.532C248.7,268.874,251.241,265.15,251.241,262.018Z" transform="translate(-242.178 -259.195)" fill="#fff" opacity="0.6"/>
                  </g>
                  <g id="Grupo_131420" data-name="Grupo 131420" transform="translate(8.526 13.219)">
                    <path id="Trazado_138658" data-name="Trazado 138658" d="M273.824,278.61h0c-1.482-1.869-4.5-7.634-5.784-10.146a.558.558,0,0,0-1.03.094,61.136,61.136,0,0,0-2.411,14.626,21.211,21.211,0,0,1-4.717-5.25.492.492,0,0,0-.885.154,54.654,54.654,0,0,0-1.211,18.557h0L275.708,286.3C274.965,283.718,274.347,281.145,273.824,278.61Z" transform="translate(-257.481 -268.161)" fill="#907dde"/>
                    <path id="Trazado_138659" data-name="Trazado 138659" d="M273.824,278.61h0c-1.482-1.869-4.5-7.634-5.784-10.146a.558.558,0,0,0-1.03.094,61.136,61.136,0,0,0-2.411,14.626,21.211,21.211,0,0,1-4.717-5.25.492.492,0,0,0-.885.154,54.654,54.654,0,0,0-1.211,18.557h0L275.708,286.3C274.965,283.718,274.347,281.145,273.824,278.61Z" transform="translate(-257.481 -268.161)" fill="#fff" opacity="0.6"/>
                  </g>
                </g>
              </g>
            </g>
          </g>
        </g>
      </g>
    </g>
  </g>
</svg>
