<svg xmlns="http://www.w3.org/2000/svg" width="190" height="100" viewBox="0 0 190 100">
  <g id="Grupo_121042" data-name="Grupo 121042" transform="translate(-2507 11296)">
    <g id="Grupo_121041" data-name="Grupo 121041" transform="translate(2327 -11700)">
      <rect id="Rectángulo_33803" data-name="Rectángulo 33803" width="190" height="100" transform="translate(180 404)" fill="none"/>
      <path id="Trazado_113613" data-name="Trazado 113613" d="M-22,0H107a40,40,0,0,1,0,80H-22Z" transform="translate(202 414)" fill="rgba(121,210,220,0.2)"/>
      <g id="archivo" transform="translate(210.37 404)">
        <g id="Grupo_120353" data-name="Grupo 120353" transform="translate(27.538 1.465)">
          <path id="Trazado_158247" data-name="Trazado 158247" d="M133.172,13.813H66.091V9.473A1.973,1.973,0,0,1,68.064,7.5H131.2a1.973,1.973,0,0,1,1.973,1.973v4.34Z" transform="translate(-66.091 -7.5)" fill="#d3effb"/>
        </g>
        <g id="Grupo_120354" data-name="Grupo 120354" transform="translate(25.565 7.778)">
          <path id="Trazado_158248" data-name="Trazado 158248" d="M127.016,46.138H55.989V41.8a1.973,1.973,0,0,1,1.973-1.973h67.081a1.973,1.973,0,0,1,1.973,1.973Z" transform="translate(-55.989 -39.825)" fill="#cbe2ff"/>
        </g>
        <g id="Grupo_120355" data-name="Grupo 120355" transform="translate(19.646 72.886)">
          <path id="Trazado_158249" data-name="Trazado 158249" d="M108.549,398.828H25.9l-.218-25.649h82.865Z" transform="translate(-25.684 -373.179)" fill="#f89b3e"/>
        </g>
        <g id="Grupo_120356" data-name="Grupo 120356" transform="translate(39.691 72.886)">
          <path id="Trazado_158250" data-name="Trazado 158250" d="M191.136,386.144l-11.95-11.95q.226-.5.43-1.015h-51.3a27.636,27.636,0,0,0,36.916,14.964l10.684,10.684h15.219V386.144Z" transform="translate(-128.316 -373.179)" fill="#f87c00"/>
        </g>
        <g id="Grupo_120357" data-name="Grupo 120357" transform="translate(23.592 14.092)">
          <path id="Trazado_158251" data-name="Trazado 158251" d="M120.86,130.945H45.887V74.123A1.973,1.973,0,0,1,47.86,72.15h71.027a1.973,1.973,0,0,1,1.973,1.973v56.822Z" transform="translate(-45.887 -72.15)" fill="#f4fbff"/>
        </g>
        <g id="Grupo_120358" data-name="Grupo 120358" transform="translate(29.906 20.405)">
          <path id="Trazado_158252" data-name="Trazado 158252" d="M0,0H24.465V19.73H0Z" transform="translate(19.73 0) rotate(90)" fill="#0ec7dc"/>
        </g>
        <g id="Grupo_120359" data-name="Grupo 120359" transform="translate(91.392 14.092)">
          <path id="Trazado_158253" data-name="Trazado 158253" d="M398.223,72.15h-5.2A1.973,1.973,0,0,1,395,74.123v56.822h5.2V74.123a1.973,1.973,0,0,0-1.973-1.973Z" transform="translate(-393.023 -72.15)" fill="#e4f6ff"/>
        </g>
        <g id="Grupo_120368" data-name="Grupo 120368" transform="translate(41.66 38.952)">
          <g id="Grupo_120360" data-name="Grupo 120360" transform="translate(35.658 35.673)">
            <path id="Trazado_158254" data-name="Trazado 158254" d="M0,0H11.838V7.1H0Z" transform="translate(0 8.369) rotate(-45)" fill="#727997"/>
          </g>
          <g id="Grupo_120361" data-name="Grupo 120361" transform="translate(42.353 42.37)">
            <path id="Trazado_158255" data-name="Trazado 158255" d="M0,0H7.1V7.1H0Z" transform="translate(0 5.022) rotate(-45)" fill="#ffdb10"/>
          </g>
          <g id="Grupo_120362" data-name="Grupo 120362" transform="translate(45.718 45.718)">
            <path id="Trazado_158256" data-name="Trazado 158256" d="M394.707,447.376H377.966l-5.494-5.494,8.37-8.371Z" transform="translate(-372.472 -433.511)" fill="#b0c0d2"/>
          </g>
          <g id="Grupo_120363" data-name="Grupo 120363" transform="translate(51.299 45.718)">
            <path id="Trazado_158257" data-name="Trazado 158257" d="M403.834,433.511l-2.79,2.79,11.075,11.075h5.58Z" transform="translate(-401.044 -433.511)" fill="#727997"/>
          </g>
          <g id="Grupo_120364" data-name="Grupo 120364">
            <circle id="Elipse_5900" data-name="Elipse 5900" cx="23.676" cy="23.676" r="23.676" fill="#b0c0d2"/>
          </g>
          <g id="Grupo_120365" data-name="Grupo 120365" transform="translate(4.82 4.82)">
            <path id="Trazado_158258" data-name="Trazado 158258" d="M196.245,224.113a23.676,23.676,0,0,1-33.173,33.173,23.676,23.676,0,1,0,33.173-33.173Z" transform="translate(-163.072 -224.113)" fill="#727997"/>
          </g>
          <g id="Grupo_120366" data-name="Grupo 120366" transform="translate(6.314 6.314)">
            <circle id="Elipse_5901" data-name="Elipse 5901" cx="17.362" cy="17.362" r="17.362" fill="#e4f6ff"/>
          </g>
          <g id="Grupo_120367" data-name="Grupo 120367" transform="translate(9.837 9.837)">
            <path id="Trazado_158259" data-name="Trazado 158259" d="M213.083,249.8a17.362,17.362,0,0,1-24.323,24.323A17.362,17.362,0,1,0,213.083,249.8Z" transform="translate(-188.76 -249.798)" fill="#d3effb"/>
          </g>
        </g>
        <g id="Grupo_120369" data-name="Grupo 120369" transform="translate(18.181 0)">
          <path id="Trazado_158260" data-name="Trazado 158260" d="M39.855,54.719a1.465,1.465,0,0,0,1.465-1.465V16.064a.509.509,0,0,1,.507-.508h71.028a.508.508,0,0,1,.507.508V33.723a1.465,1.465,0,1,0,2.93,0V16.064a3.439,3.439,0,0,0-1.973-3.105V9.751a3.439,3.439,0,0,0-1.973-3.105V3.438A3.441,3.441,0,0,0,108.908,0H45.773a3.442,3.442,0,0,0-3.438,3.438V6.646a3.439,3.439,0,0,0-1.973,3.105V12.96a3.438,3.438,0,0,0-1.972,3.1V53.254A1.465,1.465,0,0,0,39.855,54.719ZM43.292,9.751a.509.509,0,0,1,.508-.508h67.081a.509.509,0,0,1,.508.508v2.876h-68.1Zm1.973-6.313a.509.509,0,0,1,.508-.508h63.135a.509.509,0,0,1,.508.508V6.314H45.265Z" transform="translate(-34.443 0)"/>
          <path id="Trazado_158261" data-name="Trazado 158261" d="M195.36,229.773a18.827,18.827,0,1,0,5.514,13.313A18.7,18.7,0,0,0,195.36,229.773Zm-2.072,24.554a15.9,15.9,0,1,1,4.656-11.241A15.794,15.794,0,0,1,193.288,254.327Z" transform="translate(-134.892 -180.458)"/>
          <path id="Trazado_158262" data-name="Trazado 158262" d="M110.649,175.535l-6.674-6.674V150.922a1.465,1.465,0,0,0-1.465-1.465h-2.48V118.594a1.465,1.465,0,1,0-2.93,0v30.863H88.885A25.14,25.14,0,0,0,51.1,119.939v-21.5a1.465,1.465,0,0,0-1.465-1.465H29.906a1.465,1.465,0,0,0-1.465,1.465v24.465a1.465,1.465,0,0,0,1.465,1.465H46.189a25.192,25.192,0,0,0-4.4,25.087H25.058V138.125a1.465,1.465,0,1,0-2.93,0v11.332H19.646a1.465,1.465,0,0,0-1.465,1.477l.219,25.648a1.465,1.465,0,0,0,1.465,1.452h8.7a1.465,1.465,0,0,0,0-2.93H21.317l-.194-22.719H43.094a25.181,25.181,0,0,0,34.015,10.491l4.211,4.211a1.465,1.465,0,0,0,2.071,0l.638-.638L86.98,169.4l-.638.638a1.465,1.465,0,0,0,0,2.071l2.994,2.994H35.4a1.465,1.465,0,0,0,0,2.93H92.875a1.465,1.465,0,0,0,1.033-2.5l-4.459-4.459,6.3-6.3,12.829,12.829a1.465,1.465,0,1,0,2.071-2.072ZM31.371,99.906h16.8v21.535h-16.8ZM49.63,156.368a22.211,22.211,0,1,1,31.411,0A22.236,22.236,0,0,1,49.63,156.368Zm30.054,4.942a25.3,25.3,0,0,0,6.3-6.3l2.672,2.672-6.3,6.3Zm6.418,3.07,2.951-2.951L92,164.38l-2.951,2.951Zm8.612-2.71-.638.638-2.951-2.951.638-.638a1.465,1.465,0,0,0,0-2.071l-4.211-4.211.027-.049h13.469v13.544l-4.262-4.262a1.465,1.465,0,0,0-2.072,0Z" transform="translate(-18.181 -78.035)"/>
          <path id="Trazado_158263" data-name="Trazado 158263" d="M243.447,96.976H207.539a1.465,1.465,0,1,0,0,2.93h35.908a1.465,1.465,0,1,0,0-2.93Z" transform="translate(-169.376 -78.035)"/>
          <path id="Trazado_158264" data-name="Trazado 158264" d="M244.912,130.766a1.465,1.465,0,0,0-1.465-1.465H207.539a1.465,1.465,0,0,0,0,2.93h35.908A1.465,1.465,0,0,0,244.912,130.766Z" transform="translate(-169.376 -104.047)"/>
          <path id="Trazado_158265" data-name="Trazado 158265" d="M207.54,161.626a1.465,1.465,0,0,0,0,2.93h24.07a1.465,1.465,0,0,0,0-2.93Z" transform="translate(-169.377 -130.058)"/>
        </g>
      </g>
    </g>
  </g>
</svg>
