<svg xmlns="http://www.w3.org/2000/svg" xmlns:xlink="http://www.w3.org/1999/xlink" width="331.106" height="331.106" viewBox="0 0 331.106 331.106">
  <defs>
    <clipPath id="clip-path">
      <rect id="Rectángulo_41146" data-name="Rectángulo 41146" width="306" height="243" transform="translate(-0.303 0)" fill="none"/>
    </clipPath>
    <linearGradient id="linear-gradient" x1="128.438" y1="7.1" x2="129.164" y2="6.054" gradientUnits="objectBoundingBox">
      <stop offset="0" stop-color="#fff"/>
      <stop offset="0.251" stop-color="#fcfcfb"/>
      <stop offset="0.441" stop-color="#f6f3f2"/>
      <stop offset="0.61" stop-color="#ebe4e2"/>
      <stop offset="0.768" stop-color="#dcd0cb"/>
      <stop offset="0.916" stop-color="#c9b5ae"/>
      <stop offset="0.967" stop-color="#c1aba2"/>
    </linearGradient>
    <linearGradient id="linear-gradient-2" x1="-0.288" y1="1.099" x2="0.544" y2="0.468" gradientUnits="objectBoundingBox">
      <stop offset="0" stop-color="#fff"/>
      <stop offset="0.101" stop-color="#f4f0ee"/>
      <stop offset="0.343" stop-color="#ded2cd"/>
      <stop offset="0.574" stop-color="#cebcb5"/>
      <stop offset="0.788" stop-color="#c4afa7"/>
      <stop offset="0.967" stop-color="#c1aba2"/>
    </linearGradient>
    <linearGradient id="linear-gradient-3" x1="118.848" y1="6.251" x2="119.397" y2="4.787" gradientUnits="objectBoundingBox">
      <stop offset="0" stop-color="#fff"/>
      <stop offset="0.175" stop-color="#faf9f8"/>
      <stop offset="0.421" stop-color="#eeeae6"/>
      <stop offset="0.708" stop-color="#dbd2c8"/>
      <stop offset="0.802" stop-color="#d4c9bd"/>
    </linearGradient>
  </defs>
  <g id="Grupo_131953" data-name="Grupo 131953" transform="translate(-475.645 -510.826)">
    <g id="Grupo_131950" data-name="Grupo 131950">
      <g id="Image_Place_Holder" data-name="Image Place Holder" transform="translate(492.735 561)" opacity="0.1">
        <rect id="Image_Place_Holder-2" data-name="Image Place Holder" width="303.554" height="205.482" rx="10" transform="translate(0 0)" fill="#fdb74d"/>
      </g>
      <path id="Trazado_138126" data-name="Trazado 138126" d="M296.928,33.506A198.952,198.952,0,0,1,279,50.292a146.47,146.47,0,0,1-20.247,14,106.381,106.381,0,0,1-23.02,9.886,74.933,74.933,0,0,1-12.7,2.517c-1.095.095-2.189.216-3.3.25-.554.024-1.107.058-1.664.071l-1.676.007c-1.125.011-2.209-.037-3.321-.057-1.1-.067-2.208-.112-3.3-.22a92.471,92.471,0,0,1-25.326-6.328c-7.982-3.1-15.447-6.843-22.628-10.426-3.588-1.8-7.121-3.549-10.6-5.175-1.74-.822-3.462-1.592-5.175-2.346-.854-.361-1.708-.736-2.556-1.078l-2.628-1.067c-7.319-2.962-14.471-5.72-21.514-7.919-3.518-1.1-7-2.064-10.428-2.837-1.712-.387-3.409-.729-5.086-1.016s-3.335-.5-4.964-.668A47.807,47.807,0,0,0,81.31,38.943a31.942,31.942,0,0,0-3.587,1.231c-.571.23-1.124.487-1.668.745l-.8.4c-.241.137-.483.263-.719.408a25.093,25.093,0,0,0-5.2,4.04c-.384.394-.761.794-1.118,1.213l-1.388,1.561c-.48.538-.909,1.1-1.367,1.638-.441.549-.843,1.113-1.269,1.658a41.99,41.99,0,0,0-4.057,6.794,37.619,37.619,0,0,0-2.534,6.98,38.014,38.014,0,0,0-1.138,7.242A54.474,54.474,0,0,0,57.849,88.4,81.54,81.54,0,0,0,63.6,104.773a87.826,87.826,0,0,0,4.224,7.958c.764,1.279,1.556,2.528,2.349,3.7.4.583.8,1.147,1.184,1.658.192.254.383.5.554.7a3.4,3.4,0,0,0,.236.262c.03.024.072.073.085.066l.014,0s.018.018,0-.029l-.084-.189a34.194,34.194,0,1,1-59.23,34.186l-.268-.515-.171-.352-.274-.589-.468-1.056c-.3-.68-.559-1.319-.816-1.954-.512-1.267-.978-2.5-1.432-3.714-.894-2.432-1.7-4.831-2.454-7.237-1.5-4.806-2.742-9.639-3.8-14.547A142.431,142.431,0,0,1,0,92.655,107.8,107.8,0,0,1,4.775,60.7a94.161,94.161,0,0,1,6.384-15.408A87.566,87.566,0,0,1,20.192,31.4a90.32,90.32,0,0,1,11.071-11.67c1-.849,1.983-1.714,2.992-2.53,1.018-.8,2.023-1.62,3.054-2.38l1.549-1.13c.527-.381,1-.727,1.627-1.165,1.189-.837,2.41-1.629,3.65-2.388A68.42,68.42,0,0,1,59.983,2.993c.693-.216,1.395-.407,2.093-.6.685-.177,1.361-.348,2.042-.51,1.363-.313,2.728-.6,4.1-.829A72.679,72.679,0,0,1,76.373.119,78.807,78.807,0,0,1,92.018.824,95.041,95.041,0,0,1,106.3,4.041,144.931,144.931,0,0,1,131.15,14.48c7.639,4,14.758,8.361,21.609,12.68l2.672,1.693c.917.581,1.8,1.176,2.7,1.764,1.765,1.188,3.509,2.383,5.2,3.589,3.4,2.407,6.649,4.834,9.857,7.191,6.409,4.722,12.588,9.263,18.958,13.1a75.667,75.667,0,0,0,19.85,8.775c.864.238,1.736.418,2.609.627l1.317.255.66.129c.219.039.435.06.653.091l1.307.176c.438.051.881.081,1.322.123.882.1,1.778.115,2.674.164.9.029,1.8.026,2.71.023.909-.042,1.82-.033,2.735-.116l1.374-.1c.459-.035.917-.094,1.377-.141.919-.09,1.837-.229,2.757-.368.923-.12,1.837-.321,2.759-.479.919-.176,1.835-.39,2.755-.587.91-.242,1.826-.466,2.736-.722.9-.275,1.821-.516,2.722-.817,1.812-.571,3.6-1.22,5.376-1.933.888-.353,1.776-.71,2.65-1.1l1.317-.577,1.3-.62A97.221,97.221,0,0,0,274.627,44.93a95.39,95.39,0,0,0,16.141-16.649,4.046,4.046,0,1,1,6.18,5.205Z" transform="translate(595.994 510.826) rotate(45)" fill="#fdb74d"/>
      <g id="Grupo_130836" data-name="Grupo 130836" transform="translate(490.303 524)">
        <g id="Grupo_130781" data-name="Grupo 130781" transform="translate(0 0)" clip-path="url(#clip-path)">
          <g id="Grupo_130840" data-name="Grupo 130840" transform="translate(236.169 -92.048)">
            <g id="Grupo_130864" data-name="Grupo 130864" transform="translate(-198.011 119.181)">
              <path id="Trazado_138128" data-name="Trazado 138128" d="M-134.649,129.784c-1.063,2.272-.5,4.885-18.166.354-16.157-4.156-41.432-20.973-36.825-23.2s33.524,1.049,42.2,7.9A50.616,50.616,0,0,1-134.649,129.784Z" transform="translate(244.533 -86.18)"/>
              <path id="Trazado_138129" data-name="Trazado 138129" d="M-183.783,106.292c-.459,3.8-8.687,21.689-4.517,25.713s8.249,4.5,8.826,3.7,2.655-26.623,2.655-26.623Z" transform="translate(248.795 -85.871)" fill="#211d1d"/>
              <path id="Trazado_138130" data-name="Trazado 138130" d="M-183.708,110.1c5.671-4.5,11.779-6.63,13-6.7,1.508-.076-3.864,3.6-6.213,7.686a16.227,16.227,0,0,0-4.232,10.216c-2.828,3.252-4.712,2.071-6.692,1.988s-3.051-3.287-2.4-5.379C-189.441,115.349-185.793,111.763-183.708,110.1Z" transform="translate(243.043 -103.066)" fill="#ffbc00" opacity="0.55"/>
              <g id="Grupo_130843" data-name="Grupo 130843" transform="translate(30.297 139.742)">
                <g id="Grupo_130840-2" data-name="Grupo 130840" transform="translate(0 166.771)">
                  <path id="Trazado_138131" data-name="Trazado 138131" d="M-150.812,151.963c1.995,11.911-.618,19.813-7.074,19.674-2.293-.042-4.913-2.794-8.033-.563-9.291,6.651-14.038,4.434-16.852,4.461-11.258.056-14.628-15.143-6.06-15.233,8.666-.1,16.227-12.842,16.227-12.842Z" transform="translate(193.652 -147.46)" fill="#211d1d"/>
                </g>
                <path id="Trazado_138132" data-name="Trazado 138132" d="M-190.249,141.4c.57,4.232-2.578,26.783.688,28.194a14.672,14.672,0,0,0,6.88.931l.584-41-6.185,1.167-5.143,9.9Z" transform="translate(194.999 -87.391)" fill="#5038a1"/>
                <path id="Trazado_138133" data-name="Trazado 138133" d="M-192.492,147c.111,5.886,1.9,80.474,2.363,87.771,1.4,22.537,4.913,10.41,2.2,62.551l32.711,8.2s6.435,2.314,2.432-72.788c-.876-16.414.806-72.607-1.605-88.292s-5.817-20.98-5.817-20.98l-30.466,6.977Z" transform="translate(200.549 -123.462)" fill="#5038a1"/>
                <path id="Trazado_138134" data-name="Trazado 138134" d="M-184.362,127.112c1.995,12.94-1.591,86.311,4.323,97.82s5.6,14.858,5.6,14.858-1.862,9.389-1.237,13.433,10.82,5.782,11.314,9.013c-9.514-2.669-13.051,1.188-13.051,1.188s13.551,2.05,11.369,4.038-12.808,2.8-12.808,2.8,15.365,8.388,15.991,12.432-2.641,8.367-2.641,8.367l-22.606-5.719s1.591-36.658-1.3-50.07c-2.335-10.8-3.225-94.671-3.03-104.22C-192.263,121.5-184.362,127.112-184.362,127.112Z" transform="translate(200.723 -111.483)" fill="#8c6df2"/>
                <g id="Grupo_130842" data-name="Grupo 130842" transform="translate(12.731 161.552)">
                  <g id="Grupo_130841" data-name="Grupo 130841">
                    <path id="Trazado_138135" data-name="Trazado 138135" d="M-191.351,147.342c2.12-.681,6.47-.91,13-.194,13.767,2.015,21.265,5.775,22.419,6.275a50.29,50.29,0,0,1-1.16,8.179s-14.594-5.5-23.023-6.47c-9.84-1.383-11.473-.612-11.647-1.1A27.916,27.916,0,0,1-191.351,147.342Z" transform="translate(191.819 -146.709)" fill="#ffde3b"/>
                  </g>
                  <path id="Trazado_138136" data-name="Trazado 138136" d="M-191.734,150.018c4.239.014,17.4-.625,35.032,7.519a12.341,12.341,0,0,0,.41-3.419s-20.014-9.02-35.372-6.727A8.255,8.255,0,0,0-191.734,150.018Z" transform="translate(191.862 -144.874)" fill="#c3d2e0"/>
                </g>
              </g>
              <g id="Grupo_130847" data-name="Grupo 130847" transform="translate(60.307 155.813)">
                <path id="Trazado_138137" data-name="Trazado 138137" d="M-161.433,148.213c-5.163,5.518,4.413,15.782,7.158,22.558,3.933,9.715-5.386,16.47-11.4,16.679-10.681.368-16.268-6.56-15.177-17.471,1-9.951-2.1-7.874-2.842-18.555C-184.269,143.348-161.433,148.213-161.433,148.213Z" transform="translate(222.789 -0.924)" fill="#5038a1"/>
                <path id="Trazado_138138" data-name="Trazado 138138" d="M-189.333,156.209c6.692,36.7,18.061,66.93,20.7,80.967,3.21,17.019,14.885,44.553,16.435,53.142s27.679-.5,29.827-7.658c1.445-4.851-9.236-38.986-11.682-67.666-2.947-34.518-4.767-59.9-10.16-79.71-3.544-13.016-32.5-8.888-32.5-8.888Z" transform="translate(189.333 -125.775)" fill="#5038a1"/>
                <g id="Grupo_130844" data-name="Grupo 130844" transform="translate(24.893 28.385)">
                  <path id="Trazado_138139" data-name="Trazado 138139" d="M-162.413,130.807c1.056,7.8,8.172,29.709,5.031,31.55s-23.51,8.965-22.648,1.355c.229-2.022-4.969-26.144-5.421-27.881C-186.367,132.384-162.413,130.807-162.413,130.807Z" transform="translate(187.389 -124.219)" fill="#5038a1"/>
                  <path id="Trazado_138140" data-name="Trazado 138140" d="M-185.581,140.642l28.6,17.888s-2.474-23.885-6.164-27.019c-3.7-3.155-15.81,1.591-15.81,1.591Z" transform="translate(186.762 -126.472)" fill="#5038a1" style="mix-blend-mode: multiply;isolation: isolate"/>
                  <path id="Trazado_138141" data-name="Trazado 138141" d="M-161.386,129.859c2.842,1.647,3.711,10.264,3.711,10.264s1.126-1.015-6.143,1.14c-8.026,2.37-19.931,5.365-20.765,4.086s-1.168-11.23-1.168-11.23Z" transform="translate(185.751 -129.859)" fill="#5038a1"/>
                </g>
                <path id="Trazado_138142" data-name="Trazado 138142" d="M-188.917,132.029c1.286,7.832,14.649,56.339,17.8,67.937s6.643,25.275,9.229,31.529,7.144,20.111,7.415,22.989,12.175,2.321,16.081.591c6.651-2.96-8.6-17.992-9.277-21.3s7.3-7.443,1.209-8.541-12.113-12.829-12.342-16.929-16.936-40.022-18.11-42.989C-181.69,153.232-188.917,132.029-188.917,132.029Z" transform="translate(191.808 -88.564)" fill="#5038a1"/>
                <g id="Grupo_130846" data-name="Grupo 130846" transform="translate(34.158 144.808)">
                  <g id="Grupo_130845" data-name="Grupo 130845">
                    <path id="Trazado_138143" data-name="Trazado 138143" d="M-182.328,163.172a23.362,23.362,0,0,0,12.683.361,42.37,42.37,0,0,0,17.8-8.951,27.94,27.94,0,0,0-1.341-7.971s-10.772,8.791-19.556,10.028c-9.889,1.4-11.939-1.216-11.647.195A39.545,39.545,0,0,0-182.328,163.172Z" transform="translate(184.418 -146.612)" fill="#5038a1"/>
                  </g>
                  <path id="Trazado_138144" data-name="Trazado 138144" d="M-184.315,157.27c8.59.917,18.833,1.126,31.1-10.348.452,2.432.556,3.461.556,3.461s-13.961,12.509-31.029,8.986A7.3,7.3,0,0,1-184.315,157.27Z" transform="translate(185.029 -144.768)" fill="#5038a1"/>
                </g>
              </g>
              <path id="Trazado_138145" data-name="Trazado 138145" d="M-155.939,108.988c-.063,4.232-8.464,11.063-5.337,16.665,3.086,5.615,3.739,5.038,3.739,5.038l-4.281,13.621-27.04-1.473s11.376-18.722,4.3-21.932C-186.356,120.086-155.939,108.988-155.939,108.988Z" transform="translate(252.466 -69.831)" fill="#f4a684"/>
              <path id="Trazado_138146" data-name="Trazado 138146" d="M-187.831,114.545l20.23,27.047,7.964-16.977s-8.061-6.616-8.3-10.57-.479-3.384-.479-3.384Z" transform="translate(258.576 -60.051)" fill="url(#linear-gradient)" style="mix-blend-mode: multiply;isolation: isolate"/>
              <path id="Trazado_138147" data-name="Trazado 138147" d="M-139.445,111.753c19.681,10.841,24.163,15.949,24.163,15.949S-120,154-121.738,163.443s3.058,52.607.771,66.005c-1.147,6.734-67.659,5.205-71.085,2.62,0,0,14.614-65.275,17.478-75.505s9.653-35.921,12.064-35.477C-154.185,122.622-139.445,111.753-139.445,111.753Z" transform="translate(233.464 -53.381)" fill="#5038a1"/>
              <path id="Trazado_138148" data-name="Trazado 138148" d="M-187.792,118.829c-2.293,11.946-.737,25.372,5.532,27.895,5.7,2.307,19.945-2.293,25.608-13.044s3.482-23.2-7.533-26.991C-176.221,102.547-185.846,108.69-187.792,118.829Z" transform="translate(252.845 -91.292)" fill="#f4a684"/>
              <path id="Trazado_138149" data-name="Trazado 138149" d="M-186.578,113.484c-.535,2.94,8.909,3.885,11.6,6.678s2.55,9.125,2.446,10.25c-.132,1.133,2.87-1.459,3.954,1.4s-3.774,7.561-5.268,7.5c-1.689-.063-2.245,6.922-2.245,6.922a29.538,29.538,0,0,0,12.356-20.7c1.557-13.954-9.618-20.174-14.649-20.549C-185.682,104.464-186.578,113.484-186.578,113.484Z" transform="translate(265.899 -93.737)" fill="#1e0000"/>
              <path id="Trazado_138150" data-name="Trazado 138150" d="M-171.52,110.993c-2.2,2.092-11.814,6.97-14.74,6.991-2.9.014,3.078,11.237,3.078,11.237s16.713-2.752,17.895-10.709C-164.738,114.836-171.52,110.993-171.52,110.993Z" transform="translate(263.19 -57.903)" fill="#5038a1"/>
              <path id="Trazado_138151" data-name="Trazado 138151" d="M-183.256,110.874c2.043,2.453,7.623,9.145,17.311,6.22,5.726,7.29,2.349,12.071,2.349,12.071s-12.808,4.851-19.75-1.14c-8.59-7.415-5.907-8.569-5.907-8.569Z" transform="translate(247.754 -58.611)" fill="#8c6df2"/>
              <g id="Grupo_130851" data-name="Grupo 130851" transform="translate(63.45 4.403)">
                <g id="Grupo_130850" data-name="Grupo 130850">
                  <g id="Grupo_130849" data-name="Grupo 130849">
                    <path id="Trazado_138152" data-name="Trazado 138152" d="M-188.678,120.962c-.229,1.042,4.2.98,15.991,4.594s21.258,10.89,22.071,8.617c5.684-15.636-.223-25.483-13.176-29.34C-173.709,101.872-185.8,107.779-188.678,120.962Z" transform="translate(190.039 -103.414)"/>
                    <g id="Grupo_130848" data-name="Grupo 130848">
                      <path id="Trazado_138153" data-name="Trazado 138153" d="M-188.82,120.068c4.128-11.877,8.978-19.354,26.185-14.663.222.063.417.153.625.222-3.537.236-6.908,1.723-7.693,2.46-4.336,4.038-6.6,10.111-8,15.831C-188.472,120.839-189.153,121.027-188.82,120.068Z" transform="translate(188.881 -103.987)" fill="#211d1d"/>
                    </g>
                  </g>
                </g>
              </g>
              <path id="Trazado_138154" data-name="Trazado 138154" d="M-183.444,109.86a2.45,2.45,0,0,0,2.335,2.564l3.544.167A2.458,2.458,0,0,0-175,110.256l.028-.549a2.456,2.456,0,0,0-2.342-2.564l-3.544-.167a2.449,2.449,0,0,0-2.557,2.342Z" transform="translate(284.662 -81.816)"/>
              <path id="Trazado_138155" data-name="Trazado 138155" d="M-140.18,127.986c-1.209-.473-3.516-3.447-5.052-5.566s-6.018-10.779-11.189-14.253c-6.532-4.413-16.359-5.747-20.271-4.184a58.606,58.606,0,0,0-13.058,7.686,33.084,33.084,0,0,1,20.73,3.051c4.545,2.37,13.273,11.856,16.755,13.294,7.5,3.085,10.216,4.788,12.259,4.892S-140.18,127.986-140.18,127.986Z" transform="translate(247.159 -103.353)" fill="#8c6df2" opacity="0.52"/>
              <path id="Trazado_138156" data-name="Trazado 138156" d="M-182.736,108.991c-.049,1.07.542,1.967,1.327,2.008s1.473-.8,1.529-1.876-.542-1.974-1.341-2.015S-182.687,107.914-182.736,108.991Z" transform="translate(288.874 -81.023)" fill="#211d1d"/>
              <path id="Trazado_138157" data-name="Trazado 138157" d="M-181.6,107.819c.1,3.558-4.628,16.7-3.405,19.764s7.227,8.534,9.131,8.624,7.505-21.592,4.531-24.26S-181.6,107.819-181.6,107.819Z" transform="translate(274.211 -76.786)"/>
              <path id="Trazado_138158" data-name="Trazado 138158" d="M-135.512,132.85c-1.939-2.14-3.037-7.005-11.835-11.522s-39.3-14.858-42.718-11.751c-.354-1.174-.153-2.6,2.71-2.453s6.192-1.2,7.429-1.147c1.216.056,29.973,7.964,36.311,12.363s9.5,11,8.992,13.023S-135.512,132.85-135.512,132.85Z" transform="translate(244.507 -87.758)" fill="#211d1d"/>
              <path id="Trazado_138159" data-name="Trazado 138159" d="M-177.153,152.323a144.526,144.526,0,0,0,3.252-15.449c-5.3-.584-15.893-2.884-12.571-7.234,4.371-5.726,14.823-12.391,18.332-13.044,4.316-2.147,5.483-2.328,12.794-4.892,0,0,1.056,7.665,5,10.334,6.567,4.441-11.772,40.932-16.526,59.6-4.26,16.8-7.519,49.7-7.519,49.7s-20.035-3.218-19.868-6.8C-193.428,207.39-179.175,159.349-177.153,152.323Z" transform="translate(220.351 -53.673)" fill="#8c6df2"/>
              <g id="Grupo_130858" data-name="Grupo 130858" transform="translate(0 62.447)">
                <path id="Trazado_138160" data-name="Trazado 138160" d="M-177.179,112.688c-4.719,1.842-27.756,12.523-18.722,38.875,10.146,29.611,24.663,46.54,39.6,56.589,11.612,7.825,23.531,11.786,33.5,12.4,7.881.486,12.551-9.792,12.488-14.33s-16.929-54.1-31.7-66.13S-177.179,112.688-177.179,112.688Z" transform="translate(198.194 -110.266)" fill="#dbab6b"/>
                <path id="Trazado_138161" data-name="Trazado 138161" d="M-129.412,207.875c-2.585.09-34.809-9.785-47.958-31.585-13.141-21.821-27.992-52.781-15.233-61.85,14.427-2.856,60.515,47.027,65.067,63.142S-127.334,207.806-129.412,207.875Z" transform="translate(201.193 -100.538)" fill="#f4d7b5"/>
                <path id="Trazado_138162" data-name="Trazado 138162" d="M-130.6,206.468c-5.747,1.459-33.322-8.381-46.471-30.188s-27.985-52.774-15.233-61.85c14.434-2.849,60.522,47.033,65.06,63.142S-128.58,205.947-130.6,206.468Z" transform="translate(202.974 -100.597)" fill="#dbab6b"/>
                <path id="Trazado_138163" data-name="Trazado 138163" d="M-129.005,207.566c-2.578.09-34.8-9.778-47.958-31.585s-27.978-52.774-15.226-61.843c14.42-2.856,60.522,47.026,65.053,63.142S-126.921,207.5-129.005,207.566Z" transform="translate(203.656 -102.335)" fill="#f4d7b5"/>
                <path id="Trazado_138164" data-name="Trazado 138164" d="M-128.785,207.571c-2.585.083-34.816-9.778-47.958-31.592s-27.992-52.774-15.233-61.843c14.427-2.849,60.515,47.033,65.053,63.142S-126.721,207.5-128.785,207.571Z" transform="translate(204.909 -102.346)" fill="#dbab6b"/>
                <g id="Grupo_130852" data-name="Grupo 130852" transform="translate(9.782 19.461)">
                  <path id="Trazado_138165" data-name="Trazado 138165" d="M-143.41,193.648c-2.015-.09-25.761-11.307-36.651-29.8-10.772-18.284-21.682-41.946-13.92-47.374,17.6-10.612,52.259,45.081,56.922,59.084C-132.444,189.381-136.947,193.947-143.41,193.648Z" transform="translate(196.603 -115.14)" fill="#f4d7b5"/>
                  <path id="Trazado_138166" data-name="Trazado 138166" d="M-142.271,191.508c-7.172.09-25.893-10.139-36.846-28.715-10.813-18.353-23.9-45.7-13.746-47.409,10.125-.549,47.812,45.762,52.461,59.619C-135.808,188.7-140.659,191.487-142.271,191.508Z" transform="translate(197.105 -113.715)" fill="#dbab6b"/>
                  <path id="Trazado_138167" data-name="Trazado 138167" d="M-146.71,189.111c-4.517.459-22.488-8.318-33.468-26.95-10.855-18.4-21.209-41.272-13.315-46.742,12.057-3.225,47.548,44.942,52.2,58.861C-136.689,188.04-145.167,188.951-146.71,189.111Z" transform="translate(198.583 -114.397)" fill="#f4d7b5"/>
                  <path id="Trazado_138168" data-name="Trazado 138168" d="M-151.311,184.8c-2.071-.6-18.353-5.2-29.382-23.878-10.89-18.465-20.327-39.452-12.342-44.865,9.493-5.177,41.641,27.846,50.585,56.964C-137.83,186.82-149.623,185.305-151.311,184.8Z" transform="translate(200.127 -112.871)" fill="#dbab6b"/>
                </g>
                <g id="Grupo_130853" data-name="Grupo 130853" transform="translate(15.126 26.243)">
                  <path id="Trazado_138169" data-name="Trazado 138169" d="M-154,179.5c-1.494-.069-18.875-10.327-27.033-24.191-8.068-13.7-18.979-34.177-13.169-38.242,13.19-7.957,41.9,36.533,45.4,47.02C-145.344,174.444-149.145,179.712-154,179.5Z" transform="translate(195.835 -116.116)" fill="#f4d7b5"/>
                  <path id="Trazado_138170" data-name="Trazado 138170" d="M-153.971,175.523c-5.372.076-19.41-7.6-27.61-21.515-8.11-13.76-19.013-36.012-11.4-37.311,14.948-4.26,37.923,35.956,41.4,46.345C-148.141,173.306-152.755,175.509-153.971,175.523Z" transform="translate(197.471 -114.533)" fill="#dbab6b"/>
                  <path id="Trazado_138171" data-name="Trazado 138171" d="M-158.1,171.94c-3.384.347-16.852-6.234-25.087-20.195-8.138-13.788-15.893-30.925-9.966-35.032,9.034-2.425,35.629,33.684,39.118,44.115C-150.585,171.133-156.93,171.821-158.1,171.94Z" transform="translate(199.38 -113.257)" fill="#f4d7b5"/>
                  <path id="Trazado_138172" data-name="Trazado 138172" d="M-161.862,167.443c-1.557-.452-13.767-3.9-22.022-17.9-8.159-13.829-14.781-28.194-8.8-32.245,7.116-3.878,31.515,31.835,35,42.3C-154.218,169.937-160.611,167.811-161.862,167.443Z" transform="translate(200.858 -110.838)" fill="#dbab6b"/>
                </g>
                <g id="Grupo_130854" data-name="Grupo 130854" transform="translate(21.957 36.963)">
                  <path id="Trazado_138173" data-name="Trazado 138173" d="M-166.842,160.123c-.9-.035-8.763-3.322-16.428-16.178-4.8-8.145-14.295-23.433-10.841-25.852,6.074-4.323,27.936,24.837,30.014,31.071C-162.047,155.328-161.067,162.09-166.842,160.123Z" transform="translate(194.852 -117.658)" fill="#f4d7b5"/>
                  <path id="Trazado_138174" data-name="Trazado 138174" d="M-167.014,156.724c-3.2.042-11.536-4.517-16.421-12.8-4.823-8.179-14.635-25.317-10.1-26.088,4.5-.243,25.289,25.358,27.36,31.529C-164.137,155.473-166.3,156.717-167.014,156.724Z" transform="translate(195.725 -116.615)" fill="#dbab6b"/>
                  <path id="Trazado_138175" data-name="Trazado 138175" d="M-172.248,150.064c-1.876.167-8.318-5.08-12.968-12.669-4.58-7.505-11.661-16.5-8.409-18.673,1.807-2.272,21.55,19.708,23.545,25.365C-168.092,149.675-171.608,150.009-172.248,150.064Z" transform="translate(197.234 -112.304)" fill="#f4d7b5"/>
                  <path id="Trazado_138176" data-name="Trazado 138176" d="M-175.9,145.545c-.82-.243-5.129-3.37-9.583-10.507-4.392-7.04-10.4-16.7-8.284-16.15,1.439-.459,17.881,16.929,19.806,22.238C-172.06,146.365-175.236,145.747-175.9,145.545Z" transform="translate(198.728 -110.481)" fill="#dbab6b"/>
                </g>
                <path id="Trazado_138177" data-name="Trazado 138177" d="M-129.508,214.7c5.066-.681,9.715-1.1,10.744-2.272,4.336-4.934,11.619-14.35,10.653-17.116-1.2-3.426-14.2-60.043-66.957-81.551,0,0-16.963-5.7-21.925,10.369,0,0,23.364-3.482,54.407,43.552C-118.75,203.749-129.508,214.7-129.508,214.7Z" transform="translate(204.068 -109.72)" fill="#f4d7b5"/>
                <path id="Trazado_138178" data-name="Trazado 138178" d="M-194.828,118.257c.771-1.716,2.967-5.455,11.084-3.287,15.372,4.1,60.043,44.379,65.3,75.283,1.425,8.395-1.063,12.175-3.1,14.948-5.15,6.97-20.647-1.432-23.016-1.932-3.252-.681-29.4-12.488-40.3-37.812S-202.257,134.664-194.828,118.257Z" transform="translate(198.011 -100.608)" fill="url(#linear-gradient-2)" style="mix-blend-mode: multiply;isolation: isolate"/>
                <path id="Trazado_138179" data-name="Trazado 138179" d="M-129.374,216.137c15.33,4.01,20.807-14.893,19.771-18.374s-13.148-61.023-64.768-85.144c0,0-22.5,2.578-22.433,10.264,0,0,30.431,2.224,57.4,49.772C-118.7,209.181-129.374,216.137-129.374,216.137Z" transform="translate(205.192 -110.676)" fill="#dbab6b"/>
                <path id="Trazado_138180" data-name="Trazado 138180" d="M-127.4,217.986c9.507.528,16.811-14.17,16.414-17.777-.876-7.908-13.51-62.412-65.13-86.527,0,0-12.613-5.358-20.542,8.221,0,0,29.688-.514,57.437,48.534C-119.579,205.164-127.4,217.986-127.4,217.986Z" transform="translate(206.037 -110.551)" fill="#f4d7b5"/>
                <path id="Trazado_138181" data-name="Trazado 138181" d="M-126.4,220.309c9.938.48,20.223-12.154,19.743-20.264-1.175-19.646-19.75-77.472-69.959-87.18,0,0-12.287-3.919-20.23,9.66,0,0,33.315-.785,61.057,48.263C-116.147,205.514-126.4,220.309-126.4,220.309Z" transform="translate(204.919 -112.339)" fill="#dbab6b"/>
                <path id="Trazado_138182" data-name="Trazado 138182" d="M-162.358,210.769c7.485.236,17.1-10.306,17.526-13.906,2.259-18.763-21.293-86.068-40.821-82.7,0,0-2.828,1.821-5.122,9.875,0,0-1.473.424,16.644,27.54C-148.077,190.581-162.358,210.769-162.358,210.769Z" transform="translate(240.894 -102.243)" fill="#f4d7b5"/>
                <g id="Grupo_130857" data-name="Grupo 130857" transform="translate(33.563 5.608)">
                  <path id="Trazado_138183" data-name="Trazado 138183" d="M-193.181,114.036l9.565,32.751,19.775-5.938-7.6-25.213-8.964,2.751Z" transform="translate(193.181 -107.853)" fill="url(#linear-gradient-3)" style="mix-blend-mode: multiply;isolation: isolate"/>
                  <g id="Grupo_130856" data-name="Grupo 130856" transform="translate(0.04)">
                    <path id="Trazado_138184" data-name="Trazado 138184" d="M-183.9,113.583l1.439.883-.007.021c1.251.945.8,4.809-1.126,8.944-2,4.336-4.823,7.29-6.31,6.609l-1.341-.6a43.961,43.961,0,0,1,2.307-8.492A46.788,46.788,0,0,1-183.9,113.583Z" transform="translate(204.645 -110.549)" fill="#c3d2e0"/>
                    <path id="Trazado_138185" data-name="Trazado 138185" d="M-183.13,113.669c-1.515-.695-4.378,2.279-6.407,6.664s-2.439,8.5-.938,9.194,4.378-2.279,6.407-6.664S-181.622,114.371-183.13,113.669Z" transform="translate(203.872 -110.635)" fill="#93aacc"/>
                    <g id="Grupo_130855" data-name="Grupo 130855">
                      <path id="Trazado_138186" data-name="Trazado 138186" d="M-172.531,118.091l-5.963,12.273-14.371-10.612c-.556-.257-.347-1.925.473-3.753s1.946-3.072,2.495-2.821Z" transform="translate(193.176 -113.146)" fill="#93aacc"/>
                      <path id="Trazado_138187" data-name="Trazado 138187" d="M-177.517,124.909l-15.254-7.818s1.258-3,.466-3.94c6.428,1.772,16.5,4.677,16.5,4.677A13.054,13.054,0,0,1-177.517,124.909Z" transform="translate(195.584 -113.119)" fill="#c3d2e0"/>
                    </g>
                  </g>
                </g>
              </g>
              <path id="Trazado_138188" data-name="Trazado 138188" d="M-187.968,119.788c3.218,1.362,5.692,1.223,6.762,1.918s1.557,2.7-4.913,2.293A43.832,43.832,0,0,0-179,126.467c1.751.341,6.852,1.244,5.886,2.314-.945,1.084-2.912,1.994-6.546,1.348,0,0,6.157-1.6,5.594,1.279s-4.476,2.2-6.776,2.564c1.779-.612,6.115-1.022,4.531.584-1.564,1.605-9.771,3.593-12.544,3.03s-7-4.142-8.374-7.505-.132-11.043,1.306-11.2S-187.968,119.788-187.968,119.788Z" transform="translate(199.143 -11.041)"/>
              <path id="Trazado_138189" data-name="Trazado 138189" d="M-190.688,130.641c-1.64-1.008-3.155-2.279-2.9-3.447.3-1.4,2.55-.9,4.406-.236-.354-.16-.723-.334-1.091-.528-1.8-.9-2.113-2.967-.083-2.662,1.8.264,6.7,1.953,9.243,2.279a1.261,1.261,0,0,1,.215-.063,4.559,4.559,0,0,0,1.835-1.445c.4-1.307-3.787-2.384-3.447-4.2.473-2.474,13.795,2.106,17.408,2.523,0,0,8.534,12.544-.236,17.019-7.8,3.989-13.384,3.489-15.33,2.94-4.343.208-11.884-6.553-11.453-7.776a1.343,1.343,0,0,1,1.056-.945c-1.633-.973-2.94-2.3-2.467-3.926C-193.363,129.634-192.085,130.037-190.688,130.641Z" transform="translate(224.087 -6.66)" fill="#1d2318"/>
              <g id="Grupo_130863" data-name="Grupo 130863" transform="translate(54.268 72.382)">
                <g id="Grupo_130859" data-name="Grupo 130859">
                  <path id="Trazado_138190" data-name="Trazado 138190" d="M-126.143,115.068c4.177,2.21,8.951,10.528-3.461,32.183,0,0-7.568,13.767-19.09,23.176-11.3,7.227-22.106,15.323-40.633,13.364,2.53-9.131,1.355-20.466-.876-27.429,10.494-5.65,20.6-7.262,25.977-11.39,5.337-4.086,8.506-11.091,21.536-25.636C-136.462,111.719-128.769,113.686-126.143,115.068Z" transform="translate(190.202 -113.769)" fill="#8c6df2"/>
                </g>
                <g id="Grupo_130860" data-name="Grupo 130860" transform="translate(32.829 15.101)">
                  <path id="Trazado_138191" data-name="Trazado 138191" d="M-165.95,146.742c-1.939-4.031-3.086-8.318-6.22-12.46-3.829-5.08-10.5-9.173-13.308-9.854a78.637,78.637,0,0,1,6.22-8.485s8.089,3.516,12.669,8.527c4.475,4.9,7.971,11.2,7.38,12.2A113.618,113.618,0,0,1-165.95,146.742Z" transform="translate(185.478 -115.942)" fill="#fedc72"/>
                  <path id="Trazado_138192" data-name="Trazado 138192" d="M-185.221,119.47a28.911,28.911,0,0,1,12.5,7.867c3.551,4.482,7.366,12.509,7.867,13.6a35.266,35.266,0,0,1,2.126-3.044,41.169,41.169,0,0,0-7.742-13.628c-5.511-5.608-9.917-6.873-12.272-7.964A25.254,25.254,0,0,0-185.221,119.47Z" transform="translate(187.007 -113.806)" fill="#e5e1f1"/>
                </g>
                <g id="Grupo_130862" data-name="Grupo 130862" transform="translate(3.919 37.353)">
                  <g id="Grupo_130861" data-name="Grupo 130861">
                    <path id="Trazado_138193" data-name="Trazado 138193" d="M-187.289,152.14c.931-1.793,2.078-9.27,1.376-15.407-1.439-10.209-2.974-11.8-3.725-14.344a49.189,49.189,0,0,1,8.916-3.245,34.168,34.168,0,0,1,4.948,15.407c1.32,9.006.271,16.088-1.008,16.484A29.036,29.036,0,0,1-187.289,152.14Z" transform="translate(189.638 -119.144)" fill="#fedc72"/>
                  </g>
                  <path id="Trazado_138194" data-name="Trazado 138194" d="M-182.022,151.05c2.2-8.249,1.445-22.078-4.086-31.814-4.093.987-2.947,1.647-2.947,1.647s7.519,15.476,3.072,30.89C-183.134,152.19-182.022,151.05-182.022,151.05Z" transform="translate(192.23 -118.597)" fill="#d7ccfb"/>
                </g>
              </g>
            </g>
            <g id="Grupo_130899" data-name="Grupo 130899" transform="translate(-125.844 100.693)">
              <path id="Trazado_138195" data-name="Trazado 138195" d="M-167.5,111.014c2.55,1.029,12.252,8.937,16.6,21.453s7.151,36.776,3.065,38.569-20.181-6.651-21.453-13.28C-170.576,151.1-167.5,111.014-167.5,111.014Z" transform="translate(294.841 -39.29)" fill="#5038a1"/>
              <path id="Trazado_138196" data-name="Trazado 138196" d="M-165.291,174.637c2.9,5.115,23.51,2.641,25.032,0,2.55-4.427,1.362-10.9-4.086-12.94s-5.8-8.68-7.158-11.4-14.128-1.2-16.845-.514-5.24,15.754-.771,19.417A13.1,13.1,0,0,1-165.291,174.637Z" transform="translate(283.177 185.097)"/>
              <path id="Trazado_138197" data-name="Trazado 138197" d="M-146.913,121.813c2.557,8.423,14.364,22.794,15.469,39.035.744,10.952,0,51.071,5.448,76.269,2.495,11.529,6.129,72.8,4.086,83.7-.188.973-9.917-4.072-14.135-3.238-8.054,1.605-16.706,9.924-17.874,8.687-10.9-11.578-12.766-92.045-21.105-156.57l2.071-47.506Z" transform="translate(262.609 24.957)" fill="#8c6df2"/>
              <g id="Grupo_130865" data-name="Grupo 130865" transform="translate(87.586 168.508)">
                <path id="Trazado_138198" data-name="Trazado 138198" d="M-153.918,307.654c.848.91,5.733-3.315,11.453-6.275a52.358,52.358,0,0,1-.556-6.671c0-3.4,10.216-7.477,8.172-8.165s-14.983,2.724-14.983-.681,8.172-2.724,14.3-6.129c-4.767-2.731-11.585-2.043-12.94-6.129s-2.724-34.663-4.767-41.474,2.043-27.242,0-34.733-10.9-64.018-10.9-72.19l-9.75-.264-1.14,26.144C-166.684,215.61-164.814,296.077-153.918,307.654Z" transform="translate(175.023 -124.941)" fill="#5038a1"/>
              </g>
              <path id="Trazado_138199" data-name="Trazado 138199" d="M-165.675,104.278c-11.056,1.48-15.511,1.9-11.717,5.136s65.109,13.35,65.387,9.152-11.7-8.659-27.144-10.271A263.617,263.617,0,0,1-165.675,104.278Z" transform="translate(240.606 -79.365)" fill="#5038a1"/>
              <path id="Trazado_138200" data-name="Trazado 138200" d="M-155.434,174.637c-2.9,5.115-23.51,2.641-25.032,0-2.557-4.427-1.362-10.9,4.086-12.94s5.789-8.68,7.158-11.4,14.121-1.2,16.845-.514,5.24,15.754.771,19.417A13.024,13.024,0,0,0-155.434,174.637Z" transform="translate(222.568 185.097)"/>
              <path id="Trazado_138201" data-name="Trazado 138201" d="M-156.442,121.813c-2.571,8.423-17.408,18.034-18.513,34.26-.757,10.966,3.4,58.91-2.05,84.108-2.495,11.522-4.774,64.289-4.086,80.967.042.994,9.236-2.877,13.454-2.036,8.061,1.605,16.8,8.471,17.874,7.151,9.194-11.237,12.259-89.147,18.715-153.845l.639-50.23Z" transform="translate(225.765 24.957)" fill="#5038a1"/>
              <g id="Grupo_130867" data-name="Grupo 130867" transform="translate(75.585 41.626)">
                <path id="Trazado_138202" data-name="Trazado 138202" d="M-170.51,106.683l-6.241,24.33s6.692,31.884,14.107,34.58,14.7-16.588,14.545-21.738c-.16-5.129-1.786-33.308-1.786-33.308Z" transform="translate(176.75 -106.683)" fill="#f4a684"/>
                <g id="Grupo_130866" data-name="Grupo 130866" transform="translate(12.245 4.323)">
                  <path id="Trazado_138203" data-name="Trazado 138203" d="M-155.2,141.419c-.167-5.143-5.1-32.384-5.1-32.384l-2.411-1.73-12.28,59.681C-167.608,169.426-155.029,146.5-155.2,141.419Z" transform="translate(174.988 -107.305)" fill="#ffbea1"/>
                </g>
              </g>
              <path id="Trazado_138204" data-name="Trazado 138204" d="M-131.6,119.985c-1.1-.57-19.708-10.306-19.708-10.306s-6.977,2.724-19.1,7.575c-8.673,3.475-6.164,4.538-6.657,9.09-.514,4.566.188,33.517,1.2,38.59a64.525,64.525,0,0,1-.688,30.64c-.417,1.6-6.651,49.7-3.739,51.078,6.018,2.842,37.763,1.188,49.368,1.362,0-18.756-.75-86.04,3.412-95.346C-121.993,140.319-128.115,121.806-131.6,119.985Z" transform="translate(226.674 -47.232)" fill="#5038a1"/>
              <g id="Grupo_130868" data-name="Grupo 130868" transform="translate(84.855 63.294)">
                <path id="Trazado_138205" data-name="Trazado 138205" d="M-159.947,114.867c.792-1.119,3.315-.368,5.97-5.066,0,0,.459.1,12.127,4.649,8.7,3.384,9.382,2.87,9.875,7.408.514,4.58,2.53,40.7,1.508,45.755s7.693,56.665,11.237,75.248c.952,4.983-26.025,4.677-45.289,4.427,2.043-80.363-10.9-114.616-10.9-127.354C-175.416,107.848-166.7,124.277-159.947,114.867Z" transform="translate(175.416 -109.801)" fill="#8c6df2"/>
              </g>
              <g id="Grupo_130869" data-name="Grupo 130869" transform="translate(74.66 4.959)">
                <path id="Trazado_138206" data-name="Trazado 138206" d="M-140.2,124.34c1.355-10.362-.292-19.924-15.1-22.009-18.513-2.627-18.541,8.937-20.591,21.529s3.836,26.762,13.12,28.889c12.231,2.8,15.157-5.671,19.083-14.573,1.564-.716,2.425-3.482,3.489-6.491C-138.869,127.953-138.278,124.951-140.2,124.34Z" transform="translate(180.322 -98.145)" fill="#ffbea1"/>
                <path id="Trazado_138207" data-name="Trazado 138207" d="M-157.411,102.365c-2.252-1.668-8.075-.66-11.592,1.807-3.1,2.154-6.449,7.207-7.457,12.634a33.253,33.253,0,0,0,.111,11.063l1.077-3.6a3.938,3.938,0,0,1,3.377-.118c.771.361,1.466,2.53,2.12,2.808a4.452,4.452,0,0,0,1.494.438c1.515-.195,3.586-5.775,6.491-8.437,4.211-3.836,11.612-1.856,11.612-1.856Z" transform="translate(176.883 -100.59)" fill="#2f0300"/>
                <path id="Trazado_138208" data-name="Trazado 138208" d="M-173.77,109.839c1.459,2.321.7,9.458,5.615,9.889,4.934.41,12.071,1.689,13.35,3.787,1.925,3.12,1.452,7.394,1.452,7.394l2.7-.9s3.065-7.665.723-14.434c-1.779-5.122-3.357-9.236-9.027-11.737-2.557-1.119-11.995-4.441-14.8-.716C-175.083,104.884-173.77,109.839-173.77,109.839Z" transform="translate(191.97 -101.407)" fill="#750700"/>
              </g>
              <path id="Trazado_138209" data-name="Trazado 138209" d="M-141.723,131.447c-3.405,10.9-7.832,38.131-10.549,49.716s-4.26,13.107-6.984,17.193,4.093,21.724-3.058,39.952c-2.488,6.331-15.671,3.4-15.671,3.4s12.259,2.717,12.94,5.448-9.535,4.086-9.535,4.086,11.578,0,12.94,4.76-18.381,0-18.381,2.731,16.845,6.984,22.982,11.751c11.4-19.924,15.831-95.45,15.831-106.346S-141.723,131.447-141.723,131.447Z" transform="translate(232.874 82.274)" fill="#5038a1"/>
              <path id="Trazado_138210" data-name="Trazado 138210" d="M-166.574,144.187c-.688,7.5-.771,31.926-3.489,31.926s-10.9,2.043-11.585-1.362,6.22-27.325,6.9-28.013-4.086,1.279-4.086,1.279,4-18.207,8.082-17.533l4.086.681Z" transform="translate(222.916 76.428)" fill="#5038a1"/>
              <path id="Trazado_138211" data-name="Trazado 138211" d="M-168.955,143.4c.681,7.492.771,31.919,3.5,31.919s10.772.6,11.446-2.8-6.088-25.887-6.769-26.561c-.334-.341.049,1.383,1.154,1.786s3.065-2.808,3.065-2.808-5.4-15.713-9.444-14.816c-2.3.521-2.863.257-2.863.257Z" transform="translate(298.71 74.151)" fill="#5038a1"/>
              <path id="Trazado_138212" data-name="Trazado 138212" d="M-171.949,106.07a57.985,57.985,0,0,0,1.022,16.22c.556,3.183,2.676,16.727,15.191,18.645l-1.022,1.786s-14.816-.771-18.006-17.749c-1.654-8.819-2.815-17.624-1.529-19.8S-171.949,106.07-171.949,106.07Z" transform="translate(251.787 -78.655)"/>
              <path id="Trazado_138213" data-name="Trazado 138213" d="M-150.713,106.873c-.764,3.829-7.915,21.835-11.745,24.51s-10.09,6-11.494,4.218a8.908,8.908,0,0,1,.507-2.3s8.61-2.495,10.223-4.719c3.954-5.5,10.084-22.989,10.084-22.989Z" transform="translate(268.981 -71.536)" fill="#211d1d"/>
              <path id="Trazado_138214" data-name="Trazado 138214" d="M-168.258,108.856c.229-3.676-9.535,12.6-9.535,12.6s19.41,11.237,26.567,9.7,1.529-10.215,1.529-10.215S-168.592,114.471-168.258,108.856Z" transform="translate(246.129 -55.346)" fill="#5038a1"/>
              <path id="Trazado_138215" data-name="Trazado 138215" d="M-174.678,114.317c1.786,1.279,17.964-1.953,18.728-5.532,4.086,2.043,5.282,8.082,4,9.618s-11.494,12.509-18.388,9.194S-174.678,114.317-174.678,114.317Z" transform="translate(261.917 -52.551)" fill="#5038a1"/>
              <g id="Grupo_130877" data-name="Grupo 130877" transform="translate(61.894)">
                <g id="Grupo_130873" data-name="Grupo 130873">
                  <g id="Grupo_130872" data-name="Grupo 130872" transform="translate(11.024)">
                    <path id="Trazado_138216" data-name="Trazado 138216" d="M-131.436,133.751c-.368,1.175-4.781-1.425-18.652-4.531s-27.506-1.2-27.033-3.954c3.245-18.909,16.79-27.019,29.827-23.934,5.609,1.329,10.579,5.471,13.833,11.32A27.048,27.048,0,0,1-131.436,133.751Z" transform="translate(177.134 -100.693)" fill="#5038a1"/>
                    <g id="Grupo_130871" data-name="Grupo 130871" transform="translate(29.081 0.514)">
                      <g id="Grupo_130870" data-name="Grupo 130870">
                        <path id="Trazado_138217" data-name="Trazado 138217" d="M-154.6,134.36c4.628-14.858-.1-29.695-17.589-33.468-.25-.049-.5-.076-.758-.125,3.419,2.252,6.067,7.714,6.435,8.9,2.043,6.525.848,13.9-1.022,20.438C-154.985,133.158-154.95,135.479-154.6,134.36Z" transform="translate(172.949 -100.767)" fill="#8c6df2"/>
                      </g>
                    </g>
                  </g>
                  <path id="Trazado_138218" data-name="Trazado 138218" d="M-178.72,107.786c4.531-1.32,19.848.7,26.484,1.4s33.545,6.317,38.187,11.2c5.893-.737.354-5.129-4.99-7.707-9.09-4.371-37.832-10.077-49.4-8.193C-172.361,105.125-178.72,107.786-178.72,107.786Z" transform="translate(178.72 -80.33)" fill="#8c6df2"/>
                </g>
                <g id="Grupo_130876" data-name="Grupo 130876" transform="translate(10.473 17.081)">
                  <path id="Trazado_138219" data-name="Trazado 138219" d="M-176.651,106.339s28.6-3.572,30.4-2.8a27.815,27.815,0,0,0-.764,4.844s-28.353.938-29.632.6S-176.651,106.339-176.651,106.339Z" transform="translate(177.213 -101.496)"/>
                  <path id="Trazado_138220" data-name="Trazado 138220" d="M-169.435,103.723l9.083,7.068s-.459,4.065-.994,3.76c-1.362-.764-6.122-4.427-10.132-6.3C-172.4,107.823-169.435,103.723-169.435,103.723Z" transform="translate(210.269 -99.748)" fill="#211d1d"/>
                  <g id="Grupo_130875" data-name="Grupo 130875" transform="translate(28.35)">
                    <path id="Trazado_138221" data-name="Trazado 138221" d="M-159.072,110.92c-.243,1.689-1.32,3.183-2.891,2.954l-8.284-1.48a3.408,3.408,0,0,1-2.849-3.885l.4-2.634a3.155,3.155,0,0,1,3.815-2.648l8.006,1.981a3.21,3.21,0,0,1,2.363,3.628Z" transform="translate(173.133 -103.151)"/>
                    <g id="Grupo_130874" data-name="Grupo 130874" transform="translate(1.893 1.973)">
                      <path id="Trazado_138222" data-name="Trazado 138222" d="M-172.034,103.435l10.688,2.3s-.076,3.787-1.807,4.441c-1.306.5-9.708-.82-9.708-2.953A9.254,9.254,0,0,1-172.034,103.435Z" transform="translate(172.861 -103.435)" fill="#93aacc"/>
                      <path id="Trazado_138223" data-name="Trazado 138223" d="M-172.21,103.63l8.228,1.876s-.167,2.12-1.445,2.613c-.98.368-7.22-.619-7.22-2.21A4.552,4.552,0,0,1-172.21,103.63Z" transform="translate(174.128 -102.275)" fill="#fff"/>
                    </g>
                  </g>
                </g>
              </g>
              <g id="Grupo_130880" data-name="Grupo 130880" transform="translate(61.297 81.744)">
                <g id="Grupo_130879" data-name="Grupo 130879" transform="translate(1.806)">
                  <path id="Trazado_138224" data-name="Trazado 138224" d="M-165.689,143.548a2.761,2.761,0,0,1-2.71,2.808l-6.9.125a2.759,2.759,0,0,1-2.814-2.71l-.431-28.367a2.759,2.759,0,0,1,2.71-2.814l6.9-.132a2.759,2.759,0,0,1,2.814,2.71Z" transform="translate(178.546 -112.456)" fill="#8c6df2"/>
                  <path id="Trazado_138225" data-name="Trazado 138225" d="M-170.77,139.535c.014,1.2-.653,2.182-1.522,2.189l-3.9.076c-.862.014-1.577-.938-1.605-2.133l-.348-24.163c-.028-1.2.66-2.175,1.515-2.2l3.905-.069c.862-.021,1.578.938,1.6,2.133Z" transform="translate(180.937 -107.803)" fill="#fdb74d"/>
                  <g id="Grupo_130878" data-name="Grupo 130878" transform="translate(0.778 1.959)">
                    <path id="Trazado_138226" data-name="Trazado 138226" d="M-178.433,118.368a5.526,5.526,0,0,1,5.42-5.629,5.535,5.535,0,0,1,5.629,5.421,5.522,5.522,0,0,1-5.428,5.622A5.51,5.51,0,0,1-178.433,118.368Z" transform="translate(178.434 -112.738)"/>
                    <path id="Trazado_138227" data-name="Trazado 138227" d="M-178.224,117.091a4.059,4.059,0,0,1,4-4.142,4.054,4.054,0,0,1,4.142,3.989,4.053,4.053,0,0,1-3.989,4.142A4.059,4.059,0,0,1-178.224,117.091Z" transform="translate(179.678 -111.488)" fill="#bed1e4"/>
                  </g>
                </g>
                <path id="Trazado_138228" data-name="Trazado 138228" d="M-162,121.443a.92.92,0,0,1-.785,1.022h-15.24a.93.93,0,0,1-.785-1.022v-5.108a.93.93,0,0,1,.785-1.022h15.24a.92.92,0,0,1,.785,1.022Z" transform="translate(178.806 -95.452)" fill="#fedc72"/>
              </g>
              <g id="Grupo_130885" data-name="Grupo 130885" transform="translate(0 162.136)">
                <g id="Grupo_130882" data-name="Grupo 130882" transform="translate(19.356 86.954)">
                  <path id="Trazado_138229" data-name="Trazado 138229" d="M-174.291,138.312c-1.008-1.571-2.773-2.217-3.968-1.459l-5.58,3.565c-1.188.757-1.341,2.648-.34,4.211l2.557,4c.994,1.564,2.773,2.217,3.968,1.452l5.58-3.558c1.188-.764,1.348-2.641.34-4.211Z" transform="translate(184.841 -136.536)" fill="#292929"/>
                  <g id="Grupo_130881" data-name="Grupo 130881" transform="translate(0.043 0.004)">
                    <path id="Trazado_138230" data-name="Trazado 138230" d="M-183.828,140.415l5.58-3.558c1.188-.764,2.96-.111,3.968,1.452l1.709,2.682-9.889,6.317-1.723-2.682C-185.176,143.063-185.016,141.172-183.828,140.415Z" transform="translate(184.835 -136.537)"/>
                  </g>
                </g>
                <path id="Trazado_138231" data-name="Trazado 138231" d="M-153.538,150.079c.34-3.009-.917-10.375-2.662-13.127-1.9-3.009-14.969-9.243-19.229-8.061-4.267,1.2-12.21,9.43-10.209,19.125s2.057-1.981,2.057-1.981,4.024-12.759,8.381-13.628,15.49,3.4,16.741,6.581a95.478,95.478,0,0,1,2.78,10.3Z" transform="translate(197.572 -95.95)" fill="#dbab6b"/>
                <path id="Trazado_138232" data-name="Trazado 138232" d="M-159.027,148.289c.34-3.016-.924-10.382-2.662-13.141-1.9-3-14.357-8.325-18.624-7.137s-7.8,13.683-5.782,23.378,2.05-1.988,2.05-1.988,1.9-15.921,6.262-16.79,12.592,1.4,13.836,4.587a95.755,95.755,0,0,1,2.773,10.3Z" transform="translate(193.276 -101.318)" fill="#f4d7b5"/>
                <path id="Trazado_138233" data-name="Trazado 138233" d="M-178.624,135.077c.639-.883,1.432-3.4-.987-4.489s-3.961.716-3.7,1.96S-178.624,135.077-178.624,135.077Z" transform="translate(213.144 -86.974)" fill="#292929"/>
                <path id="Trazado_138234" data-name="Trazado 138234" d="M-179.276,136.41c.792-.924,2.94-2.766,1.418-3.753s-.57-1.432-1.515-.994a12.215,12.215,0,0,0-2.537,2.307Z" transform="translate(221.636 -79.584)" fill="#292929"/>
                <path id="Trazado_138235" data-name="Trazado 138235" d="M-185.421,151.344l21.682,21.328,20.522-4.642s2.821-14.976-.167-19.972-11.9-19.75-16.957-17-23.385,10.264-24.976,13.093S-189.237,148.168-185.421,151.344Z" transform="translate(188.42 -84.192)" fill="#c3d2e0" opacity="0.62"/>
                <path id="Trazado_138236" data-name="Trazado 138236" d="M-187.437,146.6c1.091-.841-.368-5.115.952-6.1,3.982-3.773,17.6-10.681,20.584-10.452s6.984,3.787,6.984,3.787-11.592,8.819-18.228,10.674A55.712,55.712,0,0,1-187.437,146.6Z" transform="translate(188.753 -88.255)" fill="#292929"/>
                <g id="Grupo_130883" data-name="Grupo 130883" transform="translate(24.665 82.131)">
                  <path id="Trazado_138237" data-name="Trazado 138237" d="M-163.207,144.839l-16.81,4.7-4.045-7.352c-.306-1.091,4.038-3.259,9.688-4.844s10.5-1.981,10.8-.9Z" transform="translate(184.077 -135.842)"/>
                  <path id="Trazado_138238" data-name="Trazado 138238" d="M-164.492,137.742l-.042-.917c-.285-1.021-4.844-.646-10.195.848s-9.43,3.544-9.145,4.566l.438.806c.674-1.091,4.385-2.821,9.055-4.128S-165.639,137.152-164.492,137.742Z" transform="translate(185.203 -133.416)" fill="#292929"/>
                  <path id="Trazado_138239" data-name="Trazado 138239" d="M-165.563,138.045l-.035-.855c-.264-.959-4.531-.6-9.528.8s-8.826,3.308-8.555,4.267l.41.758c.632-1.036,4.107-2.648,8.471-3.878S-166.634,137.5-165.563,138.045Z" transform="translate(186.357 -131.029)" fill="#292929"/>
                  <path id="Trazado_138240" data-name="Trazado 138240" d="M-166.672,137.578c-.264-.9-4.232-.591-8.86.716s-8.2,3.086-7.95,3.989,4.225.591,8.868-.716S-166.415,138.489-166.672,137.578Z" transform="translate(187.542 -128.582)" fill="#292929"/>
                </g>
                <path id="Trazado_138241" data-name="Trazado 138241" d="M-142.425,169.3c1.626-3.634,4.232-15.643,1.1-21.133s-12.481-21.522-19.827-16.81c-14.232,9.125-17.881,9.083-25.164,12.446-3.954,4.823,2.008,10.313,4.663,12.217,0,0-5.976-6.81-2.217-9.194,2.6-1.647,7.832.2,23.92-12.439,3.2-.556,6.081,1.828,9.667,6.122s7.262,9.917,7.749,13.3c1.008,6.887-2.113,16.109-2.113,16.109Z" transform="translate(187.626 -85.467)"/>
                <path id="Trazado_138242" data-name="Trazado 138242" d="M-170.858,161.838l-9.034-30.348s-3.072,3.245-4.3,3.586c7.811,17.436,12.148,26.31,12.148,26.31Z" transform="translate(208.047 -79.606)" fill="#fff" opacity="0.63"/>
                <path id="Trazado_138243" data-name="Trazado 138243" d="M-177,161.166l-6.164-29.563s3.822,1.313,4.865,3.141S-177,161.166-177,161.166Z" transform="translate(214.187 -78.934)" fill="#fff" opacity="0.46"/>
                <g id="Grupo_130884" data-name="Grupo 130884" transform="translate(37.296 66.756)">
                  <path id="Trazado_138244" data-name="Trazado 138244" d="M-175.014,138.551a6.064,6.064,0,0,1-1.216,4.3l.021,1.147-2.4-.021v-.014c-1.842-.125-3.44-2.21-3.635-4.913-.194-2.821,1.216-5.205,3.162-5.421l2.738.035.014,1.286A6.506,6.506,0,0,1-175.014,138.551Z" transform="translate(182.26 -133.624)"/>
                  <path id="Trazado_138245" data-name="Trazado 138245" d="M-174.629,138.564c-.208-2.863-2-5.073-4.024-4.927s-3.5,2.578-3.3,5.441,2,5.073,4.024,4.927S-174.434,141.434-174.629,138.564Z" transform="translate(183.98 -133.63)" fill="#292929"/>
                </g>
                <path id="Trazado_138246" data-name="Trazado 138246" d="M-178.978,124.024c-1.237,6.734-.4,10.869-3.127,14.309s-5.643,10.73-4.364,15.143c.646,2.2,4.072,8.131,7.325,10.64,5.275,4.093,11.89-1.862,12.085-3.4.34-2.724-2.981-1.619-4.427-2.724-2.029-1.557-3.357-6.234-1.188-7.922s3.871,10.994,9.194,7.325c1.876-1.3-3.225-11.828-.855-14.649s4.607-8.582,3.405-10.9S-178.978,124.024-178.978,124.024Z" transform="translate(192.665 -124.024)" fill="#1d2318"/>
                <path id="Trazado_138247" data-name="Trazado 138247" d="M-184.76,131.429c1.021.257,8.506,1.7,9.7,5.017s2.634-1.362,2.634-1.362-1.862-5.184-11.654-7.067A9.392,9.392,0,0,0-184.76,131.429Z" transform="translate(204.666 -100.268)" fill="#f4d7b5"/>
              </g>
              <path id="Trazado_138248" data-name="Trazado 138248" d="M-143.93,111.3c-4.767-.681-11.251,5.657-14.295,14.295-4.086,11.585-10.9,33.378-16.352,43.593s-12.94,42.9-11.578,45.623c6.817-1.355,18.729,4.767,23.5,8.173,6.129-16.345,10.035-22.53,13.273-33.023,5.448-17.714,4.086-15.671,6.817-23.836S-143.93,111.3-143.93,111.3Z" transform="translate(195.414 -37.869)" fill="#8c6df2"/>
              <path id="Trazado_138249" data-name="Trazado 138249" d="M-175.912,137.372c7.151,2.544,29.792,3.565,32.857,3.058-.507,12.259-2.21,42.906-5.789,42.906s-31.668.507-31.668-4.6S-175.912,137.372-175.912,137.372Z" transform="translate(229.953 117.524)" fill="#1d2318"/>
              <path id="Trazado_138250" data-name="Trazado 138250" d="M-173.714,141.959c4.093,0,32.405-3.065,35.5-4.587,2.55,14.295,5.872,38.555,4.851,40.6s-33.969,7.915-36.012,4.851S-173.714,141.959-173.714,141.959Z" transform="translate(270.397 117.524)" fill="#42493a"/>
              <g id="Grupo_130886" data-name="Grupo 130886" transform="translate(10.365 154.554)">
                <path id="Trazado_138251" data-name="Trazado 138251" d="M-183.321,122.933c.438,0,19.583,5.2,26.394,13.7a87.129,87.129,0,0,0-3.746,9.027s-14.9-12.676-25.463-11.487C-184.856,127.534-184.085,122.933-183.321,122.933Z" transform="translate(186.135 -122.933)" fill="#fedc72"/>
                <path id="Trazado_138252" data-name="Trazado 138252" d="M-185.009,123.4c.417-.125,19.493,4.517,26.3,13.03-.389,1.23-1.571,3.954-1.571,3.954s-14.482-13.405-25.761-12.259C-185.78,125.91-185.307,123.478-185.009,123.4Z" transform="translate(186.718 -120.163)" fill="#e5e1f1"/>
              </g>
              <g id="Grupo_130887" data-name="Grupo 130887" transform="translate(26.286 106.2)">
                <path id="Trazado_138253" data-name="Trazado 138253" d="M-183.844,129.179c3.405,2.377,17.033,6.463,23.836,17.019,3.072-7.144,3.405-10.9,3.405-10.9a46.122,46.122,0,0,0-22.6-19.326A61.464,61.464,0,0,0-183.844,129.179Z" transform="translate(183.844 -115.975)" fill="#fedc72"/>
                <path id="Trazado_138254" data-name="Trazado 138254" d="M-183.7,121.985c9.194,1.918,21.39,10.41,24.191,17.394,1.028-2.9,1.4-4.5,1.4-4.5s-6.831-12.259-23.683-18.319A29.89,29.89,0,0,0-183.7,121.985Z" transform="translate(184.707 -112.471)" fill="#e5e1f1"/>
              </g>
              <path id="Trazado_138255" data-name="Trazado 138255" d="M-180.057,133.417c3.829-1.793,54.011-9.833,77.764-2.682,0-6.644-.257-10.341-.257-10.341s-36.436-6.942-77.131,2.418C-180.189,131.672-180.057,133.417-180.057,133.417Z" transform="translate(232.569 1.776)" fill="#fedc72"/>
              <path id="Trazado_138256" data-name="Trazado 138256" d="M-180.088,127.525c3.829-1.793,54.011-9.833,77.757-2.682a42.831,42.831,0,0,1,0-4.343s-36.6-6.428-77.284,2.94C-180.13,132.293-180.088,127.525-180.088,127.525Z" transform="translate(232.469 4.346)" fill="#d7ccfb"/>
              <g id="Grupo_130890" data-name="Grupo 130890" transform="translate(101.707 101.696)">
                <g id="Grupo_130888" data-name="Grupo 130888">
                  <path id="Trazado_138257" data-name="Trazado 138257" d="M-172.525,117.147c1.021,3.586-.514,27.6,3.065,28.611s14.809,1.022,14.809-1.536.521-27.075-2.036-28.082C-159.245,115.111-172.525,117.147-172.525,117.147Z" transform="translate(175.763 -112.22)" fill="#5038a1"/>
                  <path id="Trazado_138258" data-name="Trazado 138258" d="M-172.991,116.342c1.536,0,21.974-2.036,21.8-.34s2.377,10.216-.167,11.237S-171.8,130.47-171.8,126.9A87.8,87.8,0,0,0-172.991,116.342Z" transform="translate(172.991 -115.327)" fill="#5038a1"/>
                </g>
                <g id="Grupo_130889" data-name="Grupo 130889" transform="translate(3.669 17.66)">
                  <path id="Trazado_138259" data-name="Trazado 138259" d="M-172.066,128.082c.89-.639,15.129-.764,17.109.7.257-3.836,0-9.514,0-9.514s-3.447-2.293-17.367-1.015A62.844,62.844,0,0,0-172.066,128.082Z" transform="translate(172.573 -117.868)" fill="#5038a1"/>
                  <path id="Trazado_138260" data-name="Trazado 138260" d="M-172.213,123.12c.257-.32,14.809-1.4,17.492.771-.063-3-.063-4.024-.063-4.024s-6.7-3.322-17.679-.507C-172.407,120.952-172.213,123.12-172.213,123.12Z" transform="translate(172.463 -115.721)" fill="#5038a1"/>
                </g>
              </g>
              <g id="Grupo_130896" data-name="Grupo 130896" transform="translate(95.264 36.644)">
                <g id="Grupo_130892" data-name="Grupo 130892" transform="translate(22.795 45.295)">
                  <path id="Trazado_138261" data-name="Trazado 138261" d="M-153.271,112.484c-1.021,4.26-14.816,17.374-17.367,17.874,6.129,7.665,12.766,33.2,27.575,32.183s9.875-6.81,10.9-8.339.347-19.25-6.81-28.43S-153.271,112.484-153.271,112.484Z" transform="translate(170.638 -112.484)" fill="#5038a1"/>
                  <g id="Grupo_130891" data-name="Grupo 130891" transform="translate(3.857 6.359)">
                    <path id="Trazado_138262" data-name="Trazado 138262" d="M-141.3,121.981c-.25,4.6-14.58,17.262-24.253,18.451-2.071-4.218-4.531-8.52-4.531-8.52s16.859-6.887,21.6-18.513C-143.682,118.778-141.431,121.412-141.3,121.981Z" transform="translate(170.083 -113.399)" fill="#5038a1"/>
                    <path id="Trazado_138263" data-name="Trazado 138263" d="M-144.087,117.436c-.25,2.168-14.232,16.859-23.871,18.124a35.758,35.758,0,0,1-1.925-3.621s17.311-5.893,22.544-18.152C-145.637,115.4-143.976,117.068-144.087,117.436Z" transform="translate(171.273 -111.085)" fill="#5038a1"/>
                  </g>
                </g>
                <g id="Grupo_130895" data-name="Grupo 130895">
                  <g id="Grupo_130894" data-name="Grupo 130894">
                    <g id="Grupo_130893" data-name="Grupo 130893" transform="translate(0 16.001)">
                      <path id="Trazado_138264" data-name="Trazado 138264" d="M-158.316,147.716a4.005,4.005,0,0,1-5.539,1.181l-8.228-4.649a4,4,0,0,1-1.188-5.539l18.562-28.611a3.981,3.981,0,0,1,5.518-1.188l8.242,4.656a4,4,0,0,1,1.2,5.525Z" transform="translate(173.918 -108.269)" fill="#5038a1"/>
                      <path id="Trazado_138265" data-name="Trazado 138265" d="M-162.446,140.814a3.215,3.215,0,0,1-4.427.952l-4.934-2.759a3.2,3.2,0,0,1-.952-4.42l15.74-24.253a3.2,3.2,0,0,1,4.42-.938l4.927,2.738a3.2,3.2,0,0,1,.952,4.427Z" transform="translate(177.784 -104.633)" fill="#5038a1"/>
                    </g>
                    <path id="Trazado_138266" data-name="Trazado 138266" d="M-166.053,129.524c-.785-1.334-1.466-1.181-1.995-1.522h0c-.521-.334-2.057-1.077-1.723-1.591l15.233-20.1c.34-.528,1.758-.639,1.126,1.029Z" transform="translate(198.313 -105.966)" fill="#5038a1"/>
                  </g>
                  <path id="Trazado_138267" data-name="Trazado 138267" d="M-144.748,128.314c-2.724-6.136-6.81-12.947-12.259-15.671s-9.194-3.489-11.578-3.141-1.918,1.14.507,2.293a40.386,40.386,0,0,1,5.5,3.447s-6.129-4.343-9.194-3.315-.563,3.058,7.276,7.151c-1.119.361-9.792-6.053-8.43-2.3s7.408,7.783,7.408,7.783-6.963-6.741-6.769-3.315,6.421,11.585,11.71,14.767,5.622,3.537,6.977,6.254a51.885,51.885,0,0,1,2.55,6.637s13.114-9.694,12.773-13.447S-144.748,128.314-144.748,128.314Z" transform="translate(178.947 -85.395)" fill="#5038a1"/>
                </g>
              </g>
              <g id="Grupo_130897" data-name="Grupo 130897" transform="translate(44.505 325.516)">
                <path id="Trazado_138268" data-name="Trazado 138268" d="M-181.221,158.937c4.121-1.661,24.594-6.261,35.706,4.719a40.476,40.476,0,0,0,2.557-9.569s-17.068-11.578-37.923-3.954C-181.262,154.469-181.221,158.937-181.221,158.937Z" transform="translate(181.222 -147.534)" fill="#ffde3b"/>
                <path id="Trazado_138269" data-name="Trazado 138269" d="M-181.118,153.6c1.793-.6,23.6-7.068,36.269,4.934,1.439-3.919,1.188-4.427,1.188-4.427s-14.219-10.473-37.2-4.086C-181.451,150.7-181.118,153.6-181.118,153.6Z" transform="translate(181.286 -145.006)" fill="#c3d2e0"/>
              </g>
              <g id="Grupo_130898" data-name="Grupo 130898" transform="translate(101.839 325.442)">
                <path id="Trazado_138270" data-name="Trazado 138270" d="M-133.513,159.126c-4-2.509-24.608-4.976-36.992,5.073a34.713,34.713,0,0,1-2.467-9.924s19.708-11.7,39.375-4.295A69.721,69.721,0,0,1-133.513,159.126Z" transform="translate(172.972 -147.523)" fill="#ffde3b"/>
                <path id="Trazado_138271" data-name="Trazado 138271" d="M-134.014,154.5c-1.578-1.744-24.309-6.254-37.631,4.774-1.487-3.919-1.216-4.691-1.216-4.691s19.993-11.446,38.889-4.378A36.058,36.058,0,0,1-134.014,154.5Z" transform="translate(173.515 -145.28)" fill="#c3d2e0"/>
              </g>
            </g>
          </g>
        </g>
      </g>
      <g id="Grupo_130958" data-name="Grupo 130958">
        <rect id="Rectángulo_41169" data-name="Rectángulo 41169" width="250" height="46" rx="5" transform="translate(516 762)" fill="#8c6df2"/>
        <text id="Protección_Civil" data-name="Protección Civil" transform="translate(572 773)" fill="#fff" font-size="18" font-family="Roboto-Black, Roboto" font-weight="800"><tspan x="0" y="19">Protección Civil</tspan></text>
      </g>
    </g>
  </g>
</svg>
