<svg xmlns="http://www.w3.org/2000/svg" xmlns:xlink="http://www.w3.org/1999/xlink" width="318" height="330" viewBox="0 0 318 330">
  <defs>
    <clipPath id="clip-path">
      <path id="Intersección_1" data-name="Intersección 1" d="M0,260V0H318V260Z" transform="translate(0.457 0.475)" fill="none"/>
    </clipPath>
  </defs>
  <g id="Grupo_131956" data-name="Grupo 131956" transform="translate(-1386.456 10571.523)">
    <g id="Image_Place_Holder" data-name="Image Place Holder" transform="translate(1419 -10572)" opacity="0.957">
      <rect id="Image_Place_Holder-2" data-name="Image Place Holder" width="266" height="323" rx="10" transform="translate(0.456 0.477)" fill="#fff3ce"/>
    </g>
    <g id="Grupo_130835" data-name="Grupo 130835" transform="translate(1386 -10543.999)">
      <g id="Grupo_130719" data-name="Grupo 130719" transform="translate(0 0)" clip-path="url(#clip-path)">
        <g id="Grupo_130718" data-name="Grupo 130718" transform="translate(3.303 7.177)">
          <g id="Grupo_130709" data-name="Grupo 130709" transform="translate(0 35.435)">
            <path id="Trazado_137892" data-name="Trazado 137892" d="M-256.857,106.645c10.139-9.805,26.874-11.679,33.108-1.474s2.721,20.988,15.519,32.3c8.736,7.724,2.254,31.42-47.517,29.248-23.567-1.029-15.6-26.22-14.964-38.215S-270,101.979-256.857,106.645Z" transform="translate(335.441 -98.352)" fill="#263238"/>
            <g id="Grupo_130706" data-name="Grupo 130706" transform="translate(89.3 153.862)">
              <path id="Trazado_137893" data-name="Trazado 137893" d="M-244.011,433.942l12.059.485.23-13.434-12.059-.485Z" transform="translate(252.955 -163.219)" fill="#5038a1"/>
              <path id="Trazado_137894" data-name="Trazado 137894" d="M-230.378,429.4h-13.65a1.064,1.064,0,0,0-1.032.855l-2.368,11.124a1.832,1.832,0,0,0,1.786,2.226c4.765-.084,7.08-.373,13.083-.373,3.692,0,13.259.4,18.359.4,4.989,0,5.751-5.194,3.661-5.664-9.367-2.11-14.859-5.018-17.865-7.794A2.907,2.907,0,0,0-230.378,429.4Z" transform="translate(252.128 -160.764)" fill="#5038a1"/>
              <path id="Trazado_137895" data-name="Trazado 137895" d="M-231.747,421l-.105,6.249-12.063-.527.1-6.208Z" transform="translate(252.978 -163.219)" fill="#5038a1" opacity="0.2"/>
              <path id="Trazado_137896" data-name="Trazado 137896" d="M-212.234,218.91c2.731,14.908-.411,87.78-4.508,119.95-5.441,42.731-11.084,141.955-11.084,141.955l-16.184-1s-4.046-104.481-.729-138.79c-1.869-44.152-6.492-121.271-6.492-121.271Z" transform="translate(251.229 -218.91)" fill="#5038a1"/>
              <path id="Trazado_137897" data-name="Trazado 137897" d="M-248.992,259.868c-.556-11.188,7.133-21.126,10.229-.045,1.971,13.432-2.088,36.966-7.4,53.592C-247,296.2-248.045,276.938-248.992,259.868Z" transform="translate(251.757 -211.021)" fill="#5038a1" opacity="0.2"/>
            </g>
            <g id="Grupo_130707" data-name="Grupo 130707" transform="translate(0 154.265)">
              <path id="Trazado_137898" data-name="Trazado 137898" d="M-315.5,400.82l7.836,7.711,10.628-11.718-7.836-7.711Z" transform="translate(325.163 -172.299)" fill="#5038a1"/>
              <path id="Trazado_137899" data-name="Trazado 137899" d="M-303.792,407.044l-8.026-11.373a.888.888,0,0,0-1.217-.272l-9.337,5.691a2.171,2.171,0,0,0-.54,3.021c2.862,3.912,4.429,5.642,7.959,10.644,2.171,3.077,4.682,7.309,7.681,11.558,2.933,4.155,7.091,1.214,6.2-.851-4-9.258-2.323-11.826-2.108-16.242A3.5,3.5,0,0,0-303.792,407.044Z" transform="translate(323.299 -170.597)" fill="#5038a1"/>
              <path id="Trazado_137900" data-name="Trazado 137900" d="M-298.045,396.815l-5.477,6.042-7.778-7.782,5.416-5.974Z" transform="translate(326.167 -172.299)" fill="#5038a1" opacity="0.2"/>
              <path id="Trazado_137901" data-name="Trazado 137901" d="M-216.725,219.226s-17.343,94.078-21.854,130.55c-2.695,21.8-61.89,100.262-61.89,100.262l-10.115-10.964s21.667-57.439,47.768-91.512c1.035-39.947-3.369-105.681,11.611-127.593Z" transform="translate(326.339 -219.226)" fill="#5038a1"/>
            </g>
            <path id="Trazado_137902" data-name="Trazado 137902" d="M-222.548,164.225c.017,8.085.37,16.008.943,24.01.55,7.989,1.344,15.977,2.593,24l.229,1.5.3,1.7c.23,1.119.484,2.214.772,3.274.589,2.119,1.271,4.141,2,6.114a114.835,114.835,0,0,0,5,11.281,163.51,163.51,0,0,0,12.473,20.6,3.264,3.264,0,0,0,4.649.744,3.49,3.49,0,0,0,1.057-4.2l-.037-.082c-3.155-7.021-6.213-14.229-8.879-21.371-1.353-3.568-2.538-7.171-3.556-10.71-.493-1.77-.922-3.533-1.248-5.25-.173-.858-.307-1.7-.421-2.522l-.138-1.228-.128-1.436c-.691-7.654-1.087-15.43-1.462-23.212-.31-7.772-.553-15.643-.774-23.358l0-.071a6.782,6.782,0,0,0-6.888-6.688A6.813,6.813,0,0,0-222.548,164.225Z" transform="translate(347.386 -82.064)" fill="#b55b52"/>
            <path id="Trazado_137903" data-name="Trazado 137903" d="M-216.574,154.961c16.492,4.958,14.361,35.85,14.361,35.85l-23.441,6.5s-3.887-22.625-3.544-30.737C-228.841,158.135-225.665,152.229-216.574,154.961Z" transform="translate(345.791 -82.9)" fill="#5038a1"/>
            <path id="Trazado_137904" data-name="Trazado 137904" d="M-198.626,231.078l8.247,7.235-11.569,4.869s-3.585-5.627-1.924-10.964Z" transform="translate(351.746 -61.687)" fill="#b55b52"/>
            <path id="Trazado_137905" data-name="Trazado 137905" d="M-192.287,247.789l-5.285.679a2.674,2.674,0,0,1-2.821-1.709l-2.011-5.143,11.569-4.869.882,7.987A2.748,2.748,0,0,1-192.287,247.789Z" transform="translate(352.202 -60.121)" fill="#b55b52"/>
            <path id="Trazado_137906" data-name="Trazado 137906" d="M-201.6,163.484c.731,30.971-6.182,53.587-6.259,73.768l-53.16,1.146c.4-20.23.227-33.416-8.218-69.652a11.652,11.652,0,0,1,9.345-14.267c3.18-.489,6.723-.932,10.3-1.187,8.936-.637,16.259-1.089,24.139-.519,5.669.411,11.76,1.26,16.125,1.946A9.157,9.157,0,0,1-201.6,163.484Z" transform="translate(336.149 -83.391)" fill="#5038a1"/>
            <path id="Trazado_137907" data-name="Trazado 137907" d="M-254.248,185.733l15.754-.1a1.105,1.105,0,0,0,1.125-1.242l-.874-7.7a1.428,1.428,0,0,0-1.4-1.225l-15.754.1a1.1,1.1,0,0,0-1.124,1.242l.872,7.7A1.429,1.429,0,0,0-254.248,185.733Z" transform="translate(339.261 -77.049)" fill="#fff"/>
            <path id="Trazado_137908" data-name="Trazado 137908" d="M-229.3,152.716s8.669,6.263-.488,21.939a318.856,318.856,0,0,0-23.652-21.419Z" transform="translate(340.001 -83.334)" fill="#fff" opacity="0.4"/>
            <path id="Trazado_137909" data-name="Trazado 137909" d="M-251.615,131.147c1.685,7.968,3.5,22.592-1.823,28.047A75.632,75.632,0,0,1-230.6,173.679c5.884-11.133,1.3-15,1.3-15-8.7-1.944-8.615-8.566-7.232-14.815Z" transform="translate(340.001 -89.293)" fill="#b55b52"/>
            <path id="Trazado_137910" data-name="Trazado 137910" d="M-250.644,132.234a34.357,34.357,0,0,0,3.507,13.662c1.463,2.91,5.332,4.168,9.3,4.376a22.5,22.5,0,0,1,.628-6.713Z" transform="translate(340.669 -88.992)" opacity="0.2"/>
            <path id="Trazado_137911" data-name="Trazado 137911" d="M-261.945,128.72c3.976,12.741,5.395,18.221,13.387,23.2,12.022,7.485,26.345-.331,26.146-14.039-.181-12.339-6.653-31.1-20.229-33.022C-256.016,102.965-265.921,115.979-261.945,128.72Z" transform="translate(337.755 -96.606)" fill="#b55b52"/>
            <path id="Trazado_137912" data-name="Trazado 137912" d="M-228.557,112.382c-6.695,1.951-23.063,3.406-26.348,1.341,3.078,4.878.149,18.174-4.6,21.4-6.409-5.307-7.829-18.11-1.909-24.452S-236.779,96.773-228.557,112.382Z" transform="translate(337.197 -97.025)" fill="#263238"/>
            <path id="Trazado_137913" data-name="Trazado 137913" d="M-263.573,130.96a9.669,9.669,0,0,0,4.941,5.467c3.039,1.4,5.049-1.275,4.617-4.494-.39-2.9-2.441-7.118-5.689-7.164C-262.9,124.724-264.624,127.979-263.573,130.96Z" transform="translate(337.504 -91.054)" fill="#b55b52"/>
            <path id="Trazado_137914" data-name="Trazado 137914" d="M-262.905,217.648l-2.3,4.953c-.178.384.266.762.881.749l55.75-1.2c.48-.01.871-.26.9-.572l.379-4.911c.027-.341-.394-.619-.919-.608l-53.832,1.16A.959.959,0,0,0-262.905,217.648Z" transform="translate(337.179 -65.836)" fill="#263238"/>
            <path id="Trazado_137915" data-name="Trazado 137915" d="M-257.045,223.568l-1.442.031c-.287.006-.509-.142-.493-.328l.548-6.383c.015-.186.264-.345.55-.351l1.442-.031c.287-.006.509.142.493.328l-.546,6.383C-256.51,223.4-256.759,223.562-257.045,223.568Z" transform="translate(338.676 -65.712)" fill="#407bff"/>
            <path id="Trazado_137916" data-name="Trazado 137916" d="M-222.393,222.844l-1.442.031c-.286.006-.508-.142-.493-.328l.548-6.383c.016-.186.264-.345.551-.351l1.441-.031c.287-.006.509.142.493.328l-.546,6.382C-221.858,222.679-222.106,222.837-222.393,222.844Z" transform="translate(346.96 -65.913)" fill="#407bff"/>
            <path id="Trazado_137917" data-name="Trazado 137917" d="M-239.719,223.205l-1.442.032c-.286.005-.508-.142-.493-.329l.548-6.381c.016-.188.264-.346.55-.351l1.442-.032c.287-.006.509.142.493.329l-.546,6.381C-239.184,223.042-239.432,223.2-239.719,223.205Z" transform="translate(342.818 -65.813)" fill="#8c6df2"/>
            <path id="Trazado_137918" data-name="Trazado 137918" d="M-264.909,161.713c-3.9,5.323-7.561,10.691-11.111,16.259-1.748,2.795-3.5,5.6-5.156,8.528a88.738,88.738,0,0,0-4.779,9.377,27.47,27.47,0,0,0-1.092,3.081,13.28,13.28,0,0,0-.461,2.473,8.26,8.26,0,0,0-.029,1.013l.036.616a7.915,7.915,0,0,0,.126.822l.1.425.051.193.014.038.056.156.111.31c.618,1.653,1.126,3.322,1.872,4.935a63.112,63.112,0,0,0,4.886,9.44,46.813,46.813,0,0,0,6.791,8.333,32.515,32.515,0,0,0,4.212,3.446c.756.517,1.535,1.01,2.349,1.465.414.23.836.436,1.275.643.476.213.824.368,1.52.628l2.56-6.3a6.191,6.191,0,0,0-.581-.51l-.737-.661c-.5-.458-.983-.951-1.455-1.465a36.12,36.12,0,0,1-2.636-3.334,49.846,49.846,0,0,1-4.281-7.541c-.563-1.369-1.181-2.684-1.649-4.1-.548-1.367-.988-2.795-1.42-4.223-.465-1.406-.768-2.9-1.18-4.337l-.072-.271-.036-.135-.01-.034.037.117.068.274c.04.167.066.413.079.521a2.881,2.881,0,0,1,.025.31c0,.257.006.287,0,.4-.02.32-.015.227.05.087.123-.314.382-.893.67-1.463,1.218-2.376,2.855-5.095,4.526-7.689,1.693-2.619,3.424-5.268,5.218-7.885,3.549-5.25,7.218-10.541,10.815-15.744Z" transform="translate(331.848 -80.849)" fill="#b55b52"/>
            <path id="Trazado_137919" data-name="Trazado 137919" d="M-271.633,218.078l10.358,7.541,4.643-10.9s-6.276-3.461-11.232-1.146Z" transform="translate(335.651 -66.744)" fill="#b55b52"/>
            <path id="Trazado_137920" data-name="Trazado 137920" d="M-256.06,226.1l2.579-3.719a3.431,3.431,0,0,0-.7-4.647l-4.451-3.436-4.643,10.9,2.842,1.806A3.205,3.205,0,0,0-256.06,226.1Z" transform="translate(337.649 -66.323)" fill="#b55b52"/>
            <path id="Trazado_137921" data-name="Trazado 137921" d="M-245.539,160.564c3.526,14.4-18.17,39.028-18.17,39.028l-18.244-19.5s8.33-18.337,19.217-24.088C-255.131,151.981-247.093,154.218-245.539,160.564Z" transform="translate(333.184 -82.984)" fill="#5038a1"/>
            <g id="Grupo_130708" data-name="Grupo 130708" transform="translate(76.952 68.888)">
              <path id="Trazado_137922" data-name="Trazado 137922" d="M-225.419,197.849a.483.483,0,0,0,.45-.32.5.5,0,0,0-.279-.637l-2.1-.822A10.578,10.578,0,0,1-234,186.2l-.149-20.218a6.507,6.507,0,0,1,4.943-6.564,6.291,6.291,0,0,1,7.353,3.409l9.077,17.926a10.836,10.836,0,0,1-1.385,11.938l-1.476,1.738a.5.5,0,0,0,.046.7.468.468,0,0,0,.678-.047l1.476-1.738a11.84,11.84,0,0,0,1.513-13.044L-221,162.368a7.212,7.212,0,0,0-8.438-3.914,7.462,7.462,0,0,0-5.671,7.534l.15,20.217a11.558,11.558,0,0,0,7.277,10.788l2.1.823A.452.452,0,0,0-225.419,197.849Z" transform="translate(267.43 -150.706)" fill="#263238"/>
              <path id="Trazado_137923" data-name="Trazado 137923" d="M-234.6,169.674a.486.486,0,0,0,.481-.484,7.319,7.319,0,0,1,5.815-6.8c2.631-.674,6.364-.242,8.235,3.2a.479.479,0,0,0,.654.19.5.5,0,0,0,.183-.674c-1.757-3.231-5.409-4.674-9.3-3.674a8.22,8.22,0,0,0-6.544,7.74.488.488,0,0,0,.47.505Z" transform="translate(267.438 -149.902)" fill="#263238"/>
              <path id="Trazado_137924" data-name="Trazado 137924" d="M-229.541,161.061a.477.477,0,0,0,.405-.227,4.482,4.482,0,0,0-.047-3.562,7.708,7.708,0,0,0-4.528-4.917.478.478,0,0,0-.608.309.5.5,0,0,0,.3.628,6.935,6.935,0,0,1,3.929,4.307,3.655,3.655,0,0,1,.145,2.7.5.5,0,0,0,.145.683A.457.457,0,0,0-229.541,161.061Z" transform="translate(267.614 -152.329)" fill="#263238"/>
              <path id="Trazado_137925" data-name="Trazado 137925" d="M-226.023,188.97c.219.9-.073,1.759-.653,1.908s-1.227-.465-1.446-1.369.074-1.76.653-1.908S-226.242,188.065-226.023,188.97Z" transform="translate(269.084 -142.592)" fill="#263238"/>
              <path id="Trazado_137926" data-name="Trazado 137926" d="M-256.236,170.9c-.441,2.083-1.88,3.529-3.213,3.229s-2.057-2.231-1.616-4.312,1.878-3.529,3.212-3.229S-255.8,168.82-256.236,170.9Z" transform="translate(261.194 -148.4)" fill="#263238"/>
              <path id="Trazado_137927" data-name="Trazado 137927" d="M-260.49,174.1a.487.487,0,0,0,.48-.476c.284-7.646,3.092-17.151,8.587-19.952a.5.5,0,0,0,.217-.664.471.471,0,0,0-.643-.223c-5.878,3-8.816,12.605-9.121,20.8a.489.489,0,0,0,.462.513Z" transform="translate(261.248 -152.217)" fill="#263238"/>
              <path id="Trazado_137928" data-name="Trazado 137928" d="M-255.146,170.885c-.281,1.788-1.533,3.066-2.8,2.855s-2.058-1.831-1.776-3.619,1.534-3.066,2.8-2.854S-254.864,169.1-255.146,170.885Z" transform="translate(261.534 -148.209)" fill="#fff"/>
              <path id="Trazado_137929" data-name="Trazado 137929" d="M-255.238,171.165c-.409,2.209-1.533,3.845-2.508,3.653s-1.434-2.138-1.023-4.347,1.533-3.845,2.508-3.653S-254.827,168.956-255.238,171.165Z" transform="translate(261.738 -148.331)" fill="#263238"/>
              <path id="Trazado_137930" data-name="Trazado 137930" d="M-217.838,186.931c.218.9-.074,1.759-.653,1.908s-1.227-.465-1.446-1.369.073-1.76.653-1.908S-218.057,186.026-217.838,186.931Z" transform="translate(271.041 -143.155)" fill="#263238"/>
            </g>
          </g>
          <g id="Grupo_130717" data-name="Grupo 130717" transform="translate(104.404)">
            <path id="Trazado_137931" data-name="Trazado 137931" d="M-174.208,105.684c-8.509,1.561-9.581.761-9.69-5.5S-187.09,83.4-182.79,80.106c2.735-2.092,3.857,1.16,3.857,1.16a2.765,2.765,0,0,1,3.494-1.665c.183-1.3.384-4.639,2.741-5.6s4.433,1.249,4.433,1.249-.173-5.12,3.187-4.63,4.029,4.06,4.029,4.06,1.942-2.909,4.559-1.76,2.1,4.487,2.1,4.487,2.787-1.373,4.856.189.558,4.058.558,4.058,1.885-4.974,5.462-2.218c3.223,2.484.306,6.379.306,6.379s3.539-.591,4.394,1.251c2.909,6.266-8.144,13.264-8.5,23.836C-164.292,117.6-174.208,105.684-174.208,105.684Z" transform="translate(266.714 -70.587)" fill="#263238"/>
            <path id="Trazado_137932" data-name="Trazado 137932" d="M-222.953,230l-5.664-1.075-7.5,7.374a4.243,4.243,0,0,0-1.255,3.1l.109,6.029a4.131,4.131,0,0,0,3.7,4.085l2.6.239a4.067,4.067,0,0,0,4.275-3.064l1.3-4.922S-217.956,232.794-222.953,230Z" transform="translate(254.21 -26.846)" fill="#ffb573"/>
            <g id="Grupo_130710" data-name="Grupo 130710" transform="translate(17.996 85.119)">
              <path id="Trazado_137933" data-name="Trazado 137933" d="M-165.961,145.116c-3.8,10.138-7.589,20.31-11.237,30.51-3.69,10.161-7.278,20.462-10.668,30.542l-.612,1.863-.411,1.211c-.16.459-.323.927-.477,1.3-.632,1.637-1.258,3-1.892,4.371-1.254,2.712-2.529,5.235-3.826,7.733-2.592,4.979-5.26,9.784-7.962,14.561-5.35,9.586-10.809,18.946-16.288,28.45l-17.1-10.95c5.638-9.031,11.076-18.346,16.288-27.635,2.565-4.668,5.088-9.357,7.436-14.009,1.167-2.32,2.306-4.646,3.29-6.869.473-1.1.943-2.218,1.258-3.126.1-.257.149-.435.206-.618l.226-.724.608-2.023c3.238-10.609,6.64-20.872,9.906-31.283l9.838-31.137Z" transform="translate(236.437 -137.282)" fill="#407bff"/>
              <path id="Trazado_137934" data-name="Trazado 137934" d="M-165.961,145.116c-3.8,10.138-7.589,20.31-11.237,30.51-3.69,10.161-7.278,20.462-10.668,30.542l-.612,1.863-.411,1.211c-.16.459-.323.927-.477,1.3-.632,1.637-1.258,3-1.892,4.371-1.254,2.712-2.529,5.235-3.826,7.733-2.592,4.979-5.26,9.784-7.962,14.561-5.35,9.586-10.809,18.946-16.288,28.45l-17.1-10.95c5.638-9.031,11.076-18.346,16.288-27.635,2.565-4.668,5.088-9.357,7.436-14.009,1.167-2.32,2.306-4.646,3.29-6.869.473-1.1.943-2.218,1.258-3.126.1-.257.149-.435.206-.618l.226-.724.608-2.023c3.238-10.609,6.64-20.872,9.906-31.283l9.838-31.137Z" transform="translate(236.437 -137.282)" fill="#fff" opacity="0.6"/>
            </g>
            <path id="Trazado_137935" data-name="Trazado 137935" d="M-218.561,440.281l-12.037.606,5.685-32.3,11.454,2.708Z" transform="translate(255.829 22.785)" fill="#ffb573"/>
            <path id="Trazado_137936" data-name="Trazado 137936" d="M-148.834,440h-12.04l.031-28.718h12.04Z" transform="translate(272.498 23.529)" fill="#ffb573"/>
            <path id="Trazado_137937" data-name="Trazado 137937" d="M-157.427,432.662h14.678a1.006,1.006,0,0,1,.991.846l1.94,11.023a1.892,1.892,0,0,1-1.851,2.205c-4.718-.083-8.154-.369-14.1-.369-3.659,0-14.71.392-19.765.392-4.943,0-5.509-5.147-3.421-5.613,9.36-2.09,16.465-4.972,19.545-7.723A2.986,2.986,0,0,1-157.427,432.662Z" transform="translate(267.902 29.434)" fill="#263238"/>
            <path id="Trazado_137938" data-name="Trazado 137938" d="M-225.5,408.6l-2.632,14.938,11.459,2.709,2.631-14.938Z" transform="translate(256.418 22.787)" opacity="0.2"/>
            <rect id="Rectángulo_41143" data-name="Rectángulo 41143" width="12.045" height="14.803" transform="translate(111.648 434.821)" opacity="0.2"/>
            <path id="Trazado_137939" data-name="Trazado 137939" d="M-128.88,147.058c-9.369,43.551-6.9,86.52-7.9,95.828-9.423-.625-44.915-3.045-64.261-4.367-6.691-52.477.773-86.064,5.031-99.811a12.2,12.2,0,0,1,9.978-8.608,178.431,178.431,0,0,1,28.79-.933,104.911,104.911,0,0,1,19.279,3.012A12.509,12.509,0,0,1-128.88,147.058Z" transform="translate(262.256 -54.458)" fill="#8c6df2"/>
            <path id="Trazado_137940" data-name="Trazado 137940" d="M-153.529,105.99c-2.114,8.2-4.63,22.729-.587,30.063.636,1.154-.585,2.129-.633,3.455-.15,4.07-5.492,5.29-15.055,5.339-9.652.05-13.653-4.048-11.049-7.926a2.747,2.747,0,0,1,1.69-1.128c8.961-2.065,9.131-9.3,7.919-16.2Z" transform="translate(267.536 -60.807)" fill="#ffb573"/>
            <path id="Trazado_137941" data-name="Trazado 137941" d="M-172.631,136.161A26.826,26.826,0,0,1-168,148.3c9.541-4.621,14.1-15.833,14.1-15.833l-2.876-3.173S-167.387,131.406-172.631,136.161Z" transform="translate(269.688 -54.369)" opacity="0.4"/>
            <path id="Trazado_137942" data-name="Trazado 137942" d="M-170.783,136.208s-4.245,3.111-8.742,10.561c-6.676-4.251-4.461-16.41-4.461-16.41l5.435-1.1S-176.128,131.575-170.783,136.208Z" transform="translate(266.889 -54.379)" opacity="0.4"/>
            <path id="Trazado_137943" data-name="Trazado 137943" d="M-171.96,134.488l-2.066.207-3.467,2.36a6.608,6.608,0,0,0,.7,4.21,24,24,0,0,0,6.13.425,6.587,6.587,0,0,0,3.1-3.289l-2.552-3.355Z" transform="translate(268.507 -52.935)" fill="#c2b9de"/>
            <path id="Trazado_137944" data-name="Trazado 137944" d="M-173.042,136.371a35.765,35.765,0,0,1,5.837,11.152c9.54-4.621,15.106-15.661,15.106-15.661l-4.606-4.191S-167.8,131.616-173.042,136.371Z" transform="translate(269.589 -54.818)" fill="#8c6df2"/>
            <path id="Trazado_137945" data-name="Trazado 137945" d="M-170.316,136.157a35.653,35.653,0,0,0-9.517,9.073c-6.676-4.252-4.137-15.684-4.137-15.684l5.435-1.1S-175.661,131.524-170.316,136.157Z" transform="translate(266.863 -54.604)" fill="#8c6df2"/>
            <path id="Trazado_137946" data-name="Trazado 137946" d="M-162.757,110.34l-10.484,8.047a29.932,29.932,0,0,1,.522,5.051c3.779-.3,9.2-4.186,9.851-8.2A13.957,13.957,0,0,0-162.757,110.34Z" transform="translate(269.542 -59.606)" opacity="0.2"/>
            <path id="Trazado_137947" data-name="Trazado 137947" d="M-150.693,99.513c-1.517,12.209-1.8,19.433-8.218,25.316-9.649,8.848-23.979,2.235-26.032-10.195-1.85-11.188.943-29.272,12.9-33.357C-160.252,77.253-149.175,87.306-150.693,99.513Z" transform="translate(266.619 -67.883)" fill="#ffb573"/>
            <path id="Trazado_137948" data-name="Trazado 137948" d="M-154.479,111.227c-2.752-2.671-1.009-15.448.344-19.109-6.728.66-28.406.632-27.584-5.535s8.706-11.408,21.607-7.078c10.774,3.616,13.438,9.125,13.487,13.638C-146.524,102.4-154.479,111.227-154.479,111.227Z" transform="translate(267.509 -68.563)" fill="#263238"/>
            <path id="Trazado_137949" data-name="Trazado 137949" d="M-152.022,105.746a10.625,10.625,0,0,1-6.069,5.289c-3.421,1.091-5.114-2.159-4.147-5.642.869-3.136,3.7-7.481,7.122-7.047C-151.739,98.773-150.443,102.617-152.022,105.746Z" transform="translate(272.108 -62.927)" fill="#ffb573"/>
            <path id="Trazado_137950" data-name="Trazado 137950" d="M-231.3,473.283l19.908,4.522s19.364-78.155,25.115-116.341c1.751-11.616,5.834-28.2,9.548-45.658,4.691-22,10.589-45.781,15.42-64.408,5.1-19.618,8.882-33.725,8.882-33.725l-42.023-2.865s-19.563,102.211-23.517,139.839C-222.08,393.773-231.3,473.283-231.3,473.283Z" transform="translate(255.661 -30.747)" fill="#261a4d"/>
            <path id="Trazado_137951" data-name="Trazado 137951" d="M-187.129,309.987c4.691-22,10.589-45.781,15.42-64.408l-4.417-9.7C-186.555,248.735-189.233,288.434-187.129,309.987Z" transform="translate(266.062 -24.928)" opacity="0.2"/>
            <path id="Trazado_137952" data-name="Trazado 137952" d="M-185.4,215.878s8.707,104.439,12.139,140.6c3.761,39.6,13.847,120.728,13.847,120.728H-139.2s.913-86.393-2.721-124.639c-.513-75.2.758-133.689.758-133.689Z" transform="translate(266.634 -30.451)" fill="#261a4d"/>
            <path id="Trazado_137953" data-name="Trazado 137953" d="M-166.364,423.091H-140.4V415.1l-26.977-1.542Z" transform="translate(270.944 24.157)" fill="#407bff"/>
            <path id="Trazado_137954" data-name="Trazado 137954" d="M-233.4,419.2l23.723,5.4,1.694-7.894-24.836-6.452Z" transform="translate(255.159 23.244)" fill="#407bff"/>
            <g id="Grupo_130711" data-name="Grupo 130711" transform="translate(103.571 458.211)">
              <path id="Trazado_137955" data-name="Trazado 137955" d="M-164.539,435.039a14.01,14.01,0,0,0,3.168-.445.305.305,0,0,0,.224-.237.287.287,0,0,0-.119-.3c-.426-.282-4.213-2.739-5.572-2.034a.982.982,0,0,0-.523.831,1.732,1.732,0,0,0,.529,1.552A3.464,3.464,0,0,0-164.539,435.039Zm2.358-.858c-2.061.422-3.631.345-4.266-.225a1.175,1.175,0,0,1-.345-1.066.376.376,0,0,1,.193-.345C-165.892,432.18-163.721,433.241-162.181,434.181Z" transform="translate(167.374 -428.988)" fill="#407bff"/>
              <path id="Trazado_137956" data-name="Trazado 137956" d="M-161.932,435.232a.3.3,0,0,0,.157-.047.313.313,0,0,0,.14-.269c-.006-.152-.151-3.73-1.5-4.908a1.484,1.484,0,0,0-1.2-.377h0a.99.99,0,0,0-.938.77c-.31,1.382,1.991,4.1,3.209,4.8A.269.269,0,0,0-161.932,435.232Zm-2.23-5.027a.957.957,0,0,1,.646.258c.866.754,1.168,2.84,1.266,3.885-1.2-.969-2.653-3.021-2.469-3.838.017-.075.056-.25.429-.3h0A1.1,1.1,0,0,1-164.163,430.205Z" transform="translate(167.868 -429.618)" fill="#407bff"/>
            </g>
            <path id="Trazado_137957" data-name="Trazado 137957" d="M-227.541,429.887-213.417,434a1.026,1.026,0,0,1,.73,1.092l-1.047,11.151a1.857,1.857,0,0,1-2.364,1.6c-4.518-1.4-7.748-2.641-13.473-4.31-3.521-1.026-14.973-5.25-19.145-8.188-4.08-2.873-1.729-7.451.25-6.622,8.873,3.715,15.123,3.118,18.813,1.335A2.956,2.956,0,0,1-227.541,429.887Z" transform="translate(250.96 28.32)" fill="#263238"/>
            <g id="Grupo_130712" data-name="Grupo 130712" transform="translate(16.638 453.516)">
              <path id="Trazado_137958" data-name="Trazado 137958" d="M-235.24,431.127a14.024,14.024,0,0,0,3.167.459.3.3,0,0,0,.279-.166.288.288,0,0,0-.036-.318c-.337-.392-3.331-3.819-4.825-3.522a.966.966,0,0,0-.721.653,1.745,1.745,0,0,0,.1,1.641A3.522,3.522,0,0,0-235.24,431.127Zm2.5-.165c-2.1-.172-3.585-.685-4.047-1.412a1.186,1.186,0,0,1-.05-1.122c.083-.214.192-.26.278-.278C-235.785,428-233.977,429.625-232.743,430.962Z" transform="translate(237.532 -425.491)" fill="#407bff"/>
              <path id="Trazado_137959" data-name="Trazado 137959" d="M-232.774,432.024a.286.286,0,0,0,.164,0,.3.3,0,0,0,.206-.221c.035-.147.841-3.631-.149-5.143a1.51,1.51,0,0,0-1.054-.7h0a.971.971,0,0,0-1.106.477c-.663,1.244.833,4.5,1.82,5.515A.287.287,0,0,0-232.774,432.024Zm-.818-5.462a.968.968,0,0,1,.553.429c.636.969.374,3.06.193,4.093-.9-1.269-1.755-3.65-1.363-4.385.036-.068.12-.225.491-.165h0A.771.771,0,0,1-233.592,426.562Z" transform="translate(238.167 -425.939)" fill="#407bff"/>
            </g>
            <g id="Grupo_130713" data-name="Grupo 130713" transform="translate(97.353 74.16)">
              <path id="Trazado_137960" data-name="Trazado 137960" d="M-155.537,128.712a.952.952,0,0,0-1.1,1.05c.468,7.41-10.782,20.7-13.4,60.655-1.595,24.292-3.063,99.992-1.986,139.38a3.322,3.322,0,0,0,4.2,3.169c19.813-5.691,29.17,8.112,32.992-8.177-.212-19.509-5.945-89.563-4.467-106.166s7.618-61.737,9.144-73.762C-128.822,134.4-149.993,129.748-155.537,128.712Z" transform="translate(172.392 -128.695)" fill="#407bff"/>
              <path id="Trazado_137961" data-name="Trazado 137961" d="M-155.537,128.712a.952.952,0,0,0-1.1,1.05c.468,7.41-10.782,20.7-13.4,60.655-1.595,24.292-3.063,99.992-1.986,139.38a3.322,3.322,0,0,0,4.2,3.169c19.813-5.691,29.17,8.112,32.992-8.177-.212-19.509-5.945-89.563-4.467-106.166s7.618-61.737,9.144-73.762C-128.822,134.4-149.993,129.748-155.537,128.712Z" transform="translate(172.392 -128.695)" fill="#fff" opacity="0.7"/>
            </g>
            <path id="Trazado_137962" data-name="Trazado 137962" d="M-148.153,155.213c-.87,6.172-1.211,31.1,4.56,43.075.962-8.236,2.218-18.157,3.451-27.683Z" transform="translate(275.422 -47.21)" fill="#407bff" opacity="0.2"/>
            <path id="Trazado_137963" data-name="Trazado 137963" d="M-139.42,239.655l-5.722.685-5.065,9.317a4.293,4.293,0,0,0-.316,3.342l1.823,5.732a4.045,4.045,0,0,0,4.7,2.787l2.554-.559a4.158,4.158,0,0,0,3.214-4.221l-.157-5.1S-133.849,240.811-139.42,239.655Z" transform="translate(274.925 -23.883)" fill="#ffb573"/>
            <g id="Grupo_130714" data-name="Grupo 130714" transform="translate(117.322 85.679)">
              <path id="Trazado_137964" data-name="Trazado 137964" d="M-134.949,137.721c1.815,5.561,3.513,10.992,5.189,16.516,1.678,5.506,3.359,11.017,4.94,16.589s3.113,11.185,4.531,16.946c.7,2.888,1.367,5.811,1.953,8.866.29,1.533.563,3.1.794,4.757.105.86.229,1.648.3,2.6l.12,1.373.059,1.557c.026.512.01,1.05-.007,1.585s-.036,1.081-.077,1.506l-.113,1.368-.144,1.249c-.2,1.662-.44,3.188-.677,4.711-.489,3.021-1.043,5.921-1.623,8.8-1.16,5.748-2.445,11.371-3.752,16.979q-1.918,8.417-3.971,16.755l-4.073,16.725-19.434-5.438c3.008-10.8,5.747-21.8,8.278-32.723,1.234-5.47,2.4-10.95,3.431-16.36.512-2.7.992-5.393,1.382-7.993.193-1.289.358-2.579.463-3.746a18.386,18.386,0,0,0,.118-2.808l-.036-.576-.09-.749c-.041-.471-.159-1.085-.237-1.635-.192-1.156-.436-2.387-.706-3.64-.549-2.515-1.209-5.122-1.914-7.737-1.408-5.245-3.044-10.548-4.777-15.832-3.426-10.569-7.276-21.2-11.26-31.545Z" transform="translate(156.276 -137.721)" fill="#407bff"/>
              <path id="Trazado_137965" data-name="Trazado 137965" d="M-134.949,137.721c1.815,5.561,3.513,10.992,5.189,16.516,1.678,5.506,3.359,11.017,4.94,16.589s3.113,11.185,4.531,16.946c.7,2.888,1.367,5.811,1.953,8.866.29,1.533.563,3.1.794,4.757.105.86.229,1.648.3,2.6l.12,1.373.059,1.557c.026.512.01,1.05-.007,1.585s-.036,1.081-.077,1.506l-.113,1.368-.144,1.249c-.2,1.662-.44,3.188-.677,4.711-.489,3.021-1.043,5.921-1.623,8.8-1.16,5.748-2.445,11.371-3.752,16.979q-1.918,8.417-3.971,16.755l-4.073,16.725-19.434-5.438c3.008-10.8,5.747-21.8,8.278-32.723,1.234-5.47,2.4-10.95,3.431-16.36.512-2.7.992-5.393,1.382-7.993.193-1.289.358-2.579.463-3.746a18.386,18.386,0,0,0,.118-2.808l-.036-.576-.09-.749c-.041-.471-.159-1.085-.237-1.635-.192-1.156-.436-2.387-.706-3.64-.549-2.515-1.209-5.122-1.914-7.737-1.408-5.245-3.044-10.548-4.777-15.832-3.426-10.569-7.276-21.2-11.26-31.545Z" transform="translate(156.276 -137.721)" fill="#fff" opacity="0.7"/>
            </g>
            <g id="Grupo_130715" data-name="Grupo 130715" transform="translate(43.72 73.139)">
              <path id="Trazado_137966" data-name="Trazado 137966" d="M-171.3,127.9a1.6,1.6,0,0,1,1.222,2.609c-3.2,3.813-5.21,9.052-8.99,25.869-4.561,20.294-14.289,122.36-16.13,172.368a2.81,2.81,0,0,1-3.291,2.716c-9.469-1.792-15.972,2.934-17-3.327-1.14-6.938,3.116-72.96,11.066-104.027-1.245-27.546,3.265-82.807,12.283-90.14C-187.191,129.935-176.859,128.012-171.3,127.9Z" transform="translate(215.676 -127.895)" fill="#407bff"/>
              <path id="Trazado_137967" data-name="Trazado 137967" d="M-171.3,127.9a1.6,1.6,0,0,1,1.222,2.609c-3.2,3.813-5.21,9.052-8.99,25.869-4.561,20.294-14.289,122.36-16.13,172.368a2.81,2.81,0,0,1-3.291,2.716c-9.469-1.792-15.972,2.934-17-3.327-1.14-6.938,3.116-72.96,11.066-104.027-1.245-27.546,3.265-82.807,12.283-90.14C-187.191,129.935-176.859,128.012-171.3,127.9Z" transform="translate(215.676 -127.895)" fill="#fff" opacity="0.7"/>
            </g>
            <path id="Trazado_137968" data-name="Trazado 137968" d="M-172.613,138.626s-11.609,33.57-15.687,61.691c-.326,7.643,3.213,22.454,6.069,28.921,5.976-13.4,9.713-21.306,10.294-28.921.958-11.471,2.528-61.465,2.528-61.465Z" transform="translate(265.936 -51.792)" fill="#c2b9de"/>
            <g id="Grupo_130716" data-name="Grupo 130716" transform="translate(70.556 72.635)">
              <path id="Trazado_137969" data-name="Trazado 137969" d="M-152.609,179.431a.531.531,0,0,1-.473-.295.557.557,0,0,1,.226-.74l2.2-1.184a11.822,11.822,0,0,0,6.09-11.762l-2.384-22.283a7.152,7.152,0,0,0-6.269-6.569,7.008,7.008,0,0,0-7.669,4.736l-7.738,20.955a11.977,11.977,0,0,0,3.03,12.96l1.844,1.718a.56.56,0,0,1,.038.775.522.522,0,0,1-.752.038l-1.845-1.718a13.088,13.088,0,0,1-3.311-14.163l7.738-20.955a8.051,8.051,0,0,1,8.8-5.436,8.2,8.2,0,0,1,7.193,7.538l2.384,22.285a12.922,12.922,0,0,1-6.656,12.853l-2.2,1.184A.505.505,0,0,1-152.609,179.431Z" transform="translate(199.654 -125.309)" fill="#263238"/>
              <path id="Trazado_137970" data-name="Trazado 137970" d="M-147.311,147.144a.537.537,0,0,1-.527-.472c-.591-4.33-4.281-6.324-7.261-6.716s-7.038.587-8.665,4.624a.531.531,0,0,1-.7.3.555.555,0,0,1-.289-.717c1.529-3.793,5.36-5.872,9.785-5.291s7.625,3.584,8.18,7.651a.544.544,0,0,1-.454.619A.366.366,0,0,1-147.311,147.144Z" transform="translate(201.007 -124.386)" fill="#263238"/>
              <path id="Trazado_137971" data-name="Trazado 137971" d="M-155.848,138.619h-.033a.544.544,0,0,1-.5-.582c.161-2.7-.213-7.608-2.629-8.888a.554.554,0,0,1-.23-.738.524.524,0,0,1,.717-.237c3.577,1.894,3.254,9.114,3.206,9.93A.54.54,0,0,1-155.848,138.619Z" transform="translate(202.319 -127.331)" fill="#263238"/>
              <path id="Trazado_137972" data-name="Trazado 137972" d="M-163.906,168.854c-.128,1.026-.763,1.788-1.42,1.7s-1.087-.988-.959-2.014.762-1.787,1.419-1.7S-163.779,167.829-163.906,168.854Z" transform="translate(200.644 -116.634)" fill="#263238"/>
              <path id="Trazado_137973" data-name="Trazado 137973" d="M-188.5,151.965c-.839,2.2-2.66,3.521-4.069,2.952s-1.871-2.815-1.032-5.014,2.659-3.522,4.068-2.953S-187.661,149.765-188.5,151.965Z" transform="translate(194.019 -122.164)" fill="#263238"/>
              <path id="Trazado_137974" data-name="Trazado 137974" d="M-193.019,155.87a.491.491,0,0,1-.105-.01.548.548,0,0,1-.418-.646c1.767-9.086,9.1-23.437,15.557-27.629a.524.524,0,0,1,.734.171.559.559,0,0,1-.166.758c-6.242,4.053-13.354,18.04-15.08,26.916A.536.536,0,0,1-193.019,155.87Z" transform="translate(194.13 -127.5)" fill="#263238"/>
              <path id="Trazado_137975" data-name="Trazado 137975" d="M-187.337,152.152c-.615,1.905-2.2,3.078-3.55,2.618s-1.939-2.378-1.325-4.284,2.2-3.077,3.549-2.618S-186.723,150.247-187.337,152.152Z" transform="translate(194.393 -121.901)" fill="#fff"/>
              <path id="Trazado_137976" data-name="Trazado 137976" d="M-187.423,152.438c-.825,2.344-2.334,3.931-3.369,3.544s-1.2-2.6-.379-4.945,2.336-3.931,3.37-3.544S-186.6,150.094-187.423,152.438Z" transform="translate(194.574 -121.993)" fill="#263238"/>
              <path id="Trazado_137977" data-name="Trazado 137977" d="M-154.629,170.038c-.126,1.026-.762,1.787-1.419,1.7s-1.087-.988-.96-2.014.763-1.788,1.42-1.7S-154.5,169.012-154.629,170.038Z" transform="translate(202.862 -116.307)" fill="#263238"/>
            </g>
          </g>
          <path id="Trazado_138125" data-name="Trazado 138125" d="M294.718,33.169a202.116,202.116,0,0,1-17.864,17.216A146.879,146.879,0,0,1,256.7,64.76a104.907,104.907,0,0,1-22.893,10.185,72.861,72.861,0,0,1-12.617,2.618c-1.087.1-2.174.229-3.277.268-.55.026-1.1.063-1.653.078l-1.664.013c-1.118.015-2.193-.03-3.3-.047-1.091-.065-2.192-.107-3.281-.213a89.255,89.255,0,0,1-25.125-6.375c-7.915-3.14-15.313-6.937-22.431-10.572-3.556-1.825-7.059-3.6-10.5-5.25-1.725-.834-3.432-1.615-5.131-2.379-.847-.366-1.694-.746-2.534-1.093l-2.606-1.081c-7.257-3-14.349-5.792-21.334-8.015-3.49-1.113-6.946-2.084-10.344-2.862-1.7-.389-3.383-.733-5.047-1.019s-3.31-.5-4.926-.665A46.234,46.234,0,0,0,80.6,39.5a31.321,31.321,0,0,0-3.566,1.271c-.568.237-1.117.5-1.659.767l-.8.417c-.239.141-.48.271-.715.419a25.286,25.286,0,0,0-5.178,4.147c-.383.4-.758.814-1.114,1.243l-1.384,1.6c-.478.552-.907,1.128-1.363,1.679-.44.562-.841,1.141-1.266,1.7A43.591,43.591,0,0,0,59.5,59.7a39.435,39.435,0,0,0-2.542,7.142,40.018,40.018,0,0,0-1.156,7.4,57.129,57.129,0,0,0,1.321,15.876,84.4,84.4,0,0,0,5.653,16.71,89.868,89.868,0,0,0,4.166,8.117c.754,1.3,1.535,2.578,2.319,3.777.391.595.788,1.17,1.169,1.69.189.259.379.51.547.714a3.4,3.4,0,0,0,.234.266c.029.024.071.074.084.067l.014,0s.017.018,0-.029l-.083-.193c9.315,16.679,3.673,38.068-12.6,47.773a33.29,33.29,0,0,1-46.334-12.627l-.264-.525-.169-.359-.27-.6-.461-1.077c-.291-.693-.551-1.346-.8-1.994-.5-1.293-.963-2.546-1.408-3.79-.879-2.482-1.675-4.931-2.411-7.386-1.468-4.906-2.688-9.84-3.718-14.851A149.287,149.287,0,0,1-.332,94.68,113.468,113.468,0,0,1,4.523,62.011a98.528,98.528,0,0,1,6.394-15.768,90.67,90.67,0,0,1,9.02-14.228A92.217,92.217,0,0,1,30.972,20.051c.993-.872,1.975-1.758,2.98-2.6,1.014-.82,2.015-1.663,3.041-2.443l1.543-1.16c.525-.391.991-.747,1.62-1.2,1.184-.859,2.4-1.673,3.633-2.454A67.567,67.567,0,0,1,59.55,2.843c.688-.224,1.386-.421,2.081-.622.681-.183,1.353-.36,2.03-.528,1.355-.325,2.711-.621,4.07-.862a70.389,70.389,0,0,1,8.1-.985A75.992,75.992,0,0,1,91.367.511a91.675,91.675,0,0,1,14.168,3.236,140.624,140.624,0,0,1,24.64,10.578c7.57,4.062,14.624,8.49,21.411,12.879l2.647,1.72c.908.59,1.785,1.195,2.674,1.793,1.748,1.208,3.475,2.423,5.147,3.648,3.364,2.447,6.584,4.915,9.762,7.312,6.347,4.8,12.466,9.421,18.778,13.322a73.492,73.492,0,0,0,19.679,8.9c.857.24,1.722.421,2.589.632l1.307.255.655.129c.218.039.431.06.648.091l1.3.175c.435.05.874.079,1.313.121.875.1,1.766.112,2.655.158.891.026,1.79.02,2.691.014.9-.047,1.808-.04,2.716-.128l1.365-.1c.456-.037.911-.1,1.368-.149.913-.1,1.825-.241,2.739-.386.916-.126,1.825-.335,2.742-.5.913-.184,1.823-.405,2.738-.61.9-.25,1.815-.483,2.72-.748.9-.284,1.81-.534,2.706-.845,1.8-.59,3.583-1.26,5.346-2,.883-.364,1.766-.732,2.636-1.135l1.31-.595,1.292-.638a97.152,97.152,0,0,0,19.429-12.718A97.3,97.3,0,0,0,288.62,27.852,3.954,3.954,0,0,1,294.247,27a4.2,4.2,0,0,1,.791,5.784,4.13,4.13,0,0,1-.3.368Z" transform="translate(321.313 279.408) rotate(173)" fill="#fdb74d"/>
        </g>
      </g>
    </g>
    <path id="Trazado_187773" data-name="Trazado 187773" d="M5.249,0H257.207a5.129,5.129,0,0,1,5.249,5V41a5.129,5.129,0,0,1-5.249,5H5.249A5.129,5.129,0,0,1,0,41V5A5.129,5.129,0,0,1,5.249,0Z" transform="translate(1420 -10287.523)" fill="#8c6df2"/>
    <text id="Médicos" transform="translate(1547.456 -10257.523)" fill="#fff" font-size="18" font-family="Roboto-Black, Roboto" font-weight="800"><tspan x="-34.664" y="0">Médicos</tspan></text>
  </g>
</svg>
