<svg xmlns="http://www.w3.org/2000/svg" xmlns:xlink="http://www.w3.org/1999/xlink" width="306" height="243.481" viewBox="0 0 306 243.481">
  <defs>
    <clipPath id="clip-path">
      <path id="Intersecci칩n_1" data-name="Intersecci칩n 1" d="M0,243V0H306V243Z" transform="translate(0 0.001)" fill="none"/>
    </clipPath>
  </defs>
  <g id="Grupo_131963" data-name="Grupo 131963" transform="translate(-1897 12348)">
    <g id="Image_Place_Holder" data-name="Image Place Holder" transform="translate(1897 -12310.001)" opacity="0.1">
      <rect id="Image_Place_Holder-2" data-name="Image Place Holder" width="303.554" height="205.482" rx="10" transform="translate(0 0)" fill="#fdb74d"/>
    </g>
    <g id="Grupo_130835" data-name="Grupo 130835" transform="translate(1897 -12348.001)">
      <g id="Grupo_130719" data-name="Grupo 130719" transform="translate(0 0)" clip-path="url(#clip-path)">
        <g id="Grupo_130718" data-name="Grupo 130718" transform="translate(3.173 6.696)">
          <g id="Grupo_130709" data-name="Grupo 130709" transform="translate(0 33.057)">
            <path id="Trazado_137892" data-name="Trazado 137892" d="M-257.469,106.089c9.743-9.147,25.823-10.9,31.813-1.375s2.615,19.58,14.912,30.137c8.394,7.206,2.166,29.312-45.659,27.285-22.646-.96-14.985-24.461-14.379-35.651S-270.094,101.736-257.469,106.089Z" transform="translate(332.98 -98.352)" fill="#263238"/>
            <g id="Grupo_130706" data-name="Grupo 130706" transform="translate(85.807 143.538)">
              <path id="Trazado_137893" data-name="Trazado 137893" d="M-244.011,433.041l11.587.453.221-12.532-11.587-.453Z" transform="translate(252.605 -180.482)" fill="#5038a1"/>
              <path id="Trazado_137894" data-name="Trazado 137894" d="M-231.047,429.4h-13.116a1.015,1.015,0,0,0-.992.8l-2.275,10.377a1.723,1.723,0,0,0,1.716,2.076c4.579-.079,6.8-.348,12.572-.348,3.548,0,12.741.369,17.641.369,4.793,0,5.526-4.846,3.518-5.284-9-1.968-14.278-4.682-17.166-7.271A2.84,2.84,0,0,0-231.047,429.4Z" transform="translate(251.946 -178.788)" fill="#5038a1"/>
              <path id="Trazado_137895" data-name="Trazado 137895" d="M-232.223,420.964l-.1,5.83-11.591-.492.1-5.791Z" transform="translate(252.623 -180.482)" fill="#5038a1" opacity="0.2"/>
              <path id="Trazado_137896" data-name="Trazado 137896" d="M-213.759,218.91c2.624,13.908-.4,81.891-4.331,111.9-5.228,39.864-10.65,132.431-10.65,132.431l-15.551-.937s-3.887-97.471-.7-129.478c-1.8-41.189-6.238-113.135-6.238-113.135Z" transform="translate(251.229 -218.91)" fill="#5038a1"/>
              <path id="Trazado_137897" data-name="Trazado 137897" d="M-248.994,259.036c-.535-10.437,6.854-19.708,9.829-.042,1.894,12.531-2.006,34.486-7.11,50C-247.083,292.928-248.083,274.961-248.994,259.036Z" transform="translate(251.65 -213.466)" fill="#5038a1" opacity="0.2"/>
            </g>
            <g id="Grupo_130707" data-name="Grupo 130707" transform="translate(0 143.914)">
              <path id="Trazado_137898" data-name="Trazado 137898" d="M-315.5,400.034l7.529,7.194,10.213-10.932-7.529-7.194Z" transform="translate(324.785 -186.845)" fill="#5038a1"/>
              <path id="Trazado_137899" data-name="Trazado 137899" d="M-304.555,406.253l-7.712-10.61a.869.869,0,0,0-1.169-.254l-8.971,5.309a1.988,1.988,0,0,0-.519,2.818c2.75,3.649,4.255,5.264,7.647,9.93,2.086,2.871,4.5,6.819,7.381,10.782,2.818,3.877,6.814,1.132,5.957-.794-3.846-8.637-2.232-11.032-2.025-15.152A3.2,3.2,0,0,0-304.555,406.253Z" transform="translate(323.299 -185.671)" fill="#5038a1"/>
              <path id="Trazado_137900" data-name="Trazado 137900" d="M-298.563,396.3l-5.263,5.636-7.473-7.26,5.2-5.573Z" transform="translate(325.586 -186.845)" fill="#5038a1" opacity="0.2"/>
              <path id="Trazado_137901" data-name="Trazado 137901" d="M-220.4,219.226s-16.665,87.766-21,121.79c-2.59,20.335-59.469,93.535-59.469,93.535l-9.719-10.229s20.819-53.585,45.9-85.372c.994-37.266-3.237-98.59,11.157-119.032Z" transform="translate(325.722 -219.226)" fill="#5038a1"/>
            </g>
            <path id="Trazado_137902" data-name="Trazado 137902" d="M-222.548,163.761c.017,7.543.356,14.934.906,22.4.529,7.453,1.292,14.905,2.492,22.391l.22,1.4.293,1.585c.221,1.044.466,2.066.742,3.054.566,1.976,1.222,3.864,1.924,5.7a105.581,105.581,0,0,0,4.809,10.524,151.746,151.746,0,0,0,11.985,19.217,3.2,3.2,0,0,0,4.467.694,3.2,3.2,0,0,0,1.016-3.922l-.036-.076c-3.031-6.55-5.97-13.274-8.532-19.937-1.3-3.329-2.438-6.69-3.417-9.992-.474-1.651-.886-3.3-1.2-4.9-.167-.8-.3-1.584-.4-2.353l-.132-1.145-.123-1.339c-.664-7.14-1.044-14.395-1.4-21.655-.3-7.251-.531-14.593-.744-21.791l0-.067a6.432,6.432,0,0,0-6.619-6.239A6.44,6.44,0,0,0-222.548,163.761Z" transform="translate(342.503 -87.113)" fill="#b55b52"/>
            <path id="Trazado_137903" data-name="Trazado 137903" d="M-217.069,154.916c15.847,4.626,13.8,33.444,13.8,33.444l-22.524,6.067s-3.735-21.107-3.405-28.675C-228.856,157.877-225.8,152.367-217.069,154.916Z" transform="translate(341.231 -87.69)" fill="#5038a1"/>
            <path id="Trazado_137904" data-name="Trazado 137904" d="M-198.848,231.078l7.925,6.75-11.117,4.542s-3.444-5.249-1.849-10.229Z" transform="translate(345.979 -73.052)" fill="#b55b52"/>
            <path id="Trazado_137905" data-name="Trazado 137905" d="M-192.683,247.048l-5.078.633a2.578,2.578,0,0,1-2.711-1.594l-1.932-4.8,11.117-4.542.848,7.451A2.579,2.579,0,0,1-192.683,247.048Z" transform="translate(346.343 -71.972)" fill="#b55b52"/>
            <path id="Trazado_137906" data-name="Trazado 137906" d="M-204.253,162.748c.7,28.893-5.94,49.992-6.014,68.819l-51.081,1.069c.383-18.872.218-31.174-7.9-64.979a10.885,10.885,0,0,1,8.98-13.31c3.055-.456,6.46-.869,9.9-1.107,8.587-.594,15.623-1.016,23.194-.485,5.447.383,11.3,1.175,15.495,1.816A8.634,8.634,0,0,1-204.253,162.748Z" transform="translate(333.544 -88.028)" fill="#5038a1"/>
            <path id="Trazado_137907" data-name="Trazado 137907" d="M-254.338,185.044l15.137-.094a1.043,1.043,0,0,0,1.081-1.158l-.839-7.181a1.359,1.359,0,0,0-1.349-1.143l-15.137.094a1.042,1.042,0,0,0-1.08,1.158l.838,7.181A1.361,1.361,0,0,0-254.338,185.044Z" transform="translate(336.025 -83.653)" fill="#fff"/>
            <path id="Trazado_137908" data-name="Trazado 137908" d="M-230.243,152.716s8.33,5.842-.469,20.467c-12.943-12.455-22.726-19.982-22.726-19.982Z" transform="translate(336.615 -87.989)" fill="#fff" opacity="0.4"/>
            <path id="Trazado_137909" data-name="Trazado 137909" d="M-251.687,131.147c1.619,7.433,3.366,21.076-1.751,26.165a73.134,73.134,0,0,1,21.949,13.513c5.654-10.386,1.245-14,1.245-14-8.364-1.813-8.278-7.991-6.95-13.821Z" transform="translate(336.615 -92.101)" fill="#b55b52"/>
            <path id="Trazado_137910" data-name="Trazado 137910" d="M-250.644,132.234a31.293,31.293,0,0,0,3.369,12.746c1.406,2.715,5.123,3.889,8.939,4.083a20.405,20.405,0,0,1,.6-6.263Z" transform="translate(337.148 -91.894)" opacity="0.2"/>
            <path id="Trazado_137911" data-name="Trazado 137911" d="M-261.979,127.106c3.821,11.886,5.184,17,12.863,21.642,11.551,6.983,25.315-.308,25.123-13.1-.174-11.511-6.392-29.015-19.438-30.806A17.028,17.028,0,0,0-261.979,127.106Z" transform="translate(334.824 -97.147)" fill="#b55b52"/>
            <path id="Trazado_137912" data-name="Trazado 137912" d="M-229.989,111.763c-6.433,1.82-22.161,3.178-25.317,1.251,2.957,4.551.143,16.954-4.422,19.967-6.158-4.951-7.522-16.895-1.835-22.811S-237.89,97.2-229.989,111.763Z" transform="translate(334.379 -97.436)" fill="#263238"/>
            <path id="Trazado_137913" data-name="Trazado 137913" d="M-263.586,130.545a9.126,9.126,0,0,0,4.748,5.1c2.921,1.308,4.852-1.189,4.436-4.192-.375-2.7-2.346-6.64-5.466-6.683C-262.943,124.727-264.6,127.763-263.586,130.545Z" transform="translate(334.624 -93.316)" fill="#b55b52"/>
            <path id="Trazado_137914" data-name="Trazado 137914" d="M-263,217.542l-2.207,4.621c-.171.358.256.711.847.7l53.569-1.122c.461-.01.837-.243.861-.533l.364-4.581c.026-.318-.379-.577-.883-.567l-51.726,1.082A.929.929,0,0,0-263,217.542Z" transform="translate(334.365 -75.915)" fill="#263238"/>
            <path id="Trazado_137915" data-name="Trazado 137915" d="M-257.121,223.095l-1.386.029c-.276.006-.489-.132-.474-.306l.526-5.954c.014-.174.254-.321.529-.327l1.386-.029c.276-.006.489.132.474.306l-.525,5.954C-256.607,222.941-256.846,223.089-257.121,223.095Z" transform="translate(335.558 -75.83)" fill="#407bff"/>
            <path id="Trazado_137916" data-name="Trazado 137916" d="M-222.469,222.37l-1.386.029c-.275.006-.488-.132-.474-.306l.526-5.954c.015-.174.254-.321.53-.327l1.385-.029c.276-.006.489.132.474.306l-.525,5.954C-221.955,222.216-222.193,222.364-222.469,222.37Z" transform="translate(342.163 -75.968)" fill="#407bff"/>
            <path id="Trazado_137917" data-name="Trazado 137917" d="M-239.8,222.732l-1.386.03c-.275,0-.488-.132-.474-.307l.526-5.953c.015-.175.254-.323.529-.327l1.386-.03c.276-.006.489.132.474.307l-.525,5.953C-239.281,222.579-239.519,222.726-239.8,222.732Z" transform="translate(338.861 -75.899)" fill="#8c6df2"/>
            <path id="Trazado_137918" data-name="Trazado 137918" d="M-265.794,161.713c-3.752,4.966-7.265,9.974-10.676,15.168-1.68,2.607-3.363,5.226-4.954,7.956a81.9,81.9,0,0,0-4.592,8.747,25.14,25.14,0,0,0-1.049,2.874,12.071,12.071,0,0,0-.443,2.307,7.479,7.479,0,0,0-.027.945l.035.575a7.182,7.182,0,0,0,.121.767l.094.4.049.18.013.036.054.145.107.289c.594,1.542,1.082,3.1,1.8,4.6a58.271,58.271,0,0,0,4.695,8.807,43.955,43.955,0,0,0,6.526,7.774A31.073,31.073,0,0,0-270,226.5c.726.482,1.475.942,2.257,1.367.4.214.8.407,1.225.6.457.2.792.343,1.461.586l2.46-5.878a5.9,5.9,0,0,0-.558-.476l-.708-.617c-.479-.427-.944-.887-1.4-1.367a33.871,33.871,0,0,1-2.532-3.11,46.159,46.159,0,0,1-4.114-7.035c-.541-1.278-1.135-2.5-1.585-3.828-.526-1.275-.949-2.607-1.364-3.94-.447-1.312-.738-2.709-1.134-4.046l-.069-.252-.035-.126-.01-.032.036.11.066.256c.038.156.063.386.076.486a2.609,2.609,0,0,1,.024.289c0,.239.006.268,0,.376-.019.3-.014.212.048.081.118-.293.367-.833.644-1.364,1.17-2.217,2.743-4.753,4.349-7.173,1.626-2.443,3.29-4.915,5.014-7.356,3.41-4.9,6.935-9.833,10.392-14.687Z" transform="translate(330.115 -86.274)" fill="#b55b52"/>
            <path id="Trazado_137919" data-name="Trazado 137919" d="M-271.633,217.722l9.952,7.035,4.461-10.171s-6.03-3.229-10.793-1.069Z" transform="translate(333.147 -76.542)" fill="#b55b52"/>
            <path id="Trazado_137920" data-name="Trazado 137920" d="M-256.342,225.306l2.478-3.469a3.138,3.138,0,0,0-.672-4.335l-4.277-3.205-4.461,10.171,2.731,1.685A3.138,3.138,0,0,0-256.342,225.306Z" transform="translate(334.74 -76.251)" fill="#b55b52"/>
            <path id="Trazado_137921" data-name="Trazado 137921" d="M-246.963,160.122c3.389,13.43-17.459,36.409-17.459,36.409l-17.531-18.2s8-17.107,18.465-22.472C-256.18,152.116-248.456,154.2-246.963,160.122Z" transform="translate(331.18 -87.747)" fill="#5038a1"/>
            <g id="Grupo_130708" data-name="Grupo 130708" transform="translate(73.942 64.266)">
              <path id="Trazado_137922" data-name="Trazado 137922" d="M-225.8,195.189a.463.463,0,0,0,.432-.3.461.461,0,0,0-.268-.594l-2.013-.767a9.875,9.875,0,0,1-6.4-9.211l-.143-18.862a6.109,6.109,0,0,1,4.749-6.123,6.112,6.112,0,0,1,7.065,3.18l8.722,16.723a9.875,9.875,0,0,1-1.331,11.137L-216.4,192a.461.461,0,0,0,.044.651.459.459,0,0,0,.651-.044l1.418-1.622a10.791,10.791,0,0,0,1.454-12.169l-8.721-16.723a7,7,0,0,0-8.108-3.652,7,7,0,0,0-5.449,7.028l.144,18.861a10.79,10.79,0,0,0,6.992,10.064l2.013.768A.446.446,0,0,0-225.8,195.189Z" transform="translate(266.166 -151.209)" fill="#263238"/>
              <path id="Trazado_137923" data-name="Trazado 137923" d="M-234.618,169.1a.46.46,0,0,0,.462-.451c.083-3.677,3.062-5.717,5.588-6.346s6.115-.226,7.913,2.984a.467.467,0,0,0,.629.177.461.461,0,0,0,.176-.629c-1.688-3.015-5.2-4.36-8.94-3.428s-6.21,3.767-6.288,7.221a.461.461,0,0,0,.451.471Z" transform="translate(266.172 -150.654)" fill="#263238"/>
              <path id="Trazado_137924" data-name="Trazado 137924" d="M-229.729,160.475a.462.462,0,0,0,.389-.212,4.07,4.07,0,0,0-.045-3.323,7.281,7.281,0,0,0-4.35-4.587.462.462,0,0,0-.585.288.462.462,0,0,0,.288.586,6.529,6.529,0,0,1,3.775,4.018,3.318,3.318,0,0,1,.139,2.519.461.461,0,0,0,.139.637A.449.449,0,0,0-229.729,160.475Z" transform="translate(266.312 -152.329)" fill="#263238"/>
              <path id="Trazado_137925" data-name="Trazado 137925" d="M-226.108,188.877c.211.844-.07,1.641-.627,1.78s-1.179-.433-1.389-1.278.071-1.642.627-1.78S-226.319,188.033-226.108,188.877Z" transform="translate(267.485 -145.61)" fill="#263238"/>
              <path id="Trazado_137926" data-name="Trazado 137926" d="M-256.43,170.611c-.424,1.943-1.806,3.292-3.087,3.012s-1.976-2.081-1.553-4.023,1.8-3.292,3.086-3.012S-256.006,168.668-256.43,170.611Z" transform="translate(261.194 -149.618)" fill="#263238"/>
              <path id="Trazado_137927" data-name="Trazado 137927" d="M-260.509,172.668a.462.462,0,0,0,.461-.444c.273-7.133,2.971-16,8.251-18.613a.462.462,0,0,0,.208-.619.459.459,0,0,0-.618-.208c-5.648,2.794-8.471,11.76-8.764,19.406a.462.462,0,0,0,.444.479Z" transform="translate(261.237 -152.252)" fill="#263238"/>
              <path id="Trazado_137928" data-name="Trazado 137928" d="M-255.327,170.641c-.27,1.668-1.473,2.86-2.686,2.663s-1.978-1.709-1.706-3.377,1.474-2.86,2.686-2.662S-255.056,168.974-255.327,170.641Z" transform="translate(261.465 -149.486)" fill="#fff"/>
              <path id="Trazado_137929" data-name="Trazado 137929" d="M-255.382,170.872c-.393,2.061-1.473,3.587-2.41,3.408s-1.378-1.994-.983-4.055,1.473-3.587,2.41-3.408S-254.988,168.812-255.382,170.872Z" transform="translate(261.628 -149.57)" fill="#263238"/>
              <path id="Trazado_137930" data-name="Trazado 137930" d="M-217.923,186.838c.21.844-.071,1.641-.627,1.78s-1.179-.433-1.389-1.278.07-1.642.627-1.78S-218.134,185.994-217.923,186.838Z" transform="translate(269.045 -145.999)" fill="#263238"/>
            </g>
          </g>
          <g id="Grupo_130717" data-name="Grupo 130717" transform="translate(100.32)">
            <path id="Trazado_137931" data-name="Trazado 137931" d="M-174.633,103.329c-8.176,1.456-9.206.71-9.311-5.129s-3.067-15.661,1.064-18.732c2.628-1.951,3.706,1.082,3.706,1.082A2.679,2.679,0,0,1-175.815,79c.176-1.216.369-4.328,2.634-5.224s4.26,1.166,4.26,1.166-.167-4.777,3.062-4.32a4.858,4.858,0,0,1,3.872,3.787s1.866-2.713,4.38-1.642,2.019,4.186,2.019,4.186,2.678-1.281,4.666.176.536,3.786.536,3.786,1.811-4.64,5.248-2.069c3.1,2.317.294,5.951.294,5.951s3.4-.551,4.222,1.167c2.8,5.846-7.826,12.374-8.17,22.237C-165.1,114.448-174.633,103.329-174.633,103.329Z" transform="translate(263.52 -70.587)" fill="#263238"/>
            <path id="Trazado_137932" data-name="Trazado 137932" d="M-223.517,229.932l-5.442-1-7.2,6.879a3.9,3.9,0,0,0-1.206,2.893l.1,5.624a3.9,3.9,0,0,0,3.554,3.811l2.5.223A3.9,3.9,0,0,0-227.1,245.5l1.253-4.592S-218.715,232.535-223.517,229.932Z" transform="translate(253.551 -40.405)" fill="#ffb573"/>
            <g id="Grupo_130710" data-name="Grupo 130710" transform="translate(17.292 79.408)">
              <path id="Trazado_137933" data-name="Trazado 137933" d="M-168.717,144.59c-3.655,9.458-7.293,18.947-10.8,28.463-3.546,9.48-6.994,19.089-10.251,28.493l-.588,1.738-.4,1.13c-.154.429-.311.864-.458,1.211-.607,1.528-1.208,2.8-1.818,4.078-1.2,2.53-2.43,4.884-3.677,7.214-2.491,4.645-5.054,9.127-7.651,13.584-5.141,8.943-10.386,17.675-15.651,26.541l-16.433-10.216c5.417-8.425,10.643-17.115,15.651-25.78,2.465-4.355,4.889-8.73,7.145-13.069,1.122-2.165,2.216-4.334,3.161-6.408.455-1.023.906-2.069,1.208-2.916.1-.239.143-.406.2-.576l.217-.675.585-1.887c3.111-9.9,6.38-19.471,9.519-29.184l9.454-29.047Z" transform="translate(236.437 -137.282)" fill="#407bff"/>
              <path id="Trazado_137934" data-name="Trazado 137934" d="M-168.717,144.59c-3.655,9.458-7.293,18.947-10.8,28.463-3.546,9.48-6.994,19.089-10.251,28.493l-.588,1.738-.4,1.13c-.154.429-.311.864-.458,1.211-.607,1.528-1.208,2.8-1.818,4.078-1.2,2.53-2.43,4.884-3.677,7.214-2.491,4.645-5.054,9.127-7.651,13.584-5.141,8.943-10.386,17.675-15.651,26.541l-16.433-10.216c5.417-8.425,10.643-17.115,15.651-25.78,2.465-4.355,4.889-8.73,7.145-13.069,1.122-2.165,2.216-4.334,3.161-6.408.455-1.023.906-2.069,1.208-2.916.1-.239.143-.406.2-.576l.217-.675.585-1.887c3.111-9.9,6.38-19.471,9.519-29.184l9.454-29.047Z" transform="translate(236.437 -137.282)" fill="#fff" opacity="0.6"/>
            </g>
            <path id="Trazado_137935" data-name="Trazado 137935" d="M-219.032,438.155l-11.567.565,5.462-30.128,11.006,2.526Z" transform="translate(254.842 -6.158)" fill="#ffb573"/>
            <path id="Trazado_137936" data-name="Trazado 137936" d="M-149.3,438.076h-11.569l.029-26.792h11.569Z" transform="translate(268.132 -5.645)" fill="#ffb573"/>
            <path id="Trazado_137937" data-name="Trazado 137937" d="M-158.314,432.662h14.1a.959.959,0,0,1,.952.789l1.865,10.283a1.781,1.781,0,0,1-1.779,2.057c-4.534-.077-7.835-.344-13.552-.344-3.516,0-14.135.366-18.991.366-4.749,0-5.293-4.8-3.287-5.236,8.994-1.95,15.821-4.639,18.781-7.2A2.919,2.919,0,0,1-158.314,432.662Z" transform="translate(264.467 -1.57)" fill="#263238"/>
            <path id="Trazado_137938" data-name="Trazado 137938" d="M-225.606,408.6l-2.529,13.936,11.011,2.527,2.529-13.936Z" transform="translate(255.311 -6.157)" opacity="0.2"/>
            <rect id="Rect치ngulo_41143" data-name="Rect치ngulo 41143" width="11.574" height="13.81" transform="translate(107.281 405.646)" opacity="0.2"/>
            <path id="Trazado_137939" data-name="Trazado 137939" d="M-131.808,145.845c-9,40.629-6.631,80.715-7.593,89.4-9.055-.583-43.159-2.841-61.748-4.074-6.429-48.956.743-80.289,4.834-93.114a11.623,11.623,0,0,1,9.588-8.031,176.56,176.56,0,0,1,27.664-.87,103.6,103.6,0,0,1,18.525,2.81A11.656,11.656,0,0,1-131.808,145.845Z" transform="translate(259.966 -59.457)" fill="#8c6df2"/>
            <path id="Trazado_137940" data-name="Trazado 137940" d="M-154.628,105.99c-2.031,7.646-4.449,21.2-.564,28.046.611,1.076-.562,1.986-.608,3.223-.144,3.8-5.277,4.935-14.466,4.98-9.275.046-13.119-3.777-10.617-7.394a2.645,2.645,0,0,1,1.624-1.052c8.611-1.926,8.774-8.674,7.609-15.11Z" transform="translate(264.176 -63.839)" fill="#ffb573"/>
            <path id="Trazado_137941" data-name="Trazado 137941" d="M-172.631,135.7a24.645,24.645,0,0,1,4.449,11.326c9.168-4.311,13.544-14.771,13.544-14.771l-2.763-2.96S-167.592,131.264-172.631,135.7Z" transform="translate(265.891 -59.396)" opacity="0.4"/>
            <path id="Trazado_137942" data-name="Trazado 137942" d="M-171.313,135.742s-4.079,2.9-8.4,9.852c-6.415-3.966-4.286-15.309-4.286-15.309l5.222-1.026S-176.449,131.42-171.313,135.742Z" transform="translate(263.66 -59.403)" opacity="0.4"/>
            <path id="Trazado_137943" data-name="Trazado 137943" d="M-172.179,134.488l-1.985.193-3.331,2.2a6.01,6.01,0,0,0,.67,3.928,23.734,23.734,0,0,0,5.89.4,6.2,6.2,0,0,0,2.981-3.068l-2.453-3.13Z" transform="translate(264.95 -58.407)" fill="#c2b9de"/>
            <path id="Trazado_137944" data-name="Trazado 137944" d="M-173.042,135.787a33.1,33.1,0,0,1,5.609,10.4c9.167-4.311,14.515-14.61,14.515-14.61l-4.426-3.91S-168,131.351-173.042,135.787Z" transform="translate(265.813 -59.706)" fill="#8c6df2"/>
            <path id="Trazado_137945" data-name="Trazado 137945" d="M-170.869,135.639a33.928,33.928,0,0,0-9.145,8.464c-6.415-3.967-3.975-14.631-3.975-14.631l5.222-1.025S-176,131.318-170.869,135.639Z" transform="translate(263.639 -59.558)" fill="#8c6df2"/>
            <path id="Trazado_137946" data-name="Trazado 137946" d="M-163.167,110.34l-10.074,7.507a27.139,27.139,0,0,1,.5,4.712c3.631-.282,8.836-3.905,9.465-7.647A12.647,12.647,0,0,0-163.167,110.34Z" transform="translate(265.775 -63.01)" opacity="0.2"/>
            <path id="Trazado_137947" data-name="Trazado 137947" d="M-152.053,98.229c-1.457,11.389-1.732,18.129-7.9,23.617-9.271,8.255-23.041,2.085-25.014-9.511-1.778-10.437.906-27.308,12.4-31.119A15.66,15.66,0,0,1-152.053,98.229Z" transform="translate(263.445 -68.721)" fill="#ffb573"/>
            <path id="Trazado_137948" data-name="Trazado 137948" d="M-155.545,108.992c-2.644-2.492-.969-14.411.331-17.827-6.465.616-27.295.589-26.505-5.164s8.365-10.643,20.762-6.6c10.352,3.373,12.912,8.513,12.96,12.723C-147.9,100.759-155.545,108.992-155.545,108.992Z" transform="translate(264.155 -69.19)" fill="#263238"/>
            <path id="Trazado_137949" data-name="Trazado 137949" d="M-152.432,105.248a10.13,10.13,0,0,1-5.832,4.934c-3.287,1.018-4.914-2.015-3.985-5.264.835-2.925,3.552-6.979,6.844-6.575C-152.16,98.742-150.915,102.328-152.432,105.248Z" transform="translate(267.821 -65.302)" fill="#ffb573"/>
            <path id="Trazado_137950" data-name="Trazado 137950" d="M-231.3,455.941l19.13,4.218s18.607-72.911,24.133-108.535c1.682-10.837,5.605-26.309,9.175-42.594,4.508-20.52,10.175-42.71,14.817-60.087,4.9-18.3,8.534-31.462,8.534-31.462l-40.38-2.673s-18.8,95.353-22.6,130.457C-222.441,381.766-231.3,455.941-231.3,455.941Z" transform="translate(254.708 -43.096)" fill="#261a4d"/>
            <path id="Trazado_137951" data-name="Trazado 137951" d="M-187.155,305.014c4.508-20.52,10.175-42.71,14.817-60.087l-4.245-9.053C-186.6,247.872-189.176,284.907-187.155,305.014Z" transform="translate(263.001 -39.081)" opacity="0.2"/>
            <path id="Trazado_137952" data-name="Trazado 137952" d="M-185.4,215.878s8.366,97.432,11.664,131.169c3.614,36.945,13.305,112.628,13.305,112.628h19.426s.877-80.6-2.615-116.277c-.493-70.151.729-124.719.729-124.719Z" transform="translate(263.457 -42.892)" fill="#261a4d"/>
            <path id="Trazado_137953" data-name="Trazado 137953" d="M-166.4,422.452h24.952V415l-25.921-1.438Z" transform="translate(266.893 -5.211)" fill="#407bff"/>
            <path id="Trazado_137954" data-name="Trazado 137954" d="M-233.4,418.6l22.795,5.038,1.628-7.365-23.865-6.019Z" transform="translate(254.308 -5.841)" fill="#407bff"/>
            <g id="Grupo_130711" data-name="Grupo 130711" transform="translate(99.52 427.467)">
              <path id="Trazado_137955" data-name="Trazado 137955" d="M-164.65,434.828a13.839,13.839,0,0,0,3.044-.416.289.289,0,0,0,.216-.221.264.264,0,0,0-.114-.277c-.41-.263-4.048-2.555-5.354-1.9a.916.916,0,0,0-.5.775,1.589,1.589,0,0,0,.508,1.448A3.4,3.4,0,0,0-164.65,434.828Zm2.266-.8c-1.98.394-3.489.321-4.1-.21a1.077,1.077,0,0,1-.331-.994.349.349,0,0,1,.186-.321C-165.95,432.161-163.864,433.151-162.384,434.028Z" transform="translate(167.374 -429.183)" fill="#407bff"/>
              <path id="Trazado_137956" data-name="Trazado 137956" d="M-162.064,434.856a.29.29,0,0,0,.151-.044.289.289,0,0,0,.135-.251c-.006-.142-.145-3.48-1.444-4.579a1.454,1.454,0,0,0-1.154-.351h0a.942.942,0,0,0-.9.718c-.3,1.289,1.913,3.824,3.084,4.474A.264.264,0,0,0-162.064,434.856Zm-2.143-4.69a.935.935,0,0,1,.62.241c.832.7,1.123,2.649,1.217,3.624-1.153-.9-2.549-2.818-2.373-3.58.017-.07.054-.233.412-.277h0A1.088,1.088,0,0,1-164.207,430.166Z" transform="translate(167.768 -429.618)" fill="#407bff"/>
            </g>
            <path id="Trazado_137957" data-name="Trazado 137957" d="M-228.457,429.8l13.572,3.841a.958.958,0,0,1,.7,1.019l-1.006,10.4a1.781,1.781,0,0,1-2.272,1.5c-4.341-1.31-7.445-2.463-12.946-4.021-3.384-.957-14.387-4.9-18.4-7.639-3.921-2.68-1.661-6.951.24-6.178,8.526,3.466,14.531,2.909,18.077,1.245A2.918,2.918,0,0,1-228.457,429.8Z" transform="translate(250.96 -2.339)" fill="#263238"/>
            <g id="Grupo_130712" data-name="Grupo 130712" transform="translate(15.988 423.088)">
              <path id="Trazado_137958" data-name="Trazado 137958" d="M-235.329,430.887a13.854,13.854,0,0,0,3.043.429.289.289,0,0,0,.268-.155.263.263,0,0,0-.035-.3c-.324-.366-3.2-3.562-4.636-3.286a.921.921,0,0,0-.693.61,1.587,1.587,0,0,0,.094,1.531A3.4,3.4,0,0,0-235.329,430.887Zm2.4-.154c-2.013-.161-3.444-.639-3.889-1.317a1.078,1.078,0,0,1-.048-1.047c.08-.2.185-.243.267-.26C-235.853,427.967-234.116,429.486-232.93,430.734Z" transform="translate(237.532 -425.63)" fill="#407bff"/>
              <path id="Trazado_137959" data-name="Trazado 137959" d="M-232.856,431.616a.282.282,0,0,0,.157,0,.288.288,0,0,0,.2-.206c.033-.137.808-3.387-.143-4.8a1.454,1.454,0,0,0-1.013-.652h0a.942.942,0,0,0-1.063.445c-.637,1.161.8,4.2,1.749,5.145A.277.277,0,0,0-232.856,431.616Zm-.786-5.1a.927.927,0,0,1,.531.4c.611.9.36,2.855.186,3.818-.864-1.184-1.686-3.405-1.31-4.091.035-.063.116-.21.471-.154h0A.759.759,0,0,1-233.642,426.52Z" transform="translate(238.038 -425.939)" fill="#407bff"/>
            </g>
            <g id="Grupo_130713" data-name="Grupo 130713" transform="translate(93.545 69.184)">
              <path id="Trazado_137960" data-name="Trazado 137960" d="M-156.2,128.71a.9.9,0,0,0-1.053.98c.45,6.913-10.361,19.307-12.88,56.585-1.532,22.662-2.943,93.284-1.909,130.028A3.175,3.175,0,0,0-168,319.26c19.038-5.309,28.029,7.568,31.7-7.628-.2-18.2-5.713-83.554-4.292-99.043s7.32-57.595,8.787-68.813C-130.526,134.022-150.869,129.677-156.2,128.71Z" transform="translate(172.392 -128.695)" fill="#407bff"/>
              <path id="Trazado_137961" data-name="Trazado 137961" d="M-156.2,128.71a.9.9,0,0,0-1.053.98c.45,6.913-10.361,19.307-12.88,56.585-1.532,22.662-2.943,93.284-1.909,130.028A3.175,3.175,0,0,0-168,319.26c19.038-5.309,28.029,7.568,31.7-7.628-.2-18.2-5.713-83.554-4.292-99.043s7.32-57.595,8.787-68.813C-130.526,134.022-150.869,129.677-156.2,128.71Z" transform="translate(172.392 -128.695)" fill="#fff" opacity="0.7"/>
            </g>
            <path id="Trazado_137962" data-name="Trazado 137962" d="M-148.173,155.213c-.836,5.758-1.163,29.011,4.381,40.184.924-7.683,2.131-16.939,3.316-25.826Z" transform="translate(270.464 -54.456)" fill="#407bff" opacity="0.2"/>
            <path id="Trazado_137963" data-name="Trazado 137963" d="M-139.862,239.655l-5.5.639-4.867,8.692a3.9,3.9,0,0,0-.3,3.118l1.751,5.347a3.9,3.9,0,0,0,4.516,2.6l2.454-.521a3.9,3.9,0,0,0,3.088-3.937l-.151-4.758S-134.509,240.734-139.862,239.655Z" transform="translate(270.067 -38.36)" fill="#ffb573"/>
            <g id="Grupo_130714" data-name="Grupo 130714" transform="translate(112.733 79.931)">
              <path id="Trazado_137964" data-name="Trazado 137964" d="M-135.783,137.721c1.744,5.188,3.375,10.255,4.986,15.408,1.612,5.136,3.228,10.277,4.747,15.476s2.991,10.435,4.354,15.809c.673,2.694,1.313,5.421,1.876,8.271.279,1.43.541,2.892.763,4.437.1.8.22,1.537.292,2.423l.115,1.281.057,1.453c.025.477.01.98-.007,1.479s-.035,1.008-.074,1.4l-.108,1.276-.138,1.166c-.189,1.55-.423,2.974-.65,4.395-.47,2.818-1,5.523-1.56,8.209-1.114,5.363-2.349,10.608-3.605,15.84q-1.843,7.853-3.816,15.63l-3.914,15.6-18.674-5.073c2.891-10.071,5.522-20.338,7.954-30.527,1.186-5.1,2.306-10.215,3.3-15.262.492-2.519.954-5.032,1.328-7.457.186-1.2.344-2.406.445-3.494a16.657,16.657,0,0,0,.113-2.619l-.035-.537-.087-.7c-.039-.439-.152-1.012-.227-1.525-.185-1.079-.419-2.226-.679-3.4-.527-2.347-1.162-4.778-1.839-7.217-1.353-4.893-2.925-9.84-4.59-14.77-3.292-9.859-6.991-19.781-10.819-29.428Z" transform="translate(156.276 -137.721)" fill="#407bff"/>
              <path id="Trazado_137965" data-name="Trazado 137965" d="M-135.783,137.721c1.744,5.188,3.375,10.255,4.986,15.408,1.612,5.136,3.228,10.277,4.747,15.476s2.991,10.435,4.354,15.809c.673,2.694,1.313,5.421,1.876,8.271.279,1.43.541,2.892.763,4.437.1.8.22,1.537.292,2.423l.115,1.281.057,1.453c.025.477.01.98-.007,1.479s-.035,1.008-.074,1.4l-.108,1.276-.138,1.166c-.189,1.55-.423,2.974-.65,4.395-.47,2.818-1,5.523-1.56,8.209-1.114,5.363-2.349,10.608-3.605,15.84q-1.843,7.853-3.816,15.63l-3.914,15.6-18.674-5.073c2.891-10.071,5.522-20.338,7.954-30.527,1.186-5.1,2.306-10.215,3.3-15.262.492-2.519.954-5.032,1.328-7.457.186-1.2.344-2.406.445-3.494a16.657,16.657,0,0,0,.113-2.619l-.035-.537-.087-.7c-.039-.439-.152-1.012-.227-1.525-.185-1.079-.419-2.226-.679-3.4-.527-2.347-1.162-4.778-1.839-7.217-1.353-4.893-2.925-9.84-4.59-14.77-3.292-9.859-6.991-19.781-10.819-29.428Z" transform="translate(156.276 -137.721)" fill="#fff" opacity="0.7"/>
            </g>
            <g id="Grupo_130715" data-name="Grupo 130715" transform="translate(42.01 68.231)">
              <path id="Trazado_137966" data-name="Trazado 137966" d="M-173.039,127.9a1.484,1.484,0,0,1,1.174,2.434c-3.071,3.558-5.007,8.445-8.638,24.134-4.383,18.932-13.73,114.15-15.5,160.8a2.679,2.679,0,0,1-3.162,2.534c-9.1-1.672-15.347,2.737-16.336-3.1-1.1-6.472,2.994-68.065,10.633-97.047-1.2-25.7,3.137-77.251,11.8-84.092C-188.3,129.8-178.378,128-173.039,127.9Z" transform="translate(215.676 -127.895)" fill="#407bff"/>
              <path id="Trazado_137967" data-name="Trazado 137967" d="M-173.039,127.9a1.484,1.484,0,0,1,1.174,2.434c-3.071,3.558-5.007,8.445-8.638,24.134-4.383,18.932-13.73,114.15-15.5,160.8a2.679,2.679,0,0,1-3.162,2.534c-9.1-1.672-15.347,2.737-16.336-3.1-1.1-6.472,2.994-68.065,10.633-97.047-1.2-25.7,3.137-77.251,11.8-84.092C-188.3,129.8-178.378,128-173.039,127.9Z" transform="translate(215.676 -127.895)" fill="#fff" opacity="0.7"/>
            </g>
            <path id="Trazado_137968" data-name="Trazado 137968" d="M-173.228,138.626s-11.155,31.318-15.073,57.552c-.313,7.131,3.087,20.948,5.832,26.98,5.742-12.505,9.333-19.876,9.892-26.98.92-10.7,2.429-57.341,2.429-57.341Z" transform="translate(262.9 -57.618)" fill="#c2b9de"/>
            <g id="Grupo_130716" data-name="Grupo 130716" transform="translate(67.796 67.761)">
              <path id="Trazado_137969" data-name="Trazado 137969" d="M-153.307,176.479a.512.512,0,0,1-.455-.275.512.512,0,0,1,.217-.691l2.118-1.1a10.948,10.948,0,0,0,5.852-10.973l-2.291-20.788a6.774,6.774,0,0,0-6.023-6.128,6.76,6.76,0,0,0-7.369,4.418l-7.435,19.549a10.949,10.949,0,0,0,2.911,12.091l1.772,1.6a.512.512,0,0,1,.037.723.512.512,0,0,1-.723.036l-1.773-1.6a11.965,11.965,0,0,1-3.181-13.212l7.435-19.549a7.755,7.755,0,0,1,8.456-5.071,7.754,7.754,0,0,1,6.911,7.032l2.291,20.789a11.966,11.966,0,0,1-6.4,11.991l-2.118,1.1A.5.5,0,0,1-153.307,176.479Z" transform="translate(198.512 -125.988)" fill="#263238"/>
              <path id="Trazado_137970" data-name="Trazado 137970" d="M-147.994,146.583a.511.511,0,0,1-.506-.441c-.568-4.04-4.114-5.9-6.977-6.265s-6.763.548-8.326,4.314a.515.515,0,0,1-.669.276.512.512,0,0,1-.277-.669c1.469-3.538,5.151-5.478,9.4-4.936s7.327,3.343,7.86,7.138a.509.509,0,0,1-.436.577A.362.362,0,0,1-147.994,146.583Z" transform="translate(199.59 -125.352)" fill="#263238"/>
              <path id="Trazado_137971" data-name="Trazado 137971" d="M-155.983,137.914h-.032a.513.513,0,0,1-.48-.543c.155-2.517-.2-7.1-2.526-8.291a.509.509,0,0,1-.221-.688.511.511,0,0,1,.689-.221c3.437,1.767,3.127,8.5,3.08,9.264A.512.512,0,0,1-155.983,137.914Z" transform="translate(200.637 -127.383)" fill="#263238"/>
              <path id="Trazado_137972" data-name="Trazado 137972" d="M-164,168.719c-.123.957-.733,1.668-1.364,1.587s-1.044-.922-.922-1.879.732-1.667,1.363-1.586S-163.878,167.763-164,168.719Z" transform="translate(199.301 -120.002)" fill="#263238"/>
              <path id="Trazado_137973" data-name="Trazado 137973" d="M-188.715,151.62c-.806,2.053-2.556,3.285-3.91,2.754s-1.8-2.627-.992-4.678,2.555-3.286,3.909-2.755S-187.91,149.567-188.715,151.62Z" transform="translate(194.019 -123.818)" fill="#263238"/>
              <path id="Trazado_137974" data-name="Trazado 137974" d="M-193.04,153.966a.485.485,0,0,1-.1-.01.511.511,0,0,1-.4-.6c1.7-8.476,8.743-21.864,14.948-25.776a.512.512,0,0,1,.7.16.513.513,0,0,1-.16.707c-6,3.781-12.831,16.829-14.49,25.11A.511.511,0,0,1-193.04,153.966Z" transform="translate(194.107 -127.5)" fill="#263238"/>
              <path id="Trazado_137975" data-name="Trazado 137975" d="M-187.537,151.858c-.591,1.778-2.117,2.872-3.411,2.442s-1.863-2.218-1.273-4,2.117-2.871,3.41-2.442S-186.947,150.08-187.537,151.858Z" transform="translate(194.317 -123.637)" fill="#fff"/>
              <path id="Trazado_137976" data-name="Trazado 137976" d="M-187.59,152.1c-.793,2.187-2.243,3.667-3.237,3.306s-1.157-2.428-.364-4.614,2.244-3.667,3.238-3.306S-186.8,149.915-187.59,152.1Z" transform="translate(194.462 -123.7)" fill="#263238"/>
              <path id="Trazado_137977" data-name="Trazado 137977" d="M-154.723,169.9c-.121.957-.732,1.667-1.363,1.587s-1.044-.922-.923-1.879.733-1.668,1.364-1.587S-154.6,168.946-154.723,169.9Z" transform="translate(201.069 -119.777)" fill="#263238"/>
            </g>
          </g>
          <path id="Trazado_138125" data-name="Trazado 138125" d="M283.18,31.955a189.745,189.745,0,0,1-17.1,16.008,139.691,139.691,0,0,1-19.309,13.348,101.456,101.456,0,0,1-21.954,9.428,71.464,71.464,0,0,1-12.11,2.4c-1.044.091-2.088.206-3.146.239-.528.023-1.056.055-1.587.067l-1.6.007c-1.073.01-2.106-.035-3.167-.055-1.048-.064-2.105-.107-3.152-.21A88.189,88.189,0,0,1,175.9,67.153c-7.613-2.957-14.731-6.526-21.58-9.943-3.422-1.716-6.792-3.384-10.106-4.936-1.66-.784-3.3-1.519-4.936-2.237-.815-.344-1.629-.7-2.438-1.029l-2.506-1.017c-6.98-2.825-13.8-5.455-20.518-7.553-3.355-1.051-6.679-1.969-9.945-2.706-1.633-.369-3.252-.7-4.851-.969s-3.181-.479-4.734-.637A45.594,45.594,0,0,0,77.545,37.14a30.463,30.463,0,0,0-3.421,1.174c-.545.22-1.072.464-1.591.711l-.764.386c-.229.131-.46.251-.685.389a23.932,23.932,0,0,0-4.96,3.853c-.367.376-.725.757-1.066,1.156L63.734,46.3c-.458.513-.867,1.049-1.3,1.563-.421.523-.8,1.062-1.211,1.581a40.046,40.046,0,0,0-3.87,6.479,35.877,35.877,0,0,0-2.417,6.657,36.254,36.254,0,0,0-1.085,6.907,51.952,51.952,0,0,0,1.322,14.822,77.764,77.764,0,0,0,5.486,15.615,83.755,83.755,0,0,0,4.029,7.59c.729,1.22,1.484,2.411,2.24,3.533.377.556.761,1.094,1.129,1.582.183.242.365.477.528.668a3.237,3.237,0,0,0,.226.249c.028.023.069.07.081.063l.014,0s.017.017,0-.028l-.08-.181A32.611,32.611,0,1,1,12.332,146l-.256-.491-.163-.336-.261-.562L11.2,143.61c-.281-.648-.534-1.258-.779-1.864-.488-1.208-.933-2.38-1.365-3.542-.853-2.32-1.625-4.608-2.34-6.9C5.293,126.719,4.1,122.109,3.1,117.429A135.836,135.836,0,0,1,0,88.365,102.812,102.812,0,0,1,4.554,57.892,89.8,89.8,0,0,1,10.642,43.2a83.512,83.512,0,0,1,8.615-13.249,86.139,86.139,0,0,1,10.558-11.13c.95-.81,1.891-1.634,2.853-2.413.971-.762,1.93-1.545,2.913-2.27l1.478-1.077c.5-.364.949-.693,1.552-1.111,1.134-.8,2.3-1.554,3.481-2.278A65.252,65.252,0,0,1,57.205,2.855c.661-.206,1.33-.388,2-.573.653-.169,1.3-.332,1.948-.486,1.3-.3,2.6-.57,3.906-.791A69.314,69.314,0,0,1,72.837.113a75.158,75.158,0,0,1,14.92.673,90.641,90.641,0,0,1,13.619,3.068,138.22,138.22,0,0,1,23.7,9.956c7.285,3.817,14.075,7.973,20.609,12.093l2.548,1.614c.874.554,1.718,1.121,2.574,1.682,1.683,1.133,3.346,2.273,4.956,3.422,3.239,2.3,6.341,4.61,9.4,6.858,6.112,4.5,12.005,8.835,18.081,12.5a72.163,72.163,0,0,0,18.931,8.369c.824.227,1.656.4,2.489.6l1.256.243.63.123c.209.037.415.057.622.087l1.246.168c.418.048.84.077,1.261.118.841.094,1.7.11,2.551.156.856.028,1.719.025,2.584.022.866-.04,1.736-.032,2.608-.111l1.311-.092c.438-.033.875-.09,1.313-.134.877-.086,1.752-.218,2.629-.351.88-.115,1.752-.306,2.631-.457.877-.168,1.75-.372,2.627-.56.868-.23,1.741-.445,2.61-.688.863-.262,1.737-.492,2.6-.779,1.728-.545,3.437-1.163,5.128-1.844.847-.336,1.693-.677,2.528-1.05l1.256-.55,1.239-.591a92.72,92.72,0,0,0,18.618-11.8,90.975,90.975,0,0,0,15.394-15.878,3.859,3.859,0,1,1,5.894,4.964Z" transform="translate(308.745 260.661) rotate(173)" fill="#fdb74d"/>
        </g>
      </g>
    </g>
  </g>
</svg>
