<svg xmlns="http://www.w3.org/2000/svg" xmlns:xlink="http://www.w3.org/1999/xlink" width="304.072" height="283.021" viewBox="0 0 304.072 283.021">
  <defs>
    <clipPath id="clip-path">
      <rect id="Rectángulo_44114" data-name="Rectángulo 44114" width="284.927" height="234.528" fill="none"/>
    </clipPath>
  </defs>
  <g id="Grupo_132218" data-name="Grupo 132218" transform="translate(-180.207 -514.979)">
    <g id="Grupo_132121" data-name="Grupo 132121" transform="translate(180.207 514.979)">
      <g id="Grupo_132115" data-name="Grupo 132115" transform="translate(0 0)">
        <rect id="Rectángulo_44113" data-name="Rectángulo 44113" width="304" height="33.139" transform="translate(0.072)" fill="#fff"/>
        <g id="Image_Place_Holder" data-name="Image Place Holder" transform="translate(0 32.838)" opacity="0.1">
          <rect id="Image_Place_Holder-2" data-name="Image Place Holder-2" width="303.554" height="206.345" fill="#fdb74d"/>
        </g>
      </g>
      <g id="Grupo_130835" data-name="Grupo 130835" transform="translate(7 5.52)">
        <g id="Grupo_132117" data-name="Grupo 132117">
          <g id="Grupo_132116" data-name="Grupo 132116" clip-path="url(#clip-path)">
            <g id="Grupo_130719" data-name="Grupo 130719" transform="translate(2.954 6.466)">
              <g id="Grupo_130718" data-name="Grupo 130718">
                <g id="Grupo_130709" data-name="Grupo 130709" transform="translate(0 31.899)">
                  <path id="Trazado_137892" data-name="Trazado 137892" d="M135.488,277.92c9.072-8.828,24.044-10.52,29.622-1.327s2.435,18.9,13.885,29.086c7.817,6.955,2.017,28.29-42.514,26.334-21.087-.927-13.953-23.608-13.39-34.408S123.733,273.719,135.488,277.92Z" transform="translate(-65.177 -270.452)" fill="#263238"/>
                  <g id="Grupo_130706" data-name="Grupo 130706" transform="translate(79.898 138.535)">
                    <path id="Trazado_137893" data-name="Trazado 137893" d="M153.2,666.113l10.788.437.206-12.1-10.789-.437Z" transform="translate(-145.194 -422.359)" fill="#5038a1"/>
                    <path id="Trazado_137894" data-name="Trazado 137894" d="M164.639,664.6H152.427a.954.954,0,0,0-.925.772l-2.118,10.015a1.663,1.663,0,0,0,1.241,1.968,1.534,1.534,0,0,0,.357.036c4.264-.076,6.332-.336,11.706-.336,3.3,0,11.864.356,16.426.356,4.463,0,5.146-4.677,3.276-5.1-8.379-1.9-13.294-4.519-15.984-7.018A2.584,2.584,0,0,0,164.639,664.6Z" transform="translate(-145.18 -422.728)" fill="#5038a1"/>
                    <path id="Trazado_137895" data-name="Trazado 137895" d="M164.19,654.457l-.093,5.627-10.793-.475.094-5.589Z" transform="translate(-145.195 -422.359)" fill="#5038a1" opacity="0.2" style="isolation: isolate"/>
                    <path id="Trazado_137896" data-name="Trazado 137896" d="M180.054,413.991c2.444,13.423-.373,79.036-4.033,108C171.153,560.464,166.1,649.8,166.1,649.8l-14.48-.9s-3.619-94.073-.652-124.964c-1.677-39.753-5.809-109.191-5.809-109.191Z" transform="translate(-145.164 -413.991)" fill="#5038a1"/>
                    <path id="Trazado_137897" data-name="Trazado 137897" d="M147.647,459.158c-.5-10.073,6.382-19.021,9.152-.041,1.763,12.094-1.868,33.284-6.62,48.257C149.426,491.868,148.495,474.527,147.647,459.158Z" transform="translate(-145.173 -415.176)" fill="#5038a1" opacity="0.2" style="isolation: isolate"/>
                  </g>
                  <g id="Grupo_130707" data-name="Grupo 130707" transform="translate(0 138.898)">
                    <path id="Trazado_137898" data-name="Trazado 137898" d="M73.644,627.175l7.011,6.943,9.509-10.551-7.011-6.943Z" transform="translate(-64.998 -421.418)" fill="#5038a1"/>
                    <path id="Trazado_137899" data-name="Trazado 137899" d="M82.419,634.566l-7.181-10.24a.792.792,0,0,0-1.089-.245L65.8,629.2a1.962,1.962,0,0,0-.524,2.658l.041.062c2.56,3.522,3.962,5.08,7.12,9.584,1.943,2.771,4.19,6.581,6.873,10.406,2.624,3.742,6.345,1.093,5.547-.766-3.582-8.336-2.078-10.647-1.886-14.624A3.171,3.171,0,0,0,82.419,634.566Z" transform="translate(-64.965 -421.674)" fill="#5038a1"/>
                    <path id="Trazado_137900" data-name="Trazado 137900" d="M90.177,623.571l-4.9,5.439L78.319,622l4.842-5.379Z" transform="translate(-65.015 -421.418)" fill="#5038a1" opacity="0.2" style="isolation: isolate"/>
                    <path id="Trazado_137901" data-name="Trazado 137901" d="M163.088,414.367s-15.518,84.706-19.554,117.544c-2.411,19.626-55.374,90.274-55.374,90.274l-9.05-9.872s19.386-51.717,42.739-82.4c.926-35.967-3.014-95.153,10.389-114.882Z" transform="translate(-65.018 -414.367)" fill="#5038a1"/>
                  </g>
                  <path id="Trazado_137902" data-name="Trazado 137902" d="M177.08,346.876c.016,7.28.332,14.413.844,21.619.493,7.193,1.2,14.385,2.32,21.61l.205,1.351.273,1.53c.205,1.008.433,1.994.69,2.948.527,1.907,1.138,3.729,1.792,5.5a103.7,103.7,0,0,0,4.477,10.157,147.578,147.578,0,0,0,11.16,18.547,2.912,2.912,0,0,0,4.159.67,3.16,3.16,0,0,0,.946-3.785l-.034-.073c-2.822-6.322-5.559-12.811-7.944-19.242-1.21-3.213-2.27-6.457-3.182-9.644-.441-1.593-.825-3.185-1.118-4.729q-.233-1.158-.373-2.271l-.123-1.105-.115-1.292c-.618-6.891-.972-13.893-1.3-20.9-.28-7-.5-14.084-.693-21.031v-.065a5.994,5.994,0,1,0-11.984.2Z" transform="translate(-65.386 -272.899)" fill="#b55b52"/>
                  <path id="Trazado_137903" data-name="Trazado 137903" d="M180.969,337.657c14.756,4.465,12.85,32.278,12.85,32.278l-20.972,5.856s-3.478-20.371-3.171-27.675C169.995,340.515,172.84,335.2,180.969,337.657Z" transform="translate(-65.358 -272.774)" fill="#5038a1"/>
                  <path id="Trazado_137904" data-name="Trazado 137904" d="M202.461,428.479l7.379,6.515-10.351,4.384s-3.207-5.066-1.722-9.872Z" transform="translate(-65.462 -275.961)" fill="#b55b52"/>
                  <path id="Trazado_137905" data-name="Trazado 137905" d="M208.548,445.17l-4.728.611a2.391,2.391,0,0,1-2.524-1.538l-1.8-4.633,10.351-4.384.79,7.191A2.472,2.472,0,0,1,208.548,445.17Z" transform="translate(-65.47 -276.196)" fill="#b55b52"/>
                  <path id="Trazado_137906" data-name="Trazado 137906" d="M185.577,344.816c.652,27.886-5.531,48.249-5.6,66.42l-47.563,1.032c.357-18.214.2-30.087-7.356-62.714a10.531,10.531,0,0,1,7.487-12.67q.433-.107.875-.176c2.845-.44,6.015-.839,9.218-1.068,8-.573,14.547-.981,21.6-.468,5.072.37,10.522,1.134,14.429,1.753A8.226,8.226,0,0,1,185.577,344.816Z" transform="translate(-65.19 -272.7)" fill="#5038a1"/>
                  <path id="Trazado_137907" data-name="Trazado 137907" d="M141.306,371.51l14.094-.091a.987.987,0,0,0,1.012-.963,1.143,1.143,0,0,0,0-.154l-.782-6.931a1.278,1.278,0,0,0-1.255-1.1l-14.095.091a.985.985,0,0,0-1.011.961,1.025,1.025,0,0,0,.006.156l.78,6.931A1.282,1.282,0,0,0,141.306,371.51Z" transform="translate(-65.244 -273.653)" fill="#fff"/>
                  <path id="Trazado_137908" data-name="Trazado 137908" d="M164.3,335.18s7.757,5.638-.436,19.753a285.813,285.813,0,0,0-21.161-19.285Z" transform="translate(-65.257 -272.708)" fill="#fff" opacity="0.4" style="isolation: isolate"/>
                  <path id="Trazado_137909" data-name="Trazado 137909" d="M144.337,309.5c1.507,7.174,3.134,20.341-1.631,25.253a67.726,67.726,0,0,1,20.438,13.042c5.264-10.024,1.159-13.512,1.159-13.512-7.788-1.75-7.708-7.712-6.471-13.339Z" transform="translate(-65.257 -271.813)" fill="#b55b52"/>
                  <path id="Trazado_137910" data-name="Trazado 137910" d="M145.816,310.793a31.06,31.06,0,0,0,3.137,12.3c1.309,2.62,4.77,3.753,8.323,3.941a20.427,20.427,0,0,1,.559-6.045Z" transform="translate(-65.269 -271.858)" opacity="0.2" style="isolation: isolate"/>
                  <path id="Trazado_137911" data-name="Trazado 137911" d="M133.047,299.63c3.558,11.472,4.827,16.407,11.977,20.887,10.756,6.74,23.571-.3,23.393-12.643-.162-11.11-5.952-28-18.1-29.732a15.957,15.957,0,0,0-17.932,13.953A17.005,17.005,0,0,0,133.047,299.63Z" transform="translate(-65.218 -270.714)" fill="#b55b52"/>
                  <path id="Trazado_137912" data-name="Trazado 137912" d="M162.41,284.48c-5.99,1.757-20.635,3.067-23.574,1.207,2.754,4.392.133,16.363-4.117,19.271-5.733-4.778-7-16.306-1.709-22.016S155.052,270.425,162.41,284.48Z" transform="translate(-65.208 -270.651)" fill="#263238"/>
                  <path id="Trazado_137913" data-name="Trazado 137913" d="M131.36,307.481a8.689,8.689,0,0,0,4.42,4.922c2.72,1.262,4.518-1.148,4.13-4.046-.349-2.606-2.184-6.408-5.089-6.45C131.959,301.866,130.415,304.8,131.36,307.481Z" transform="translate(-65.213 -271.548)" fill="#b55b52"/>
                  <path id="Trazado_137914" data-name="Trazado 137914" d="M131.658,412.028l-2.055,4.46c-.158.346.239.686.789.676l49.88-1.083c.429-.01.779-.234.8-.514l.339-4.421c.024-.307-.353-.557-.822-.547l-48.165,1.044A.854.854,0,0,0,131.658,412.028Z" transform="translate(-65.208 -275.338)" fill="#263238"/>
                  <path id="Trazado_137915" data-name="Trazado 137915" d="M138.269,417.488l-1.29.028c-.257.006-.455-.127-.441-.3l.489-5.746c.013-.168.237-.31.493-.316l1.29-.028c.257-.006.455.127.441.3l-.489,5.746C138.748,417.34,138.526,417.483,138.269,417.488Z" transform="translate(-65.234 -275.356)" fill="#407bff"/>
                  <path id="Trazado_137916" data-name="Trazado 137916" d="M176.829,416.625l-1.29.028c-.256.006-.454-.127-.441-.3l.49-5.746c.014-.168.236-.31.493-.316l1.289-.028c.257-.006.456.127.442.3l-.489,5.746C177.309,416.477,177.087,416.62,176.829,416.625Z" transform="translate(-65.378 -275.326)" fill="#407bff"/>
                  <path id="Trazado_137917" data-name="Trazado 137917" d="M157.545,417.056l-1.29.029c-.256,0-.454-.127-.441-.3l.489-5.745c.014-.169.237-.312.493-.316l1.29-.029c.257-.006.455.127.441.3l-.489,5.745C158.029,416.909,157.807,417.051,157.545,417.056Z" transform="translate(-65.306 -275.341)" fill="#8c6df2"/>
                  <path id="Trazado_137918" data-name="Trazado 137918" d="M125.007,345.892c-3.494,4.793-6.766,9.626-9.942,14.639-1.564,2.516-3.131,5.044-4.613,7.679a79.986,79.986,0,0,0-4.276,8.442,24.755,24.755,0,0,0-.976,2.774,11.948,11.948,0,0,0-.412,2.227,7.329,7.329,0,0,0-.025.912l.032.555a7.464,7.464,0,0,0,.113.74l.088.386.046.174.012.035.051.14.1.279c.553,1.488,1.007,2.992,1.676,4.44a57.053,57.053,0,0,0,4.372,8.5,42.14,42.14,0,0,0,6.077,7.5,29.158,29.158,0,0,0,3.763,3.1c.675.465,1.373.909,2.1,1.319.373.207.745.393,1.141.579.425.193.737.331,1.36.566l2.291-5.673a5.629,5.629,0,0,0-.52-.459l-.66-.6c-.445-.412-.879-.856-1.3-1.319a32.6,32.6,0,0,1-2.358-3,45.049,45.049,0,0,1-3.831-6.79c-.5-1.233-1.057-2.413-1.475-3.695-.49-1.231-.884-2.516-1.27-3.8-.416-1.266-.687-2.615-1.056-3.9l-.064-.243-.033-.122-.009-.031.033.106.062.247c.035.151.059.373.071.469a2.59,2.59,0,0,1,.022.279c0,.231.006.259,0,.363-.017.29-.013.2.045.078.11-.283.342-.8.6-1.316,1.09-2.14,2.554-4.587,4.05-6.923,1.514-2.358,3.063-4.744,4.668-7.1,3.175-4.729,6.458-9.49,9.677-14.175Z" transform="translate(-65.115 -273.082)" fill="#b55b52"/>
                  <path id="Trazado_137919" data-name="Trazado 137919" d="M122.459,411.46l9.267,6.79,4.153-9.816s-5.615-3.116-10.05-1.032Z" transform="translate(-65.181 -275.201)" fill="#b55b52"/>
                  <path id="Trazado_137920" data-name="Trazado 137920" d="M138.216,419.124l2.307-3.348a3.1,3.1,0,0,0-.626-4.184l-3.983-3.093-4.153,9.816,2.542,1.626A2.859,2.859,0,0,0,138.216,419.124Z" transform="translate(-65.216 -275.264)" fill="#b55b52"/>
                  <path id="Trazado_137921" data-name="Trazado 137921" d="M143.555,342.614c3.156,12.962-16.257,35.14-16.257,35.14l-16.324-17.566s7.449-16.511,17.193-21.689C134.974,334.887,142.166,336.9,143.555,342.614Z" transform="translate(-65.138 -272.761)" fill="#5038a1"/>
                  <g id="Grupo_130708" data-name="Grupo 130708" transform="translate(68.85 62.026)">
                    <path id="Trazado_137922" data-name="Trazado 137922" d="M171.769,377.409a.432.432,0,0,0,.4-.29.45.45,0,0,0-.249-.573l-1.875-.74a9.524,9.524,0,0,1-5.959-8.89l-.133-18.2a5.861,5.861,0,0,1,4.422-5.91,5.623,5.623,0,0,1,6.578,3.069l8.121,16.14a9.806,9.806,0,0,1-1.239,10.749l-1.316,1.571a.456.456,0,0,0,.041.627h0a.418.418,0,0,0,.6-.04l0,0,1.32-1.565a10.714,10.714,0,0,0,1.354-11.745l-8.12-16.14a6.441,6.441,0,0,0-7.55-3.525,6.716,6.716,0,0,0-5.074,6.783l.134,18.2a10.405,10.405,0,0,0,6.51,9.713l1.874.741A.4.4,0,0,0,171.769,377.409Z" transform="translate(-134.184 -334.962)" fill="#263238"/>
                    <path id="Trazado_137923" data-name="Trazado 137923" d="M163.564,352.887a.436.436,0,0,0,.43-.435,6.576,6.576,0,0,1,5.2-6.125,6.315,6.315,0,0,1,7.368,2.88.427.427,0,0,0,.586.171.455.455,0,0,0,.164-.606h0a7.09,7.09,0,0,0-8.324-3.309,7.39,7.39,0,0,0-5.855,6.969.438.438,0,0,0,.419.455h.008Z" transform="translate(-134.184 -335.083)" fill="#263238"/>
                    <path id="Trazado_137924" data-name="Trazado 137924" d="M168.251,342.581a.426.426,0,0,0,.362-.2,4.054,4.054,0,0,0-.042-3.207,6.926,6.926,0,0,0-4.05-4.427.426.426,0,0,0-.545.278.45.45,0,0,0,.268.566,6.212,6.212,0,0,1,3.515,3.878,3.3,3.3,0,0,1,.13,2.431.456.456,0,0,0,.13.615h0A.411.411,0,0,0,168.251,342.581Z" transform="translate(-134.187 -334.718)" fill="#263238"/>
                    <path id="Trazado_137925" data-name="Trazado 137925" d="M172.74,377.941c.2.815-.065,1.584-.584,1.718s-1.1-.418-1.293-1.233.067-1.585.584-1.718S172.543,377.126,172.74,377.941Z" transform="translate(-134.213 -336.182)" fill="#263238"/>
                    <path id="Trazado_137926" data-name="Trazado 137926" d="M138.51,355.57c-.395,1.875-1.682,3.177-2.874,2.907s-1.84-2.008-1.446-3.883,1.676-3.177,2.873-2.907S138.906,353.7,138.51,355.57Z" transform="translate(-134.075 -335.309)" fill="#263238"/>
                    <path id="Trazado_137927" data-name="Trazado 137927" d="M134.753,354.44a.438.438,0,0,0,.429-.429c.254-6.884,2.767-15.442,7.683-17.964a.454.454,0,0,0,.193-.6.42.42,0,0,0-.572-.2l0,0c-5.259,2.7-7.888,11.35-8.161,18.729a.44.44,0,0,0,.413.462Z" transform="translate(-134.076 -334.735)" fill="#263238"/>
                    <path id="Trazado_137928" data-name="Trazado 137928" d="M139.8,355.756c-.252,1.61-1.372,2.76-2.5,2.57s-1.842-1.649-1.588-3.259,1.372-2.76,2.5-2.569S140.048,354.147,139.8,355.756Z" transform="translate(-134.081 -335.337)" fill="#fff"/>
                    <path id="Trazado_137929" data-name="Trazado 137929" d="M139.9,355.879c-.367,1.989-1.372,3.462-2.245,3.289s-1.283-1.924-.916-3.914,1.372-3.462,2.245-3.289S140.267,353.891,139.9,355.879Z" transform="translate(-134.084 -335.319)" fill="#263238"/>
                    <path id="Trazado_137930" data-name="Trazado 137930" d="M181.849,375.513c.2.815-.067,1.584-.585,1.718s-1.1-.418-1.293-1.233.066-1.585.584-1.718S181.651,374.7,181.849,375.513Z" transform="translate(-134.247 -336.097)" fill="#263238"/>
                  </g>
                </g>
                <g id="Grupo_130717" data-name="Grupo 130717" transform="translate(93.406)">
                  <path id="Trazado_137931" data-name="Trazado 137931" d="M241.769,269c-7.612,1.405-8.572.685-8.669-4.95s-2.856-15.115.99-18.079c2.447-1.883,3.451,1.044,3.451,1.044a2.469,2.469,0,0,1,3.127-1.5c.164-1.174.344-4.177,2.453-5.042s3.967,1.125,3.967,1.125-.155-4.61,2.851-4.169a4.6,4.6,0,0,1,3.605,3.655s1.737-2.618,4.078-1.585,1.88,4.04,1.88,4.04,2.494-1.236,4.345.17.5,3.654.5,3.654,1.687-4.478,4.887-2c2.887,2.236.274,5.744.274,5.744s3.166-.532,3.931,1.126c2.607,5.642-7.287,11.943-7.607,21.462C250.646,279.728,241.769,269,241.769,269Z" transform="translate(-158.998 -237.4)" fill="#263238"/>
                  <path id="Trazado_137932" data-name="Trazado 137932" d="M186.751,426.888l-5.068-.965-6.7,6.639a3.833,3.833,0,0,0-1.123,2.792l.093,5.428a3.712,3.712,0,0,0,3.31,3.678l2.328.215a3.642,3.642,0,0,0,3.828-2.762l1.167-4.432S191.223,429.4,186.751,426.888Z" transform="translate(-158.78 -243.973)" fill="#ffb573"/>
                  <g id="Grupo_130710" data-name="Grupo 130710" transform="translate(16.1 76.637)">
                    <path id="Trazado_137933" data-name="Trazado 137933" d="M237.947,323.857c-3.4,9.128-6.79,18.286-10.056,27.471-3.3,9.149-6.512,18.423-9.545,27.5L217.8,380.5l-.373,1.091c-.143.414-.29.834-.426,1.169-.566,1.475-1.125,2.7-1.693,3.936-1.118,2.442-2.263,4.714-3.424,6.962-2.319,4.483-4.706,8.809-7.124,13.11-4.787,8.631-9.671,17.059-14.573,25.616l-15.3-9.86c5.044-8.131,9.91-16.518,14.573-24.881,2.3-4.2,4.553-8.426,6.653-12.613,1.045-2.09,2.063-4.183,2.943-6.185.424-.987.844-2,1.126-2.814.093-.231.133-.392.185-.556l.2-.651.545-1.821c2.9-9.555,5.941-18.792,8.864-28.167l8.8-28.034Z" transform="translate(-174.884 -316.806)" fill="#407bff"/>
                    <path id="Trazado_137934" data-name="Trazado 137934" d="M237.947,323.857c-3.4,9.128-6.79,18.286-10.056,27.471-3.3,9.149-6.512,18.423-9.545,27.5L217.8,380.5l-.373,1.091c-.143.414-.29.834-.426,1.169-.566,1.475-1.125,2.7-1.693,3.936-1.118,2.442-2.263,4.714-3.424,6.962-2.319,4.483-4.706,8.809-7.124,13.11-4.787,8.631-9.671,17.059-14.573,25.616l-15.3-9.86c5.044-8.131,9.91-16.518,14.573-24.881,2.3-4.2,4.553-8.426,6.653-12.613,1.045-2.09,2.063-4.183,2.943-6.185.424-.987.844-2,1.126-2.814.093-.231.133-.392.185-.556l.2-.651.545-1.821c2.9-9.555,5.941-18.792,8.864-28.167l8.8-28.034Z" transform="translate(-174.884 -316.806)" fill="#fff" opacity="0.6" style="isolation: isolate"/>
                  </g>
                  <path id="Trazado_137935" data-name="Trazado 137935" d="M192.157,668.362l-10.77.545,5.086-29.078,10.248,2.438Z" transform="translate(-158.808 -251.43)" fill="#ffb573"/>
                  <path id="Trazado_137936" data-name="Trazado 137936" d="M269.753,668.893H258.981l.027-25.858H269.78Z" transform="translate(-159.099 -251.542)" fill="#ffb573"/>
                  <path id="Trazado_137937" data-name="Trazado 137937" d="M257.868,668.488H271a.9.9,0,0,1,.887.761l1.736,9.925a1.711,1.711,0,0,1-1.381,1.964,1.561,1.561,0,0,1-.276.021c-4.221-.074-7.3-.332-12.618-.332-3.274,0-13.161.353-17.683.353-4.421,0-4.928-4.633-3.06-5.053,8.374-1.882,14.732-4.477,17.488-6.949A2.654,2.654,0,0,1,257.868,668.488Z" transform="translate(-159.019 -252.429)" fill="#263238"/>
                  <path id="Trazado_137938" data-name="Trazado 137938" d="M186.483,639.839l-2.354,13.45,10.252,2.439,2.355-13.45Z" transform="translate(-158.818 -251.431)" opacity="0.2" style="isolation: isolate"/>
                  <rect id="Rectángulo_41143" data-name="Rectángulo 41143" width="10.777" height="13.329" transform="translate(99.899 391.499)" opacity="0.2" style="isolation: isolate"/>
                  <path id="Trazado_137939" data-name="Trazado 137939" d="M278.258,323.2c-8.379,39.213-6.174,77.9-7.069,86.283-8.431-.563-40.187-2.742-57.5-3.932-5.986-47.249.691-77.49,4.5-89.868a10.931,10.931,0,0,1,8.927-7.751,158.509,158.509,0,0,1,25.759-.84A93.239,93.239,0,0,1,270.13,309.8,11.265,11.265,0,0,1,278.258,323.2Z" transform="translate(-158.92 -239.823)" fill="#8c6df2"/>
                  <path id="Trazado_137940" data-name="Trazado 137940" d="M261.022,279.547c-1.892,7.379-4.142,20.461-.525,27.068.569,1.038-.524,1.917-.567,3.111-.133,3.668-4.913,4.763-13.469,4.806-8.636.044-12.216-3.645-9.886-7.136a2.453,2.453,0,0,1,1.512-1.015c8.018-1.859,8.169-8.372,7.084-14.583Z" transform="translate(-159.012 -238.87)" fill="#ffb573"/>
                  <path id="Trazado_137941" data-name="Trazado 137941" d="M245.893,313.477a24.3,24.3,0,0,1,4.143,10.931c8.536-4.161,12.611-14.256,12.611-14.256l-2.572-2.857S250.585,309.2,245.893,313.477Z" transform="translate(-159.05 -239.837)" opacity="0.4" style="isolation: isolate"/>
                  <path id="Trazado_137942" data-name="Trazado 137942" d="M244.994,313.509s-3.8,2.8-7.822,9.509c-5.974-3.828-3.991-14.775-3.991-14.775l4.863-.99S240.212,309.338,244.994,313.509Z" transform="translate(-159.001 -239.835)" opacity="0.4" style="isolation: isolate"/>
                  <path id="Trazado_137943" data-name="Trazado 137943" d="M245.417,313.477l-1.848.186-3.1,2.123a5.984,5.984,0,0,0,.624,3.791,21.35,21.35,0,0,0,5.484.386A5.894,5.894,0,0,0,249.351,317l-2.284-3.021Z" transform="translate(-159.029 -240.052)" fill="#c2b9de"/>
                  <path id="Trazado_137944" data-name="Trazado 137944" d="M245.436,313.194a32.33,32.33,0,0,1,5.223,10.037c8.536-4.161,13.515-14.1,13.515-14.1l-4.121-3.774S250.131,308.913,245.436,313.194Z" transform="translate(-159.048 -239.769)" fill="#8c6df2"/>
                  <path id="Trazado_137945" data-name="Trazado 137945" d="M245.387,313.226a32.045,32.045,0,0,0-8.515,8.169c-5.974-3.829-3.7-14.121-3.7-14.121l4.863-.989S240.61,309.056,245.387,313.226Z" transform="translate(-159.001 -239.802)" fill="#8c6df2"/>
                  <path id="Trazado_137946" data-name="Trazado 137946" d="M254.595,284.726l-9.38,7.245a27.088,27.088,0,0,1,.465,4.548c3.381-.272,8.228-3.769,8.813-7.38A12.629,12.629,0,0,0,254.595,284.726Z" transform="translate(-159.047 -239.05)" opacity="0.2" style="isolation: isolate"/>
                  <path id="Trazado_137947" data-name="Trazado 137947" d="M262.723,266.282c-1.357,10.992-1.613,17.5-7.355,22.794-8.632,7.967-21.454,2.012-23.292-9.179-1.655-10.073.844-26.356,11.547-30.034a14.468,14.468,0,0,1,18.477,9.489A15.644,15.644,0,0,1,262.723,266.282Z" transform="translate(-158.996 -237.807)" fill="#ffb573"/>
                  <path id="Trazado_137948" data-name="Trazado 137948" d="M260.148,276.115c-2.462-2.405-.9-13.909.308-17.205-6.019.595-25.415.568-24.679-4.984s7.789-10.272,19.332-6.37c9.639,3.255,12.023,8.216,12.068,12.279C267.266,268.169,260.148,276.115,260.148,276.115Z" transform="translate(-159.012 -237.704)" fill="#263238"/>
                  <path id="Trazado_137949" data-name="Trazado 137949" d="M266.541,277.1a9.537,9.537,0,0,1-5.431,4.762c-3.06.982-4.576-1.945-3.71-5.081.777-2.823,3.307-6.736,6.372-6.346C266.794,270.821,267.953,274.282,266.541,277.1Z" transform="translate(-159.092 -238.551)" fill="#ffb573"/>
                  <path id="Trazado_137950" data-name="Trazado 137950" d="M180.607,641.834l17.812,4.071s17.326-70.369,22.471-104.751c1.566-10.459,5.219-25.392,8.543-41.109,4.2-19.8,9.474-41.221,13.8-57.992,4.563-17.662,7.946-30.365,7.946-30.365l-37.6-2.58s-17.505,92.029-21.043,125.909C188.856,570.245,180.607,641.834,180.607,641.834Z" transform="translate(-158.805 -243.387)" fill="#261a4d"/>
                  <path id="Trazado_137951" data-name="Trazado 137951" d="M229.616,500.918c4.2-19.8,9.473-41.221,13.8-57.992l-3.952-8.737C230.132,445.769,227.734,481.512,229.616,500.918Z" transform="translate(-158.987 -244.261)" opacity="0.2" style="isolation: isolate"/>
                  <path id="Trazado_137952" data-name="Trazado 137952" d="M231.684,410.382s7.79,94.035,10.861,126.6c3.364,35.657,12.388,108.7,12.388,108.7h18.088s.817-77.79-2.435-112.223c-.459-67.705.679-120.371.679-120.371Z" transform="translate(-158.997 -243.431)" fill="#261a4d"/>
                  <path id="Trazado_137953" data-name="Trazado 137953" d="M252.651,654.327h23.234v-7.192l-24.136-1.388Z" transform="translate(-159.072 -251.637)" fill="#407bff"/>
                  <path id="Trazado_137954" data-name="Trazado 137954" d="M178.27,649.864l21.225,4.862,1.516-7.108-22.221-5.809Z" transform="translate(-158.796 -251.499)" fill="#407bff"/>
                  <g id="Grupo_130711" data-name="Grupo 130711" transform="translate(92.667 412.56)">
                    <path id="Trazado_137955" data-name="Trazado 137955" d="M254.28,670.406a12.51,12.51,0,0,0,2.834-.4.275.275,0,0,0,.2-.213.259.259,0,0,0-.106-.267c-.383-.254-3.77-2.466-4.986-1.834a.887.887,0,0,0-.465.748,1.568,1.568,0,0,0,.473,1.4A3.087,3.087,0,0,0,254.28,670.406Zm2.11-.772c-1.844.38-3.249.31-3.818-.2a1.062,1.062,0,0,1-.308-.959.338.338,0,0,1,.172-.31c.633-.33,2.575.625,3.953,1.472Z" transform="translate(-251.739 -664.958)" fill="#407bff"/>
                    <path id="Trazado_137956" data-name="Trazado 137956" d="M257.064,669.918a.275.275,0,0,0,.141-.043.283.283,0,0,0,.125-.242c-.006-.137-.135-3.359-1.345-4.419a1.319,1.319,0,0,0-1.075-.339h0a.883.883,0,0,0-.838.693c-.279,1.244,1.781,3.691,2.872,4.318A.246.246,0,0,0,257.064,669.918Zm-2-4.527a.849.849,0,0,1,.578.233c.775.676,1.046,2.557,1.133,3.5-1.073-.869-2.373-2.72-2.21-3.455.016-.068.051-.225.385-.267h0A.926.926,0,0,1,255.068,665.392Z" transform="translate(-251.747 -664.863)" fill="#407bff"/>
                  </g>
                  <path id="Trazado_137957" data-name="Trazado 137957" d="M179.682,664.816l12.637,3.707a.923.923,0,0,1,.652.983l-.936,10.037a1.673,1.673,0,0,1-1.841,1.506,1.712,1.712,0,0,1-.275-.058c-4.042-1.264-6.932-2.377-12.054-3.881-3.151-.924-13.4-4.729-17.133-7.373-3.651-2.587-1.546-6.709.223-5.963,7.939,3.345,13.531,2.808,16.833,1.2A2.624,2.624,0,0,1,179.682,664.816Z" transform="translate(-158.723 -252.262)" fill="#263238"/>
                  <g id="Grupo_130712" data-name="Grupo 130712" transform="translate(14.89 408.321)">
                    <path id="Trazado_137958" data-name="Trazado 137958" d="M175.723,665.625a12.513,12.513,0,0,0,2.833.414.268.268,0,0,0,.249-.15.259.259,0,0,0-.032-.289c-.3-.353-2.98-3.438-4.317-3.172a.866.866,0,0,0-.646.589,1.582,1.582,0,0,0,.088,1.478A3.151,3.151,0,0,0,175.723,665.625Zm2.235-.149c-1.875-.155-3.207-.617-3.621-1.271a1.075,1.075,0,0,1-.045-1.01c.075-.193.172-.235.249-.251.694-.137,2.312,1.329,3.416,2.534Z" transform="translate(-173.669 -660.538)" fill="#407bff"/>
                    <path id="Trazado_137959" data-name="Trazado 137959" d="M178.508,665.963a.252.252,0,0,0,.146,0,.275.275,0,0,0,.186-.2c.031-.132.752-3.269-.133-4.633a1.349,1.349,0,0,0-.943-.629h0a.865.865,0,0,0-.989.43c-.594,1.121.744,4.054,1.628,4.966A.272.272,0,0,0,178.508,665.963Zm-.732-4.922a.867.867,0,0,1,.5.386c.569.869.335,2.755.173,3.685-.8-1.143-1.57-3.286-1.22-3.948.033-.061.109-.2.438-.149h0a.658.658,0,0,1,.114.03Z" transform="translate(-173.68 -660.471)" fill="#407bff"/>
                  </g>
                  <g id="Grupo_130713" data-name="Grupo 130713" transform="translate(87.105 66.769)">
                    <path id="Trazado_137960" data-name="Trazado 137960" d="M261.236,306.594a.839.839,0,0,0-.971.7.9.9,0,0,0-.009.243c.419,6.672-9.648,18.634-11.993,54.612-1.427,21.872-2.741,90.032-1.777,125.495a3,3,0,0,0,3.045,2.969,2.88,2.88,0,0,0,.719-.115c17.726-5.124,26.1,7.3,29.517-7.362-.186-17.565-5.32-80.641-4-95.59s6.816-55.587,8.182-66.414C285.142,311.721,266.2,307.528,261.236,306.594Z" transform="translate(-246.156 -306.581)" fill="#407bff"/>
                    <path id="Trazado_137961" data-name="Trazado 137961" d="M261.236,306.594a.839.839,0,0,0-.971.7.9.9,0,0,0-.009.243c.419,6.672-9.648,18.634-11.993,54.612-1.427,21.872-2.741,90.032-1.777,125.495a3,3,0,0,0,3.045,2.969,2.88,2.88,0,0,0,.719-.115c17.726-5.124,26.1,7.3,29.517-7.362-.186-17.565-5.32-80.641-4-95.59s6.816-55.587,8.182-66.414C285.142,311.721,266.2,307.528,261.236,306.594Z" transform="translate(-246.156 -306.581)" fill="#fff" opacity="0.7" style="isolation: isolate"/>
                  </g>
                  <path id="Trazado_137962" data-name="Trazado 137962" d="M273.025,338.153c-.778,5.557-1.083,28,4.08,38.783.86-7.415,1.984-16.348,3.087-24.926Z" transform="translate(-159.15 -240.913)" fill="#407bff" opacity="0.2" style="isolation: isolate"/>
                  <path id="Trazado_137963" data-name="Trazado 137963" d="M280.386,438.691l-5.122.617-4.532,8.389a3.888,3.888,0,0,0-.279,3.009l1.63,5.161a3.619,3.619,0,0,0,4.205,2.509l2.285-.5a3.74,3.74,0,0,0,2.875-3.8l-.14-4.592S285.37,439.732,280.386,438.691Z" transform="translate(-159.141 -244.418)" fill="#ffb573"/>
                  <g id="Grupo_130714" data-name="Grupo 130714" transform="translate(104.977 77.14)">
                    <path id="Trazado_137964" data-name="Trazado 137964" d="M283.175,317.327c1.624,5.007,3.143,9.9,4.643,14.871,1.5,4.957,3.006,9.919,4.42,14.936s2.786,10.071,4.054,15.258c.627,2.6,1.223,5.232,1.747,7.983.26,1.38.5,2.791.71,4.282.093.772.205,1.483.272,2.339l.107,1.236.054,1.4c.023.46.009.946-.007,1.427s-.033.973-.069,1.351l-.1,1.232-.129,1.125c-.176,1.5-.394,2.87-.606,4.242-.437,2.72-.93,5.33-1.453,7.923-1.037,5.176-2.187,10.238-3.356,15.288q-1.716,7.579-3.554,15.085l-3.644,15.056-17.388-4.9c2.692-9.72,5.142-19.629,7.406-29.463,1.1-4.922,2.147-9.859,3.072-14.73.458-2.431.889-4.857,1.236-7.2.173-1.158.321-2.322.414-3.372a16.615,16.615,0,0,0,.106-2.528l-.033-.518-.081-.676c-.036-.424-.141-.977-.211-1.472-.172-1.041-.391-2.148-.633-3.281-.49-2.265-1.082-4.611-1.713-6.965-1.259-4.722-2.723-9.5-4.274-14.255-3.064-9.515-6.509-19.091-10.073-28.4Z" transform="translate(-264.095 -317.327)" fill="#407bff"/>
                    <path id="Trazado_137965" data-name="Trazado 137965" d="M283.175,317.327c1.624,5.007,3.143,9.9,4.643,14.871,1.5,4.957,3.006,9.919,4.42,14.936s2.786,10.071,4.054,15.258c.627,2.6,1.223,5.232,1.747,7.983.26,1.38.5,2.791.71,4.282.093.772.205,1.483.272,2.339l.107,1.236.054,1.4c.023.46.009.946-.007,1.427s-.033.973-.069,1.351l-.1,1.232-.129,1.125c-.176,1.5-.394,2.87-.606,4.242-.437,2.72-.93,5.33-1.453,7.923-1.037,5.176-2.187,10.238-3.356,15.288q-1.716,7.579-3.554,15.085l-3.644,15.056-17.388-4.9c2.692-9.72,5.142-19.629,7.406-29.463,1.1-4.922,2.147-9.859,3.072-14.73.458-2.431.889-4.857,1.236-7.2.173-1.158.321-2.322.414-3.372a16.615,16.615,0,0,0,.106-2.528l-.033-.518-.081-.676c-.036-.424-.141-.977-.211-1.472-.172-1.041-.391-2.148-.633-3.281-.49-2.265-1.082-4.611-1.713-6.965-1.259-4.722-2.723-9.5-4.274-14.255-3.064-9.515-6.509-19.091-10.073-28.4Z" transform="translate(-264.095 -317.327)" fill="#fff" opacity="0.7" style="isolation: isolate"/>
                  </g>
                  <g id="Grupo_130715" data-name="Grupo 130715" transform="translate(39.121 65.853)">
                    <path id="Trazado_137966" data-name="Trazado 137966" d="M237.694,305.632a1.405,1.405,0,0,1,1.414,1.4,1.47,1.47,0,0,1-.32.951c-2.86,3.434-4.662,8.151-8.044,23.293-4.081,18.272-12.785,110.17-14.433,155.194a2.533,2.533,0,0,1-2.586,2.486,2.45,2.45,0,0,1-.358-.041c-8.473-1.614-14.29,2.642-15.211-2.992-1.025-6.246,2.788-65.692,9.9-93.664-1.118-24.8,2.921-74.558,10.987-81.16C223.484,307.466,232.722,305.728,237.694,305.632Z" transform="translate(-197.992 -305.632)" fill="#407bff"/>
                    <path id="Trazado_137967" data-name="Trazado 137967" d="M237.694,305.632a1.405,1.405,0,0,1,1.414,1.4,1.47,1.47,0,0,1-.32.951c-2.86,3.434-4.662,8.151-8.044,23.293-4.081,18.272-12.785,110.17-14.433,155.194a2.533,2.533,0,0,1-2.586,2.486,2.45,2.45,0,0,1-.358-.041c-8.473-1.614-14.29,2.642-15.211-2.992-1.025-6.246,2.788-65.692,9.9-93.664-1.118-24.8,2.921-74.558,10.987-81.16C223.484,307.466,232.722,305.728,237.694,305.632Z" transform="translate(-197.992 -305.632)" fill="#fff" opacity="0.7" style="isolation: isolate"/>
                  </g>
                  <path id="Trazado_137968" data-name="Trazado 137968" d="M242.487,318.4S232.1,348.63,228.452,373.949c-.292,6.882,2.874,20.218,5.431,26.039,5.347-12.069,8.69-19.183,9.21-26.039.857-10.327,2.262-55.342,2.262-55.342Z" transform="translate(-158.984 -240.224)" fill="#c2b9de"/>
                  <g id="Grupo_130716" data-name="Grupo 130716" transform="translate(63.132 65.398)">
                    <path id="Trazado_137969" data-name="Trazado 137969" d="M264.284,354.217a.475.475,0,0,1-.423-.265.5.5,0,0,1,.2-.667h0l1.972-1.062a10.664,10.664,0,0,0,5.449-10.59l-2.134-20.063a6.43,6.43,0,0,0-5.608-5.914,6.275,6.275,0,0,0-6.861,4.264l-6.923,18.867a10.833,10.833,0,0,0,2.71,11.669L254.318,352a.507.507,0,0,1,.034.7.466.466,0,0,1-.673.035l-1.651-1.544a11.837,11.837,0,0,1-2.962-12.751l6.923-18.867a7.2,7.2,0,0,1,7.874-4.894,7.361,7.361,0,0,1,6.435,6.787l2.133,20.064a11.655,11.655,0,0,1-5.96,11.573l-1.972,1.062A.47.47,0,0,1,264.284,354.217Z" transform="translate(-222.191 -305.489)" fill="#263238"/>
                    <path id="Trazado_137970" data-name="Trazado 137970" d="M270.258,326.116a.483.483,0,0,1-.471-.426,7.212,7.212,0,0,0-6.5-6.047,7.059,7.059,0,0,0-7.752,4.164.475.475,0,0,1-.624.266.5.5,0,0,1-.258-.646h0a7.925,7.925,0,0,1,8.753-4.764,8.1,8.1,0,0,1,7.318,6.889.488.488,0,0,1-.4.556h0A.36.36,0,0,1,270.258,326.116Z" transform="translate(-222.215 -305.628)" fill="#263238"/>
                    <path id="Trazado_137971" data-name="Trazado 137971" d="M263.817,315.346h-.03a.489.489,0,0,1-.446-.524c.143-2.429-.186-6.852-2.352-8a.5.5,0,0,1-.208-.661l0,0a.468.468,0,0,1,.641-.214h0c3.2,1.705,2.912,8.2,2.868,8.941A.485.485,0,0,1,263.817,315.346Z" transform="translate(-222.238 -305.186)" fill="#263238"/>
                    <path id="Trazado_137972" data-name="Trazado 137972" d="M255.079,353.808c-.115.924-.682,1.61-1.269,1.532s-.972-.89-.859-1.814.681-1.609,1.269-1.531S255.192,352.886,255.079,353.808Z" transform="translate(-222.208 -306.793)" fill="#263238"/>
                    <path id="Trazado_137973" data-name="Trazado 137973" d="M227.032,332.792c-.75,1.981-2.38,3.17-3.64,2.658s-1.677-2.535-.925-4.515,2.379-3.171,3.64-2.659S227.782,330.81,227.032,332.792Z" transform="translate(-222.093 -305.962)" fill="#263238"/>
                    <path id="Trazado_137974" data-name="Trazado 137974" d="M223.089,330.7a.516.516,0,0,1-.094-.01.493.493,0,0,1-.372-.579c1.582-8.18,8.14-21.1,13.919-24.877a.466.466,0,0,1,.652.154.506.506,0,0,1-.149.682c-5.587,3.649-11.947,16.242-13.492,24.235A.481.481,0,0,1,223.089,330.7Z" transform="translate(-222.095 -305.16)" fill="#263238"/>
                    <path id="Trazado_137975" data-name="Trazado 137975" d="M228.413,333.235c-.55,1.716-1.971,2.772-3.176,2.357s-1.734-2.141-1.185-3.861,1.971-2.771,3.175-2.357S228.963,331.519,228.413,333.235Z" transform="translate(-222.099 -306.001)" fill="#fff"/>
                    <path id="Trazado_137976" data-name="Trazado 137976" d="M228.5,333.394c-.738,2.111-2.088,3.539-3.014,3.191s-1.077-2.343-.339-4.453,2.089-3.539,3.015-3.191S229.238,331.285,228.5,333.394Z" transform="translate(-222.102 -305.988)" fill="#263238"/>
                    <path id="Trazado_137977" data-name="Trazado 137977" d="M265.4,355.214c-.113.924-.681,1.609-1.268,1.532s-.972-.89-.86-1.813.682-1.61,1.27-1.532S265.516,354.294,265.4,355.214Z" transform="translate(-222.247 -306.842)" fill="#263238"/>
                  </g>
                </g>
                <path id="Trazado_138125" data-name="Trazado 138125" d="M.722,154.259A183.008,183.008,0,0,1,14.75,136.87a132.783,132.783,0,0,1,16.365-15.106A94.342,94.342,0,0,1,50.358,110.1a65.21,65.21,0,0,1,10.926-3.753c.955-.212,1.906-.448,2.881-.606.485-.086.969-.18,1.459-.255l1.478-.2c.99-.139,1.951-.219,2.933-.328.976-.064,1.957-.15,2.936-.177a79.147,79.147,0,0,1,22.992,2.88c7.364,1.919,14.338,4.483,21.046,6.934,3.353,1.233,6.652,2.426,9.887,3.516,1.622.551,3.219,1.058,4.81,1.55.791.232,1.583.476,2.367.694l2.429.673c6.764,1.868,13.358,3.568,19.8,4.772,3.217.6,6.391,1.084,9.491,1.4,1.55.157,3.083.28,4.59.345s2.993.077,4.447.042a41.2,41.2,0,0,0,15.358-2.982,28.215,28.215,0,0,0,3.032-1.535c.48-.276.94-.573,1.392-.873l.663-.461c.2-.153.4-.3.59-.455a22.873,22.873,0,0,0,4.156-4.286c.3-.4.587-.813.858-1.236l1.058-1.587c.367-.546.685-1.109,1.028-1.654s.621-1.113.943-1.66a39.526,39.526,0,0,0,2.858-6.671,35.732,35.732,0,0,0,1.5-6.668,36.308,36.308,0,0,0,.237-6.747,51.617,51.617,0,0,0-2.865-14.04,75.789,75.789,0,0,0-6.8-14.3,80.62,80.62,0,0,0-4.565-6.787c-.81-1.082-1.64-2.132-2.462-3.116-.41-.487-.824-.957-1.218-1.38-.2-.21-.39-.413-.562-.576a3.028,3.028,0,0,0-.236-.212c-.029-.018-.072-.059-.083-.051l-.013,0s-.017-.014,0,.027l.093.164a32.326,32.326,0,0,1,6.1-44.111,29.589,29.589,0,0,1,42.494,6.1l.292.44.187.3.3.507.528.9c.332.587.633,1.142.927,1.692.586,1.1,1.127,2.168,1.655,3.229,1.046,2.12,2.013,4.22,2.928,6.33,1.823,4.221,3.437,8.5,4.881,12.858a134.825,134.825,0,0,1,6.088,27.471,102.965,102.965,0,0,1-.83,29.74,89.534,89.534,0,0,1-4,14.807,82.367,82.367,0,0,1-6.493,13.727,83.621,83.621,0,0,1-8.523,11.93c-.788.89-1.566,1.793-2.369,2.655s-1.612,1.712-2.441,2.524l-1.246,1.209c-.422.409-.8.778-1.311,1.251-.959.9-1.954,1.765-2.965,2.6A60.765,60.765,0,0,1,212.787,155c-.587.278-1.185.532-1.785.79-.584.24-1.164.474-1.746.7-1.168.443-2.34.858-3.523,1.227a62.747,62.747,0,0,1-7.089,1.788,67.568,67.568,0,0,1-13.863,1.146,81.332,81.332,0,0,1-12.927-1.3,124.63,124.63,0,0,1-23.007-6.692c-7.155-2.782-13.892-5.949-20.386-9.111l-2.534-1.24c-.869-.426-1.712-.867-2.565-1.3-1.682-.883-3.344-1.776-4.96-2.683-3.248-1.815-6.371-3.655-9.447-5.442-6.148-3.577-12.074-7.022-18.1-9.8a65.13,65.13,0,0,0-18.423-5.745c-.786-.118-1.575-.184-2.366-.276l-1.188-.082-.6-.042c-.2-.01-.389,0-.585-.009l-1.17-.011c-.391,0-.785.027-1.178.039-.788.011-1.583.1-2.375.157-.794.075-1.592.183-2.391.289-.8.142-1.6.239-2.4.419l-1.2.245c-.4.084-.8.191-1.2.286-.8.187-1.594.419-2.391.652-.8.215-1.585.5-2.381.753-.791.267-1.576.567-2.365.852-.777.325-1.559.636-2.336.973-.768.354-1.55.68-2.316,1.058q-2.3,1.1-4.535,2.382c-.745.424-1.489.853-2.219,1.31l-1.1.678-1.079.714A89.872,89.872,0,0,0,6.7,158.32a3.535,3.535,0,0,1-4.908,1.386,3.79,3.79,0,0,1-1.31-5.084,3.88,3.88,0,0,1,.22-.35Z" transform="translate(29.104 64.621) rotate(8)" fill="#fdb74d"/>
              </g>
            </g>
          </g>
        </g>
      </g>
    </g>
    <g id="Grupo_132139" data-name="Grupo 132139" transform="translate(-6.793 -10)">
      <rect id="Rectángulo_41167" data-name="Rectángulo 41167" width="250" height="46" rx="5" transform="translate(214 762)" fill="#8c6df2"/>
    </g>
  </g>
</svg>
