<svg xmlns="http://www.w3.org/2000/svg" xmlns:xlink="http://www.w3.org/1999/xlink" width="307" height="243.999" viewBox="0 0 307 243.999">
  <defs>
    <clipPath id="clip-path">
      <rect id="Rectángulo_41146" data-name="Rectángulo 41146" width="306" height="243" transform="translate(-0.303 0)" fill="none"/>
    </clipPath>
    <clipPath id="clip-path-2">
      <path id="Intersección_1" data-name="Intersección 1" d="M0,243V0H306V243Z" transform="translate(0.361 0.001)" fill="none"/>
    </clipPath>
  </defs>
  <g id="Grupo_131965" data-name="Grupo 131965" transform="translate(-2655 12348.999)">
    <g id="Image_Place_Holder" data-name="Image Place Holder" transform="translate(2655.491 -12311)" opacity="0.1">
      <rect id="Image_Place_Holder-2" data-name="Image Place Holder" width="303.554" height="205.482" rx="10" transform="translate(0 0)" fill="#fdb74d"/>
    </g>
    <g id="Grupo_130839" data-name="Grupo 130839" transform="translate(2655.303 -12348)">
      <g id="Grupo_130781" data-name="Grupo 130781" transform="translate(0 0)" clip-path="url(#clip-path)">
        <g id="Grupo_130780" data-name="Grupo 130780" transform="translate(39.329 11.224)">
          <g id="Grupo_130750" data-name="Grupo 130750" transform="translate(71.535 0.001)">
            <g id="Grupo_130729" data-name="Grupo 130729" transform="translate(0 49.125)">
              <g id="Grupo_130720" data-name="Grupo 130720" transform="translate(0 63.897)">
                <path id="Trazado_137978" data-name="Trazado 137978" d="M-138.934,243.032v15.744a12.377,12.377,0,0,0-1.182,3.089c-11.018-5.725-21.73-11.711-32.328-18.254-1.5-.931-3.646-2.306-5.986-3.84a16.456,16.456,0,0,1-4.6-23.036c1.828-2.692,3.589-5.214,4.908-7,1.852-2.511,3.76-5,5.736-7.43l18.63,21.265c-1.431,1.455-2.852,2.931-4.294,4.431C-151.907,233.1-145.466,238.113-138.934,243.032Z" transform="translate(185.885 -202.308)" fill="#ebaf7f"/>
              </g>
              <g id="Grupo_130721" data-name="Grupo 130721" transform="translate(114.97 61.466)">
                <path id="Trazado_137979" data-name="Trazado 137979" d="M-42.61,240.009c-2.34,1.533-4.487,2.908-5.986,3.84-10.189,6.3-20.5,12.075-31.078,17.607a14.976,14.976,0,0,0-2.521-4.533l.533-13.983c6.384-4.816,12.666-9.712,18.674-14.7-2.17-2.25-4.317-4.453-6.463-6.634l18.811-21.492c2.681,3.2,5.248,6.509,7.724,9.861,1.318,1.783,3.079,4.3,4.908,7A16.455,16.455,0,0,1-42.61,240.009Z" transform="translate(82.196 -200.116)" fill="#ebaf7f"/>
              </g>
              <g id="Grupo_130728" data-name="Grupo 130728" transform="translate(11.976)">
                <g id="Grupo_130722" data-name="Grupo 130722" transform="translate(60.292)">
                  <rect id="Rectángulo_41146-2" data-name="Rectángulo 41146" width="19.434" height="37.279" fill="#ebaf7f"/>
                  <path id="Trazado_137980" data-name="Trazado 137980" d="M-101.273,157.551v3.24a14.014,14.014,0,0,1-8.85,3.013h-1.733a14.014,14.014,0,0,1-8.85-3.013V157.56a13.966,13.966,0,0,0,8.85,3h1.733A13.945,13.945,0,0,0-101.273,157.551Z" transform="translate(120.709 -143.281)" fill="#e48855"/>
                </g>
                <g id="Grupo_130727" data-name="Grupo 130727" transform="translate(0 21.346)">
                  <path id="Trazado_137981" data-name="Trazado 137981" d="M-40.923,201.895l-.784.908-18.867,21.639-.523.591-1.943-1.977-7.451-7.6-1.2,31.419-.533,13.983a14.976,14.976,0,0,1,2.521,4.533,14.2,14.2,0,0,1,.6,7.122h-72.006a10.71,10.71,0,0,1-.318-6.474,12.376,12.376,0,0,1,1.182-3.089V214.423l-11.473,10.621-2.613,2.419-.215-.249-18.323-21.765-.942-1.124s.8-.773,2.136-2.079c6.634-6.407,26.569-25.694,28.307-27.137,2.09-1.739,18.084-6.259,18.084-6.259l10.371-4.919v5.441l9.462,3.476,9.917-4.566v-4.351l10.087,4.737,12.177,4.009c4.362,2.613,24.1,21.333,30.409,27.354C-41.639,201.2-40.923,201.895-40.923,201.895Z" transform="translate(175.223 -163.932)" fill="#5038a1"/>
                  <g id="Grupo_130726" data-name="Grupo 130726">
                    <g id="Grupo_130723" data-name="Grupo 130723" transform="translate(59.704 8.915)">
                      <path id="Trazado_137982" data-name="Trazado 137982" d="M-111.92,171.972l-5.262,1.392,1.565,8h8l1.392-8.175Z" transform="translate(121.68 -171.972)" fill="#002447"/>
                      <path id="Trazado_137983" data-name="Trazado 137983" d="M-115.175,180.444s-6.784,66.1-6,67.4,9.393,10.958,11.219,11.219,10.437-10.175,9.915-11.741-7.132-66.88-7.132-66.88Z" transform="translate(121.239 -171.051)" fill="#002447"/>
                    </g>
                    <g id="Grupo_130725" data-name="Grupo 130725">
                      <path id="Trazado_137984" data-name="Trazado 137984" d="M-110.3,172.847l-6.784,1.217-.869,4.349a42.755,42.755,0,0,1-11.306-10.088l9.5-4.393v5.436Z" transform="translate(180.07 -163.932)" fill="#002447"/>
                      <path id="Trazado_137985" data-name="Trazado 137985" d="M-112.436,172.847l6.784,1.217.869,4.349a46.4,46.4,0,0,0,11.448-10.371l-8.883-4.11v4.349Z" transform="translate(181.9 -163.932)" fill="#002447"/>
                      <path id="Trazado_137986" data-name="Trazado 137986" d="M-87.2,201.115a22.647,22.647,0,0,1-1.1-2.491c-.387-1.763,1.135-4.2,1.135-4.2L-89,192.464c-2.488,2.8-5.363-.266-5.363-.266s-2.875,3.068-5.363.266l-1.836,1.956s1.522,2.44,1.135,4.2a22.651,22.651,0,0,1-1.1,2.491,7.222,7.222,0,0,0-.315,3.092,4.536,4.536,0,0,0,1.428,2.9,7.413,7.413,0,0,0,3.462,1.283,6.16,6.16,0,0,1,1.344.511,3.971,3.971,0,0,1,.7.448,2.2,2.2,0,0,1,.532.539h.03a2.167,2.167,0,0,1,.529-.539,3.939,3.939,0,0,1,.7-.448,6.117,6.117,0,0,1,1.344-.511,7.413,7.413,0,0,0,3.461-1.283,4.536,4.536,0,0,0,1.428-2.9A7.222,7.222,0,0,0-87.2,201.115Z" transform="translate(183.048 -160.857)" fill="#fedc72"/>
                      <path id="Trazado_137987" data-name="Trazado 137987" d="M-136.154,172.739l-1.761-2.218s-8.589,1.522-9.241,2.305-9.089,10.784-9.089,10.784l2.174,2.131Z" transform="translate(177.134 -163.215)" fill="#002447"/>
                      <path id="Trazado_137988" data-name="Trazado 137988" d="M-89.415,171.641l1.761-2.218s8.589,1.522,9.241,2.305,9.089,10.784,9.089,10.784l-2.174,2.131Z" transform="translate(184.405 -163.335)" fill="#002447"/>
                      <path id="Trazado_137989" data-name="Trazado 137989" d="M-150.742,222.284l-3.237,2.828-.954-1.09-18.629-21.265-1.522-1.738,3.249-2.84.3.341.75.852,18.879,21.571.329.375Z" transform="translate(175.085 -160.206)" fill="#002447"/>
                      <path id="Trazado_137990" data-name="Trazado 137990" d="M-49.832,198.662l-1.681,1.92-18.811,21.492-.6.693-3.249-2.84.3-.341.523-.591,19.027-21.719.625-.716.636-.727Z" transform="translate(186.063 -160.461)" fill="#002447"/>
                    </g>
                  </g>
                </g>
              </g>
            </g>
            <g id="Grupo_130739" data-name="Grupo 130739" transform="translate(55.032)">
              <g id="Grupo_130732" data-name="Grupo 130732" transform="translate(1.518 17.02)">
                <g id="Grupo_130730" data-name="Grupo 130730">
                  <path id="Trazado_137994" data-name="Trazado 137994" d="M-86.093,137.015c-2.2-.1-3.452.452-4.16,1.1.369-6.462-.069-12.278-.645-14.236-1.046-3.581-9.446-8.183-18.55-8.156-9.1-.027-17.5,4.575-18.559,8.156-.567,1.933-1,7.63-.652,14a6,6,0,0,0-3.865-.864c-4.905.214-1.689,16.865,5.288,11.627.047.2.092.4.141.6a24.614,24.614,0,0,0,3.275,7.984,19.423,19.423,0,0,0,6.3,5.955,13.317,13.317,0,0,0,7.208,1.93h1.733a13.72,13.72,0,0,0,8.137-2.508,20.012,20.012,0,0,0,5.369-5.378,24.528,24.528,0,0,0,3.293-8.084q.083-.344.161-.694C-84.479,154.259-81.132,137.231-86.093,137.015Z" transform="translate(134.884 -115.726)" fill="#ebaf7f"/>
                </g>
                <g id="Grupo_130731" data-name="Grupo 130731" transform="translate(1.364 7.367)">
                  <path id="Trazado_137995" data-name="Trazado 137995" d="M-124.391,130.939s-1.566,6.132-2.478,8.22l-1.924-2.077s-3.165-1.185-4.861-.533c0,0,2.816-7.777,3.73-9.343s4.49-5.007,5.664-3.964S-124.391,130.939-124.391,130.939Z" transform="translate(133.654 -122.296)" fill="#986e2e"/>
                  <path id="Trazado_137996" data-name="Trazado 137996" d="M-98.244,131.013s1.565,6.132,2.478,8.22l1.924-2.077s3.165-1.185,4.86-.533c0,0-3.023-7.777-3.936-9.343s-5.409-5.79-6.583-4.746S-98.244,131.013-98.244,131.013Z" transform="translate(137.335 -122.37)" fill="#986e2e"/>
                </g>
              </g>
              <g id="Grupo_130738" data-name="Grupo 130738">
                <g id="Grupo_130736" data-name="Grupo 130736">
                  <g id="Grupo_130734" data-name="Grupo 130734">
                    <g id="Grupo_130733" data-name="Grupo 130733">
                      <path id="Trazado_137997" data-name="Trazado 137997" d="M-92.89,106.877c-2.737.192-10.994.18-16.33-6.17a.937.937,0,0,0-1.428,0c-5.336,6.35-13.594,6.362-16.329,6.17a.952.952,0,0,0-1,.86c-.9,7.8-5.616,11.029-7.754,12.1a.946.946,0,0,0-.32,1.42l6.415,8.41,2.384-2.542,17.323-.775,18.6.775,2.384,2.542,5.289-8.432a.947.947,0,0,0-.374-1.353c-2.091-1.028-6.928-4.231-7.846-12.15A.952.952,0,0,0-92.89,106.877Z" transform="translate(136.253 -100.376)" fill="#002447"/>
                      <path id="Trazado_137998" data-name="Trazado 137998" d="M-128.714,124.505h35.919a23.086,23.086,0,0,1-18.791,9.536A20.854,20.854,0,0,1-128.714,124.505Z" transform="translate(137.073 -97.751)" fill="#002447"/>
                      <path id="Trazado_137999" data-name="Trazado 137999" d="M-128.015,125.649l-1.272-3.814a29.515,29.515,0,0,1,17.482-7.788c10.649-.8,19.549,6.993,19.549,6.993l.159,4.609Z" transform="translate(137.011 -98.895)" fill="#5038a1"/>
                    </g>
                    <path id="Trazado_138000" data-name="Trazado 138000" d="M-105.908,116.947a18.905,18.905,0,0,1-.913-2.071c-.322-1.465.944-3.493.944-3.493l-1.526-1.627c-2.068,2.33-4.457-.221-4.457-.221s-2.388,2.55-4.456.221l-1.526,1.627s1.264,2.028.944,3.493a19.12,19.12,0,0,1-.913,2.071,5.99,5.99,0,0,0-.263,2.569,3.776,3.776,0,0,0,1.188,2.407,6.186,6.186,0,0,0,2.876,1.067,5.038,5.038,0,0,1,1.117.425,3.2,3.2,0,0,1,.58.371,1.847,1.847,0,0,1,.442.448h.024a1.821,1.821,0,0,1,.44-.448,3.283,3.283,0,0,1,.58-.371,5.059,5.059,0,0,1,1.117-.425,6.19,6.19,0,0,0,2.877-1.067,3.77,3.77,0,0,0,1.186-2.407A5.989,5.989,0,0,0-105.908,116.947Z" transform="translate(138.227 -99.38)" fill="#fedc72"/>
                  </g>
                  <g id="Grupo_130735" data-name="Grupo 130735" transform="translate(2.714 19.573)">
                    <path id="Trazado_138001" data-name="Trazado 138001" d="M-133.805,118.542a14.393,14.393,0,0,1,3.177,2.85,14.189,14.189,0,0,1,2.313,3.587,14.191,14.191,0,0,1-3.177-2.851A14.334,14.334,0,0,1-133.805,118.542Z" transform="translate(133.805 -117.973)" fill="#004282"/>
                    <path id="Trazado_138002" data-name="Trazado 138002" d="M-95.047,125.224a15.979,15.979,0,0,1,2.194-3.934,15.794,15.794,0,0,1,3.107-3.261,15.774,15.774,0,0,1-2.193,3.934A16,16,0,0,1-95.047,125.224Z" transform="translate(138.022 -118.029)" fill="#004282"/>
                  </g>
                </g>
                <g id="Grupo_130737" data-name="Grupo 130737" transform="translate(9.383 35.073)">
                  <path id="Trazado_138003" data-name="Trazado 138003" d="M-96.662,132.521a12.584,12.584,0,0,0-4.951-.44h-17.046a12.587,12.587,0,0,0-4.952.44c-4.435,1.355-4.5,7.01-3.927,9.516a5.826,5.826,0,0,0,7.992,4.3c4.842-1.659,7.315-7.349,7.315-7.349a6.255,6.255,0,0,0,.314-2.466,7.941,7.941,0,0,1,3.569-.052,6.253,6.253,0,0,0,.307,2.518s2.472,5.69,7.315,7.349a5.826,5.826,0,0,0,7.992-4.3C-92.158,139.531-92.225,133.876-96.662,132.521Zm-10.871,1.964a3.312,3.312,0,0,0-.735,1.445,8.352,8.352,0,0,0-3.728.053,3.314,3.314,0,0,0-.744-1.5,7.572,7.572,0,0,0-3.3-1.862h11.812A7.584,7.584,0,0,0-107.532,134.485Z" transform="translate(127.791 -132.008)" fill="#002447"/>
                  <path id="Trazado_138004" data-name="Trazado 138004" d="M-127.266,137.838c-.16,0-.31-.012-.463-.023a12.253,12.253,0,0,0,.048,2.768h14.19a16.476,16.476,0,0,0,1.261-2.225s.072-.2.15-.519Z" transform="translate(127.791 -131.376)" fill="#002447" opacity="0.5" style="mix-blend-mode: screen;isolation: isolate"/>
                  <path id="Trazado_138005" data-name="Trazado 138005" d="M-110.113,137.836c.078.318.15.519.15.519a16.325,16.325,0,0,0,1.261,2.225h14.189a12.17,12.17,0,0,0,.05-2.744Z" transform="translate(129.714 -131.374)" fill="#002447" opacity="0.5" style="mix-blend-mode: screen;isolation: isolate"/>
                </g>
              </g>
            </g>
            <g id="Grupo_130749" data-name="Grupo 130749" transform="translate(1.296 151.157)">
              <g id="Grupo_130740" data-name="Grupo 130740" transform="translate(0 274.895)">
                <path id="Trazado_138006" data-name="Trazado 138006" d="M-140.559,508.8a13.677,13.677,0,0,0-.261-5.953c-.327-1.413-2.289-3.88-3.657-5.442.466-1.082,2.285-5.45,4.614-12.783h-19.525l-.876,12.614c-2.444,2.789-7.641,8.237-20.558,11.565Z" transform="translate(185.14 -484.624)" fill="#e48855"/>
                <path id="Trazado_138007" data-name="Trazado 138007" d="M-141.752,495.6s1.478,4.7,2,6.175.783,9.479.783,9.479h-12.437v-2l-1.74,1.74h-31.57s.783-2.609,2.347-2.87,15.569-6.175,15.569-6.175,2.174-6.958,3.13-7.132,9.132,4.435,9.915,5.044,4.7,3.218,6.523,2.435,2.871-6.61,3.131-6.61S-141.752,495.6-141.752,495.6Z" transform="translate(184.716 -483.515)" fill="#0d5ca9"/>
              </g>
              <g id="Grupo_130741" data-name="Grupo 130741" transform="translate(113.758 274.895)">
                <path id="Trazado_138008" data-name="Trazado 138008" d="M-80.341,502.849A13.655,13.655,0,0,0-80.6,508.8h40.261c-12.917-3.327-18.114-8.776-20.558-11.565l-.876-12.614H-81.3c2.328,7.334,4.148,11.7,4.614,12.783C-78.051,498.97-80.013,501.437-80.341,502.849Z" transform="translate(82.209 -484.624)" fill="#e48855"/>
                <path id="Trazado_138009" data-name="Trazado 138009" d="M-79.337,495.6s-1.479,4.7-2,6.175-.783,9.479-.783,9.479h12.436v-2l1.74,1.74h31.571s-.783-2.609-2.348-2.87-15.567-6.175-15.567-6.175-2.174-6.958-3.131-7.132-9.132,4.435-9.915,5.044-4.7,3.218-6.523,2.435-2.87-6.61-3.13-6.61S-79.337,495.6-79.337,495.6Z" transform="translate(82.12 -483.515)" fill="#0d5ca9"/>
              </g>
              <g id="Grupo_130748" data-name="Grupo 130748" transform="translate(21.133)">
                <g id="Grupo_130746" data-name="Grupo 130746" transform="translate(0 24.592)">
                  <path id="Trazado_138010" data-name="Trazado 138010" d="M-141.652,258.881l-24,261.957h25.048l34.962-211.34,32.875,210.3H-46.68L-71.206,259.4Z" transform="translate(165.656 -258.881)" fill="#261a4d"/>
                  <g id="Grupo_130744" data-name="Grupo 130744" transform="translate(24.874 3.827)">
                    <g id="Grupo_130743" data-name="Grupo 130743" transform="translate(0 0.696)">
                      <g id="Grupo_130742" data-name="Grupo 130742">
                        <rect id="Rectángulo_41147" data-name="Rectángulo 41147" width="25.222" height="5.914" transform="translate(23.134)" fill="#fff3ce"/>
                        <path id="Trazado_138011" data-name="Trazado 138011" d="M-90.2,268.874h9.915l-.783-5.914H-90.2Z" transform="translate(148.992 -262.96)" fill="#fff3ce"/>
                        <path id="Trazado_138012" data-name="Trazado 138012" d="M-130.525,262.96H-142.44l-.783,5.914h12.7Z" transform="translate(143.223 -262.96)" fill="#fff3ce"/>
                      </g>
                    </g>
                    <rect id="Rectángulo_41148" data-name="Rectángulo 41148" width="13.481" height="7.306" transform="translate(29.048)" fill="#fedc72"/>
                  </g>
                  <g id="Grupo_130745" data-name="Grupo 130745" transform="translate(3.699 10.805)">
                    <path id="Trazado_138013" data-name="Trazado 138013" d="M-83.948,269.65l3.4,30.879,3.282,30.891,6.379,61.8,6.118,61.826,2.966,30.922,2.847,30.935-3.4-30.879-3.282-30.891-6.377-61.8-6.116-61.826L-81.1,300.584Z" transform="translate(170.846 -268.514)" fill="#5038a1"/>
                    <path id="Trazado_138014" data-name="Trazado 138014" d="M-134.3,268.625l-3.228,31.245-3.345,31.232-6.873,62.443-7.135,62.414-3.66,31.2-3.779,31.183,3.226-31.245,3.344-31.232,6.875-62.443,7.137-62.414,3.66-31.2Z" transform="translate(162.32 -268.625)" fill="#5038a1"/>
                    <path id="Trazado_138015" data-name="Trazado 138015" d="M-112.067,269.991c.1,1.436.157,2.872.231,4.308s.1,2.871.149,4.307c.1,2.872.147,5.742.17,8.614l-.161-.388,3.324,3.3-.964.4c.016-3.361.033-6.72.141-10.081.086-3.361.2-6.72.424-10.081.224,3.361.337,6.72.424,10.081.108,3.361.125,6.72.141,10.081a.563.563,0,0,1-.561.565.573.573,0,0,1-.4-.166l-3.3-3.324,0,0a.543.543,0,0,1-.157-.384c.022-2.872.073-5.742.171-8.614.051-1.436.064-2.871.147-4.307S-112.171,271.427-112.067,269.991Z" transform="translate(167.727 -268.477)" fill="#5038a1"/>
                  </g>
                </g>
                <g id="Grupo_130747" data-name="Grupo 130747" transform="translate(3.721)">
                  <path id="Trazado_138016" data-name="Trazado 138016" d="M-136.852,236.7h-2.2a3.415,3.415,0,0,0-3.415,3.415v19.5h-16.524a3.3,3.3,0,0,0-3.305,3.3,3.305,3.305,0,0,0,3.305,3.305h16.524v59.6a3.415,3.415,0,0,0,3.415,3.415h2.2a3.415,3.415,0,0,0,3.415-3.415V240.117A3.415,3.415,0,0,0-136.852,236.7Z" transform="translate(162.3 -236.702)" fill="#7057c1"/>
                  <path id="Trazado_138017" data-name="Trazado 138017" d="M-142.47,266.226v4.406h9.033V240.117a3.415,3.415,0,0,0-3.415-3.415h-2.2a3.415,3.415,0,0,0-3.415,3.415v19.5h-16.524a3.3,3.3,0,0,0-3.305,3.3,3.305,3.305,0,0,0,3.305,3.305Z" transform="translate(162.3 -236.702)" fill="#332366"/>
                </g>
              </g>
            </g>
          </g>
          <g id="Grupo_130779" data-name="Grupo 130779">
            <g id="Grupo_130759" data-name="Grupo 130759" transform="translate(0 151.428)">
              <path id="Trazado_138018" data-name="Trazado 138018" d="M-237.923,495.945l.087,4.87a15.564,15.564,0,0,0-3.218,12.524h6.87v-3.566l3.392,3.393h33.485s.869-2.522-.174-3.566-13.307-4.61-13.307-4.61l-7.306-9.044Z" transform="translate(251.389 -208.766)" fill="#0d5ca9"/>
              <path id="Trazado_138019" data-name="Trazado 138019" d="M-177.213,495.945l.088,4.87a15.562,15.562,0,0,0-3.219,12.524h6.871v-3.566l3.392,3.393H-136.6s.87-2.522-.173-3.566-13.307-4.61-13.307-4.61l-7.306-9.044Z" transform="translate(257.994 -208.766)" fill="#0d5ca9"/>
              <g id="Grupo_130758" data-name="Grupo 130758">
                <g id="Grupo_130752" data-name="Grupo 130752" transform="translate(0 2.696)">
                  <path id="Trazado_138020" data-name="Trazado 138020" d="M-228.5,239.724s-19.482,27.483-21.568,50.791,6.261,104.714,7.3,115.5c0,0-5.913,39.659-3.826,54.618s8.7,63.663,8.7,63.663h21.916L-203.1,305.126l11.828,100.191s2.436,43.485,4.523,55.313,16.7,63.663,16.7,63.663h21.221L-162.48,302.376a127.761,127.761,0,0,0-5.7-30.673L-178.4,239.376Z" transform="translate(250.401 -239.376)" fill="#261a4d"/>
                  <g id="Grupo_130751" data-name="Grupo 130751" transform="translate(5.904 10.295)">
                    <path id="Trazado_138021" data-name="Trazado 138021" d="M-194.409,248.661q.364,5.076.579,10.149c.171,3.381.284,6.762.368,10.144a.511.511,0,0,1-.076.283l0,.006-2.909,4.743-2.979,4.7-2.984,4.7-3.054,4.655-.009.013a.354.354,0,0,1-.489.1.356.356,0,0,1-.16-.314c.085-1.609.165-3.217.286-4.824s.213-3.214.354-4.821c.047,1.612.053,3.223.07,4.834s.011,3.221,0,4.831l-.658-.2,2.839-4.788,2.909-4.745,2.913-4.742,2.984-4.7-.08.287c-.058-3.386-.085-6.773-.057-10.159Q-194.567,253.738-194.409,248.661Z" transform="translate(249.314 -248.661)" fill="#5038a1"/>
                    <path id="Trazado_138022" data-name="Trazado 138022" d="M-226.947,254.808a102.582,102.582,0,0,0-11.772,15.357,47.276,47.276,0,0,0-4.3,8.629c-.277.752-.472,1.53-.713,2.293s-.313,1.564-.477,2.343c-.14.784-.11,1.6-.176,2.393-.051.8-.09,1.6-.074,2.409,0,12.91.69,25.834,1.3,38.744s1.3,25.825,2.02,38.734l2.238,38.724a.518.518,0,0,1,0,.083q-1.365,14.56-2.63,29.129c-.414,4.857-.809,9.716-1.149,14.571-.065,1.214-.166,2.425-.13,3.606.077,1.183.217,2.4.342,3.609l.834,7.262,7.166,58.063-4.073-28.968q-2.017-14.488-3.873-29l-.9-7.263c-.135-1.215-.287-2.418-.379-3.667-.05-1.255.042-2.48.1-3.7.282-4.878.69-9.736,1.081-14.6q1.2-14.581,2.542-29.147v.083q-1.229-19.361-2.234-38.731-1.028-19.369-1.9-38.749c-.488-12.924-1.059-25.845-.944-38.8-.008-.808.039-1.622.1-2.436a23.554,23.554,0,0,1,.211-2.435c.181-.8.281-1.619.529-2.4s.47-1.565.763-2.324A47.661,47.661,0,0,1-238.986,270,102.75,102.75,0,0,1-226.947,254.808Z" transform="translate(245.077 -247.992)" fill="#5038a1"/>
                    <path id="Trazado_138023" data-name="Trazado 138023" d="M-207.341,299.116l4.152,24.7,4.058,24.717c2.727,16.474,5.3,32.974,7.95,49.461l.006.055,1.833,30.1c.325,5.015.666,10.029,1.054,15.038q.286,3.757.635,7.505c.119,1.249.237,2.5.4,3.734.069.623.149,1.241.262,1.834a15.977,15.977,0,0,0,.393,1.817l7.3,29.266,7.177,29.3-7.749-29.152-7.63-29.185a23.638,23.638,0,0,1-.705-3.755c-.166-1.255-.29-2.508-.415-3.762-.247-2.506-.463-5.013-.664-7.52-.407-5.014-.768-10.03-1.113-15.046-.687-10.034-1.329-20.068-1.866-30.11l.006.054c-2.552-16.5-5.189-32.991-7.668-49.506l-3.751-24.766Z" transform="translate(249.182 -243.172)" fill="#5038a1"/>
                    <path id="Trazado_138024" data-name="Trazado 138024" d="M-177.619,391.348a2.69,2.69,0,0,1,.444-1.731,2.657,2.657,0,0,1,1.4-1.113,2.648,2.648,0,0,1-.442,1.73A2.68,2.68,0,0,1-177.619,391.348Z" transform="translate(252.414 -233.447)" fill="#5038a1"/>
                    <path id="Trazado_138025" data-name="Trazado 138025" d="M-225.332,390.772a7.3,7.3,0,0,1,1.686-2.5,7.248,7.248,0,0,1,2.491-1.7,7.158,7.158,0,0,1-1.686,2.5A7.24,7.24,0,0,1-225.332,390.772Z" transform="translate(247.225 -233.657)" fill="#5038a1"/>
                  </g>
                </g>
                <g id="Grupo_130757" data-name="Grupo 130757" transform="translate(18.713)">
                  <g id="Grupo_130753" data-name="Grupo 130753" transform="translate(0.102 4.262)">
                    <path id="Trazado_138026" data-name="Trazado 138026" d="M-178.641,247.574h-54.792l1.826-5.61h51.139Z" transform="translate(233.433 -240.66)" fill="#fff3ce"/>
                    <rect id="Rectángulo_41149" data-name="Rectángulo 41149" width="17.09" height="7.566" transform="translate(33.919)" fill="#fedc72"/>
                  </g>
                  <g id="Grupo_130756" data-name="Grupo 130756">
                    <g id="Grupo_130754" data-name="Grupo 130754">
                      <rect id="Rectángulo_41150" data-name="Rectángulo 41150" width="17.97" height="16.546" transform="translate(1.424 2.849)" fill="#8c6df2"/>
                      <path id="Trazado_138027" data-name="Trazado 138027" d="M-214.239,242.971h1.1v-6.027h-20.381v7.341h16.874V240.56h2.411Z" transform="translate(233.524 -236.945)" fill="#5038a1"/>
                    </g>
                    <g id="Grupo_130755" data-name="Grupo 130755" transform="translate(16.33 0.783)">
                      <path id="Trazado_138029" data-name="Trazado 138029" d="M-218.164,240.062a7.029,7.029,0,0,1-.622-1.808.413.413,0,0,1,.309-.495l.039-.007.132-.018a10.77,10.77,0,0,1,2.556-.016l.115.012a.438.438,0,0,1,.387.481l-.007.039a6.976,6.976,0,0,1-.638,1.953,7.038,7.038,0,0,1-.354-2.022l.5.531a10.709,10.709,0,0,1-2.556-.014l.48-.519A6.987,6.987,0,0,1-218.164,240.062Z" transform="translate(218.797 -237.65)" fill="#a3caf0"/>
                    </g>
                  </g>
                </g>
              </g>
            </g>
            <g id="Grupo_130770" data-name="Grupo 130770" transform="translate(3.846 51.999)">
              <g id="Grupo_130765" data-name="Grupo 130765">
                <g id="Grupo_130760" data-name="Grupo 130760" transform="translate(10.807)">
                  <path id="Trazado_138030" data-name="Trazado 138030" d="M-173.784,183.808a11.147,11.147,0,0,0-8.267-7.285,101.105,101.105,0,0,0-13.176-1.832V147.272h-19.434v27.5a100.572,100.572,0,0,0-12.178,1.755,11.147,11.147,0,0,0-8.267,7.285c-5.208,15.229,1,30.881,1,30.881l9.047,31.553h41.222l9.047-31.553S-168.576,199.037-173.784,183.808Z" transform="translate(237.186 -147.272)" fill="#bf6741"/>
                  <path id="Trazado_138031" data-name="Trazado 138031" d="M-197.436,165.407v3.636a15.412,15.412,0,0,1-5.694-.884,20.016,20.016,0,0,1-7.515-4.854c-2.562-2.535-4.629-6.569-6.226-10.972v-2.6c1.543,4.006,3.483,7.624,5.847,9.96a20.024,20.024,0,0,0,7.515,4.854A15.069,15.069,0,0,0-197.436,165.407Z" transform="translate(239.396 -147.004)" fill="#b34a32"/>
                </g>
                <g id="Grupo_130764" data-name="Grupo 130764" transform="translate(0 26.721)">
                  <path id="Trazado_138032" data-name="Trazado 138032" d="M-168.171,177.549a9.755,9.755,0,0,0-2.848-1.826,29.06,29.06,0,0,0-4.186-1.712.084.084,0,0,1-.01-.031l-3.278-.459-3.047-.418L-194,171.371l-2.609,24.265-17.481-24.265a70.442,70.442,0,0,0-20.344,4.833,38.79,38.79,0,0,0-5.918,2.391c-4,2.261-7.3,26.785-6.441,32.521a106.385,106.385,0,0,0,2.261,10.781l.8-.125,8.926-1.355c2.363,14.044,4.806,28.185,4.806,28.185h52.183s2.223-11.855,4.31-24.786c.866-5.364,1.722-10.917,2.379-15.885l17.19-1.743,1.086-.115S-164.862,180.847-168.171,177.549Z" transform="translate(246.933 -171.371)" fill="#5038a1"/>
                  <g id="Grupo_130763" data-name="Grupo 130763" transform="translate(3.318)">
                    <path id="Trazado_138033" data-name="Trazado 138033" d="M-199,195.636l-9.132-5.218-7.653,4.348S-225.174,177.2-225,172.5l8.522-1.13Z" transform="translate(246.001 -171.371)" fill="#8c6df2"/>
                    <path id="Trazado_138034" data-name="Trazado 138034" d="M-201.548,195.636l4.262-6.088,3.653,4.175,3.327-21.156-8.632-1.2Z" transform="translate(248.553 -171.371)" fill="#8c6df2"/>
                    <g id="Grupo_130761" data-name="Grupo 130761" transform="translate(0 1.194)">
                      <path id="Trazado_138035" data-name="Trazado 138035" d="M-223.462,172.7s-16.7,3.653-18.786,6.088-1.826,16.264-1.392,16.785a10.285,10.285,0,0,0,2.262,2.088c.609.261,2.7-1.826,2.87-2.088s1.131-14.524,1.131-14.524Z" transform="translate(243.94 -172.42)" fill="#002447"/>
                      <path id="Trazado_138036" data-name="Trazado 138036" d="M-174.556,174.906c4.261,2.783,8.7,11.741,9.088,13.046s-1.043,2.87-1.043,2.87-5.48-10.734-7.7-13.39-17.22-4.984-17.22-4.984" transform="translate(249.653 -172.448)" fill="#002447"/>
                    </g>
                    <path id="Trazado_138037" data-name="Trazado 138037" d="M-182.572,203.042a17.528,17.528,0,0,1-.844-1.916c-.3-1.356.873-3.232.873-3.232l-1.412-1.5c-1.914,2.154-4.124-.205-4.124-.205s-2.21,2.36-4.124.205l-1.411,1.5s1.171,1.876.874,3.232a17.761,17.761,0,0,1-.845,1.916,5.538,5.538,0,0,0-.242,2.377,3.488,3.488,0,0,0,1.1,2.226,5.708,5.708,0,0,0,2.661.987,4.735,4.735,0,0,1,1.033.393,3.128,3.128,0,0,1,.537.344,1.69,1.69,0,0,1,.408.415h.023a1.687,1.687,0,0,1,.407-.415,3.126,3.126,0,0,1,.537-.344,4.735,4.735,0,0,1,1.033-.393,5.708,5.708,0,0,0,2.661-.987,3.488,3.488,0,0,0,1.1-2.226A5.538,5.538,0,0,0-182.572,203.042Z" transform="translate(249.389 -168.671)" fill="#fedc72"/>
                    <path id="Trazado_138038" data-name="Trazado 138038" d="M-208.422,206.42l-5.74,2.283-5.74-2.283v-2.87h11.48Z" transform="translate(246.556 -167.87)" fill="#002447"/>
                  </g>
                </g>
              </g>
              <g id="Grupo_130769" data-name="Grupo 130769" transform="translate(3.194 61.537)">
                <g id="Grupo_130767" data-name="Grupo 130767">
                  <path id="Trazado_138042" data-name="Trazado 138042" d="M-151.8,235.522c.285-.479.481-3.405.6-7.067a96.771,96.771,0,0,0-.051-16.307,4.112,4.112,0,0,0-.092-.67c-.05-.342-.1-.675-.163-.993a40.985,40.985,0,0,0-2.744-7.713l-17.19,1.743c-.2,1.5-.42,3.071-.651,4.661-3.41.164-7.077.921-8.83,2.284-2.667,2.066-29.532,7.554-29.588,7.565-.02-.019-8.292-7.337-10.439-7.91s-12.692-1.49-13-.917,1.023,2.866,2.15,2.982,5.425,1.261,5.425,1.261-5.979,1.6-8.248,2.485l-9.423,1.43a120.8,120.8,0,0,0,7.371,23.729c.8,2.215,1.42,3.691,1.7,3.771,1.227.341,22.1,1.033,30.193-2.863,2.619-1.261,7.345-4.547,12.565-8.423,7.652,1.287,24.561,4.09,27.294,4.179,3.55.114,12.289-1.948,13.113-3.21l.006,0Z" transform="translate(244.052 -202.771)" fill="#bf6741"/>
                  <g id="Grupo_130766" data-name="Grupo 130766" transform="translate(8.757 13.681)">
                    <path id="Trazado_138043" data-name="Trazado 138043" d="M-211.874,217.6c-1.321.713-2.671,1.355-4,2.036l-4.055,1.922c-2.705,1.274-5.443,2.476-8.187,3.661a.564.564,0,0,1-.36.029l-3.968-1.025-.013,0a.526.526,0,0,1-.377-.641.532.532,0,0,1,.054-.132l1.467-2.529.436.711c-.624,0-1.239-.017-1.859-.047a13.008,13.008,0,0,1-1.891-.2,1.171,1.171,0,0,1-.608-.278.936.936,0,0,1-.157-.661,6.1,6.1,0,0,1,.141-.954c.14-.611.312-1.2.5-1.792l.031.149c-.485-.691-.965-1.386-1.428-2.093.578.618,1.14,1.249,1.7,1.883a.151.151,0,0,1,.035.128l0,.021c-.115.6-.215,1.2-.281,1.8a6.467,6.467,0,0,0-.062.869c.062.367-.091.131.267.249a12.388,12.388,0,0,0,1.771.054c.6-.013,1.214-.043,1.813-.084a.471.471,0,0,1,.5.437.484.484,0,0,1-.053.252l-.012.022-1.373,2.582-.336-.776,3.983.962-.36.03c2.745-1.182,5.5-2.346,8.283-3.438l4.181-1.629C-214.693,218.607-213.3,218.066-211.874,217.6Z" transform="translate(236.154 -215.04)" fill="#b34a32"/>
                    <path id="Trazado_138044" data-name="Trazado 138044" d="M-225.657,215.11A17.917,17.917,0,0,1-230.04,217a17.709,17.709,0,0,1-4.7.8,17.7,17.7,0,0,1,4.382-1.893A17.911,17.911,0,0,1-225.657,215.11Z" transform="translate(236.307 -215.11)" fill="#b34a32"/>
                    <path id="Trazado_138045" data-name="Trazado 138045" d="M-231.416,220.923a10.293,10.293,0,0,1,2.946-2.071,10.18,10.18,0,0,1,3.444-1.052,10.171,10.171,0,0,1-2.945,2.072A10.275,10.275,0,0,1-231.416,220.923Z" transform="translate(236.67 -214.817)" fill="#b34a32"/>
                  </g>
                </g>
                <g id="Grupo_130768" data-name="Grupo 130768" transform="translate(9.551 5.725)">
                  <path id="Trazado_138046" data-name="Trazado 138046" d="M-196.968,233.151q2.824-2.543,5.739-4.971,2.9-2.453,5.853-4.827c1.977-1.576,3.954-3.15,5.958-4.694s4-3.086,6.05-4.576l.023-.017a.362.362,0,0,1,.193-.07c1.519-.089,3.037-.2,4.558-.271h.025a.236.236,0,0,1,.233.152c.538,1.407,1.1,2.8,1.611,4.222-.722-1.324-1.387-2.674-2.08-4.013l.258.151c-1.508.211-3.019.386-4.528.581l.215-.086c-1.93,1.633-3.9,3.219-5.877,4.8s-3.972,3.129-5.97,4.678-4.028,3.056-6.074,4.545Q-193.823,231.015-196.968,233.151Z" transform="translate(239.623 -207.304)" fill="#b34a32"/>
                  <path id="Trazado_138047" data-name="Trazado 138047" d="M-166.105,215.891c-.768-.092-1.517-.253-2.276-.377-.752-.15-1.5-.3-2.246-.481a.409.409,0,0,1-.315-.409v-.049c.031-1.162.062-2.335.069-3.481,0-.285-.006-.571-.026-.843-.006-.14-.022-.268-.038-.387.007-.1-.091-.256.028-.11,0,.029.053.055.022.038l-.175-.053c-.112-.039-.264-.067-.394-.1l-.839-.179-3.435-.7c-1.148-.247-2.294-.514-3.438-.825a43.03,43.03,0,0,1,7.064.459c.295.044.587.1.887.162.155.037.293.057.461.108l.246.071a1.4,1.4,0,0,1,.411.236,1.377,1.377,0,0,1,.284.723,4.376,4.376,0,0,1,.042.489c.014.314.012.615.007.916a29.942,29.942,0,0,1-.306,3.548l-.314-.458c.724.249,1.44.52,2.156.8C-167.521,215.291-166.8,215.557-166.105,215.891Z" transform="translate(241.56 -207.934)" fill="#b34a32"/>
                  <path id="Trazado_138048" data-name="Trazado 138048" d="M-235.438,234.119a5.391,5.391,0,0,1,2.09,1.009,5.314,5.314,0,0,1,1.536,1.739,3.834,3.834,0,0,1-2.222-.834A3.869,3.869,0,0,1-235.438,234.119Z" transform="translate(235.438 -205.085)" fill="#b34a32"/>
                </g>
                <path id="Trazado_138049" data-name="Trazado 138049" d="M-166.81,230.339a17.226,17.226,0,0,1,1.155-2.254,16.471,16.471,0,0,1,1.414-2.1,3.471,3.471,0,0,1-.436,2.678A3.491,3.491,0,0,1-166.81,230.339Z" transform="translate(252.456 -200.246)" fill="#b34a32"/>
              </g>
            </g>
            <g id="Grupo_130778" data-name="Grupo 130778" transform="translate(18.142)">
              <g id="Grupo_130773" data-name="Grupo 130773" transform="translate(0 14.904)">
                <g id="Grupo_130771" data-name="Grupo 130771" transform="translate(8.611 4.514)">
                  <path id="Trazado_138050" data-name="Trazado 138050" d="M-182.835,123.183c-1.741-3.436-11.125-6.531-20.354-4.8-9.24,1.669-16.89,7.911-17.3,11.745a41.056,41.056,0,0,0,.828,8.876,8.324,8.324,0,0,0-3.8-.573c-6.03.262-1.784,21.308,7.055,13.261,1.625,4.6,3.743,8.842,6.4,11.469a20.033,20.033,0,0,0,7.515,4.853,13.761,13.761,0,0,0,7.661.622l1.76-.324a14.405,14.405,0,0,0,8.255-4.547,21.1,21.1,0,0,0,3.971-5.981,25.277,25.277,0,0,0,1.822-8.714C-178.413,138.815-181.346,126.133-182.835,123.183Z" transform="translate(226.273 -117.888)" fill="#bf6741"/>
                </g>
                <g id="Grupo_130772" data-name="Grupo 130772">
                  <path id="Trazado_138051" data-name="Trazado 138051" d="M-170.366,144.889c.073-2.954-1.92-5.5-3.214-8.15-2.358-4.842-2.495-10.518-4.728-15.422A9.106,9.106,0,0,0-181,117.676a10.431,10.431,0,0,0-4.154-1.555c-4.06-.814-9.342-3.047-13.3-2.056-3.83.97-7.086,4.131-10.958,5.394-2.765.908-4.822,2.723-7.671,3.172-4.394.71-2.526,4.588-2.85,9.023-.24,3.14-7.441,6.461-9.257,9.028s-3.8,5.155-4.57,8.2.02,6.761,2.713,8.379c1.148.689,2.536.959,3.517,1.867,1.836,1.7,1.4,4.758,2.671,6.918,1.347,2.254,4.207,2.995,6.764,3.59a18.444,18.444,0,0,1,3.089.928V153.643c-.083-.208-.167-.428-.241-.646-.114-.282-.218-.574-.313-.856-8.839,8.045-13.087-13-7.055-13.262a9,9,0,0,1,3.269.379,25.089,25.089,0,0,0,7.154,7.158c-.869-1.652.174-4.609.174-4.609a32.089,32.089,0,0,0,4.957-8.869l1.826-4.695s20.114,3.48,25.755,4.614a72.192,72.192,0,0,1,1.3,16.655A25.282,25.282,0,0,1-180,158.234a21.01,21.01,0,0,1-3.965,5.979,14.405,14.405,0,0,1-8.256,4.539l-1.764.334a8.7,8.7,0,0,1-1.586.24v4.32a31.239,31.239,0,0,1,3.673-.376c1.753-.052,3.6.094,5.166-.689A17.5,17.5,0,0,0-183.8,170.3c1.785-1.429,3.976-2.222,5.96-3.36s3.872-2.806,4.32-5.049c.439-2.181-.594-4.414-.469-6.647C-173.768,151.556-170.461,148.572-170.366,144.889Z" transform="translate(234.039 -113.816)" fill="#261a4d"/>
                  <path id="Trazado_138052" data-name="Trazado 138052" d="M-220.876,130.648a56.406,56.406,0,0,1,6.323,1.609,51.721,51.721,0,0,0,5.464,1.347c.394-.923.609-1.525.609-1.525l1.826-4.695s20.114,3.48,25.754,4.614c.141.748.273,1.53.4,2.324a37.614,37.614,0,0,1,5.1.667,53.572,53.572,0,0,1-2.442-8.639c-3.678-.877-7.322-1.987-10.977-2.759-6.566-1.388-13.918-2.823-20.562-1.123a23.132,23.132,0,0,0-8.025,4.042,21.436,21.436,0,0,0-1.9,1.517c-1.383,1.29-1.352,2.459-1.658.895A6.229,6.229,0,0,1-220.876,130.648Z" transform="translate(235.46 -112.959)" fill="#4d2a40" opacity="0.5" style="mix-blend-mode: screen;isolation: isolate"/>
                </g>
              </g>
              <g id="Grupo_130777" data-name="Grupo 130777" transform="translate(6.623)">
                <g id="Grupo_130775" data-name="Grupo 130775">
                  <g id="Grupo_130774" data-name="Grupo 130774">
                    <path id="Trazado_138053" data-name="Trazado 138053" d="M-222.593,129.376l-4.983-2.671a.931.931,0,0,1-.062-1.6c2.824-1.835,9.08-6.47,9.407-11.676a.907.907,0,0,1,.823-.837c3.255-.339,15.291-2.213,19.042-11.627a.921.921,0,0,1,1.508-.318c2.677,2.687,10.15,9.364,17.265,8.2a.941.941,0,0,1,1.088.667,17.905,17.905,0,0,1-.256,10.351Z" transform="translate(228.065 -100.375)" fill="#002447"/>
                    <path id="Trazado_138054" data-name="Trazado 138054" d="M-215.624,128.078s26.933,2.422,31.754,1.663,11.832-.59,12.278-3.2-8.328-4.2-8.328-4.2l-23.351,1.312Z" transform="translate(229.419 -97.985)" fill="#002447"/>
                    <path id="Trazado_138055" data-name="Trazado 138055" d="M-223.584,127.335l2.392,3.62s34.479-7.332,42.2-7.988l-.256-5.015s-18.262-.685-28.594,2.575S-223.584,127.335-223.584,127.335Z" transform="translate(228.553 -98.469)" fill="#5038a1"/>
                  </g>
                  <path id="Trazado_138056" data-name="Trazado 138056" d="M-186.348,117.481a17.345,17.345,0,0,1-.989-1.832c-.4-1.319.61-3.272.61-3.272L-188.246,111c-1.725,2.287-4.1.124-4.1.124s-2,2.514-4.071.53l-1.28,1.6s1.308,1.766,1.122,3.133a17.621,17.621,0,0,1-.685,1.966,5.519,5.519,0,0,0-.052,2.375,3.477,3.477,0,0,0,1.265,2.12,5.693,5.693,0,0,0,2.715.767,4.663,4.663,0,0,1,1.056.307,3.037,3.037,0,0,1,.559.3,1.69,1.69,0,0,1,.438.378h.023a1.679,1.679,0,0,1,.37-.444,3.089,3.089,0,0,1,.5-.384,4.711,4.711,0,0,1,.993-.471,5.672,5.672,0,0,0,2.559-1.189,3.467,3.467,0,0,0,.911-2.294A5.524,5.524,0,0,0-186.348,117.481Z" transform="translate(231.369 -99.219)" fill="#fedc72"/>
                </g>
              </g>
            </g>
          </g>
        </g>
      </g>
    </g>
    <g id="Grupo_130837" data-name="Grupo 130837" transform="translate(2655.639 -12349)">
      <g id="Grupo_130719" data-name="Grupo 130719" transform="translate(0 0)" clip-path="url(#clip-path-2)">
        <g id="Grupo_130718" data-name="Grupo 130718" transform="translate(3.011 6.696)">
          <path id="Trazado_138125" data-name="Trazado 138125" d="M277.514,31.316A185.947,185.947,0,0,1,260.757,47a136.894,136.894,0,0,1-18.923,13.081,99.426,99.426,0,0,1-21.514,9.239,70.035,70.035,0,0,1-11.867,2.353c-1.023.089-2.046.2-3.083.234-.518.022-1.035.054-1.556.066l-1.567.007c-1.052.01-2.064-.034-3.1-.054-1.027-.063-2.063-.1-3.089-.205a86.424,86.424,0,0,1-23.67-5.914c-7.46-2.9-14.437-6.4-21.149-9.744-3.354-1.681-6.656-3.317-9.9-4.837-1.627-.769-3.235-1.488-4.837-2.193-.8-.337-1.6-.688-2.389-1.008l-2.456-1c-6.84-2.768-13.525-5.346-20.108-7.4C108.253,38.6,105,37.7,101.8,36.978c-1.6-.362-3.187-.681-4.754-.949S93.924,35.56,92.4,35.4a44.681,44.681,0,0,0-16.409.993,29.853,29.853,0,0,0-3.352,1.151c-.534.215-1.05.455-1.559.7l-.749.378c-.225.128-.451.246-.672.381A23.453,23.453,0,0,0,64.8,42.779c-.359.368-.711.742-1.044,1.133l-1.3,1.459c-.448.5-.85,1.028-1.278,1.531-.412.513-.788,1.041-1.186,1.55A39.245,39.245,0,0,0,56.2,54.8a35.159,35.159,0,0,0-2.369,6.524,35.529,35.529,0,0,0-1.063,6.769,50.913,50.913,0,0,0,1.3,14.525,76.209,76.209,0,0,0,5.376,15.3,82.083,82.083,0,0,0,3.948,7.438c.714,1.2,1.454,2.363,2.2,3.462.37.545.746,1.072,1.106,1.55.179.237.358.468.518.655a3.169,3.169,0,0,0,.221.244c.028.022.067.068.079.062l.013,0s.017.017,0-.027l-.078-.177a31.958,31.958,0,0,1-55.357,31.951l-.251-.481-.16-.329-.256-.55-.438-.987c-.276-.635-.523-1.233-.763-1.827-.479-1.184-.914-2.332-1.338-3.471-.836-2.273-1.593-4.516-2.293-6.764-1.4-4.492-2.563-9.009-3.548-13.6A133.118,133.118,0,0,1,0,86.6,100.755,100.755,0,0,1,4.463,56.733a88,88,0,0,1,5.966-14.4,81.841,81.841,0,0,1,8.443-12.984A84.415,84.415,0,0,1,29.219,18.442c.931-.794,1.853-1.6,2.8-2.365.951-.746,1.891-1.514,2.855-2.225L36.318,12.8c.493-.356.93-.68,1.521-1.088,1.111-.782,2.253-1.523,3.411-2.232A63.946,63.946,0,0,1,56.061,2.8c.647-.2,1.3-.38,1.956-.562.64-.165,1.272-.325,1.909-.476,1.274-.292,2.55-.559,3.828-.775A67.927,67.927,0,0,1,71.379.111,73.655,73.655,0,0,1,86,.77,88.827,88.827,0,0,1,99.348,3.776a135.455,135.455,0,0,1,23.227,9.757c7.139,3.741,13.793,7.814,20.2,11.851l2.5,1.582c.857.543,1.684,1.1,2.523,1.649,1.649,1.111,3.279,2.227,4.857,3.354,3.174,2.25,6.214,4.518,9.213,6.721,5.99,4.414,11.765,8.658,17.719,12.247a70.719,70.719,0,0,0,18.552,8.2c.807.223,1.623.391,2.439.586l1.231.238.617.12c.2.036.406.056.61.085l1.222.164c.409.047.823.075,1.236.115.824.092,1.662.108,2.5.153.839.027,1.685.024,2.533.022.849-.04,1.7-.031,2.556-.108l1.285-.09c.429-.033.857-.088,1.287-.132.859-.084,1.717-.214,2.577-.344.862-.112,1.717-.3,2.579-.448.859-.165,1.715-.365,2.575-.549.85-.226,1.707-.436,2.557-.675.846-.257,1.7-.482,2.544-.763,1.693-.534,3.368-1.14,5.025-1.807.83-.33,1.66-.663,2.477-1.029l1.231-.539,1.214-.579a90.865,90.865,0,0,0,18.246-11.568,89.154,89.154,0,0,0,15.086-15.56,3.782,3.782,0,1,1,5.776,4.865Z" transform="translate(263.746 297.932) rotate(-163)" fill="#fdb74d"/>
        </g>
      </g>
    </g>
  </g>
</svg>
