<svg xmlns="http://www.w3.org/2000/svg" xmlns:xlink="http://www.w3.org/1999/xlink" width="315" height="356.173" viewBox="0 0 315 356.173">
  <defs>
    <clipPath id="clip-path">
      <rect id="Rectángulo_41146" data-name="Rectángulo 41146" width="306" height="243" transform="translate(-0.05 0)" fill="none"/>
    </clipPath>
  </defs>
  <g id="Grupo_131958" data-name="Grupo 131958" transform="translate(-1058 10591)">
    <g id="Image_Place_Holder" data-name="Image Place Holder" transform="translate(1083.544 -10591.477)" opacity="0.957">
      <rect id="Image_Place_Holder-2" data-name="Image Place Holder" width="266" height="323" rx="10" transform="translate(0.456 0.477)" fill="#fff3ce"/>
    </g>
    <g id="Grupo_131949" data-name="Grupo 131949" transform="translate(-47 -11076)">
      <g id="Image_Place_Holder-3" data-name="Image Place Holder" transform="translate(1116.119 561)" opacity="0.1">
        <rect id="Image_Place_Holder-4" data-name="Image Place Holder" width="303.554" height="205.482" rx="10" transform="translate(0 0)" fill="#fdb74d"/>
      </g>
      <path id="Trazado_138127" data-name="Trazado 138127" d="M296.928,33.506A198.952,198.952,0,0,1,279,50.292a146.47,146.47,0,0,1-20.247,14,106.381,106.381,0,0,1-23.02,9.886,74.933,74.933,0,0,1-12.7,2.517c-1.095.095-2.189.216-3.3.25-.554.024-1.107.058-1.664.071l-1.676.007c-1.125.011-2.209-.037-3.321-.057-1.1-.067-2.208-.112-3.3-.22a92.471,92.471,0,0,1-25.326-6.328c-7.982-3.1-15.447-6.843-22.628-10.426-3.588-1.8-7.121-3.549-10.6-5.175-1.74-.822-3.462-1.592-5.175-2.346-.854-.361-1.708-.736-2.556-1.078l-2.628-1.067c-7.319-2.962-14.471-5.72-21.514-7.919-3.518-1.1-7-2.064-10.428-2.837-1.712-.387-3.409-.729-5.086-1.016s-3.335-.5-4.964-.668A47.807,47.807,0,0,0,81.31,38.943a31.942,31.942,0,0,0-3.587,1.231c-.571.23-1.124.487-1.668.745l-.8.4c-.241.137-.483.263-.719.408a25.093,25.093,0,0,0-5.2,4.04c-.384.394-.761.794-1.118,1.213l-1.388,1.561c-.48.538-.909,1.1-1.367,1.638-.441.549-.843,1.113-1.269,1.658a41.99,41.99,0,0,0-4.057,6.794,37.619,37.619,0,0,0-2.534,6.98,38.014,38.014,0,0,0-1.138,7.242A54.474,54.474,0,0,0,57.849,88.4,81.54,81.54,0,0,0,63.6,104.773a87.826,87.826,0,0,0,4.224,7.958c.764,1.279,1.556,2.528,2.349,3.7.4.583.8,1.147,1.184,1.658.192.254.383.5.554.7a3.4,3.4,0,0,0,.236.262c.03.024.072.073.085.066l.014,0s.018.018,0-.029l-.084-.189a34.194,34.194,0,1,1-59.23,34.186l-.268-.515-.171-.352-.274-.589-.468-1.056c-.3-.68-.559-1.319-.816-1.954-.512-1.267-.978-2.5-1.432-3.714-.894-2.432-1.7-4.831-2.454-7.237-1.5-4.806-2.742-9.639-3.8-14.547A142.431,142.431,0,0,1,0,92.655,107.8,107.8,0,0,1,4.775,60.7a94.161,94.161,0,0,1,6.384-15.408A87.566,87.566,0,0,1,20.192,31.4a90.32,90.32,0,0,1,11.071-11.67c1-.849,1.983-1.714,2.992-2.53,1.018-.8,2.023-1.62,3.054-2.38l1.549-1.13c.527-.381,1-.727,1.627-1.165,1.189-.837,2.41-1.629,3.65-2.388A68.42,68.42,0,0,1,59.983,2.993c.693-.216,1.395-.407,2.093-.6.685-.177,1.361-.348,2.042-.51,1.363-.313,2.728-.6,4.1-.829A72.679,72.679,0,0,1,76.373.119,78.807,78.807,0,0,1,92.018.824,95.041,95.041,0,0,1,106.3,4.041,144.931,144.931,0,0,1,131.15,14.48c7.639,4,14.758,8.361,21.609,12.68l2.672,1.693c.917.581,1.8,1.176,2.7,1.764,1.765,1.188,3.509,2.383,5.2,3.589,3.4,2.407,6.649,4.834,9.857,7.191,6.409,4.722,12.588,9.263,18.958,13.1a75.667,75.667,0,0,0,19.85,8.775c.864.238,1.736.418,2.609.627l1.317.255.66.129c.219.039.435.06.653.091l1.307.176c.438.051.881.081,1.322.123.882.1,1.778.115,2.674.164.9.029,1.8.026,2.71.023.909-.042,1.82-.033,2.735-.116l1.374-.1c.459-.035.917-.094,1.377-.141.919-.09,1.837-.229,2.757-.368.923-.12,1.837-.321,2.759-.479.919-.176,1.835-.39,2.755-.587.91-.242,1.826-.466,2.736-.722.9-.275,1.821-.516,2.722-.817,1.812-.571,3.6-1.22,5.376-1.933.888-.353,1.776-.71,2.65-1.1l1.317-.577,1.3-.62A97.221,97.221,0,0,0,274.627,44.93a95.39,95.39,0,0,0,16.141-16.649,4.046,4.046,0,1,1,6.18,5.205Z" transform="translate(1242.694 500) rotate(54)" fill="#fdb74d"/>
      <g id="Grupo_130838" data-name="Grupo 130838" transform="translate(1114.05 524)">
        <g id="Grupo_130781" data-name="Grupo 130781" transform="translate(0 0)" clip-path="url(#clip-path)">
          <g id="Grupo_130952" data-name="Grupo 130952" transform="translate(-590.139 -761.712)">
            <g id="Grupo_130925" data-name="Grupo 130925" transform="translate(740.491 781.252)">
              <g id="Grupo_130900" data-name="Grupo 130900" transform="translate(1.684 183.771)">
                <path id="Trazado_138272" data-name="Trazado 138272" d="M848.957,1146.046s-3.758,13.2-2.869,16.5,4.848,9.458,6.608,9.239,0-21.117,0-21.117Z" transform="translate(-845.953 -1146.046)" fill="#ffb27d"/>
              </g>
              <g id="Grupo_130901" data-name="Grupo 130901">
                <path id="Trazado_138273" data-name="Trazado 138273" d="M899.032,790.919c-7.074-3.671-12.744-1.364-12.744-1.364-21.648-2.542-27.964,22.7-27.67,31.392s1.285,18.017-8.383,29.3c-27.927,32.6,30.56,34.037,30.56,34.037.495-26.046,31.717-16.542,30.348-13.9C951.166,879.99,915.122,799.267,899.032,790.919Z" transform="translate(-842.679 -788.84)" fill="#12263f"/>
              </g>
              <g id="Grupo_130902" data-name="Grupo 130902" transform="translate(1.821 62.098)">
                <path id="Trazado_138274" data-name="Trazado 138274" d="M846.229,1035.178s.33,1.584,3.616,2.382a22.61,22.61,0,0,0,6.7.369c.646-.046,1.34-.105,2.072-.191,1.393-.152,2.937-.383,4.652-.705l-1.207-71.608,5.042-55.881s-10.764,5.088-16.043,21.585c-4.052,12.67-4.732,67.239-4.831,91.886C846.2,1030.466,846.229,1035.178,846.229,1035.178Z" transform="translate(-846.219 -909.544)" fill="#d7ccfb"/>
              </g>
              <g id="Grupo_130903" data-name="Grupo 130903" transform="translate(1.821 137.136)" opacity="0.3">
                <path id="Trazado_138275" data-name="Trazado 138275" d="M846.229,1106s.33,1.583,3.616,2.382a22.61,22.61,0,0,0,6.7.369l-.97-53.348s-.8,29.129-9.344,38.433C846.2,1101.284,846.229,1106,846.229,1106Z" transform="translate(-846.219 -1055.4)" fill="#8c9df4"/>
              </g>
              <g id="Grupo_130904" data-name="Grupo 130904" transform="translate(84.291 336.337)">
                <path id="Trazado_138276" data-name="Trazado 138276" d="M1030.264,1445.432s6.554,5.981,5.275,10.231-7.193,7.083-7.992,12.277-4,8.027-6.873,8.027h-13.717s-2.118-3.655,3-4.757,7.044-7.206,6.724-12.871a99.925,99.925,0,0,1,.479-13.221l10.87-2.518Z" transform="translate(-1006.521 -1442.599)" fill="#23417c"/>
              </g>
              <g id="Grupo_130905" data-name="Grupo 130905" transform="translate(15.221 341.71)">
                <path id="Trazado_138277" data-name="Trazado 138277" d="M909.608,1453.041s2.358,25.338-.519,26.754l-36.823-.076s0-4.25,5.914-5.194,16.3-4.408,18.063-12.12S909.608,1453.041,909.608,1453.041Z" transform="translate(-872.266 -1453.041)" fill="#23417c"/>
              </g>
              <g id="Grupo_130906" data-name="Grupo 130906" transform="translate(11.182 133.773)">
                <path id="Trazado_138278" data-name="Trazado 138278" d="M875.728,1048.863s-10.617,33.044-11.3,44.294,20.293,159.822,21.137,165.005c.8,4.886,6.864,8,6.864,8a9.184,9.184,0,0,0,6.773.522c5.526-1.56,7.273-3.429,7.273-3.429s8.263-105.96,3.15-143.811a599.474,599.474,0,0,1-5.174-70.583Z" transform="translate(-864.414 -1048.863)" fill="#261a4d"/>
              </g>
              <g id="Grupo_130907" data-name="Grupo 130907" transform="translate(26.022 132.788)">
                <path id="Trazado_138279" data-name="Trazado 138279" d="M934.712,1046.947s16.194,21.729,17.7,36.416,2.368,66.281,5.585,80.6,15.033,41.874,15.033,86.534a8.91,8.91,0,0,1-5.021,3.924,41.471,41.471,0,0,1-4.415,1.22,6.942,6.942,0,0,1-7.764-3.686c-7.989-16.085-33.438-67.966-34.742-78.735-.924-7.622-6.345-53.368-23.872-82.965-4.208-7.106-3.955-38.079-3.955-38.079Z" transform="translate(-893.26 -1046.947)" fill="#5038a1"/>
              </g>
              <g id="Grupo_130908" data-name="Grupo 130908" transform="translate(12.52 58.006)">
                <path id="Trazado_138280" data-name="Trazado 138280" d="M935.383,933.819a146.472,146.472,0,0,1,0,17.02c-.365,6.154-6.589,14.4-7.472,16.436-2.216,5.113-4.716,5.945-4.716,5.945l-19.334,4.739-1.62,10.351s-16.222,6.929-27.476-3.8c-9.793-9.334-8.9-38.545-4.983-53.887a117.916,117.916,0,0,1,9.911-26s14.533-5.735,40.269-1.452Z" transform="translate(-867.015 -901.589)" fill="#eee9fd"/>
              </g>
              <g id="Grupo_130909" data-name="Grupo 130909" transform="translate(41.644 58.006)">
                <path id="Trazado_138281" data-name="Trazado 138281" d="M940.49,901.589a111.35,111.35,0,0,1,13.076,3l3.646,44.566H923.625l12.62-33.106Z" transform="translate(-923.625 -901.589)" fill="#d7ccfb"/>
              </g>
              <g id="Grupo_130910" data-name="Grupo 130910" transform="translate(41.644 96.705)">
                <path id="Trazado_138282" data-name="Trazado 138282" d="M923.625,985.677l3.686,137.31s18.4,8.738,53.552,0L971.8,976.811Z" transform="translate(-923.625 -976.811)" fill="#d7ccfb"/>
              </g>
              <g id="Grupo_130911" data-name="Grupo 130911" transform="translate(34.689 93.5)">
                <path id="Trazado_138283" data-name="Trazado 138283" d="M973.813,1014.563,948.961,1036.2a4.311,4.311,0,0,1-6.083-.421l-31.712-36.418a4.312,4.312,0,0,1,.42-6.083l24.853-21.64a4.311,4.311,0,0,1,6.083.42l31.712,36.418A4.311,4.311,0,0,1,973.813,1014.563Z" transform="translate(-910.106 -970.582)" fill="#ca923d"/>
              </g>
              <g id="Grupo_130912" data-name="Grupo 130912" transform="translate(48.425 134.75)">
                <path id="Trazado_138284" data-name="Trazado 138284" d="M950.008,1050.761c-.353.094-13.2,1.6-13.2,4.258,0,3.07,3.766,7.182,7.316,6.989,1.438-.078,8.067-6.174,8.067-6.174Z" transform="translate(-936.805 -1050.761)" fill="#ffb27d"/>
              </g>
              <g id="Grupo_130913" data-name="Grupo 130913" transform="translate(35.245 42.56)">
                <path id="Trazado_138285" data-name="Trazado 138285" d="M930.973,887.194c-1.462-3.546-2.315-8.945-2.291-15.628l-.971.191-16.32,3.232s.371,5.136.382,9.974c0,.04,0,.081,0,.121.02,4.2-2.839,8.419,3.9,10.085C917.758,895.685,934.043,894.64,930.973,887.194Z" transform="translate(-911.188 -871.566)" fill="#ffb27d"/>
              </g>
              <g id="Grupo_130914" data-name="Grupo 130914" transform="translate(35.448 42.751)">
                <path id="Trazado_138286" data-name="Trazado 138286" d="M911.582,875.17s.371,5.136.382,9.974c9.133-.258,13.961-8.589,15.938-13.206Z" transform="translate(-911.582 -871.938)" fill="#e8945b"/>
              </g>
              <g id="Grupo_130915" data-name="Grupo 130915" transform="translate(25.201 14.104)">
                <path id="Trazado_138287" data-name="Trazado 138287" d="M898.861,852.715s21.608.357,21.623-13.1,2.814-22.478-10.982-23.275-16.482,4.336-17.579,8.828S893.241,852.275,898.861,852.715Z" transform="translate(-891.665 -816.254)" fill="#ffb27d"/>
              </g>
              <g id="Grupo_130916" data-name="Grupo 130916" transform="translate(33.198 11.12)">
                <path id="Trazado_138288" data-name="Trazado 138288" d="M907.209,813.19s5.916,15.792,14.995,18.127,13.019-.1,13.019-.1a25.716,25.716,0,0,1-8.41-15.19S911.671,805.675,907.209,813.19Z" transform="translate(-907.209 -810.455)" fill="#12263f"/>
              </g>
              <g id="Grupo_130917" data-name="Grupo 130917" transform="translate(23.723 12.563)">
                <path id="Trazado_138289" data-name="Trazado 138289" d="M899.732,815.835s-4.387,1.64-6.193,4.839a21.766,21.766,0,0,0-2.922,12.357s-4.457-10.733.553-16.8C896.482,809.788,899.732,815.835,899.732,815.835Z" transform="translate(-888.791 -813.259)" fill="#12263f"/>
              </g>
              <g id="Grupo_130918" data-name="Grupo 130918" transform="translate(52.911 133.996)">
                <path id="Trazado_138290" data-name="Trazado 138290" d="M954.242,1050.05a14.688,14.688,0,0,0-5.137-.7c-2.058.288-3.58-.041-3.58.535s2.657.846,3.221,1.123S954.242,1050.05,954.242,1050.05Z" transform="translate(-945.525 -1049.296)" fill="#ffb27d"/>
              </g>
              <g id="Grupo_130919" data-name="Grupo 130919" transform="translate(58.508 59.594)">
                <path id="Trazado_138291" data-name="Trazado 138291" d="M963.366,904.676s15.339,1.076,21.219,15.369,17.036,38.291,17.036,42.328-6.232,16.482-39.7,23.638c0,0-3.462-3.642-3.252-6.521,0,0,20.891-17.944,20.835-20.042-.106-3.966-3.425-9.2-21.767-27.551C952.752,926.91,963.366,904.676,963.366,904.676Z" transform="translate(-956.406 -904.676)" fill="#d7ccfb"/>
              </g>
              <g id="Grupo_130920" data-name="Grupo 130920" transform="translate(41.644 54.417)">
                <path id="Trazado_138292" data-name="Trazado 138292" d="M931.214,922.231s5.758-15.759,4.633-27.617c0,0,4.493,1.132,6.818,4.476,0,0,1.053,18.136-2.247,26.55,0,0-4.915.22-5.987-.358,0,0,2.144,3.63,1.814,4.042s-12.62,16.443-12.62,16.443Z" transform="translate(-923.625 -894.614)" fill="#8c6df2"/>
              </g>
              <g id="Grupo_130921" data-name="Grupo 130921" transform="translate(6.668 58.717)">
                <path id="Trazado_138293" data-name="Trazado 138293" d="M872.8,942.787l-3.629,141.221s-8.58.33-13.529-4.95l4.513-153.015s4.723-18.413,14.018-20.742l9.294-2.329Z" transform="translate(-855.641 -902.972)" fill="#d7ccfb"/>
              </g>
              <g id="Grupo_130922" data-name="Grupo 130922" transform="translate(21.516 55.958)">
                <path id="Trazado_138294" data-name="Trazado 138294" d="M898.816,897.608a49.01,49.01,0,0,1-.569,6.117c-1.524,10.633-12.849,31.953-11.564,41.469,0,0-1.192-16.559-1.192-20.079l3.3-2.309-4.289-1.76S892.508,901.063,898.816,897.608Z" transform="translate(-884.502 -897.608)" fill="#8c6df2"/>
              </g>
              <g id="Grupo_130923" data-name="Grupo 130923" transform="translate(52.834 186.134)">
                <rect id="Rectángulo_41162" data-name="Rectángulo 41162" width="32.067" height="3.272" transform="translate(32.22 3.263) rotate(175.85)" fill="#8c6df2"/>
              </g>
              <g id="Grupo_130924" data-name="Grupo 130924" transform="translate(53.071 189.397)" opacity="0.3">
                <path id="Trazado_138295" data-name="Trazado 138295" d="M977.82,1156.982s2.33,19.835,0,21.65-26.675,4.124-28.939,2.309-3.045-21.639-3.045-21.639Z" transform="translate(-945.837 -1156.982)" fill="#8c9df4"/>
              </g>
            </g>
            <g id="Grupo_130951" data-name="Grupo 130951" transform="translate(632.214 773.212)">
              <g id="Grupo_130949" data-name="Grupo 130949">
                <g id="Grupo_130926" data-name="Grupo 130926" transform="translate(35.501 363.373)">
                  <path id="Trazado_138296" data-name="Trazado 138296" d="M701.22,1492.26h20.8a50.179,50.179,0,0,0-1.659-7.465,21.252,21.252,0,0,0-1.178-3c-2.023-4.037-14.871-1.469-14.871-1.469s-1.193,1.022-2.125,4.928A41.32,41.32,0,0,0,701.22,1492.26Z" transform="translate(-701.22 -1479.523)" fill="#233862"/>
                </g>
                <g id="Grupo_130927" data-name="Grupo 130927" transform="translate(71.354 57.095)">
                  <path id="Trazado_138297" data-name="Trazado 138297" d="M773.237,884.191s16.574,2.91,20.321,12.692,24.915,167.8,24.915,167.8-10.482,8.306-32.982,5.324S773.237,884.191,773.237,884.191Z" transform="translate(-770.909 -884.191)" fill="#c2b9de"/>
                </g>
                <g id="Grupo_130928" data-name="Grupo 130928" transform="translate(98.342 355.56)">
                  <path id="Trazado_138298" data-name="Trazado 138298" d="M823.378,1478.972c.057,2.83.412,5.508,1.439,6.565h41.139c-.523-1.489-2-3.727-6.227-4.413-4.8-.777-12.28-3.087-16.648-7.7a12.391,12.391,0,0,1-3.223-5.838c-1.936-8.617-16,2.64-16,2.64A69.7,69.7,0,0,0,823.378,1478.972Z" transform="translate(-823.368 -1464.335)" fill="#233862"/>
                </g>
                <g id="Grupo_130929" data-name="Grupo 130929" transform="translate(50.307 170.142)">
                  <path id="Trazado_138299" data-name="Trazado 138299" d="M795.76,1297.821c-4.6,1.467-13.383,5.944-18.966,3.838-3.607-1.359-23.771-59.687-25.079-85.2a65.34,65.34,0,0,0-1.032-7.6c-1.195-6.584-3.283-15.632-5.69-25.616-6.452-26.751-15.18-60.217-14.991-70.914.292-16.6,49.476-3.48,49.476-3.48a177.609,177.609,0,0,1,4.057,33.336c1.336,39.138,5.008,105.247,15,151.157A3.942,3.942,0,0,1,795.76,1297.821Z" transform="translate(-729.999 -1103.927)" fill="#261a4d"/>
                </g>
                <g id="Grupo_130930" data-name="Grupo 130930" transform="translate(26.76 172.608)">
                  <path id="Trazado_138300" data-name="Trazado 138300" d="M739.4,1114.715l-26,188.444s-11.419,2.754-20.3.55c0,0-7.612-100.223-6.978-124.453s-5.463-64.834,1.392-69.312S739.4,1114.715,739.4,1114.715Z" transform="translate(-684.229 -1108.721)" fill="#6bb7bf"/>
                </g>
                <g id="Grupo_130931" data-name="Grupo 130931" transform="translate(26.759 54.522)">
                  <path id="Trazado_138301" data-name="Trazado 138301" d="M684.228,890.4s27.325-17.669,46.923-8.633c3.123,1.439,6.686,5.458,9.236,8.268,7.084,7.806,20.926,131.808,20.926,131.808s-39.294,13.308-77.085-4.517Z" transform="translate(-684.228 -879.19)" fill="#fff"/>
                </g>
                <g id="Grupo_130932" data-name="Grupo 130932" transform="translate(75.237 56.647)">
                  <path id="Trazado_138302" data-name="Trazado 138302" d="M778.457,883.32s27.662,11.336,31.408,20.047,15.923,62.2,15.923,68.473-21.2,1.4-24.615-8.714c-2.835-8.4-12.395-34.208-17.435-50.53Z" transform="translate(-778.457 -883.32)" fill="#c2b9de"/>
                </g>
                <g id="Grupo_130937" data-name="Grupo 130937" transform="translate(36.017)">
                  <g id="Grupo_130933" data-name="Grupo 130933" transform="translate(12.071 40.571)">
                    <path id="Trazado_138303" data-name="Trazado 138303" d="M747.09,876.786a31.123,31.123,0,0,1-21.4-4.359,61.572,61.572,0,0,0,4.563-16.112c.025-.19.043-.374.062-.552a16.459,16.459,0,0,0,.075-3.691H746s4.269,1.952,4.269,3.3q0,1.083.018,2.071c.031,1.8.1,3.362.2,4.708a42.833,42.833,0,0,0,.8,6.445S753.187,875.59,747.09,876.786Z" transform="translate(-725.685 -852.072)" fill="#ffb27d"/>
                  </g>
                  <g id="Grupo_130934" data-name="Grupo 130934" transform="translate(16.303 43.449)">
                    <path id="Trazado_138304" data-name="Trazado 138304" d="M754.474,864.868c-11.828,2.285-18.694-4.177-20.233-5.836-.219-.237-.331-.378-.331-.378.125-.062.256-.119.394-.174,4.4-1.783,14.394-.366,19.974,1.68C754.309,861.955,754.38,863.522,754.474,864.868Z" transform="translate(-733.91 -857.667)" fill="#e2915a"/>
                  </g>
                  <g id="Grupo_130935" data-name="Grupo 130935" transform="translate(9.794 9.357)">
                    <path id="Trazado_138305" data-name="Trazado 138305" d="M724.235,820.048c2.113,11.375,16.791,11,23.134,10.287,1.785-.2,2.908-.427,2.908-.427,2.013-.538,3.136-3.708,3.657-7.86,1.036-8.219-.273-20.282-1.661-23.367-2.09-4.643-6.025-9.664-20.806-6.041S721.523,805.473,724.235,820.048Z" transform="translate(-721.259 -791.4)" fill="#ffb27d"/>
                  </g>
                  <g id="Grupo_130936" data-name="Grupo 130936">
                    <path id="Trazado_138306" data-name="Trazado 138306" d="M743.581,783.5c-2.02-2.8-6.3-6.215-10.193-8.319-8.359-4.522-19.055.142-19.1.162-12.074,5.308-15.226,14.546-8.826,28.934,6.769,15.215,13.214,13.5,13.214,13.5s-1.368-.852-1.244-5.593c.007-.27.017-.494.03-.688a3.187,3.187,0,0,0-1.007-2.595c-1.5-1.339-2.231-5.386-.974-6.514,1.515-1.359,3.643.292,4.324,1.562a1.855,1.855,0,0,0,2.65.584c3.758-2.375,1.317-7.126,4.908-10.033s10.876-.467,16.263-2.783C750.675,789.1,745.1,785.612,743.581,783.5Z" transform="translate(-702.222 -773.212)" fill="#261a4d"/>
                  </g>
                </g>
                <g id="Grupo_130938" data-name="Grupo 130938" transform="translate(18.959 56.692)">
                  <path id="Trazado_138307" data-name="Trazado 138307" d="M729.165,1075.912q-3.569.917-7.075,1.5c-2.07.353-4.131.615-6.195.79-11.693,1.018-23.44-.628-37.169-4.565q-4.637-1.33-9.6-3.007c-.353-.119.9-36.423,2.351-73.869.147-3.866.3-7.746.45-11.6q.1-2.449.194-4.877c1.314-33.119,2.616-63.028,2.891-64.64.628-3.644,1.215-6.751,1.855-9.442,1.87-7.846,4.193-12.149,9.258-15.849.493-.375,4.543-2.416,8.115-4.193,2.96-1.471,5.589-2.754,5.589-2.754h0c1.178.577,2.592,3.275,4.072,7.063,2.719,6.981,5.654,17.672,7.7,25.656a.275.275,0,0,1,.009.041v0c1.314,5.154,2.257,9.17,2.526,10.322.456,1.946,1.058,5.711,1.767,10.816.962,6.947,2.11,16.377,3.325,27.077.126,1.1.25,2.214.375,3.338q.216,1.925.435,3.893c.046.421.093.843.137,1.265.468,4.237.94,8.612,1.409,13.058.39,3.675,5.964,6.333,6.348,10.07.222,2.2.685,22.446,1.281,28.91C729.637,1029.534,729.333,1073.742,729.165,1075.912Z" transform="translate(-669.065 -883.408)" fill="#c2b9de"/>
                </g>
                <g id="Grupo_130939" data-name="Grupo 130939" transform="translate(23.254 102.282)">
                  <path id="Trazado_138308" data-name="Trazado 138308" d="M692.891,972.024c-.017.075-.947,33.49,24.188,37.55s8.435,5.131,8.435,5.131-47.292-2.01-48.073-3.259S692.891,972.024,692.891,972.024Z" transform="translate(-677.414 -972.024)" fill="#d7ccfb"/>
                </g>
                <g id="Grupo_130940" data-name="Grupo 130940" transform="translate(15.59 147.409)">
                  <path id="Trazado_138309" data-name="Trazado 138309" d="M706.895,1066.507s-.471.334-1.376.918a.487.487,0,0,0-.047.028,118,118,0,0,1-31.786,13.595q-2.609.708-5.39,1.33c.147-3.866.3-7.746.45-11.6a48.685,48.685,0,0,1-6.229-.861c.065-.509.134-1.018.2-1.527,2.108-.865,4.2-1.7,6.224-2.488,1.645-.644,3.237-1.256,4.746-1.824,6.806-2.585,11.852-4.337,11.852-4.337l20.149,6.382Z" transform="translate(-662.517 -1059.741)" fill="#d7ccfb"/>
                </g>
                <g id="Grupo_130941" data-name="Grupo 130941" transform="translate(0 56.692)">
                  <path id="Trazado_138310" data-name="Trazado 138310" d="M697.515,980.333s-2.589.646-6.71,1.477a.122.122,0,0,0-.044.009c-7.6,1.527-20.376,3.669-31.788,3.553-1.684-.018-3.338-.084-4.94-.209a48.7,48.7,0,0,1-6.229-.861c-4.172-.881-7.666-2.37-9.951-4.7-16.976-17.292,9.264-79.352,14.781-85.391,6.442-7.05,18.2-9.523,24.689-10.372.272-.034.531-.069.784-.1,2.282-.272,3.747-.328,3.828-.331h0s-.509,1.636-1.361,4.411c-.331,1.074-.715,2.32-1.136,3.71-3.987,13.058-11.681,38.72-15.072,53.193-1.243,5.3-1.908,9.093-1.605,10.226,1.324,4.943,15.04,7.484,23.73,8.608,3.625.468,6.375.69,6.991.738a.894.894,0,0,1,.128.009l.5,2.06,1.2,4.944,1.183,4.855Z" transform="translate(-632.214 -883.408)" fill="#c2b9de"/>
                </g>
                <g id="Grupo_130942" data-name="Grupo 130942" transform="translate(54.345 108.248)">
                  <path id="Trazado_138311" data-name="Trazado 138311" d="M796.153,1058.737l-58.3-2.456,11.829-72.66,37.084,1.562,21.219.894Z" transform="translate(-737.849 -983.621)" fill="#986e2e"/>
                </g>
                <g id="Grupo_130943" data-name="Grupo 130943" transform="translate(58.153 137.476)">
                  <path id="Trazado_138312" data-name="Trazado 138312" d="M748.5,1040.543s11.349-.791,11.919,1.854c1.327,6.167-9.757,11.23-13.348,10.884S745.883,1040.132,748.5,1040.543Z" transform="translate(-745.25 -1040.432)" fill="#ffb27d"/>
                </g>
                <g id="Grupo_130944" data-name="Grupo 130944" transform="translate(108.789 123.623)">
                  <path id="Trazado_138313" data-name="Trazado 138313" d="M856.175,1015.342s-10.859-3.395-12.024-.953c-2.718,5.692,6.895,13.183,10.468,13.677S858.812,1015.546,856.175,1015.342Z" transform="translate(-843.674 -1013.506)" fill="#ffb27d"/>
                </g>
                <g id="Grupo_130945" data-name="Grupo 130945" transform="translate(43.733 53.043)">
                  <path id="Trazado_138314" data-name="Trazado 138314" d="M724.389,876.316s-4.775,2.276-7.169,5.71c0,0,17.847,30.987,17.768,30.7S728.954,880.285,724.389,876.316Z" transform="translate(-717.22 -876.316)" fill="#d7ccfb"/>
                </g>
                <g id="Grupo_130946" data-name="Grupo 130946" transform="translate(73.13 53.48)">
                  <path id="Trazado_138315" data-name="Trazado 138315" d="M774.362,877.165c1.572.593,4.586,3.682,5.267,5.389l2.122,27.053s-4.53-19.853-6.836-28.827A15.191,15.191,0,0,1,774.362,877.165Z" transform="translate(-774.362 -877.165)" fill="#d7ccfb"/>
                </g>
                <g id="Grupo_130947" data-name="Grupo 130947" transform="translate(85.502 107.262)">
                  <path id="Trazado_138316" data-name="Trazado 138316" d="M798.409,983.5s.461-2.016,3.116-1.782,17.563.968,17.563.968,2.875-.047,2.608,1.795Z" transform="translate(-798.409 -981.703)" fill="#ca923d"/>
                </g>
                <g id="Grupo_130948" data-name="Grupo 130948" transform="translate(68.399 38.968)">
                  <path id="Trazado_138317" data-name="Trazado 138317" d="M765.166,850.56a6.225,6.225,0,0,0,5.058,1.218c1.852-.324,2.888-2.732,2.888-2.732A13.98,13.98,0,0,0,765.166,850.56Z" transform="translate(-765.166 -848.957)" fill="#fff"/>
                </g>
              </g>
              <g id="Grupo_130950" data-name="Grupo 130950" transform="translate(34.046 78.587)">
                <rect id="Rectángulo_41163" data-name="Rectángulo 41163" width="15.094" height="6.768" fill="#ebf3fa"/>
              </g>
            </g>
          </g>
        </g>
      </g>
      <g id="Grupo_130962" data-name="Grupo 130962" transform="translate(-4.773)">
        <rect id="Rectángulo_41171" data-name="Rectángulo 41171" width="263" height="48" rx="5" transform="translate(1135.773 762)" fill="#8c6df2"/>
        <text id="Servicios_Públicos" data-name="Servicios Públicos" transform="translate(1192.773 793)" fill="#fff" font-size="18" font-family="Roboto-Black, Roboto" font-weight="800"><tspan x="0" y="0">Servicios Públicos</tspan></text>
      </g>
    </g>
  </g>
</svg>
