<svg xmlns="http://www.w3.org/2000/svg" width="93.447" height="100" viewBox="0 0 93.447 100">
  <g id="Grupo_131975" data-name="Grupo 131975" transform="translate(3999 8931.5)">
    <g id="Grupo_131970" data-name="Grupo 131970" transform="translate(-3525.98 -8917.5)">
      <path id="Trazado_138995" data-name="Trazado 138995" d="M-328.6-14a7.79,7.79,0,0,1,1.491,1.525c.887,1.622,1.657,3.31,2.427,4.993a1.44,1.44,0,0,0,1.241.9c1.86.282,3.717.589,5.566.935,1.634.306,2.059,1.618.927,2.845-1.366,1.481-2.789,2.911-4.135,4.41a1.666,1.666,0,0,0-.351,1.179c.252,2.064.637,4.114.842,6.182a2.1,2.1,0,0,1-.6,1.667,2.073,2.073,0,0,1-1.767.036c-1.759-.828-3.431-1.838-5.174-2.7a1.679,1.679,0,0,0-1.307.009c-1.716.845-3.4,1.768-5.076,2.684a1.645,1.645,0,0,1-1.914.033,1.7,1.7,0,0,1-.591-1.829c.318-2.023.626-4.048.871-6.08a1.668,1.668,0,0,0-.351-1.178c-1.322-1.477-2.7-2.9-4.073-4.335a1.727,1.727,0,0,1-.605-1.831,1.719,1.719,0,0,1,1.564-1.123c1.827-.285,3.645-.624,5.473-.9a1.439,1.439,0,0,0,1.241-.9c.769-1.684,1.54-3.371,2.427-4.993A7.8,7.8,0,0,1-328.992-14Zm7.57,10.977c-1.447-.239-2.685-.478-3.934-.639a2.362,2.362,0,0,1-2.069-1.517c-.5-1.179-1.108-2.316-1.759-3.655-.629,1.284-1.23,2.353-1.684,3.482a2.568,2.568,0,0,1-2.348,1.72c-1.192.131-2.37.391-3.717.622,1,1.053,1.792,2.007,2.708,2.822a2.86,2.86,0,0,1,.883,2.987c-.237,1.193-.372,2.406-.576,3.78,1.226-.654,2.308-1.168,3.324-1.792a2.453,2.453,0,0,1,2.817-.008c1.026.623,2.111,1.147,3.322,1.795-.239-1.64-.431-3.054-.657-4.463a2.093,2.093,0,0,1,.645-1.939C-323.1-.815-322.154-1.842-321.032-3.023Z" transform="translate(-97.441)" fill="#5038a1"/>
      <path id="Trazado_138996" data-name="Trazado 138996" d="M-468.9,74.046a1.607,1.607,0,0,1-1.712-1.846c.117-.935.234-1.875.438-2.793a1.474,1.474,0,0,0-.494-1.548,27.057,27.057,0,0,1-1.873-1.986,1.523,1.523,0,0,1,.836-2.625c.945-.226,1.925-.3,2.869-.53a1.472,1.472,0,0,0,.846-.634c.48-.846.784-1.8,1.328-2.6a2.108,2.108,0,0,1,1.433-.9,2.059,2.059,0,0,1,1.441.888c.635.971.844,2.373,1.676,3.021.794.619,2.164.475,3.268.721a1.555,1.555,0,0,1,.893,2.723,6.8,6.8,0,0,1-1.074,1.128,2.931,2.931,0,0,0-1.057,3.582,8.37,8.37,0,0,1,.261,1.635,1.531,1.531,0,0,1-2.179,1.6,24.6,24.6,0,0,1-2.5-1.314,1.23,1.23,0,0,0-1.432,0c-.687.429-1.42.784-2.145,1.149A8.029,8.029,0,0,1-468.9,74.046Zm3.667-10.322c-.39,1.581-1.65,1.9-3.219,2.232,1.691.922,1.725,2.189,1.379,3.775a2.645,2.645,0,0,1,3.748.014,3.11,3.11,0,0,1,1.3-3.925C-463.673,65.741-464.766,65.241-465.236,63.725Z" transform="translate(0 -53.682)" fill="#5038a1"/>
      <path id="Trazado_138997" data-name="Trazado 138997" d="M-165.4,58.344a4.518,4.518,0,0,1,1.05.975c.513.822.837,1.76,1.318,2.6a1.475,1.475,0,0,0,.857.614c.849.207,1.757.21,2.576.488a2.36,2.36,0,0,1,1.423,1.1,2.326,2.326,0,0,1-.483,1.718c-.513.74-1.264,1.31-1.826,2.022a1.869,1.869,0,0,0-.368,1.192c.073.97.375,1.928.385,2.893a2.2,2.2,0,0,1-.638,1.58c-.354.282-1.063.126-1.616.136a.609.609,0,0,1-.342-.174c-1.857-1.576-3.689-1.424-5.552.016a1.514,1.514,0,0,1-1.985.036,1.564,1.564,0,0,1-.534-1.84,4.641,4.641,0,0,0-1.749-5.757,1.549,1.549,0,0,1-.64-1.808,1.6,1.6,0,0,1,1.644-1.151,4.119,4.119,0,0,0,4.427-3.286C-167.115,58.607-166.565,58.322-165.4,58.344Zm2.534,7.36a2.818,2.818,0,0,1-2.864-2.222c-.9,1.368-.9,1.368-3.058,2.311,1.255.885,1.6,2.086,1.074,3.809a2.7,2.7,0,0,1,3.685-.231A3.208,3.208,0,0,1-162.87,65.7Z" transform="translate(-221.437 -53.503)" fill="#5038a1"/>
      <path id="Trazado_138998" data-name="Trazado 138998" d="M-393.926,42.371a1.544,1.544,0,0,1-2.212,1.508c-.886-.4-1.7-.951-2.6-1.33a1.736,1.736,0,0,0-1.23.017c-.833.353-1.578.935-2.427,1.226a2.105,2.105,0,0,1-1.687-.112,2.254,2.254,0,0,1-.6-1.594,8.248,8.248,0,0,1,.338-2.406A1.823,1.823,0,0,0-405,37.632a20.23,20.23,0,0,1-1.608-1.7,1.551,1.551,0,0,1,.894-2.718,20.712,20.712,0,0,1,2.591-.43,1.232,1.232,0,0,0,1.131-.877,13.023,13.023,0,0,1,1.218-2.433,2.119,2.119,0,0,1,1.442-.887,2.124,2.124,0,0,1,1.433.9c.531.764.81,1.7,1.292,2.505a1.775,1.775,0,0,0,.982.727c.875.232,1.793.3,2.678.5a1.556,1.556,0,0,1,.865,2.733.4.4,0,0,1-.066.072c-2.2,1.55-2.668,3.618-1.817,6.084A1.3,1.3,0,0,1-393.926,42.371Zm-3.476-2.588A3.113,3.113,0,0,1-396.15,35.8c-1.674-.039-2.73-.588-3.189-2.12-.467,1.516-1.506,2.088-3.218,2.115a3.251,3.251,0,0,1,1.364,3.952A2.646,2.646,0,0,1-397.4,39.783Z" transform="translate(-48.729 -31.495)" fill="#5038a1"/>
      <path id="Trazado_138999" data-name="Trazado 138999" d="M-228.045,44.065a8.214,8.214,0,0,1-1.652-.83,2.86,2.86,0,0,0-3.927.018,2.584,2.584,0,0,1-1.115.576,2.4,2.4,0,0,1-1.613-.108A2.2,2.2,0,0,1-237,42.145c.009-.965.311-1.924.385-2.893a1.868,1.868,0,0,0-.357-1.2c-.583-.737-1.285-1.377-1.914-2.08a1.564,1.564,0,0,1,.9-2.768c.857-.181,1.744-.235,2.583-.47a1.952,1.952,0,0,0,1.038-.8c.472-.772.733-1.682,1.247-2.418A2.1,2.1,0,0,1-231.7,28.6a2.533,2.533,0,0,1,1.514.944,4.261,4.261,0,0,1,.817,1.647,2.292,2.292,0,0,0,2.424,1.76,8.617,8.617,0,0,1,1.818.322,1.518,1.518,0,0,1,.821,2.578,23.245,23.245,0,0,1-1.94,2.057,1.466,1.466,0,0,0-.447,1.562c.192.888.3,1.8.419,2.7A1.65,1.65,0,0,1-228.045,44.065Zm-6.587-8.082c1.26.881,1.59,2.085,1.077,3.8a2.732,2.732,0,0,1,3.707-.23c-.549-1.572.031-2.69,1.39-3.776-1.736.016-2.72-.629-3.119-2.116C-232.45,35.009-232.45,35.009-234.632,35.983Z" transform="translate(-172.749 -31.502)" fill="#5038a1"/>
      <path id="Trazado_139000" data-name="Trazado 139000" d="M-319.958,262.494c-2.469,0-4.938.006-7.407,0-1.4,0-1.942-.55-1.946-1.953q-.011-4.3,0-8.593c0-1.4.546-1.948,1.947-1.95q7.407-.009,14.814,0c1.4,0,1.944.549,1.947,1.951q.012,4.3,0,8.593c0,1.4-.55,1.947-1.949,1.951C-315.02,262.5-317.489,262.494-319.958,262.494Zm-6.182-9.329v6.14h4.553v-6.14Zm7.8,0v6.14h4.553v-6.14Z" transform="translate(-106.281 -195.244)" fill="#5038a1"/>
      <path id="Trazado_139001" data-name="Trazado 139001" d="M-319.924,189.993c2.469,0,4.938-.007,7.407,0,1.344.005,1.906.557,1.911,1.889q.015,4.346,0,8.691c0,1.347-.558,1.913-1.886,1.915q-7.456.012-14.911,0c-1.345,0-1.9-.557-1.91-1.89q-.015-4.345,0-8.691c0-1.348.554-1.908,1.885-1.913C-324.926,189.986-322.425,189.993-319.924,189.993Zm-1.641,9.336v-6.156h-4.568v6.156Zm7.8-6.16h-4.577v6.13h4.577Z" transform="translate(-106.279 -150.868)" fill="#5038a1"/>
      <path id="Trazado_139002" data-name="Trazado 139002" d="M-415.774,256.233c0,1.465.011,2.929,0,4.394-.012,1.275-.578,1.843-1.85,1.852q-2.826.02-5.652,0c-1.273-.009-1.842-.577-1.847-1.854q-.017-4.394,0-8.788c0-1.277.573-1.842,1.848-1.851q2.826-.02,5.652,0c1.273.009,1.837.576,1.849,1.852C-415.763,253.3-415.774,254.768-415.774,256.233Zm-3.187,3.081v-6.128h-3v6.128Z" transform="translate(-35.415 -195.233)" fill="#5038a1"/>
      <path id="Trazado_139003" data-name="Trazado 139003" d="M-415.774,196.24c0,1.465.011,2.929,0,4.394-.013,1.271-.581,1.836-1.858,1.845q-2.826.02-5.652,0c-1.269-.01-1.834-.58-1.839-1.861q-.016-4.394,0-8.788c.005-1.273.575-1.835,1.856-1.843q2.826-.019,5.652,0c1.269.009,1.829.578,1.841,1.86C-415.763,193.311-415.774,194.776-415.774,196.24Zm-3.181,3.1v-6.155h-2.976v6.155Z" transform="translate(-35.415 -150.857)" fill="#5038a1"/>
      <path id="Trazado_139004" data-name="Trazado 139004" d="M-188.218,256.327c0,1.432.011,2.864,0,4.3-.012,1.278-.576,1.846-1.847,1.855q-2.826.02-5.653,0c-1.275-.009-1.845-.576-1.849-1.851q-.017-4.394,0-8.788c0-1.279.571-1.845,1.845-1.854q2.826-.02,5.653,0c1.275.009,1.839.574,1.852,1.849C-188.207,253.333-188.218,254.83-188.218,256.327Zm-3.2,3.008v-6.162h-2.965v6.162Z" transform="translate(-203.712 -195.232)" fill="#5038a1"/>
      <path id="Trazado_139005" data-name="Trazado 139005" d="M-188.22,196.275c0,1.465.013,2.93,0,4.394a1.591,1.591,0,0,1-1.8,1.805q-2.875.025-5.75,0a1.586,1.586,0,0,1-1.8-1.8q-.021-4.443,0-8.886a1.584,1.584,0,0,1,1.8-1.8q2.875-.024,5.75,0a1.59,1.59,0,0,1,1.8,1.8C-188.207,193.281-188.22,194.778-188.22,196.275Zm-3.2,3.057V193.17h-2.965v6.162Z" transform="translate(-203.709 -150.854)" fill="#5038a1"/>
      <path id="Trazado_139006" data-name="Trazado 139006" d="M-456.8,183.568a2.471,2.471,0,0,1-.992-2.265q.037-23.237.017-46.474v-1.2a2.01,2.01,0,0,1-1.665-1.81c-.389-1.744-.855-3.47-1.278-5.206-.405-1.663.176-2.419,1.868-2.42q12.424-.005,24.848,0h1.178c0-1.029,0-1.993,0-2.957a1.559,1.559,0,0,1,1.385-1.719c5.216-.916,10.448-1.893,15.762-1.508,4.231.307,8.437.972,12.65,1.511a1.531,1.531,0,0,1,1.39,1.712c0,.941,0,1.881,0,2.96h25.828c1.962,0,2.5.7,2.033,2.611-.412,1.672-.867,3.334-1.244,5.014a2.016,2.016,0,0,1-1.665,1.812v1.2q0,23.237.017,46.474a2.481,2.481,0,0,1-.992,2.265Zm27.169-49.958v46.782h6.12v-9.207a.614.614,0,0,0-.136-.105c-1.054-.435-1.5-1.045-1.352-1.847.161-.861.813-1.284,2-1.289,1.007,0,2.014,0,3.021,0,2.923,0,5.847-.011,8.77.006,1.211.007,2.088.948,1.689,1.911-.232.559-.832.965-1.408,1.6v8.91h6.118V133.61Zm-24.955,0v46.752h15.472V133.611Zm59.26,0V180.4h15.471V133.61Zm-6.241,6.253v40.5h3v-40.5Zm-34.308,0v40.5h3v-40.5Zm34.189-9.46v-3.028h-31.068V130.4Zm-27.949-7.955v1.7H-404.8v-1.7A57.077,57.077,0,0,0-429.638,122.448Zm-6.351,4.93h-21.331l.759,3.015h20.573Zm58.09,3.033.751-3.041h-21.307v3.041Zm-36.25,40.733H-420.3v9.241h6.152Zm-21.738-37.527v3.01h2.987v-3.01Zm37.317,3.033v-3.02h-3v3.02Z" transform="translate(-9.005 -97.568)" fill="#5038a1"/>
    </g>
  </g>
</svg>
