<svg xmlns="http://www.w3.org/2000/svg" width="100" height="100" viewBox="0 0 100 100">
  <g id="Grupo_131973" data-name="Grupo 131973" transform="translate(4211 8931)">
    <path id="Trazado_187772" data-name="Trazado 187772" d="M8.3,248.5H-1.656A4.077,4.077,0,0,1-4,246.156v-4.687a3.448,3.448,0,0,1,3.467-2.411c.839-5.038,1.637-9.977,2.492-14.906.543-3.132,2.192-4.465,5.37-4.472,1.291,0,2.581,0,4.014,0-1.375-14-2.736-27.857-4.108-41.82-1.915.478-3.1-.452-4.04-1.892-.266-.408-.586-.78-.879-1.169-1.553-2.061-1.525-3.158.177-5.137-.786-1.045-1.6-2.1-2.378-3.166-1.577-2.163-3.506-4.117-4.115-6.86v-2.539A9.755,9.755,0,0,1-.078,151.44,16.973,16.973,0,0,1,5.18,148.5H7.719c2.861.6,4.779,2.426,6.369,4.759,1.15,1.687,2.447,3.274,3.668,4.892,2.486-1.093,3.417-.839,5.044,1.328.293.39.567.8.886,1.165,1.307,1.5,1.626,3.073.41,4.606l22.027,22.077c1.629-1.636,3.291-3.324,4.977-4.989a1.441,1.441,0,0,1,2.164-.122,1.479,1.479,0,0,1-.1,2.174c-1.132,1.168-2.288,2.315-3.45,3.453-.547.536-1.134,1.031-1.478,1.342l29.555,29.6c.2-2.039.416-4.2.629-6.354q.933-9.467,1.865-18.935c.548-5.567,1.086-11.135,1.655-16.7a1.417,1.417,0,0,0-.67-1.458c-1.867-1.359-3.7-2.767-5.544-4.157L70.305,167.1c-.261.322-.462.621-.712.871q-5.827,5.84-11.667,11.667a4.343,4.343,0,0,1-.8.7,1.336,1.336,0,0,1-1.775-.244,1.354,1.354,0,0,1-.155-1.788,4.977,4.977,0,0,1,.721-.79q5.695-5.7,11.392-11.39c.243-.243.472-.5.691-.735-1.164-1.826-1.121-2.823.145-4.512.351-.468.708-.933,1.06-1.4,1.628-2.166,2.555-2.419,5.046-1.326,1.2-1.592,2.472-3.156,3.605-4.816,1.608-2.354,3.53-4.228,6.428-4.837h2.344a15.6,15.6,0,0,1,2.866,1.14c2.874,1.847,5.724,3.764,6.509,7.454v2.539a13.439,13.439,0,0,1-2.753,5.077c-1.285,1.627-2.5,3.308-3.738,4.952,1.706,1.995,1.733,3.067.177,5.136-.274.364-.571.712-.82,1.092-.954,1.458-2.128,2.473-4.1,1.961l-4.1,41.748c.315.036.5.075.688.076,1.3.007,2.6-.027,3.9.015a4.625,4.625,0,0,1,4.714,4.079c.333,1.888.64,3.78.958,5.67.537,3.2,1.072,6.395,1.616,9.641A3.406,3.406,0,0,1,96,241.469v4.688a4.09,4.09,0,0,1-2.344,2.344H13.187c-.317-.353-.771-.657-.923-1.07-.372-1.013.428-1.855,1.706-1.856q9.03-.01,18.061,0h1.122v-3.459H-.984v3.459c2.786,0,5.486.01,8.186-.006.823,0,1.576.064,1.928.968C9.488,247.453,8.914,247.984,8.3,248.5Zm5.906-29.632,29.358-29.409L21.437,167.292c-3.632,2.738-7.352,5.526-11.037,8.359a1.444,1.444,0,0,0-.315,1.1c.252,2.916.55,5.828.837,8.741q.937,9.516,1.877,19.032Q13.507,211.708,14.211,218.868Zm4.016.727H73.768L46,191.809Zm71.337,19.459-1.462-8.7c-1.294,1.053-2.4,2.006-3.567,2.882a7.342,7.342,0,0,1-2.009,1.154,4.451,4.451,0,0,1-4.386-.9c-1.636-1.32-3.267-2.645-4.915-3.98-1.566,1.276-3.048,2.493-4.54,3.7-2.361,1.9-4.5,1.885-6.862-.045-.943-.77-1.9-1.53-2.976-2.4v8.286Zm-87.129.018H33.122v-8.289c-1.144.929-2.145,1.752-3.156,2.562a4.728,4.728,0,0,1-6.478,0c-1.564-1.267-3.126-2.535-4.718-3.826-1.458,1.186-2.873,2.33-4.281,3.484-2.653,2.174-4.65,2.18-7.315.016-1.049-.852-2.1-1.7-3.28-2.658Zm30.773-16.405c-.423-.023-.739-.055-1.055-.055q-12.4,0-24.793,0c-.228,0-.457,0-.683.014a1.727,1.727,0,0,0-1.739,1.537,19.06,19.06,0,0,0-.347,2.212,1.444,1.444,0,0,0,.384,1.048c1.455,1.25,2.958,2.446,4.455,3.646a1.834,1.834,0,0,0,2.784,0c1.448-1.159,2.875-2.342,4.32-3.5a3.139,3.139,0,0,1,4.49,0c1.468,1.184,2.92,2.39,4.393,3.569a1.745,1.745,0,0,0,2.552.047c1.607-1.272,3.189-2.575,4.765-3.884a1.157,1.157,0,0,0,.453-.689C33.23,225.314,33.207,224.021,33.207,222.666Zm25.583-.058c0,1.411-.033,2.646.024,3.877a1.4,1.4,0,0,0,.515.856c1.519,1.276,3.06,2.527,4.609,3.767a1.811,1.811,0,0,0,2.709-.023c1.4-1.118,2.781-2.251,4.166-3.383,1.78-1.455,3.065-1.449,4.871.024,1.386,1.13,2.771,2.264,4.166,3.383a1.778,1.778,0,0,0,2.628.032,42.672,42.672,0,0,1,3.357-2.671,2.9,2.9,0,0,0,1.4-3.627c-.448-1.786-.795-2.233-2.674-2.234q-12.3,0-24.6,0Zm.073,19.477v3.4H93.01v-3.4Zm-19.219,3.457V222.68h-3.41v22.863Zm16.158,0V222.68H52.39V245.54Zm-44.224-90.7c-.371-.5-.69-.943-1.029-1.374a4.98,4.98,0,0,0-7.1-.978c-.684.5-1.352,1.015-2.027,1.524-3.187,2.4-3.33,5.973-.312,8.722ZM80.5,154.9,91,162.812c.471-.642.912-1.167,1.268-1.745a4.525,4.525,0,0,0,.088-5.161,10.908,10.908,0,0,0-5.654-4.267C84.269,150.841,82.008,152.128,80.5,154.9Zm-60.668,5.5L4.085,172.268l2.126,2.83,15.746-11.87Zm68.091,11.861L72.179,160.4l-2.134,2.824L85.792,175.1ZM13.347,157.181,2.772,165.155l2.134,2.822,10.57-7.972Zm63.177,2.829L87.1,167.974l2.13-2.823-10.58-7.97ZM42.671,226.1h6.62v-3.428h-6.62Zm.007,6.469h6.608v-3.4H42.678Zm6.621,6.484v-3.4H42.683v3.4Zm.027,3.04H42.692v3.4h6.634Z" transform="translate(-4207 -9079.5)" fill="#5038a1"/>
  </g>
</svg>
