<svg xmlns="http://www.w3.org/2000/svg" width="100.989" height="100" viewBox="0 0 100.989 100">
  <g id="Grupo_131971" data-name="Grupo 131971" transform="translate(4212 9220.5)">
    <g id="Grupo_131965" data-name="Grupo 131965" transform="translate(-4208.605 -9371.297)">
      <path id="Trazado_138989" data-name="Trazado 138989" d="M331.48,205.742a1.5,1.5,0,0,1-1.469,1.53,1.53,1.53,0,0,1-1.547-1.466,1.507,1.507,0,0,1,1.484-1.52A1.465,1.465,0,0,1,331.48,205.742Z" transform="translate(-244.444 -39.401)" fill="#5038a1"/>
      <path id="Trazado_138990" data-name="Trazado 138990" d="M39.357,204.281a1.457,1.457,0,0,1,1.522,1.457,1.493,1.493,0,1,1-1.522-1.457Z" transform="translate(-30.412 -39.396)" fill="#5038a1"/>
      <path id="Trazado_138991" data-name="Trazado 138991" d="M97.595,233.135v7.492c-1.038,2.988-3.214,3.974-6.265,3.912-5.846-.118-11.7-.035-17.544-.032-.379,0-.757.036-1.2.058,0,.89,0,1.674,0,2.457-.008,2.526-1.225,3.762-3.737,3.769-3.187.009-6.374,0-9.561,0q-16.9,0-33.809,0c-2.592,0-3.812-1.218-3.818-3.785,0-.809,0-1.618,0-2.5H20.339q-8.97,0-17.939,0a11.719,11.719,0,0,1-1.571-.091,4.8,4.8,0,0,1-4.171-4.641c-.045-1.937-.037-3.877,0-5.815A4.676,4.676,0,0,1,.03,229.47c.871-.229.94-.641.939-1.367Q.947,203.067.958,178.031V177.02c-3.407-1.182-4.314-2.472-4.314-6.018,0-3.22.111-6.445-.032-9.658a5.205,5.205,0,0,1,5.545-5.576c9.33.116,18.662.04,27.993.04h1.176c0-.635-.006-1.094,0-1.552a3.214,3.214,0,0,1,3.372-3.44q12.42-.04,24.839,0a3.207,3.207,0,0,1,3.372,3.439c.017,1.873.009,3.746,0,5.618-.008,2.369-1.291,3.655-3.652,3.658q-5.865.007-11.73,0-6.259,0-12.518,0c-2.386,0-3.668-1.267-3.686-3.624,0-.35,0-.7,0-1.08-.309-.028-.5-.06-.691-.06q-14.44,0-28.88,0c-1.46,0-2.145.719-2.149,2.212q-.015,5.372,0,10.744c0,1.568.713,2.262,2.309,2.262q45.193,0,90.386,0c1.648,0,2.333-.686,2.336-2.337q.009-5.076,0-10.152c0-2.207-.524-2.734-2.72-2.734q-11.434,0-22.868,0c-1.353,0-2.024-.484-2.049-1.453-.027-1.017.634-1.5,2.064-1.5q11.631,0,23.262-.009a4.276,4.276,0,0,1,3.3,1.015,20.2,20.2,0,0,1,1.973,2.973V173a5.269,5.269,0,0,1-4.256,3.957v52.262A5.252,5.252,0,0,1,97.595,233.135ZM77.723,222.816H76.592q-10.892,0-21.785,0a4.82,4.82,0,0,1-1.171-.1,1.442,1.442,0,0,1,.139-2.81,7.823,7.823,0,0,1,1.18-.047q10.794,0,21.588,0h1.167v-42.83H71.021c0,1.653-.021,3.227.02,4.8a1.172,1.172,0,0,0,.438.777c2.634,2,2.86,4.924.5,7.268-.69.686-1.468,1.285-2.208,1.926l.563.608c.792.852.891,1.7.272,2.34-.665.687-1.514.593-2.4-.283-1.075-1.063-2.139-2.135-3.208-3.2-1.486-1.488-2.985-2.963-4.451-4.471a1.465,1.465,0,0,1-.064-2.117,1.439,1.439,0,0,1,2.111.026,5.254,5.254,0,0,1,.682.966L68,181.639V177H26.175c0,1.257.06,2.468-.019,3.669-.061.924.131,1.507,1.1,1.832a4.291,4.291,0,0,1,1.386,1.073c.684.648,1.325,1.34,2.141,2.173a8.784,8.784,0,0,1,.737-.945,1.483,1.483,0,0,1,2.184-.174,1.508,1.508,0,0,1-.11,2.261c-.75.783-1.527,1.539-2.294,2.306q-2.648,2.649-5.3,5.3c-.848.841-1.662.933-2.332.3-.652-.618-.58-1.5.188-2.338.145-.159.275-.332.485-.587-.83-.793-1.644-1.512-2.389-2.295a4.467,4.467,0,0,1,.665-6.875c.223-.162.555-.4.56-.6.046-1.694.026-3.39.026-5.108h-6.69V219.8H45.545V207.5c-.267.239-.414.36-.548.493-1.443,1.438-2.879,2.884-4.328,4.315a1.239,1.239,0,0,1-1.684.307,2.2,2.2,0,0,1-.821-1.405c-.023-.421.406-.942.758-1.3,4.025-4.06,8.118-8.054,12.1-12.158,1.909-1.969,4.212-2.253,6.7-2.031a1.322,1.322,0,0,1,1.249,1.5,1.369,1.369,0,0,1-1.371,1.4,7.043,7.043,0,0,1-1.28.009,3.908,3.908,0,0,0-3.333,1.349c-1.213,1.293-2.535,2.486-3.732,3.793a2.513,2.513,0,0,0-.625,1.528c-.048,4.534-.028,9.069-.028,13.6,0,1.84.017,3.68-.01,5.52-.016,1.1-.594,1.706-1.5,1.688-.866-.017-1.4-.611-1.441-1.651-.022-.513,0-1.027,0-1.592H16.538v6.268H77.723Zm-53.067,24.93h44.89v-3.242H68.195q-13.058,0-26.116,0a5.817,5.817,0,0,1-1.27-.1,1.321,1.321,0,0,1-1.09-1.44,1.341,1.341,0,0,1,1.273-1.386,9.2,9.2,0,0,1,1.083-.028H66.262c0-.785,0-1.438,0-2.091,0-1.258,0-1.26-1.295-1.26H29.292a2.2,2.2,0,0,0-.78.026c-.213.087-.5.333-.509.524-.053.9-.024,1.811-.024,2.8h1.3c1.61,0,3.22-.008,4.829.016a1.447,1.447,0,0,1,.572,2.763,3.457,3.457,0,0,1-1.256.171c-2.562.014-5.125.006-7.687.009-.348,0-.7.029-1.08.047Zm6.895-15.529a3.856,3.856,0,0,0-.41-.057q-14.727,0-29.453,0a1.91,1.91,0,0,0-2.081,2.093c-.021,1.543-.007,3.086-.006,4.63,0,2.046.6,2.66,2.628,2.661q10.885.006,21.77,0c.318,0,.636-.032,1.019-.052,0-.943,0-1.793,0-2.643a3.249,3.249,0,0,1,3.58-3.61c.973-.011,1.947,0,2.952,0Zm37.668,9.226a3.083,3.083,0,0,0,.48.094c7.617,0,15.235.018,22.852-.009,1.387-.005,2.069-.8,2.082-2.2.014-1.543.005-3.086,0-4.629,0-1.921-.617-2.538-2.534-2.539H62.7v3.084c1.1,0,2.145-.022,3.187.005a3.2,3.2,0,0,1,3.331,3.362C69.231,239.525,69.22,240.442,69.22,241.444ZM34.282,153.82c0,1.956.046,3.791-.019,5.622-.032.9.226,1.16,1.146,1.155,7.417-.038,14.834-.022,22.25-.022,2.3,0,2.3,0,2.3-2.326v-4.43Zm55.945,72.955V207.069l-9.033,9.926ZM3.993,179.417v19.789l8.983-9.864Zm86.3-.047-9.026,9.966,9.026,9.91ZM3.956,226.821l9.019-9.831-9.019-9.957Zm9.453-13.759V193.267l-8.985,9.862Zm67.395-.039,9.013-9.9L80.8,193.236ZM59.617,235.18v-2.943H34.626v2.943ZM5.79,177l7.626,8.408V177Zm82.628.031H80.843v8.357ZM13.434,220.87l-7.581,8.266h7.581Zm74.954,8.274-7.58-8.2v8.2ZM28.6,187.657c-.827-.808-1.6-1.612-2.428-2.356a1.481,1.481,0,0,0-2.125.052,1.5,1.5,0,0,0-.058,2.054c.753.851,1.565,1.651,2.345,2.465Zm39.312,2.227c.765-.8,1.5-1.551,2.205-2.324a1.549,1.549,0,0,0,.065-2.208,1.5,1.5,0,0,0-2.2.012c-.8.729-1.559,1.5-2.366,2.278Z" fill="#5038a1"/>
    </g>
  </g>
</svg>
