<svg xmlns="http://www.w3.org/2000/svg" width="99.987" height="100" viewBox="0 0 99.987 100">
  <g id="Grupo_131974" data-name="Grupo 131974" transform="translate(3999 9076)">
    <g id="Grupo_131969" data-name="Grupo 131969" transform="translate(-3536.83 -9087.337)">
      <path id="Trazado_139007" data-name="Trazado 139007" d="M-340.6,177.074a22.238,22.238,0,0,0-22.314,24.411,22.406,22.406,0,0,0,18.98,19.477,20.961,20.961,0,0,0,12.874-2.109,3.262,3.262,0,0,1,1.083-.413,1.324,1.324,0,0,1,1.494.993,1.339,1.339,0,0,1-.8,1.778,45.506,45.506,0,0,1-6.872,2.4c-11.021,2.208-25.911-3.283-29.115-19.365-2.251-11.305,2.976-23.441,14.534-28.1,15.769-6.363,32.426,3.3,34.519,20.2,1.058,8.542-1.8,15.744-8.2,21.527a1.575,1.575,0,0,1-2.184.316,1.5,1.5,0,0,1,.15-2.423,22.274,22.274,0,0,0,4.991-6.2c7.215-13.467-1.621-30.489-16.784-32.327C-339.106,177.119-339.989,177.111-340.6,177.074Z" transform="translate(-71.238 -120.341)" fill="#5038a1"/>
      <path id="Trazado_139008" data-name="Trazado 139008" d="M-302.167,209.5a14.684,14.684,0,0,1,9.3,3.976,4.7,4.7,0,0,1,.74.774,1.353,1.353,0,0,1-.074,1.794,1.343,1.343,0,0,1-1.847.279,3.571,3.571,0,0,1-.528-.43,12.9,12.9,0,0,0-17.7,0c-.865.8-1.657.883-2.31.234s-.541-1.532.311-2.38C-311.551,211.036-307.58,209.485-302.167,209.5Z" transform="translate(-108.758 -146.454)" fill="#5038a1"/>
      <path id="Trazado_139009" data-name="Trazado 139009" d="M-451.839,111.336c-1.208-1.1-1.213-1.766-.009-2.972,2.967-2.972,5.944-5.933,8.894-8.922a1.744,1.744,0,0,0,.524-1.066c.034-4.46.021-8.919.016-13.379a3.927,3.927,0,0,0-.077-.486h-1.06c-3.255,0-6.511,0-9.766,0-2.6-.005-3.859-1.248-3.861-3.813q-.007-14.649,0-29.3c0-2.526,1.251-3.753,3.79-3.754,3.608,0,7.216,0,10.9,0v-24.6H-459.87c-.26,0-.521,0-.781,0a1.411,1.411,0,0,1-1.473-1.174,1.347,1.347,0,0,1,.877-1.656c2.887-1.179,5.778-2.346,8.686-3.473a1.4,1.4,0,0,1,1.9.841,1.448,1.448,0,0,1-.918,1.89,8.348,8.348,0,0,0-1.3.607h23.89a1.671,1.671,0,0,0-.31-.228c-5.4-1.975-10.916-2.934-16.662-1.822-1.177.228-1.941-.248-2.079-1.177-.129-.871.418-1.5,1.594-1.695,1.308-.22,2.627-.369,4.045-.564,0-.6-.034-1.178.008-1.753a1.463,1.463,0,0,1,1.48-1.5,1.45,1.45,0,0,1,1.424,1.538c.026.548,0,1.1,0,1.663,1.826.3,3.591.526,5.331.876a63.7,63.7,0,0,1,13.485,4.758,1.392,1.392,0,0,1,.912,1.723,1.479,1.479,0,0,1-1.683,1.15q-8.4-.011-16.8,0h-1.191v24.6h1.086q4.932,0,9.864,0c2.3,0,3.414.91,3.858,3.186,1.466-.483,2.9-1.07,4.4-1.42a56.178,56.178,0,0,1,5.658-.975c.752-.1.986-.319.953-1.071-.062-1.394-.018-2.793-.018-4.3-.471-.022-.812-.051-1.153-.051-3.288,0-6.576,0-9.864,0-2.462,0-3.748-1.279-3.752-3.711q-.007-4.395,0-8.789c.006-2.269,1.28-3.64,3.534-3.648q12.745-.04,25.489,0a3.3,3.3,0,0,1,3.519,3.575c.015.711,0,1.422,0,2.093l10.951-2.351c0-.288-.013-.827,0-1.364.03-1.031.544-1.632,1.4-1.661.89-.029,1.474.594,1.522,1.656.024.515,0,1.032,0,1.475a58.185,58.185,0,0,1,6.939,1.364c3.981,1.279,7.874,2.841,11.785,4.331.414.158.712.618,1.064.939v.977a2.279,2.279,0,0,1-2.157.977c-5.5-.031-11-.015-16.493-.015h-1.054v8.79c3.785,0,7.489,0,11.192,0a3.347,3.347,0,0,1,3.63,3.652q.01,8.735,0,17.47a3.352,3.352,0,0,1-3.71,3.672c-3.351.007-6.7,0-10.052,0h-1.087c-.023.363-.052.615-.053.868,0,8.3-.01,16.591.021,24.886a1.988,1.988,0,0,0,.54,1.251c2.94,2.994,5.919,5.951,8.884,8.92,1.192,1.194,1.187,1.846-.014,2.97h-.977c-.418-.356-.86-.687-1.249-1.071q-2.667-2.64-5.31-5.306c-.563-.567-1.106-1.153-1.658-1.731l-.241.115c0,1.932-.027,3.864.012,5.8a2.338,2.338,0,0,1-.931,2.2h-.977a1.865,1.865,0,0,1-1.047-1.906c.043-1.749.012-3.5.012-5.25v-.869l-.364-.166-7.978,8.19h-1.172c-1.479-1.455-2.974-2.9-4.43-4.374a.882.882,0,0,0-1.166-.223,30.291,30.291,0,0,1-24.352-.007.891.891,0,0,0-1.17.231c-1.457,1.478-2.951,2.918-4.432,4.373h-1.172l-8.342-8.263c0,2.266-.029,4.263.013,6.259a1.933,1.933,0,0,1-1.047,2h-.977a2.33,2.33,0,0,1-.931-2.2c.04-1.931.012-3.863.012-6.113-1.859,1.874-3.484,3.536-5.139,5.169-1.083,1.07-2.21,2.1-3.318,3.141Zm67.092-32.14c.076-15.642-11.947-27.927-27.386-27.984-15.353-.056-27.367,12.078-27.5,27.777a27.149,27.149,0,0,0,27.346,27.331A27.139,27.139,0,0,0-384.748,79.2Zm-47.131-23.743h-22.316c-.021.249-.051.437-.051.625,0,8.2.006,16.4-.017,24.6,0,.779.335.916,1,.912,3.287-.02,6.573-.007,9.86-.013a7.029,7.029,0,0,0,.773-.088C-443.209,71.125-439.665,62.514-431.878,55.453Zm39.448-.017a1.926,1.926,0,0,0,.189.3A31.22,31.22,0,0,1-383.306,68.9a1.175,1.175,0,0,0,.9.581c3.807.04,7.613.009,11.419.04.757.006,1.021-.2,1.014-.995-.035-4.1-.015-8.2-.019-12.3,0-.252-.037-.5-.059-.8ZM-395.783,38.9c-.086,3.215-1.73,4.245-4.572,4.132-3.084-.123-6.177-.028-9.265-.028h-1.073c0,1.584.03,3.04-.013,4.494-.021.687.271.823.894.93,2.361.406,4.718.854,7.053,1.388a26.407,26.407,0,0,1,3.077,1.1c.685-2.605,1.563-3.274,4.221-3.274q4.731,0,9.461,0c.342,0,.685-.028,1.042-.044V38.9Zm-3-4.226h-26.683c0,1.512.044,2.945-.017,4.373-.036.831.263,1.047,1.06,1.042,4.59-.031,9.18-.015,13.77-.015q5.469,0,10.938,0c.473,0,.94.04.936-.654C-398.789,37.867-398.783,36.309-398.783,34.678Zm2.191,17.715h26.533c.167-1.817.167-1.818-1.517-1.818h-25.016ZM-425.465,31.6h26.591c.222-1.628.147-1.817-.811-1.818q-12.439-.012-24.877-.013c-.65,0-.99.188-.909.893A8.683,8.683,0,0,1-425.465,31.6Zm-28.716,20.79h26.51c.181-1.814.181-1.814-1.5-1.814-8.006,0-16.012.014-24.017-.02-.89,0-1.184.285-1.063,1.115C-454.218,51.89-454.207,52.114-454.181,52.389Zm69.279,40.5a33.37,33.37,0,0,1-11.543,12.04l2.67,2.833q4.285-4.281,8.555-8.562a1.094,1.094,0,0,0,.3-.678C-384.892,96.64-384.9,94.762-384.9,92.884Zm-42.914,12.095a32.172,32.172,0,0,1-11.567-12.147c-.092,1.779-.135,3.5-.065,5.211a2.35,2.35,0,0,0,.589,1.427c2.42,2.492,4.9,4.926,7.342,7.4a5.681,5.681,0,0,1,.677,1.006Zm32.4-69.1h23.938A30.006,30.006,0,0,0-395.416,35.878Z" transform="translate(0 0)" fill="#5038a1"/>
    </g>
  </g>
</svg>
