<svg xmlns="http://www.w3.org/2000/svg" width="100.059" height="100" viewBox="0 0 100.059 100">
  <g id="Grupo_131972" data-name="Grupo 131972" transform="translate(4212 9076)">
    <g id="Grupo_131966" data-name="Grupo 131966" transform="translate(-4214.649 -9230.855)">
      <path id="Trazado_138992" data-name="Trazado 138992" d="M75.144,412.943H73.865q-15.121,0-30.241-.012a1.348,1.348,0,0,0-1.388.8,4.739,4.739,0,0,1-8.324-.08,1.177,1.177,0,0,0-1.232-.724c-1.911.041-3.823.015-5.806.015v-3.228c1.942,0,3.88-.028,5.816.016A1.178,1.178,0,0,0,33.915,409a4.739,4.739,0,0,1,8.326-.063,1.343,1.343,0,0,0,1.392.794q15.12-.025,30.241-.011h1.271ZM39.7,411.37a1.606,1.606,0,1,0-1.647,1.565A1.624,1.624,0,0,0,39.7,411.37Z" transform="translate(-17.698 -183.837)" fill="#5038a1"/>
      <path id="Trazado_138993" data-name="Trazado 138993" d="M93.021,164.54c1.625,0,3.1-.007,4.578,0a4.828,4.828,0,0,1,5.1,5.043q.019,12.71,0,25.419a4.835,4.835,0,0,1-5.1,5.046c-1.476.009-2.953,0-4.517,0-.022.328-.059.616-.06.9,0,3.026.011,6.052-.014,9.078a1.171,1.171,0,0,0,.7,1.252,4.569,4.569,0,0,1,2.534,4.276q.027,8.322,0,16.644a11.08,11.08,0,0,1-2.4,6.916c-1.2,1.538-2.42,3.052-3.66,4.611a18.165,18.165,0,0,1,2.808,11.123H64.022a17.911,17.911,0,0,1,2.789-11.12c-1.239-1.569-2.444-3.141-3.719-4.655a1.6,1.6,0,0,0-1.085-.277q-10.74-.023-21.48-.012H8.155c-3.616,0-5.5-1.906-5.5-5.552q0-36.414,0-72.828c0-3.695,1.877-5.555,5.6-5.555H87.415c3.77,0,5.6,1.851,5.606,5.653C93.021,161.813,93.021,163.118,93.021,164.54Zm-38.73,6.528H5.957V216.12H10.82c1.226-6.512,5.106-10.411,11.532-11.656,1.417-.275,2.841-.523,4.238-.88a1.425,1.425,0,0,0,.738-.874,1.013,1.013,0,0,0-.235-.913,8.58,8.58,0,0,1-3.306-4.98c-.655,0-1.291.022-1.926,0a4.842,4.842,0,0,1-4.388-6.443,2.971,2.971,0,0,0,.078-1.53,11.691,11.691,0,0,1,11.577-14.613c2.756-.013,5.512-.008,8.268,0,8.073.022,13.464,6.815,11.684,14.685a2.767,2.767,0,0,0,.1,1.434,4.85,4.85,0,0,1-4.462,6.473c-.6.019-1.2,0-1.839,0a8.29,8.29,0,0,1-3.151,4.818c-.383.276-.61.5-.459,1.058s.374.862.958.966c1.454.257,2.9.571,4.349.843a13.122,13.122,0,0,1,9.606,6.8,39.135,39.135,0,0,1,1.867,4.84h1.477c0-.2,0-.362,0-.521a4.21,4.21,0,0,1,4.492-4.266,8.4,8.4,0,0,1,4.362,1.383c.235.151.487.275.757.426V200.131a1.33,1.33,0,0,0-.254-.067q-3.63-.008-7.26-.012c-3.354-.007-5.327-1.974-5.328-5.324q-.005-10.59,0-21.18Zm12.837,25.746a8.6,8.6,0,0,1,.249-2.629,3.818,3.818,0,0,0-.02-3.856,2.882,2.882,0,0,1-.15-1.383q-.015-6.555-.005-13.11c0-3.992,3.068-5.908,6.625-4.135,4.385,2.185,8.758,4.394,13.152,6.561a4.312,4.312,0,0,1-.047,8.091c-3.467,1.695-6.906,3.448-10.355,5.179-.292.146-.578.3-.941.494,1.319,1.4,1.3,3.1,1.239,4.8,6.888,0,13.608,0,20.328,0,1.785,0,2.273-.486,2.273-2.267q0-12.253,0-24.506c0-1.793-.483-2.281-2.258-2.281q-18.7,0-37.405,0c-1.831,0-2.294.474-2.294,2.345q0,12.2,0,24.4c0,.235-.012.472.008.706a1.514,1.514,0,0,0,1.522,1.572C61.728,196.847,64.41,196.814,67.128,196.814Zm6.528,30.628V226.18q0-15.08,0-30.161a5.665,5.665,0,0,0-.026-1.007,1.6,1.6,0,0,0-3.174-.005,5.64,5.64,0,0,0-.026,1.007q0,15.131,0,30.261v1.167H67.2v-.725c0-2.253.027-4.506-.011-6.758a5.455,5.455,0,0,0-5.022-5.367c-1.222-.074-1.706.6-1.186,1.688q.737,1.545,1.536,3.061a12.587,12.587,0,0,1,1.464,6.2c-.043,2.185-.01,4.371-.009,6.556a8,8,0,0,0,1.735,5.049c1.138,1.457,2.285,2.908,3.479,4.318a1.6,1.6,0,0,0,1.072.525q8.219.05,16.438,0a1.737,1.737,0,0,0,1.149-.572c1.157-1.354,2.248-2.764,3.358-4.157a7.48,7.48,0,0,0,1.786-4.62q.077-8.523-.014-17.047a2.276,2.276,0,0,0-1-1.556,7.912,7.912,0,0,0-2.208-.622v14H86.55V212.606l-3.253-.788v15.626H80.109V210.991l-3.251-.783v17.234ZM61.23,235.563a10.38,10.38,0,0,1-.29-1.542c-.085-2.685-.2-5.371-.172-8.056a11.583,11.583,0,0,0-1.333-5.613,1.459,1.459,0,0,0-1.517-.951q-25.463.041-50.926.02H5.877c0,4.644,0,9.146,0,13.648,0,2.076.41,2.494,2.45,2.494h52.9ZM22.047,167.745v-6.351h9.694v6.3h3.206v-6.325h9.694v6.4c3.232,0,6.354.009,9.476-.019a.93.93,0,0,0,.656-.44,5.049,5.049,0,0,1,4.866-2.778c9.645.024,19.29.01,28.935.01h1.219v-3.859c0-2.217-.373-2.6-2.547-2.6H8.406c-.2,0-.4,0-.6,0-1.322.025-1.91.594-1.92,1.908-.014,1.882,0,3.765,0,5.647v2.047h3.27v-6.3h9.694v6.363Zm24.028,19.393c1.109-4.513-2.863-9.505-7.877-9.654-3.257-.1-6.521-.084-9.779,0a8.356,8.356,0,0,0-7.773,6.5,5.4,5.4,0,0,0-.011,3.271c1.088-.06,2.088-.115,3.087-.172,1.549-3.242,3.617-3.941,6.86-2.32.18.09.359.183.538.275a18.555,18.555,0,0,0,8.923,2.106C42.017,187.114,43.991,187.138,46.075,187.138ZM26.03,215.188c-.939-2.339-1.862-4.566-2.721-6.818a.81.81,0,0,0-1.125-.6,10.151,10.151,0,0,0-7.716,6.937,14.43,14.43,0,0,0-.339,1.44H52.44c-.264-3.9-4.364-8.067-8.264-8.392a1.022,1.022,0,0,0-.757.527c-.442.94-.8,1.92-1.185,2.886-.53,1.324-1.058,2.649-1.606,4.021-2.291-1.142-4.438-2.246-6.622-3.272a1.793,1.793,0,0,0-1.354,0C30.467,212.94,28.318,214.045,26.03,215.188Zm44.4-32.933c0,2.216-.007,4.433,0,6.649.006,1.355.645,1.749,1.865,1.142,4.412-2.2,8.825-4.391,13.216-6.628.423-.216.955-.714.967-1.1s-.505-.908-.92-1.12c-4.419-2.256-8.861-4.466-13.3-6.678-1.223-.609-1.821-.215-1.826,1.183C70.423,177.889,70.428,180.072,70.428,182.254Zm19.225,69.419a13.074,13.074,0,0,0-2.147-6.084,1.147,1.147,0,0,0-.85-.327q-8.161-.029-16.322,0c-.271,0-.674.068-.792.249a12.629,12.629,0,0,0-2.182,6.166ZM39.736,190.41c-.794-.052-1.464-.086-2.132-.142a23.21,23.21,0,0,1-8.944-2.847c-1.107-.584-1.78-.179-1.79,1.04-.018,2.283-.043,4.567.01,6.849a4.815,4.815,0,0,0,4.7,4.72c1.173.043,2.351.044,3.524,0a4.723,4.723,0,0,0,4.6-4.149C39.862,194.089,39.736,192.274,39.736,190.41Zm37.188,16.462,12.787,3.187v-9.951H76.924Zm-46.5-3.631c0,.471-.174,1.036.03,1.267.9,1.017,1.9,1.939,2.94,2.969.809-.845,1.491-1.637,2.258-2.335.636-.578.891-1.133.316-1.9ZM12.378,167.7h3.1v-3.106h-3.1Zm12.927-3.14V167.7H28.39v-3.139Zm16,3.172v-3.139h-3.09v3.139Zm1.774,22.7v3.109c2.233.161,3.154-.313,3.145-1.575S45.261,190.224,43.077,190.435ZM23.6,190.387c-1.122.033-2.328-.382-2.927.838a1.989,1.989,0,0,0,.093,1.654c.668,1.067,1.8.68,2.834.666ZM35.97,209.248l2.963,1.477,1.583-3.962a5.738,5.738,0,0,0-2.138.281A18.744,18.744,0,0,0,35.97,209.248Zm-9.7-2.155,1.453,3.641,2.983-1.5a17.1,17.1,0,0,1-1.69-1.545A1.911,1.911,0,0,0,26.272,207.093Z" fill="#5038a1"/>
    </g>
  </g>
</svg>
