<svg xmlns="http://www.w3.org/2000/svg" width="100.482" height="100" viewBox="0 0 100.482 100">
  <g id="Grupo_131973" data-name="Grupo 131973" transform="translate(3999 9220.5)">
    <g id="Grupo_131968" data-name="Grupo 131968" transform="translate(-5423.792 -9406.297)">
      <path id="Trazado_116629" data-name="Trazado 116629" d="M1519.209,274.66a18.2,18.2,0,0,1,2.807,11.114h-29.085c.2-2.082.39-4.162.59-6.3h-43.857l2.069,6.327h-26.942c.107-.349.2-.68.309-1.005,1.044-3.153,2.11-6.3,3.117-9.465a2.731,2.731,0,0,0,0-1.536c-.691-2.244-1.547-4.441-2.161-6.7a18.148,18.148,0,0,1-.649-4.461c-.074-5.512-.058-11.026-.023-16.538a31.609,31.609,0,0,1,9.127-22.366,2.217,2.217,0,0,0,.522-1.4q.044-15.53.022-31.06c0-3.555,1.915-5.462,5.482-5.462h56.374c4.014,0,5.746,1.715,5.806,5.745,0,.2.018.393.033.711h1.105q8.053,0,16.107,0c3.347,0,5.305,1.969,5.307,5.334q.005,12.4,0,24.808c0,3.41-1.962,5.358-5.385,5.36-4.6,0-9.192,0-13.866,0v10.051l9.778,2.454c1.885.473,3.773.934,5.654,1.419a4.8,4.8,0,0,1,3.816,4.906q.018,8.219,0,16.438a11.2,11.2,0,0,1-2.4,7.016C1521.676,271.579,1520.453,273.092,1519.209,274.66Zm-61.6-12.962-.2-.069c-.472,1.059-.98,2.1-1.41,3.179a20.377,20.377,0,0,1-5.137,7.494c-.714.661-1.361,1.394-2.077,2.054-.431.4-.8.836-.366,1.346a1.652,1.652,0,0,0,1.144.449c14.594.022,29.189,0,43.783.045,1.248,0,2.152-.191,2.459-1.651-1.055-1.323-2.175-2.744-3.313-4.15a11.523,11.523,0,0,1-2.569-5.923,13.079,13.079,0,0,1-.091-1.507,39.137,39.137,0,0,1,.021-4.434c.38-3.568-.858-6.656-2.556-9.651a4.3,4.3,0,0,1,4.854-6.451,43.1,43.1,0,0,1,4.066,1.465v-9.64h-33.975c.671,3.315-.7,5.4-3.855,6.414a9.792,9.792,0,0,1,2.012,9.323,1.115,1.115,0,0,0,.009.671,6.153,6.153,0,0,1-.422,5.154c-.642,1.35-1.219,2.732-1.888,4.241h12.33v12.8h-12.818Zm45.105-3.329V257.1q0-15.884,0-31.768a5.668,5.668,0,0,0-.026-1.006,1.6,1.6,0,0,0-3.168,0,5.708,5.708,0,0,0-.026,1.007q0,15.934,0,31.869v1.164h-3.222c0-.375,0-.7,0-1.029,0-2.151.027-4.3-.01-6.454a5.454,5.454,0,0,0-5.015-5.364c-1.219-.073-1.7.6-1.181,1.69.475,1,.965,1.995,1.486,2.971a12.714,12.714,0,0,1,1.509,6.394c-.048,2.15-.012,4.3-.009,6.454a8,8,0,0,0,1.733,5.047c1.138,1.455,2.281,2.907,3.473,4.317a1.6,1.6,0,0,0,1.07.524q8.2.05,16.409,0a1.732,1.732,0,0,0,1.147-.574c1.155-1.353,2.244-2.762,3.352-4.156a7.487,7.487,0,0,0,1.782-4.62q.076-8.521-.015-17.043a2.273,2.273,0,0,0-1-1.555,7.874,7.874,0,0,0-2.2-.616v13.99h-3.215v-14.81l-3.248-.788v15.622h-3.183V241.925l-3.22-.79v17.234ZM1441.5,219.506v-1.049q0-10.489,0-20.978a4.85,4.85,0,0,1,5.212-5.225q12.484-.008,24.968,0c3.279,0,5.256,1.987,5.258,5.282q.006,12.455,0,24.911c0,3.341-1.98,5.307-5.336,5.309q-8.859,0-17.719,0h-.908l-1.262,3.163h44.48v-3.108a2.136,2.136,0,0,0-.273-.047c-2.45,0-4.9,0-7.349-.009a4.848,4.848,0,0,1-5.185-5.153q-.011-12.607,0-25.214a4.831,4.831,0,0,1,5.1-5.134c3.289-.01,6.578,0,9.866,0h1.055c.29-2.274.036-3.264-2.738-3.256-18.692.055-37.385.029-56.077.029-1.849,0-2.316.467-2.316,2.319q0,14.019,0,28.038v.921Zm64.666,5.023c4.505,0,9.131,0,13.757,0,1.582,0,2.122-.536,2.123-2.108q0-12.4,0-24.8c0-1.593-.531-2.134-2.1-2.135q-15.6,0-31.2,0c-1.63,0-2.143.526-2.144,2.187q0,8.116,0,16.232c0,2.924-.008,5.848,0,8.772,0,1.085.527,1.808,1.466,1.826,2.711.051,5.423.018,8.12.018.639-3.711,2.582-5.1,6.426-4.654.25-1.685.206-1.982-.43-2.324a4.664,4.664,0,0,1-2.681-4.291,4.747,4.747,0,0,1,2.642-4.327,1.252,1.252,0,0,0,.537-.893c.05-1.847.025-3.7.025-5.545v-3.7h3.222c0,3.091.01,6.112-.01,9.133a1.026,1.026,0,0,0,.627,1.085,4.759,4.759,0,0,1,0,8.47,1.006,1.006,0,0,0-.624,1.089c.034.9.009,1.8.009,2.7l-.981.1Zm-67.613,48.414a30.933,30.933,0,0,1,3.921.03,5.71,5.71,0,0,0,5.473-2.256c1.546-1.807,3.38-3.373,4.377-5.6,1.672-3.734,3.334-7.474,4.949-11.233a3.242,3.242,0,0,0,.192-1.742,2.122,2.122,0,0,0-1.86-1.746,2.5,2.5,0,0,0-2.725,1.074c-1.192,1.787-2.333,3.61-3.587,5.352a7.823,7.823,0,0,1-8.781,2.812,7.922,7.922,0,0,1-5.46-7.348c-.194-8.575,5.928-14.844,14.5-14.847,2.616,0,5.233.011,7.849-.006a1.642,1.642,0,0,0,1.809-1.706c-.056-.936-.752-1.509-1.9-1.512-3.656-.009-7.313-.025-10.968.012a17.92,17.92,0,0,0-3.194.311c-6.2,1.2-12.468,5.329-13.97,14.448-.822,4.988-.524,9.982-.513,14.979a7.457,7.457,0,0,0,.447,2.162c.645,2.046,1.359,4.071,2,6.118a.861.861,0,0,0,1,.712C1434.26,272.922,1436.406,272.943,1438.553,272.943Zm7.726-49.951a5.639,5.639,0,0,1,5.132,1.376,1.017,1.017,0,0,0,.655.154q9.968.011,19.934,0a1.567,1.567,0,0,0,1.708-1.7q.027-7.967,0-15.935a1.605,1.605,0,1,0-3.2-.008c-.029.94,0,1.882-.009,2.824a4.842,4.842,0,1,1-9.664-.022c-.007-1.983.017-3.967-.009-5.95a1.6,1.6,0,0,0-2.211-1.65,1.721,1.721,0,0,0-1.008,1.8q.016,6.2,0,12.405a4.832,4.832,0,1,1-9.659.022c-.014-1.513.016-3.026-.01-4.538a1.618,1.618,0,0,0-1.759-1.759c-.458-.016-.917,0-1.455,0,0,2.692.012,5.273,0,7.855C1444.707,219.662,1444.434,221.521,1446.279,222.992Zm27.44-21.029c0-1.427.011-3,0-4.572-.012-1.314-.6-1.906-1.914-1.907q-12.577-.011-25.154,0c-1.354,0-1.92.6-1.923,2q-.013,4.284,0,8.567c0,.223.043.447.072.726.352,0,.649,0,.946,0,3.5.016,5.417,1.929,5.422,5.417,0,1.411-.076,2.829.045,4.23a2.055,2.055,0,0,0,.892,1.409,1.663,1.663,0,0,0,1.543-.112,2.428,2.428,0,0,0,.711-1.635c.058-4.1.023-8.2.034-12.3a4.837,4.837,0,1,1,9.661.036c.01,1.915,0,3.83,0,5.745,0,1.282.583,2.02,1.58,2.039s1.627-.73,1.639-1.981c.009-1.008-.021-2.017.012-3.023a4.69,4.69,0,0,1,3.468-4.439A17.45,17.45,0,0,1,1473.719,201.963Zm44.968,80.631a13.092,13.092,0,0,0-2.145-6.085,1.147,1.147,0,0,0-.849-.325q-8.147-.028-16.293-.007c-.249,0-.623.022-.727.177a12.729,12.729,0,0,0-2.25,6.24Zm-89.431-.073h18.005c-.672-2.026-1.288-3.942-1.96-5.838a.94.94,0,0,0-.7-.491q-6.342-.045-12.685,0a.853.853,0,0,0-.661.408C1430.56,278.552,1429.919,280.525,1429.255,282.521Zm28.245-35.078c.482-2.689-1.725-5.8-4.692-6.562a6.424,6.424,0,0,0-7.727,4.157,6.212,6.212,0,0,0,3.1,7.667c.681-1.022,1.352-2.065,2.058-3.082a5.365,5.365,0,0,1,4.488-2.475A21.929,21.929,0,0,1,1457.5,247.443ZM1442.343,243a10.379,10.379,0,0,0-3.831,6.452,11.32,11.32,0,0,0,.026,4.066,4.2,4.2,0,0,0,3.614,3.212,4.437,4.437,0,0,0,4.016-1.255C1441.834,252.28,1440.5,248.241,1442.343,243Zm24.852,26.682v-6.366h-6.3v6.366Zm-37.385-31.869a2.162,2.162,0,0,0,.3-.27,35.878,35.878,0,0,1,12.466-12.731,1.014,1.014,0,0,0,.221-.949,1.958,1.958,0,0,0-3.027-.459A28.533,28.533,0,0,0,1429.811,237.809Zm8.018-5.279a43.522,43.522,0,0,1,6.087-1.3c2.082-.145,3.531-1.291,5.034-2.416a1.491,1.491,0,0,0-.652-2.579,3.526,3.526,0,0,0-2.11.286,37.433,37.433,0,0,0-4.342,2.7C1440.5,230.188,1439.278,231.325,1437.829,232.53Zm66.469-17.693a1.606,1.606,0,1,0-1.574-1.634A1.625,1.625,0,0,0,1504.3,214.837Z" fill="#5038a1"/>
      <path id="Trazado_116630" data-name="Trazado 116630" d="M1580.514,377.845a9.68,9.68,0,1,1-9.713,9.628A9.695,9.695,0,0,1,1580.514,377.845Zm6.39,9.727a6.441,6.441,0,1,0-6.515,6.4A6.462,6.462,0,0,0,1586.9,387.572Z" transform="translate(-106.745 -140.403)" fill="#5038a1"/>
      <path id="Trazado_116631" data-name="Trazado 116631" d="M1619.745,474.923h-12.727V462.1h12.727Zm-3.185-9.593h-6.319v6.336h6.319Z" transform="translate(-133.222 -202.002)" fill="#5038a1"/>
      <path id="Trazado_116632" data-name="Trazado 116632" d="M1673.127,256.575h-3.222V255.5c0-2.687-.008-5.374.007-8.06a1.02,1.02,0,0,0-.6-1.1,4.748,4.748,0,0,1-.05-8.457,1.072,1.072,0,0,0,.65-1.174c-.03-.838-.008-1.677-.008-2.6h3.222c0,.866.021,1.759-.008,2.65a1,1,0,0,0,.61,1.1,4.757,4.757,0,0,1,.035,8.464,1.089,1.089,0,0,0-.644,1.176C1673.136,250.482,1673.127,253.47,1673.127,256.575Zm-1.583-12.873a1.606,1.606,0,1,0-1.63-1.579A1.625,1.625,0,0,0,1671.543,243.7Z" transform="translate(-176.855 -35.32)" fill="#5038a1"/>
      <path id="Trazado_116633" data-name="Trazado 116633" d="M1744.983,256.36h-3.222v-1.069c0-3.728-.01-7.457.01-11.185a1.163,1.163,0,0,0-.686-1.255,4.67,4.67,0,0,1-2.389-5.357,4.81,4.81,0,0,1,9.337-.054,4.689,4.689,0,0,1-2.323,5.388,1.241,1.241,0,0,0-.738,1.323C1744.994,248.181,1744.983,252.211,1744.983,256.36Zm-.009-17.664a1.6,1.6,0,1,0-1.645,1.565A1.622,1.622,0,0,0,1744.975,238.7Z" transform="translate(-229.379 -35.106)" fill="#5038a1"/>
    </g>
  </g>
</svg>
