<svg xmlns="http://www.w3.org/2000/svg" width="190" height="100" viewBox="0 0 190 100">
  <g id="Grupo_121008" data-name="Grupo 121008" transform="translate(4886 10974)">
    <g id="Grupo_121007" data-name="Grupo 121007" transform="translate(-5066 -11807.301)">
      <rect id="Rectángulo_33803" data-name="Rectángulo 33803" width="190" height="100" transform="translate(180 833.301)" fill="none"/>
      <path id="Trazado_113613" data-name="Trazado 113613" d="M-22,0H107a40,40,0,0,1,0,80H-22Z" transform="translate(202 843.301)" fill="rgba(121,210,220,0.2)"/>
      <g id="donacion-de-alimentos" transform="translate(225 830.946)">
        <g id="Grupo_117327" data-name="Grupo 117327" transform="translate(59.081 17.437)">
          <path id="Trazado_113718" data-name="Trazado 113718" d="M324.655,82.3a11.744,11.744,0,0,0-2.547-1.879,12.557,12.557,0,0,0-2.99-1.178,12.868,12.868,0,0,0-6.333.045,11.834,11.834,0,0,0-7.028,5.049,12.164,12.164,0,0,0-1.139,2.4c-1.571,5.307-5.121,12.789-4.9,24.076l15.913-3.663,9.626-10.08a11.114,11.114,0,0,0,1.043-1.391,10.449,10.449,0,0,0,1.341-8.246A10.869,10.869,0,0,0,324.655,82.3Z" transform="translate(-299.711 -78.871)" fill="#f87c00" fill-rule="evenodd"/>
        </g>
        <g id="Grupo_117328" data-name="Grupo 117328" transform="translate(70.632 5.021)">
          <path id="Trazado_113719" data-name="Trazado 113719" d="M367.547,24.038a9.592,9.592,0,0,0-2.732-4.65L361.4,16.3c-.7-.634-1.015-.555-1.3.314l-1.4,4.241a9.752,9.752,0,0,0,1.133,7.864c2.036-.533,5.43,1.666,7.539,2.193A37.609,37.609,0,0,1,367.547,24.038Z" transform="translate(-358.311 -15.881)" fill="#42ccdc" fill-rule="evenodd"/>
        </g>
        <g id="Grupo_117329" data-name="Grupo 117329" transform="translate(78.488 6.955)">
          <path id="Trazado_113720" data-name="Trazado 113720" d="M407.479,36.12A9.319,9.319,0,0,0,409.095,31l-.073-4.431c-.017-.914-.3-1.071-1.161-.645L403.653,28a10.211,10.211,0,0,0-4.112,3.915,9.209,9.209,0,0,0-1.38,4.633c1.116,2.821,2.962,4.112,5.536,3.057A10.1,10.1,0,0,0,407.479,36.12Z" transform="translate(-398.162 -25.696)" fill="#42ccdc" fill-rule="evenodd"/>
        </g>
        <g id="Grupo_117330" data-name="Grupo 117330" transform="translate(82.246 17.061)">
          <path id="Trazado_113721" data-name="Trazado 113721" d="M429.816,83.028l3.315-3.186c.679-.651.6-.948-.337-1.212l-4.549-1.307a11.081,11.081,0,0,0-5.458-.045c-.953,1.464-4.055,2.721-5.559,3.489,1.486,1.447,4.285,3.225,4.768,5.127A11.54,11.54,0,0,0,429.816,83.028Z" transform="translate(-417.229 -76.96)" fill="#42ccdc" fill-rule="evenodd"/>
        </g>
        <g id="Grupo_117331" data-name="Grupo 117331" transform="translate(68.929 17.437)">
          <path id="Trazado_113722" data-name="Trazado 113722" d="M361.409,87.714a10.417,10.417,0,0,1-.55,6.765,12.187,12.187,0,0,1-.791,1.481,11.681,11.681,0,0,1-1.043,1.391q-4.678,4.9-9.351,9.794h6.075l4.016-4.207,5.609-5.873a11.119,11.119,0,0,0,1.043-1.391,10.449,10.449,0,0,0,1.341-8.246,10.868,10.868,0,0,0-2.99-5.127,11.742,11.742,0,0,0-2.547-1.879,12.556,12.556,0,0,0-2.99-1.178,12.868,12.868,0,0,0-6.333.045c-.163.045-.32.09-.482.14.157.028.309.067.46.107A11.534,11.534,0,0,1,361.409,87.714Z" transform="translate(-349.674 -78.87)" fill="#d96c00" fill-rule="evenodd"/>
        </g>
        <g id="Grupo_117332" data-name="Grupo 117332" transform="translate(71.93 5.02)">
          <path id="Trazado_113723" data-name="Trazado 113723" d="M365.385,16.611l-.488,1.47,2.39,2.16a9.633,9.633,0,0,1,2.726,4.645,9.9,9.9,0,0,0-1.279,3.416,12.853,12.853,0,0,1,2.72.37,9.209,9.209,0,0,1,1.38-4.633,9.592,9.592,0,0,0-2.732-4.65L366.686,16.3c-.7-.634-1.015-.556-1.3.314Z" transform="translate(-364.897 -15.88)" fill="#0ba1b3" fill-rule="evenodd"/>
        </g>
        <g id="Grupo_117333" data-name="Grupo 117333" transform="translate(82.033 6.955)">
          <path id="Trazado_113724" data-name="Trazado 113724" d="M420.291,30.225a9.308,9.308,0,0,1-1.61,5.116,10.732,10.732,0,0,1-2.535,2.715,11.682,11.682,0,0,1,1.991,1.554,10.1,10.1,0,0,0,3.781-3.489A9.319,9.319,0,0,0,423.533,31l-.073-4.431c-.017-.914-.3-1.071-1.161-.645l-2.059,1.021Z" transform="translate(-416.146 -25.696)" fill="#0ba1b3" fill-rule="evenodd"/>
        </g>
        <g id="Grupo_117334" data-name="Grupo 117334" transform="translate(86.318 18.119)">
          <path id="Trazado_113725" data-name="Trazado 113725" d="M443.933,85.529a11.121,11.121,0,0,1-6.047,2.743,10.907,10.907,0,0,1,.7,1.935A11.54,11.54,0,0,0,446.4,87.34l3.315-3.186c.679-.651.6-.948-.336-1.212l-2.12-.611c-.006.006-.011.011-.017.011Z" transform="translate(-437.886 -82.331)" fill="#0ba1b3" fill-rule="evenodd"/>
        </g>
        <g id="Grupo_117335" data-name="Grupo 117335" transform="translate(15.821 9.285)">
          <path id="Trazado_113726" data-name="Trazado 113726" d="M105.8,53.679c-1.913-1.425-3.893-1.6-3.893-7.158V39.3l-7.623-1.784L87.641,39.3v7.225c0,10.355-7.382,7.365-7.382,17.49v9.929l21.024,5.346C106.263,76.852,108.765,64.808,105.8,53.679Z" transform="translate(-80.259 -37.513)" fill="#79d2dc" fill-rule="evenodd"/>
        </g>
        <g id="Grupo_117336" data-name="Grupo 117336" transform="translate(21.486 3.832)">
          <path id="Trazado_113727" data-name="Trazado 113727" d="M126.7,16.433V10.5a.683.683,0,0,0-.707-.651H109.7a.678.678,0,0,0-.7.651v5.929a.682.682,0,0,0,.7.656h16.295A.687.687,0,0,0,126.7,16.433Z" transform="translate(-108.998 -9.853)" fill="#ffb933" fill-rule="evenodd"/>
        </g>
        <g id="Grupo_117337" data-name="Grupo 117337" transform="translate(31.286 11.068)">
          <path id="Trazado_113728" data-name="Trazado 113728" d="M159.343,46.562v8.111c0,5.553,1.98,5.733,3.893,7.158a45.5,45.5,0,0,0-3.276,9.329,44.9,44.9,0,0,0-1.251,10.046h5.559a44.272,44.272,0,0,1,1.24-10.933,45.845,45.845,0,0,1,3.276-9.329c-1.913-1.425-3.893-1.6-3.893-7.158V46.562Z" transform="translate(-158.709 -46.562)" fill="#0ec7dc" fill-rule="evenodd"/>
        </g>
        <g id="Grupo_117338" data-name="Grupo 117338" transform="translate(32.935 3.832)">
          <path id="Trazado_113729" data-name="Trazado 113729" d="M167.776,10.5v5.929a.682.682,0,0,1-.7.656h5.547a.687.687,0,0,0,.707-.656V10.5a.683.683,0,0,0-.707-.651h-5.547A.678.678,0,0,1,167.776,10.5Z" transform="translate(-167.075 -9.853)" fill="#d98f00" fill-rule="evenodd"/>
        </g>
        <g id="Grupo_117339" data-name="Grupo 117339" transform="translate(36.838 13.113)">
          <path id="Trazado_113730" data-name="Trazado 113730" d="M214.027,69.119c-.83-6.507-3.579-11.191-7.735-12.049-5.127-1.055-10.955,4.028-14.893,12.2a45.845,45.845,0,0,0-3.276,9.329,44.274,44.274,0,0,0-1.24,10.933l14.337,11.516,10.063-11.516a47.9,47.9,0,0,0,1.767-5.794A41.687,41.687,0,0,0,214.027,69.119Z" transform="translate(-186.877 -56.932)" fill="#ffb933" fill-rule="evenodd"/>
        </g>
        <g id="Grupo_117340" data-name="Grupo 117340" transform="translate(6.223 45.713)">
          <path id="Trazado_113731" data-name="Trazado 113731" d="M75.81,277.472l3.562-19.515L75.81,222.309,31.57,238.335v38.122a1.02,1.02,0,0,0,1,1.015Z" transform="translate(-31.57 -222.309)" fill="#ffec80" fill-rule="evenodd"/>
        </g>
        <g id="Grupo_117341" data-name="Grupo 117341" transform="translate(50.464 45.712)">
          <path id="Trazado_113732" data-name="Trazado 113732" d="M300.239,276.456V238.334L256,222.308v55.163h43.236A1.016,1.016,0,0,0,300.239,276.456Z" transform="translate(-255.999 -222.308)" fill="#ffdb10" fill-rule="evenodd"/>
        </g>
        <g id="Grupo_117342" data-name="Grupo 117342" transform="translate(1.48 45.712)">
          <path id="Trazado_113733" data-name="Trazado 113733" d="M48.83,237.336l7.662-15.028H16.284a1.9,1.9,0,0,0-1.5.993L7.629,237.336c-.281.55-.056,1,.488,1H47.332A1.892,1.892,0,0,0,48.83,237.336Z" transform="translate(-7.508 -222.308)" fill="#ffec80" fill-rule="evenodd"/>
        </g>
        <g id="Grupo_117343" data-name="Grupo 117343" transform="translate(50.464 45.712)">
          <path id="Trazado_113734" data-name="Trazado 113734" d="M304.861,237.335,297.7,223.3a1.9,1.9,0,0,0-1.5-.993H256l7.662,15.028a1.892,1.892,0,0,0,1.5,1h39.215C304.923,238.333,305.142,237.885,304.861,237.335Z" transform="translate(-255.999 -222.307)" fill="#ffec80" fill-rule="evenodd"/>
        </g>
        <g id="Grupo_117344" data-name="Grupo 117344" transform="translate(50.464 45.712)">
          <path id="Trazado_113735" data-name="Trazado 113735" d="M300.239,238.334h-35.08a1.893,1.893,0,0,1-1.5-1L256,222.308v10.069l5.435,10.95a1.885,1.885,0,0,0,1.5.993h30.206c1.688,0,1.442-.292,1.442,1.369v31.783h4.644a1.018,1.018,0,0,0,1.015-1.015Z" transform="translate(-255.999 -222.308)" fill="#d9ba0e" fill-rule="evenodd"/>
        </g>
        <g id="Grupo_117345" data-name="Grupo 117345" transform="translate(6.223 45.712)">
          <path id="Trazado_113736" data-name="Trazado 113736" d="M66.65,238.333H31.57v5.985H68.642a1.907,1.907,0,0,0,1.5-.993l5.671-10.95V222.307l-7.662,15.028A1.892,1.892,0,0,1,66.65,238.333Z" transform="translate(-31.57 -222.307)" fill="#ffe44d" fill-rule="evenodd"/>
        </g>
        <g id="Grupo_117346" data-name="Grupo 117346" transform="translate(82.981 45.712)">
          <path id="Trazado_113737" data-name="Trazado 113737" d="M428.646,222.308h-7.69a1.89,1.89,0,0,1,1.5.993l7.157,14.035c.275.544.062.987-.471,1h7.673c.55,0,.768-.449.488-1L430.144,223.3A1.9,1.9,0,0,0,428.646,222.308Z" transform="translate(-420.956 -222.308)" fill="#ffe44d" fill-rule="evenodd"/>
        </g>
        <g id="Grupo_117347" data-name="Grupo 117347" transform="translate(34.107 45.712)">
          <path id="Trazado_113738" data-name="Trazado 113738" d="M182.182,222.308l-7.662,15.028a1.9,1.9,0,0,1-1.5,1h7.2a1.893,1.893,0,0,0,1.5-1l7.662-15.028Z" transform="translate(-173.022 -222.308)" fill="#ffe44d" fill-rule="evenodd"/>
        </g>
        <g id="Grupo_117348" data-name="Grupo 117348" transform="translate(51.333 13.114)">
          <path id="Trazado_113739" data-name="Trazado 113739" d="M260.409,57.788c3.882,1.105,6.451,5.677,7.253,11.926a41.69,41.69,0,0,1-.982,14.618,48.978,48.978,0,0,1-1.548,5.205h5.189a47.9,47.9,0,0,0,1.767-5.794,41.686,41.686,0,0,0,.976-14.618c-.83-6.507-3.579-11.191-7.735-12.049a7.822,7.822,0,0,0-4.919.712Z" transform="translate(-260.409 -56.939)" fill="#ffa800" fill-rule="evenodd"/>
        </g>
        <g id="Grupo_117349" data-name="Grupo 117349" transform="translate(0 2.354)">
          <path id="Trazado_113740" data-name="Trazado 113740" d="M100.643,60.068l-7.155-14.03a3.355,3.355,0,0,0-2.817-1.8H78.46L85.7,36.653l.039-.042a12.629,12.629,0,0,0,1.184-1.578,11.933,11.933,0,0,0,1.835-7.665,12.625,12.625,0,0,0,7.1-3.174l3.314-3.185a2.311,2.311,0,0,0,.85-2.17,2.323,2.323,0,0,0-1.8-1.529L93.67,16a11.517,11.517,0,0,0-3.338-.417,9.83,9.83,0,0,0,.566-3.353L90.825,7.8a2.342,2.342,0,0,0-.961-2.054,2.4,2.4,0,0,0-2.334.112l-4.2,2.08A11.021,11.021,0,0,0,80.272,10.2a10.336,10.336,0,0,0-2.144-2.77L74.711,4.34A2.385,2.385,0,0,0,72.528,3.6a2.368,2.368,0,0,0-1.514,1.686l-1.4,4.24a10.9,10.9,0,0,0,.448,7.487,13.24,13.24,0,0,0-5.433,4.034,18.155,18.155,0,0,0-2.074-4.773A9.476,9.476,0,0,0,56.55,11.8c-5.523-1.134-11.535,3.556-15.768,11.49-1.121-.755-1.837-1.59-1.837-5V12.5a2.15,2.15,0,0,0,1.722-2.085V4.483a2.16,2.16,0,0,0-2.185-2.129H22.187a2.157,2.157,0,0,0-2.18,2.129v5.929A2.149,2.149,0,0,0,21.724,12.5v5.8c0,4.586-1.52,6.079-3.28,7.807-1.923,1.888-4.1,4.029-4.1,9.683v8.45H10.257a3.353,3.353,0,0,0-2.815,1.8L.285,60.068A2.2,2.2,0,0,0,.3,62.257a2.067,2.067,0,0,0,1.792.96H4.745V77.332a1.519,1.519,0,0,0,1.433,1.54A1.479,1.479,0,0,0,7.7,77.395V63.217H41.3a3.345,3.345,0,0,0,2.815-1.805l4.867-9.545V99.4H7.7V84.249a1.478,1.478,0,0,0-2.957,0V99.86a2.5,2.5,0,0,0,2.494,2.494h86.45a2.5,2.5,0,0,0,2.494-2.494V63.218l2.671,0a2.05,2.05,0,0,0,1.784-.97,2.2,2.2,0,0,0,.006-2.178ZM92.854,18.845l3.312.952-2.36,2.268a9.817,9.817,0,0,1-5.719,2.4,12.257,12.257,0,0,0-1.806-3.287,11.971,11.971,0,0,0,2.409-2.474,9.372,9.372,0,0,1,4.164.137Zm-8.219-8.257,3.253-1.609.054,3.3a8.78,8.78,0,0,1-3.75,6.763,13.6,13.6,0,0,0-2-1.348,13.771,13.771,0,0,0-2.132-.946,8.987,8.987,0,0,1,4.575-6.161Zm-12.209-.133L73.49,7.223l2.655,2.4a7.91,7.91,0,0,1,2.122,3.361,11.125,11.125,0,0,0-1.091,3.089,14.318,14.318,0,0,0-4.24.116,8.077,8.077,0,0,1-.51-5.737Zm-7.975,29.8A43.525,43.525,0,0,0,65.5,25.491a9.763,9.763,0,0,1,.878-1.795,10.944,10.944,0,0,1,14.389-3.413,9.673,9.673,0,0,1,4.817,6.068,8.973,8.973,0,0,1-1.154,7.1c-.046.072-.094.142-.141.213l-8.41-4.64a1.478,1.478,0,0,0-1.428,2.589l7.846,4.329-3.555,3.723-5.8-3.2a1.478,1.478,0,1,0-1.429,2.588l5.119,2.826-2.255,2.361H63.33C63.752,42.941,64.128,41.612,64.45,40.258ZM22.965,5.311H37.711V9.59H22.965ZM17.3,35.784c0-4.414,1.491-5.878,3.217-7.574,1.952-1.917,4.164-4.09,4.164-9.917V12.547H35.989v5.747c0,4.929,1.5,6.391,3.489,7.678a48.376,48.376,0,0,0-2.831,8.467,46.318,46.318,0,0,0-1.278,9.8H17.3ZM41.48,60.077a.578.578,0,0,1-.227.183H3.506l6.572-12.886a.587.587,0,0,1,.23-.183H48.051ZM38.327,44.234a43.392,43.392,0,0,1,1.2-9.113c2.914-12.3,10.44-21.653,16.431-20.422a6.522,6.522,0,0,1,4.111,3.168C63.008,22.482,63.6,31,61.574,39.575A46.992,46.992,0,0,1,60.2,44.234H38.327ZM79.278,60.271a1.478,1.478,0,0,0,0,2.957h0l13.946-.008V99.4H51.942V51.866L56.8,61.4a3.374,3.374,0,0,0,2.819,1.816l12.8.011h0a1.478,1.478,0,0,0,0-2.957L59.681,60.26a.57.57,0,0,1-.238-.192L52.877,47.191H90.62a.586.586,0,0,1,.231.186l6.571,12.884Z" transform="translate(0 -2.354)"/>
          <path id="Trazado_113741" data-name="Trazado 113741" d="M233.051,168.773l-11.488-2.367a1.478,1.478,0,1,0-.6,2.9l11.488,2.367a1.478,1.478,0,1,0,.6-2.9Z" transform="translate(-176.461 -134.043)"/>
          <path id="Trazado_113742" data-name="Trazado 113742" d="M243.561,125.705l6.871,1.414a1.478,1.478,0,0,0,.6-2.9l-6.871-1.414a1.478,1.478,0,0,0-.6,2.9Z" transform="translate(-194.601 -99.04)"/>
          <path id="Trazado_113743" data-name="Trazado 113743" d="M75.8,401.478H88.2a1.478,1.478,0,0,0,0-2.957H75.8a1.478,1.478,0,0,0,0,2.957Z" transform="translate(-59.672 -320.427)"/>
          <path id="Trazado_113744" data-name="Trazado 113744" d="M75.8,439.211H88.2a1.478,1.478,0,0,0,0-2.957H75.8a1.478,1.478,0,0,0,0,2.957Z" transform="translate(-59.672 -350.722)"/>
        </g>
      </g>
    </g>
  </g>
</svg>
