<svg xmlns="http://www.w3.org/2000/svg" width="95" height="95" viewBox="0 0 95 95">
  <g id="Grupo_131765" data-name="Grupo 131765" transform="translate(-336 -1828)">
    <g id="Elipse_5098" data-name="Elipse 5098" transform="translate(336 1828)" fill="#fff" stroke="#5038a1" stroke-width="8">
      <circle cx="47.5" cy="47.5" r="47.5" stroke="none"/>
      <circle cx="47.5" cy="47.5" r="43.5" fill="none"/>
    </g>
    <g id="Grupo_131745" data-name="Grupo 131745" transform="translate(361.101 1849.979)">
      <g id="Page-1" transform="translate(0 -0.001)">
        <g id="Core" transform="translate(0 0)">
          <g id="event">
            <path id="Shape" d="M31.652-2.916v4.87H12.174v-4.87c0-2.557-4.87-2.733-4.87,0v4.87H4.87A4.884,4.884,0,0,0,0,6.823V40.91a4.884,4.884,0,0,0,4.87,4.87H38.956a4.884,4.884,0,0,0,4.87-4.87V6.823a4.884,4.884,0,0,0-4.87-4.87H36.521v-4.87c0-2.643-4.87-2.819-4.87,0Zm7.3,43.826H4.87V14.127H38.956V40.91Z" transform="translate(0 4.965)" fill="#5038a1" fill-rule="evenodd"/>
          </g>
        </g>
      </g>
      <path id="XMLID_328_" d="M19.289,8.52a1.2,1.2,0,0,0-.96-.818L13.8,7.024,11.76,2.7a1.191,1.191,0,0,0-2.166,0L7.585,7.009,3.025,7.7a1.205,1.205,0,0,0-.96.818,1.242,1.242,0,0,0,.288,1.268l3.3,3.375-.779,4.758a1.23,1.23,0,0,0,.5,1.214,1.171,1.171,0,0,0,1.252.071l4.022-2.246,4.079,2.246a1.173,1.173,0,0,0,1.252-.071,1.229,1.229,0,0,0,.5-1.214l-.78-4.764L19,9.788A1.242,1.242,0,0,0,19.289,8.52Z" transform="translate(11.278 21.856)" fill="#5038a1"/>
    </g>
  </g>
</svg>
