<svg xmlns="http://www.w3.org/2000/svg" width="136.973" height="136.973" viewBox="0 0 136.973 136.973">
  <g id="Grupo_132226" data-name="Grupo 132226" transform="translate(-736 -1726)">
    <g id="Grupo_89571" data-name="Grupo 89571" transform="translate(736 1726)">
      <g id="Trazado_137458" data-name="Trazado 137458" transform="translate(0 0)" fill="#fff">
        <path d="M 68.48631286621094 131.9726409912109 C 59.91350936889648 131.9726409912109 51.59981155395508 130.2947692871094 43.77611541748047 126.9856185913086 C 40.01535797119141 125.3949661254883 36.38774871826172 123.4259033203125 32.9940071105957 121.1331405639648 C 29.6312255859375 118.8612899780273 26.46885681152344 116.2520523071289 23.5947265625 113.3779220581055 C 20.72059631347656 110.503791809082 18.11135673522949 107.341423034668 15.83950805664062 103.9786376953125 C 13.5467472076416 100.5848999023438 11.57768249511719 96.95726776123047 9.987030029296875 93.196533203125 C 6.677877902984619 85.37283325195312 5.000008583068848 77.05912017822266 5.000008583068848 68.48631286621094 C 5.000008583068848 59.91350936889648 6.677877902984619 51.59981155395508 9.987030029296875 43.77611541748047 C 11.57768249511719 40.01535797119141 13.5467472076416 36.38774871826172 15.83950805664062 32.9940071105957 C 18.11135673522949 29.6312255859375 20.72059631347656 26.46885681152344 23.5947265625 23.5947265625 C 26.46885681152344 20.72059631347656 29.6312255859375 18.11135673522949 32.9940071105957 15.83950805664062 C 36.38774871826172 13.5467472076416 40.01535797119141 11.57768249511719 43.77611541748047 9.987030029296875 C 51.59981155395508 6.677877902984619 59.91350936889648 5.000008583068848 68.48631286621094 5.000008583068848 C 77.05912017822266 5.000008583068848 85.37283325195312 6.677877902984619 93.196533203125 9.987030029296875 C 96.95726776123047 11.57768249511719 100.5848999023438 13.5467472076416 103.9786376953125 15.83950805664062 C 107.341423034668 18.11135673522949 110.503791809082 20.72059631347656 113.3779220581055 23.5947265625 C 116.2520523071289 26.46885681152344 118.8612899780273 29.6312255859375 121.1331405639648 32.9940071105957 C 123.4259033203125 36.38774871826172 125.3949661254883 40.01535797119141 126.9856185913086 43.77611541748047 C 130.2947692871094 51.59981155395508 131.9726409912109 59.91350936889648 131.9726409912109 68.48631286621094 C 131.9726409912109 77.05912017822266 130.2947692871094 85.37283325195312 126.9856185913086 93.196533203125 C 125.3949661254883 96.95726776123047 123.4259033203125 100.5848999023438 121.1331405639648 103.9786376953125 C 118.8612899780273 107.341423034668 116.2520523071289 110.503791809082 113.3779220581055 113.3779220581055 C 110.503791809082 116.2520523071289 107.341423034668 118.8612899780273 103.9786376953125 121.1331405639648 C 100.5848999023438 123.4259033203125 96.95726776123047 125.3949661254883 93.196533203125 126.9856185913086 C 85.37283325195312 130.2947692871094 77.05912017822266 131.9726409912109 68.48631286621094 131.9726409912109 Z" stroke="none"/>
        <path d="M 68.48631286621094 10.00000762939453 C 36.23686981201172 10.00000762939453 10.00000762939453 36.23686981201172 10.00000762939453 68.48631286621094 C 10.00000762939453 100.7357559204102 36.23686981201172 126.9726181030273 68.48631286621094 126.9726181030273 C 100.7357559204102 126.9726181030273 126.9726181030273 100.7357559204102 126.9726181030273 68.48631286621094 C 126.9726181030273 36.23686981201172 100.7357559204102 10.00000762939453 68.48631286621094 10.00000762939453 M 68.48631286621094 0 C 106.3102569580078 0 136.9726257324219 30.66236877441406 136.9726257324219 68.48631286621094 C 136.9726257324219 106.3102569580078 106.3102569580078 136.9726257324219 68.48631286621094 136.9726257324219 C 30.66236877441406 136.9726257324219 0 106.3102569580078 0 68.48631286621094 C 0 30.66236877441406 30.66236877441406 0 68.48631286621094 0 Z" stroke="none" fill="#8c6df2"/>
      </g>
    </g>
    <g id="Grupo_132088" data-name="Grupo 132088" transform="translate(-657.569 1559.97)">
      <path id="Trazado_137469" data-name="Trazado 137469" d="M1462.229,320h28.627c1.552,0,1.953.409,1.954,1.985q0,4.346,0,8.692c0,1.4-.481,1.867-1.893,1.872-.847,0-1.7-.018-2.542.018a4.155,4.155,0,0,0-.405,8.252,30.589,30.589,0,0,0,3.188.095c1.131.022,1.646.508,1.649,1.634q.015,4.64,0,9.28a1.454,1.454,0,0,1-1.6,1.634c-.152,0-.3,0-.457,0h-57.124c-1.639,0-2.051-.409-2.051-2.04q0-4.346,0-8.692c0-1.356.454-1.8,1.794-1.819a26.89,26.89,0,0,0,2.993-.084,4.156,4.156,0,0,0-.43-8.265c-.89-.032-1.782,0-2.674-.016-1.148-.014-1.679-.535-1.682-1.685q-.013-4.542,0-9.084c0-1.3.472-1.776,1.768-1.777Q1447.784,320,1462.229,320Zm-4.24,25.1c2.715,0,5.429.007,8.144,0a1.44,1.44,0,0,0,1.621-1.407c0-.83-.638-1.376-1.63-1.4-.153,0-.3,0-.457,0h-12.574c-1.086,0-2.172-.011-3.258,0a1.42,1.42,0,0,0-1.474.957c-.327.984.373,1.84,1.549,1.845C1452.6,345.1,1455.3,345.1,1457.988,345.1Zm.029-16.731h-2.606c-1.911,0-3.822-.008-5.733.01a1.306,1.306,0,0,0-1.34,1.02,1.275,1.275,0,0,0,.606,1.51,2.458,2.458,0,0,0,1.057.227q8.014.021,16.027.009a3.539,3.539,0,0,0,.52-.018,1.4,1.4,0,0,0,1.2-1.406,1.374,1.374,0,0,0-1.267-1.337c-.215-.021-.434-.015-.651-.016Zm0,9.738c2.714,0,5.429,0,8.144,0a1.392,1.392,0,0,0,1.516-.97c.3-.978-.382-1.8-1.522-1.8q-8.144-.008-16.288,0a2.322,2.322,0,0,0-.454.027,1.39,1.39,0,0,0-.9,2.136,1.53,1.53,0,0,0,1.421.617C1452.634,338.1,1455.327,338.1,1458.02,338.1Zm15.3-9.77h0c0,.457-.022.915,0,1.371a1.4,1.4,0,0,0,1.388,1.434,1.382,1.382,0,0,0,1.4-1.423c.036-.913.037-1.829,0-2.741a1.389,1.389,0,1,0-2.778-.012C1473.291,327.416,1473.316,327.875,1473.316,328.332Zm2.789,8.409c0-.479.029-.96-.006-1.436a1.4,1.4,0,0,0-1.382-1.374,1.378,1.378,0,0,0-1.387,1.364c-.044.934-.041,1.872,0,2.806a1.377,1.377,0,0,0,1.349,1.4,1.392,1.392,0,0,0,1.427-1.391C1476.134,337.657,1476.107,337.2,1476.105,336.741Zm0,8.392h0c0-.5.034-1-.008-1.5a1.393,1.393,0,0,0-1.351-1.335,1.374,1.374,0,0,0-1.41,1.337c-.048.955-.047,1.916,0,2.871a1.369,1.369,0,0,0,1.384,1.363,1.385,1.385,0,0,0,1.385-1.365C1476.134,346.049,1476.1,345.59,1476.1,345.133Z" transform="translate(0 -92.462)" fill="#8c6df2"/>
      <path id="Trazado_137470" data-name="Trazado 137470" d="M1513.1,224.7h-39.409c-.047-.332-.066-.655-.14-.964a4.105,4.105,0,0,0-2.434-2.955c-.814-.358-1.649-.668-2.468-1.015a1.385,1.385,0,0,1-.844-2q1.778-4.38,3.584-8.747c.405-.979,1.115-1.22,2.187-.778q9.327,3.845,18.652,7.7,10.258,4.235,20.514,8.474c.133.055.262.12.392.18Z" transform="translate(-29.793 0)" fill="#8c6df2"/>
    </g>
  </g>
</svg>
