<svg xmlns="http://www.w3.org/2000/svg" width="104.011" height="92.053" viewBox="0 0 104.011 92.053">
  <g id="Grupo_132220" data-name="Grupo 132220" transform="translate(6521 4512)">
    <g id="Grupo_131952" data-name="Grupo 131952" transform="translate(-5899.517 -5024.135)">
      <path id="Trazado_187784" data-name="Trazado 187784" d="M-621.483,663.065a7.515,7.515,0,0,1,2.927-4.218,6.5,6.5,0,0,1,9.267,2.321,6.484,6.484,0,0,1-3.068,9.041,6.469,6.469,0,0,1-8.757-3.791c-.11-.31-.246-.61-.37-.915Z" transform="translate(0 -106.123)" fill="#5038a1"/>
      <path id="Trazado_187785" data-name="Trazado 187785" d="M-473.125,534.386h1.208q9.24,0,18.481,0c2.532,0,3.668-1.122,3.669-3.634q.005-8.682,0-17.364v-1.2c.439-.021.8-.053,1.163-.053q17.161,0,34.321,0c3.291,0,4.9,1.64,4.9,4.947q0,41.074,0,82.147c0,3.307-1.615,4.951-4.9,4.952q-26.959.007-53.919,0c-3.281,0-4.926-1.662-4.927-4.945q0-31.833,0-63.667Zm31.8,28.4H-425.7c1.691,0,3.384.043,5.074-.013a3.031,3.031,0,0,0,2.728-4.514,3.082,3.082,0,0,0-2.965-1.572q-20.4.014-40.795.007a5.974,5.974,0,0,0-.608.025,3.065,3.065,0,0,0-2.726,2.822,3.039,3.039,0,0,0,2.171,3.072,6.241,6.241,0,0,0,1.6.167Q-451.273,562.792-441.328,562.783Zm.067,26.324q9.945,0,19.89,0a10.547,10.547,0,0,0,1.216-.038,3.011,3.011,0,0,0,2.646-2.773,3.007,3.007,0,0,0-2.315-3.15,6.435,6.435,0,0,0-1.409-.127q-19.991-.01-39.982,0a7,7,0,0,0-1.311.1,3.044,3.044,0,0,0-2.469,2.84,3.01,3.01,0,0,0,2.044,2.96,5.8,5.8,0,0,0,1.7.186Q-451.256,589.117-441.261,589.107Zm.107-19.252q-9.945,0-19.89,0a10.4,10.4,0,0,0-1.316.052,3,3,0,0,0-2.585,2.5,2.874,2.874,0,0,0,1.567,3.124,5.486,5.486,0,0,0,2.156.4q19.991.034,39.982.014a7.311,7.311,0,0,0,1.212-.075,3.012,3.012,0,0,0,2.521-3.086,3.007,3.007,0,0,0-2.644-2.879,10.74,10.74,0,0,0-1.316-.049Q-431.31,569.853-441.154,569.855Zm4.289-26.345c-5.413,0-10.826-.009-16.24,0a3.014,3.014,0,0,0-3.23,3.318,3.066,3.066,0,0,0,3.3,2.767q9.084.016,18.168,0,7,0,14.007,0a3.1,3.1,0,0,0,3.007-1.686,3.008,3.008,0,0,0-2.872-4.4C-426.105,543.5-431.485,543.51-436.864,543.51Z" transform="translate(-108.095 0)" fill="#5038a1"/>
      <path id="Trazado_187786" data-name="Trazado 187786" d="M-572.9,584.951c.626,1.226,1.329,2.534,1.962,3.874a1.176,1.176,0,0,0,1.249.756c4.023-.026,8.046-.013,12.069-.013h1.219v6.037c-.38.021-.707.054-1.036.054-4.767,0-9.534-.031-14.3.02a3.635,3.635,0,0,1-3.7-2.252c-.995-2.105-2.1-4.16-3.151-6.238-.147-.29-.284-.585-.388-.8Z" transform="translate(-30.972 -53.055)" fill="#5038a1"/>
      <path id="Trazado_187787" data-name="Trazado 187787" d="M-573.211,749.927c-1.045-.351-1.981-.741-2.955-.971s-1.987-.3-3.134-.466l1.3-2.555,2.571-5.055a2.944,2.944,0,0,1,2.734-1.78c5.24-.018,10.48-.01,15.72-.007a1.478,1.478,0,0,1,.335.1v5.982h-1.1c-3.989,0-7.979.021-11.968-.018a1.42,1.42,0,0,0-1.555.929C-571.852,747.4-572.56,748.657-573.211,749.927Z" transform="translate(-30.735 -165.36)" fill="#5038a1"/>
      <path id="Trazado_187788" data-name="Trazado 187788" d="M-595.814,518.995a6.5,6.5,0,0,1,6.54,6.478,6.532,6.532,0,0,1-6.522,6.508,6.482,6.482,0,0,1-6.467-6.44A6.457,6.457,0,0,1-595.814,518.995Z" transform="translate(-14.003 -4.998)" fill="#5038a1"/>
      <path id="Trazado_187789" data-name="Trazado 187789" d="M-602.266,802.985a6.462,6.462,0,0,1,6.561-6.357,6.492,6.492,0,0,1,6.409,6.626,6.472,6.472,0,0,1-6.575,6.349A6.452,6.452,0,0,1-602.266,802.985Z" transform="translate(-14.001 -207.284)" fill="#5038a1"/>
      <path id="Trazado_187790" data-name="Trazado 187790" d="M-551.69,670.671h15.168v5.971H-551.69Z" transform="translate(-50.852 -115.511)" fill="#5038a1"/>
      <path id="Trazado_187791" data-name="Trazado 187791" d="M-443.362,527.365v11.947h-12.544Z" transform="translate(-120.641 -11.097)" fill="#5038a1"/>
    </g>
  </g>
</svg>
