<svg xmlns="http://www.w3.org/2000/svg" width="81.103" height="91" viewBox="0 0 81.103 91">
  <g id="Grupo_131950" data-name="Grupo 131950" transform="translate(1852 10332)">
    <g id="Grupo_131948" data-name="Grupo 131948" transform="translate(-3187 -11781.306)">
      <g id="Grupo_130696" data-name="Grupo 130696" transform="translate(1335 1449.306)">
        <path id="Trazado_137885" data-name="Trazado 137885" d="M1628.68,428.572h-65.442a.76.76,0,0,0-.209-.127c-4.852-1.049-7.612-4.428-7.615-9.39q-.014-21.37,0-42.74v-.874h81.1v1.127q0,21.074,0,42.149c0,.422,0,.845-.033,1.266a8.772,8.772,0,0,1-5.264,7.745A20.543,20.543,0,0,1,1628.68,428.572Zm-38.736-21.8a10.451,10.451,0,0,0-.683-.872q-3.928-3.949-7.872-7.883a4.7,4.7,0,1,0-6.625,6.661c3.779,3.82,7.587,7.611,11.383,11.414,2.518,2.523,5.114,2.526,7.632,0q9.511-9.527,19.02-19.055c1.451-1.454,2.907-2.9,4.352-4.361a4.586,4.586,0,0,0,1.314-4.488,4.4,4.4,0,0,0-3.261-3.427,4.614,4.614,0,0,0-4.776,1.333q-9.862,9.892-19.732,19.776C1590.48,406.1,1590.3,406.35,1589.944,406.776Z" transform="translate(-1555.404 -337.573)" fill="#261a4d"/>
        <path id="Trazado_137886" data-name="Trazado 137886" d="M1555.449,284.492c-.019-.29-.049-.537-.049-.783,0-4.871-.018-9.742,0-14.613a6.059,6.059,0,0,1,4.667-6.219,12,12,0,0,1,2.592-.215c1.736-.031,3.473-.009,5.327-.009,0,.835-.028,1.587.005,2.335a5.863,5.863,0,0,0,5.3,5.708,5.76,5.76,0,0,0,6.2-4.569,24.722,24.722,0,0,0,.227-3.409h11.614c0,.9-.068,1.792.013,2.672a5.806,5.806,0,0,0,9.53,3.943,5.766,5.766,0,0,0,2.087-4.61c.009-.644,0-1.288,0-2.022.338-.018.607-.045.876-.045,3.288,0,6.577.024,9.865-.021.78-.011.942.254.92.967a10.441,10.441,0,0,0,.154,2.6,5.772,5.772,0,0,0,6.259,4.489,5.865,5.865,0,0,0,5.222-5.7c.034-.728,0-1.459,0-2.346,2.41.142,4.822-.461,7.038.8a6.06,6.06,0,0,1,3.189,5.649q0,7.306,0,14.613c0,.247-.03.494-.048.786Z" transform="translate(-1555.392 -254.78)" fill="#261a4d"/>
        <path id="Trazado_137887" data-name="Trazado 137887" d="M1729.839,235.105c0,.985.011,1.97,0,2.954a4.245,4.245,0,1,1-8.488,0c-.014-2.054-.028-4.108.007-6.161a4.021,4.021,0,0,1,2.666-3.832,4.492,4.492,0,0,1,4.8,1.129,4.16,4.16,0,0,1,1.015,2.873C1729.841,233.08,1729.838,234.093,1729.839,235.105Z" transform="translate(-1683.955 -227.799)" fill="#261a4d"/>
        <path id="Trazado_137888" data-name="Trazado 137888" d="M1833.686,235.252c0,1.125.028,2.251-.007,3.376a4.231,4.231,0,0,1-8.435-.025c-.045-2.25-.048-4.5,0-6.751a4.231,4.231,0,0,1,8.435.025C1833.713,233,1833.687,234.127,1833.686,235.252Z" transform="translate(-1764.433 -227.934)" fill="#261a4d"/>
        <path id="Trazado_137889" data-name="Trazado 137889" d="M1618.416,235.219c0-1.1-.026-2.195,0-3.291a3.962,3.962,0,0,1,4.149-3.955,4,4,0,0,1,4.293,3.911c.053,2.249.06,4.5,0,6.751a4.008,4.008,0,0,1-4.329,3.875,3.962,3.962,0,0,1-4.106-3.914C1618.388,237.471,1618.417,236.345,1618.416,235.219Z" transform="translate(-1604.211 -227.934)" fill="#261a4d"/>
      </g>
    </g>
  </g>
</svg>
