<svg xmlns="http://www.w3.org/2000/svg" width="101" height="100.5" viewBox="0 0 101 100.5">
  <g id="Grupo_132223" data-name="Grupo 132223" transform="translate(3080.513 10567.144)">
    <g id="Grupo_131959" data-name="Grupo 131959" transform="translate(-2129.085 -11584.971)">
      <path id="Trazado_187831" data-name="Trazado 187831" d="M-951.428,1075.111a5.275,5.275,0,0,0,.453-.723q8.2-19.442,16.377-38.889c.124-.295.224-.6.308-.823-2.51-.578-5.008-1.026-7.391-1.748a19.863,19.863,0,0,1-4.731-2.125c-4.066-2.549-4.1-6.36.061-8.821a24.161,24.161,0,0,1,6.741-2.687,51.539,51.539,0,0,1,27.116.716,17.742,17.742,0,0,1,4.453,2.115c3.752,2.465,3.72,6,.047,8.544a21.284,21.284,0,0,1-7.428,2.964,52.486,52.486,0,0,1-13.412,1.235c-.86-.025-1.311.127-1.627.895-2.172,5.279-4.426,10.533-6.628,15.8a3.817,3.817,0,0,0-.274,1.448q-.02,25.15.011,50.3a3.2,3.2,0,0,0,.529,1.688c2.263,3.431,4.586,6.833,6.88,10.249a3.1,3.1,0,0,1,.548,1.061,1.558,1.558,0,0,1-1.277,1.846,2.068,2.068,0,0,1-2.521-.884c-1.666-2.456-3.316-4.919-4.975-7.379-.365-.54-.744-1.073-1.225-1.766l-3.817,5.66c-.767,1.137-1.52,2.282-2.308,3.409a2.182,2.182,0,0,1-2.825.877,1.569,1.569,0,0,1-.651-2.556c2.347-3.513,4.732-7.007,7.065-10.527a2.848,2.848,0,0,0,.516-1.48q.041-20.312.021-40.624a.776.776,0,0,0-.191-.548c-.178.371-.372.738-.531,1.115q-2.57,6.1-5.133,12.2c-.9,2.134-2.437,2.4-4.183.729Z" transform="translate(0 0)" fill="#5038a1"/>
      <path id="Trazado_187832" data-name="Trazado 187832" d="M-783.26,1091.85a27.057,27.057,0,0,1,3.8-.138,5.485,5.485,0,0,1,4.852,3.327c.875,2.131,1.653,4.295,2.339,6.473.872,2.768-.866,5.351-4.158,6.255-2.217.609-4.473,1.122-6.838,1.71v1.011c0,5.66-.02,11.32.033,16.98a2.538,2.538,0,0,0,.733,1.65c3.41,3.38,6.886,6.714,10.341,10.063.082.079.167.155.246.237.925.954.9,1.923-.06,2.572a2.281,2.281,0,0,1-2.975-.39c-2.463-2.363-4.9-4.743-7.352-7.115-.24-.233-.495-.456-.967-.889,0,1.208,0,2.189,0,3.171,0,1.25.02,2.5-.007,3.75a1.849,1.849,0,0,1-2.024,1.851,1.839,1.839,0,0,1-1.979-1.887c-.021-1.875-.006-3.75-.006-5.625v-1.287c-1.293,1.244-2.372,2.277-3.446,3.316-1.58,1.527-3.152,3.061-4.737,4.586a2.345,2.345,0,0,1-3.145.5c-.968-.679-.947-1.647.087-2.651,3.505-3.4,7.028-6.8,10.514-10.215a2.06,2.06,0,0,0,.7-1.25c.044-5.66.027-11.32.022-16.98a2.067,2.067,0,0,0-.084-.372c-1.135.277-2.27.505-3.349.853a1.058,1.058,0,0,0-.549.849c-.042,2.673-.021,5.347-.027,8.021,0,1.406-.4,1.842-2.041,2.2-2.181.473-4.361.954-6.56,1.361a1.612,1.612,0,0,0-1.392,1.005,25.457,25.457,0,0,1-7.483,9.743,1.055,1.055,0,0,0-.388,1.458c.6,1.331,1.11,2.688,1.622,4.044a1.623,1.623,0,0,1-1.253,2.264,2.107,2.107,0,0,1-2.534-1.2c-.5-1.164-.953-2.345-1.448-3.573-12.46,6.5-24.832,6.52-37.339,0-.462,1.115-.914,2.212-1.373,3.307a2.146,2.146,0,0,1-2.674,1.452,1.665,1.665,0,0,1-1.128-2.486c.5-1.286.973-2.583,1.557-3.843.292-.63.1-1-.435-1.448-15.5-12.952-11.246-34.515,8.41-42.675a35.776,35.776,0,0,1,10.888-2.631c.414-.033.826-.091,1.407-.157v-3.607a36.6,36.6,0,0,1,.036-4.164c.148-1.292-.594-1.89-2.044-2.324,0,1.572.006,3.08,0,4.588-.008,1.576-.684,2.158-2.544,2.159q-13.489.007-26.978,0c-1.943,0-2.6-.564-2.6-2.214q-.006-7.813,0-15.626c0-1.58.678-2.159,2.537-2.161q13.552-.007,27.1,0c1.785,0,2.475.593,2.482,2.1.01,2.083-.036,4.168.036,6.25a1.9,1.9,0,0,0,.734,1.15c2.15,1.836,4.334,1.868,7.018.508,1.67-.846,2.521-1.559,2.3-3.23a33.884,33.884,0,0,1-.041-4.788c.014-1.374.728-1.99,2.36-1.991q13.677-.013,27.355,0c1.654,0,2.4.6,2.4,1.956q.02,8.021,0,16.043c0,1.373-.731,1.995-2.357,2q-13.677.014-27.355,0c-1.694,0-2.4-.617-2.408-2.058-.012-1.689,0-3.379,0-5.223-1.315.539-2.475.994-3.6,1.5a.752.752,0,0,0-.393.57c-.025,2.842-.017,5.685-.017,8.578,9.525.685,17.336,4,23.21,10.184,5.843,6.153,7.861,13.2,6.458,21.081l4.407-.9v-6.8c-2.094.067-2.107.033-2.463-1.708a25.518,25.518,0,0,0-5.829-11.614c-1.31-1.528-1.161-1.879,1.015-2.416,4.722-1.164,9.438-2.348,14.17-3.483.894-.214,1.225-.528,1.222-1.345q-.056-17.761-.025-35.523a4.9,4.9,0,0,1,.032-1.039,1.805,1.805,0,0,1,1.976-1.437,1.808,1.808,0,0,1,1.973,1.441,4.885,4.885,0,0,1,.033,1.039q0,17.136,0,34.272Zm-48.17,5.516c-12.206-.009-22.111,8.209-22.108,18.342,0,10.086,9.866,18.3,22,18.33,12.215.027,22.152-8.17,22.172-18.292C-809.344,1105.607-819.226,1097.375-831.43,1097.366Zm-26.13-21.757c0-.521.031-1.043-.006-1.562a1.849,1.849,0,0,0-1.973-1.679,1.83,1.83,0,0,0-2.013,1.639c-.054,1.109-.049,2.223,0,3.332a1.829,1.829,0,0,0,1.967,1.681,1.856,1.856,0,0,0,2.018-1.64C-857.525,1076.792-857.562,1076.2-857.56,1075.61Zm8.028.148c0-.59.04-1.183-.009-1.77a1.862,1.862,0,0,0-2.039-1.619,1.817,1.817,0,0,0-1.935,1.6,34.155,34.155,0,0,0,0,3.436,1.839,1.839,0,0,0,2.034,1.62,1.852,1.852,0,0,0,1.941-1.6C-849.492,1076.871-849.534,1076.313-849.532,1075.758Zm8.032,0c0-.59.04-1.183-.009-1.77a1.86,1.86,0,0,0-2.036-1.622,1.818,1.818,0,0,0-1.938,1.592,34.243,34.243,0,0,0,0,3.436,1.838,1.838,0,0,0,2.031,1.624,1.852,1.852,0,0,0,1.944-1.594C-841.46,1076.874-841.5,1076.316-841.5,1075.76Zm26.1-.16a16.613,16.613,0,0,0-.01-1.665,1.855,1.855,0,0,0-1.973-1.567,1.826,1.826,0,0,0-1.991,1.544,31.545,31.545,0,0,0,0,3.54,1.821,1.821,0,0,0,1.966,1.568,1.86,1.86,0,0,0,2-1.545C-815.351,1076.854-815.4,1076.226-815.4,1075.6Zm8.037.177c0-.59.038-1.183-.009-1.77a1.853,1.853,0,0,0-2.018-1.639,1.824,1.824,0,0,0-1.967,1.679c-.046,1.109-.05,2.223,0,3.332a1.833,1.833,0,0,0,2.013,1.64,1.852,1.852,0,0,0,1.973-1.681C-807.33,1076.82-807.361,1076.3-807.363,1075.777Zm4.035-.183h-.009q0,.833,0,1.667a1.5,1.5,0,0,0,.01.208,1.9,1.9,0,0,0,2,1.552,1.824,1.824,0,0,0,1.974-1.561,30.916,30.916,0,0,0,0-3.54,1.826,1.826,0,0,0-1.985-1.551,1.854,1.854,0,0,0-1.979,1.56C-803.373,1074.48-803.328,1075.039-803.328,1075.594Z" transform="translate(-83.222 -24.074)" fill="#5038a1"/>
      <path id="Trazado_187834" data-name="Trazado 187834" d="M-646.894,1044.8a39.455,39.455,0,0,1-4.383-.045,3.989,3.989,0,0,1-2.393-1.015c-2.925-3.284-5.335-3.469-8.437.028a3.684,3.684,0,0,1-2.4.986c-2.921.117-5.849.049-8.774.045-1.707,0-2.633-.7-2.654-1.976-.022-1.319.927-2.035,2.715-2.038,2.508,0,5.016.038,7.521-.031a2.635,2.635,0,0,0,1.614-.659c4.09-3.929,8.334-3.922,12.45.02a2.634,2.634,0,0,0,1.621.64c2.589.066,5.181.021,7.772.033,1.5.007,2.393.741,2.429,1.947.038,1.25-.9,2.051-2.441,2.063S-645.348,1044.8-646.894,1044.8Z" transform="translate(-210.615 -12.844)" fill="#5038a1"/>
      <path id="Trazado_187835" data-name="Trazado 187835" d="M-668.792,1065.933c1.547,0,3.1-.018,4.642.006a2.023,2.023,0,0,1,2.249,2,2.024,2.024,0,0,1-2.252,2q-4.768.032-9.536,0a2.017,2.017,0,0,1-2.247-2,2.02,2.02,0,0,1,2.25-2C-672.054,1065.914-670.423,1065.933-668.792,1065.933Z" transform="translate(-205.309 -31.971)" fill="#5038a1"/>
      <path id="Trazado_187836" data-name="Trazado 187836" d="M-603.079,1069.948c-1.506,0-3.011.009-4.517,0-1.566-.011-2.489-.782-2.468-2.038.02-1.22.907-1.966,2.405-1.972q4.642-.018,9.285,0c1.46.007,2.365.816,2.345,2.033s-.922,1.961-2.407,1.975C-599.984,1069.959-601.532,1069.948-603.079,1069.948Z" transform="translate(-254.399 -31.971)" fill="#5038a1"/>
    </g>
  </g>
</svg>
