<svg xmlns="http://www.w3.org/2000/svg" width="99.987" height="99.916" viewBox="0 0 99.987 99.916">
  <g id="Grupo_132222" data-name="Grupo 132222" transform="translate(3257 10430.916)">
    <g id="Grupo_131958" data-name="Grupo 131958" transform="translate(-2052.932 -11458.552)">
      <path id="Trazado_187819" data-name="Trazado 187819" d="M-1120.19,1202.377c3.448-1.134,4.64-3.117,4.124-6.783h36.309v9.153c-1.819-.2-3.656-.524-5.5-.581a4.476,4.476,0,0,0-4.261,6.543c.03.065.068.126.1.19,3.29,6.642,2.809,4.879,2.85,12.53.007,1.4-.05,2.806.079,4.2a11.838,11.838,0,0,0,2.707,6.451c1.24,1.529,2.46,3.075,3.617,4.524-.355,1.439-1.183,1.765-2.539,1.76-15.651-.057-31.3-.033-46.953-.057a1.759,1.759,0,0,1-1.219-.486c-.464-.552-.047-1.009.4-1.437,1.041-.988,2.038-2.022,3.057-3.033a19.841,19.841,0,0,0,4.219-6.184c1.584-3.609,3.161-7.222,4.8-10.809a6.486,6.486,0,0,0,.381-5.2,1.6,1.6,0,0,1,0-.923,10.227,10.227,0,0,0-1.9-9.426C-1120,1202.694-1120.067,1202.573-1120.19,1202.377Zm16.424-1.685a8.626,8.626,0,0,0-8.654,8.6,8.634,8.634,0,0,0,8.52,8.627,8.631,8.631,0,0,0,8.708-8.547A8.625,8.625,0,0,0-1103.765,1200.693Zm-5.286,34.413V1224.9h-10.208v10.206Zm17.264-10.214h-10.207v10.2h10.207Z" transform="translate(-51.99 -119.634)" fill="#5038a1"/>
      <path id="Trazado_187820" data-name="Trazado 187820" d="M-965.979,1182.374v-1.137q0-12.595,0-25.189a6.018,6.018,0,0,1,.028-1.074,1.625,1.625,0,0,1,1.7-1.485,1.63,1.63,0,0,1,1.693,1.491,5.319,5.319,0,0,1,.027.967c0,5.059.013,10.119-.013,15.178,0,.688.173.97.891,1.145,5.952,1.451,11.89,2.958,17.831,4.451,1.664.418,1.973.818,1.973,2.538,0,5.562-.017,11.123.009,16.685a9.19,9.19,0,0,1-2.1,6.063c-1.156,1.418-2.261,2.879-3.454,4.264a1.854,1.854,0,0,1-1.237.589q-8.72.057-17.441,0a1.99,1.99,0,0,1-1.309-.659c-1.217-1.412-2.355-2.892-3.518-4.351a8.749,8.749,0,0,1-1.973-5.672c.01-1.364-.095-2.735.02-4.089a18.905,18.905,0,0,0-2.835-11.916c-1.246-2-.5-2.816,1.652-2.549a21.324,21.324,0,0,1,2.966.487A7.08,7.08,0,0,1-965.979,1182.374Z" transform="translate(-162.24 -89.642)" fill="#5038a1"/>
      <path id="Trazado_187821" data-name="Trazado 187821" d="M-1164.625,1060.183l-3.4.844c-.014-.265-.048-.6-.048-.937q0-15.023,0-30.047c0-1.894.521-2.407,2.44-2.407h60c2.845,0,3.207.4,3,3.447h-1.125c-3.519,0-7.037-.007-10.556,0a5.167,5.167,0,0,0-5.493,5.446q-.014,13.516,0,27.031a5.162,5.162,0,0,0,5.4,5.427c2.755.014,5.511,0,8.323,0v3.366h-47.608l1.341-3.366h1.052q9.533,0,19.065,0a5.173,5.173,0,0,0,5.522-5.528q.012-13.408,0-26.816c0-3.428-2.15-5.561-5.594-5.562q-13.356-.008-26.712,0c-3.49,0-5.6,2.139-5.606,5.659q-.006,11.2,0,22.4Z" transform="translate(-25.639)" fill="#5038a1"/>
      <path id="Trazado_187822" data-name="Trazado 187822" d="M-967.451,1082.61l-1.283-3.394,1.043-.111c0-.982-.047-1.979.026-2.966a1.376,1.376,0,0,1,.549-.97,5.083,5.083,0,0,0,2.851-4.608,5.087,5.087,0,0,0-2.825-4.623,1.441,1.441,0,0,1-.575-1.059c-.044-3.226-.026-6.454-.026-9.76h-3.447v2.645c0,2.369-.016,4.737.011,7.105a1.1,1.1,0,0,1-.676,1.157,4.854,4.854,0,0,0-2.765,4.525,4.839,4.839,0,0,0,2.774,4.521c1.285.664.335,1.708.721,2.558-4.344-.417-6.4,1.053-7.029,4.968-2.885,0-5.786.034-8.686-.019-1.011-.018-1.573-.784-1.58-1.939-.016-2.62-.005-5.239-.005-7.859q0-9.42,0-18.84c0-1.815.543-2.347,2.389-2.347q16.582,0,33.164,0c1.826,0,2.361.539,2.362,2.376q0,13.134,0,26.269c0,1.83-.54,2.37-2.369,2.371C-957.739,1082.612-962.653,1082.61-967.451,1082.61Zm-10.581-3.5c0-3.233.016-6.382-.012-9.531a1.407,1.407,0,0,1,.831-1.5c3.079-1.695,3.679-6.082.873-8.129-1.639-1.2-1.8-2.456-1.694-4.1.016-.239,0-.481,0-.753h-3.447c0,.92-.033,1.777.01,2.63a1.379,1.379,0,0,1-.836,1.492,5.022,5.022,0,0,0-.216,8.7,1.946,1.946,0,0,1,1.061,2.027c-.049,3.037-.018,6.075-.018,9.162Zm20.682.026V1077.9c0-3.945.014-7.89-.014-11.835a1.325,1.325,0,0,1,.8-1.4,5.011,5.011,0,0,0,2.469-5.762,5.152,5.152,0,0,0-4.975-3.855,5.16,5.16,0,0,0-5.015,3.941,4.994,4.994,0,0,0,2.571,5.715,1.175,1.175,0,0,1,.722,1.238c-.021,4.016-.011,8.033-.011,12.05v1.153Z" transform="translate(-153.634 -17.063)" fill="#5038a1"/>
      <path id="Trazado_187823" data-name="Trazado 187823" d="M-1193.434,1236.609c-2.3,0-4.594.017-6.89-.021-.314,0-.826-.219-.9-.451-.926-2.784-1.832-5.577-2.636-8.4a8.964,8.964,0,0,1-.191-2.67c.121-4.3.047-8.619.5-12.884.466-4.4,1.881-8.525,5.322-11.678a18.747,18.747,0,0,1,12.2-5.2c4.264-.165,8.539-.059,12.81-.051a1.714,1.714,0,0,1,1.9,1.738,1.751,1.751,0,0,1-1.957,1.7c-2.978.016-5.957-.008-8.936.009a15.038,15.038,0,0,0-14.933,16.517,8.516,8.516,0,0,0,6.144,7.28,8.367,8.367,0,0,0,9.078-3.117c1.339-1.862,2.561-3.809,3.838-5.715a2.671,2.671,0,0,1,2.923-1.13,2.27,2.27,0,0,1,1.979,1.877,3.475,3.475,0,0,1-.219,1.86c-1.715,3.981-3.488,7.937-5.25,11.9-1.06,2.383-3.007,4.063-4.654,6a6.271,6.271,0,0,1-6.046,2.472A31.459,31.459,0,0,0-1193.434,1236.609Z" transform="translate(0 -119.367)" fill="#5038a1"/>
      <path id="Trazado_187824" data-name="Trazado 187824" d="M-1142.585,1098.319c-1.732-1.533-1.676-3.409-1.628-5.332.069-2.794.018-5.592.018-8.52a17.615,17.615,0,0,1,1.942.014,1.708,1.708,0,0,1,1.5,1.912c.019,1.615-.009,3.231.01,4.846a5.189,5.189,0,0,0,5.133,5.267,5.177,5.177,0,0,0,5.2-5.31c.021-4.379-.016-8.759.032-13.138a2.539,2.539,0,0,1,.6-1.723,1.874,1.874,0,0,1,1.719-.285,2.36,2.36,0,0,1,1.053,1.651c.121,2.255.029,4.521.058,6.782a5.173,5.173,0,0,0,3.571,4.881,4.918,4.918,0,0,0,5.645-1.807,8.015,8.015,0,0,0,1.075-3.076,23.989,23.989,0,0,0,.049-3.332,1.731,1.731,0,0,1,1.675-1.864,1.723,1.723,0,0,1,1.757,1.891q.022,8.453,0,16.908a1.7,1.7,0,0,1-1.892,1.864q-10.609.021-21.219,0a1.23,1.23,0,0,1-.791-.206C-1138.688,1098.162-1140.651,1098.066-1142.585,1098.319Z" transform="translate(-42.623 -34.41)" fill="#5038a1"/>
      <path id="Trazado_187825" data-name="Trazado 187825" d="M-1144.108,1063.643c0-3.544-.02-6.948.012-10.35a1.667,1.667,0,0,1,1.716-1.705c.321-.023.646-.007.969-.007q12.971,0,25.942,0c1.836,0,2.374.536,2.378,2.359,0,1.572,0,3.145,0,4.674a15.042,15.042,0,0,0-2.856.029,5.027,5.027,0,0,0-4.032,4.92c-.024.968,0,1.937-.007,2.906,0,1.53-.623,2.353-1.751,2.334s-1.693-.822-1.7-2.388c0-1.937,0-3.875,0-5.812-.01-3.227-2.17-5.562-5.147-5.574a5.207,5.207,0,0,0-5.191,5.527c-.008,4.341.022,8.682-.031,13.022a2.493,2.493,0,0,1-.673,1.685,1.783,1.783,0,0,1-1.64.228,2.3,2.3,0,0,1-1.052-1.545c-.145-1.493-.051-3.009-.053-4.516,0-3.728-2.051-5.771-5.8-5.788C-1143.334,1063.642-1143.653,1063.643-1144.108,1063.643Z" transform="translate(-42.704 -17.052)" fill="#5038a1"/>
      <path id="Trazado_187826" data-name="Trazado 187826" d="M-928.059,1357.905h-23.807a13.788,13.788,0,0,1,2.306-6.532,1.12,1.12,0,0,1,.828-.3q8.77-.026,17.54,0a1.119,1.119,0,0,1,.828.3A13.811,13.811,0,0,1-928.059,1357.905Z" transform="translate(-179.64 -230.368)" fill="#5038a1"/>
      <path id="Trazado_187827" data-name="Trazado 187827" d="M-1182.395,1357.919h-19.31c.728-2.188,1.419-4.316,2.163-6.426a.92.92,0,0,1,.719-.417q6.773-.038,13.545,0a.928.928,0,0,1,.727.416C-1183.816,1353.578-1183.135,1355.684-1182.395,1357.919Z" transform="translate(-1.684 -230.367)" fill="#5038a1"/>
      <path id="Trazado_187828" data-name="Trazado 187828" d="M-1130.4,1226.659a16.749,16.749,0,0,0-1.946-.4,6.07,6.07,0,0,0-5.923,2.755c-.723,1.064-1.428,2.139-2.135,3.2a6.682,6.682,0,0,1-3.287-8.248,6.852,6.852,0,0,1,8.079-4.433A6.731,6.731,0,0,1-1130.4,1226.659Z" transform="translate(-42.728 -136.552)" fill="#5038a1"/>
      <path id="Trazado_187829" data-name="Trazado 187829" d="M-1198.874,1169.153a29.208,29.208,0,0,1,10.468-15.269,2.231,2.231,0,0,1,2.869-.018c.763.689.73,1.2-.133,1.726a37.364,37.364,0,0,0-11.46,10.863C-1197.736,1167.337-1198.294,1168.253-1198.874,1169.153Z" transform="translate(-3.7 -89.547)" fill="#5038a1"/>
      <path id="Trazado_187830" data-name="Trazado 187830" d="M-1169.206,1172.145c1.667-1.328,3.294-2.71,5.015-3.964a24.832,24.832,0,0,1,3.765-2.263,3.974,3.974,0,0,1,2.259-.309,1.919,1.919,0,0,1,1.207,1.16,1.682,1.682,0,0,1-.416,1.513c-1.519,1.062-2.854,2.388-4.928,2.589a46.006,46.006,0,0,0-5.942,1.323c-.263.062-.52.149-.779.224Z" transform="translate(-24.832 -98.241)" fill="#5038a1"/>
    </g>
  </g>
</svg>
