<svg xmlns="http://www.w3.org/2000/svg" width="81.028" height="81.56" viewBox="0 0 81.028 81.56">
  <g id="Grupo_132221" data-name="Grupo 132221" transform="translate(3257 10567.144)">
    <g id="Grupo_131964" data-name="Grupo 131964" transform="translate(-2565.743 -11890.405)">
      <path id="Trazado_187884" data-name="Trazado 187884" d="M-574.923,1518.949q-5.38-19.6-10.777-39.2a1.5,1.5,0,0,1,.43-1.724c3.018-2.954,5.988-5.958,8.963-8.956a3.994,3.994,0,0,0,.476-.8c2.631,2.739,5.041,5.246,7.448,7.756q20.356,21.22,40.71,42.441c.145.151.272.32.408.481Z" transform="translate(-82.997 -114.128)" fill="#5038a1"/>
      <path id="Trazado_187885" data-name="Trazado 187885" d="M-691.144,1620.875q4.062-4.261,8.125-8.521,6.579-6.871,13.167-13.733c.214-.223.4-.47.723-.844l6.357,23.1Z" transform="translate(-0.089 -216.053)" fill="#5038a1"/>
      <path id="Trazado_187886" data-name="Trazado 187886" d="M-620.174,1354.1l-13.644-13.645a1.6,1.6,0,0,1,.3-.37,3.683,3.683,0,0,0,1.465-3.575c-.117-2.806-.034-5.62-.034-8.479h-37.328v.854c0,2.948.024,5.9-.018,8.845a1.8,1.8,0,0,0,.682,1.58c.41.332.788.7,1.14,1.02l-13.841,13.843c-.42-.469-.858-1-1.342-1.49-1.85-1.868-3.726-3.712-5.572-5.584a9.679,9.679,0,0,1-.173-13.629,9.692,9.692,0,0,1,13.691-.262c.169.157.344.308.6.537v-5.734H-679v-4.751h56.654V1328h-4.917v5.77c.284-.258.487-.437.687-.623a9.7,9.7,0,0,1,13.463.166,9.632,9.632,0,0,1,.231,13.507C-615.243,1349.3-617.722,1351.664-620.174,1354.1Z" fill="#5038a1"/>
      <path id="Trazado_187887" data-name="Trazado 187887" d="M-627.9,1438.627l-3.273-5.615c.21-.221.386-.416.571-.6,4.523-4.525,9.057-9.039,13.557-13.587a.987.987,0,0,1,1.47-.177c1.628.99,3.3,1.912,4.916,2.841Z" transform="translate(-47.285 -74.876)" fill="#5038a1"/>
      <path id="Trazado_187888" data-name="Trazado 187888" d="M-467.363,1421.519c1.8-1.031,3.6-2.088,5.444-3.086.175-.1.63.106.826.3,2.646,2.611,5.268,5.245,7.9,7.874q2.9,2.9,5.8,5.8c.186.186.363.38.579.607l-3.336,5.717Z" transform="translate(-176.213 -74.884)" fill="#5038a1"/>
      <path id="Trazado_187889" data-name="Trazado 187889" d="M-485.465,1473.967l4.578-4.77c.219.205.414.378.6.561q4.594,4.591,9.193,9.177a1.08,1.08,0,0,1,.345,1.241c-.629,2.137-1.193,4.292-1.785,6.44-.048.172-.123.337-.22.6Z" transform="translate(-161.966 -114.856)" fill="#5038a1"/>
    </g>
  </g>
</svg>
