<svg xmlns="http://www.w3.org/2000/svg" width="93.7" height="93.747" viewBox="0 0 93.7 93.747">
  <g id="Grupo_132219" data-name="Grupo 132219" transform="translate(8615.7 4210.781)">
    <g id="Grupo_131953" data-name="Grupo 131953" transform="translate(-7231.464 -4998.308)">
      <path id="Trazado_187792" data-name="Trazado 187792" d="M-1160.808,1043.682c-1.938-.37-3.918-.593-5.807-1.134a30.05,30.05,0,0,1-18.524-14.709c-.13-.23-.226-.479-.349-.744,21.495-.036,40.532-18.582,40.671-40.692a26.949,26.949,0,0,1,5.994,4,30.083,30.083,0,0,1,10.432,20,5.963,5.963,0,0,0,.16.7v4.575a4.115,4.115,0,0,0-.151.613,30.506,30.506,0,0,1-3.752,12.019,1.875,1.875,0,0,0-.08,1.268c1.158,4.285,2.356,8.559,3.541,12.837.093.334.17.672.275,1.086-.252-.052-.368-.069-.481-.1-4.367-1.206-8.739-2.394-13.094-3.64a2.9,2.9,0,0,0-2.132.226c-2.365,1.017-4.761,1.993-7.213,2.772a38.684,38.684,0,0,1-4.913.919Z" transform="translate(-162.304 -162.408)" fill="#5038a1"/>
      <path id="Trazado_187793" data-name="Trazado 187793" d="M-1384.1,858.974c.865-3.129,1.69-6.113,2.514-9.1.705-2.553,1.429-5.1,2.094-7.665a1.877,1.877,0,0,0-.146-1.26,35.815,35.815,0,0,1,18.83-51.177c19.445-7.3,41.167,3.847,46.827,24.039a35.79,35.79,0,0,1-26.391,44.373,34.98,34.98,0,0,1-25.546-3.631,1.973,1.973,0,0,0-1.632-.147q-8.006,2.232-16.02,4.438C-1383.682,858.877-1383.8,858.9-1384.1,858.974Zm38.382-27.344c0-1.217-.049-2.347.025-3.468a2.059,2.059,0,0,1,.54-1.242c1.353-1.318,2.788-2.552,4.16-3.851a10.961,10.961,0,0,0,1.14-14.839,10.874,10.874,0,0,0-14.6-2.37,10.7,10.7,0,0,0-4.981,9.108h5.451c.042-.287.077-.524.11-.762a5.488,5.488,0,0,1,5.113-4.664,5.519,5.519,0,0,1,5.3,3.215,5.387,5.387,0,0,1-1.153,6.153c-1.956,1.879-3.99,3.677-5.974,5.528-.251.234-.573.567-.58.861-.05,2.094-.027,4.19-.027,6.331Zm-5.412,5.569v5.4h5.336v-5.4Z" fill="#5038a1"/>
    </g>
  </g>
</svg>
