<svg xmlns="http://www.w3.org/2000/svg" width="92.03" height="91.57" viewBox="0 0 92.03 91.57">
  <g id="Grupo_132221" data-name="Grupo 132221" transform="translate(6321 4499)">
    <g id="Grupo_131957" data-name="Grupo 131957" transform="translate(-5261.836 -5886.182)">
      <path id="Trazado_187811" data-name="Trazado 187811" d="M-982.235,1556.056c-3.506,0-6.808.011-10.111-.008a1.236,1.236,0,0,1-1.346-1.259c.04-6.375-.612-12.8,1.292-19.051,2.484-8.151,7.991-13.457,15.727-16.608a34.045,34.045,0,0,1,15.084-2.809c12.232.788,20.808,6.965,25.793,18.118a27.281,27.281,0,0,1,2.184,11.008c.026,2.9.011,5.809,0,8.713a2.7,2.7,0,0,1-.157.994,1.317,1.317,0,0,1-2.178.511c-1.259-1.094-2.521-2.186-3.744-3.319a1,1,0,0,1-.232-.841,23.738,23.738,0,0,0-16.989-29.866,23.562,23.562,0,0,0-28.577,18.84,21.919,21.919,0,0,0,1.2,11.912A32.345,32.345,0,0,0-982.235,1556.056Z" transform="translate(-49.201 -97.118)" fill="#5038a1"/>
      <path id="Trazado_187812" data-name="Trazado 187812" d="M-912.74,1413.085a13.021,13.021,0,0,1-12.98-12.967,12.941,12.941,0,0,1,12.895-12.936,12.94,12.94,0,0,1,13.012,12.912A12.932,12.932,0,0,1-912.74,1413.085Z" transform="translate(-100.4 0)" fill="#5038a1"/>
      <path id="Trazado_187813" data-name="Trazado 187813" d="M-791.411,1528.441a36.319,36.319,0,0,1,5.1-.489,26.122,26.122,0,0,1,10.369,2.5c6.385,3.065,9.68,8.225,10.137,15.209.167,2.554.062,5.128.058,7.692,0,.945-.485,1.569-1.338,1.577-3.856.034-7.713.015-11.681.015a32.361,32.361,0,0,0-12.681-26.234Z" transform="translate(-201.426 -105.906)" fill="#5038a1"/>
      <path id="Trazado_187814" data-name="Trazado 187814" d="M-1033.331,1528.541c-8.479,6.844-12.754,15.528-12.809,26.3-.323.019-.592.049-.862.049q-5.141,0-10.282,0c-1.415,0-1.921-.471-1.877-1.888.1-3.172-.095-6.4.443-9.5a19.317,19.317,0,0,1,18.6-15.636c1.538-.022,3.081.112,4.616.236A18.779,18.779,0,0,1-1033.331,1528.541Z" transform="translate(0 -105.84)" fill="#5038a1"/>
      <path id="Trazado_187815" data-name="Trazado 187815" d="M-929.571,1587.491a20.5,20.5,0,0,1-20.248-20.464,20.478,20.478,0,0,1,20.416-20.579,20.584,20.584,0,0,1,20.526,20.416A20.312,20.312,0,0,1-929.571,1587.491Zm.216-38.125a17.634,17.634,0,0,0-17.512,17.819,17.511,17.511,0,0,0,17.545,17.455,17.74,17.74,0,0,0,17.7-17.685A17.6,17.6,0,0,0-929.355,1549.366Z" transform="translate(-82.268 -119.828)" fill="#5038a1"/>
      <path id="Trazado_187816" data-name="Trazado 187816" d="M-1005.426,1443.065a8.845,8.845,0,0,1,9.031,8.923,9.02,9.02,0,0,1-9.077,9.045,9.231,9.231,0,0,1-9.009-9.091A9.044,9.044,0,0,1-1005.426,1443.065Z" transform="translate(-33.618 -42.045)" fill="#5038a1"/>
      <path id="Trazado_187817" data-name="Trazado 187817" d="M-787.291,1451.933a9.13,9.13,0,0,1-9.052,9.1,9.221,9.221,0,0,1-9.034-9.052,9.026,9.026,0,0,1,9-8.916A8.859,8.859,0,0,1-787.291,1451.933Z" transform="translate(-190.943 -42.046)" fill="#5038a1"/>
      <path id="Trazado_187818" data-name="Trazado 187818" d="M-814.655,1681.613c1.543-1.4,3.162-2.651,4.517-4.146,1.335-1.472,2.4-3.187,3.64-4.866a3.788,3.788,0,0,1,.425.312c3.692,3.323,7.394,6.634,11.064,9.981a6.084,6.084,0,0,1,.681,8.555,6.185,6.185,0,0,1-8.669.52c-2.767-2.364-5.452-4.825-8.172-7.245C-812.362,1683.663-813.552,1682.6-814.655,1681.613Z" transform="translate(-183.962 -214.742)" fill="#5038a1"/>
    </g>
  </g>
</svg>
