<svg xmlns="http://www.w3.org/2000/svg" width="136.973" height="136.973" viewBox="0 0 136.973 136.973">
  <g id="Grupo_132233" data-name="Grupo 132233" transform="translate(-840 10110.973)">
    <g id="Grupo_132102" data-name="Grupo 132102" transform="translate(840 -10110.973)">
      <g id="Trazado_137458" data-name="Trazado 137458" transform="translate(0 0)" fill="#fff">
        <path d="M 68.48631286621094 131.9726409912109 C 59.91350936889648 131.9726409912109 51.59981155395508 130.2947692871094 43.77611541748047 126.9856185913086 C 40.01535797119141 125.3949661254883 36.38774871826172 123.4259033203125 32.9940071105957 121.1331405639648 C 29.6312255859375 118.8612899780273 26.46885681152344 116.2520523071289 23.5947265625 113.3779220581055 C 20.72059631347656 110.503791809082 18.11135673522949 107.341423034668 15.83950805664062 103.9786376953125 C 13.5467472076416 100.5848999023438 11.57768249511719 96.95726776123047 9.987030029296875 93.196533203125 C 6.677877902984619 85.37283325195312 5.000008583068848 77.05912017822266 5.000008583068848 68.48631286621094 C 5.000008583068848 59.91350936889648 6.677877902984619 51.59981155395508 9.987030029296875 43.77611541748047 C 11.57768249511719 40.01535797119141 13.5467472076416 36.38774871826172 15.83950805664062 32.9940071105957 C 18.11135673522949 29.6312255859375 20.72059631347656 26.46885681152344 23.5947265625 23.5947265625 C 26.46885681152344 20.72059631347656 29.6312255859375 18.11135673522949 32.9940071105957 15.83950805664062 C 36.38774871826172 13.5467472076416 40.01535797119141 11.57768249511719 43.77611541748047 9.987030029296875 C 51.59981155395508 6.677877902984619 59.91350936889648 5.000008583068848 68.48631286621094 5.000008583068848 C 77.05912017822266 5.000008583068848 85.37283325195312 6.677877902984619 93.196533203125 9.987030029296875 C 96.95726776123047 11.57768249511719 100.5848999023438 13.5467472076416 103.9786376953125 15.83950805664062 C 107.341423034668 18.11135673522949 110.503791809082 20.72059631347656 113.3779220581055 23.5947265625 C 116.2520523071289 26.46885681152344 118.8612899780273 29.6312255859375 121.1331405639648 32.9940071105957 C 123.4259033203125 36.38774871826172 125.3949661254883 40.01535797119141 126.9856185913086 43.77611541748047 C 130.2947692871094 51.59981155395508 131.9726409912109 59.91350936889648 131.9726409912109 68.48631286621094 C 131.9726409912109 77.05912017822266 130.2947692871094 85.37283325195312 126.9856185913086 93.196533203125 C 125.3949661254883 96.95726776123047 123.4259033203125 100.5848999023438 121.1331405639648 103.9786376953125 C 118.8612899780273 107.341423034668 116.2520523071289 110.503791809082 113.3779220581055 113.3779220581055 C 110.503791809082 116.2520523071289 107.341423034668 118.8612899780273 103.9786376953125 121.1331405639648 C 100.5848999023438 123.4259033203125 96.95726776123047 125.3949661254883 93.196533203125 126.9856185913086 C 85.37283325195312 130.2947692871094 77.05912017822266 131.9726409912109 68.48631286621094 131.9726409912109 Z" stroke="none"/>
        <path d="M 68.48631286621094 10.00000762939453 C 36.23686981201172 10.00000762939453 10.00000762939453 36.23686981201172 10.00000762939453 68.48631286621094 C 10.00000762939453 100.7357559204102 36.23686981201172 126.9726181030273 68.48631286621094 126.9726181030273 C 100.7357559204102 126.9726181030273 126.9726181030273 100.7357559204102 126.9726181030273 68.48631286621094 C 126.9726181030273 36.23686981201172 100.7357559204102 10.00000762939453 68.48631286621094 10.00000762939453 M 68.48631286621094 0 C 106.3102569580078 0 136.9726257324219 30.66236877441406 136.9726257324219 68.48631286621094 C 136.9726257324219 106.3102569580078 106.3102569580078 136.9726257324219 68.48631286621094 136.9726257324219 C 30.66236877441406 136.9726257324219 0 106.3102569580078 0 68.48631286621094 C 0 30.66236877441406 30.66236877441406 0 68.48631286621094 0 Z" stroke="none" fill="#8c6df2"/>
      </g>
    </g>
    <g id="Grupo_132111" data-name="Grupo 132111" transform="translate(-632.797 -10301.973)">
      <path id="Trazado_137488" data-name="Trazado 137488" d="M1528.424,229h23.62a11.206,11.206,0,0,1,1.661.533,5.251,5.251,0,0,1,3.039,5.081q0,11.046,0,22.091c0,.19-.016.38-.024.554a.807.807,0,0,1-.144.054c-.077.01-.156.011-.234.015a17.405,17.405,0,0,0-15.494,10.113.757.757,0,0,1-.813.461q-9.959-.015-19.917-.007c-.215,0-.432-.009-.646.011a1.756,1.756,0,0,0-.013,3.5c.213.021.43.012.646.012h19.326c-.124,1.192-.243,2.331-.367,3.525h-.691q-9.224,0-18.449,0c-1.256,0-2.06.681-2.073,1.743-.012,1.081.807,1.778,2.093,1.782h19.527a18.139,18.139,0,0,0,6.752,10.66c-.214.02-.287.033-.362.033-9.89,0-19.78.014-29.67-.023a5.57,5.57,0,0,1-2.366-.558,5.315,5.315,0,0,1-3.029-5.156q0-18.037,0-36.074c0-.189.017-.378.028-.609h15.423c1.536,0,2.174-.638,2.174-2.175Q1528.425,236.785,1528.424,229Zm5.347,24.8h-13.689c-1.409,0-2.229.649-2.229,1.763s.819,1.762,2.23,1.762h27.378a5.376,5.376,0,0,0,.587-.01,1.709,1.709,0,0,0,1.535-1.18,1.759,1.759,0,0,0-1.829-2.333Q1540.762,253.788,1533.77,253.8Zm-3.177,7.051h-5.636c-1.781,0-3.562-.014-5.343.008a1.747,1.747,0,0,0-1.761,1.692,1.772,1.772,0,0,0,1.519,1.8,4.568,4.568,0,0,0,.645.021h21.137c.177,0,.354.006.528-.011a1.761,1.761,0,0,0-.285-3.511C1537.8,260.84,1534.195,260.846,1530.594,260.846Zm10.285-21.152c-2.33,0-4.661,0-6.991,0a1.781,1.781,0,0,0-1.791,1.082,1.748,1.748,0,0,0,1.675,2.439c2.252.021,4.5.006,6.756.007,2.409,0,4.817,0,7.226,0a1.781,1.781,0,0,0,1.791-1.082,1.748,1.748,0,0,0-1.675-2.439C1545.54,239.68,1543.209,239.695,1540.879,239.694Zm-.057,10.576c2.311,0,4.621,0,6.932,0a1.781,1.781,0,0,0,1.791-1.082,1.748,1.748,0,0,0-1.674-2.439c-2.213-.021-4.426-.006-6.638-.007-2.448,0-4.9,0-7.343,0a1.781,1.781,0,0,0-1.791,1.082,1.756,1.756,0,0,0,1.733,2.442C1536.161,250.279,1538.491,250.269,1540.822,250.27Z" transform="translate(0 0)" fill="#8c6df2"/>
      <path id="Trazado_137489" data-name="Trazado 137489" d="M1755.469,460.685a38.705,38.705,0,0,1-1.013,3.958,14.071,14.071,0,1,1,.727-7.919c.112.533.192,1.073.287,1.61Zm-15.986,1.648c-.771-.781-1.48-1.506-2.2-2.224a1.759,1.759,0,1,0-2.524,2.446c1.056,1.1,2.152,2.166,3.233,3.244a1.831,1.831,0,0,0,2.988-.007q3.283-3.278,6.56-6.561a4.019,4.019,0,0,0,.393-.435,1.735,1.735,0,0,0-.868-2.714,1.8,1.8,0,0,0-1.955.594C1743.269,458.537,1741.417,460.393,1739.484,462.334Z" transform="translate(-184.506 -184.563)" fill="#8c6df2"/>
      <path id="Trazado_137490" data-name="Trazado 137490" d="M1530.985,252.1h-13l13-12.659Z" transform="translate(-6.131 -8.906)" fill="#8c6df2"/>
    </g>
  </g>
</svg>
