<svg xmlns="http://www.w3.org/2000/svg" width="116.987" height="54.001" viewBox="0 0 116.987 54.001">
  <g id="Grupo_132224" data-name="Grupo 132224" transform="translate(3069.473 10400.808)">
    <g id="Grupo_131960" data-name="Grupo 131960" transform="translate(-1788.163 -11308.838)">
      <g id="Grupo_131960-2" data-name="Grupo 131960" transform="translate(-1253.411 908.03)">
        <path id="Trazado_187837" data-name="Trazado 187837" d="M-986.037,1054.508c-.321.646-.88.727-1.533.726q-10.875-.019-21.75-.007-18.488.01-36.976.025-13.572,0-27.144-.026c-.232,0-.464,0-.7-.01a.946.946,0,0,1-.989-.994.945.945,0,0,1,.923-1.06c.572-.052,1.154-.011,1.865-.011V1052q0-17.184,0-34.368c0-1.593.2-1.8,1.8-1.8h17.521V1053.1h2.095V1035.87c.392-.024.7-.058,1-.058q19.315,0,38.631-.019c.787,0,1.027.194,1.021,1.008-.038,5.075-.019,10.151-.019,15.226v1.064h2.068v-37.253h17.634c1.516,0,1.732.223,1.732,1.781q0,17.184,0,34.368v1.048c.957.323,2.138-.327,2.812.778Zm-45.617-1.436h2.114v-8.356H-1025v8.351h2.091v-8.4c.431,0,.8.007,1.173,0,1.074-.024,1.4-.345,1.4-1.41s.005-2.146,0-3.218c0-1.2-.327-1.522-1.562-1.523q-6,0-12,0c-1.885,0-3.769-.01-5.654.005-.909.007-1.292.377-1.3,1.25-.018,1.247-.011,2.494,0,3.74a1.047,1.047,0,0,0,1.132,1.149c.475.017.951,0,1.49,0v8.418h2.065v-8.356h4.513Zm-38.615-7.089c0,.782,0,1.563,0,2.345a1.078,1.078,0,0,0,1.141,1.236c1.36.028,2.721.021,4.082,0a1.056,1.056,0,0,0,1.145-1.147q.032-2.431,0-4.863a1.049,1.049,0,0,0-1.14-1.147c-1.361-.014-2.722-.02-4.082,0a1.071,1.071,0,0,0-1.147,1.227Q-1070.267,1044.811-1070.268,1045.984Zm6.377-10.455c0-.782.008-1.563,0-2.345a1.114,1.114,0,0,0-1.238-1.24c-1.3-.006-2.606-.021-3.908,0-.846.017-1.214.4-1.224,1.239q-.027,2.345,0,4.69c.01.844.374,1.214,1.227,1.23,1.3.025,2.605.009,3.908.006a1.108,1.108,0,0,0,1.234-1.24C-1063.884,1037.092-1063.891,1036.31-1063.891,1035.529Zm72.974,10.427c0-.782,0-1.563,0-2.345a1.072,1.072,0,0,0-1.173-1.2c-1.331-.017-2.663-.011-3.995,0a1.076,1.076,0,0,0-1.2,1.18c-.016,1.592-.014,3.184,0,4.776a1.084,1.084,0,0,0,1.176,1.208q2,.024,3.995,0a1.1,1.1,0,0,0,1.2-1.269C-990.922,1047.519-990.917,1046.737-990.918,1045.955Zm-9.046.11c0-.781.01-1.563,0-2.345-.014-.922-.345-1.294-1.233-1.311-1.3-.025-2.605-.008-3.908-.005a1.073,1.073,0,0,0-1.218,1.158q-.027,2.431,0,4.863a1.051,1.051,0,0,0,1.146,1.143c1.36.018,2.721.023,4.081,0a1.051,1.051,0,0,0,1.131-1.155C-999.956,1047.628-999.964,1046.847-999.963,1046.065Zm-54.888-.151c0-.753.005-1.505,0-2.258a1.1,1.1,0,0,0-1.219-1.252c-1.3-.005-2.606-.019-3.908,0-.859.015-1.227.381-1.237,1.218q-.027,2.344,0,4.689c.009.851.369,1.234,1.209,1.252,1.3.027,2.605.011,3.908.006a1.111,1.111,0,0,0,1.247-1.228C-1054.843,1047.535-1054.851,1046.724-1054.851,1045.914Zm63.934-10.352c0-.782.013-1.563,0-2.345-.018-.861-.362-1.249-1.2-1.267-1.331-.029-2.663-.019-3.995,0a1.083,1.083,0,0,0-1.177,1.207c-.012,1.592-.014,3.184,0,4.776a1.076,1.076,0,0,0,1.2,1.181c1.332.007,2.663.013,3.995,0a1.072,1.072,0,0,0,1.174-1.2C-990.915,1037.125-990.918,1036.343-990.917,1035.562Zm-9.046,0c0-.782.012-1.563,0-2.345-.017-.863-.358-1.247-1.194-1.265-1.331-.029-2.663-.019-3.995,0a1.08,1.08,0,0,0-1.173,1.208c-.01,1.592-.013,3.184,0,4.776a1.073,1.073,0,0,0,1.2,1.18c1.332.007,2.663.014,3.995,0a1.069,1.069,0,0,0,1.171-1.2C-999.962,1037.123-999.964,1036.342-999.963,1035.56Zm-54.887.035c0-.781.016-1.564,0-2.345-.025-.93-.355-1.286-1.254-1.3-1.3-.024-2.606-.026-3.908,0-.837.018-1.193.4-1.2,1.258-.015,1.563,0,3.126,0,4.689a1.069,1.069,0,0,0,1.162,1.21c1.331.02,2.663.011,3.995.005a1.1,1.1,0,0,0,1.212-1.259C-1054.847,1037.1-1054.851,1036.348-1054.85,1035.6Zm-15.418-10.539c0,.782-.013,1.564,0,2.345.019.86.359,1.225,1.21,1.241,1.3.024,2.605,0,3.908.009a1.1,1.1,0,0,0,1.251-1.214c.013-1.563.023-3.127,0-4.689-.014-.9-.387-1.246-1.3-1.26q-1.867-.028-3.734,0c-.984.013-1.323.38-1.334,1.4C-1070.275,1023.609-1070.269,1024.333-1070.268,1025.056Zm15.417.069c0-.81.012-1.621,0-2.431a1.089,1.089,0,0,0-1.181-1.2q-2-.024-3.994,0a1.076,1.076,0,0,0-1.189,1.189q-.01,2.388,0,4.776a1.06,1.06,0,0,0,1.176,1.19c1.331.01,2.663,0,3.994,0a1.07,1.07,0,0,0,1.194-1.179C-1054.839,1026.688-1054.853,1025.906-1054.852,1025.125Zm54.888-.006c0-.781.012-1.563,0-2.345-.017-.9-.37-1.27-1.266-1.285-1.273-.022-2.547-.005-3.821-.006a1.11,1.11,0,0,0-1.274,1.2q-.024,2.388,0,4.776a1.063,1.063,0,0,0,1.183,1.187c1.331,0,2.663.02,3.994-.006.838-.017,1.167-.391,1.184-1.265C-999.952,1026.624-999.963,1025.871-999.963,1025.119Zm9.045-.023c0-.81.008-1.621,0-2.432a1.055,1.055,0,0,0-1.119-1.168c-1.36-.03-2.721-.022-4.081-.006a1.057,1.057,0,0,0-1.16,1.132c-.024,1.621-.022,3.242,0,4.863a1.066,1.066,0,0,0,1.207,1.165c1.332,0,2.663.008,3.995,0a1.064,1.064,0,0,0,1.165-1.2C-990.915,1026.658-990.918,1025.877-990.918,1025.1Z" transform="translate(1075.125 -1001.25)" fill="#5038a1"/>
        <path id="Trazado_187838" data-name="Trazado 187838" d="M-880.638,940.458h-40.623v-1.029c0-9.193-.017-18.386.026-27.579,0-.932-.28-1.294-1.158-1.377-.573-.054-1.132-.244-1.7-.343-.726-.125-1.2-.45-1.083-1.27.1-.7.634-.963,1.549-.767q6.159,1.317,12.317,2.639,14.439,3.089,28.88,6.172c1.709.365,1.795.446,1.795,2.151q0,10.135,0,20.271Zm-20.348-3.268c.9,0,1.794.021,2.69-.006.92-.028,1.249-.359,1.264-1.287q.033-2.039,0-4.078c-.016-.913-.363-1.261-1.28-1.272q-2.646-.032-5.293,0c-.908.012-1.248.366-1.263,1.288q-.033,2.039,0,4.078c.016.919.348,1.243,1.279,1.271C-902.723,937.211-901.854,937.19-900.987,937.19Zm.054-9.668q1.345,0,2.69,0a1.069,1.069,0,0,0,1.206-1.166c.021-1.446.023-2.892,0-4.338a1.035,1.035,0,0,0-1.155-1.12c-1.822,0-3.644,0-5.466,0a1.062,1.062,0,0,0-1.206,1.16c-.02,1.417-.016,2.834,0,4.251a1.094,1.094,0,0,0,1.247,1.216C-902.726,927.517-901.829,927.522-900.933,927.522Zm-10.439,3.02c-.9,0-1.793-.006-2.69,0a1.1,1.1,0,0,0-1.245,1.224c0,1.388,0,2.777,0,4.165a1.1,1.1,0,0,0,1.213,1.253c1.793.01,3.587.007,5.38,0a1.106,1.106,0,0,0,1.251-1.221c.009-1.388.022-2.777,0-4.165-.017-.9-.372-1.233-1.3-1.256C-909.636,930.524-910.5,930.541-911.372,930.542Zm20.906,0c-.9,0-1.794-.018-2.69.005-.915.024-1.264.363-1.28,1.275q-.036,2.039,0,4.078c.015.922.35,1.27,1.269,1.283q2.646.037,5.294,0c.935-.013,1.258-.343,1.274-1.271q.035-2.039,0-4.079c-.016-.951-.363-1.27-1.349-1.29C-888.788,930.527-889.627,930.54-890.466,930.541ZM-911.39,920.9c-.868,0-1.735-.01-2.6,0-.962.014-1.3.338-1.312,1.314q-.03,2,0,3.991c.015.967.364,1.31,1.314,1.316q2.6.017,5.206,0c.917-.006,1.3-.343,1.314-1.232q.043-2.081,0-4.164c-.019-.892-.387-1.211-1.317-1.224C-909.655,920.886-910.522,920.9-911.39,920.9Zm20.886,0c-.9,0-1.793.007-2.69,0a1.092,1.092,0,0,0-1.244,1.217c-.014,1.388-.024,2.777,0,4.165.017.892.394,1.237,1.3,1.242,1.764.012,3.529,0,5.293,0,.771,0,1.218-.362,1.231-1.136.024-1.446.021-2.892,0-4.338a1.058,1.058,0,0,0-1.21-1.154C-888.711,920.9-889.608,920.9-890.5,920.9Z" transform="translate(945.484 -908.03)" fill="#5038a1"/>
        <path id="Trazado_187839" data-name="Trazado 187839" d="M-1022,981.7H-1036.7c0-.644-.046-1.249.011-1.844.082-.85.683-1.031,1.434-1.028,3.6.012,7.19.005,10.786.005.406,0,.812,0,1.218,0a1.112,1.112,0,0,1,1.255,1.222C-1021.983,980.572-1022,981.09-1022,981.7Z" transform="translate(1041.916 -969.248)" fill="#5038a1"/>
        <path id="Trazado_187840" data-name="Trazado 187840" d="M-563.927,981.706a18.338,18.338,0,0,1,.016-1.965.984.984,0,0,1,1.118-.87q6.175,0,12.351,0a1.077,1.077,0,0,1,1.184,1.2c.011.52,0,1.041,0,1.637Z" transform="translate(633.114 -969.283)" fill="#5038a1"/>
        <path id="Trazado_187841" data-name="Trazado 187841" d="M-1021.345,1228.1h-2.163v2.809c2.031.428,2.163.327,2.163-1.617C-1021.346,1228.923-1021.345,1228.551-1021.345,1228.1Z" transform="translate(1030.492 -1184.795)" fill="#5038a1"/>
        <path id="Trazado_187842" data-name="Trazado 187842" d="M-1021.189,1152.962c0-.453,0-.8,0-1.142,0-1.956,0-1.957-1.993-1.771-.051,0-.1.056-.146.089v2.824Z" transform="translate(1030.336 -1117.236)" fill="#5038a1"/>
        <path id="Trazado_187843" data-name="Trazado 187843" d="M-484.47,1227.922c0,.464,0,.835,0,1.2,0,1.97.089,2.04,2.149,1.636v-2.841Z" transform="translate(564.391 -1184.638)" fill="#5038a1"/>
        <path id="Trazado_187844" data-name="Trazado 187844" d="M-549.158,1230.99v-2.816h-2.134c0,.423,0,.767,0,1.111,0,1.949,0,1.95,1.989,1.778C-549.277,1231.06-549.253,1231.038-549.158,1230.99Z" transform="translate(622.171 -1184.856)" fill="#5038a1"/>
        <path id="Trazado_187845" data-name="Trazado 187845" d="M-956.664,1231.023c.6,0,1.174.029,1.738-.02a.59.59,0,0,0,.4-.412c.039-.823.018-1.649.018-2.491h-2.154Z" transform="translate(972.693 -1184.792)" fill="#5038a1"/>
        <path id="Trazado_187846" data-name="Trazado 187846" d="M-549.141,1153.185v-2.937c-.6,0-1.146-.03-1.685.019a.6.6,0,0,0-.423.386c-.041.826-.02,1.655-.02,2.533Z" transform="translate(622.156 -1117.466)" fill="#5038a1"/>
        <path id="Trazado_187847" data-name="Trazado 187847" d="M-1023.474,1073.3v2.89h2.089v-2.89Z" transform="translate(1030.463 -1050.939)" fill="#5038a1"/>
        <path id="Trazado_187848" data-name="Trazado 187848" d="M-956.182,1073.351v2.894h2.034v-2.894Z" transform="translate(972.276 -1050.982)" fill="#5038a1"/>
        <path id="Trazado_187849" data-name="Trazado 187849" d="M-550.86,1073.049v2.862h2.071v-2.925c-.55,0-1.035,0-1.52,0C-550.475,1072.991-550.641,1073.024-550.86,1073.049Z" transform="translate(621.797 -1050.665)" fill="#5038a1"/>
        <path id="Trazado_187850" data-name="Trazado 187850" d="M-484.47,1073.348c0,.449,0,.817,0,1.185,0,1.97,0,1.971,2.034,1.707.024,0,.046-.028.118-.073v-2.819Z" transform="translate(564.391 -1050.979)" fill="#5038a1"/>
        <path id="Trazado_187851" data-name="Trazado 187851" d="M-759.208,1092.68h3.542v-2.337h-3.542Z" transform="translate(801.954 -1065.675)" fill="#5038a1"/>
        <path id="Trazado_187852" data-name="Trazado 187852" d="M-832.657,1092.232c0-.7.032-1.331-.021-1.954a.653.653,0,0,0-.449-.447c-1.027-.041-2.057-.021-3.143-.021v2.421Z" transform="translate(868.589 -1065.21)" fill="#5038a1"/>
        <path id="Trazado_187853" data-name="Trazado 187853" d="M-678.542,1019.067h-3.585v2.331h3.585Z" transform="translate(735.303 -1004.043)" fill="#5038a1"/>
        <path id="Trazado_187854" data-name="Trazado 187854" d="M-806.21,1201.113v-1.853h16.267v1.853Z" transform="translate(842.597 -1159.854)" fill="#5038a1"/>
        <path id="Trazado_187855" data-name="Trazado 187855" d="M-1021.345,1228.1c0,.448,0,.82,0,1.191,0,1.945-.132,2.046-2.163,1.617V1228.1Z" transform="translate(1030.492 -1184.795)" fill="#5038a1"/>
        <path id="Trazado_187856" data-name="Trazado 187856" d="M-1021.189,1152.962h-2.138c0-.958,0-1.891,0-2.825.048-.031.095-.083.145-.087,1.993-.186,1.993-.185,1.993,1.771C-1021.189,1152.165-1021.189,1152.51-1021.189,1152.962Z" transform="translate(1030.336 -1117.236)" fill="#5038a1"/>
        <path id="Trazado_187857" data-name="Trazado 187857" d="M-484.47,1227.922h2.149v2.841c-2.06.4-2.15.334-2.149-1.636C-484.47,1228.757-484.47,1228.386-484.47,1227.922Z" transform="translate(564.391 -1184.638)" fill="#5038a1"/>
        <path id="Trazado_187858" data-name="Trazado 187858" d="M-549.158,1230.99c-.095.048-.119.07-.145.073-1.991.172-1.991.171-1.989-1.778,0-.344,0-.688,0-1.111h2.134Z" transform="translate(622.171 -1184.856)" fill="#5038a1"/>
        <path id="Trazado_187859" data-name="Trazado 187859" d="M-956.664,1231.023V1228.1h2.154c0,.842.021,1.668-.018,2.491a.59.59,0,0,1-.4.412C-955.49,1231.053-956.061,1231.023-956.664,1231.023Z" transform="translate(972.693 -1184.792)" fill="#5038a1"/>
        <path id="Trazado_187860" data-name="Trazado 187860" d="M-484.47,1152.653c0-.447,0-.818,0-1.189,0-1.947.127-2.045,2.161-1.619v2.809Z" transform="translate(564.391 -1116.947)" fill="#5038a1"/>
        <path id="Trazado_187861" data-name="Trazado 187861" d="M-549.141,1153.185h-2.128c0-.878-.021-1.707.02-2.533a.6.6,0,0,1,.423-.386c.539-.048,1.085-.019,1.685-.019Z" transform="translate(622.156 -1117.466)" fill="#5038a1"/>
        <path id="Trazado_187862" data-name="Trazado 187862" d="M-954.442,1152.715h-2.149v-2.844c2.109-.377,2.15-.344,2.149,1.654C-954.442,1151.894-954.442,1152.263-954.442,1152.715Z" transform="translate(972.63 -1116.987)" fill="#5038a1"/>
        <path id="Trazado_187863" data-name="Trazado 187863" d="M-1023.474,1073.3h2.089v2.89h-2.089Z" transform="translate(1030.463 -1050.939)" fill="#5038a1"/>
        <path id="Trazado_187864" data-name="Trazado 187864" d="M-956.182,1073.351h2.034v2.894h-2.034Z" transform="translate(972.276 -1050.982)" fill="#5038a1"/>
        <path id="Trazado_187865" data-name="Trazado 187865" d="M-550.86,1073.049c.219-.025.385-.058.551-.06.485-.007.971,0,1.52,0v2.925h-2.071Z" transform="translate(621.797 -1050.665)" fill="#5038a1"/>
        <path id="Trazado_187866" data-name="Trazado 187866" d="M-484.47,1073.348h2.151v2.819c-.071.045-.093.07-.118.073-2.034.264-2.034.263-2.034-1.707C-484.47,1074.165-484.47,1073.8-484.47,1073.348Z" transform="translate(564.391 -1050.979)" fill="#5038a1"/>
        <path id="Trazado_187867" data-name="Trazado 187867" d="M-759.208,1092.68v-2.337h3.542v2.337Z" transform="translate(801.954 -1065.675)" fill="#5038a1"/>
        <path id="Trazado_187868" data-name="Trazado 187868" d="M-755.535,1018.978v2.354h-3.557v-2.354Z" transform="translate(801.854 -1003.966)" fill="#5038a1"/>
        <path id="Trazado_187869" data-name="Trazado 187869" d="M-832.657,1092.232h-3.613v-2.421c1.086,0,2.116-.02,3.143.021a.653.653,0,0,1,.449.447C-832.625,1090.9-832.657,1091.531-832.657,1092.232Z" transform="translate(868.589 -1065.21)" fill="#5038a1"/>
        <path id="Trazado_187870" data-name="Trazado 187870" d="M-678.843,1089.821v2.416h-3.618c0-.674-.025-1.351.021-2.023a.589.589,0,0,1,.431-.376C-680.98,1089.8-679.949,1089.821-678.843,1089.821Z" transform="translate(735.598 -1065.22)" fill="#5038a1"/>
        <path id="Trazado_187871" data-name="Trazado 187871" d="M-832.713,1018.918v2.333h-3.571v-2.333Z" transform="translate(868.6 -1003.914)" fill="#5038a1"/>
        <path id="Trazado_187872" data-name="Trazado 187872" d="M-678.542,1019.067v2.331h-3.585v-2.331Z" transform="translate(735.303 -1004.043)" fill="#5038a1"/>
      </g>
      <g id="Grupo_131961" data-name="Grupo 131961" transform="translate(-1281.31 941.832)">
        <path id="Trazado_187873" data-name="Trazado 187873" d="M-1254.845,1174.873a3.3,3.3,0,0,1-2.421,2.715,3.29,3.29,0,0,1-4.1-2.485c-.041-.187-.107-.234-.286-.233q-5,.007-9.992,0c-.165,0-.231.04-.27.217a3.3,3.3,0,0,1-3.246,2.624,3.326,3.326,0,0,1-3.23-2.616c-.015-.065-.027-.131-.046-.222-.46,0-.912,0-1.363,0a1.425,1.425,0,0,1-1.5-1.5q0-7.007,0-14.015a1.426,1.426,0,0,1,1.523-1.513q10.953,0,21.905,0a1.465,1.465,0,0,1,1.42.871c1.425,2.853,2.858,5.7,4.272,8.561a2.019,2.019,0,0,1,.2.849c.018,1.734.01,3.469.008,5.2a1.432,1.432,0,0,1-1.547,1.548Zm-16-10.9q0,1.359,0,2.718c0,.43.132.562.564.562q1.742,0,3.485,0c.433,0,.568-.132.569-.557q0-2.7,0-5.405c0-.41-.139-.548-.549-.548q-1.757,0-3.514,0c-.423,0-.554.137-.554.572Q-1270.848,1162.639-1270.847,1163.968Zm8.456,3.333c0-.452,0-.864,0-1.276,0-.447.16-.612.6-.613.709,0,1.419.006,2.128,0a.573.573,0,0,1,.582.362c.216.453.437.9.676,1.344a.4.4,0,0,0,.284.179c.4.02.807.014,1.211.007a.476.476,0,0,0,.464-.741q-1.377-2.776-2.767-5.547a.552.552,0,0,0-.544-.329c-1,0-2.01,0-3.014,0-.383,0-.554.18-.557.568,0,.522,0,1.044,0,1.567q0,1.951,0,3.9c0,.4.173.571.577.578C-1262.646,1167.3-1262.539,1167.3-1262.391,1167.3Zm-15.13-.053c0-.444,0-.856,0-1.267,0-.388.176-.566.557-.568.739,0,1.478,0,2.217,0a.522.522,0,0,1,.516.321c.122.252.25.5.383.765.031-.041.05-.055.05-.069,0-1.754.005-3.508,0-5.262,0-.277-.166-.424-.458-.425q-1.847-.007-3.695,0a.412.412,0,0,0-.459.46q-.006,2.794,0,5.588a.418.418,0,0,0,.459.461C-1277.823,1167.253-1277.7,1167.248-1277.521,1167.248Zm0,7.156a2.374,2.374,0,0,0,2.354,2.354,2.372,2.372,0,0,0,2.368-2.37,2.367,2.367,0,0,0-2.383-2.352A2.368,2.368,0,0,0-1277.521,1174.4Zm19.381-2.368a2.359,2.359,0,0,0-2.36,2.341,2.362,2.362,0,0,0,2.352,2.381,2.376,2.376,0,0,0,2.366-2.373A2.372,2.372,0,0,0-1258.14,1172.036Zm-8.969-.946h4.045a1.251,1.251,0,0,0,.294-.012.448.448,0,0,0,.379-.489.446.446,0,0,0-.4-.442,1.26,1.26,0,0,0-.235-.007h-8.178a1.388,1.388,0,0,0-.236.006.445.445,0,0,0-.407.434.449.449,0,0,0,.37.5,1.141,1.141,0,0,0,.294.014Zm1.884,1.892c.767,0,1.535,0,2.3,0a.476.476,0,0,0,.535-.465c.007-.292-.2-.484-.542-.485q-2.3,0-4.6,0c-.12,0-.293.029-.347.109a.793.793,0,0,0-.157.495c.031.238.239.343.482.343Z" transform="translate(1281.31 -1157.84)" fill="#5038a1"/>
        <path id="Trazado_187874" data-name="Trazado 187874" d="M-1251.875,1192.173a1.415,1.415,0,0,0,1.407-1.44,1.418,1.418,0,0,0-1.422-1.4,1.428,1.428,0,0,0-1.412,1.411A1.427,1.427,0,0,0-1251.875,1192.173Z" transform="translate(1257.092 -1185.076)" fill="#5038a1"/>
        <path id="Trazado_187875" data-name="Trazado 187875" d="M-1140.081,1192.173a1.418,1.418,0,0,1-1.4-1.444,1.421,1.421,0,0,1,1.428-1.392,1.426,1.426,0,0,1,1.407,1.415A1.425,1.425,0,0,1-1140.081,1192.173Z" transform="translate(1160.404 -1185.076)" fill="#5038a1"/>
        <path id="Trazado_187876" data-name="Trazado 187876" d="M-1251.875,1192.173a1.427,1.427,0,0,1-1.427-1.424,1.428,1.428,0,0,1,1.412-1.411,1.418,1.418,0,0,1,1.422,1.4A1.415,1.415,0,0,1-1251.875,1192.173Z" transform="translate(1257.092 -1185.076)" fill="#5038a1"/>
        <path id="Trazado_187877" data-name="Trazado 187877" d="M-1241.873,1273.212a.942.942,0,0,1,.95.925.944.944,0,0,1-.938.969.957.957,0,0,1-.956-.957A.95.95,0,0,1-1241.873,1273.212Z" transform="translate(1248.026 -1257.601)" fill="#5038a1"/>
        <path id="Trazado_187878" data-name="Trazado 187878" d="M-1117.021,1274.157a.942.942,0,0,1,.961-.946.947.947,0,0,1,.933.946.951.951,0,0,1-.962.948A.949.949,0,0,1-1117.021,1274.157Z" transform="translate(1139.251 -1257.601)" fill="#5038a1"/>
      </g>
    </g>
  </g>
</svg>
