<svg xmlns="http://www.w3.org/2000/svg" width="94.092" height="94.09" viewBox="0 0 94.092 94.09">
  <g id="Grupo_132219" data-name="Grupo 132219" transform="translate(3421 10567.144)">
    <g id="Grupo_132218" data-name="Grupo 132218" transform="translate(-2573.522 -11649.451)">
      <path id="Trazado_187879" data-name="Trazado 187879" d="M-739.094,1391.161c-2.03-1.177-2.343-1.974-1.7-4.3q2.685-9.63,5.368-19.261c.057-.205.13-.406.21-.651h30.083c.112.345.245.712.35,1.087q2.621,9.41,5.236,18.822c.646,2.322.333,3.118-1.694,4.3Z" transform="translate(-80.267 -214.763)" fill="#5038a1"/>
      <path id="Trazado_187880" data-name="Trazado 187880" d="M-847.478,1369.611c.741-2.206,2.3-2.99,4.583-2.966,6.858.072,13.718.026,20.577.026h1.1l-5.126,18.377h-8.7c-2.909,0-5.82-.066-8.726.025a3.483,3.483,0,0,1-3.7-2.047Z" transform="translate(0 -214.53)" fill="#5038a1"/>
      <path id="Trazado_187881" data-name="Trazado 187881" d="M-745.387,1146.592h-5.473v-7.24h-7.364v7.223h-5.491v-58.69h-11.072c0,1.711-.015,3.415.019,5.119a1.013,1.013,0,0,0,.428.627,5.575,5.575,0,0,1,2.308,4.759c-.007,1.072.013,2.144-.005,3.215a1.843,1.843,0,0,1-2,2.013q-3.537.028-7.074,0a1.75,1.75,0,0,1-1.913-1.6,35.878,35.878,0,0,1,.041-4.679,5.111,5.111,0,0,1,2.19-3.679,1.112,1.112,0,0,0,.464-.7c.04-1.677.021-3.356.021-5.087h-16.531c0,1.73-.017,3.49.024,5.249,0,.2.311.418.516.579a5.464,5.464,0,0,1,2.2,4.348c.03,1.193.025,2.389,0,3.583a1.841,1.841,0,0,1-2.022,1.986q-3.491.025-6.982,0a1.843,1.843,0,0,1-2.011-2c-.019-1.194-.026-2.389,0-3.583a5.575,5.575,0,0,1,2.2-4.355,1.559,1.559,0,0,0,.523-1.027c.056-1.582.024-3.167.024-4.793h-10.993v58.705h-5.524v-7.228h-7.332v7.209h-5.554v-.943q0-30,0-59.992c0-2.276,1.031-3.308,3.3-3.308h79.744c2.288,0,3.325,1.023,3.325,3.287q0,30,0,59.992Zm-80.782-58.751v7.269h7.2v-7.269Zm75.23.047h-7.237v7.233h7.237Zm-75.241,12.838v7.237h7.237v-7.237Zm75.2,7.29v-7.269h-7.2v7.269Zm-67.995,12.864v-7.269h-7.2v7.269Zm68.006-.021v-7.237H-758.2v7.237Zm-67.949,5.63h-7.269v7.2h7.269Zm60.729-.037v7.237h7.236v-7.237Z" transform="translate(-11.86)" fill="#5038a1"/>
      <path id="Trazado_187882" data-name="Trazado 187882" d="M-734.282,1285.08V1265.9h38.477v19.182Z" transform="translate(-85.406 -138.518)" fill="#5038a1"/>
      <path id="Trazado_187883" data-name="Trazado 187883" d="M-566.048,1385.128l-5.124-18.377h.989q10.565,0,21.13,0c2.677,0,4.134,1.461,4.136,4.147q0,5.558,0,11.117a2.808,2.808,0,0,1-3.132,3.111q-8.59.006-17.18,0Z" transform="translate(-208.471 -214.611)" fill="#5038a1"/>
    </g>
  </g>
</svg>
