<svg xmlns="http://www.w3.org/2000/svg" width="136.973" height="136.973" viewBox="0 0 136.973 136.973">
  <g id="Grupo_132225" data-name="Grupo 132225" transform="translate(-385 -1726)">
    <g id="Grupo_89571" data-name="Grupo 89571" transform="translate(385 1726)">
      <g id="Trazado_137458" data-name="Trazado 137458" transform="translate(0 0)" fill="#fff">
        <path d="M 68.48631286621094 131.9726409912109 C 59.91350936889648 131.9726409912109 51.59981155395508 130.2947692871094 43.77611541748047 126.9856185913086 C 40.01535797119141 125.3949661254883 36.38774871826172 123.4259033203125 32.9940071105957 121.1331405639648 C 29.6312255859375 118.8612899780273 26.46885681152344 116.2520523071289 23.5947265625 113.3779220581055 C 20.72059631347656 110.503791809082 18.11135673522949 107.341423034668 15.83950805664062 103.9786376953125 C 13.5467472076416 100.5848999023438 11.57768249511719 96.95726776123047 9.987030029296875 93.196533203125 C 6.677877902984619 85.37283325195312 5.000008583068848 77.05912017822266 5.000008583068848 68.48631286621094 C 5.000008583068848 59.91350936889648 6.677877902984619 51.59981155395508 9.987030029296875 43.77611541748047 C 11.57768249511719 40.01535797119141 13.5467472076416 36.38774871826172 15.83950805664062 32.9940071105957 C 18.11135673522949 29.6312255859375 20.72059631347656 26.46885681152344 23.5947265625 23.5947265625 C 26.46885681152344 20.72059631347656 29.6312255859375 18.11135673522949 32.9940071105957 15.83950805664062 C 36.38774871826172 13.5467472076416 40.01535797119141 11.57768249511719 43.77611541748047 9.987030029296875 C 51.59981155395508 6.677877902984619 59.91350936889648 5.000008583068848 68.48631286621094 5.000008583068848 C 77.05912017822266 5.000008583068848 85.37283325195312 6.677877902984619 93.196533203125 9.987030029296875 C 96.95726776123047 11.57768249511719 100.5848999023438 13.5467472076416 103.9786376953125 15.83950805664062 C 107.341423034668 18.11135673522949 110.503791809082 20.72059631347656 113.3779220581055 23.5947265625 C 116.2520523071289 26.46885681152344 118.8612899780273 29.6312255859375 121.1331405639648 32.9940071105957 C 123.4259033203125 36.38774871826172 125.3949661254883 40.01535797119141 126.9856185913086 43.77611541748047 C 130.2947692871094 51.59981155395508 131.9726409912109 59.91350936889648 131.9726409912109 68.48631286621094 C 131.9726409912109 77.05912017822266 130.2947692871094 85.37283325195312 126.9856185913086 93.196533203125 C 125.3949661254883 96.95726776123047 123.4259033203125 100.5848999023438 121.1331405639648 103.9786376953125 C 118.8612899780273 107.341423034668 116.2520523071289 110.503791809082 113.3779220581055 113.3779220581055 C 110.503791809082 116.2520523071289 107.341423034668 118.8612899780273 103.9786376953125 121.1331405639648 C 100.5848999023438 123.4259033203125 96.95726776123047 125.3949661254883 93.196533203125 126.9856185913086 C 85.37283325195312 130.2947692871094 77.05912017822266 131.9726409912109 68.48631286621094 131.9726409912109 Z" stroke="none"/>
        <path d="M 68.48631286621094 10.00000762939453 C 36.23686981201172 10.00000762939453 10.00000762939453 36.23686981201172 10.00000762939453 68.48631286621094 C 10.00000762939453 100.7357559204102 36.23686981201172 126.9726181030273 68.48631286621094 126.9726181030273 C 100.7357559204102 126.9726181030273 126.9726181030273 100.7357559204102 126.9726181030273 68.48631286621094 C 126.9726181030273 36.23686981201172 100.7357559204102 10.00000762939453 68.48631286621094 10.00000762939453 M 68.48631286621094 0 C 106.3102569580078 0 136.9726257324219 30.66236877441406 136.9726257324219 68.48631286621094 C 136.9726257324219 106.3102569580078 106.3102569580078 136.9726257324219 68.48631286621094 136.9726257324219 C 30.66236877441406 136.9726257324219 0 106.3102569580078 0 68.48631286621094 C 0 30.66236877441406 30.66236877441406 0 68.48631286621094 0 Z" stroke="none" fill="#8c6df2"/>
      </g>
    </g>
    <g id="Grupo_130509" data-name="Grupo 130509" transform="translate(429.287 1762)">
      <path id="Trazado_137471" data-name="Trazado 137471" d="M1488.619,278.9h-38.936c-.03-.027-.055-.07-.09-.08-3.036-.858-4.4-2.658-4.4-5.8q0-18.095,0-36.19c0-5.5-.014-11,.007-16.5a5.21,5.21,0,0,1,3.209-5,12.354,12.354,0,0,1,1.276-.448h29.2c.283.237.586.454.846.714q6.333,6.334,12.664,12.67a2.305,2.305,0,0,1,.728,1.768q-.024,17.338-.011,34.677c0,2.958.014,5.915-.006,8.872a5.323,5.323,0,0,1-3.556,5.014C1489.242,278.7,1488.93,278.8,1488.619,278.9Zm-29.982-11.483c.688-1.235,1.394-2.388,1.984-3.6a4.728,4.728,0,0,0,.425-3.28,3.8,3.8,0,0,0-2.737-2.8,3.091,3.091,0,0,0-3.381.988,5.679,5.679,0,0,0-.944,7.008c.3.561.636,1.1.952,1.648a1.655,1.655,0,0,1-.143.171c-.358.317-.722.628-1.077.949a1.327,1.327,0,1,0,1.694,2.039c.458-.358.888-.751,1.308-1.11a21.765,21.765,0,0,0,1.861,1.141,2.466,2.466,0,0,0,3.166-.595,6.519,6.519,0,0,0,.8-1.036c.373-.6.7-1.223,1.065-1.863.31.792.561,1.582.918,2.321.763,1.576,1.862,1.916,3.357,1.01a33.763,33.763,0,0,0,6.258-5.326,1.265,1.265,0,0,0-.028-1.759,1.3,1.3,0,0,0-1.755-.155,4.855,4.855,0,0,0-.419.373c-1.325,1.2-2.647,2.409-3.979,3.6-.348.312-.735.581-1.159.912-.155-.452-.278-.826-.409-1.2a29.059,29.059,0,0,0-1.062-2.925,1.605,1.605,0,0,0-2.909-.25,7.206,7.206,0,0,0-.65,1.062c-.418.79-.8,1.6-1.225,2.387C1459.829,268.466,1459.67,268.48,1458.636,267.416Zm10.545-31.186q-7.138,0-14.276.006a2.7,2.7,0,0,0-.971.141,1.271,1.271,0,0,0-.728,1.441,1.392,1.392,0,0,0,1.544,1.068q14.4,0,28.8,0c.948,0,1.558-.521,1.569-1.316s-.592-1.323-1.538-1.339c-.166,0-.333,0-.5,0Zm-.008,8h-14.089c-.228,0-.458-.007-.685.014a1.307,1.307,0,0,0-1.216,1.271,1.337,1.337,0,0,0,1.14,1.353,4.208,4.208,0,0,0,.622.018h28.428a4.516,4.516,0,0,0,.561-.013,1.337,1.337,0,0,0,1.185-1.375,1.308,1.308,0,0,0-1.233-1.256c-.227-.019-.457-.012-.686-.012Zm5.28,8q-4.553,0-9.106,0a1.347,1.347,0,0,0-1.515,1.234c-.063.841.577,1.418,1.591,1.418q9.044,0,18.089,0a2.56,2.56,0,0,0,.5-.023,1.3,1.3,0,0,0,1.074-1.008,1.144,1.144,0,0,0-.477-1.32,2.229,2.229,0,0,0-1.108-.293C1480.482,252.224,1477.468,252.234,1474.453,252.234Zm-11.945-24.008q-2.431,0-4.862,0c-1.06,0-2.12-.015-3.179.014a1.288,1.288,0,0,0-1.284,1.266,1.337,1.337,0,0,0,1.259,1.37c.185.016.374.007.561.007h13.651c.623,0,1.248.024,1.87-.01a1.325,1.325,0,0,0,1.209-1.772,1.349,1.349,0,0,0-1.432-.872C1467.7,228.224,1465.1,228.227,1462.507,228.227ZM1479.8,219.7c0,1.958-.052,3.978.017,5.992a2.613,2.613,0,0,0,2.723,2.534c.769.021,1.539,0,2.308,0h3.471Z" transform="translate(-1445.186 -214.879)" fill="#8c6df2"/>
      <path id="Trazado_137472" data-name="Trazado 137472" d="M1510.234,492.368c-1.294-1.752-1.332-3.33-.183-4.61.2-.225.638-.467.861-.391a1.511,1.511,0,0,1,.845.784,1.762,1.762,0,0,1-.05,1.205C1511.289,490.341,1510.773,491.285,1510.234,492.368Z" transform="translate(-1498.549 -441.926)" fill="#8c6df2"/>
    </g>
  </g>
</svg>
