<svg xmlns="http://www.w3.org/2000/svg" width="136.973" height="136.973" viewBox="0 0 136.973 136.973">
  <g id="Grupo_132231" data-name="Grupo 132231" transform="translate(-154.271 10110.973)">
    <g id="Grupo_89571" data-name="Grupo 89571" transform="translate(154.271 -10110.973)">
      <g id="Trazado_137458" data-name="Trazado 137458" transform="translate(0 0)" fill="#fff">
        <path d="M 68.48631286621094 131.9726409912109 C 59.91350936889648 131.9726409912109 51.59981155395508 130.2947692871094 43.77611541748047 126.9856185913086 C 40.01535797119141 125.3949661254883 36.38774871826172 123.4259033203125 32.9940071105957 121.1331405639648 C 29.6312255859375 118.8612899780273 26.46885681152344 116.2520523071289 23.5947265625 113.3779220581055 C 20.72059631347656 110.503791809082 18.11135673522949 107.341423034668 15.83950805664062 103.9786376953125 C 13.5467472076416 100.5848999023438 11.57768249511719 96.95726776123047 9.987030029296875 93.196533203125 C 6.677877902984619 85.37283325195312 5.000008583068848 77.05912017822266 5.000008583068848 68.48631286621094 C 5.000008583068848 59.91350936889648 6.677877902984619 51.59981155395508 9.987030029296875 43.77611541748047 C 11.57768249511719 40.01535797119141 13.5467472076416 36.38774871826172 15.83950805664062 32.9940071105957 C 18.11135673522949 29.6312255859375 20.72059631347656 26.46885681152344 23.5947265625 23.5947265625 C 26.46885681152344 20.72059631347656 29.6312255859375 18.11135673522949 32.9940071105957 15.83950805664062 C 36.38774871826172 13.5467472076416 40.01535797119141 11.57768249511719 43.77611541748047 9.987030029296875 C 51.59981155395508 6.677877902984619 59.91350936889648 5.000008583068848 68.48631286621094 5.000008583068848 C 77.05912017822266 5.000008583068848 85.37283325195312 6.677877902984619 93.196533203125 9.987030029296875 C 96.95726776123047 11.57768249511719 100.5848999023438 13.5467472076416 103.9786376953125 15.83950805664062 C 107.341423034668 18.11135673522949 110.503791809082 20.72059631347656 113.3779220581055 23.5947265625 C 116.2520523071289 26.46885681152344 118.8612899780273 29.6312255859375 121.1331405639648 32.9940071105957 C 123.4259033203125 36.38774871826172 125.3949661254883 40.01535797119141 126.9856185913086 43.77611541748047 C 130.2947692871094 51.59981155395508 131.9726409912109 59.91350936889648 131.9726409912109 68.48631286621094 C 131.9726409912109 77.05912017822266 130.2947692871094 85.37283325195312 126.9856185913086 93.196533203125 C 125.3949661254883 96.95726776123047 123.4259033203125 100.5848999023438 121.1331405639648 103.9786376953125 C 118.8612899780273 107.341423034668 116.2520523071289 110.503791809082 113.3779220581055 113.3779220581055 C 110.503791809082 116.2520523071289 107.341423034668 118.8612899780273 103.9786376953125 121.1331405639648 C 100.5848999023438 123.4259033203125 96.95726776123047 125.3949661254883 93.196533203125 126.9856185913086 C 85.37283325195312 130.2947692871094 77.05912017822266 131.9726409912109 68.48631286621094 131.9726409912109 Z" stroke="none"/>
        <path d="M 68.48631286621094 10.00000762939453 C 36.23686981201172 10.00000762939453 10.00000762939453 36.23686981201172 10.00000762939453 68.48631286621094 C 10.00000762939453 100.7357559204102 36.23686981201172 126.9726181030273 68.48631286621094 126.9726181030273 C 100.7357559204102 126.9726181030273 126.9726181030273 100.7357559204102 126.9726181030273 68.48631286621094 C 126.9726181030273 36.23686981201172 100.7357559204102 10.00000762939453 68.48631286621094 10.00000762939453 M 68.48631286621094 0 C 106.3102569580078 0 136.9726257324219 30.66236877441406 136.9726257324219 68.48631286621094 C 136.9726257324219 106.3102569580078 106.3102569580078 136.9726257324219 68.48631286621094 136.9726257324219 C 30.66236877441406 136.9726257324219 0 106.3102569580078 0 68.48631286621094 C 0 30.66236877441406 30.66236877441406 0 68.48631286621094 0 Z" stroke="none" fill="#8c6df2"/>
      </g>
    </g>
    <g id="Grupo_132100" data-name="Grupo 132100" transform="translate(-94.729 -11909.973)">
      <g id="Grupo_130515" data-name="Grupo 130515" transform="translate(286 1836)">
        <path id="Trazado_137491" data-name="Trazado 137491" d="M1575.929,192c1.332.286,2.7.462,3.989.877A16.929,16.929,0,0,1,1591.6,209.9a21.978,21.978,0,0,1-1.886,6.683,142.4,142.4,0,0,1-9.806,18.8c-.468.789-.926,1.587-1.431,2.352a4.6,4.6,0,0,1-7.774-.008,146.389,146.389,0,0,1-11.225-21.086,21.884,21.884,0,0,1-1.931-6.983,17.062,17.062,0,0,1,12.929-17.151c.912-.206,1.84-.338,2.761-.5Zm-1.317,9.054a6.859,6.859,0,1,0,6.829,6.867A6.855,6.855,0,0,0,1574.611,201.054Z" transform="translate(-1543.226 -192)" fill="#8c6df2"/>
        <path id="Trazado_137492" data-name="Trazado 137492" d="M1470,466.217c.673-3,2.829-4.7,5.325-6.1a1.819,1.819,0,0,1,2.5.673,1.847,1.847,0,0,1-.62,2.473,23.6,23.6,0,0,0-2.512,1.83c-1.359,1.246-1.348,2.431-.05,3.739a14.534,14.534,0,0,0,5.473,3.139,50.992,50.992,0,0,0,12.264,2.7,80.147,80.147,0,0,0,13.5.362c6.028-.348,11.982-1.13,17.616-3.446a18.458,18.458,0,0,0,3.971-2.246c2.108-1.571,2.063-3.1.014-4.758a18.746,18.746,0,0,0-1.822-1.229,1.842,1.842,0,1,1,1.836-3.186c.16.089.318.182.475.277,2.257,1.367,4.136,3.045,4.739,5.771v1.47a8.459,8.459,0,0,1-4.621,5.7,34.661,34.661,0,0,1-5.222,2.36,58.081,58.081,0,0,1-14.98,2.837q-1.612.124-3.224.244h-6.614c-.178-.032-.355-.076-.534-.094-3.259-.338-6.534-.562-9.773-1.037a38.162,38.162,0,0,1-11.54-3.427c-2.862-1.422-5.447-3.158-6.2-6.588Z" transform="translate(-1470 -416.122)" fill="#8c6df2"/>
        <path id="Trazado_137493" data-name="Trazado 137493" d="M1547.014,450.974c-2.963.614-5.937,1-8.542,2.921.442.309.766.581,1.128.781a18.569,18.569,0,0,0,5.68,1.823,58.875,58.875,0,0,0,18.646.351,25.22,25.22,0,0,0,6.74-1.7,10.7,10.7,0,0,0,2-1.2c-2.471-2-5.468-2.353-8.426-2.984.624-1.063,1.21-2.086,1.829-3.088a.591.591,0,0,1,.5-.187,21.663,21.663,0,0,1,6.988,2.311,8.119,8.119,0,0,1,1.687,1.3,3.58,3.58,0,0,1-.023,5.252,10.768,10.768,0,0,1-4.5,2.51,40.885,40.885,0,0,1-10.024,1.824,64.525,64.525,0,0,1-12.469-.229,30.125,30.125,0,0,1-9.851-2.491,9.237,9.237,0,0,1-2.3-1.593,3.568,3.568,0,0,1,0-5.377,10.171,10.171,0,0,1,4.229-2.374c1.374-.443,2.793-.746,4.189-1.125a.633.633,0,0,1,.829.378C1545.858,449.045,1546.43,449.979,1547.014,450.974Z" transform="translate(-1524.269 -405.915)" fill="#8c6df2"/>
      </g>
    </g>
  </g>
</svg>
