<svg xmlns="http://www.w3.org/2000/svg" width="136.973" height="136.973" viewBox="0 0 136.973 136.973">
  <g id="Grupo_132235" data-name="Grupo 132235" transform="translate(-1555.014 10066)">
    <g id="Grupo_132108" data-name="Grupo 132108" transform="translate(1555.014 -10066)">
      <g id="Trazado_137458" data-name="Trazado 137458" transform="translate(0 0)" fill="#fff">
        <path d="M 68.48631286621094 131.9726409912109 C 59.91350936889648 131.9726409912109 51.59981155395508 130.2947692871094 43.77611541748047 126.9856185913086 C 40.01535797119141 125.3949661254883 36.38774871826172 123.4259033203125 32.9940071105957 121.1331405639648 C 29.6312255859375 118.8612899780273 26.46885681152344 116.2520523071289 23.5947265625 113.3779220581055 C 20.72059631347656 110.503791809082 18.11135673522949 107.341423034668 15.83950805664062 103.9786376953125 C 13.5467472076416 100.5848999023438 11.57768249511719 96.95726776123047 9.987030029296875 93.196533203125 C 6.677877902984619 85.37283325195312 5.000008583068848 77.05912017822266 5.000008583068848 68.48631286621094 C 5.000008583068848 59.91350936889648 6.677877902984619 51.59981155395508 9.987030029296875 43.77611541748047 C 11.57768249511719 40.01535797119141 13.5467472076416 36.38774871826172 15.83950805664062 32.9940071105957 C 18.11135673522949 29.6312255859375 20.72059631347656 26.46885681152344 23.5947265625 23.5947265625 C 26.46885681152344 20.72059631347656 29.6312255859375 18.11135673522949 32.9940071105957 15.83950805664062 C 36.38774871826172 13.5467472076416 40.01535797119141 11.57768249511719 43.77611541748047 9.987030029296875 C 51.59981155395508 6.677877902984619 59.91350936889648 5.000008583068848 68.48631286621094 5.000008583068848 C 77.05912017822266 5.000008583068848 85.37283325195312 6.677877902984619 93.196533203125 9.987030029296875 C 96.95726776123047 11.57768249511719 100.5848999023438 13.5467472076416 103.9786376953125 15.83950805664062 C 107.341423034668 18.11135673522949 110.503791809082 20.72059631347656 113.3779220581055 23.5947265625 C 116.2520523071289 26.46885681152344 118.8612899780273 29.6312255859375 121.1331405639648 32.9940071105957 C 123.4259033203125 36.38774871826172 125.3949661254883 40.01535797119141 126.9856185913086 43.77611541748047 C 130.2947692871094 51.59981155395508 131.9726409912109 59.91350936889648 131.9726409912109 68.48631286621094 C 131.9726409912109 77.05912017822266 130.2947692871094 85.37283325195312 126.9856185913086 93.196533203125 C 125.3949661254883 96.95726776123047 123.4259033203125 100.5848999023438 121.1331405639648 103.9786376953125 C 118.8612899780273 107.341423034668 116.2520523071289 110.503791809082 113.3779220581055 113.3779220581055 C 110.503791809082 116.2520523071289 107.341423034668 118.8612899780273 103.9786376953125 121.1331405639648 C 100.5848999023438 123.4259033203125 96.95726776123047 125.3949661254883 93.196533203125 126.9856185913086 C 85.37283325195312 130.2947692871094 77.05912017822266 131.9726409912109 68.48631286621094 131.9726409912109 Z" stroke="none"/>
        <path d="M 68.48631286621094 10.00000762939453 C 36.23686981201172 10.00000762939453 10.00000762939453 36.23686981201172 10.00000762939453 68.48631286621094 C 10.00000762939453 100.7357559204102 36.23686981201172 126.9726181030273 68.48631286621094 126.9726181030273 C 100.7357559204102 126.9726181030273 126.9726181030273 100.7357559204102 126.9726181030273 68.48631286621094 C 126.9726181030273 36.23686981201172 100.7357559204102 10.00000762939453 68.48631286621094 10.00000762939453 M 68.48631286621094 0 C 106.3102569580078 0 136.9726257324219 30.66236877441406 136.9726257324219 68.48631286621094 C 136.9726257324219 106.3102569580078 106.3102569580078 136.9726257324219 68.48631286621094 136.9726257324219 C 30.66236877441406 136.9726257324219 0 106.3102569580078 0 68.48631286621094 C 0 30.66236877441406 30.66236877441406 0 68.48631286621094 0 Z" stroke="none" fill="#8c6df2"/>
      </g>
    </g>
    <g id="Grupo_132113" data-name="Grupo 132113" transform="translate(92.339 -10258.158)">
      <path id="Trazado_137480" data-name="Trazado 137480" d="M1565.546,316.828v13.549a2.6,2.6,0,0,1-2.83,1.658c-2.605-.063-5.213,0-7.819-.032a.768.768,0,0,0-.876.644,8.474,8.474,0,0,1-8.09,5.926,8.608,8.608,0,0,1-8.159-5.959.72.72,0,0,0-.823-.608q-7.024.027-14.049,0c-.6,0-.811.2-1,.752a8.2,8.2,0,0,1-4.27,4.921,8.559,8.559,0,0,1-11.959-5.105.675.675,0,0,0-.787-.564c-1.612.026-3.225.006-4.837.011a2.285,2.285,0,0,1-1.751-.637,2.561,2.561,0,0,1-.624-1.96q.193-14.907.37-29.814c.023-1.907.756-2.627,2.673-2.628q5.932,0,11.862,0c5.81,0,11.619-.009,17.428.014.564,0,.747-.17.84-.713.256-1.5.588-2.993.883-4.489a2.2,2.2,0,0,1,2.456-2.064c1.568-.008,3.137,0,4.705,0a2.351,2.351,0,0,1,2.652,1.977c.482,1.562.982,3.119,1.426,4.692a.7.7,0,0,0,.829.595c1.192-.03,2.387.033,3.578-.022a2.882,2.882,0,0,1,2.674,1.365c2.807,3.918,5.66,7.8,8.5,11.7a4.827,4.827,0,0,0,.655.741c1.642,1.48,3.311,2.932,4.935,4.432A18.093,18.093,0,0,1,1565.546,316.828ZM1538.99,309.7h13.844a1.917,1.917,0,0,0-.118-.239c-1.9-2.607-3.8-5.218-5.723-7.807a1.1,1.1,0,0,0-.781-.32c-2.208-.025-4.416-.015-6.624-.012-.19,0-.381.028-.6.046Zm-21.171.352c-.842,0-1.609-.016-2.375,0a2.066,2.066,0,0,0-2,1.455,2.166,2.166,0,0,0,2.148,2.888c.719.03,1.441,0,2.229,0,0,.855-.022,1.625.005,2.392a2.069,2.069,0,0,0,1.933,2.065,2.127,2.127,0,0,0,2.4-2.214c.031-.722.005-1.446.005-2.249.823,0,1.569.037,2.31-.008a2.152,2.152,0,0,0,2.155-2.282,2.119,2.119,0,0,0-2.29-2.059c-.7-.008-1.4,0-2.2,0,0-.885.056-1.7-.013-2.507a2.091,2.091,0,0,0-2.281-1.992,2.128,2.128,0,0,0-2.025,2.2C1517.806,308.471,1517.819,309.2,1517.819,310.049Zm.193,20.019a4.192,4.192,0,1,0-8.384-.146,4.192,4.192,0,1,0,8.384.146Zm27.752-4.268a4.2,4.2,0,1,0,4.267,4.09A4.179,4.179,0,0,0,1545.764,325.8Z" transform="translate(0 -51.485)" fill="#8c6df2"/>
      <path id="Trazado_137481" data-name="Trazado 137481" d="M1646.135,252.083l-2.894,2.9-6.419-6.453,2.887-2.89Z" transform="translate(-114.511 -15.211)" fill="#8c6df2"/>
      <path id="Trazado_137482" data-name="Trazado 137482" d="M1756.7,248.695l-6.406,6.433-2.869-2.9,6.385-6.4Z" transform="translate(-205.527 -15.359)" fill="#8c6df2"/>
      <path id="Trazado_137483" data-name="Trazado 137483" d="M1710.048,236.166h-4.211v-9.008h4.211Z" transform="translate(-171.305 0)" fill="#8c6df2"/>
    </g>
  </g>
</svg>
