<svg xmlns="http://www.w3.org/2000/svg" width="136.973" height="136.973" viewBox="0 0 136.973 136.973">
  <g id="Grupo_132234" data-name="Grupo 132234" transform="translate(-1206 10075.973)">
    <g id="Grupo_132105" data-name="Grupo 132105" transform="translate(1206 -10075.973)">
      <g id="Trazado_137458" data-name="Trazado 137458" transform="translate(0 0)" fill="#fff">
        <path d="M 68.48631286621094 131.9726409912109 C 59.91350936889648 131.9726409912109 51.59981155395508 130.2947692871094 43.77611541748047 126.9856185913086 C 40.01535797119141 125.3949661254883 36.38774871826172 123.4259033203125 32.9940071105957 121.1331405639648 C 29.6312255859375 118.8612899780273 26.46885681152344 116.2520523071289 23.5947265625 113.3779220581055 C 20.72059631347656 110.503791809082 18.11135673522949 107.341423034668 15.83950805664062 103.9786376953125 C 13.5467472076416 100.5848999023438 11.57768249511719 96.95726776123047 9.987030029296875 93.196533203125 C 6.677877902984619 85.37283325195312 5.000008583068848 77.05912017822266 5.000008583068848 68.48631286621094 C 5.000008583068848 59.91350936889648 6.677877902984619 51.59981155395508 9.987030029296875 43.77611541748047 C 11.57768249511719 40.01535797119141 13.5467472076416 36.38774871826172 15.83950805664062 32.9940071105957 C 18.11135673522949 29.6312255859375 20.72059631347656 26.46885681152344 23.5947265625 23.5947265625 C 26.46885681152344 20.72059631347656 29.6312255859375 18.11135673522949 32.9940071105957 15.83950805664062 C 36.38774871826172 13.5467472076416 40.01535797119141 11.57768249511719 43.77611541748047 9.987030029296875 C 51.59981155395508 6.677877902984619 59.91350936889648 5.000008583068848 68.48631286621094 5.000008583068848 C 77.05912017822266 5.000008583068848 85.37283325195312 6.677877902984619 93.196533203125 9.987030029296875 C 96.95726776123047 11.57768249511719 100.5848999023438 13.5467472076416 103.9786376953125 15.83950805664062 C 107.341423034668 18.11135673522949 110.503791809082 20.72059631347656 113.3779220581055 23.5947265625 C 116.2520523071289 26.46885681152344 118.8612899780273 29.6312255859375 121.1331405639648 32.9940071105957 C 123.4259033203125 36.38774871826172 125.3949661254883 40.01535797119141 126.9856185913086 43.77611541748047 C 130.2947692871094 51.59981155395508 131.9726409912109 59.91350936889648 131.9726409912109 68.48631286621094 C 131.9726409912109 77.05912017822266 130.2947692871094 85.37283325195312 126.9856185913086 93.196533203125 C 125.3949661254883 96.95726776123047 123.4259033203125 100.5848999023438 121.1331405639648 103.9786376953125 C 118.8612899780273 107.341423034668 116.2520523071289 110.503791809082 113.3779220581055 113.3779220581055 C 110.503791809082 116.2520523071289 107.341423034668 118.8612899780273 103.9786376953125 121.1331405639648 C 100.5848999023438 123.4259033203125 96.95726776123047 125.3949661254883 93.196533203125 126.9856185913086 C 85.37283325195312 130.2947692871094 77.05912017822266 131.9726409912109 68.48631286621094 131.9726409912109 Z" stroke="none"/>
        <path d="M 68.48631286621094 10.00000762939453 C 36.23686981201172 10.00000762939453 10.00000762939453 36.23686981201172 10.00000762939453 68.48631286621094 C 10.00000762939453 100.7357559204102 36.23686981201172 126.9726181030273 68.48631286621094 126.9726181030273 C 100.7357559204102 126.9726181030273 126.9726181030273 100.7357559204102 126.9726181030273 68.48631286621094 C 126.9726181030273 36.23686981201172 100.7357559204102 10.00000762939453 68.48631286621094 10.00000762939453 M 68.48631286621094 0 C 106.3102569580078 0 136.9726257324219 30.66236877441406 136.9726257324219 68.48631286621094 C 136.9726257324219 106.3102569580078 106.3102569580078 136.9726257324219 68.48631286621094 136.9726257324219 C 30.66236877441406 136.9726257324219 0 106.3102569580078 0 68.48631286621094 C 0 30.66236877441406 30.66236877441406 0 68.48631286621094 0 Z" stroke="none" fill="#8c6df2"/>
      </g>
    </g>
    <g id="Grupo_132112" data-name="Grupo 132112" transform="translate(-270.715 -10288.805)">
      <path id="Trazado_137463" data-name="Trazado 137463" d="M1661.041,614.8a2.687,2.687,0,0,1-1.675-2.905c.066-1.742.016-3.488.016-5.275h23.827v1.9c0,1.151-.053,2.306.014,3.454a2.577,2.577,0,0,1-1.683,2.826Z" transform="translate(-122.277 -300.375)" fill="#8c6df2"/>
      <path id="Trazado_137464" data-name="Trazado 137464" d="M1535.908,257.167a2.338,2.338,0,0,1,1.189,3.087q-4.36,14.979-8.727,29.955a2.256,2.256,0,0,1-3.315,1.62q-4.817-1.9-9.629-3.816a2.262,2.262,0,0,1-1.33-3.488q7.084-13.906,14.176-27.808c.749-1.468,1.642-1.79,3.391-1.214a2.664,2.664,0,0,0,.26-.317,8.217,8.217,0,0,1,7.449-4.158c2.454-.022,4.908,0,7.164,0a11.8,11.8,0,0,1,1.255-1.763,2.031,2.031,0,0,1,1.236-.409c1.079-.056,1.788.6,2.262,2.01q2.928-.4,5.874-.8c2.895-.4,5.787-.813,8.683-1.2a2.21,2.21,0,0,1,2.508,1.606,2.186,2.186,0,0,1-1.373,2.635l-.26.109a7.541,7.541,0,0,1,1.1.75,2.132,2.132,0,0,1,.371,2.487,2.228,2.228,0,0,1-2.292,1.189q-6.213-.853-12.423-1.72c-.716-.1-1.433-.188-2.251-.3,0,.9-.018,1.764.021,2.626.005.114.29.266.468.313a11.689,11.689,0,0,1,8.711,8.276,11.375,11.375,0,0,1,.481,3.273c.035,10.889.022,21.778.022,32.667,0,.127-.013.254-.023.433h-23.767c-.012-.17-.035-.334-.035-.5,0-10.825-.022-21.65.008-32.474a11.848,11.848,0,0,1,9.223-11.661c.337-.083.514-.187.5-.579-.031-.807-.009-1.617-.009-2.47a4.553,4.553,0,0,0-.516-.061q-3.523-.006-7.046,0A3.806,3.806,0,0,0,1535.908,257.167Z" transform="translate(0 0)" fill="#8c6df2"/>
    </g>
  </g>
</svg>
