<svg xmlns="http://www.w3.org/2000/svg" width="294.238" height="435.232" viewBox="0 0 294.238 435.232">
  <g id="Grupo_131956" data-name="Grupo 131956" transform="translate(-254.806 -986.974)">
    <g id="Grupo_131005" data-name="Grupo 131005" transform="translate(287.485 999.529)">
      <ellipse id="Elipse_4784" data-name="Elipse 4784" cx="94" cy="191.923" rx="94" ry="191.923" transform="translate(-0.485 0.471)" fill="#8c6df2" opacity="0.25"/>
    </g>
    <g id="Grupo_131006" data-name="Grupo 131006" transform="translate(140.753 762.122)">
      <path id="Trazado_138319" data-name="Trazado 138319" d="M167.741,304.469c-11.212.573-14.871-23.938-22.387-38.2-3.9-7.394,3.3-16.48,9.211-21.379,7.7-6.391,20.8,33.088,22,38.431S167.741,304.469,167.741,304.469Z" transform="translate(0 24.98)" fill="#5038a1"/>
      <path id="Trazado_138320" data-name="Trazado 138320" d="M180.336,263.346c5.884.733,6.84-.658,11.986,7.8,4.576,7.518-4.457,11.686-6.588,13.748-5.884,5.7-9.466.394-10.311-4.01S180.336,263.346,180.336,263.346Z" transform="translate(40.151 49.711)" fill="#5038a1"/>
      <g id="Grupo_130980" data-name="Grupo 130980" transform="translate(157.172 380.071)">
        <path id="Trazado_138321" data-name="Trazado 138321" d="M159.515,305.859c1.111,3.863,4.64,13.611,2.972,14.3s-5.36,4.45-6.475,2.944-3.925-13.265-3.648-13.778-2.25,1.673-2.25,1.673-1.049-9.443,1.375-10.705c6.146-3.19,5.286-1.673,5.286-1.673Z" transform="translate(-149.887 -285.269)" fill="#8c6df2"/>
        <path id="Trazado_138322" data-name="Trazado 138322" d="M181.835,360.659c-.353,3.879-6.23,14.026-15.153,6.828-2.644-2.129-1.987-6.918-2.2-10.776-.415-7.594-.447-11.044-.362-13.063s8.233-4.583,10.068-4.908,8.013,3.082,6.306,6.519C179.424,347.417,181.835,360.659,181.835,360.659Z" transform="translate(-131.553 -233.026)"/>
        <path id="Trazado_138323" data-name="Trazado 138323" d="M153.465,292.592c-.1,5.854-3.08,11.219-.827,21.787,1.521,7.138,7.541,22.666,10.2,30.061,2.653,7.369,11.757,55.5,15.236,66.024.208.623,5.373-3.526,8.219-3.758,5.44-.445,12.273,2.344,12.722,1.306,3.405-7.885-.942-48.55-12.089-74.023-1.361-3.114-.949-31.337-16.092-32.293Z" transform="translate(-147.421 -292.592)" fill="#5038a1"/>
        <path id="Trazado_138324" data-name="Trazado 138324" d="M169.757,311.865c-.188,7.578-.4,6.48-.027,14.372s6.547,6.785,5.557,9.894,2.532,15.368,1.29,28.313c-.431,4.5-12.225,5.151-12.225,5.151s8.327-.5,9.257,1.118-5.344,4.351-5.344,4.351,7.4-2.113,9.131.678-11.737,3.352-11.244,5.1,12.037,1.384,16.821,3.306c3.648-14.8-.078-45.466-3.3-65.765C178.543,311.235,169.757,311.865,169.757,311.865Z" transform="translate(-131.208 -267.721)" fill="#5038a1"/>
        <path id="Trazado_138325" data-name="Trazado 138325" d="M158.475,317.221c5.034.323,19.681-3.151,21.541-4.031,1.916,7.917,6.416,27.8,4.134,28.452s-20.134,6.1-21.069,2.839S158.475,317.221,158.475,317.221Z" transform="translate(-138.797 -265.992)" fill="#1d2318"/>
        <g id="Grupo_130979" data-name="Grupo 130979" transform="translate(22.737 97.897)">
          <path id="Trazado_138326" data-name="Trazado 138326" d="M161.524,349c2.869-2.227,17.9-10.424,29.085-4.292a32.638,32.638,0,0,0-.14-8.091s-15.989-5.263-30.659,5.4C160.488,345.5,161.524,349,161.524,349Z" transform="translate(-159.81 -335.316)" fill="#ffde3b"/>
          <path id="Trazado_138327" data-name="Trazado 138327" d="M160.716,345.52c1.267-.871,16.943-10.843,29.575-4.26.252-3.4-.057-3.737-.057-3.737s-13.51-5.034-30.116,5.13C159.8,343.324,160.716,345.52,160.716,345.52Z" transform="translate(-159.499 -334.076)" fill="#c3d2e0"/>
        </g>
      </g>
      <path id="Trazado_138328" data-name="Trazado 138328" d="M210.977,295.785c2.754,6.9.183,13.331-3.68,25.192-2.944,9.042-7.539,13.79-7.539,13.79l-45.594-17.284-.557-26.938Z" transform="translate(12.088 84.836)" fill="#5038a1"/>
      <g id="Grupo_130982" data-name="Grupo 130982" transform="translate(181.377 292.04)">
        <path id="Trazado_138329" data-name="Trazado 138329" d="M164.592,254.174l-4.141,16.161s4.443,21.177,9.365,22.967,9.768-11.022,9.663-14.438-1.185-22.126-1.185-22.126Z" transform="translate(-160.451 -254.174)" fill="#f4a684"/>
        <g id="Grupo_130981" data-name="Grupo 130981" transform="translate(8.132 2.873)">
          <path id="Trazado_138330" data-name="Trazado 138330" d="M177.143,278.085c-.112-3.414-3.389-21.512-3.389-21.512l-1.6-1.146L164,295.062C168.9,296.689,177.253,281.461,177.143,278.085Z" transform="translate(-164 -255.428)" fill="#ffbea1"/>
        </g>
      </g>
      <path id="Trazado_138331" data-name="Trazado 138331" d="M187.6,270.231c-.726-.38-7.387-12.481-7.387-12.481s-9.166,6.588-15.18,1.719c-4.823-3.9-11.986,9.005-12.316,12.03s2.658,26.136,3.325,29.5a48.447,48.447,0,0,1-.74,21.331c-.27,1.056-7.445,26.667-5.513,27.577,4,1.884,33.108-11.517,40.817-11.4,0-12.458-3.054-40.39-.291-46.566C193.975,283.734,189.907,271.441,187.6,270.231Z" transform="translate(6.724 42.484)" fill="#5038a1"/>
      <g id="Grupo_130983" data-name="Grupo 130983" transform="translate(187.537 306.432)">
        <path id="Trazado_138332" data-name="Trazado 138332" d="M173.411,263.826c.527-.742,2.2-.247,3.964-3.371,0,0,.3.071,8.054,3.089,5.786,2.25,11.617,2.264,11.947,5.279.337,3.043,1.228,33.782.552,37.141s4.633,25.9,6.986,38.243c.63,3.306-22.8-9.193-36.406-4.78,1.357-53.373-5.371-63.779-5.371-72.241C163.139,259.163,168.925,270.072,173.411,263.826Z" transform="translate(-163.139 -260.455)" fill="#8c6df2"/>
      </g>
      <path id="Trazado_138333" data-name="Trazado 138333" d="M164.681,257.818c.154-2.433-6.331,8.375-6.331,8.375s12.891,7.463,17.641,6.439,1.015-6.78,1.015-6.78S164.459,261.551,164.681,257.818Z" transform="translate(18.213 42.111)" fill="#8c6df2"/>
      <g id="Grupo_130993" data-name="Grupo 130993" transform="translate(173.955 264.257)">
        <path id="Trazado_138334" data-name="Trazado 138334" d="M165.486,250.271c-7.117,2.078-10,2.786-7.181,4.544s44.073,2.3,43.848-.481-8.549-4.53-18.849-4.051A175.465,175.465,0,0,1,165.486,250.271Z" transform="translate(-157.178 -231.519)" fill="#5038a1"/>
        <g id="Grupo_130984" data-name="Grupo 130984" transform="translate(8.034 3.292)">
          <path id="Trazado_138335" data-name="Trazado 138335" d="M185.764,257.6c-.137-6.943-2.168-13.059-12.1-12.96-12.415.115-11.287,7.708-11.386,16.184s5.174,17.19,11.482,17.664c8.311.628,9.395-5.224,11.086-11.459.96-.626,1.249-2.53,1.645-4.61C187,259.836,187.093,257.8,185.764,257.6Z" transform="translate(-158.703 -241.992)" fill="#ffbea1"/>
          <path id="Trazado_138336" data-name="Trazado 138336" d="M171.684,265.366c.477-7.021,1.572-12.875,5.616-15.795l-2.5-4.952c-10.577.142-11.228,5.767-11.271,12.733a3.085,3.085,0,0,0-.554-.039c-1.95.121-1.8,2.411-1.615,5.224.16,2.447,1.308,4.913,2.935,5.314,1.086,7.956,6.033,10.552,10.717,10.607,0,0-.06.518,1.437.245C173.944,278.161,171.295,271.143,171.684,265.366Z" transform="translate(-160.019 -242.021)" fill="#f4a684"/>
          <path id="Trazado_138337" data-name="Trazado 138337" d="M171.8,244.351c-1.645-.871-5.366.369-7.431,2.335a14.043,14.043,0,0,0-3.639,9.042,22.027,22.027,0,0,0,1.166,7.255l.351-2.468a2.618,2.618,0,0,1,2.207-.415c.545.163,1.212,1.517,1.668,1.632a2.941,2.941,0,0,0,1.027.137c.978-.277,1.778-4.145,3.423-6.182,2.388-2.942,7.445-2.372,7.445-2.372Z" transform="translate(-160.718 -242.734)" fill="#2f0300"/>
          <path id="Trazado_138338" data-name="Trazado 138338" d="M165.959,249.6c1.189,1.379,1.393,6.146,4.672,5.939,3.279-.225,8.091-.1,9.145,1.157a8.856,8.856,0,0,1,1.682,4.716l1.689-.857s1.253-5.339-.958-9.553c-1.677-3.185-3.119-5.726-7.092-6.812-1.792-.484-8.318-1.728-9.791,1C164.6,246.479,165.959,249.6,165.959,249.6Z" transform="translate(-155.054 -243.486)" fill="#750700"/>
        </g>
        <path id="Trazado_138339" data-name="Trazado 138339" d="M164.083,251.195a39.049,39.049,0,0,0,2.282,10.547c.685,2.033,3.426,10.724,11.83,10.735l-.5,1.276s-9.8.967-13.583-9.871c-1.959-5.625-3.591-11.294-2.97-12.846S164.083,251.195,164.083,251.195Z" transform="translate(-152.308 -231.283)"/>
        <path id="Trazado_138340" data-name="Trazado 138340" d="M180.707,251.682c-.124,2.594-3.034,15.13-5.282,17.263s-6.031,4.947-7.133,3.909a5.871,5.871,0,0,1,.112-1.556s5.4-2.5,6.239-4.122c2.055-4,4.338-16.095,4.338-16.095Z" transform="translate(-142.904 -230.384)" fill="#211d1d"/>
        <g id="Grupo_130992" data-name="Grupo 130992">
          <g id="Grupo_130988" data-name="Grupo 130988">
            <g id="Grupo_130987" data-name="Grupo 130987" transform="translate(6.966)">
              <path id="Trazado_138341" data-name="Trazado 138341" d="M191.09,261.821c-.126.8-3.279-.465-12.7-1.127s-18.18,1.939-18.139.085c.252-12.74,8.343-19.408,17.2-18.675C185.357,242.755,192.657,251.6,191.09,261.821Z" transform="translate(-160.252 -242.049)" fill="#5038a1"/>
              <g id="Grupo_130986" data-name="Grupo 130986" transform="translate(16.702 0.039)">
                <g id="Grupo_130985" data-name="Grupo 130985">
                  <path id="Trazado_138342" data-name="Trazado 138342" d="M182.919,262.315c1.565-10.22-3.013-19.493-14.876-20.233-.167-.014-.337,0-.5-.016,2.461,1.143,4.75,4.473,5.105,5.208,1.989,4.088,1.936,9.046,1.354,13.522C182.55,261.559,182.8,263.078,182.919,262.315Z" transform="translate(-167.541 -242.066)" fill="#8c6df2"/>
                </g>
              </g>
            </g>
            <path id="Trazado_138343" data-name="Trazado 138343" d="M157.212,254.133c2.844-1.32,13.1-1.51,17.529-1.7s22.655.816,26.193,3.561c3.8-1.07-.277-3.41-4.04-4.567-6.409-1.973-25.849-2.862-33.255-.479A40.937,40.937,0,0,0,157.212,254.133Z" transform="translate(-157.212 -232.414)" fill="#8c6df2"/>
          </g>
          <g id="Grupo_130991" data-name="Grupo 130991" transform="translate(6.494 10.673)">
            <path id="Trazado_138344" data-name="Trazado 138344" d="M160.25,252.214s18.437-5.185,19.688-4.862a18.738,18.738,0,0,0-.028,3.261s-18.524,3.428-19.392,3.339S160.25,252.214,160.25,252.214Z" transform="translate(-160.046 -245.894)"/>
            <path id="Trazado_138345" data-name="Trazado 138345" d="M172.237,247.471l6.659,3.737s.108,2.718-.277,2.573a66.536,66.536,0,0,0-7.277-3.13C170.688,250.457,172.237,247.471,172.237,247.471Z" transform="translate(-145.666 -245.721)" fill="#211d1d"/>
            <g id="Grupo_130990" data-name="Grupo 130990" transform="translate(18.526)">
              <path id="Trazado_138346" data-name="Trazado 138346" d="M177.581,250.79c.009,1.132-.55,2.223-1.606,2.225l-5.586-.144a2.269,2.269,0,0,1-2.257-2.266v-1.771a2.1,2.1,0,0,1,2.243-2.122l5.454.5a2.146,2.146,0,0,1,1.913,2.154Z" transform="translate(-168.131 -246.707)"/>
              <g id="Grupo_130989" data-name="Grupo 130989" transform="translate(1.202 1.402)">
                <path id="Trazado_138347" data-name="Trazado 138347" d="M168.884,247.319l7.245.451s.325,2.493-.742,3.093c-.816.465-6.457.426-6.668-.976A6.272,6.272,0,0,1,168.884,247.319Z" transform="translate(-168.655 -247.319)" fill="#93aacc"/>
                <path id="Trazado_138348" data-name="Trazado 138348" d="M169.192,247.661l5.593.417s.1,1.4-.692,1.856c-.607.341-4.807.314-4.961-.731A2.975,2.975,0,0,1,169.192,247.661Z" transform="translate(-168.116 -246.877)" fill="#fff"/>
              </g>
            </g>
          </g>
        </g>
      </g>
      <g id="Grupo_130994" data-name="Grupo 130994" transform="translate(160.727 323.244)">
        <path id="Trazado_138349" data-name="Trazado 138349" d="M153.219,284.726c2.44-1.787,40.287-10.575,60.344-2.887,0-7.371-.22-11.615-.22-11.615s-31.438-7.422-61.9,3.669C152.8,282.986,153.219,284.726,153.219,284.726Z" transform="translate(-151.439 -267.792)" fill="#fedc72"/>
        <path id="Trazado_138350" data-name="Trazado 138350" d="M152.151,279.5c2.463-1.835,40.677-10.99,60.96-3.215-.108-2.855,0-4.89,0-4.89s-31.234-6.808-61.407,3.923C153.026,284.235,152.151,279.5,152.151,279.5Z" transform="translate(-151.097 -265.883)" fill="#fffaea"/>
      </g>
      <g id="Grupo_130996" data-name="Grupo 130996" transform="translate(181.82 224.852)">
        <path id="Trazado_138351" data-name="Trazado 138351" d="M174.615,640.492a4.3,4.3,0,0,1-4.193,4.413h-5.586a4.3,4.3,0,0,1-4.191-4.413V229.263a4.3,4.3,0,0,1,4.191-4.411h5.586a4.3,4.3,0,0,1,4.193,4.411Z" transform="translate(-160.644 -224.852)" fill="#93aacc"/>
        <g id="Grupo_130995" data-name="Grupo 130995" transform="translate(6.679)">
          <path id="Trazado_138352" data-name="Trazado 138352" d="M170.85,640.492V229.263a4.3,4.3,0,0,0-4.193-4.411h-3.1V644.906h3.1A4.3,4.3,0,0,0,170.85,640.492Z" transform="translate(-163.559 -224.852)" fill="#c3d2e0"/>
        </g>
      </g>
      <path id="Trazado_138353" data-name="Trazado 138353" d="M161.8,240.321c2.5-3.817,6.959-8.079,10.921-9.31a9.079,9.079,0,0,1,7.044.181c1.56.493,1.4,2.5-.36,2.275a15.148,15.148,0,0,0-4.569.5,28.415,28.415,0,0,1,5.635.33c1.02.22,1.221,2.718-2.168,2.605-.726.257-1.822.247-2.376.832,1.226-.884,6.294-1.648,4.965.717a4.955,4.955,0,0,1-1.9,1.925,10.9,10.9,0,0,0-2.431,1.544s4.83-2.935,4.322-.651c-.163.717-2.385,2.7-3.357,3.387a8.909,8.909,0,0,1-2.436,1.421c-.818.353-6.863,2.58-7.064,2.8a28.133,28.133,0,0,0-3.036,4.963s-9.477-9.947-7.035-10.731A12.534,12.534,0,0,0,161.8,240.321Z" transform="translate(17.184 7.163)"/>
      <path id="Trazado_138354" data-name="Trazado 138354" d="M179.729,259.885c-2.951-3.343-7.837-6.842-11.833-7.484a8.9,8.9,0,0,0-6.771,1.146c-1.437.694-1,2.608.658,2.142a14.906,14.906,0,0,1,4.482-.138,27.935,27.935,0,0,0-5.392,1.1c-.951.355-.8,2.791,2.447,2.216.74.149,1.8-.021,2.411.47-1.3-.683-6.3-.719-4.688,1.386.52.676,1.345.27,2.065.486a10.429,10.429,0,0,0,2.72.454s-5.525-1.1-4.718,1.036c.257.671,2.66,2.3,3.634,2.935a35.043,35.043,0,0,0,7.463,3.423,10.2,10.2,0,0,1,2.01.857c1.634,1.4,7.22,5.3,7.22,5.3s4.853-12.749,2.39-13.164A12.181,12.181,0,0,1,179.729,259.885Z" transform="translate(20.676 35.331)" fill="#211d1d"/>
      <g id="Grupo_130998" data-name="Grupo 130998" transform="translate(144.877 249.379)">
        <path id="Trazado_138355" data-name="Trazado 138355" d="M174.51,235.556c.355,3.169,7.426,13.712,9.422,14.411-3.485,8.226-17.674,30.363-28.225,28.8-15.132-2.243-10.607-9.223-10.375-10.4,1-5.027,9.4-16.624,16.326-22.66C171.112,238.363,174.51,235.556,174.51,235.556Z" transform="translate(-144.522 -235.556)" fill="#5038a1"/>
        <g id="Grupo_130997" data-name="Grupo 130997" transform="translate(17.614 4.134)">
          <path id="Trazado_138356" data-name="Trazado 138356" d="M152.251,242.781c-.742,3.206,8.5,14.243,15.325,16.395a76.154,76.154,0,0,0,5.027-7.651s-10.059-7.972-13.425-14.165C154.489,240.88,152.462,242.4,152.251,242.781Z" transform="translate(-152.209 -237.36)" fill="#fedc72"/>
          <path id="Trazado_138357" data-name="Trazado 138357" d="M153.012,240.509c-.247,1.515,8.2,13.48,14.917,15.685a19.4,19.4,0,0,0,2.026-3.4s-10.524-6.9-13.851-14.768C154.641,239.226,153,240.253,153.012,240.509Z" transform="translate(-151.178 -236.506)" fill="#fff3ce"/>
        </g>
      </g>
      <g id="Grupo_131001" data-name="Grupo 131001" transform="translate(195.316 295.342)">
        <g id="Grupo_131000" data-name="Grupo 131000">
          <path id="Trazado_138358" data-name="Trazado 138358" d="M173.905,255.615c.408,3.414-5.4,19.041-7.371,20.265,7.193,3.041,24.52,18.62,34.146,14.344,12.807-5.692,2.766-17.1,3.082-18.26s-8.861-5.559-15.252-9.594A66.9,66.9,0,0,0,173.905,255.615Z" transform="translate(-166.534 -255.615)" fill="#5038a1"/>
          <g id="Grupo_130999" data-name="Grupo 130999" transform="translate(4.393 2.172)">
            <path id="Trazado_138359" data-name="Trazado 138359" d="M186.035,261.146c.8,3.022-4.949,15.009-10.485,20.861-2.679-1.977-7.1-4.461-7.1-4.461s7.227-11.59,9.062-20.982C181.462,258.447,186.287,261.549,186.035,261.146Z" transform="translate(-168.451 -256.563)" fill="#fedc72"/>
            <path id="Trazado_138360" data-name="Trazado 138360" d="M182.535,258.924c.312,1.489-5.795,16.464-10.678,21a23.89,23.89,0,0,1-2.47-1.691s7.167-11.764,9.209-21.17C180.141,257.728,182.528,258.651,182.535,258.924Z" transform="translate(-167.242 -255.917)" fill="#fff3ce"/>
          </g>
        </g>
      </g>
      <path id="Trazado_138361" data-name="Trazado 138361" d="M181.565,306.021c-1.723,3.607-8.558,15.057-7,15.458s5.68,2.564,7.025,1.075,4.143-13.707,3.946-14.129,1.982,1.2,1.982,1.2,1.668-9.97-.6-11.111c-4.218-2.126-3.311.55-3.311.55Z" transform="translate(38.857 94.063)" fill="#8c6df2"/>
      <g id="Grupo_131003" data-name="Grupo 131003" transform="translate(170.979 388.972)">
        <path id="Trazado_138362" data-name="Trazado 138362" d="M163.116,322.877l9.47-26.294s22.8-1.283,24.179,5.057-2.759,15.169-2.759,15.169Z" transform="translate(-146.611 -296.476)" fill="#5038a1"/>
        <path id="Trazado_138363" data-name="Trazado 138363" d="M157.85,359.049c.7,3.836,7.461,13.418,15.705,5.447,2.443-2.362,1.361-7.071,1.224-10.928-.268-7.6-.548-11.045-.809-13.045s-8.611-3.831-10.467-3.989-7.708,3.79-5.7,7.057C159.065,345.647,157.85,359.049,157.85,359.049Z" transform="translate(-154.006 -244.753)"/>
        <path id="Trazado_138364" data-name="Trazado 138364" d="M205.44,300.25c.069-2.243-.552-3.128-3.034-.923-2.392,2.131-1.247,9.86-10.756,24.275-7.66-.747-17.944-2.734-17.944-2.734-10.6,39.006-19.724,65.3-16.4,74.34.394,1.066,4.709,2.367,10.089,3.277,7.475,1.263,11.746-.726,11.986-1.334,4.056-10.325,9.021-37.084,11.53-44.5,2.841-8.4,5.733-15.829,6.439-21.876C200.247,322.939,205.256,305.946,205.44,300.25Z" transform="translate(-155.011 -294.44)" fill="#8c6df2"/>
        <path id="Trazado_138365" data-name="Trazado 138365" d="M174.916,307.163c5.447-4.555,18.718.667,18.466,3.675-1.84,21.693-9.372,22.948-8.554,26.108S176.586,345,177.106,358c.183,4.516.28,15.261.28,15.261s-8.288-.958-9.3.6,5.726,5.325,5.726,5.325-1.2,3.245-10.174,3.208c-3.3-.014,12.27,4.386,11.677,6.1s-2.415,1.244-19.4-1.877c2.152-23.42,11.519-58.811,13.2-65.85C171.781,309.562,174.916,307.163,174.916,307.163Z" transform="translate(-155.913 -284.988)" fill="#5038a1"/>
        <path id="Trazado_138366" data-name="Trazado 138366" d="M189.8,315.192c-5.039.046-20.767-5.062-22.575-6.045-2.351,7.8-7.947,27.4-5.7,28.18s19.759,7.216,20.872,4.005S189.8,315.192,189.8,315.192Z" transform="translate(-149.339 -280.114)" fill="#1d2318"/>
        <g id="Grupo_131002" data-name="Grupo 131002" transform="translate(0.768 83.977)">
          <path id="Trazado_138367" data-name="Trazado 138367" d="M180.867,348.672c-1.725-2.663-13.98-7.761-24.619-5.4a60.532,60.532,0,0,1,1.643-9.851s18.1-2.333,26.411,6.123C182.748,343.789,180.867,348.672,180.867,348.672Z" transform="translate(-156.248 -333.125)" fill="#fedc72"/>
          <path id="Trazado_138368" data-name="Trazado 138368" d="M181.934,343.69c-.786-1.052-12.731-7.649-25.54-4.608a32.365,32.365,0,0,1,.742-4.324s14.825-2.372,26.321,4.981C183.515,340.553,181.934,343.69,181.934,343.69Z" transform="translate(-156.059 -331.487)" fill="#fff3ce"/>
        </g>
      </g>
    </g>
    <path id="Trazado_138319-2" data-name="Trazado 138319" d="M337.852,24.837a217.188,217.188,0,0,1-20.4,12.443,187.671,187.671,0,0,1-23.037,10.375,161.053,161.053,0,0,1-26.192,7.328,126.479,126.479,0,0,1-14.448,1.866c-1.246.07-2.491.16-3.754.186-.63.018-1.26.043-1.894.052l-1.907.005c-1.281.008-2.513-.027-3.778-.042-1.25-.05-2.512-.083-3.76-.163A152.917,152.917,0,0,1,209.864,52.2c-9.082-2.3-17.575-5.073-25.747-7.728-4.083-1.334-8.1-2.631-12.057-3.836-1.98-.61-3.939-1.18-5.889-1.739-.972-.267-1.944-.546-2.909-.8l-2.99-.791c-8.327-2.2-16.466-4.24-24.479-5.87-4-.817-7.968-1.53-11.865-2.1q-2.923-.43-5.788-.753t-5.648-.5a82.791,82.791,0,0,0-19.976.787q-2.141.388-4.081.913c-.65.171-1.278.361-1.9.552l-.912.3c-.274.1-.549.2-.818.3a30.332,30.332,0,0,0-5.917,2.995c-.437.292-.865.589-1.272.9l-1.58,1.157c-.546.4-1.034.816-1.555,1.215-.5.407-.96.825-1.444,1.229a32.019,32.019,0,0,0-4.617,5.036,22.663,22.663,0,0,0-2.884,5.174,19.319,19.319,0,0,0-1.294,5.369,26.9,26.9,0,0,0,1.578,11.521,48.549,48.549,0,0,0,6.545,12.137,62.737,62.737,0,0,0,4.807,5.9c.87.948,1.77,1.874,2.672,2.746.45.432.908.851,1.347,1.229.218.188.436.371.63.519.1.079.19.143.269.194.034.018.082.054.1.049l.016,0s.02.013,0-.021l-.1-.14c10.741,12.124,4.362,27.626-14.247,34.624s-42.4,2.842-53.145-9.282l-.305-.382-.195-.261-.312-.436-.533-.783c-.336-.5-.637-.978-.929-1.449-.583-.939-1.113-1.85-1.629-2.753-1.017-1.8-1.939-3.581-2.792-5.365A91.028,91.028,0,0,1,3.7,91.274,70.634,70.634,0,0,1,0,68.684,54.735,54.735,0,0,1,5.433,45,59.731,59.731,0,0,1,12.7,33.576a70.29,70.29,0,0,1,10.279-10.3,91.785,91.785,0,0,1,12.6-8.651c1.134-.63,2.256-1.27,3.4-1.876s2.3-1.2,3.475-1.764l1.763-.837c.6-.283,1.132-.539,1.852-.863,1.353-.62,2.742-1.208,4.153-1.77a102.271,102.271,0,0,1,18.031-5.3c.788-.16,1.587-.3,2.382-.445.78-.131,1.549-.258,2.324-.378,1.551-.232,3.1-.443,4.66-.615C80.724.432,83.83.2,86.9.088a137.193,137.193,0,0,1,17.8.523A158.957,158.957,0,0,1,120.948,3a220.7,220.7,0,0,1,28.277,7.739c8.691,2.967,16.792,6.2,24.587,9.4l3.04,1.255c1.043.431,2.05.872,3.071,1.308,2.008.881,3.992,1.767,5.913,2.66,3.865,1.784,7.565,3.583,11.216,5.33,7.292,3.5,14.323,6.867,21.571,9.714a113.668,113.668,0,0,0,22.586,6.5c.983.177,1.975.31,2.969.465l1.5.189.752.1c.249.029.495.045.742.068l1.487.13c.5.038,1,.06,1.5.091,1,.073,2.024.086,3.043.121s2.051.019,3.083.017c1.034-.031,2.071-.024,3.112-.086l1.564-.071c.522-.026,1.044-.07,1.567-.1,1.046-.067,2.09-.17,3.137-.273s2.09-.238,3.139-.355,2.088-.289,3.135-.435c1.035-.179,2.078-.346,3.114-.535s2.072-.383,3.1-.606q3.092-.635,6.117-1.433c1.01-.262,2.02-.526,3.016-.816l1.5-.428,1.478-.459a129.338,129.338,0,0,0,22.213-9.175,98.148,98.148,0,0,0,18.366-12.341,6.363,6.363,0,0,1,6.445-.606c2.036.992,2.453,2.872.93,4.2a3.8,3.8,0,0,1-.343.266Z" transform="matrix(0.559, -0.829, 0.829, 0.559, 254.806, 1351.655)" fill="#fdb74d"/>
    <g id="Grupo_131036" data-name="Grupo 131036" transform="translate(289.113 807.148)">
      <path id="Trazado_138369" data-name="Trazado 138369" d="M115.192,300.9c5.251.655,6.4,6.812,11,14.363,4.085,6.712,5.264,18.512,3.361,20.353-5.254,5.092-18.9-3.983-19.654-7.915S115.192,300.9,115.192,300.9Z" transform="translate(30.271 79.526)" fill="#5038a1"/>
      <g id="Grupo_131007" data-name="Grupo 131007" transform="translate(138.436 388.794)">
        <path id="Trazado_138370" data-name="Trazado 138370" d="M109.018,311.564c.54-2.072,8.785-6.436,14.8-6.575,1.162,2.541,3.631,6.8,3.631,6.8s-6.346.127-14.279,6.368C110.847,314.3,109.041,311.869,109.018,311.564Z" transform="translate(-109.018 -304.989)" fill="#fedc72"/>
        <path id="Trazado_138371" data-name="Trazado 138371" d="M109.565,312.379c.321-.974,9.646-6.671,14.721-6.452a24.929,24.929,0,0,1,1.121,2.269s-8.492,1.727-14.093,7.393A12.723,12.723,0,0,1,109.565,312.379Z" transform="translate(-108.453 -304.014)" fill="#fff3ce"/>
      </g>
      <g id="Grupo_131009" data-name="Grupo 131009" transform="translate(88.933 440.253)">
        <path id="Trazado_138372" data-name="Trazado 138372" d="M93.416,342.6c.992,3.449,4.143,12.152,2.653,12.77s-4.785,3.973-5.781,2.631-3.5-11.845-3.257-12.3-2.009,1.493-2.009,1.493-.937-8.431,1.227-9.558c5.487-2.848,4.72-1.493,4.72-1.493Z" transform="translate(-84.82 -324.213)" fill="#5038a1"/>
        <path id="Trazado_138373" data-name="Trazado 138373" d="M114.865,395.858c-.315,3.464-5.562,12.522-13.529,6.1-2.359-1.9-1.774-6.176-1.962-9.621-.37-6.78-.4-9.861-.323-11.663s7.35-4.092,8.989-4.382,7.154,2.751,5.63,5.82C112.713,384.036,114.865,395.858,114.865,395.858Z" transform="translate(-69.973 -281.907)" fill="#1d2318"/>
        <path id="Trazado_138374" data-name="Trazado 138374" d="M88.219,330.143c-.09,5.227-2.75,10.016-.739,19.451,1.358,6.373,6.733,20.237,9.11,26.838,2.369,6.581,10.5,49.547,13.6,58.947.188.556,4.8-3.148,7.34-3.355,4.855-.4,10.955,2.093,11.356,1.166,3.04-7.039-.841-43.346-10.793-66.089-1.215-2.78-.847-27.978-14.365-28.831Z" transform="translate(-82.823 -330.143)" fill="#5038a1"/>
        <path id="Trazado_138375" data-name="Trazado 138375" d="M104.11,349.414a109.887,109.887,0,0,0-.025,12.831c.329,7.048,5.845,6.058,4.961,8.834s2.263,13.721,1.154,25.278c-.387,4.016-10.914,4.6-10.914,4.6s7.432-.444,8.263,1-4.769,3.885-4.769,3.885,6.6-1.886,8.15.606-10.478,2.993-10.039,4.552,10.746,1.236,15.02,2.952c3.255-13.21-.072-40.59-2.944-58.716C111.953,348.852,104.11,349.414,104.11,349.414Z" transform="translate(-69.693 -310.003)" fill="#8c6df2"/>
        <path id="Trazado_138376" data-name="Trazado 138376" d="M93.408,354.34c4.495.288,17.573-2.813,19.232-3.6,1.71,7.068,5.728,24.819,3.691,25.4s-17.976,5.448-18.811,2.535S93.408,354.34,93.408,354.34Z" transform="translate(-75.84 -308.602)" fill="#1d2318"/>
        <g id="Grupo_131008" data-name="Grupo 131008" transform="translate(20.301 87.403)">
          <path id="Trazado_138377" data-name="Trazado 138377" d="M96.272,385.082c2.561-1.989,15.984-9.306,25.967-3.832a29.141,29.141,0,0,0-.125-7.224s-14.275-4.7-27.37,4.818C95.35,381.958,96.272,385.082,96.272,385.082Z" transform="translate(-94.744 -372.867)" fill="#fedc72"/>
          <path id="Trazado_138378" data-name="Trazado 138378" d="M95.578,382.082c1.133-.779,15.126-9.683,26.4-3.805.225-3.032-.051-3.337-.051-3.337s-12.062-4.495-26.888,4.58C94.759,380.12,95.578,382.082,95.578,382.082Z" transform="translate(-94.493 -371.863)" fill="#fff3ce"/>
        </g>
      </g>
      <path id="Trazado_138379" data-name="Trazado 138379" d="M139.759,332.775c2.459,6.158.164,11.9-3.286,22.491a34.013,34.013,0,0,1-6.731,12.311L89.036,352.146l-.5-24.05Z" transform="translate(8.004 107.97)" fill="#5038a1"/>
      <g id="Grupo_131011" data-name="Grupo 131011" transform="translate(110.544 361.659)">
        <path id="Trazado_138380" data-name="Trazado 138380" d="M99.081,291.725l-3.7,14.429s3.967,18.907,8.361,20.5,8.721-9.84,8.627-12.89-1.058-19.754-1.058-19.754Z" transform="translate(-95.384 -291.725)" fill="#f4a684"/>
        <g id="Grupo_131010" data-name="Grupo 131010" transform="translate(7.26 2.565)">
          <path id="Trazado_138381" data-name="Trazado 138381" d="M110.668,313.208c-.1-3.048-3.026-19.206-3.026-19.206l-1.428-1.023-7.281,35.386C103.307,329.819,110.766,316.221,110.668,313.208Z" transform="translate(-98.933 -292.979)" fill="#ffbea1"/>
        </g>
      </g>
      <path id="Trazado_138382" data-name="Trazado 138382" d="M118.588,305.249c-.649-.34-11.927-8.8-11.927-8.8s-1.068,1.473-8.946,4.188c-5.241,1.8-13.163,6.97-13.459,9.67s5.56,19.412,6.156,22.418a43.254,43.254,0,0,1-.661,19.044c-.241.943-6.647,23.809-4.922,24.621,3.572,1.682,29.559-10.282,36.441-10.178,0-11.123-2.727-36.061-.26-41.574C124.283,317.3,120.652,306.329,118.588,305.249Z" transform="translate(3.511 74.869)" fill="#5038a1"/>
      <g id="Grupo_131012" data-name="Grupo 131012" transform="translate(116.043 374.508)">
        <path id="Trazado_138383" data-name="Trazado 138383" d="M107.243,301.015c.471-.663,1.964-.221,3.541-3.009,0,0,.266.063,7.189,2.758,5.166,2.009,10.374,2.021,10.667,4.713.3,2.719,1.1,30.161.493,33.16s4.137,23.123,6.238,34.144c.565,2.952-20.353-8.208-32.5-4.268,1.211-47.652-4.8-56.942-4.8-64.5C98.072,296.852,103.238,306.592,107.243,301.015Z" transform="translate(-98.072 -298.006)" fill="#8c6df2"/>
      </g>
      <path id="Trazado_138384" data-name="Trazado 138384" d="M98.935,295.331c.137-2.173-5.652,7.477-5.652,7.477s11.51,6.663,15.75,5.749.906-6.053.906-6.053S98.737,298.663,98.935,295.331Z" transform="translate(12.963 73.372)"/>
      <path id="Trazado_138385" data-name="Trazado 138385" d="M98.9,299.245c1.064.751,10.654-1.164,11.109-3.285,2.42,1.215,3.128,4.8,2.371,5.706s-6.814,7.42-10.9,5.45S98.9,299.245,98.9,299.245Z" transform="translate(18.551 74.362)" fill="#5038a1"/>
      <g id="Grupo_131022" data-name="Grupo 131022" transform="translate(102.858 338.466)">
        <path id="Trazado_138386" data-name="Trazado 138386" d="M99.305,287.8c-6.53,1.076-9.159,1.4-6.853,3.253s38.812,6.786,38.915,4.3-7.091-4.934-16.27-5.618A156.294,156.294,0,0,1,99.305,287.8Z" transform="translate(-91.623 -272.641)" fill="#5038a1"/>
        <g id="Grupo_131013" data-name="Grupo 131013" transform="translate(7.537 2.934)">
          <path id="Trazado_138387" data-name="Trazado 138387" d="M117.88,295.882c.626-6.17-.516-11.806-9.327-12.788-11.019-1.236-10.836,5.616-11.835,13.12s2.737,15.793,8.275,16.892c7.3,1.45,8.889-3.621,11.057-8.965.919-.452,1.381-2.109,1.956-3.905C118.735,298,119.035,296.2,117.88,295.882Z" transform="translate(-94.01 -280.644)" fill="#ffbea1"/>
          <path id="Trazado_138388" data-name="Trazado 138388" d="M104.429,301.108c1.176-6.172,2.78-11.244,6.677-13.394l-1.678-4.658c-9.392-1.015-10.575,3.9-11.362,10.071a2.744,2.744,0,0,0-.487-.092c-1.741-.1-1.858,1.941-1.995,4.454-.121,2.189.63,4.5,2.029,5.024.106,7.17,4.21,10,8.355,10.554,0,0-.108.454,1.248.374C105.053,312.691,103.462,306.186,104.429,301.108Z" transform="translate(-95.038 -280.672)" fill="#f4a684"/>
          <path id="Trazado_138389" data-name="Trazado 138389" d="M106.522,282.59c-1.362-.949-4.8-.256-6.837,1.268a12.538,12.538,0,0,0-4.2,7.618,19.753,19.753,0,0,0,.252,6.559l.577-2.15a2.331,2.331,0,0,1,2-.131c.466.2.912,1.475,1.3,1.626a2.548,2.548,0,0,0,.9.231c.894-.139,2.021-3.48,3.7-5.11,2.432-2.346,6.853-1.3,6.853-1.3Z" transform="translate(-95.311 -281.474)" fill="#2f0300"/>
          <path id="Trazado_138390" data-name="Trazado 138390" d="M100.69,286.905c.906,1.35.577,5.6,3.5,5.767s7.181.786,7.981,2.013a7.9,7.9,0,0,1,.984,4.36l1.588-.579s1.684-4.6.18-8.57c-1.146-3-2.148-5.411-5.552-6.8-1.536-.622-7.187-2.428-8.787-.17C99.829,283.992,100.69,286.905,100.69,286.905Z" transform="translate(-90.12 -281.822)" fill="#750700"/>
        </g>
        <path id="Trazado_138391" data-name="Trazado 138391" d="M98.28,288.964a35.114,35.114,0,0,0,.888,9.591c.391,1.876,1.882,9.873,9.331,10.791l-.579,1.076s-8.795-.2-10.978-10.21c-1.131-5.2-1.966-10.4-1.248-11.708S98.28,288.964,98.28,288.964Z" transform="translate(-87.653 -272.405)"/>
        <path id="Trazado_138392" data-name="Trazado 138392" d="M114.815,290.815c-.389,2.289-4.319,13.085-6.538,14.738s-5.88,3.734-6.743,2.694a5.332,5.332,0,0,1,.266-1.369s5.057-1.63,5.976-2.981c2.25-3.32,5.577-13.8,5.577-13.8Z" transform="translate(-81.267 -270.23)" fill="#211d1d"/>
        <g id="Grupo_131021" data-name="Grupo 131021">
          <g id="Grupo_131017" data-name="Grupo 131017">
            <g id="Grupo_131016" data-name="Grupo 131016" transform="translate(6.49)">
              <path id="Trazado_138393" data-name="Trazado 138393" d="M122.024,299.62c-.2.7-2.856-.763-11.133-2.363s-16.323-.239-16.086-1.88c1.6-11.264,9.482-16.3,17.258-14.7C118.994,282.108,124.513,290.733,122.024,299.62Z" transform="translate(-94.8 -280.388)" fill="#5038a1"/>
              <g id="Grupo_131015" data-name="Grupo 131015" transform="translate(16.819 0.223)">
                <g id="Grupo_131014" data-name="Grupo 131014">
                  <path id="Trazado_138394" data-name="Trazado 138394" d="M114.469,300.1c2.488-8.887-.569-17.6-11-19.533-.147-.031-.3-.039-.444-.07,2.06,1.279,3.727,4.476,3.965,5.168,1.322,3.836.741,8.226-.256,12.127C114.226,299.392,114.283,300.764,114.469,300.1Z" transform="translate(-103.021 -280.497)" fill="#8c6df2"/>
                </g>
              </g>
            </g>
            <path id="Trazado_138395" data-name="Trazado 138395" d="M91.627,289.906c2.66-.863,11.773.072,15.718.374s19.991,3.163,22.833,5.976c3.48-.536.119-3.052-3.091-4.48-5.466-2.439-22.6-5.321-29.42-4.008A36.873,36.873,0,0,0,91.627,289.906Z" transform="translate(-91.627 -273.014)" fill="#8c6df2"/>
          </g>
          <g id="Grupo_131020" data-name="Grupo 131020" transform="translate(6.142 10.007)">
            <path id="Trazado_138396" data-name="Trazado 138396" d="M94.931,288.092s16.9-2.61,17.97-2.189a16.644,16.644,0,0,0-.372,2.887s-16.788,1.041-17.547.869S94.931,288.092,94.931,288.092Z" transform="translate(-94.629 -284.676)"/>
            <path id="Trazado_138397" data-name="Trazado 138397" d="M107.078,286.357l5.5,4.028s-.2,2.422-.524,2.25a59.329,59.329,0,0,0-6.113-3.553C105.384,288.839,107.078,286.357,107.078,286.357Z" transform="translate(-82.917 -284.153)" fill="#211d1d"/>
            <g id="Grupo_131019" data-name="Grupo 131019" transform="translate(16.787)">
              <path id="Trazado_138398" data-name="Trazado 138398" d="M111.2,289.706c-.113,1-.728,1.909-1.663,1.8l-4.936-.73a2.026,2.026,0,0,1-1.755-2.252l.19-1.571a1.879,1.879,0,0,1,2.218-1.639l4.779,1.033a1.919,1.919,0,0,1,1.463,2.117Z" transform="translate(-102.835 -285.279)"/>
              <g id="Grupo_131018" data-name="Grupo 131018" transform="translate(1.125 1.186)">
                <path id="Trazado_138399" data-name="Trazado 138399" d="M103.81,285.859l6.373,1.178s.02,2.244-.99,2.664c-.773.323-5.769-.321-5.806-1.586A5.587,5.587,0,0,1,103.81,285.859Z" transform="translate(-103.385 -285.859)" fill="#93aacc"/>
                <path id="Trazado_138400" data-name="Trazado 138400" d="M104.032,286.242l4.912.972s-.061,1.256-.814,1.573c-.573.235-4.292-.241-4.317-1.184A2.677,2.677,0,0,1,104.032,286.242Z" transform="translate(-102.94 -285.458)" fill="#fff"/>
              </g>
            </g>
          </g>
        </g>
      </g>
      <g id="Grupo_131023" data-name="Grupo 131023" transform="translate(94.296 402.044)">
        <path id="Trazado_138401" data-name="Trazado 138401" d="M87.487,323.776c2.391-1.424,33.753-7.813,48.593-2.134,0-5.274-.158-8.212-.158-8.212a103.276,103.276,0,0,0-48.2,1.925C87.405,322.384,87.487,323.776,87.487,323.776Z" transform="translate(-87.405 -311.466)" fill="#fedc72"/>
        <path id="Trazado_138402" data-name="Trazado 138402" d="M87.442,319.922c2.4-1.424,33.753-7.813,48.6-2.134-.078-2.027,0-3.449,0-3.449a107.182,107.182,0,0,0-48.3,2.334C87.418,323.7,87.442,319.922,87.442,319.922Z" transform="translate(-87.442 -310.249)" fill="#fff3ce"/>
      </g>
      <g id="Grupo_131026" data-name="Grupo 131026" transform="translate(126.563 391.528)">
        <g id="Grupo_131024" data-name="Grupo 131024">
          <path id="Trazado_138403" data-name="Trazado 138403" d="M103.214,306.519c1.064.049,15.294-.7,15.118.468s1.322,7.16-.483,7.782-14.265,1.579-14.146-.894A61.836,61.836,0,0,0,103.214,306.519Z" transform="translate(-103.214 -306.326)" fill="#5038a1"/>
        </g>
        <g id="Grupo_131025" data-name="Grupo 131025" transform="translate(1.883 13.843)">
          <path id="Trazado_138404" data-name="Trazado 138404" d="M104.187,316.232c.19-.207,10.313-.491,12.1,1.1.047-2.081.082-2.792.082-2.792s-4.538-2.512-12.238-.923C104.124,314.726,104.187,316.232,104.187,316.232Z" transform="translate(-104.134 -313.092)" fill="#5038a1"/>
        </g>
      </g>
      <g id="Grupo_131028" data-name="Grupo 131028" transform="translate(110.939 224.852)">
        <path id="Trazado_138405" data-name="Trazado 138405" d="M108.05,595.939a3.842,3.842,0,0,1-3.744,3.94H99.319a3.843,3.843,0,0,1-3.742-3.94V228.79a3.843,3.843,0,0,1,3.742-3.938h4.988a3.842,3.842,0,0,1,3.744,3.938Z" transform="translate(-95.577 -224.852)" fill="#93aacc"/>
        <g id="Grupo_131027" data-name="Grupo 131027" transform="translate(5.963)">
          <path id="Trazado_138406" data-name="Trazado 138406" d="M105,595.939V228.79a3.842,3.842,0,0,0-3.744-3.938H98.492V599.879h2.766A3.842,3.842,0,0,0,105,595.939Z" transform="translate(-98.492 -224.852)" fill="#c3d2e0"/>
        </g>
      </g>
      <path id="Trazado_138407" data-name="Trazado 138407" d="M96.3,299.609c2.019-3.541,5.755-7.582,9.218-8.9a8.112,8.112,0,0,1,6.289-.225c1.416.354,1.379,2.152-.2,2.048a13.434,13.434,0,0,0-4.044.7,25.539,25.539,0,0,1,5.041-.016c.921.139,1.238,2.355-1.788,2.443-.634.266-1.61.319-2.072.87,1.043-.853,5.517-1.813,4.464.368a4.414,4.414,0,0,1-1.588,1.821,9.62,9.62,0,0,0-2.083,1.508s4.145-2.878,3.815-.818c-.106.649-1.978,2.537-2.8,3.2a7.949,7.949,0,0,1-2.093,1.4c-.712.358-5.972,2.678-6.139,2.889a25.034,25.034,0,0,0-2.434,4.589s-8.993-8.341-6.857-9.173A11.226,11.226,0,0,0,96.3,299.609Z" transform="translate(12.346 68.087)" fill="#1d2318"/>
      <path id="Trazado_138408" data-name="Trazado 138408" d="M112.217,311.06c-3.686-1.508-8.981-2.371-12.434-1.3a7.93,7.93,0,0,0-4.963,3.6c-.876,1.123.229,2.482,1.377,1.455a13.278,13.278,0,0,1,3.529-1.886,24.936,24.936,0,0,0-3.879,3.011c-.622.661.462,2.551,2.835.8.651-.176,1.43-.726,2.115-.579-1.313-.033-5.325,1.917-3.2,2.964.683.336,1.182-.315,1.845-.428a9.3,9.3,0,0,0,2.357-.716s-4.857,1.311-3.367,2.7c.473.436,3.042.788,4.073.91a31.431,31.431,0,0,0,7.326-.215,9.129,9.129,0,0,1,1.946-.113c1.864.475,4.816,1.074,4.816,1.074s1.9-11.81-.237-11.168A10.87,10.87,0,0,1,112.217,311.06Z" transform="translate(14.24 88.295)" fill="#1d2318"/>
      <g id="Grupo_131030" data-name="Grupo 131030" transform="translate(80.887 368.594)">
        <path id="Trazado_138409" data-name="Trazado 138409" d="M107.013,295.115c.389,2.817,6.935,12.074,8.735,12.649-2.928,7.422-15.09,27.5-24.541,26.343-13.555-1.659-9.928-15.049-9.748-16.106.775-4.511,7.59-7.923,13.637-13.469C103.37,297.764,107.013,295.115,107.013,295.115Z" transform="translate(-80.887 -295.115)" fill="#8c6df2"/>
        <g id="Grupo_131029" data-name="Grupo 131029" transform="translate(15.304 3.811)">
          <path id="Trazado_138410" data-name="Trazado 138410" d="M88.4,301.972c-.587,2.878,7.911,12.522,14.048,14.288a67.8,67.8,0,0,0,4.315-6.941s-9.155-6.888-12.3-12.34C90.353,300.225,88.581,301.63,88.4,301.972Z" transform="translate(-88.368 -296.978)" fill="#fedc72"/>
          <path id="Trazado_138411" data-name="Trazado 138411" d="M89.15,299.954c-.184,1.356,7.623,11.845,13.67,13.66a17.426,17.426,0,0,0,1.733-3.085S95,304.6,91.854,297.661A22.423,22.423,0,0,0,89.15,299.954Z" transform="translate(-87.554 -296.264)" fill="#fff3ce"/>
        </g>
      </g>
      <g id="Grupo_131033" data-name="Grupo 131033" transform="translate(127.794 397.327)">
        <g id="Grupo_131032" data-name="Grupo 131032">
          <path id="Trazado_138412" data-name="Trazado 138412" d="M103.816,309.975c1.512,2.672,2.107,17.545.906,19.23,6.972.029,22.7,7.048,29.154.213,8.59-9.1-5.579-17.538-5.72-18.6s-3.762.276-10.415-.847A43.408,43.408,0,0,0,103.816,309.975Z" transform="translate(-103.816 -308.895)" fill="#5038a1"/>
          <g id="Grupo_131031" data-name="Grupo 131031" transform="translate(4.863)">
            <path id="Trazado_138413" data-name="Trazado 138413" d="M115.256,310.236c1.7,2.214,1.526,14.6-1.021,21.333-2.887-.708-7.385-1.232-7.385-1.232s1.068-12.807-.657-21.178A89.417,89.417,0,0,1,115.256,310.236Z" transform="translate(-106.193 -309.16)" fill="#fedc72"/>
            <path id="Trazado_138414" data-name="Trazado 138414" d="M111.613,309.9c.771,1.119,1.066,15.759-1.393,21.176a21.633,21.633,0,0,1-2.617-.542s1.8-12.755.235-21.208A10.848,10.848,0,0,1,111.613,309.9Z" transform="translate(-104.718 -308.992)" fill="#fff3ce"/>
          </g>
        </g>
      </g>
      <path id="Trazado_138415" data-name="Trazado 138415" d="M115.723,342.679c-1.538,3.22-7.641,13.443-6.248,13.8s5.069,2.289,6.27.96,3.7-12.238,3.523-12.614,1.77,1.07,1.77,1.07,1.489-8.9-.538-9.92c-3.766-1.9-2.956.491-2.956.491Z" transform="translate(29.682 115.442)" fill="#5038a1"/>
      <g id="Grupo_131035" data-name="Grupo 131035" transform="translate(101.261 448.2)">
        <path id="Trazado_138416" data-name="Trazado 138416" d="M98.049,357.6l8.455-23.475s20.353-1.146,21.587,4.517-2.463,13.541-2.463,13.541Z" transform="translate(-83.313 -334.028)" fill="#5038a1"/>
        <path id="Trazado_138417" data-name="Trazado 138417" d="M92.734,394.186c.63,3.425,6.661,11.98,14.022,4.863,2.181-2.109,1.215-6.313,1.094-9.756-.241-6.788-.491-9.861-.724-11.647s-7.688-3.421-9.345-3.562-6.882,3.386-5.088,6.3C93.818,382.22,92.734,394.186,92.734,394.186Z" transform="translate(-89.301 -292.142)" fill="#1d2318"/>
        <path id="Trazado_138418" data-name="Trazado 138418" d="M135.139,337.566c.061-2-.493-2.792-2.709-.824-2.136,1.9-1.113,8.8-9.6,21.673-6.839-.667-16.02-2.441-16.02-2.441-9.466,34.825-17.61,58.3-14.642,66.371.352.951,4.2,2.113,9.01,2.925,6.671,1.127,10.485-.648,10.7-1.191,3.621-9.218,8.054-33.109,10.294-39.733,2.537-7.5,5.119-14.132,5.749-19.531C130.5,357.823,134.975,342.651,135.139,337.566Z" transform="translate(-90.115 -332.379)" fill="#8c6df2"/>
        <path id="Trazado_138419" data-name="Trazado 138419" d="M107.812,344.522c4.863-4.067,16.712.6,16.487,3.281-1.643,19.367-8.367,20.488-7.637,23.31s-7.359,7.193-6.894,18.792c.164,4.032.25,13.625.25,13.625s-7.4-.855-8.306.54,5.112,4.754,5.112,4.754-1.068,2.9-9.083,2.864c-2.944-.01,10.955,3.916,10.425,5.444s-2.156,1.111-17.32-1.675c1.923-20.91,10.284-52.507,11.782-58.791C105.013,346.664,107.812,344.522,107.812,344.522Z" transform="translate(-90.846 -324.724)" fill="#5038a1"/>
        <path id="Trazado_138420" data-name="Trazado 138420" d="M121.646,352.095c-4.5.041-18.541-4.519-20.155-5.4-2.1,6.964-7.095,24.465-5.088,25.159s17.641,6.442,18.633,3.576S121.646,352.095,121.646,352.095Z" transform="translate(-85.522 -320.777)" fill="#1d2318"/>
        <g id="Grupo_131034" data-name="Grupo 131034" transform="translate(0.685 74.975)">
          <path id="Trazado_138421" data-name="Trazado 138421" d="M113.161,384.556c-1.54-2.377-12.481-6.929-21.98-4.822a54.043,54.043,0,0,1,1.467-8.795s16.157-2.083,23.58,5.466C114.842,380.2,113.161,384.556,113.161,384.556Z" transform="translate(-91.181 -370.676)" fill="#fedc72"/>
          <path id="Trazado_138422" data-name="Trazado 138422" d="M114.128,380.245c-.7-.939-11.366-6.829-22.8-4.114a29.331,29.331,0,0,1,.661-3.86s13.238-2.117,23.5,4.448C115.542,377.444,114.128,380.245,114.128,380.245Z" transform="translate(-91.027 -369.35)" fill="#fff3ce"/>
        </g>
      </g>
    </g>
  </g>
</svg>
