<svg xmlns="http://www.w3.org/2000/svg" xmlns:xlink="http://www.w3.org/1999/xlink" width="304.072" height="282.182" viewBox="0 0 304.072 282.182">
  <defs>
    <clipPath id="clip-path">
      <rect id="Rect치ngulo_41146" data-name="Rect치ngulo 41146" width="289.222" height="238.973" transform="translate(0)" fill="none"/>
    </clipPath>
    <linearGradient id="linear-gradient" x1="128.438" y1="7.1" x2="129.164" y2="6.054" gradientUnits="objectBoundingBox">
      <stop offset="0" stop-color="#fff"/>
      <stop offset="0.251" stop-color="#fcfcfb"/>
      <stop offset="0.441" stop-color="#f6f3f2"/>
      <stop offset="0.61" stop-color="#ebe4e2"/>
      <stop offset="0.768" stop-color="#dcd0cb"/>
      <stop offset="0.916" stop-color="#c9b5ae"/>
      <stop offset="0.967" stop-color="#c1aba2"/>
    </linearGradient>
    <linearGradient id="linear-gradient-2" x1="-0.288" y1="1.099" x2="0.544" y2="0.468" gradientUnits="objectBoundingBox">
      <stop offset="0" stop-color="#fff"/>
      <stop offset="0.101" stop-color="#f4f0ee"/>
      <stop offset="0.343" stop-color="#ded2cd"/>
      <stop offset="0.574" stop-color="#cebcb5"/>
      <stop offset="0.788" stop-color="#c4afa7"/>
      <stop offset="0.967" stop-color="#c1aba2"/>
    </linearGradient>
    <linearGradient id="linear-gradient-3" x1="118.848" y1="6.251" x2="119.397" y2="4.787" gradientUnits="objectBoundingBox">
      <stop offset="0" stop-color="#fff"/>
      <stop offset="0.175" stop-color="#faf9f8"/>
      <stop offset="0.421" stop-color="#eeeae6"/>
      <stop offset="0.708" stop-color="#dbd2c8"/>
      <stop offset="0.802" stop-color="#d4c9bd"/>
    </linearGradient>
  </defs>
  <g id="Grupo_132219" data-name="Grupo 132219" transform="translate(-492.207 -515.818)">
    <g id="Grupo_132123" data-name="Grupo 132123" transform="translate(492.207 515.818)">
      <g id="Grupo_132124" data-name="Grupo 132124" transform="translate(0 0)">
        <g id="Grupo_132124-2" data-name="Grupo 132124">
          <rect id="Rect치ngulo_44115" data-name="Rect치ngulo 44115" width="304" height="33.139" transform="translate(0.072)" fill="#fff"/>
          <g id="Image_Place_Holder" data-name="Image Place Holder" transform="translate(0 32.838)" opacity="0.1">
            <rect id="Image_Place_Holder-2" data-name="Image Place Holder-2" width="303.554" height="206.345" fill="#fdb74d"/>
          </g>
        </g>
      </g>
      <g id="Grupo_132125" data-name="Grupo 132125" transform="translate(8.561 0.209)">
        <g id="Grupo_130781" data-name="Grupo 130781" clip-path="url(#clip-path)">
          <g id="Grupo_130836" data-name="Grupo 130836" transform="translate(3.18 30.389)">
            <path id="Trazado_138126" data-name="Trazado 138126" d="M690.735,446.255a197.264,197.264,0,0,1-23.835-.767,144.931,144.931,0,0,1-23.514-4.2,104.625,104.625,0,0,1-22.593-8.83,72.932,72.932,0,0,1-10.448-6.847c-.818-.672-1.652-1.326-2.438-2.051-.4-.356-.8-.7-1.19-1.071l-1.156-1.122c-.781-.749-1.491-1.51-2.241-2.272-.71-.784-1.44-1.559-2.115-2.367a87.565,87.565,0,0,1-13.044-21.283c-3.352-7.451-5.908-14.986-8.378-22.223-1.227-3.623-2.453-7.174-3.725-10.607-.63-1.723-1.284-3.4-1.943-5.057-.338-.817-.667-1.643-1.015-2.444l-1.071-2.484c-2.992-6.913-6.009-13.576-9.335-19.79-1.659-3.1-3.389-6.094-5.211-8.918q-1.365-2.118-2.795-4.1c-.954-1.321-1.947-2.579-2.95-3.787a46.139,46.139,0,0,0-12.78-11.093,31.277,31.277,0,0,0-3.308-1.584c-.55-.229-1.106-.428-1.656-.621l-.824-.268c-.259-.07-.512-.148-.773-.209a24.863,24.863,0,0,0-6.344-.781c-.534.008-1.068.023-1.6.065l-2.026.116c-.7.039-1.379.128-2.063.183-.68.072-1.343.182-2.009.262a41.484,41.484,0,0,0-7.451,1.84,37.5,37.5,0,0,0-12.286,7.093,52.043,52.043,0,0,0-9.725,11.383,76.852,76.852,0,0,0-7.293,14.875,82.119,82.119,0,0,0-2.563,8.191c-.353,1.374-.667,2.746-.927,4.067-.126.661-.239,1.309-.325,1.911-.043.3-.081.593-.1.843a3.2,3.2,0,0,0-.017.335c0,.036,0,.1.013.1l.01.009s0,.025.02-.019l.072-.183c-4.695,17.358-22.87,27.7-40.6,23.105s-28.291-22.4-23.6-39.753l.052-.191.17-.527.124-.351.216-.581.4-1.024c.261-.659.521-1.263.782-1.863.519-1.2,1.045-2.338,1.566-3.46,1.056-2.236,2.15-4.391,3.284-6.515,2.27-4.24,4.736-8.325,7.38-12.336a136,136,0,0,1,18.687-22.668,104.576,104.576,0,0,1,25.219-18.274,92.59,92.59,0,0,1,14.962-6.067,86.669,86.669,0,0,1,15.741-3.267,89.594,89.594,0,0,1,15.614-.4c1.27.1,2.538.181,3.792.311,1.248.146,2.5.271,3.731.453l1.84.281c.623.1,1.186.184,1.917.311,1.391.237,2.773.525,4.145.848A67.326,67.326,0,0,1,549,266.432c.624.32,1.237.665,1.849,1,.592.341,1.174.681,1.753,1.03,1.151.706,2.285,1.431,3.384,2.2a70.452,70.452,0,0,1,6.242,4.854,75.605,75.605,0,0,1,10.258,10.994,90.173,90.173,0,0,1,7.6,11.765A136.144,136.144,0,0,1,589.974,322c2.5,7.825,4.393,15.544,6.131,23.054l.672,2.935c.231,1.007.428,2,.643,3,.4,1.985.773,3.962,1.106,5.909.682,3.9,1.247,7.721,1.83,11.462,1.158,7.484,2.283,14.691,4.023,21.554a71.016,71.016,0,0,0,7.6,19.246c.429.741.9,1.448,1.36,2.175l.729,1.057.365.531c.123.173.257.333.385.5l.777,1c.265.328.549.647.823.971.537.661,1.142,1.273,1.723,1.908.6.625,1.219,1.228,1.845,1.838.654.583,1.273,1.2,1.958,1.761l1.013.856c.339.285.694.553,1.042.831.693.558,1.419,1.081,2.146,1.607s1.482,1.019,2.223,1.533,1.528.972,2.3,1.458c.79.449,1.573.915,2.374,1.354.807.42,1.6.878,2.429,1.281,1.636.835,3.309,1.6,5.018,2.315.853.359,1.707.716,2.575,1.042l1.3.5,1.319.457a96.112,96.112,0,0,0,21.9,4.807,94.561,94.561,0,0,0,22.514-.341,3.916,3.916,0,0,1,4.439,3.272,3.862,3.862,0,0,1-3.341,4.347,4.043,4.043,0,0,1-.428.035Z" transform="translate(-412.472 -258.206)" fill="#fdb74d"/>
          </g>
          <g id="Grupo_130840" data-name="Grupo 130840" transform="translate(36.352 8.502)">
            <g id="Grupo_130864" data-name="Grupo 130864" transform="translate(0 18.182)">
              <path id="Trazado_138128" data-name="Trazado 138128" d="M-137.694,129.394c-1,2.235-.473,4.8-17.17.349-15.271-4.087-39.16-20.626-34.806-22.819s31.686,1.032,39.89,7.771A49.452,49.452,0,0,1-137.694,129.394Z" transform="translate(241.554 -86.512)"/>
              <path id="Trazado_138129" data-name="Trazado 138129" d="M-184.095,106.292c-.434,3.738-8.21,21.33-4.269,25.287s7.8,4.422,8.342,3.643,2.509-26.182,2.509-26.182Z" transform="translate(245.542 -86.209)" fill="#211d1d"/>
              <path id="Trazado_138130" data-name="Trazado 138130" d="M-184.077,109.991c5.36-4.429,11.133-6.52,12.283-6.588,1.425-.075-3.652,3.54-5.872,7.559a16.313,16.313,0,0,0-4,10.046c-2.673,3.2-4.453,2.037-6.325,1.955s-2.883-3.233-2.273-5.29C-189.5,115.151-186.048,111.625-184.077,109.991Z" transform="translate(240.159 -103.071)" fill="#ffbc00" opacity="0.55"/>
              <g id="Grupo_130843" data-name="Grupo 130843" transform="translate(28.636 137.426)">
                <g id="Grupo_130840-2" data-name="Grupo 130840" transform="translate(0 164.008)">
                  <path id="Trazado_138131" data-name="Trazado 138131" d="M-153.161,151.889c1.885,11.714-.585,19.484-6.687,19.348-2.168-.041-4.644-2.747-7.593-.553-8.782,6.54-13.268,4.36-15.928,4.388-10.641.055-13.826-14.892-5.728-14.981,8.191-.1,15.337-12.63,15.337-12.63Z" transform="translate(193.652 -147.46)" fill="#211d1d"/>
                </g>
                <path id="Trazado_138132" data-name="Trazado 138132" d="M-190.423,141.2c.539,4.162-2.437,26.339.65,27.726a13.362,13.362,0,0,0,6.5.916l.552-40.322-5.846,1.148-4.861,9.739Z" transform="translate(194.912 -88.089)" fill="#5038a1"/>
                <path id="Trazado_138133" data-name="Trazado 138133" d="M-192.492,146.61c.105,5.789,1.8,79.14,2.233,86.316,1.327,22.163,4.644,10.238,2.076,61.515l30.917,8.065s6.082,2.276,2.3-71.582c-.828-16.142.762-71.4-1.517-86.829s-5.5-20.633-5.5-20.633l-28.8,6.862Z" transform="translate(200.108 -123.462)" fill="#5038a1"/>
                <path id="Trazado_138134" data-name="Trazado 138134" d="M-184.806,127.085c1.885,12.725-1.5,84.881,4.086,96.2s5.294,14.612,5.294,14.612-1.76,9.233-1.169,13.21,10.227,5.686,10.693,8.864c-8.992-2.624-12.335,1.169-12.335,1.169s12.808,2.016,10.746,3.971-12.105,2.754-12.105,2.754,14.523,8.249,15.114,12.226-2.5,8.228-2.5,8.228l-21.367-5.625s1.5-36.05-1.228-49.241c-2.207-10.62-3.048-93.1-2.864-102.493C-192.274,121.57-184.806,127.085-184.806,127.085Z" transform="translate(200.27 -111.715)" fill="#8c6df2"/>
                <g id="Grupo_130842" data-name="Grupo 130842" transform="translate(12.033 158.875)">
                  <g id="Grupo_130841" data-name="Grupo 130841">
                    <path id="Trazado_138135" data-name="Trazado 138135" d="M-191.377,147.331c2-.67,6.115-.9,12.283-.191,13.012,1.982,20.1,5.679,21.189,6.171a51.316,51.316,0,0,1-1.1,8.044s-13.794-5.406-21.761-6.363c-9.3-1.36-10.844-.6-11.009-1.08A28.537,28.537,0,0,1-191.377,147.331Z" transform="translate(191.819 -146.709)" fill="#ffde3b"/>
                  </g>
                  <path id="Trazado_138136" data-name="Trazado 138136" d="M-191.738,149.968c4.007.014,16.447-.615,33.111,7.395A12.61,12.61,0,0,0-158.24,154s-18.917-8.871-33.433-6.616A8.442,8.442,0,0,0-191.738,149.968Z" transform="translate(191.859 -144.91)" fill="#c3d2e0"/>
                </g>
              </g>
              <g id="Grupo_130847" data-name="Grupo 130847" transform="translate(57.001 153.231)">
                <path id="Trazado_138137" data-name="Trazado 138137" d="M-162.655,148.188c-4.88,5.426,4.171,15.521,6.765,22.184,3.718,9.554-5.09,16.2-10.779,16.4-10.1.362-15.376-6.452-14.345-17.181.946-9.787-1.984-7.743-2.686-18.247C-184.238,143.4-162.655,148.188-162.655,148.188Z" transform="translate(220.647 -3.341)" fill="#5038a1"/>
                <path id="Trazado_138138" data-name="Trazado 138138" d="M-189.333,155.7c6.325,36.092,17.071,65.82,19.561,79.625,3.034,16.737,14.069,43.814,15.534,52.261s26.162-.492,28.191-7.531c1.366-4.77-8.729-38.34-11.041-66.545-2.785-33.946-4.506-58.911-9.6-78.389-3.35-12.8-30.714-8.741-30.714-8.741Z" transform="translate(189.333 -125.775)" fill="#5038a1"/>
                <g id="Grupo_130844" data-name="Grupo 130844" transform="translate(23.528 27.914)">
                  <path id="Trazado_138139" data-name="Trazado 138139" d="M-163.677,130.807c1,7.675,7.724,29.216,4.755,31.027s-22.221,8.816-21.406,1.333c.217-1.989-4.7-25.71-5.123-27.419C-186.318,132.358-163.677,130.807-163.677,130.807Z" transform="translate(187.284 -124.328)" fill="#5038a1"/>
                  <path id="Trazado_138140" data-name="Trazado 138140" d="M-185.581,140.473l27.035,17.591s-2.338-23.489-5.826-26.571c-3.494-3.1-14.943,1.565-14.943,1.565Z" transform="translate(186.698 -126.538)" fill="#5038a1" style="mix-blend-mode: multiply;isolation: isolate"/>
                  <path id="Trazado_138141" data-name="Trazado 138141" d="M-162.722,129.859c2.686,1.62,3.507,10.094,3.507,10.094s1.064-1-5.806,1.121c-7.586,2.33-18.838,5.276-19.626,4.019s-1.1-11.044-1.1-11.044Z" transform="translate(185.751 -129.859)" fill="#5038a1"/>
                </g>
                <path id="Trazado_138142" data-name="Trazado 138142" d="M-188.917,132.029c1.215,7.7,13.846,55.405,16.828,66.811s6.279,24.856,8.723,31.007,6.752,19.778,7.008,22.608,11.508,2.283,15.2.581c6.286-2.911-8.132-17.694-8.769-20.947s6.9-7.319,1.143-8.4-11.449-12.616-11.665-16.648-16.007-39.358-17.117-42.277C-182.086,152.88-188.917,132.029-188.917,132.029Z" transform="translate(191.649 -89.284)" fill="#5038a1"/>
                <g id="Grupo_130846" data-name="Grupo 130846" transform="translate(32.285 142.408)">
                  <g id="Grupo_130845" data-name="Grupo 130845">
                    <path id="Trazado_138143" data-name="Trazado 138143" d="M-182.442,162.9a21.258,21.258,0,0,0,11.987.355,39.576,39.576,0,0,0,16.822-8.8,28.467,28.467,0,0,0-1.268-7.839s-10.181,8.645-18.483,9.862c-9.347,1.374-11.284-1.2-11.009.191A39.991,39.991,0,0,0-182.442,162.9Z" transform="translate(184.418 -146.612)" fill="#5038a1"/>
                  </g>
                  <path id="Trazado_138144" data-name="Trazado 138144" d="M-184.315,157.1c8.119.9,17.8,1.107,29.393-10.176.427,2.392.525,3.4.525,3.4s-13.2,12.3-29.328,8.837A7.406,7.406,0,0,1-184.315,157.1Z" transform="translate(184.99 -144.803)" fill="#5038a1"/>
                </g>
              </g>
              <path id="Trazado_138145" data-name="Trazado 138145" d="M-157.744,108.988c-.059,4.162-8,10.88-5.044,16.389,2.916,5.522,3.534,4.955,3.534,4.955l-4.046,13.4-25.557-1.449s10.752-18.411,4.066-21.569C-186.493,119.9-157.744,108.988-157.744,108.988Z" transform="translate(248.979 -70.48)" fill="#f4a684"/>
              <path id="Trazado_138146" data-name="Trazado 138146" d="M-187.831,114.48l19.12,26.6,7.527-16.7s-7.619-6.506-7.849-10.395-.453-3.328-.453-3.328Z" transform="translate(254.697 -60.889)" fill="url(#linear-gradient)" style="mix-blend-mode: multiply;isolation: isolate"/>
              <path id="Trazado_138147" data-name="Trazado 138147" d="M-142.33,111.753c18.6,10.661,22.838,15.685,22.838,15.685s-4.46,25.861-6.1,35.148,2.89,51.735.729,64.911c-1.084,6.622-63.95,5.119-67.188,2.576,0,0,13.813-64.194,16.519-74.254s9.123-35.326,11.4-34.889C-156.261,122.442-142.33,111.753-142.33,111.753Z" transform="translate(231.193 -54.349)" fill="#5038a1"/>
              <path id="Trazado_138148" data-name="Trazado 138148" d="M-187.846,118.606c-2.168,11.748-.7,24.952,5.228,27.433,5.386,2.269,18.851-2.255,24.2-12.828s3.291-22.813-7.12-26.544C-176.91,102.594-186.007,108.635-187.846,118.606Z" transform="translate(249.333 -91.525)" fill="#f4a684"/>
              <path id="Trazado_138149" data-name="Trazado 138149" d="M-186.58,113.343c-.506,2.891,8.421,3.82,10.963,6.568s2.411,8.973,2.312,10.08c-.125,1.114,2.713-1.435,3.737,1.381s-3.567,7.436-4.979,7.374c-1.6-.062-2.122,6.807-2.122,6.807A29.114,29.114,0,0,0-164.989,125.2c1.471-13.723-9.091-19.84-13.846-20.209C-185.732,104.472-186.58,113.343-186.58,113.343Z" transform="translate(261.551 -93.923)" fill="#1e0000"/>
              <path id="Trazado_138150" data-name="Trazado 138150" d="M-172.372,110.993c-2.076,2.057-11.166,6.855-13.931,6.875-2.746.014,2.91,11.051,2.91,11.051s15.8-2.706,16.914-10.532C-165.961,114.772-172.372,110.993-172.372,110.993Z" transform="translate(259.016 -58.783)" fill="#5038a1"/>
              <path id="Trazado_138151" data-name="Trazado 138151" d="M-183.607,110.874c1.931,2.412,7.205,8.994,16.362,6.117,5.412,7.169,2.22,11.871,2.22,11.871s-12.106,4.77-18.667-1.121c-8.119-7.292-5.583-8.427-5.583-8.427Z" transform="translate(244.568 -59.477)" fill="#8c6df2"/>
              <g id="Grupo_130851" data-name="Grupo 130851" transform="translate(59.971 4.33)">
                <g id="Grupo_130850" data-name="Grupo 130850">
                  <g id="Grupo_130849" data-name="Grupo 130849">
                    <path id="Trazado_138152" data-name="Trazado 138152" d="M-188.678,120.682c-.217,1.025,3.974.964,15.114,4.517s20.093,10.709,20.861,8.474c5.373-15.377-.21-25.061-12.454-28.854C-174.53,101.908-185.959,107.717-188.678,120.682Z" transform="translate(189.964 -103.425)"/>
                    <g id="Grupo_130848" data-name="Grupo 130848">
                      <path id="Trazado_138153" data-name="Trazado 138153" d="M-188.823,119.8c3.9-11.68,8.486-19.033,24.749-14.42.21.062.394.15.591.219-3.343.232-6.529,1.695-7.271,2.419-4.1,3.971-6.24,9.944-7.56,15.568C-188.495,120.56-189.138,120.745-188.823,119.8Z" transform="translate(188.881 -103.987)" fill="#211d1d"/>
                    </g>
                  </g>
                </g>
              </g>
              <path id="Trazado_138154" data-name="Trazado 138154" d="M-183.444,109.812a2.374,2.374,0,0,0,2.207,2.522l3.35.164a2.361,2.361,0,0,0,2.424-2.3l.026-.54a2.38,2.38,0,0,0-2.214-2.522l-3.35-.164a2.353,2.353,0,0,0-2.417,2.3Z" transform="translate(279.113 -82.233)"/>
              <path id="Trazado_138155" data-name="Trazado 138155" d="M-142.9,127.578c-1.143-.465-3.324-3.39-4.775-5.474s-5.688-10.6-10.575-14.017c-6.174-4.34-15.462-5.652-19.16-4.114a55.044,55.044,0,0,0-12.342,7.559,30.16,30.16,0,0,1,19.593,3c4.3,2.33,12.546,11.659,15.836,13.074,7.087,3.034,9.656,4.709,11.587,4.811S-142.9,127.578-142.9,127.578Z" transform="translate(244.012 -103.353)" fill="#8c6df2" opacity="0.52"/>
              <path id="Trazado_138156" data-name="Trazado 138156" d="M-182.736,108.96c-.046,1.053.512,1.934,1.255,1.975s1.392-.786,1.445-1.845-.512-1.941-1.268-1.982S-182.69,107.9-182.736,108.96Z" transform="translate(283.055 -81.455)" fill="#211d1d"/>
              <path id="Trazado_138157" data-name="Trazado 138157" d="M-181.793,107.819c.092,3.5-4.375,16.423-3.219,19.437s6.831,8.392,8.631,8.481,7.094-21.234,4.283-23.858S-181.793,107.819-181.793,107.819Z" transform="translate(269.331 -77.3)"/>
              <path id="Trazado_138158" data-name="Trazado 138158" d="M-138.511,132.4c-1.833-2.1-2.87-6.889-11.186-11.331s-37.144-14.612-40.376-11.557c-.335-1.155-.145-2.556,2.562-2.412s5.853-1.182,7.022-1.128c1.149.055,28.329,7.832,34.32,12.158s8.979,10.819,8.5,12.807S-138.511,132.4-138.511,132.4Z" transform="translate(241.529 -88.06)" fill="#211d1d"/>
              <path id="Trazado_138159" data-name="Trazado 138159" d="M-178.091,151.65a147.155,147.155,0,0,0,3.074-15.193c-5.005-.574-15.022-2.836-11.882-7.114,4.132-5.631,14.01-12.185,17.327-12.828,4.079-2.112,5.182-2.289,12.092-4.811,0,0,1,7.538,4.729,10.162,6.207,4.367-11.127,40.254-15.62,58.617-4.026,16.518-7.107,48.878-7.107,48.878s-18.937-3.164-18.779-6.684C-193.474,205.8-180,158.559-178.091,151.65Z" transform="translate(218.92 -54.634)" fill="#8c6df2"/>
              <g id="Grupo_130858" data-name="Grupo 130858" transform="translate(0 61.412)">
                <path id="Trazado_138160" data-name="Trazado 138160" d="M-178.319,112.688c-4.46,1.811-26.234,12.315-17.7,38.231,9.59,29.121,23.311,45.769,37.426,55.651,10.976,7.7,22.24,11.591,31.666,12.2,7.449.478,11.862-9.629,11.8-14.092s-16-53.2-29.965-65.035S-178.319,112.688-178.319,112.688Z" transform="translate(198.183 -110.306)" fill="#dbab6b"/>
                <path id="Trazado_138161" data-name="Trazado 138161" d="M-133.144,206.325c-2.443.089-32.9-9.623-45.328-31.062-12.421-21.459-26.457-51.906-14.4-60.825,13.636-2.809,57.2,46.247,61.5,62.1S-131.18,206.257-133.144,206.325Z" transform="translate(200.989 -100.767)" fill="#f4d7b5"/>
                <path id="Trazado_138162" data-name="Trazado 138162" d="M-134.253,204.941c-5.432,1.435-31.5-8.242-43.923-29.688s-26.451-51.9-14.4-60.825c13.643-2.8,57.2,46.254,61.493,62.1S-132.341,204.428-134.253,204.941Z" transform="translate(202.656 -100.825)" fill="#dbab6b"/>
                <path id="Trazado_138163" data-name="Trazado 138163" d="M-132.737,206.016c-2.437.089-32.894-9.616-45.328-31.062s-26.444-51.9-14.391-60.818c13.629-2.809,57.2,46.247,61.486,62.1S-130.766,205.955-132.737,206.016Z" transform="translate(203.295 -102.529)" fill="#f4d7b5"/>
                <path id="Trazado_138164" data-name="Trazado 138164" d="M-132.517,206.021c-2.443.082-32.907-9.616-45.328-31.068s-26.457-51.9-14.4-60.818c13.636-2.8,57.2,46.254,61.486,62.1S-130.566,205.952-132.517,206.021Z" transform="translate(204.467 -102.54)" fill="#dbab6b"/>
                <g id="Grupo_130852" data-name="Grupo 130852" transform="translate(9.246 19.139)">
                  <path id="Trazado_138165" data-name="Trazado 138165" d="M-146.326,192.347c-1.9-.089-24.349-11.119-34.641-29.305-10.181-17.981-20.493-41.251-13.156-46.589,16.631-10.436,49.394,44.334,53.8,58.1C-135.961,188.151-140.218,192.641-146.326,192.347Z" transform="translate(196.603 -115.14)" fill="#f4d7b5"/>
                  <path id="Trazado_138166" data-name="Trazado 138166" d="M-145.245,190.246c-6.779.089-24.474-9.971-34.825-28.239-10.22-18.049-22.589-44.942-12.992-46.623,9.57-.54,45.19,45,49.585,58.631C-139.137,187.485-143.721,190.226-145.245,190.246Z" transform="translate(197.073 -113.743)" fill="#dbab6b"/>
                  <path id="Trazado_138167" data-name="Trazado 138167" d="M-149.427,187.887c-4.269.451-21.255-8.181-31.633-26.5-10.26-18.1-20.047-40.589-12.585-45.967,11.4-3.171,44.941,44.2,49.335,57.886C-139.956,186.834-147.969,187.73-149.427,187.887Z" transform="translate(198.457 -114.411)" fill="#f4d7b5"/>
                  <path id="Trazado_138168" data-name="Trazado 138168" d="M-153.762,183.657c-1.957-.595-17.347-5.112-27.771-23.482-10.293-18.159-19.212-38.8-11.665-44.122,8.972-5.092,39.358,27.385,47.811,56.02C-141.02,185.639-152.166,184.149-153.762,183.657Z" transform="translate(199.901 -112.915)" fill="#dbab6b"/>
                </g>
                <g id="Grupo_130853" data-name="Grupo 130853" transform="translate(14.297 25.808)">
                  <path id="Trazado_138169" data-name="Trazado 138169" d="M-156.29,178.446c-1.412-.068-17.84-10.156-25.551-23.79-7.626-13.47-17.938-33.611-12.447-37.609,12.467-7.825,39.6,35.928,42.911,46.24C-148.112,173.477-151.705,178.658-156.29,178.446Z" transform="translate(195.835 -116.116)" fill="#f4d7b5"/>
                  <path id="Trazado_138170" data-name="Trazado 138170" d="M-156.251,174.543c-5.077.075-18.345-7.47-26.1-21.159-7.665-13.532-17.971-35.415-10.779-36.693C-179,112.5-157.283,152.051-154,162.269-150.741,172.363-155.1,174.529-156.251,174.543Z" transform="translate(197.366 -114.564)" fill="#dbab6b"/>
                  <path id="Trazado_138171" data-name="Trazado 138171" d="M-160.134,171.022c-3.2.342-15.928-6.13-23.712-19.86-7.692-13.559-15.022-30.412-9.419-34.451,8.539-2.385,33.676,33.126,36.973,43.384C-153.033,170.23-159.03,170.906-160.134,171.022Z" transform="translate(199.153 -113.312)" fill="#f4d7b5"/>
                  <path id="Trazado_138172" data-name="Trazado 138172" d="M-163.678,166.607c-1.471-.444-13.012-3.834-20.815-17.605-7.711-13.6-13.971-27.726-8.316-31.711,6.726-3.813,29.787,31.308,33.085,41.6C-156.453,169.06-162.5,166.969-163.678,166.607Z" transform="translate(200.537 -110.94)" fill="#dbab6b"/>
                </g>
                <g id="Grupo_130854" data-name="Grupo 130854" transform="translate(20.753 36.351)">
                  <path id="Trazado_138173" data-name="Trazado 138173" d="M-168.378,159.42c-.847-.034-8.283-3.267-15.528-15.91-4.539-8.01-13.511-23.045-10.247-25.423,5.741-4.251,26.4,24.426,28.369,30.556C-163.846,154.7-162.92,161.354-168.378,159.42Z" transform="translate(194.852 -117.658)" fill="#f4d7b5"/>
                  <path id="Trazado_138174" data-name="Trazado 138174" d="M-168.532,156.08c-3.021.041-10.9-4.442-15.521-12.589-4.558-8.044-13.833-24.9-9.551-25.656,4.256-.239,23.9,24.938,25.86,31.007C-165.813,154.85-167.855,156.073-168.532,156.08Z" transform="translate(195.669 -116.635)" fill="#dbab6b"/>
                  <path id="Trazado_138175" data-name="Trazado 138175" d="M-173.465,149.542c-1.773.164-7.862-5-12.257-12.459-4.329-7.381-11.022-16.224-7.948-18.364,1.708-2.235,20.368,19.382,22.254,24.945C-169.537,149.159-172.861,149.487-173.465,149.542Z" transform="translate(197.082 -112.408)" fill="#f4d7b5"/>
                  <path id="Trazado_138176" data-name="Trazado 138176" d="M-176.9,145.1c-.775-.239-4.847-3.315-9.058-10.333-4.151-6.923-9.826-16.423-7.829-15.883,1.36-.451,16.9,16.648,18.72,21.87C-173.274,145.909-176.276,145.3-176.9,145.1Z" transform="translate(198.48 -110.62)" fill="#dbab6b"/>
                </g>
                <path id="Trazado_138177" data-name="Trazado 138177" d="M-133.208,213.012c4.788-.67,9.183-1.087,10.155-2.235,4.1-4.852,10.982-14.113,10.069-16.833-1.136-3.369-13.419-59.048-63.286-80.2,0,0-16.033-5.6-20.723,10.2,0,0,22.083-3.424,51.424,42.83C-123.04,202.241-133.208,213.012-133.208,213.012Z" transform="translate(203.68 -109.77)" fill="#f4d7b5"/>
                <path id="Trazado_138178" data-name="Trazado 138178" d="M-195,118.191c.729-1.688,2.8-5.365,10.476-3.233,14.529,4.032,56.751,43.643,61.716,74.035,1.347,8.256-1,11.974-2.929,14.7-4.867,6.855-19.515-1.408-21.755-1.9-3.074-.67-27.784-12.281-38.09-37.185S-202.024,134.327-195,118.191Z" transform="translate(198.011 -100.835)" fill="url(#linear-gradient-2)" style="mix-blend-mode: multiply;isolation: isolate"/>
                <path id="Trazado_138179" data-name="Trazado 138179" d="M-133.071,214.422c14.49,3.943,19.666-14.646,18.687-18.07s-12.427-60.011-61.217-83.733c0,0-21.268,2.535-21.2,10.094,0,0,28.763,2.187,54.248,48.947C-122.982,207.581-133.071,214.422-133.071,214.422Z" transform="translate(204.733 -110.708)" fill="#dbab6b"/>
                <path id="Trazado_138180" data-name="Trazado 138180" d="M-131.2,216.24c8.985.519,15.889-13.935,15.514-17.482-.828-7.777-12.769-61.378-61.559-85.093,0,0-11.922-5.269-19.416,8.085,0,0,28.06-.506,54.288,47.73C-123.806,203.631-131.2,216.24-131.2,216.24Z" transform="translate(205.523 -110.586)" fill="#f4d7b5"/>
                <path id="Trazado_138181" data-name="Trazado 138181" d="M-130.267,218.52c9.393.472,19.114-11.953,18.661-19.929-1.11-19.32-18.667-76.188-66.124-85.735,0,0-11.613-3.855-19.121,9.5,0,0,31.489-.772,57.71,47.464C-120.572,203.97-130.267,218.52-130.267,218.52Z" transform="translate(204.476 -112.339)" fill="#dbab6b"/>
                <path id="Trazado_138182" data-name="Trazado 138182" d="M-163.918,209.166c7.074.232,16.158-10.135,16.565-13.675,2.135-18.452-20.125-84.642-38.582-81.334,0,0-2.673,1.791-4.841,9.711,0,0-1.392.417,15.731,27.084C-150.42,189.312-163.918,209.166-163.918,209.166Z" transform="translate(238.147 -102.439)" fill="#f4d7b5"/>
                <g id="Grupo_130857" data-name="Grupo 130857" transform="translate(31.722 5.515)">
                  <path id="Trazado_138183" data-name="Trazado 138183" d="M-193.181,114.036l9.041,32.208,18.69-5.84-7.188-24.795-8.473,2.706Z" transform="translate(193.181 -107.956)" fill="url(#linear-gradient-3)" style="mix-blend-mode: multiply;isolation: isolate"/>
                  <g id="Grupo_130856" data-name="Grupo 130856" transform="translate(0.038)">
                    <path id="Trazado_138184" data-name="Trazado 138184" d="M-184.305,113.583l1.36.868-.007.02c1.182.929.755,4.729-1.064,8.8-1.892,4.265-4.558,7.169-5.964,6.5l-1.268-.588a44.645,44.645,0,0,1,2.181-8.351A46.093,46.093,0,0,1-184.305,113.583Z" transform="translate(203.91 -110.599)" fill="#c3d2e0"/>
                    <path id="Trazado_138185" data-name="Trazado 138185" d="M-183.582,113.668c-1.432-.683-4.138,2.242-6.056,6.554s-2.305,8.358-.887,9.042,4.138-2.242,6.056-6.554S-182.157,114.358-183.582,113.668Z" transform="translate(203.187 -110.684)" fill="#93aacc"/>
                    <g id="Grupo_130855" data-name="Grupo 130855">
                      <path id="Trazado_138186" data-name="Trazado 138186" d="M-173.663,118.009l-5.636,12.069-13.583-10.436c-.525-.253-.328-1.893.447-3.69s1.839-3.021,2.358-2.775Z" transform="translate(193.176 -113.146)" fill="#93aacc"/>
                      <path id="Trazado_138187" data-name="Trazado 138187" d="M-178.354,124.715l-14.417-7.689s1.189-2.952.44-3.875c6.076,1.743,15.6,4.6,15.6,4.6A13.277,13.277,0,0,1-178.354,124.715Z" transform="translate(195.43 -113.12)" fill="#c3d2e0"/>
                    </g>
                  </g>
                </g>
              </g>
              <path id="Trazado_138188" data-name="Trazado 138188" d="M-188.508,119.773c3.041,1.339,5.38,1.2,6.391,1.886s1.471,2.652-4.644,2.255a40.375,40.375,0,0,0,6.733,2.426c1.655.335,6.476,1.223,5.563,2.276-.893,1.066-2.752,1.961-6.187,1.326,0,0,5.82-1.572,5.288,1.258s-4.23,2.166-6.4,2.522c1.682-.6,5.78-1,4.283.574-1.478,1.579-9.235,3.533-11.856,2.98s-6.621-4.073-7.915-7.381-.125-10.86,1.235-11.01S-188.508,119.773-188.508,119.773Z" transform="translate(199.07 -12.827)"/>
              <path id="Trazado_138189" data-name="Trazado 138189" d="M-190.849,130.458c-1.55-.991-2.982-2.242-2.739-3.39.282-1.38,2.41-.888,4.164-.232-.335-.157-.683-.328-1.031-.519-1.7-.888-2-2.918-.079-2.617,1.7.26,6.332,1.92,8.736,2.242a1.157,1.157,0,0,1,.2-.061,4.352,4.352,0,0,0,1.734-1.422c.374-1.285-3.58-2.344-3.258-4.135.447-2.433,13.038,2.071,16.454,2.481,0,0,8.066,12.336-.223,16.737-7.37,3.923-12.651,3.431-14.49,2.891-4.105.205-11.232-6.445-10.825-7.647a1.287,1.287,0,0,1,1-.929c-1.544-.957-2.779-2.262-2.332-3.861C-193.378,129.467-192.169,129.864-190.849,130.458Z" transform="translate(222.417 -8.532)" fill="#1d2318"/>
              <g id="Grupo_130863" data-name="Grupo 130863" transform="translate(51.293 71.182)">
                <g id="Grupo_130859" data-name="Grupo 130859">
                  <path id="Trazado_138190" data-name="Trazado 138190" d="M-129.655,115.047c3.948,2.173,8.46,10.354-3.271,31.649,0,0-7.153,13.539-18.043,22.792-10.68,7.108-20.894,15.07-38.405,13.142,2.391-8.98,1.281-20.127-.828-26.975,9.918-5.556,19.469-7.142,24.552-11.2,5.045-4.019,8.04-10.907,20.355-25.212C-139.409,111.753-132.138,113.687-129.655,115.047Z" transform="translate(190.202 -113.769)" fill="#8c6df2"/>
                </g>
                <g id="Grupo_130860" data-name="Grupo 130860" transform="translate(31.029 14.851)">
                  <path id="Trazado_138191" data-name="Trazado 138191" d="M-167.021,146.231c-1.833-3.964-2.916-8.181-5.879-12.254-3.619-5-9.925-9.021-12.578-9.691a77.2,77.2,0,0,1,5.879-8.345s7.646,3.458,11.974,8.386c4.23,4.818,7.534,11.017,6.976,12A112.071,112.071,0,0,1-167.021,146.231Z" transform="translate(185.478 -115.942)" fill="#fedc72"/>
                  <path id="Trazado_138192" data-name="Trazado 138192" d="M-185.221,119.417c.979.355,6.148,1.736,11.816,7.736,3.356,4.408,6.962,12.3,7.435,13.375a34.7,34.7,0,0,1,2.01-2.993,41.034,41.034,0,0,0-7.317-13.4,30.583,30.583,0,0,0-11.6-7.832A24.751,24.751,0,0,0-185.221,119.417Z" transform="translate(186.909 -113.848)" fill="#e5e1f1"/>
                </g>
                <g id="Grupo_130862" data-name="Grupo 130862" transform="translate(3.705 36.734)">
                  <g id="Grupo_130861" data-name="Grupo 130861">
                    <path id="Trazado_138193" data-name="Trazado 138193" d="M-187.418,151.593c.88-1.763,1.964-9.117,1.3-15.151-1.36-10.039-2.811-11.6-3.521-14.106a45.3,45.3,0,0,1,8.427-3.192,34.475,34.475,0,0,1,4.677,15.152c1.248,8.857.256,15.821-.952,16.211A26.416,26.416,0,0,1-187.418,151.593Z" transform="translate(189.638 -119.144)" fill="#fedc72"/>
                  </g>
                  <path id="Trazado_138194" data-name="Trazado 138194" d="M-182.415,150.523c2.076-8.112,1.366-21.712-3.862-31.287-3.869.97-2.785,1.62-2.785,1.62s7.107,15.22,2.9,30.378C-183.466,151.644-182.415,150.523-182.415,150.523Z" transform="translate(192.064 -118.607)" fill="#d7ccfb"/>
                </g>
              </g>
            </g>
            <g id="Grupo_130899" data-name="Grupo 130899" transform="translate(68.21)">
              <path id="Trazado_138195" data-name="Trazado 138195" d="M-167.62,111.014c2.411,1.011,11.58,8.789,15.692,21.1s6.759,36.167,2.9,37.93-19.075-6.54-20.277-13.06C-170.523,150.441-167.62,111.014-167.62,111.014Z" transform="translate(287.975 -40.478)" fill="#5038a1"/>
              <path id="Trazado_138196" data-name="Trazado 138196" d="M-165.635,174.208c2.739,5.03,22.221,2.6,23.659,0,2.411-4.353,1.287-10.716-3.862-12.725s-5.478-8.536-6.765-11.215-13.354-1.175-15.922-.506-4.952,15.493-.729,19.095A12.941,12.941,0,0,1-165.635,174.208Z" transform="translate(277.057 179.565)"/>
              <path id="Trazado_138197" data-name="Trazado 138197" d="M-148.454,121.813c2.417,8.283,13.577,22.416,14.621,38.388.7,10.771,0,50.225,5.15,75.006,2.358,11.338,5.793,71.6,3.862,82.312-.177.957-9.373-4-13.36-3.185-7.613,1.579-15.79,9.759-16.894,8.543-10.3-11.386-12.066-90.519-19.948-153.975l1.957-46.719Z" transform="translate(257.807 22.525)" fill="#8c6df2"/>
              <g id="Grupo_130865" data-name="Grupo 130865" transform="translate(82.784 165.716)">
                <path id="Trazado_138198" data-name="Trazado 138198" d="M-155.075,304.627c.8.9,5.419-3.26,10.825-6.171a53.523,53.523,0,0,1-.526-6.561c0-3.342,9.656-7.354,7.724-8.03s-14.161,2.679-14.161-.67,7.724-2.679,13.518-6.028c-4.506-2.686-10.95-2.009-12.23-6.028s-2.575-34.089-4.506-40.787,1.931-26.79,0-34.157-10.3-62.957-10.3-70.994l-9.215-.26-1.077,25.71C-167.141,214.107-165.374,293.241-155.075,304.627Z" transform="translate(175.023 -124.941)" fill="#5038a1"/>
              </g>
              <path id="Trazado_138199" data-name="Trazado 138199" d="M-166.39,104.278c-10.45,1.456-14.661,1.866-11.074,5.05s61.539,13.129,61.8,9-11.061-8.515-25.656-10.1A240.214,240.214,0,0,1-166.39,104.278Z" transform="translate(237.213 -79.778)" fill="#5038a1"/>
              <path id="Trazado_138200" data-name="Trazado 138200" d="M-156.877,174.208c-2.739,5.03-22.221,2.6-23.659,0-2.417-4.353-1.287-10.716,3.862-12.725s5.471-8.536,6.765-11.215,13.347-1.175,15.922-.506,4.952,15.493.729,19.095A12.864,12.864,0,0,0-156.877,174.208Z" transform="translate(220.33 179.565)"/>
              <path id="Trazado_138201" data-name="Trazado 138201" d="M-157.8,121.813c-2.43,8.283-16.454,17.735-17.5,33.693-.716,10.784,3.212,57.934-1.938,82.715-2.358,11.331-4.512,63.223-3.862,79.626.039.977,8.729-2.829,12.716-2,7.619,1.579,15.876,8.331,16.894,7.032,8.69-11.051,11.587-87.67,17.689-151.3l.6-49.4Z" transform="translate(223.323 22.525)" fill="#5038a1"/>
              <g id="Grupo_130867" data-name="Grupo 130867" transform="translate(71.44 40.936)">
                <path id="Trazado_138202" data-name="Trazado 138202" d="M-170.852,106.683l-5.9,23.927s6.325,31.355,13.334,34.007,13.9-16.313,13.748-21.378c-.151-5.044-1.688-32.756-1.688-32.756Z" transform="translate(176.75 -106.683)" fill="#f4a684"/>
                <g id="Grupo_130866" data-name="Grupo 130866" transform="translate(11.573 4.251)">
                  <path id="Trazado_138203" data-name="Trazado 138203" d="M-156.281,140.854c-.158-5.057-4.821-31.847-4.821-31.847l-2.279-1.7L-174.988,166C-168.012,168.4-156.124,145.85-156.281,140.854Z" transform="translate(174.988 -107.305)" fill="#ffbea1"/>
                </g>
              </g>
              <path id="Trazado_138204" data-name="Trazado 138204" d="M-134.309,119.814c-1.044-.56-18.628-10.135-18.628-10.135s-6.595,2.679-18.05,7.449c-8.2,3.417-5.826,4.463-6.292,8.939-.486,4.49.177,32.961,1.13,37.95a65.951,65.951,0,0,1-.65,30.132c-.394,1.572-6.286,48.878-3.534,50.232,5.688,2.8,35.692,1.169,46.662,1.34,0-18.446-.709-84.615,3.225-93.766C-125.232,139.811-131.018,121.6-134.309,119.814Z" transform="translate(224.174 -48.267)" fill="#5038a1"/>
              <g id="Grupo_130868" data-name="Grupo 130868" transform="translate(80.202 62.246)">
                <path id="Trazado_138205" data-name="Trazado 138205" d="M-160.795,114.783c.749-1.1,3.133-.362,5.642-4.982,0,0,.433.1,11.462,4.572,8.224,3.328,8.867,2.823,9.334,7.285.486,4.5,2.391,40.021,1.425,45s7.271,55.726,10.621,74c.9,4.9-24.6,4.6-42.806,4.353,1.931-79.031-10.3-112.717-10.3-125.244C-175.416,107.881-167.179,124.037-160.795,114.783Z" transform="translate(175.416 -109.801)" fill="#8c6df2"/>
              </g>
              <g id="Grupo_130869" data-name="Grupo 130869" transform="translate(70.567 4.876)">
                <path id="Trazado_138206" data-name="Trazado 138206" d="M-142.183,123.969c1.281-10.19-.276-19.594-14.273-21.644-17.5-2.583-17.524,8.789-19.462,21.172s3.626,26.319,12.4,28.41c11.56,2.754,14.326-5.577,18.037-14.331,1.478-.7,2.292-3.424,3.3-6.383C-140.922,127.522-140.363,124.57-142.183,123.969Z" transform="translate(180.102 -98.208)" fill="#ffbea1"/>
                <path id="Trazado_138207" data-name="Trazado 138207" d="M-158.478,102.351c-2.128-1.64-7.632-.649-10.956,1.777-2.93,2.119-6.1,7.087-7.048,12.425a34,34,0,0,0,.105,10.88l1.018-3.54a3.6,3.6,0,0,1,3.192-.116c.729.355,1.386,2.488,2,2.761a4.082,4.082,0,0,0,1.412.431c1.432-.191,3.389-5.679,6.135-8.3,3.98-3.773,10.976-1.825,10.976-1.825Z" transform="translate(176.883 -100.606)" fill="#2f0300"/>
                <path id="Trazado_138208" data-name="Trazado 138208" d="M-173.8,109.7c1.379,2.283.657,9.3,5.307,9.725,4.664.4,11.409,1.661,12.618,3.725,1.819,3.069,1.373,7.272,1.373,7.272l2.555-.882s2.9-7.538.683-14.195c-1.682-5.037-3.173-9.083-8.532-11.543-2.417-1.1-11.337-4.367-13.984-.7C-175.043,104.826-173.8,109.7-173.8,109.7Z" transform="translate(191.004 -101.407)" fill="#750700"/>
              </g>
              <path id="Trazado_138209" data-name="Trazado 138209" d="M-143.823,131.447c-3.219,10.716-7.4,37.5-9.971,48.892s-4.026,12.889-6.6,16.908,3.869,21.364-2.89,39.29c-2.351,6.226-14.812,3.342-14.812,3.342s11.587,2.672,12.23,5.358-9.012,4.018-9.012,4.018,10.943,0,12.23,4.681-17.373,0-17.373,2.686,15.922,6.868,21.722,11.557c10.779-19.594,14.963-93.868,14.963-104.584S-143.823,131.447-143.823,131.447Z" transform="translate(229.976 78.732)" fill="#5038a1"/>
              <path id="Trazado_138210" data-name="Trazado 138210" d="M-167.4,143.959c-.65,7.374-.729,31.4-3.3,31.4s-10.3,2.009-10.95-1.34,5.879-26.872,6.522-27.549-3.862,1.257-3.862,1.257,3.783-17.906,7.639-17.243l3.862.67Z" transform="translate(220.656 72.999)" fill="#5038a1"/>
              <path id="Trazado_138211" data-name="Trazado 138211" d="M-168.955,143.178c.644,7.367.729,31.39,3.3,31.39s10.181.595,10.818-2.754-5.754-25.458-6.4-26.121c-.315-.335.046,1.36,1.09,1.756s2.9-2.761,2.9-2.761-5.1-15.452-8.927-14.57c-2.174.513-2.706.253-2.706.253Z" transform="translate(291.596 70.767)" fill="#5038a1"/>
              <path id="Trazado_138212" data-name="Trazado 138212" d="M-172.218,106.042a59.281,59.281,0,0,0,.966,15.951c.525,3.13,2.529,16.45,14.358,18.336l-.966,1.756s-14-.759-17.019-17.455c-1.563-8.673-2.66-17.332-1.445-19.471S-172.218,106.042-172.218,106.042Z" transform="translate(247.678 -79.081)"/>
              <path id="Trazado_138213" data-name="Trazado 138213" d="M-151.987,106.852c-.722,3.766-7.481,21.473-11.1,24.1s-9.537,5.9-10.864,4.148a9.053,9.053,0,0,1,.479-2.262s8.138-2.454,9.662-4.64c3.737-5.406,9.531-22.608,9.531-22.608Z" transform="translate(263.771 -72.1)" fill="#211d1d"/>
              <path id="Trazado_138214" data-name="Trazado 138214" d="M-168.781,108.847c.217-3.615-9.012,12.39-9.012,12.39s18.345,11.051,25.111,9.541,1.445-10.046,1.445-10.046S-169.1,114.369-168.781,108.847Z" transform="translate(242.383 -56.224)" fill="#5038a1"/>
              <path id="Trazado_138215" data-name="Trazado 138215" d="M-174.7,114.225c1.688,1.257,16.979-1.92,17.7-5.44,3.862,2.009,4.992,7.948,3.783,9.459s-10.864,12.3-17.38,9.042S-174.7,114.225-174.7,114.225Z" transform="translate(257.159 -53.483)" fill="#5038a1"/>
              <g id="Grupo_130877" data-name="Grupo 130877" transform="translate(58.501)">
                <g id="Grupo_130873" data-name="Grupo 130873">
                  <g id="Grupo_130872" data-name="Grupo 130872" transform="translate(10.419)">
                    <path id="Trazado_138216" data-name="Trazado 138216" d="M-133.942,133.2c-.348,1.155-4.519-1.4-17.63-4.456s-26-1.182-25.551-3.889c3.068-18.6,15.869-26.571,28.191-23.537,5.3,1.307,10,5.38,13.075,11.133A27.56,27.56,0,0,1-133.942,133.2Z" transform="translate(177.134 -100.693)" fill="#5038a1"/>
                    <g id="Grupo_130871" data-name="Grupo 130871" transform="translate(27.487 0.505)">
                      <g id="Grupo_130870" data-name="Grupo 130870">
                        <path id="Trazado_138217" data-name="Trazado 138217" d="M-155.609,133.8c4.375-14.612-.1-29.2-16.624-32.914-.237-.048-.473-.075-.716-.123,3.232,2.214,5.734,7.586,6.082,8.748,1.931,6.417.8,13.668-.966,20.1C-155.97,132.621-155.937,134.9-155.609,133.8Z" transform="translate(172.949 -100.767)" fill="#8c6df2"/>
                      </g>
                    </g>
                  </g>
                  <path id="Trazado_138218" data-name="Trazado 138218" d="M-178.72,107.726c4.283-1.3,18.759.69,25.032,1.381s31.705,6.212,36.093,11.01c5.57-.724.335-5.044-4.716-7.579-8.591-4.3-35.758-9.91-46.688-8.058A56.112,56.112,0,0,0-178.72,107.726Z" transform="translate(178.72 -80.724)" fill="#8c6df2"/>
                </g>
                <g id="Grupo_130876" data-name="Grupo 130876" transform="translate(9.899 16.798)">
                  <path id="Trazado_138219" data-name="Trazado 138219" d="M-176.682,106.291s27.035-3.513,28.73-2.754a28.393,28.393,0,0,0-.723,4.763s-26.8.923-28.008.595S-176.682,106.291-176.682,106.291Z" transform="translate(177.213 -101.528)"/>
                  <path id="Trazado_138220" data-name="Trazado 138220" d="M-169.557,103.723l8.585,6.95s-.434,4-.939,3.7c-1.287-.752-5.787-4.353-9.577-6.192C-172.362,107.755-169.557,103.723-169.557,103.723Z" transform="translate(208.152 -99.814)" fill="#211d1d"/>
                  <g id="Grupo_130875" data-name="Grupo 130875" transform="translate(26.795)">
                    <path id="Trazado_138221" data-name="Trazado 138221" d="M-159.843,110.791c-.23,1.661-1.248,3.13-2.733,2.9l-7.829-1.456a3.336,3.336,0,0,1-2.693-3.82l.374-2.59a2.994,2.994,0,0,1,3.606-2.6l7.567,1.948a3.157,3.157,0,0,1,2.233,3.567Z" transform="translate(173.133 -103.151)"/>
                    <g id="Grupo_130874" data-name="Grupo 130874" transform="translate(1.79 1.941)">
                      <path id="Trazado_138222" data-name="Trazado 138222" d="M-172.079,103.435l10.1,2.262s-.072,3.725-1.708,4.367c-1.235.492-9.176-.806-9.176-2.9A9.4,9.4,0,0,1-172.079,103.435Z" transform="translate(172.861 -103.435)" fill="#93aacc"/>
                      <path id="Trazado_138223" data-name="Trazado 138223" d="M-172.234,103.63l7.777,1.845s-.158,2.084-1.366,2.57c-.926.362-6.824-.608-6.824-2.173A4.623,4.623,0,0,1-172.234,103.63Z" transform="translate(174.047 -102.297)" fill="#fff"/>
                    </g>
                  </g>
                </g>
              </g>
              <g id="Grupo_130880" data-name="Grupo 130880" transform="translate(57.936 80.39)">
                <g id="Grupo_130879" data-name="Grupo 130879" transform="translate(1.707)">
                  <path id="Trazado_138224" data-name="Trazado 138224" d="M-166.394,143.033a2.669,2.669,0,0,1-2.562,2.761l-6.522.123a2.657,2.657,0,0,1-2.66-2.665l-.407-27.9a2.667,2.667,0,0,1,2.562-2.768l6.522-.13a2.657,2.657,0,0,1,2.66,2.665Z" transform="translate(178.546 -112.456)" fill="#8c6df2"/>
                  <path id="Trazado_138225" data-name="Trazado 138225" d="M-171.174,139.1c.013,1.175-.617,2.146-1.439,2.153l-3.685.075c-.814.014-1.491-.923-1.517-2.1l-.328-23.763c-.026-1.175.624-2.139,1.432-2.16l3.691-.068c.814-.021,1.491.923,1.511,2.1Z" transform="translate(180.784 -107.893)" fill="#fdb74d"/>
                  <g id="Grupo_130878" data-name="Grupo 130878" transform="translate(0.735 1.927)">
                    <path id="Trazado_138226" data-name="Trazado 138226" d="M-178.433,118.275a5.342,5.342,0,0,1,5.123-5.536,5.331,5.331,0,0,1,5.32,5.331,5.337,5.337,0,0,1-5.13,5.529A5.307,5.307,0,0,1-178.433,118.275Z" transform="translate(178.434 -112.738)"/>
                    <path id="Trazado_138227" data-name="Trazado 138227" d="M-178.224,117.022a3.924,3.924,0,0,1,3.777-4.073,3.9,3.9,0,0,1,3.915,3.923,3.918,3.918,0,0,1-3.77,4.073A3.91,3.91,0,0,1-178.224,117.022Z" transform="translate(179.598 -111.513)" fill="#bed1e4"/>
                  </g>
                </g>
                <path id="Trazado_138228" data-name="Trazado 138228" d="M-162.917,121.342c0,.554-.322,1-.742,1h-14.4c-.407,0-.742-.451-.742-1v-5.023c0-.554.335-1,.742-1h14.4c.42,0,.742.451.742,1Z" transform="translate(178.806 -95.781)" fill="#fedc72"/>
              </g>
              <g id="Grupo_130885" data-name="Grupo 130885" transform="translate(0 159.449)">
                <g id="Grupo_130882" data-name="Grupo 130882" transform="translate(18.295 85.513)">
                  <path id="Trazado_138229" data-name="Trazado 138229" d="M-174.87,138.283c-.952-1.545-2.621-2.18-3.751-1.435l-5.274,3.506c-1.123.745-1.268,2.6-.322,4.142l2.417,3.936c.939,1.538,2.621,2.18,3.751,1.428l5.275-3.5c1.123-.752,1.274-2.6.322-4.142Z" transform="translate(184.841 -136.536)" fill="#292929"/>
                  <g id="Grupo_130881" data-name="Grupo 130881" transform="translate(0.041 0.004)">
                    <path id="Trazado_138230" data-name="Trazado 138230" d="M-183.883,140.351l5.275-3.5c1.123-.752,2.8-.109,3.751,1.428l1.616,2.638-9.347,6.212-1.629-2.638C-185.158,142.954-185.006,141.1-183.883,140.351Z" transform="translate(184.835 -136.537)"/>
                  </g>
                </g>
                <path id="Trazado_138231" data-name="Trazado 138231" d="M-155.315,149.725c.322-2.959-.867-10.2-2.516-12.91-1.8-2.959-14.148-9.09-18.175-7.928-4.033,1.182-11.541,9.274-9.649,18.808s1.944-1.948,1.944-1.948,3.8-12.548,7.921-13.4,14.641,3.342,15.823,6.472a96.959,96.959,0,0,1,2.627,10.128Z" transform="translate(196.935 -96.493)" fill="#dbab6b"/>
                <path id="Trazado_138232" data-name="Trazado 138232" d="M-160.543,147.95c.322-2.966-.874-10.21-2.516-12.924-1.8-2.952-13.57-8.187-17.6-7.019s-7.37,13.457-5.465,22.99,1.938-1.955,1.938-1.955,1.8-15.657,5.918-16.512,11.9,1.381,13.078,4.511a97.242,97.242,0,0,1,2.621,10.128Z" transform="translate(192.915 -101.757)" fill="#f4d7b5"/>
                <path id="Trazado_138233" data-name="Trazado 138233" d="M-178.882,135c.6-.868,1.353-3.342-.933-4.415s-3.744.7-3.494,1.927S-178.882,135-178.882,135Z" transform="translate(211.51 -87.691)" fill="#292929"/>
                <path id="Trazado_138234" data-name="Trazado 138234" d="M-179.421,136.328c.749-.909,2.778-2.72,1.34-3.691s-.539-1.408-1.432-.977a11.738,11.738,0,0,0-2.4,2.269Z" transform="translate(219.458 -80.445)" fill="#292929"/>
                <path id="Trazado_138235" data-name="Trazado 138235" d="M-185.535,151l20.493,20.974,19.4-4.565s2.667-14.728-.158-19.642-11.245-19.423-16.027-16.716-22.1,10.094-23.607,12.876S-189.141,147.879-185.535,151Z" transform="translate(188.369 -84.963)" fill="#c3d2e0" opacity="0.62"/>
                <path id="Trazado_138236" data-name="Trazado 138236" d="M-187.437,146.321c1.031-.827-.348-5.03.9-6,3.764-3.711,16.638-10.5,19.456-10.279s6.6,3.725,6.6,3.725-10.956,8.673-17.229,10.5A50.831,50.831,0,0,1-187.437,146.321Z" transform="translate(188.681 -88.948)" fill="#292929"/>
                <g id="Grupo_130883" data-name="Grupo 130883" transform="translate(23.313 80.77)">
                  <path id="Trazado_138237" data-name="Trazado 138237" d="M-164.351,144.69l-15.889,4.627-3.823-7.231c-.289-1.073,3.816-3.205,9.156-4.763s9.925-1.948,10.207-.882Z" transform="translate(184.077 -135.842)"/>
                  <path id="Trazado_138238" data-name="Trazado 138238" d="M-165.556,137.718l-.039-.9c-.269-1-4.578-.635-9.636.834s-8.913,3.485-8.644,4.49l.414.793c.637-1.073,4.145-2.775,8.559-4.06S-166.639,137.137-165.556,137.718Z" transform="translate(185.131 -133.463)" fill="#292929"/>
                  <path id="Trazado_138239" data-name="Trazado 138239" d="M-166.558,138.022l-.033-.841c-.25-.943-4.283-.595-9.005.786s-8.342,3.253-8.086,4.2l.388.745c.6-1.018,3.882-2.6,8.007-3.813S-167.569,137.482-166.558,138.022Z" transform="translate(186.211 -131.122)" fill="#292929"/>
                  <path id="Trazado_138240" data-name="Trazado 138240" d="M-167.594,137.57c-.249-.888-4-.581-8.375.7s-7.751,3.034-7.514,3.923,3.994.581,8.381-.7S-167.351,138.465-167.594,137.57Z" transform="translate(187.32 -128.722)" fill="#292929"/>
                </g>
                <path id="Trazado_138241" data-name="Trazado 138241" d="M-144.9,168.661c1.537-3.574,4-15.384,1.044-20.783s-11.8-21.166-18.74-16.532c-13.452,8.973-16.9,8.932-23.784,12.24-3.737,4.743,1.9,10.142,4.407,12.015,0,0-5.649-6.7-2.1-9.042,2.457-1.62,7.4.2,22.608-12.233,3.028-.547,5.747,1.8,9.137,6.021s6.864,9.752,7.324,13.081c.952,6.773-2,15.842-2,15.842Z" transform="translate(187.626 -86.213)"/>
                <path id="Trazado_138242" data-name="Trazado 138242" d="M-171.589,161.335l-8.539-29.845s-2.9,3.192-4.066,3.526c7.383,17.147,11.482,25.874,11.482,25.874Z" transform="translate(206.739 -80.466)" fill="#fff" opacity="0.63"/>
                <path id="Trazado_138243" data-name="Trazado 138243" d="M-177.336,160.676l-5.826-29.073s3.613,1.292,4.6,3.089S-177.336,160.676-177.336,160.676Z" transform="translate(212.486 -79.806)" fill="#fff" opacity="0.46"/>
                <g id="Grupo_130884" data-name="Grupo 130884" transform="translate(35.251 65.65)">
                  <path id="Trazado_138244" data-name="Trazado 138244" d="M-175.411,138.47a6.135,6.135,0,0,1-1.15,4.23l.02,1.128-2.266-.021v-.014c-1.741-.123-3.251-2.173-3.435-4.832-.184-2.775,1.15-5.119,2.989-5.331l2.588.034.013,1.264A6.556,6.556,0,0,1-175.411,138.47Z" transform="translate(182.26 -133.624)"/>
                  <path id="Trazado_138245" data-name="Trazado 138245" d="M-175.031,138.482c-.2-2.816-1.892-4.989-3.8-4.845s-3.3,2.536-3.12,5.351,1.892,4.989,3.8,4.845S-174.847,141.3-175.031,138.482Z" transform="translate(183.869 -133.63)" fill="#292929"/>
                </g>
                <path id="Trazado_138246" data-name="Trazado 138246" d="M-179.406,124.024c-1.169,6.622-.381,10.689-2.956,14.072s-5.334,10.552-4.125,14.892c.611,2.166,3.849,8,6.923,10.463,4.985,4.025,11.238-1.832,11.422-3.342.322-2.679-2.818-1.592-4.184-2.679-1.918-1.531-3.173-6.13-1.123-7.791s3.659,10.812,8.69,7.2c1.773-1.278-3.048-11.632-.808-14.407s4.355-8.44,3.219-10.716S-179.406,124.024-179.406,124.024Z" transform="translate(192.342 -124.024)" fill="#1d2318"/>
                <path id="Trazado_138247" data-name="Trazado 138247" d="M-184.76,131.373c.965.253,8.04,1.674,9.169,4.934s2.489-1.34,2.489-1.34-1.76-5.1-11.015-6.95A9.573,9.573,0,0,0-184.76,131.373Z" transform="translate(203.575 -100.728)" fill="#f4d7b5"/>
              </g>
              <path id="Trazado_138248" data-name="Trazado 138248" d="M-146.254,111.3c-4.506-.67-10.634,5.563-13.511,14.058-3.862,11.393-10.306,32.825-15.455,42.871s-12.23,42.188-10.943,44.867c6.444-1.333,17.7,4.688,22.214,8.037,5.793-16.074,9.485-22.157,12.546-32.476,5.15-17.42,3.862-15.411,6.444-23.441S-146.254,111.3-146.254,111.3Z" transform="translate(194.916 -39.085)" fill="#8c6df2"/>
              <path id="Trazado_138249" data-name="Trazado 138249" d="M-176.164,137.372c6.759,2.5,28.159,3.506,31.055,3.007-.48,12.056-2.089,42.195-5.472,42.195s-29.932.5-29.932-4.524S-176.164,137.372-176.164,137.372Z" transform="translate(227.242 113.3)" fill="#1d2318"/>
              <path id="Trazado_138250" data-name="Trazado 138250" d="M-173.714,141.883c3.869,0,30.628-3.014,33.558-4.511,2.411,14.058,5.55,37.916,4.585,39.926s-32.106,7.784-34.037,4.77S-173.714,141.883-173.714,141.883Z" transform="translate(265.096 113.3)" fill="#42493a"/>
              <g id="Grupo_130886" data-name="Grupo 130886" transform="translate(9.796 151.993)">
                <path id="Trazado_138251" data-name="Trazado 138251" d="M-183.475,122.933c.414,0,18.51,5.112,24.947,13.477a87.7,87.7,0,0,0-3.54,8.878s-14.083-12.466-24.066-11.3C-184.927,127.457-184.2,122.933-183.475,122.933Z" transform="translate(186.135 -122.933)" fill="#fedc72"/>
                <path id="Trazado_138252" data-name="Trazado 138252" d="M-185.065,123.4c.394-.123,18.424,4.442,24.861,12.814-.368,1.21-1.485,3.889-1.485,3.889s-13.688-13.183-24.349-12.056C-185.794,125.868-185.347,123.476-185.065,123.4Z" transform="translate(186.681 -120.216)" fill="#e5e1f1"/>
              </g>
              <g id="Grupo_130887" data-name="Grupo 130887" transform="translate(24.844 104.44)">
                <path id="Trazado_138253" data-name="Trazado 138253" d="M-183.844,128.96c3.218,2.337,16.1,6.356,22.529,16.737,2.9-7.026,3.219-10.716,3.219-10.716s-6.752-13.224-21.36-19.006A62.17,62.17,0,0,0-183.844,128.96Z" transform="translate(183.844 -115.975)" fill="#fedc72"/>
                <path id="Trazado_138254" data-name="Trazado 138254" d="M-183.7,121.895c8.69,1.886,20.217,10.238,22.865,17.106.972-2.857,1.327-4.422,1.327-4.422s-6.457-12.056-22.385-18.015A30.218,30.218,0,0,0-183.7,121.895Z" transform="translate(184.651 -112.539)" fill="#e5e1f1"/>
              </g>
              <path id="Trazado_138255" data-name="Trazado 138255" d="M-180.058,133.16c3.619-1.763,51.049-9.67,73.5-2.638,0-6.534-.243-10.169-.243-10.169a189.8,189.8,0,0,0-72.9,2.378C-180.182,131.444-180.058,133.16-180.058,133.16Z" transform="translate(229.691 -0.207)" fill="#fedc72"/>
              <path id="Trazado_138256" data-name="Trazado 138256" d="M-180.088,127.373c3.619-1.763,51.049-9.67,73.493-2.638-.112-2.515,0-4.271,0-4.271a197.078,197.078,0,0,0-73.047,2.891C-180.128,132.062-180.088,127.373-180.088,127.373Z" transform="translate(229.597 2.312)" fill="#d7ccfb"/>
              <g id="Grupo_130890" data-name="Grupo 130890" transform="translate(96.131 100.011)">
                <g id="Grupo_130888" data-name="Grupo 130888">
                  <path id="Trazado_138257" data-name="Trazado 138257" d="M-172.525,117.126c.965,3.526-.486,27.139,2.9,28.136s14,1,14-1.51.493-26.626-1.925-27.617C-159.973,115.123-172.525,117.126-172.525,117.126Z" transform="translate(175.586 -112.28)" fill="#5038a1"/>
                  <path id="Trazado_138258" data-name="Trazado 138258" d="M-172.991,116.325c1.452,0,20.769-2,20.6-.335s2.246,10.046-.158,11.051-19.318,3.178-19.318-.328A89.7,89.7,0,0,0-172.991,116.325Z" transform="translate(172.991 -115.327)" fill="#5038a1"/>
                </g>
                <g id="Grupo_130889" data-name="Grupo 130889" transform="translate(3.468 17.367)">
                  <path id="Trazado_138259" data-name="Trazado 138259" d="M-172.086,127.913c.841-.629,14.3-.752,16.171.69.243-3.773,0-9.356,0-9.356s-3.258-2.255-16.414-1A64.29,64.29,0,0,0-172.086,127.913Z" transform="translate(172.566 -117.868)" fill="#5038a1"/>
                  <path id="Trazado_138260" data-name="Trazado 138260" d="M-172.227,123.039c.243-.314,14-1.374,16.533.759-.059-2.946-.059-3.957-.059-3.957s-6.332-3.267-16.71-.5C-172.411,120.907-172.227,123.039-172.227,123.039Z" transform="translate(172.463 -115.762)" fill="#5038a1"/>
                </g>
              </g>
              <g id="Grupo_130896" data-name="Grupo 130896" transform="translate(90.041 36.037)">
                <g id="Grupo_130892" data-name="Grupo 130892" transform="translate(21.545 44.545)">
                  <path id="Trazado_138261" data-name="Trazado 138261" d="M-154.224,112.484c-.965,4.189-14,17.086-16.414,17.578,5.793,7.538,12.066,32.654,26.063,31.649s9.334-6.7,10.3-8.2.328-18.931-6.437-27.959S-154.224,112.484-154.224,112.484Z" transform="translate(170.638 -112.484)" fill="#5038a1"/>
                  <g id="Grupo_130891" data-name="Grupo 130891" transform="translate(3.645 6.253)">
                    <path id="Trazado_138262" data-name="Trazado 138262" d="M-142.877,121.839c-.236,4.524-13.78,16.976-22.924,18.145-1.957-4.148-4.282-8.379-4.282-8.379s15.935-6.773,20.414-18.206C-145.13,118.689-143,121.279-142.877,121.839Z" transform="translate(170.083 -113.399)" fill="#5038a1"/>
                    <path id="Trazado_138263" data-name="Trazado 138263" d="M-145.5,117.376c-.236,2.132-13.452,16.58-22.562,17.824a35.685,35.685,0,0,1-1.819-3.561s16.362-5.8,21.308-17.851C-146.966,115.373-145.4,117.014-145.5,117.376Z" transform="translate(171.197 -111.129)" fill="#5038a1"/>
                  </g>
                </g>
                <g id="Grupo_130895" data-name="Grupo 130895">
                  <g id="Grupo_130894" data-name="Grupo 130894">
                    <g id="Grupo_130893" data-name="Grupo 130893" transform="translate(0 15.736)">
                      <path id="Trazado_138264" data-name="Trazado 138264" d="M-159.171,147.063a3.7,3.7,0,0,1-5.235,1.162l-7.777-4.572a4.029,4.029,0,0,1-1.123-5.447l17.544-28.137a3.676,3.676,0,0,1,5.215-1.169l7.79,4.579a4.035,4.035,0,0,1,1.13,5.433Z" transform="translate(173.918 -108.269)" fill="#5038a1"/>
                      <path id="Trazado_138265" data-name="Trazado 138265" d="M-163.039,140.285a2.968,2.968,0,0,1-4.184.936l-4.663-2.713a3.222,3.222,0,0,1-.9-4.347l14.877-23.851a2.949,2.949,0,0,1,4.177-.923l4.657,2.693a3.223,3.223,0,0,1,.9,4.353Z" transform="translate(177.537 -104.703)" fill="#5038a1"/>
                    </g>
                    <path id="Trazado_138266" data-name="Trazado 138266" d="M-166.259,129.134c-.742-1.312-1.386-1.162-1.885-1.5h0c-.493-.328-1.944-1.059-1.629-1.565l14.4-19.765c.322-.519,1.662-.629,1.064,1.011Z" transform="translate(196.751 -105.966)" fill="#5038a1"/>
                  </g>
                  <path id="Trazado_138267" data-name="Trazado 138267" d="M-146.3,128c-2.575-6.035-6.437-12.732-11.587-15.411s-8.69-3.431-10.943-3.089-1.813,1.121.479,2.255a38.012,38.012,0,0,1,5.2,3.39s-5.793-4.271-8.69-3.26-.532,3.007,6.877,7.032c-1.057.355-9.255-5.953-7.967-2.262s7,7.654,7,7.654-6.582-6.629-6.4-3.26,6.069,11.393,11.068,14.523,5.314,3.479,6.595,6.151a52.334,52.334,0,0,1,2.411,6.527s12.395-9.534,12.073-13.224S-146.3,128-146.3,128Z" transform="translate(178.625 -85.793)" fill="#5038a1"/>
                </g>
              </g>
              <g id="Grupo_130897" data-name="Grupo 130897" transform="translate(42.065 320.122)">
                <path id="Trazado_138268" data-name="Trazado 138268" d="M-181.221,158.748c3.9-1.633,23.245-6.158,33.748,4.64a41.131,41.131,0,0,0,2.417-9.411s-16.132-11.386-35.844-3.889C-181.26,154.354-181.221,158.748-181.221,158.748Z" transform="translate(181.222 -147.534)" fill="#ffde3b"/>
                <path id="Trazado_138269" data-name="Trazado 138269" d="M-181.123,153.508c1.695-.588,22.306-6.95,34.28,4.852,1.36-3.854,1.123-4.353,1.123-4.353s-13.439-10.3-35.16-4.019C-181.438,150.659-181.123,153.508-181.123,153.508Z" transform="translate(181.282 -145.055)" fill="#c3d2e0"/>
              </g>
              <g id="Grupo_130898" data-name="Grupo 130898" transform="translate(96.256 320.049)">
                <path id="Trazado_138270" data-name="Trazado 138270" d="M-135.677,158.934c-3.783-2.467-23.259-4.893-34.963,4.989a35.309,35.309,0,0,1-2.332-9.759s18.628-11.509,37.216-4.223A71.335,71.335,0,0,1-135.677,158.934Z" transform="translate(172.972 -147.523)" fill="#ffde3b"/>
                <path id="Trazado_138271" data-name="Trazado 138271" d="M-136.145,154.39c-1.491-1.715-22.976-6.151-35.568,4.7-1.406-3.855-1.15-4.613-1.15-4.613s18.9-11.256,36.757-4.306A36.9,36.9,0,0,1-136.145,154.39Z" transform="translate(173.48 -145.324)" fill="#c3d2e0"/>
              </g>
            </g>
          </g>
        </g>
      </g>
    </g>
    <g id="Grupo_132124-3" data-name="Grupo 132124" transform="translate(519.207 752)">
      <rect id="Rect치ngulo_41169" data-name="Rect치ngulo 41169" width="250" height="46" rx="5" fill="#8c6df2"/>
    </g>
  </g>
</svg>
