<svg xmlns="http://www.w3.org/2000/svg" xmlns:xlink="http://www.w3.org/1999/xlink" width="304.073" height="282" viewBox="0 0 304.073 282">
  <defs>
    <clipPath id="clip-path">
      <rect id="Rectángulo_44117" data-name="Rectángulo 44117" width="288" height="239" transform="translate(0 0)" fill="none"/>
    </clipPath>
    <clipPath id="clip-path-2">
      <rect id="Rectángulo_44118" data-name="Rectángulo 44118" width="272.18" height="241.979" fill="none"/>
    </clipPath>
  </defs>
  <g id="Grupo_132219" data-name="Grupo 132219" transform="translate(-804.207 -516)">
    <g id="Grupo_132125" data-name="Grupo 132125" transform="translate(804.207 516)">
      <g id="Grupo_132127" data-name="Grupo 132127" transform="translate(0 0.519)">
        <rect id="Rectángulo_44116" data-name="Rectángulo 44116" width="304" height="33.139" transform="translate(0.073 0)" fill="#fff"/>
        <g id="Image_Place_Holder" data-name="Image Place Holder" transform="translate(0 32.838)" opacity="0.1">
          <rect id="Image_Place_Holder-2" data-name="Image Place Holder-2" width="303.554" height="206.345" fill="#fdb74d"/>
        </g>
      </g>
      <g id="Grupo_132133" data-name="Grupo 132133" transform="translate(9.271 0)">
        <g id="Grupo_132128" data-name="Grupo 132128" clip-path="url(#clip-path)">
          <g id="Grupo_130781" data-name="Grupo 130781" transform="translate(9.024 -0.999)">
            <g id="Grupo_130780" data-name="Grupo 130780" transform="translate(28.124 12.041)">
              <g id="Grupo_130750" data-name="Grupo 130750" transform="translate(67.423)">
                <g id="Grupo_130729" data-name="Grupo 130729" transform="translate(0 48.316)">
                  <g id="Grupo_130720" data-name="Grupo 130720" transform="translate(0 62.843)">
                    <path id="Trazado_137978" data-name="Trazado 137978" d="M879.847,398.435V413.92a12.468,12.468,0,0,0-1.114,3.038c-10.385-5.631-20.481-11.518-30.47-17.954-1.414-.916-3.436-2.268-5.642-3.777a16.617,16.617,0,0,1-4.5-22.4c.054-.085.108-.17.163-.254,1.723-2.648,3.383-5.128,4.626-6.885,1.746-2.47,3.544-4.918,5.406-7.308l17.559,20.915c-1.349,1.431-2.688,2.883-4.047,4.358C867.62,388.666,873.691,393.6,879.847,398.435Z" transform="translate(-835.594 -358.378)" fill="#ebaf7f"/>
                  </g>
                  <g id="Grupo_130721" data-name="Grupo 130721" transform="translate(108.363 60.453)">
                    <path id="Trazado_137979" data-name="Trazado 137979" d="M987.875,395.187c-2.205,1.508-4.229,2.86-5.642,3.777-9.6,6.2-19.322,11.876-29.292,17.317a14.953,14.953,0,0,0-2.376-4.458l.5-13.753c6.017-4.737,11.938-9.552,17.6-14.458-2.045-2.213-4.069-4.38-6.091-6.525l17.73-21.138c2.527,3.147,4.946,6.4,7.28,9.7,1.242,1.754,2.9,4.229,4.626,6.885a16.629,16.629,0,0,1-4.094,22.486Z" transform="translate(-950.566 -355.948)" fill="#ebaf7f"/>
                  </g>
                  <g id="Grupo_130728" data-name="Grupo 130728" transform="translate(11.289)">
                    <g id="Grupo_130722" data-name="Grupo 130722" transform="translate(56.825)">
                      <rect id="Rectángulo_41146-2" data-name="Rectángulo 41146-2" width="18.317" height="36.666" fill="#ebaf7f"/>
                      <path id="Trazado_137980" data-name="Trazado 137980" d="M926.182,308.754v3.187a12.862,12.862,0,0,1-8.341,2.963h-1.633a12.858,12.858,0,0,1-8.341-2.963v-3.178a12.815,12.815,0,0,0,8.341,2.951h1.633A12.8,12.8,0,0,0,926.182,308.754Z" transform="translate(-907.863 -294.719)" fill="#e48855"/>
                    </g>
                    <g id="Grupo_130727" data-name="Grupo 130727" transform="translate(0 20.994)">
                      <path id="Trazado_137981" data-name="Trazado 137981" d="M974.232,353.168l-.739.893-17.783,21.283-.493.581-1.831-1.944-7.023-7.475-1.131,30.9-.5,13.753a14.951,14.951,0,0,1,2.376,4.458,14.548,14.548,0,0,1,.565,7H879.805a10.956,10.956,0,0,1-.3-6.367,12.468,12.468,0,0,1,1.114-3.038V365.49l-10.814,10.446-2.463,2.379-.2-.245-17.27-21.407-.888-1.105s.754-.76,2.013-2.045c6.253-6.3,25.042-25.271,26.68-26.691,1.97-1.71,17.044-6.156,17.044-6.156l9.775-4.838v5.351l8.918,3.419,9.347-4.491v-4.279l9.507,4.659,11.477,3.943c4.111,2.57,22.715,20.982,28.661,26.9C973.558,352.485,974.232,353.168,974.232,353.168Z" transform="translate(-847.653 -315.829)" fill="#5038a1"/>
                      <g id="Grupo_130726" data-name="Grupo 130726" transform="translate(0 0.001)">
                        <g id="Grupo_130723" data-name="Grupo 130723" transform="translate(56.272 8.768)">
                          <path id="Trazado_137982" data-name="Trazado 137982" d="M916.732,324.745l-4.96,1.369,1.475,7.868h7.54l1.312-8.04Z" transform="translate(-907.534 -324.745)" fill="#002447"/>
                          <path id="Trazado_137983" data-name="Trazado 137983" d="M912.99,334.138s-6.394,65.013-5.655,66.291,8.853,10.778,10.574,11.034,9.837-10.008,9.345-11.548-6.722-65.78-6.722-65.78Z" transform="translate(-907.276 -324.899)" fill="#002447"/>
                        </g>
                        <g id="Grupo_130725" data-name="Grupo 130725">
                          <path id="Trazado_137984" data-name="Trazado 137984" d="M916.251,324.6l-6.394,1.2-.819,4.277a40.918,40.918,0,0,1-10.656-9.922l8.954-4.321v5.347Z" transform="translate(-850.492 -315.83)" fill="#002447"/>
                          <path id="Trazado_137985" data-name="Trazado 137985" d="M917.035,324.6l6.394,1.2.819,4.277a44.476,44.476,0,0,0,10.79-10.2l-8.372-4.042v4.277Z" transform="translate(-851.565 -315.83)" fill="#002447"/>
                          <path id="Trazado_137986" data-name="Trazado 137986" d="M942.575,355.941a22.6,22.6,0,0,1-1.037-2.45c-.365-1.734,1.07-4.131,1.07-4.131l-1.729-1.928c-2.345,2.754-5.055-.262-5.055-.262s-2.71,3.018-5.055.262l-1.73,1.924s1.434,2.4,1.07,4.131a22.967,22.967,0,0,1-1.037,2.45,7.374,7.374,0,0,0-.3,3.041,4.535,4.535,0,0,0,1.346,2.852,6.808,6.808,0,0,0,3.263,1.262,5.674,5.674,0,0,1,1.267.5,3.685,3.685,0,0,1,.66.441,2.117,2.117,0,0,1,.5.53h.028a2.074,2.074,0,0,1,.5-.53,3.613,3.613,0,0,1,.66-.441,5.592,5.592,0,0,1,1.267-.5,6.812,6.812,0,0,0,3.262-1.262,4.54,4.54,0,0,0,1.346-2.852A7.424,7.424,0,0,0,942.575,355.941Z" transform="translate(-852.237 -316.346)" fill="#fedc72"/>
                          <path id="Trazado_137987" data-name="Trazado 137987" d="M887.4,325.317l-1.66-2.182s-8.1,1.5-8.71,2.267-8.567,10.607-8.567,10.607l2.049,2.1Z" transform="translate(-848.773 -315.95)" fill="#002447"/>
                          <path id="Trazado_137988" data-name="Trazado 137988" d="M942.561,324.1l1.66-2.181s8.1,1.5,8.71,2.267,8.567,10.607,8.567,10.607l-2.049,2.1Z" transform="translate(-853.032 -315.93)" fill="#002447"/>
                          <path id="Trazado_137989" data-name="Trazado 137989" d="M870.515,377.511l-3.051,2.781-.9-1.072-17.558-20.915-1.435-1.709,3.062-2.793.283.335.707.838,17.794,21.216.31.369Z" transform="translate(-847.572 -316.455)" fill="#002447"/>
                          <path id="Trazado_137990" data-name="Trazado 137990" d="M982.4,353.984l-1.584,1.888-17.73,21.138-.566.682-3.062-2.793.283-.335.493-.581,17.933-21.362.589-.7.6-.715Z" transform="translate(-854.003 -316.412)" fill="#002447"/>
                        </g>
                      </g>
                    </g>
                  </g>
                </g>
                <g id="Grupo_130739" data-name="Grupo 130739" transform="translate(51.874)">
                  <g id="Grupo_130732" data-name="Grupo 130732" transform="translate(1.427 16.736)">
                    <g id="Grupo_130730" data-name="Grupo 130730">
                      <path id="Trazado_137994" data-name="Trazado 137994" d="M938.131,283.318a5.08,5.08,0,0,0-3.921,1.082c.348-6.356-.065-12.076-.608-14-.986-3.522-8.9-8.048-17.484-8.022-8.577-.027-16.494,4.5-17.492,8.022-.534,1.9-.943,7.5-.615,13.77a5.466,5.466,0,0,0-3.643-.85c-4.623.21-1.592,16.588,4.984,11.436.044.2.087.393.133.59a24.8,24.8,0,0,0,3.087,7.853,18.656,18.656,0,0,0,5.938,5.857,12.15,12.15,0,0,0,6.794,1.9h1.633a12.559,12.559,0,0,0,7.669-2.467,19.305,19.305,0,0,0,5.06-5.29,24.739,24.739,0,0,0,3.1-7.951c.052-.225.1-.453.152-.683C939.653,300.278,942.807,283.53,938.131,283.318Z" transform="translate(-892.145 -262.376)" fill="#ebaf7f"/>
                    </g>
                    <g id="Grupo_130731" data-name="Grupo 130731" transform="translate(1.285 7.249)">
                      <path id="Trazado_137995" data-name="Trazado 137995" d="M902.24,278.259s-1.476,6.031-2.336,8.085l-1.813-2.043s-2.983-1.166-4.582-.524c0,0,2.654-7.649,3.516-9.189s4.232-4.925,5.338-3.9S902.24,278.259,902.24,278.259Z" transform="translate(-893.509 -269.758)" fill="#986e2e"/>
                      <path id="Trazado_137996" data-name="Trazado 137996" d="M932.509,278.247s1.475,6.031,2.336,8.085l1.813-2.043s2.983-1.166,4.581-.524c0,0-2.849-7.649-3.71-9.189s-5.1-5.695-6.2-4.668S932.509,278.247,932.509,278.247Z" transform="translate(-895.665 -269.746)" fill="#986e2e"/>
                    </g>
                  </g>
                  <g id="Grupo_130738" data-name="Grupo 130738">
                    <g id="Grupo_130736" data-name="Grupo 130736">
                      <g id="Grupo_130734" data-name="Grupo 130734">
                        <g id="Grupo_130733" data-name="Grupo 130733">
                          <path id="Trazado_137997" data-name="Trazado 137997" d="M931.5,251.753c-2.58.189-10.362.177-15.391-6.068a.859.859,0,0,0-1.245-.105.746.746,0,0,0-.1.105c-5.029,6.246-12.813,6.257-15.39,6.068a.909.909,0,0,0-.943.846c-.848,7.672-5.293,10.848-7.308,11.9a.951.951,0,0,0-.3,1.4l6.046,8.272,2.247-2.5,16.327-.762,17.531.762,2.247,2.5,4.985-8.293a.956.956,0,0,0-.276-1.285.866.866,0,0,0-.077-.045c-1.971-1.011-6.53-4.161-7.395-11.95A.911.911,0,0,0,931.5,251.753Z" transform="translate(-890.632 -245.36)" fill="#002447"/>
                          <path id="Trazado_137998" data-name="Trazado 137998" d="M898.986,272.113H932.84a21.483,21.483,0,0,1-17.711,9.379A19.483,19.483,0,0,1,898.986,272.113Z" transform="translate(-891.112 -245.8)" fill="#002447"/>
                          <path id="Trazado_137999" data-name="Trazado 137999" d="M899.55,271.921l-1.2-3.751a27.285,27.285,0,0,1,16.477-7.66c10.037-.787,18.425,6.878,18.425,6.878l.15,4.533Z" transform="translate(-891.075 -245.608)" fill="#5038a1"/>
                        </g>
                        <path id="Trazado_138000" data-name="Trazado 138000" d="M922.244,262.8a18.788,18.788,0,0,1-.86-2.037c-.3-1.441.89-3.436.89-3.436l-1.438-1.6c-1.949,2.292-4.2-.217-4.2-.217s-2.251,2.508-4.2.217l-1.438,1.6s1.191,1.995.89,3.436a19.364,19.364,0,0,1-.861,2.037,6.112,6.112,0,0,0-.248,2.527,3.77,3.77,0,0,0,1.12,2.367,5.686,5.686,0,0,0,2.711,1.049,4.641,4.641,0,0,1,1.053.418,3.009,3.009,0,0,1,.547.365,1.8,1.8,0,0,1,.417.441h.023a1.735,1.735,0,0,1,.415-.441,3.025,3.025,0,0,1,.547-.365,4.653,4.653,0,0,1,1.053-.418,5.7,5.7,0,0,0,2.712-1.049,3.772,3.772,0,0,0,1.118-2.367A6.158,6.158,0,0,0,922.244,262.8Z" transform="translate(-891.788 -245.527)" fill="#fedc72"/>
                      </g>
                      <g id="Grupo_130735" data-name="Grupo 130735" transform="translate(2.553 19.25)">
                        <path id="Trazado_138001" data-name="Trazado 138001" d="M893.341,265.5a13.8,13.8,0,0,1,2.994,2.8,14.048,14.048,0,0,1,2.18,3.528,13.581,13.581,0,0,1-2.994-2.8A14.146,14.146,0,0,1,893.341,265.5Z" transform="translate(-893.341 -264.941)" fill="#004282"/>
                        <path id="Trazado_138002" data-name="Trazado 138002" d="M936.316,272.009a15.876,15.876,0,0,1,2.068-3.869,15.235,15.235,0,0,1,2.928-3.207,15.771,15.771,0,0,1-2.067,3.869A15.49,15.49,0,0,1,936.316,272.009Z" transform="translate(-895.811 -264.932)" fill="#004282"/>
                      </g>
                    </g>
                    <g id="Grupo_130737" data-name="Grupo 130737" transform="translate(8.84 34.492)">
                      <path id="Trazado_138003" data-name="Trazado 138003" d="M929.35,280.936a11.394,11.394,0,0,0-4.666-.433H908.617a11.381,11.381,0,0,0-4.667.433c-4.18,1.333-4.241,6.895-3.7,9.359a5.51,5.51,0,0,0,6.4,4.582,5.323,5.323,0,0,0,1.128-.353c4.564-1.632,6.895-7.228,6.895-7.228a6.423,6.423,0,0,0,.3-2.425,7.176,7.176,0,0,1,3.364-.051,6.386,6.386,0,0,0,.289,2.477s2.33,5.6,6.895,7.228a5.41,5.41,0,0,0,7.193-3.052,5.966,5.966,0,0,0,.339-1.177C933.595,287.831,933.532,282.269,929.35,280.936ZM919.1,282.868a3.3,3.3,0,0,0-.693,1.421,7.55,7.55,0,0,0-3.514.052,3.321,3.321,0,0,0-.7-1.475,7.073,7.073,0,0,0-3.11-1.831h11.133a7.069,7.069,0,0,0-3.114,1.833Z" transform="translate(-900.011 -280.429)" fill="#002447"/>
                      <path id="Trazado_138004" data-name="Trazado 138004" d="M900.505,286.894c-.151,0-.292-.012-.436-.023a12.529,12.529,0,0,0,.045,2.722h13.374a16.564,16.564,0,0,0,1.188-2.188s.068-.2.141-.51Z" transform="translate(-900.011 -280.535)" fill="#002447" opacity="0.5" style="isolation: isolate"/>
                      <path id="Trazado_138005" data-name="Trazado 138005" d="M919.611,286.894c.074.313.141.51.141.51a16.251,16.251,0,0,0,1.188,2.188h13.373a12.547,12.547,0,0,0,.047-2.7Z" transform="translate(-901.137 -280.535)" fill="#002447" opacity="0.5" style="isolation: isolate"/>
                    </g>
                  </g>
                </g>
                <g id="Grupo_130749" data-name="Grupo 130749" transform="translate(1.222 148.667)">
                  <g id="Grupo_130740" data-name="Grupo 130740" transform="translate(0 270.373)">
                    <path id="Trazado_138006" data-name="Trazado 138006" d="M879.158,695.189a14.035,14.035,0,0,0-.246-5.855c-.308-1.39-2.157-3.816-3.447-5.352.439-1.064,2.154-5.36,4.349-12.573h-18.4l-.826,12.406c-2.3,2.743-7.2,8.1-19.376,11.375Z" transform="translate(-837.139 -671.409)" fill="#e48855"/>
                    <path id="Trazado_138007" data-name="Trazado 138007" d="M877.385,683.483s1.393,4.623,1.885,6.073.738,9.323.738,9.323H868.286v-1.967l-1.64,1.711H836.891s.738-2.566,2.212-2.823,14.674-6.073,14.674-6.073,2.049-6.844,2.95-7.015,8.607,4.362,9.345,4.961,4.43,3.165,6.148,2.395,2.706-6.5,2.951-6.5S877.385,683.483,877.385,683.483Z" transform="translate(-836.891 -671.595)" fill="#0d5ca9"/>
                  </g>
                  <g id="Grupo_130741" data-name="Grupo 130741" transform="translate(107.219 270.372)">
                    <path id="Trazado_138008" data-name="Trazado 138008" d="M952.462,689.336a13.982,13.982,0,0,0-.244,5.853h37.947c-12.174-3.272-17.073-8.632-19.376-11.375l-.826-12.406h-18.4c2.194,7.213,3.91,11.507,4.349,12.573C954.62,685.521,952.771,687.947,952.462,689.336Z" transform="translate(-950.701 -671.408)" fill="#e48855"/>
                    <path id="Trazado_138009" data-name="Trazado 138009" d="M953.272,683.483s-1.394,4.623-1.885,6.073-.738,9.323-.738,9.323H962.37v-1.967l1.64,1.711h29.756s-.738-2.566-2.213-2.823-14.672-6.073-14.672-6.073-2.049-6.844-2.951-7.015-8.607,4.362-9.345,4.961-4.43,3.165-6.148,2.395-2.705-6.5-2.95-6.5S953.272,683.483,953.272,683.483Z" transform="translate(-950.649 -671.594)" fill="#0d5ca9"/>
                  </g>
                  <g id="Grupo_130748" data-name="Grupo 130748" transform="translate(19.922)">
                    <g id="Grupo_130746" data-name="Grupo 130746" transform="translate(0 24.189)">
                      <path id="Trazado_138010" data-name="Trazado 138010" d="M880.648,421.108l-22.62,257.648h23.608l32.952-207.863,30.985,206.84h24.587L947.045,421.618Z" transform="translate(-858.028 -421.108)" fill="#261a4d"/>
                      <g id="Grupo_130744" data-name="Grupo 130744" transform="translate(23.44 3.764)">
                        <g id="Grupo_130743" data-name="Grupo 130743" transform="translate(0 0.685)">
                          <g id="Grupo_130742" data-name="Grupo 130742">
                            <rect id="Rectángulo_41147" data-name="Rectángulo 41147" width="23.772" height="5.817" transform="translate(21.804)" fill="#fff3ce"/>
                            <path id="Trazado_138011" data-name="Trazado 138011" d="M941.69,431.448h9.345l-.738-5.817H941.69Z" transform="translate(-886.277 -425.631)" fill="#fff3ce"/>
                            <path id="Trazado_138012" data-name="Trazado 138012" d="M894.866,425.631h-11.23l-.738,5.817h11.97Z" transform="translate(-882.898 -425.631)" fill="#fff3ce"/>
                          </g>
                        </g>
                        <rect id="Rectángulo_41148" data-name="Rectángulo 41148" width="12.706" height="7.186" transform="translate(27.378)" fill="#fedc72"/>
                      </g>
                      <g id="Grupo_130745" data-name="Grupo 130745" transform="translate(3.483 10.627)">
                        <path id="Trazado_138013" data-name="Trazado 138013" d="M948.621,433.049l3.2,30.371,3.093,30.383,6.012,60.783L966.7,615.4l2.8,30.413,2.683,30.426-3.2-30.371-3.093-30.383-6.01-60.783L954.1,493.888l-2.8-30.414Z" transform="translate(-866.718 -431.932)" fill="#5038a1"/>
                        <path id="Trazado_138014" data-name="Trazado 138014" d="M888.132,431.913l-3.042,30.731-3.153,30.718-6.478,61.416-6.725,61.387-3.45,30.687-3.562,30.67,3.041-30.731,3.152-30.718,6.48-61.416,6.727-61.387,3.45-30.687Z" transform="translate(-861.723 -431.913)" fill="#5038a1"/>
                        <path id="Trazado_138015" data-name="Trazado 138015" d="M917.352,433.427c.094,1.412.148,2.825.218,4.237s.094,2.824.14,4.236c.094,2.825.139,5.648.16,8.472l-.152-.382,3.133,3.246-.909.393c.015-3.306.031-6.609.133-9.915.081-3.306.189-6.609.4-9.915.211,3.306.318,6.609.4,9.915.1,3.306.118,6.609.133,9.915a.543.543,0,0,1-.529.556h0a.531.531,0,0,1-.377-.163l-3.11-3.269h0a.54.54,0,0,1-.148-.378c.021-2.825.069-5.648.161-8.472.048-1.412.06-2.824.138-4.236S917.254,434.839,917.352,433.427Z" transform="translate(-864.891 -431.938)" fill="#5038a1"/>
                      </g>
                    </g>
                    <g id="Grupo_130747" data-name="Grupo 130747" transform="translate(3.507)">
                      <path id="Trazado_138016" data-name="Trazado 138016" d="M885.73,396.514h-2.074a3.29,3.29,0,0,0-3.219,3.359v19.179H864.864a3.178,3.178,0,0,0-3.115,3.241v0a3.185,3.185,0,0,0,3.115,3.251h15.574v58.62a3.291,3.291,0,0,0,3.219,3.359h2.074a3.291,3.291,0,0,0,3.219-3.359h0V399.875a3.291,3.291,0,0,0-3.217-3.361Z" transform="translate(-861.749 -396.514)" fill="#7057c1"/>
                      <path id="Trazado_138017" data-name="Trazado 138017" d="M880.435,425.554v4.334h8.514V399.875a3.291,3.291,0,0,0-3.219-3.359h-2.074a3.291,3.291,0,0,0-3.219,3.359v19.179H864.864a3.178,3.178,0,0,0-3.115,3.241v0a3.185,3.185,0,0,0,3.115,3.251Z" transform="translate(-861.749 -396.514)" fill="#332366"/>
                    </g>
                  </g>
                </g>
              </g>
              <g id="Grupo_130779" data-name="Grupo 130779" transform="translate(0 0.001)">
                <g id="Grupo_130759" data-name="Grupo 130759" transform="translate(0 148.933)">
                  <path id="Trazado_138018" data-name="Trazado 138018" d="M777.332,683.965l.082,4.79a15.8,15.8,0,0,0-3.033,12.318h6.475v-3.507l3.2,3.337h31.56s.819-2.48-.164-3.507-12.542-4.534-12.542-4.534l-6.886-8.9Z" transform="translate(-764.64 -401.509)" fill="#0d5ca9"/>
                  <path id="Trazado_138019" data-name="Trazado 138019" d="M844.647,683.965l.083,4.79a15.8,15.8,0,0,0-3.034,12.318h6.476v-3.507l3.2,3.337h31.556s.82-2.48-.163-3.507-12.542-4.534-12.542-4.534l-6.886-8.9Z" transform="translate(-768.509 -401.509)" fill="#0d5ca9"/>
                  <g id="Grupo_130758" data-name="Grupo 130758">
                    <g id="Grupo_130752" data-name="Grupo 130752" transform="translate(0 2.653)">
                      <path id="Trazado_138020" data-name="Trazado 138020" d="M784.7,399.824s-18.362,27.031-20.328,49.955,5.9,102.991,6.88,113.6c0,0-5.573,39.007-3.606,53.719s8.2,62.616,8.2,62.616H796.5L808.642,464.15l11.148,98.543s2.3,42.77,4.263,54.4,15.74,62.616,15.74,62.616h20L846.927,461.446a130.6,130.6,0,0,0-5.372-30.168l-9.633-31.8Z" transform="translate(-764.06 -399.482)" fill="#261a4d"/>
                      <g id="Grupo_130751" data-name="Grupo 130751" transform="translate(5.578 10.126)">
                        <path id="Trazado_138021" data-name="Trazado 138021" d="M824.2,409.777q.342,4.992.546,9.982c.161,3.325.268,6.651.347,9.977a.529.529,0,0,1-.072.278v.006l-2.742,4.665-2.808,4.623-2.812,4.623-2.878,4.578-.009.013a.325.325,0,0,1-.461.1.352.352,0,0,1-.151-.309c.08-1.583.156-3.164.27-4.745s.2-3.161.334-4.742c.044,1.585.05,3.17.066,4.754s.01,3.168,0,4.752l-.62-.2,2.676-4.709,2.742-4.667,2.746-4.664,2.813-4.623-.075.282c-.055-3.33-.08-6.662-.054-9.992Q824.046,414.771,824.2,409.777Z" transform="translate(-772.46 -409.777)" fill="#5038a1"/>
                        <path id="Trazado_138022" data-name="Trazado 138022" d="M787.053,416.593a100.454,100.454,0,0,0-11.1,15.1,47.279,47.279,0,0,0-4.053,8.487c-.261.74-.445,1.5-.672,2.255s-.3,1.538-.45,2.3c-.132.771-.1,1.574-.166,2.354s-.085,1.574-.07,2.369c0,12.7.65,25.409,1.225,38.107s1.225,25.4,1.9,38.1l2.109,38.087a.588.588,0,0,1,0,.082q-1.287,14.321-2.479,28.65c-.39,4.777-.763,9.556-1.083,14.331-.061,1.194-.156,2.385-.123,3.547.073,1.164.2,2.361.322,3.55l.786,7.143,6.754,57.108-3.839-28.492q-1.9-14.25-3.65-28.523l-.848-7.144c-.127-1.2-.271-2.378-.357-3.607-.047-1.234.04-2.439.094-3.639.266-4.8.65-9.576,1.019-14.36q1.131-14.342,2.4-28.667v.082q-1.159-19.042-2.106-38.094-.97-19.051-1.791-38.112c-.46-12.711-1-25.42-.89-38.162-.008-.795.037-1.6.094-2.4a23.924,23.924,0,0,1,.2-2.395c.171-.787.265-1.592.5-2.361s.443-1.539.719-2.286a47.609,47.609,0,0,1,4.2-8.478A100.468,100.468,0,0,1,787.053,416.593Z" transform="translate(-769.978 -409.889)" fill="#5038a1"/>
                        <path id="Trazado_138023" data-name="Trazado 138023" d="M811.8,465.721l3.913,24.294,3.825,24.31c2.57,16.2,5,32.432,7.493,48.647l.006.054,1.728,29.6c.306,4.932.628,9.864.993,14.791q.269,3.7.6,7.381c.112,1.229.223,2.459.377,3.673.065.613.14,1.221.246,1.8a16.225,16.225,0,0,0,.371,1.787l6.88,28.784L845,679.67,837.7,651l-7.191-28.7a24.122,24.122,0,0,1-.664-3.693c-.156-1.234-.273-2.467-.391-3.7-.233-2.465-.436-4.93-.626-7.4-.384-4.932-.724-9.865-1.049-14.8-.648-9.869-1.253-19.738-1.759-29.615l.006.053c-2.405-16.229-4.891-32.448-7.227-48.692l-3.535-24.359Z" transform="translate(-772.382 -410.697)" fill="#5038a1"/>
                        <path id="Trazado_138024" data-name="Trazado 138024" d="M844.758,567.631a2.731,2.731,0,0,1,.419-1.7,2.522,2.522,0,0,1,1.32-1.095,2.7,2.7,0,0,1-.417,1.7A2.551,2.551,0,0,1,844.758,567.631Z" transform="translate(-774.276 -412.328)" fill="#5038a1"/>
                        <path id="Trazado_138025" data-name="Trazado 138025" d="M791.857,566.823a7.187,7.187,0,0,1,1.589-2.459,6.818,6.818,0,0,1,2.348-1.672,7.082,7.082,0,0,1-1.589,2.459A6.837,6.837,0,0,1,791.857,566.823Z" transform="translate(-771.236 -412.292)" fill="#5038a1"/>
                      </g>
                    </g>
                    <g id="Grupo_130757" data-name="Grupo 130757" transform="translate(17.641)">
                      <g id="Grupo_130753" data-name="Grupo 130753" transform="translate(0.092 4.193)">
                        <path id="Trazado_138026" data-name="Trazado 138026" d="M834.517,407.87H782.875l1.721-5.518h48.2Z" transform="translate(-782.875 -401.069)" fill="#fff3ce"/>
                        <rect id="Rectángulo_41149" data-name="Rectángulo 41149" width="16.108" height="7.442" transform="translate(31.969)" fill="#fedc72"/>
                      </g>
                      <g id="Grupo_130756" data-name="Grupo 130756">
                        <g id="Grupo_130754" data-name="Grupo 130754">
                          <rect id="Rectángulo_41150" data-name="Rectángulo 41150" width="16.937" height="16.274" transform="translate(1.338 2.803)" fill="#8c6df2"/>
                          <path id="Trazado_138027" data-name="Trazado 138027" d="M800.95,402.713h1.037v-5.928H782.777v7.22h15.9v-3.664h2.272Z" transform="translate(-782.777 -396.785)" fill="#5038a1"/>
                        </g>
                        <g id="Grupo_130755" data-name="Grupo 130755" transform="translate(15.388 0.771)">
                          <path id="Trazado_138029" data-name="Trazado 138029" d="M799.7,399.941a7.113,7.113,0,0,1-.586-1.778.406.406,0,0,1,.291-.487l.037-.007.124-.018a9.725,9.725,0,0,1,2.409-.016l.108.012a.427.427,0,0,1,.365.473l-.006.038a7.131,7.131,0,0,1-.6,1.921,7.145,7.145,0,0,1-.334-1.989l.471.522a9.68,9.68,0,0,1-2.409-.014l.452-.51A7.174,7.174,0,0,1,799.7,399.941Z" transform="translate(-799.103 -397.569)" fill="#a3caf0"/>
                        </g>
                      </g>
                    </g>
                  </g>
                </g>
                <g id="Grupo_130770" data-name="Grupo 130770" transform="translate(3.628 51.14)">
                  <g id="Grupo_130765" data-name="Grupo 130765">
                    <g id="Grupo_130760" data-name="Grupo 130760" transform="translate(10.182)">
                      <path id="Trazado_138030" data-name="Trazado 138030" d="M838.471,333.292a10.665,10.665,0,0,0-7.792-7.165,91.643,91.643,0,0,0-12.419-1.8V297.357H799.943V324.4a91.054,91.054,0,0,0-11.478,1.726,10.662,10.662,0,0,0-7.792,7.165c-4.909,14.978.942,30.373.942,30.373l8.527,31.034H829l8.527-31.034S843.379,348.27,838.471,333.292Z" transform="translate(-778.712 -297.357)" fill="#bf6741"/>
                      <path id="Trazado_138031" data-name="Trazado 138031" d="M819.556,315.5v3.576a13.971,13.971,0,0,1-5.367-.869,18.789,18.789,0,0,1-7.083-4.774c-2.415-2.493-4.363-6.461-5.868-10.792v-2.557c1.454,3.94,3.283,7.5,5.511,9.8a18.808,18.808,0,0,0,7.083,4.774A13.65,13.65,0,0,0,819.556,315.5Z" transform="translate(-780.007 -297.402)" fill="#b34a32"/>
                    </g>
                    <g id="Grupo_130764" data-name="Grupo 130764" transform="translate(0 26.278)">
                      <path id="Trazado_138032" data-name="Trazado 138032" d="M842.141,330.154a9.164,9.164,0,0,0-2.684-1.8,26.739,26.739,0,0,0-3.945-1.684.071.071,0,0,1-.009-.03l-3.09-.451-2.872-.411-11.744-1.7-2.459,23.866-16.476-23.866a64.109,64.109,0,0,0-19.175,4.753,35.689,35.689,0,0,0-5.578,2.352c-3.77,2.224-6.88,26.344-6.071,31.986q.8,5.355,2.131,10.6l.754-.123,8.413-1.333c2.227,13.813,4.53,27.721,4.53,27.721h49.183s2.1-11.66,4.062-24.378c.816-5.276,1.623-10.737,2.242-15.624l16.2-1.714,1.024-.113S845.26,333.4,842.141,330.154Z" transform="translate(-767.909 -324.074)" fill="#5038a1"/>
                      <g id="Grupo_130763" data-name="Grupo 130763" transform="translate(3.124)">
                        <path id="Trazado_138033" data-name="Trazado 138033" d="M816.73,347.944l-8.607-5.132-7.213,4.276s-8.849-17.277-8.685-21.9l8.032-1.111Z" transform="translate(-772.431 -324.074)" fill="#8c6df2"/>
                        <path id="Trazado_138034" data-name="Trazado 138034" d="M818.229,347.944l4.017-5.988,3.443,4.106,3.136-20.808-8.136-1.18Z" transform="translate(-773.926 -324.074)" fill="#8c6df2"/>
                        <g id="Grupo_130761" data-name="Grupo 130761" transform="translate(0 1.178)">
                          <path id="Trazado_138035" data-name="Trazado 138035" d="M790.525,325.552s-15.74,3.593-17.706,5.988-1.721,16-1.312,16.509a9.874,9.874,0,0,0,2.132,2.054c.574.257,2.545-1.8,2.705-2.054s1.066-14.285,1.066-14.285Z" transform="translate(-771.224 -325.277)" fill="#002447"/>
                          <path id="Trazado_138036" data-name="Trazado 138036" d="M845.351,327.69c4.016,2.737,8.2,11.548,8.566,12.831s-.983,2.823-.983,2.823-5.165-10.557-7.257-13.17-16.23-4.9-16.23-4.9" transform="translate(-774.57 -325.272)" fill="#002447"/>
                        </g>
                        <path id="Trazado_138037" data-name="Trazado 138037" d="M837.392,358.336a17.3,17.3,0,0,1-.8-1.884,5.585,5.585,0,0,1,.823-3.179l-1.331-1.475c-1.8,2.119-3.887-.2-3.887-.2s-2.083,2.321-3.887.2l-1.33,1.475a5.607,5.607,0,0,1,.824,3.179,17.95,17.95,0,0,1-.8,1.884,5.654,5.654,0,0,0-.228,2.338,3.483,3.483,0,0,0,1.037,2.189,5.242,5.242,0,0,0,2.508.971,4.34,4.34,0,0,1,.974.387,2.929,2.929,0,0,1,.506.338,1.636,1.636,0,0,1,.385.408h.022a1.616,1.616,0,0,1,.384-.408,2.858,2.858,0,0,1,.506-.338,4.306,4.306,0,0,1,.974-.387,5.245,5.245,0,0,0,2.508-.971,3.493,3.493,0,0,0,1.037-2.189A5.686,5.686,0,0,0,837.392,358.336Z" transform="translate(-774.415 -324.527)" fill="#fedc72"/>
                        <path id="Trazado_138038" data-name="Trazado 138038" d="M808.7,362.581l-5.41,2.245-5.41-2.245v-2.823H808.7Z" transform="translate(-772.756 -324.661)" fill="#002447"/>
                      </g>
                    </g>
                  </g>
                  <g id="Grupo_130769" data-name="Grupo 130769" transform="translate(3.015 60.526)">
                    <g id="Grupo_130767" data-name="Grupo 130767">
                      <path id="Trazado_138042" data-name="Trazado 138042" d="M858.05,391.106c.269-.471.453-3.349.565-6.951a99.482,99.482,0,0,0-.048-16.039,4.285,4.285,0,0,0-.087-.659c-.047-.336-.094-.664-.154-.977a41.542,41.542,0,0,0-2.586-7.586l-16.2,1.714c-.189,1.475-.4,3.02-.614,4.584-3.214.161-6.67.906-8.322,2.246-2.514,2.032-27.835,7.43-27.887,7.441-.019-.019-7.815-7.216-9.839-7.78s-11.962-1.466-12.253-.9.964,2.819,2.026,2.933,5.113,1.24,5.113,1.24-5.635,1.574-7.774,2.444l-8.881,1.406a122.5,122.5,0,0,0,6.948,23.339c.754,2.179,1.338,3.63,1.6,3.709,1.156.335,20.83,1.016,28.458-2.816,2.468-1.24,6.923-4.472,11.843-8.284,7.212,1.266,23.149,4.023,25.725,4.11,3.346.112,11.583-1.916,12.359-3.157h.006Z" transform="translate(-771.108 -358.895)" fill="#bf6741"/>
                      <g id="Grupo_130766" data-name="Grupo 130766" transform="translate(8.252 13.455)">
                        <path id="Trazado_138043" data-name="Trazado 138043" d="M802.742,375.1c-1.245.7-2.518,1.333-3.77,2L795.15,379c-2.549,1.253-5.13,2.435-7.716,3.6a.511.511,0,0,1-.339.029l-3.74-1.008h-.012a.52.52,0,0,1-.355-.63.53.53,0,0,1,.051-.13l1.383-2.487.411.7c-.588,0-1.168-.017-1.752-.046a11.792,11.792,0,0,1-1.782-.2,1.082,1.082,0,0,1-.573-.273.945.945,0,0,1-.148-.65,6.042,6.042,0,0,1,.133-.938c.132-.6.294-1.18.471-1.763l.029.147c-.457-.68-.91-1.363-1.346-2.059.545.608,1.074,1.229,1.6,1.852a.158.158,0,0,1,.033.126v.021c-.108.59-.2,1.18-.265,1.77a6.5,6.5,0,0,0-.058.855c.058.361-.086.129.252.245a11.262,11.262,0,0,0,1.669.053c.566-.013,1.144-.042,1.709-.083a.451.451,0,0,1,.471.43.5.5,0,0,1-.05.248l-.011.022-1.294,2.54-.317-.763,3.754.946-.339.03c2.587-1.163,5.184-2.307,7.807-3.381l3.941-1.6C800.085,376.1,801.4,375.563,802.742,375.1Z" transform="translate(-779.863 -372.587)" fill="#b34a32"/>
                        <path id="Trazado_138044" data-name="Trazado 138044" d="M789.985,372.575a16.553,16.553,0,0,1-4.131,1.859,16.1,16.1,0,0,1-4.43.787,18.224,18.224,0,0,1,8.561-2.646Z" transform="translate(-779.953 -372.575)" fill="#b34a32"/>
                        <path id="Trazado_138045" data-name="Trazado 138045" d="M785.111,378.63a9.693,9.693,0,0,1,2.777-2.037,9.285,9.285,0,0,1,3.246-1.035,9.607,9.607,0,0,1-2.776,2.038A9.411,9.411,0,0,1,785.111,378.63Z" transform="translate(-780.165 -372.624)" fill="#b34a32"/>
                      </g>
                    </g>
                    <g id="Grupo_130768" data-name="Grupo 130768" transform="translate(8.994 5.624)">
                      <path id="Trazado_138046" data-name="Trazado 138046" d="M823.306,390.146q2.661-2.5,5.409-4.889,2.733-2.412,5.517-4.748c1.863-1.55,3.727-3.1,5.616-4.617s3.77-3.035,5.7-4.5l.022-.017a.326.326,0,0,1,.182-.069c1.432-.088,2.862-.2,4.3-.267h.024a.224.224,0,0,1,.22.149c.507,1.384,1.037,2.754,1.518,4.153-.68-1.3-1.307-2.63-1.961-3.947l.243.148c-1.421.208-2.845.38-4.268.571l.2-.085c-1.819,1.606-3.676,3.166-5.539,4.721s-3.744,3.078-5.627,4.6-3.8,3.006-5.726,4.47Q826.271,388.046,823.306,390.146Z" transform="translate(-783.103 -364.719)" fill="#b34a32"/>
                      <path id="Trazado_138047" data-name="Trazado 138047" d="M855.355,372.445c-.724-.09-1.43-.249-2.145-.371-.709-.148-1.414-.3-2.117-.473a.4.4,0,0,1-.3-.4v-.048c.029-1.143.058-2.3.065-3.424,0-.28-.006-.562-.024-.829-.006-.138-.021-.264-.036-.381.007-.1-.086-.252.026-.108,0,.029.05.054.021.037l-.165-.052c-.106-.038-.249-.066-.371-.1l-.791-.176-3.238-.688c-1.082-.243-2.162-.506-3.24-.811a38.906,38.906,0,0,1,6.658.451c.278.043.553.1.836.159.146.036.276.056.435.106l.232.07a1.31,1.31,0,0,1,.387.232,1.4,1.4,0,0,1,.268.711,4.534,4.534,0,0,1,.04.481c.013.309.011.6.007.9a30.861,30.861,0,0,1-.288,3.49l-.3-.45c.682.245,1.357.511,2.032.787C854.021,371.855,854.7,372.116,855.355,372.445Z" transform="translate(-784.237 -364.613)" fill="#b34a32"/>
                      <path id="Trazado_138048" data-name="Trazado 138048" d="M780.651,393.653a5.011,5.011,0,0,1,1.97.992,5.171,5.171,0,0,1,1.448,1.71,3.522,3.522,0,0,1-2.094-.82A3.794,3.794,0,0,1,780.651,393.653Z" transform="translate(-780.651 -365.091)" fill="#b34a32"/>
                    </g>
                    <path id="Trazado_138049" data-name="Trazado 138049" d="M856.746,388.915a17.174,17.174,0,0,1,1.089-2.217,16.179,16.179,0,0,1,1.333-2.065,3.544,3.544,0,0,1-.411,2.634A3.319,3.319,0,0,1,856.746,388.915Z" transform="translate(-776.03 -359.318)" fill="#b34a32"/>
                  </g>
                </g>
                <g id="Grupo_130778" data-name="Grupo 130778" transform="translate(17.098)">
                  <g id="Grupo_130773" data-name="Grupo 130773" transform="translate(0 14.656)">
                    <g id="Grupo_130771" data-name="Grupo 130771" transform="translate(8.112 4.439)">
                      <path id="Trazado_138050" data-name="Trazado 138050" d="M831.754,269.984c-1.641-3.38-10.486-6.424-19.184-4.721-8.709,1.642-15.919,7.781-16.306,11.552a42.046,42.046,0,0,0,.78,8.73,7.548,7.548,0,0,0-3.582-.564c-5.683.258-1.681,20.958,6.649,13.043,1.532,4.524,3.528,8.7,6.032,11.28a18.824,18.824,0,0,0,7.083,4.773,12.461,12.461,0,0,0,7.22.612l1.659-.319a13.433,13.433,0,0,0,7.781-4.472,20.826,20.826,0,0,0,3.743-5.883,25.777,25.777,0,0,0,1.717-8.571C835.922,285.359,833.157,272.885,831.754,269.984Z" transform="translate(-790.807 -264.776)" fill="#bf6741"/>
                    </g>
                    <g id="Grupo_130772" data-name="Grupo 130772">
                      <path id="Trazado_138051" data-name="Trazado 138051" d="M842.215,290.824c.069-2.905-1.81-5.41-3.029-8.016-2.222-4.762-2.352-10.345-4.456-15.168a8.953,8.953,0,0,0-2.537-3.581,9.584,9.584,0,0,0-3.915-1.529c-3.827-.8-8.8-3-12.535-2.022-3.61.954-6.679,4.063-10.328,5.305-2.606.893-4.545,2.678-7.23,3.12-4.142.7-2.381,4.513-2.686,8.875-.226,3.088-7.013,6.355-8.725,8.879s-3.582,5.07-4.308,8.065.02,6.65,2.557,8.241c1.082.678,2.39.943,3.315,1.836,1.73,1.672,1.319,4.68,2.517,6.8,1.27,2.217,3.965,2.946,6.376,3.531a16.816,16.816,0,0,1,2.911.913V299.434c-.078-.2-.157-.421-.227-.635-.107-.277-.206-.565-.295-.842-8.331,7.913-12.335-12.786-6.65-13.044a8.149,8.149,0,0,1,3.081.373,24.169,24.169,0,0,0,6.743,7.04c-.819-1.625.164-4.533.164-4.533a31.989,31.989,0,0,0,4.672-8.723l1.721-4.618s18.958,3.423,24.275,4.538a74.079,74.079,0,0,1,1.225,16.381,25.818,25.818,0,0,1-1.715,8.579,20.8,20.8,0,0,1-3.737,5.881,13.433,13.433,0,0,1-7.781,4.464l-1.663.329a7.878,7.878,0,0,1-1.495.236v4.249a28.2,28.2,0,0,1,3.462-.37c1.652-.051,3.393.092,4.869-.678a16.641,16.641,0,0,0,2.763-2.243c1.682-1.406,3.747-2.185,5.618-3.3s3.649-2.76,4.072-4.966c.414-2.145-.56-4.341-.442-6.538C839.008,297.381,842.125,294.446,842.215,290.824Z" transform="translate(-782.2 -260.262)" fill="#261a4d"/>
                      <path id="Trazado_138052" data-name="Trazado 138052" d="M796.781,277.8a51.423,51.423,0,0,1,5.96,1.583,47.085,47.085,0,0,0,5.15,1.325c.371-.908.574-1.5.574-1.5l1.721-4.618s18.958,3.423,24.274,4.538c.133.736.257,1.5.377,2.286a34.022,34.022,0,0,1,4.807.656,54.3,54.3,0,0,1-2.3-8.5c-3.467-.863-6.9-1.954-10.346-2.714-6.189-1.365-13.118-2.777-19.38-1.1a21.467,21.467,0,0,0-7.564,3.975,20.278,20.278,0,0,0-1.791,1.492c-1.3,1.269-1.274,2.419-1.563.88A6.4,6.4,0,0,1,796.781,277.8Z" transform="translate(-783.033 -260.406)" fill="#4d2a40" opacity="0.5" style="isolation: isolate"/>
                    </g>
                  </g>
                  <g id="Grupo_130777" data-name="Grupo 130777" transform="translate(6.245)">
                    <g id="Grupo_130775" data-name="Grupo 130775">
                      <g id="Grupo_130774" data-name="Grupo 130774">
                        <path id="Trazado_138053" data-name="Trazado 138053" d="M793.982,273.882l-4.7-2.627a.936.936,0,0,1-.353-1.241.9.9,0,0,1,.295-.332c2.662-1.8,8.558-6.364,8.866-11.484a.874.874,0,0,1,.776-.823c3.068-.333,14.412-2.177,17.947-11.436a.85.85,0,0,1,1.421-.313c2.523,2.643,9.567,9.21,16.273,8.065a.886.886,0,0,1,1.025.656,18.359,18.359,0,0,1-.241,10.181Z" transform="translate(-788.826 -245.361)" fill="#002447"/>
                        <path id="Trazado_138054" data-name="Trazado 138054" d="M802.62,275.357s25.385,2.382,29.929,1.636,11.152-.58,11.572-3.147-7.849-4.131-7.849-4.131L814.263,271Z" transform="translate(-789.619 -245.762)" fill="#002447"/>
                        <path id="Trazado_138055" data-name="Trazado 138055" d="M793.794,274.069l2.255,3.56s32.5-7.211,39.774-7.857l-.241-4.932s-17.212-.674-26.95,2.533S793.794,274.069,793.794,274.069Z" transform="translate(-789.112 -245.681)" fill="#5038a1"/>
                      </g>
                      <path id="Trazado_138056" data-name="Trazado 138056" d="M833.194,263.513a16.971,16.971,0,0,1-.932-1.8,5.616,5.616,0,0,1,.575-3.218l-1.432-1.354c-1.626,2.249-3.864.122-3.864.122s-1.885,2.473-3.837.521l-1.206,1.574a5.546,5.546,0,0,1,1.057,3.081,18.152,18.152,0,0,1-.646,1.934,5.637,5.637,0,0,0-.049,2.336,3.446,3.446,0,0,0,1.192,2.085,5.2,5.2,0,0,0,2.559.754,4.24,4.24,0,0,1,1,.3,2.861,2.861,0,0,1,.527.3,1.643,1.643,0,0,1,.413.372h.022a1.6,1.6,0,0,1,.349-.437,2.9,2.9,0,0,1,.471-.378,4.357,4.357,0,0,1,.936-.463,5.266,5.266,0,0,0,2.412-1.169,3.5,3.5,0,0,0,.859-2.256A5.657,5.657,0,0,0,833.194,263.513Z" transform="translate(-790.762 -245.555)" fill="#fedc72"/>
                    </g>
                  </g>
                </g>
              </g>
            </g>
            <g id="Grupo_130837" data-name="Grupo 130837" transform="translate(0)">
              <g id="Grupo_132131" data-name="Grupo 132131">
                <g id="Grupo_132130" data-name="Grupo 132130" clip-path="url(#clip-path-2)">
                  <g id="Grupo_130719" data-name="Grupo 130719" transform="translate(7.311 138.901)">
                    <g id="Grupo_130718" data-name="Grupo 130718">
                      <path id="Trazado_138125" data-name="Trazado 138125" d="M742.52,426.449a158.5,158.5,0,0,1,18.332-10.057,112.558,112.558,0,0,1,19.5-6.948,79.39,79.39,0,0,1,20.7-2.534,55.842,55.842,0,0,1,10.706,1.214c.893.213,1.793.405,2.683.675.446.129.894.249,1.34.389l1.336.45c.9.3,1.747.633,2.622.954.857.358,1.729.7,2.574,1.094a75.708,75.708,0,0,1,18.6,12.523c5.592,4.933,10.616,10.3,15.456,15.437,2.416,2.577,4.8,5.1,7.163,7.488,1.183,1.206,2.365,2.359,3.544,3.5.593.554,1.183,1.121,1.77,1.656l1.829,1.667c5.1,4.627,10.114,9.029,15.179,12.9,2.537,1.935,5.07,3.739,7.6,5.358q1.9,1.216,3.8,2.288c1.263.711,2.533,1.355,3.788,1.952a36.306,36.306,0,0,0,14.216,3.831,23.79,23.79,0,0,0,3.151-.12c.51-.05,1.011-.127,1.508-.213l.735-.141c.225-.057.448-.1.671-.167a19.561,19.561,0,0,0,5.115-2.182c.4-.246.8-.5,1.183-.775l1.485-1.011c.512-.346.991-.732,1.486-1.085.483-.369.94-.763,1.412-1.131a36.67,36.67,0,0,0,4.877-4.941A35.033,35.033,0,0,0,940.59,463a37.349,37.349,0,0,0,2.664-6.137,56.008,56.008,0,0,0,2.671-14.21,84.819,84.819,0,0,0-.594-16.135q-.522-4.155-1.424-8.233c-.3-1.35-.622-2.673-.971-3.937-.173-.626-.356-1.238-.537-1.8-.091-.278-.183-.55-.27-.775-.038-.1-.079-.2-.125-.3-.018-.029-.039-.085-.052-.082l-.011,0s-.01-.021-.007.026l.021.191c-3.53-17.126,6.009-34.213,21.307-38.164s30.559,6.729,34.089,23.854h0l.088.531.051.36.075.6.116,1.067c.069.685.125,1.326.174,1.962.1,1.268.171,2.488.235,3.7.12,2.408.181,4.764.191,7.109.023,4.685-.162,9.326-.518,13.984a146.7,146.7,0,0,1-4.812,28,105.969,105.969,0,0,1-11.563,27.142,86.373,86.373,0,0,1-8.82,11.976,75.579,75.579,0,0,1-10.559,9.906A73.389,73.389,0,0,1,950.374,511c-1,.485-1.992.984-3,1.437-1,.433-2,.891-3.007,1.288l-1.5.581c-.512.2-.968.376-1.577.594-1.148.421-2.312.794-3.481,1.132a51.194,51.194,0,0,1-14.336,2.049c-.6,0-1.2-.017-1.81-.035-.588-.029-1.167-.061-1.747-.1-1.16-.093-2.315-.21-3.458-.376a54.717,54.717,0,0,1-6.714-1.385,61.153,61.153,0,0,1-12.266-4.884,77.3,77.3,0,0,1-10.572-6.749,124.749,124.749,0,0,1-17.22-16.053c-5.1-5.641-9.7-11.457-14.1-17.167l-1.715-2.235c-.589-.767-1.147-1.538-1.717-2.305-1.114-1.537-2.21-3.075-3.259-4.608-2.115-3.067-4.11-6.112-6.088-9.083-3.948-5.948-7.756-11.671-11.887-16.822a65.556,65.556,0,0,0-13.648-13.209c-.629-.448-1.279-.845-1.922-1.269l-.986-.585-.494-.294c-.161-.093-.331-.172-.5-.259l-1-.512c-.336-.164-.68-.312-1.021-.47-.678-.327-1.386-.587-2.087-.873-.707-.27-1.427-.513-2.148-.758-.733-.209-1.455-.466-2.2-.641l-1.116-.289c-.374-.094-.752-.165-1.129-.249-.753-.17-1.517-.3-2.281-.423-.762-.144-1.538-.214-2.311-.324-.773-.094-1.553-.152-2.332-.227-.782-.032-1.566-.082-2.351-.1-.787,0-1.571-.036-2.362-.014-1.579.015-3.161.1-4.744.258-.792.073-1.584.147-2.375.258l-1.187.155-1.184.2a74.166,74.166,0,0,0-18.528,5.7,77.247,77.247,0,0,0-16.879,10.425,3.138,3.138,0,0,1-4.7-.821,4.066,4.066,0,0,1,.733-5.262,3.235,3.235,0,0,1,.32-.232Z" transform="translate(-740.789 -372.621)" fill="#fdb74d"/>
                    </g>
                  </g>
                </g>
              </g>
            </g>
          </g>
        </g>
      </g>
    </g>
    <g id="Grupo_132126" data-name="Grupo 132126" transform="translate(831.207 752)">
      <rect id="Rectángulo_41173" data-name="Rectángulo 41173" width="250" height="46" rx="5" fill="#8c6df2"/>
    </g>
  </g>
</svg>
