<svg xmlns="http://www.w3.org/2000/svg" xmlns:xlink="http://www.w3.org/1999/xlink" width="304.072" height="281.481" viewBox="0 0 304.072 281.481">
  <defs>
    <clipPath id="clip-path">
      <rect id="Rectángulo_44120" data-name="Rectángulo 44120" width="293" height="239.183" fill="none"/>
    </clipPath>
  </defs>
  <g id="Grupo_132220" data-name="Grupo 132220" transform="translate(-1116.207 -516.519)">
    <g id="Grupo_132120" data-name="Grupo 132120" transform="translate(1116.207 516.519)">
      <g id="Grupo_132135" data-name="Grupo 132135" transform="translate(0 0.001)">
        <rect id="Rectángulo_44119" data-name="Rectángulo 44119" width="304" height="33.139" transform="translate(0.072 0)" fill="#fff"/>
        <g id="Image_Place_Holder" data-name="Image Place Holder" transform="translate(0 32.838)" opacity="0.1">
          <rect id="Image_Place_Holder-2" data-name="Image Place Holder-2" width="303.554" height="206.345" fill="#fdb74d"/>
        </g>
      </g>
      <g id="Grupo_130838" data-name="Grupo 130838" transform="translate(6.038 0)">
        <g id="Grupo_132137" data-name="Grupo 132137" transform="translate(0 0)">
          <g id="Grupo_132136" data-name="Grupo 132136" clip-path="url(#clip-path)">
            <g id="Grupo_130781" data-name="Grupo 130781" transform="translate(9.038 10.543)">
              <path id="Trazado_138127" data-name="Trazado 138127" d="M1321.387,471a185.978,185.978,0,0,1-23.093-4.564,137.768,137.768,0,0,1-22.24-8.024A101.293,101.293,0,0,1,1255.44,445.8a72.57,72.57,0,0,1-9.1-8.657c-.69-.817-1.4-1.618-2.051-2.483-.33-.427-.668-.848-.991-1.284l-.949-1.331c-.642-.889-1.215-1.78-1.825-2.677-.567-.914-1.156-1.823-1.687-2.755a92.5,92.5,0,0,1-9.352-23.829c-2.091-8.149-3.393-16.259-4.659-24.05-.625-3.9-1.258-7.724-1.957-11.435-.342-1.86-.715-3.677-1.095-5.478-.2-.889-.391-1.786-.6-2.66l-.653-2.71c-1.825-7.542-3.713-14.832-5.974-21.713-1.128-3.437-2.341-6.768-3.671-9.945q-1-2.38-2.076-4.638c-.721-1.5-1.489-2.945-2.276-4.339a46.82,46.82,0,0,0-10.7-13.37,30.539,30.539,0,0,0-2.973-2.144c-.5-.322-1.009-.613-1.515-.9l-.761-.406c-.241-.112-.475-.232-.72-.337a23.52,23.52,0,0,0-6.056-1.8c-.522-.078-1.044-.147-1.569-.188l-1.991-.2c-.687-.071-1.363-.088-2.038-.141-.673-.033-1.337-.028-2-.051a39.16,39.16,0,0,0-7.546.7,35.245,35.245,0,0,0-6.833,2.021,35.964,35.964,0,0,0-6.25,3.284,52.631,52.631,0,0,0-11.265,10.1,80.387,80.387,0,0,0-9.447,14.052,87.583,87.583,0,0,0-3.787,7.968c-.561,1.348-1.082,2.7-1.544,4.011-.227.656-.438,1.3-.618,1.9-.089.3-.172.595-.23.846a3.242,3.242,0,0,0-.071.339c0,.038-.016.1,0,.106l.008.011s0,.025.022-.017l.1-.176c-7.307,17-26.639,24.7-43.18,17.187s-24.026-27.383-16.719-44.387l.081-.187.248-.511.177-.341.3-.558.554-.984c.358-.632.707-1.208,1.055-1.78.693-1.141,1.386-2.225,2.071-3.29,1.381-2.119,2.785-4.149,4.225-6.141,2.878-3.976,5.923-7.76,9.13-11.442a137.735,137.735,0,0,1,21.772-20.213,102.226,102.226,0,0,1,27.441-14.685,88.06,88.06,0,0,1,15.529-3.831,81.53,81.53,0,0,1,15.845-.845,84.224,84.224,0,0,1,15.271,2.064c1.221.305,2.444.588,3.644.919,1.192.347,2.393.673,3.562,1.054l1.747.58c.592.2,1.126.376,1.819.622,1.317.463,2.618.976,3.9,1.525a65.1,65.1,0,0,1,14.453,8.487c.558.427,1.1.876,1.643,1.32.523.443,1.036.883,1.544,1.331,1.01.9,2,1.826,2.95,2.786a70.919,70.919,0,0,1,5.314,5.953,77.773,77.773,0,0,1,8.259,12.866,94.986,94.986,0,0,1,5.546,13.235,146,146,0,0,1,5.9,25.828c1.2,8.4,1.829,16.589,2.339,24.543l.192,3.107c.066,1.066.1,2.113.154,3.17.073,2.093.128,4.172.146,6.217.049,4.1,0,8.092-.023,12.009-.051,7.836-.091,15.384.522,22.676a76.288,76.288,0,0,0,4.374,20.884c.3.825.654,1.624.983,2.44l.544,1.2.271.6c.093.2.2.381.3.573l.6,1.143c.207.378.433.748.648,1.123.419.761.912,1.482,1.378,2.224.484.733.993,1.449,1.508,2.171.544.7,1.05,1.43,1.629,2.111l.851,1.035c.285.345.589.676.884,1.016.587.679,1.211,1.33,1.837,1.982s1.282,1.277,1.923,1.919,1.335,1.236,2.006,1.854c.7.585,1.388,1.184,2.1,1.761.719.558,1.424,1.152,2.165,1.695,1.462,1.112,2.971,2.161,4.523,3.163.773.5,1.549,1,2.343,1.473l1.189.716,1.212.676a91.564,91.564,0,0,0,20.569,8.388,89.025,89.025,0,0,0,21.981,3.221,3.984,3.984,0,0,1-.131,7.964,3.6,3.6,0,0,1-.423-.031Z" transform="translate(-1066.038 -249.335)" fill="#fdb74d"/>
              <g id="Grupo_130952" data-name="Grupo 130952" transform="translate(31.298 0.773)">
                <g id="Grupo_130925" data-name="Grupo 130925" transform="translate(103.678 7.917)">
                  <g id="Grupo_130900" data-name="Grupo 130900" transform="translate(1.611 180.885)">
                    <path id="Trazado_138272" data-name="Trazado 138272" d="M1205.5,441.935s-3.6,12.993-2.747,16.241,4.642,9.309,6.327,9.094,0-20.785,0-20.785Z" transform="translate(-1202.624 -441.935)" fill="#ffb27d"/>
                  </g>
                  <g id="Grupo_130901" data-name="Grupo 130901">
                    <path id="Trazado_138273" data-name="Trazado 138273" d="M1254.971,260.21c-6.773-3.613-12.2-1.343-12.2-1.343-20.729-2.5-26.776,22.343-26.495,30.9s1.231,17.734-8.027,28.84c-26.74,32.088,29.262,33.5,29.262,33.5.474-25.637,30.37-16.282,29.059-13.682C1304.89,347.882,1270.378,268.427,1254.971,260.21Z" transform="translate(-1201.013 -258.164)" fill="#12263f"/>
                  </g>
                  <g id="Grupo_130902" data-name="Grupo 130902" transform="translate(1.741 61.123)">
                    <path id="Trazado_138274" data-name="Trazado 138274" d="M1202.766,443.923s.316,1.559,3.462,2.345a21.085,21.085,0,0,0,6.415.363c.619-.045,1.284-.1,1.984-.188,1.334-.15,2.813-.377,4.455-.694l-1.156-70.483,4.828-55s-10.307,5.008-15.362,21.246c-3.879,12.471-4.531,66.183-4.625,90.443C1202.738,439.285,1202.766,443.923,1202.766,443.923Z" transform="translate(-1202.754 -320.262)" fill="#d7ccfb"/>
                  </g>
                  <g id="Grupo_130903" data-name="Grupo 130903" transform="translate(1.741 134.985)" opacity="0.3">
                    <path id="Trazado_138275" data-name="Trazado 138275" d="M1202.766,445.105s.316,1.558,3.462,2.345a21.086,21.086,0,0,0,6.415.363l-.928-52.51s-.766,28.671-8.947,37.829C1202.738,440.463,1202.766,445.105,1202.766,445.105Z" transform="translate(-1202.754 -395.303)" fill="#8c9df4"/>
                  </g>
                  <g id="Grupo_130904" data-name="Grupo 130904" transform="translate(80.711 331.055)">
                    <path id="Trazado_138276" data-name="Trazado 138276" d="M1304.457,597.289s6.275,5.887,5.051,10.07-6.888,6.972-7.653,12.084-3.83,7.9-6.581,7.9H1282.14s-2.028-3.6,2.873-4.682,6.744-7.093,6.438-12.669a100.952,100.952,0,0,1,.459-13.013l10.408-2.478Z" transform="translate(-1281.724 -594.502)" fill="#23417c"/>
                  </g>
                  <g id="Grupo_130905" data-name="Grupo 130905" transform="translate(14.574 336.343)">
                    <path id="Trazado_138277" data-name="Trazado 138277" d="M1251.342,599.874s2.258,24.94-.5,26.334l-35.258-.075s0-4.183,5.663-5.112,15.607-4.339,17.3-11.93S1251.342,599.874,1251.342,599.874Z" transform="translate(-1215.587 -599.874)" fill="#23417c"/>
                  </g>
                  <g id="Grupo_130906" data-name="Grupo 130906" transform="translate(10.704 131.67)">
                    <path id="Trazado_138278" data-name="Trazado 138278" d="M1222.553,391.937s-10.166,32.525-10.82,43.6,19.431,157.312,20.239,162.413c.766,4.809,6.572,7.874,6.572,7.874a8.579,8.579,0,0,0,6.486.514c5.291-1.535,6.964-3.375,6.964-3.375s7.912-104.3,3.016-141.552a606.252,606.252,0,0,1-4.954-69.474Z" transform="translate(-1211.717 -391.935)" fill="#261a4d"/>
                  </g>
                  <g id="Grupo_130907" data-name="Grupo 130907" transform="translate(24.914 130.703)">
                    <path id="Trazado_138279" data-name="Trazado 138279" d="M1265.62,390.952s15.506,21.388,16.948,35.844,2.267,65.24,5.348,79.334,14.394,41.216,14.394,85.175a8.574,8.574,0,0,1-4.808,3.862,38.809,38.809,0,0,1-4.227,1.2,6.592,6.592,0,0,1-7.434-3.628c-7.65-15.832-32.018-66.9-33.266-77.5-.885-7.5-6.076-52.53-22.858-81.662-4.029-6.994-3.787-37.481-3.787-37.481Z" transform="translate(-1225.927 -390.952)" fill="#5038a1"/>
                  </g>
                  <g id="Grupo_130908" data-name="Grupo 130908" transform="translate(11.987 57.089)">
                    <path id="Trazado_138280" data-name="Trazado 138280" d="M1278.464,347.894a148.123,148.123,0,0,1,0,16.753c-.349,6.057-6.309,14.174-7.155,16.178-2.121,5.033-4.515,5.852-4.515,5.852l-18.513,4.665-1.551,10.188s-15.533,6.82-26.309-3.74c-9.377-9.187-8.522-37.94-4.771-53.041a118.063,118.063,0,0,1,9.49-25.592s13.916-5.645,38.558-1.429Z" transform="translate(-1213 -316.164)" fill="#eee9fd"/>
                  </g>
                  <g id="Grupo_130909" data-name="Grupo 130909" transform="translate(39.874 57.095)">
                    <path id="Trazado_138281" data-name="Trazado 138281" d="M1257.036,316.17a104.115,104.115,0,0,1,12.52,2.953l3.491,43.866h-32.16l12.084-32.586Z" transform="translate(-1240.887 -316.17)" fill="#d7ccfb"/>
                  </g>
                  <g id="Grupo_130910" data-name="Grupo 130910" transform="translate(39.874 95.186)">
                    <path id="Trazado_138282" data-name="Trazado 138282" d="M1240.887,363.6l3.53,135.153s17.618,8.6,51.277,0l-8.678-143.88Z" transform="translate(-1240.887 -354.869)" fill="#d7ccfb"/>
                  </g>
                  <g id="Grupo_130911" data-name="Grupo 130911" transform="translate(33.215 92.027)">
                    <path id="Trazado_138283" data-name="Trazado 138283" d="M1295.228,394.954l-23.8,21.3a4.05,4.05,0,0,1-5.824-.413h0l-30.364-35.846a4.328,4.328,0,0,1,.4-5.987l23.8-21.3a4.05,4.05,0,0,1,5.824.412h0l30.364,35.846a4.325,4.325,0,0,1-.4,5.986Z" transform="translate(-1234.228 -351.66)" fill="#ca923d"/>
                  </g>
                  <g id="Grupo_130912" data-name="Grupo 130912" transform="translate(46.37 132.634)">
                    <path id="Trazado_138284" data-name="Trazado 138284" d="M1260.022,392.914c-.338.093-12.639,1.575-12.639,4.191,0,3.022,3.606,7.069,7,6.879,1.377-.077,7.724-6.077,7.724-6.077Z" transform="translate(-1247.383 -392.914)" fill="#ffb27d"/>
                  </g>
                  <g id="Grupo_130913" data-name="Grupo 130913" transform="translate(33.746 41.892)">
                    <path id="Trazado_138285" data-name="Trazado 138285" d="M1253.7,316.107c-1.4-3.49-2.217-8.8-2.194-15.383l-.93.188-15.627,3.181s.356,5.055.366,9.817v.119c.019,4.134-2.718,8.287,3.735,9.927C1241.051,324.464,1256.644,323.436,1253.7,316.107Z" transform="translate(-1234.76 -300.724)" fill="#ffb27d"/>
                  </g>
                  <g id="Grupo_130914" data-name="Grupo 130914" transform="translate(33.941 42.08)">
                    <path id="Trazado_138286" data-name="Trazado 138286" d="M1234.954,304.1s.356,5.055.366,9.817c8.745-.254,13.368-8.454,15.261-13Z" transform="translate(-1234.954 -300.915)" fill="#e8945b"/>
                  </g>
                  <g id="Grupo_130915" data-name="Grupo 130915" transform="translate(24.13 13.886)">
                    <path id="Trazado_138287" data-name="Trazado 138287" d="M1232.033,308.156s20.69.351,20.7-12.894,2.695-22.125-10.515-22.909-15.782,4.268-16.832,8.689S1226.652,307.723,1232.033,308.156Z" transform="translate(-1225.143 -272.272)" fill="#ffb27d"/>
                  </g>
                  <g id="Grupo_130916" data-name="Grupo 130916" transform="translate(31.787 10.945)">
                    <path id="Trazado_138288" data-name="Trazado 138288" d="M1232.8,271.976s5.665,15.544,14.358,17.842,12.466-.1,12.466-.1a25.509,25.509,0,0,1-8.053-14.951S1237.073,264.579,1232.8,271.976Z" transform="translate(-1232.8 -269.283)" fill="#12263f"/>
                  </g>
                  <g id="Grupo_130917" data-name="Grupo 130917" transform="translate(22.714 12.368)">
                    <path id="Trazado_138289" data-name="Trazado 138289" d="M1234.2,273.263s-4.2,1.614-5.93,4.763a21.907,21.907,0,0,0-2.8,12.163s-4.268-10.564.529-16.536C1231.092,267.311,1234.2,273.263,1234.2,273.263Z" transform="translate(-1223.727 -270.729)" fill="#12263f"/>
                  </g>
                  <g id="Grupo_130918" data-name="Grupo 130918" transform="translate(50.663 131.932)">
                    <path id="Trazado_138290" data-name="Trazado 138290" d="M1260.022,392.9a13.711,13.711,0,0,0-4.919-.689c-1.97.284-3.427-.04-3.427.527s2.544.833,3.084,1.105S1260.022,392.9,1260.022,392.9Z" transform="translate(-1251.676 -392.201)" fill="#ffb27d"/>
                  </g>
                  <g id="Grupo_130919" data-name="Grupo 130919" transform="translate(56.021 58.658)">
                    <path id="Trazado_138291" data-name="Trazado 138291" d="M1263.7,317.758s14.687,1.059,20.318,15.128,16.312,37.69,16.312,41.663-5.967,16.223-38.013,23.267c0,0-3.315-3.585-3.114-6.419,0,0,20-17.662,19.95-19.727-.1-3.9-3.28-9.056-20.843-27.118C1253.536,339.643,1263.7,317.758,1263.7,317.758Z" transform="translate(-1257.034 -317.758)" fill="#d7ccfb"/>
                  </g>
                  <g id="Grupo_130920" data-name="Grupo 130920" transform="translate(39.874 53.563)">
                    <path id="Trazado_138292" data-name="Trazado 138292" d="M1248.154,339.764s5.513-15.511,4.436-27.183c0,0,4.3,1.114,6.528,4.406,0,0,1.009,17.851-2.151,26.133,0,0-4.706.217-5.733-.352,0,0,2.053,3.573,1.737,3.979s-12.084,16.185-12.084,16.185Z" transform="translate(-1240.887 -312.581)" fill="#8c6df2"/>
                  </g>
                  <g id="Grupo_130921" data-name="Grupo 130921" transform="translate(6.385 57.795)">
                    <path id="Trazado_138293" data-name="Trazado 138293" d="M1223.827,356.071l-3.475,139s-8.215.325-12.954-4.872l4.321-150.611s4.523-18.124,13.423-20.416l8.9-2.292Z" transform="translate(-1207.398 -316.881)" fill="#d7ccfb"/>
                  </g>
                  <g id="Grupo_130922" data-name="Grupo 130922" transform="translate(20.601 55.08)">
                    <path id="Trazado_138294" data-name="Trazado 138294" d="M1235.32,314.122a49.544,49.544,0,0,1-.545,6.021c-1.459,10.466-12.3,31.451-11.072,40.818,0,0-1.142-16.3-1.142-19.764l3.16-2.273-4.107-1.732S1229.28,317.523,1235.32,314.122Z" transform="translate(-1221.614 -314.122)" fill="#8c6df2"/>
                  </g>
                  <g id="Grupo_130923" data-name="Grupo 130923" transform="translate(50.589 183.21)">
                    <path id="Rectángulo_41162" data-name="Rectángulo 41162" d="M1282.453,447.51l-30.624,2.284-.227-3.212,30.624-2.284Z" transform="translate(-1251.602 -444.298)" fill="#8c6df2"/>
                  </g>
                  <g id="Grupo_130924" data-name="Grupo 130924" transform="translate(50.815 186.423)" opacity="0.3">
                    <path id="Trazado_138295" data-name="Trazado 138295" d="M1282.453,447.561s2.231,19.523,0,21.31-25.542,4.059-27.71,2.273-2.915-21.3-2.915-21.3Z" transform="translate(-1251.828 -447.561)" fill="#8c9df4"/>
                  </g>
                </g>
                <g id="Grupo_130951" data-name="Grupo 130951">
                  <g id="Grupo_130949" data-name="Grupo 130949">
                    <g id="Grupo_130926" data-name="Grupo 130926" transform="translate(33.993 357.667)">
                      <path id="Trazado_138296" data-name="Trazado 138296" d="M1131.328,626.034h19.917a50.528,50.528,0,0,0-1.589-7.348,21.354,21.354,0,0,0-1.128-2.953c-1.937-3.974-14.239-1.446-14.239-1.446s-1.142,1.006-2.035,4.851A41.773,41.773,0,0,0,1131.328,626.034Z" transform="translate(-1131.328 -613.495)" fill="#233862"/>
                    </g>
                    <g id="Grupo_130927" data-name="Grupo 130927" transform="translate(68.323 56.202)">
                      <path id="Trazado_138297" data-name="Trazado 138297" d="M1167.887,307.219s15.87,2.864,19.458,12.493S1211.2,484.876,1211.2,484.876s-10.036,8.176-31.581,5.24S1167.887,307.219,1167.887,307.219Z" transform="translate(-1165.658 -307.219)" fill="#c2b9de"/>
                    </g>
                    <g id="Grupo_130928" data-name="Grupo 130928" transform="translate(94.172 349.982)">
                      <path id="Trazado_138298" data-name="Trazado 138298" d="M1191.509,620.091c.055,2.786.4,5.422,1.378,6.462h39.391c-.5-1.466-1.915-3.668-5.962-4.344-4.6-.765-11.759-3.039-15.941-7.579a12.293,12.293,0,0,1-3.086-5.746c-1.854-8.482-15.32,2.6-15.32,2.6A70.314,70.314,0,0,0,1191.509,620.091Z" transform="translate(-1191.507 -605.687)" fill="#233862"/>
                    </g>
                    <g id="Grupo_130929" data-name="Grupo 130929" transform="translate(48.17 167.473)">
                      <path id="Trazado_138299" data-name="Trazado 138299" d="M1208.472,611.114c-4.4,1.444-12.814,5.851-18.16,3.778-3.454-1.338-22.761-58.749-24.013-83.862a66.012,66.012,0,0,0-.989-7.481c-1.144-6.481-3.143-15.386-5.448-25.214-6.178-26.331-14.535-59.271-14.354-69.8.28-16.339,47.374-3.425,47.374-3.425a179.494,179.494,0,0,1,3.885,32.812c1.279,38.523,4.8,103.594,14.363,148.783A3.887,3.887,0,0,1,1208.472,611.114Z" transform="translate(-1145.505 -420.266)" fill="#261a4d"/>
                    </g>
                    <g id="Grupo_130930" data-name="Grupo 130930" transform="translate(25.621 169.899)">
                      <path id="Trazado_138300" data-name="Trazado 138300" d="M1175.786,428.632l-24.9,185.484s-10.934,2.711-19.437.541c0,0-7.289-98.649-6.682-122.5s-5.231-63.816,1.333-68.223S1175.786,428.632,1175.786,428.632Z" transform="translate(-1122.957 -422.731)" fill="#6bb7bf"/>
                    </g>
                    <g id="Grupo_130931" data-name="Grupo 130931" transform="translate(25.623 53.674)">
                      <path id="Trazado_138301" data-name="Trazado 138301" d="M1122.958,315.68s26.164-17.391,44.929-8.5c2.99,1.416,6.4,5.372,8.844,8.138,6.783,7.683,20.037,129.738,20.037,129.738s-37.625,13.1-73.81-4.446Z" transform="translate(-1122.958 -304.65)" fill="#fff"/>
                    </g>
                    <g id="Grupo_130932" data-name="Grupo 130932" transform="translate(72.041 55.761)">
                      <path id="Trazado_138302" data-name="Trazado 138302" d="M1169.376,306.771s26.487,11.158,30.074,19.732,15.246,61.223,15.246,67.4-20.3,1.378-23.569-8.577c-2.715-8.268-11.868-33.671-16.694-49.736Z" transform="translate(-1169.376 -306.771)" fill="#c2b9de"/>
                    </g>
                    <g id="Grupo_130937" data-name="Grupo 130937" transform="translate(34.487)">
                      <g id="Grupo_130933" data-name="Grupo 130933" transform="translate(11.563 39.938)">
                        <path id="Trazado_138303" data-name="Trazado 138303" d="M1163.876,315.021a29.137,29.137,0,0,1-20.491-4.291,61.93,61.93,0,0,0,4.369-15.859c.024-.187.042-.368.06-.543a16.716,16.716,0,0,0,.072-3.633h14.946s4.088,1.921,4.088,3.248q0,1.066.017,2.038c.03,1.772.1,3.309.192,4.634a43.337,43.337,0,0,0,.766,6.344S1169.714,313.844,1163.876,315.021Z" transform="translate(-1143.385 -290.695)" fill="#ffb27d"/>
                      </g>
                      <g id="Grupo_130934" data-name="Grupo 130934" transform="translate(15.61 42.77)">
                        <path id="Trazado_138304" data-name="Trazado 138304" d="M1167.123,300.661c-11.325,2.249-17.9-4.111-19.373-5.744-.21-.233-.317-.372-.317-.372.119-.061.245-.117.377-.171,4.213-1.755,13.782-.36,19.125,1.654C1166.965,297.794,1167.033,299.336,1167.123,300.661Z" transform="translate(-1147.433 -293.573)" fill="#e2915a"/>
                      </g>
                      <g id="Grupo_130935" data-name="Grupo 130935" transform="translate(9.378 9.214)">
                        <path id="Trazado_138305" data-name="Trazado 138305" d="M1144.05,287.679c2.023,11.2,16.077,10.827,22.151,10.125,1.709-.2,2.784-.42,2.784-.42,1.928-.53,3-3.65,3.5-7.737.992-8.09-.261-19.963-1.59-23-2-4.57-5.77-9.512-19.923-5.946S1141.453,273.333,1144.05,287.679Z" transform="translate(-1141.2 -259.481)" fill="#ffb27d"/>
                      </g>
                      <g id="Grupo_130936" data-name="Grupo 130936">
                        <path id="Trazado_138306" data-name="Trazado 138306" d="M1171.424,260.25c-1.934-2.756-6.032-6.117-9.76-8.188-8-4.451-18.245.14-18.288.159-11.561,5.225-14.579,14.317-8.451,28.479,6.481,14.976,12.652,13.288,12.652,13.288s-1.31-.839-1.191-5.505c.007-.266.016-.486.029-.677a3.186,3.186,0,0,0-.964-2.554c-1.437-1.318-2.137-5.3-.933-6.412,1.451-1.338,3.488.287,4.14,1.537a1.75,1.75,0,0,0,2.433.644c.036-.022.071-.044.105-.069,3.6-2.338,1.261-7.014,4.7-9.875s10.414-.46,15.572-2.739C1178.217,265.762,1172.879,262.329,1171.424,260.25Z" transform="translate(-1131.823 -250.12)" fill="#261a4d"/>
                      </g>
                    </g>
                    <g id="Grupo_130938" data-name="Grupo 130938" transform="translate(18.154 55.803)">
                      <path id="Trazado_138307" data-name="Trazado 138307" d="M1173.036,496.3q-3.419.9-6.775,1.476c-1.982.347-3.955.605-5.932.778-11.2,1-22.444-.618-35.59-4.493q-4.44-1.31-9.192-2.96c-.338-.117.862-35.851,2.251-72.709.141-3.805.288-7.624.431-11.418q.1-2.411.186-4.8c1.258-32.6,2.505-62.038,2.768-63.625.6-3.587,1.164-6.645,1.776-9.294,1.791-7.723,4.015-11.958,8.865-15.6.472-.369,4.35-2.378,7.77-4.127,2.835-1.448,5.352-2.711,5.352-2.711h0c1.128.568,2.482,3.224,3.9,6.952,2.6,6.871,5.414,17.394,7.373,25.253a.177.177,0,0,1,.008.04h0c1.259,5.073,2.162,9.026,2.419,10.16.437,1.915,1.013,5.621,1.692,10.646.921,6.838,2.02,16.12,3.184,26.652q.18,1.624.359,3.286.207,1.894.416,3.832c.044.414.089.83.132,1.245.448,4.17.9,8.477,1.349,12.853.373,3.617,5.71,6.233,6.078,9.912.213,2.165.656,22.093,1.227,28.456C1173.488,450.647,1173.2,494.16,1173.036,496.3Z" transform="translate(-1115.489 -306.814)" fill="#c2b9de"/>
                    </g>
                    <g id="Grupo_130939" data-name="Grupo 130939" transform="translate(22.266 100.679)">
                      <path id="Trazado_138308" data-name="Trazado 138308" d="M1134.421,352.406c-.016.074-.907,32.964,23.16,36.96s8.077,5.05,8.077,5.05-45.283-1.978-46.031-3.208S1134.421,352.406,1134.421,352.406Z" transform="translate(-1119.601 -352.406)" fill="#d7ccfb"/>
                    </g>
                    <g id="Grupo_130940" data-name="Grupo 130940" transform="translate(14.928 145.097)">
                      <path id="Trazado_138309" data-name="Trazado 138309" d="M1154.756,404.193s-.451.329-1.318.9c-.015.008-.03.018-.045.028a111.413,111.413,0,0,1-30.435,13.381q-2.5.7-5.161,1.309c.14-3.805.287-7.624.43-11.418a45.513,45.513,0,0,1-5.964-.848c.062-.5.128-1,.192-1.5,2.018-.851,4.021-1.673,5.959-2.449,1.575-.634,3.1-1.236,4.545-1.8,6.516-2.544,11.348-4.269,11.348-4.269l19.293,6.282Z" transform="translate(-1112.263 -397.533)" fill="#d7ccfb"/>
                    </g>
                    <g id="Grupo_130941" data-name="Grupo 130941" transform="translate(0 55.805)">
                      <path id="Trazado_138310" data-name="Trazado 138310" d="M1159.862,402.219s-2.479.636-6.425,1.454a.1.1,0,0,0-.042.009c-7.277,1.5-19.51,3.611-30.437,3.5-1.613-.018-3.2-.083-4.731-.206a45.508,45.508,0,0,1-5.964-.848c-3.995-.867-7.34-2.333-9.528-4.626-16.255-17.02,8.87-78.106,14.153-84.05,6.168-6.939,17.427-9.373,23.64-10.209.26-.033.508-.068.751-.1,2.185-.268,3.588-.323,3.665-.326h0s-.487,1.61-1.3,4.342c-.317,1.057-.685,2.284-1.088,3.652-3.817,12.853-11.185,38.112-14.432,52.357-1.19,5.217-1.827,8.95-1.536,10.065,1.267,4.865,14.4,7.366,22.721,8.473,3.471.461,6.1.679,6.695.726a.847.847,0,0,1,.122.009l.479,2.028,1.149,4.866,1.133,4.779Z" transform="translate(-1097.335 -306.816)" fill="#c2b9de"/>
                    </g>
                    <g id="Grupo_130942" data-name="Grupo 130942" transform="translate(52.04 106.552)">
                      <path id="Trazado_138311" data-name="Trazado 138311" d="M1205.2,432.308l-55.824-2.417,11.327-71.519,35.508,1.537,20.318.88Z" transform="translate(-1149.375 -358.372)" fill="#986e2e"/>
                    </g>
                    <g id="Grupo_130943" data-name="Grupo 130943" transform="translate(55.686 135.321)">
                      <path id="Trazado_138312" data-name="Trazado 138312" d="M1156.13,387.709s10.867-.779,11.412,1.825c1.271,6.07-9.342,11.054-12.781,10.713S1153.624,387.3,1156.13,387.709Z" transform="translate(-1153.021 -387.6)" fill="#ffb27d"/>
                    </g>
                    <g id="Grupo_130944" data-name="Grupo 130944" transform="translate(104.167 121.685)">
                      <path id="Trazado_138313" data-name="Trazado 138313" d="M1213.473,375.554s-10.4-3.342-11.514-.938c-2.6,5.6,6.6,12.976,10.024,13.462S1216,375.755,1213.473,375.554Z" transform="translate(-1201.502 -373.747)" fill="#ffb27d"/>
                    </g>
                    <g id="Grupo_130945" data-name="Grupo 130945" transform="translate(41.875 52.214)">
                      <path id="Trazado_138314" data-name="Trazado 138314" d="M1146.075,303.167s-4.572,2.24-6.865,5.62c0,0,17.089,30.5,17.014,30.218S1150.446,307.074,1146.075,303.167Z" transform="translate(-1139.21 -303.167)" fill="#d7ccfb"/>
                    </g>
                    <g id="Grupo_130946" data-name="Grupo 130946" transform="translate(70.024 52.644)">
                      <path id="Trazado_138315" data-name="Trazado 138315" d="M1167.359,303.6c1.505.584,4.391,3.624,5.043,5.3l2.032,26.628s-4.338-19.541-6.546-28.374A15.327,15.327,0,0,1,1167.359,303.6Z" transform="translate(-1167.359 -303.604)" fill="#d7ccfb"/>
                    </g>
                    <g id="Grupo_130947" data-name="Grupo 130947" transform="translate(81.87 105.577)">
                      <path id="Trazado_138316" data-name="Trazado 138316" d="M1179.2,359.155a2.543,2.543,0,0,1,2.984-1.754c2.542.23,16.816.953,16.816.953s2.753-.046,2.5,1.767Z" transform="translate(-1179.205 -357.382)" fill="#ca923d"/>
                    </g>
                    <g id="Grupo_130948" data-name="Grupo 130948" transform="translate(65.494 38.371)">
                      <path id="Trazado_138317" data-name="Trazado 138317" d="M1162.829,290.67a5.836,5.836,0,0,0,4.843,1.2c1.773-.319,2.765-2.689,2.765-2.689A13.073,13.073,0,0,0,1162.829,290.67Z" transform="translate(-1162.829 -289.104)" fill="#fff"/>
                    </g>
                  </g>
                  <g id="Grupo_130950" data-name="Grupo 130950" transform="translate(32.6 77.356)">
                    <rect id="Rectángulo_41163" data-name="Rectángulo 41163" width="14.453" height="6.662" fill="#ebf3fa"/>
                  </g>
                </g>
              </g>
            </g>
          </g>
        </g>
      </g>
    </g>
    <g id="Grupo_132127" data-name="Grupo 132127" transform="translate(1143.207 752)">
      <rect id="Rectángulo_41171" data-name="Rectángulo 41171" width="250" height="46" rx="5" fill="#8c6df2"/>
    </g>
  </g>
</svg>
