<svg xmlns="http://www.w3.org/2000/svg" width="610.294" height="515.311" viewBox="0 0 610.294 515.311">
  <g id="Grupo_131963" data-name="Grupo 131963" transform="translate(-3695 8602)">
    <g id="Grupo_131282" data-name="Grupo 131282" transform="translate(3200 -12181.689)">
      <path id="Trazado_138530" data-name="Trazado 138530" d="M2443.3-7607.5H2970.57s-46.25-43.747-9.632-94.393,71.041-174.406,0-221.886-108.981-4.078-148.937,56.97-50.962-40.643-20-99.792-72.436-211.775-190-96.717,41.052,167.129-20,206.91-92.266-62.1-152.622-10.4,82.4,57.558,67.622,92.067-53.435-51.425-86.47,32.106S2443.3-7607.5,2443.3-7607.5Z" transform="translate(-1897 11700)" fill="#eee9fd"/>
      <g id="Grupo_131280" data-name="Grupo 131280" transform="translate(521.268 3553.082)">
        <g id="Background_Complete" data-name="Background Complete" transform="translate(29.287 26.608)">
          <g id="Grupo_131075" data-name="Grupo 131075" transform="translate(0 170.624)">
            <path id="Trazado_138531" data-name="Trazado 138531" d="M137.7,205.1c.84-6.1-7.768-11.117-14.237-11.638-3.085-.249-6.288.223-9.21-.8-6.332-2.207-8.861-10.386-15.039-12.992-4.618-1.948-9.936-.214-14.413,2.04s-8.9,5.089-13.906,5.409c-4.351.279-9.076-1.335-12.883.79-2.837,1.584-4.323,4.853-6.938,6.781-2.558,1.886-5.895,2.287-9.068,2.459s-6.461.2-9.351,1.528-5.281,4.379-4.681,7.5Z" transform="translate(-27.879 -178.827)" fill="#f5f5f5"/>
          </g>
          <g id="Grupo_131156" data-name="Grupo 131156" transform="translate(336.106 49.311)">
            <g id="Grupo_131077" data-name="Grupo 131077" transform="translate(63.798 19.257)">
              <g id="Grupo_131076" data-name="Grupo 131076">
                <rect id="Rectángulo_41186" data-name="Rectángulo 41186" width="1.24" height="66.066" fill="#e0e0e0"/>
              </g>
            </g>
            <g id="Grupo_131079" data-name="Grupo 131079" transform="translate(42.789 20.272)">
              <g id="Grupo_131078" data-name="Grupo 131078">
                <rect id="Rectángulo_41187" data-name="Rectángulo 41187" width="1.24" height="66.066" fill="#e0e0e0"/>
              </g>
            </g>
            <g id="Grupo_131081" data-name="Grupo 131081" transform="translate(21.78 19.079)">
              <g id="Grupo_131080" data-name="Grupo 131080">
                <rect id="Rectángulo_41188" data-name="Rectángulo 41188" width="1.24" height="66.066" fill="#e0e0e0"/>
              </g>
            </g>
            <g id="Grupo_131083" data-name="Grupo 131083" transform="translate(0.771 20.272)">
              <g id="Grupo_131082" data-name="Grupo 131082">
                <rect id="Rectángulo_41189" data-name="Rectángulo 41189" width="1.24" height="66.066" fill="#e0e0e0"/>
              </g>
            </g>
            <g id="Grupo_131139" data-name="Grupo 131139" transform="translate(0 71.595)">
              <g id="Grupo_131088" data-name="Grupo 131088" transform="translate(0.001)">
                <g id="Grupo_131085" data-name="Grupo 131085">
                  <g id="Grupo_131084" data-name="Grupo 131084">
                    <rect id="Rectángulo_41190" data-name="Rectángulo 41190" width="150.681" height="389.199" fill="#ebebeb"/>
                  </g>
                </g>
                <g id="Grupo_131087" data-name="Grupo 131087" transform="translate(80.03)">
                  <g id="Grupo_131086" data-name="Grupo 131086">
                    <rect id="Rectángulo_41191" data-name="Rectángulo 41191" width="70.651" height="389.199" fill="#e0e0e0"/>
                  </g>
                </g>
              </g>
              <g id="Grupo_131094" data-name="Grupo 131094" transform="translate(0 26.908)">
                <g id="Grupo_131090" data-name="Grupo 131090" transform="translate(31.595)">
                  <g id="Grupo_131089" data-name="Grupo 131089">
                    <rect id="Rectángulo_41192" data-name="Rectángulo 41192" width="13.548" height="32.916" fill="#f5f5f5"/>
                  </g>
                </g>
                <g id="Grupo_131093" data-name="Grupo 131093" transform="translate(0 45.165)">
                  <g id="Grupo_131092" data-name="Grupo 131092">
                    <g id="Grupo_131091" data-name="Grupo 131091">
                      <path id="Trazado_138532" data-name="Trazado 138532" d="M407.762,199.441c0,.37-17.917.67-40.013.67s-40.017-.3-40.017-.67,17.913-.669,40.017-.669S407.762,199.071,407.762,199.441Z" transform="translate(-327.732 -198.772)" fill="#f5f5f5"/>
                    </g>
                  </g>
                </g>
              </g>
              <g id="Grupo_131100" data-name="Grupo 131100" transform="translate(0 91.809)">
                <g id="Grupo_131096" data-name="Grupo 131096" transform="translate(31.595)">
                  <g id="Grupo_131095" data-name="Grupo 131095">
                    <rect id="Rectángulo_41193" data-name="Rectángulo 41193" width="13.548" height="32.916" fill="#f5f5f5"/>
                  </g>
                </g>
                <g id="Grupo_131099" data-name="Grupo 131099" transform="translate(0 45.165)">
                  <g id="Grupo_131098" data-name="Grupo 131098">
                    <g id="Grupo_131097" data-name="Grupo 131097">
                      <path id="Trazado_138533" data-name="Trazado 138533" d="M407.762,257.342c0,.37-17.917.67-40.013.67s-40.017-.3-40.017-.67,17.913-.669,40.017-.669S407.762,256.973,407.762,257.342Z" transform="translate(-327.732 -256.673)" fill="#f5f5f5"/>
                    </g>
                  </g>
                </g>
              </g>
              <g id="Grupo_131106" data-name="Grupo 131106" transform="translate(0 162.864)">
                <g id="Grupo_131102" data-name="Grupo 131102" transform="translate(31.595)">
                  <g id="Grupo_131101" data-name="Grupo 131101">
                    <rect id="Rectángulo_41194" data-name="Rectángulo 41194" width="13.548" height="32.916" fill="#f5f5f5"/>
                  </g>
                </g>
                <g id="Grupo_131105" data-name="Grupo 131105" transform="translate(0 45.165)">
                  <g id="Grupo_131104" data-name="Grupo 131104">
                    <g id="Grupo_131103" data-name="Grupo 131103">
                      <path id="Trazado_138534" data-name="Trazado 138534" d="M407.762,320.732c0,.37-17.917.67-40.013.67s-40.017-.3-40.017-.67,17.913-.669,40.017-.669S407.762,320.363,407.762,320.732Z" transform="translate(-327.732 -320.063)" fill="#f5f5f5"/>
                    </g>
                  </g>
                </g>
              </g>
              <g id="Grupo_131112" data-name="Grupo 131112" transform="translate(0 233.918)">
                <g id="Grupo_131108" data-name="Grupo 131108" transform="translate(31.595)">
                  <g id="Grupo_131107" data-name="Grupo 131107">
                    <rect id="Rectángulo_41195" data-name="Rectángulo 41195" width="13.548" height="32.916" fill="#f5f5f5"/>
                  </g>
                </g>
                <g id="Grupo_131111" data-name="Grupo 131111" transform="translate(0 45.165)">
                  <g id="Grupo_131110" data-name="Grupo 131110">
                    <g id="Grupo_131109" data-name="Grupo 131109">
                      <path id="Trazado_138535" data-name="Trazado 138535" d="M407.762,384.123c0,.369-17.917.669-40.013.669s-40.017-.3-40.017-.669,17.913-.67,40.017-.67S407.762,383.753,407.762,384.123Z" transform="translate(-327.732 -383.453)" fill="#f5f5f5"/>
                    </g>
                  </g>
                </g>
              </g>
              <g id="Grupo_131118" data-name="Grupo 131118" transform="translate(0 304.972)">
                <g id="Grupo_131114" data-name="Grupo 131114" transform="translate(31.595)">
                  <g id="Grupo_131113" data-name="Grupo 131113">
                    <rect id="Rectángulo_41196" data-name="Rectángulo 41196" width="13.548" height="32.916" fill="#f5f5f5"/>
                  </g>
                </g>
                <g id="Grupo_131117" data-name="Grupo 131117" transform="translate(0 45.165)">
                  <g id="Grupo_131116" data-name="Grupo 131116">
                    <g id="Grupo_131115" data-name="Grupo 131115">
                      <path id="Trazado_138536" data-name="Trazado 138536" d="M407.762,447.513c0,.37-17.917.669-40.013.669s-40.017-.3-40.017-.669,17.913-.67,40.017-.67S407.762,447.143,407.762,447.513Z" transform="translate(-327.732 -446.843)" fill="#f5f5f5"/>
                    </g>
                  </g>
                </g>
              </g>
              <g id="Grupo_131120" data-name="Grupo 131120" transform="translate(95.033 26.908)">
                <g id="Grupo_131119" data-name="Grupo 131119">
                  <rect id="Rectángulo_41197" data-name="Rectángulo 41197" width="13.548" height="32.916" fill="#f5f5f5"/>
                </g>
              </g>
              <g id="Grupo_131122" data-name="Grupo 131122" transform="translate(124.426 26.908)">
                <g id="Grupo_131121" data-name="Grupo 131121">
                  <rect id="Rectángulo_41198" data-name="Rectángulo 41198" width="13.548" height="32.916" fill="#f5f5f5"/>
                </g>
              </g>
              <g id="Grupo_131124" data-name="Grupo 131124" transform="translate(95.033 89.367)">
                <g id="Grupo_131123" data-name="Grupo 131123">
                  <rect id="Rectángulo_41199" data-name="Rectángulo 41199" width="13.548" height="32.916" fill="#f5f5f5"/>
                </g>
              </g>
              <g id="Grupo_131126" data-name="Grupo 131126" transform="translate(124.426 89.367)">
                <g id="Grupo_131125" data-name="Grupo 131125">
                  <rect id="Rectángulo_41200" data-name="Rectángulo 41200" width="13.548" height="32.916" fill="#f5f5f5"/>
                </g>
              </g>
              <g id="Grupo_131128" data-name="Grupo 131128" transform="translate(94.048 159.317)">
                <g id="Grupo_131127" data-name="Grupo 131127">
                  <rect id="Rectángulo_41201" data-name="Rectángulo 41201" width="13.548" height="32.916" fill="#f5f5f5"/>
                </g>
              </g>
              <g id="Grupo_131130" data-name="Grupo 131130" transform="translate(123.441 159.317)">
                <g id="Grupo_131129" data-name="Grupo 131129">
                  <rect id="Rectángulo_41202" data-name="Rectángulo 41202" width="13.548" height="32.916" fill="#f5f5f5"/>
                </g>
              </g>
              <g id="Grupo_131132" data-name="Grupo 131132" transform="translate(94.048 235.176)">
                <g id="Grupo_131131" data-name="Grupo 131131">
                  <rect id="Rectángulo_41203" data-name="Rectángulo 41203" width="13.548" height="32.916" fill="#f5f5f5"/>
                </g>
              </g>
              <g id="Grupo_131134" data-name="Grupo 131134" transform="translate(123.441 235.176)">
                <g id="Grupo_131133" data-name="Grupo 131133">
                  <rect id="Rectángulo_41204" data-name="Rectángulo 41204" width="13.548" height="32.916" fill="#f5f5f5"/>
                </g>
              </g>
              <g id="Grupo_131136" data-name="Grupo 131136" transform="translate(94.048 311.036)">
                <g id="Grupo_131135" data-name="Grupo 131135">
                  <rect id="Rectángulo_41205" data-name="Rectángulo 41205" width="13.548" height="32.916" fill="#f5f5f5"/>
                </g>
              </g>
              <g id="Grupo_131138" data-name="Grupo 131138" transform="translate(123.441 311.036)">
                <g id="Grupo_131137" data-name="Grupo 131137">
                  <rect id="Rectángulo_41206" data-name="Rectángulo 41206" width="13.548" height="32.916" fill="#f5f5f5"/>
                </g>
              </g>
            </g>
            <g id="Grupo_131141" data-name="Grupo 131141" transform="translate(80.03 38.471)">
              <g id="Grupo_131140" data-name="Grupo 131140">
                <path id="Trazado_138537" data-name="Trazado 138537" d="M399.13,141.45V123.537h15V113.7h20.322v-8.781h35.326v35.123Z" transform="translate(-399.13 -104.922)" fill="#e0e0e0"/>
              </g>
            </g>
            <g id="Grupo_131143" data-name="Grupo 131143" transform="translate(79.358 9.305)">
              <g id="Grupo_131142" data-name="Grupo 131142">
                <rect id="Rectángulo_41207" data-name="Rectángulo 41207" width="1.24" height="66.066" fill="#e0e0e0"/>
              </g>
            </g>
            <g id="Grupo_131145" data-name="Grupo 131145" transform="translate(94.413 9.305)">
              <g id="Grupo_131144" data-name="Grupo 131144">
                <rect id="Rectángulo_41208" data-name="Rectángulo 41208" width="1.24" height="66.066" fill="#e0e0e0"/>
              </g>
            </g>
            <g id="Grupo_131147" data-name="Grupo 131147" transform="translate(114.736)">
              <g id="Grupo_131146" data-name="Grupo 131146">
                <rect id="Rectángulo_41209" data-name="Rectángulo 41209" width="1.24" height="66.066" fill="#e0e0e0"/>
              </g>
            </g>
            <g id="Grupo_131149" data-name="Grupo 131149" transform="translate(149.02)">
              <g id="Grupo_131148" data-name="Grupo 131148">
                <rect id="Rectángulo_41210" data-name="Rectángulo 41210" width="1.24" height="66.066" fill="#e0e0e0"/>
              </g>
            </g>
            <g id="Grupo_131151" data-name="Grupo 131151" transform="translate(131.877)">
              <g id="Grupo_131150" data-name="Grupo 131150">
                <rect id="Rectángulo_41211" data-name="Rectángulo 41211" width="1.24" height="66.066" fill="#e0e0e0"/>
              </g>
            </g>
            <g id="Grupo_131153" data-name="Grupo 131153" transform="translate(1.954 53.969)">
              <g id="Grupo_131152" data-name="Grupo 131152">
                <rect id="Rectángulo_41212" data-name="Rectángulo 41212" width="78.076" height="1.24" fill="#e0e0e0"/>
              </g>
            </g>
            <g id="Grupo_131155" data-name="Grupo 131155" transform="translate(2.116 37.851)">
              <g id="Grupo_131154" data-name="Grupo 131154">
                <rect id="Rectángulo_41213" data-name="Rectángulo 41213" width="113.402" height="1.24" fill="#e0e0e0"/>
              </g>
            </g>
          </g>
          <g id="Grupo_131224" data-name="Grupo 131224" transform="translate(192.982 165.044)">
            <g id="Grupo_131158" data-name="Grupo 131158" transform="translate(63.798 19.257)">
              <g id="Grupo_131157" data-name="Grupo 131157">
                <rect id="Rectángulo_41214" data-name="Rectángulo 41214" width="1.24" height="66.066" fill="#e0e0e0"/>
              </g>
            </g>
            <g id="Grupo_131160" data-name="Grupo 131160" transform="translate(42.788 20.272)">
              <g id="Grupo_131159" data-name="Grupo 131159">
                <rect id="Rectángulo_41215" data-name="Rectángulo 41215" width="1.24" height="66.066" fill="#e0e0e0"/>
              </g>
            </g>
            <g id="Grupo_131162" data-name="Grupo 131162" transform="translate(21.78 19.079)">
              <g id="Grupo_131161" data-name="Grupo 131161">
                <rect id="Rectángulo_41216" data-name="Rectángulo 41216" width="1.24" height="66.066" fill="#e0e0e0"/>
              </g>
            </g>
            <g id="Grupo_131164" data-name="Grupo 131164" transform="translate(0.77 20.272)">
              <g id="Grupo_131163" data-name="Grupo 131163">
                <rect id="Rectángulo_41217" data-name="Rectángulo 41217" width="1.24" height="66.066" fill="#e0e0e0"/>
              </g>
            </g>
            <g id="Grupo_131207" data-name="Grupo 131207" transform="translate(0 71.595)">
              <g id="Grupo_131169" data-name="Grupo 131169">
                <g id="Grupo_131166" data-name="Grupo 131166">
                  <g id="Grupo_131165" data-name="Grupo 131165">
                    <rect id="Rectángulo_41218" data-name="Rectángulo 41218" width="150.681" height="273.467" fill="#ebebeb"/>
                  </g>
                </g>
                <g id="Grupo_131168" data-name="Grupo 131168" transform="translate(80.03)">
                  <g id="Grupo_131167" data-name="Grupo 131167">
                    <rect id="Rectángulo_41219" data-name="Rectángulo 41219" width="70.651" height="273.467" fill="#e0e0e0"/>
                  </g>
                </g>
              </g>
              <g id="Grupo_131175" data-name="Grupo 131175" transform="translate(0 26.908)">
                <g id="Grupo_131171" data-name="Grupo 131171" transform="translate(31.594)">
                  <g id="Grupo_131170" data-name="Grupo 131170">
                    <rect id="Rectángulo_41220" data-name="Rectángulo 41220" width="13.548" height="32.916" fill="#f5f5f5"/>
                  </g>
                </g>
                <g id="Grupo_131174" data-name="Grupo 131174" transform="translate(0 45.165)">
                  <g id="Grupo_131173" data-name="Grupo 131173">
                    <g id="Grupo_131172" data-name="Grupo 131172">
                      <path id="Trazado_138538" data-name="Trazado 138538" d="M280.075,302.69c0,.37-17.917.67-40.013.67s-40.016-.3-40.016-.67,17.913-.669,40.016-.669S280.075,302.32,280.075,302.69Z" transform="translate(-200.046 -302.021)" fill="#f5f5f5"/>
                    </g>
                  </g>
                </g>
              </g>
              <g id="Grupo_131181" data-name="Grupo 131181" transform="translate(0 91.809)">
                <g id="Grupo_131177" data-name="Grupo 131177" transform="translate(31.594)">
                  <g id="Grupo_131176" data-name="Grupo 131176">
                    <rect id="Rectángulo_41221" data-name="Rectángulo 41221" width="13.548" height="32.916" fill="#f5f5f5"/>
                  </g>
                </g>
                <g id="Grupo_131180" data-name="Grupo 131180" transform="translate(0 45.165)">
                  <g id="Grupo_131179" data-name="Grupo 131179">
                    <g id="Grupo_131178" data-name="Grupo 131178">
                      <path id="Trazado_138539" data-name="Trazado 138539" d="M280.075,360.591c0,.37-17.917.67-40.013.67s-40.016-.3-40.016-.67,17.913-.669,40.016-.669S280.075,360.222,280.075,360.591Z" transform="translate(-200.046 -359.922)" fill="#f5f5f5"/>
                    </g>
                  </g>
                </g>
              </g>
              <g id="Grupo_131187" data-name="Grupo 131187" transform="translate(0 162.863)">
                <g id="Grupo_131183" data-name="Grupo 131183" transform="translate(31.594)">
                  <g id="Grupo_131182" data-name="Grupo 131182">
                    <rect id="Rectángulo_41222" data-name="Rectángulo 41222" width="13.548" height="32.916" fill="#f5f5f5"/>
                  </g>
                </g>
                <g id="Grupo_131186" data-name="Grupo 131186" transform="translate(0 45.165)">
                  <g id="Grupo_131185" data-name="Grupo 131185">
                    <g id="Grupo_131184" data-name="Grupo 131184">
                      <path id="Trazado_138540" data-name="Trazado 138540" d="M280.075,423.981c0,.37-17.917.67-40.013.67s-40.016-.3-40.016-.67,17.913-.669,40.016-.669S280.075,423.612,280.075,423.981Z" transform="translate(-200.046 -423.312)" fill="#f5f5f5"/>
                    </g>
                  </g>
                </g>
              </g>
              <g id="Grupo_131190" data-name="Grupo 131190" transform="translate(31.595 233.918)">
                <g id="Grupo_131189" data-name="Grupo 131189">
                  <g id="Grupo_131188" data-name="Grupo 131188">
                    <rect id="Rectángulo_41223" data-name="Rectángulo 41223" width="13.548" height="32.916" fill="#f5f5f5"/>
                  </g>
                </g>
              </g>
              <g id="Grupo_131192" data-name="Grupo 131192" transform="translate(95.033 26.908)">
                <g id="Grupo_131191" data-name="Grupo 131191">
                  <rect id="Rectángulo_41224" data-name="Rectángulo 41224" width="13.548" height="32.916" fill="#f5f5f5"/>
                </g>
              </g>
              <g id="Grupo_131194" data-name="Grupo 131194" transform="translate(124.426 26.908)">
                <g id="Grupo_131193" data-name="Grupo 131193">
                  <rect id="Rectángulo_41225" data-name="Rectángulo 41225" width="13.548" height="32.916" fill="#f5f5f5"/>
                </g>
              </g>
              <g id="Grupo_131196" data-name="Grupo 131196" transform="translate(95.033 89.367)">
                <g id="Grupo_131195" data-name="Grupo 131195">
                  <rect id="Rectángulo_41226" data-name="Rectángulo 41226" width="13.548" height="32.916" fill="#f5f5f5"/>
                </g>
              </g>
              <g id="Grupo_131198" data-name="Grupo 131198" transform="translate(124.426 89.367)">
                <g id="Grupo_131197" data-name="Grupo 131197">
                  <rect id="Rectángulo_41227" data-name="Rectángulo 41227" width="13.548" height="32.916" fill="#f5f5f5"/>
                </g>
              </g>
              <g id="Grupo_131200" data-name="Grupo 131200" transform="translate(94.047 159.317)">
                <g id="Grupo_131199" data-name="Grupo 131199">
                  <rect id="Rectángulo_41228" data-name="Rectángulo 41228" width="13.548" height="32.916" fill="#f5f5f5"/>
                </g>
              </g>
              <g id="Grupo_131202" data-name="Grupo 131202" transform="translate(123.44 159.317)">
                <g id="Grupo_131201" data-name="Grupo 131201">
                  <rect id="Rectángulo_41229" data-name="Rectángulo 41229" width="13.548" height="32.916" fill="#f5f5f5"/>
                </g>
              </g>
              <g id="Grupo_131204" data-name="Grupo 131204" transform="translate(94.047 235.176)">
                <g id="Grupo_131203" data-name="Grupo 131203">
                  <rect id="Rectángulo_41230" data-name="Rectángulo 41230" width="13.548" height="32.916" fill="#f5f5f5"/>
                </g>
              </g>
              <g id="Grupo_131206" data-name="Grupo 131206" transform="translate(123.44 235.176)">
                <g id="Grupo_131205" data-name="Grupo 131205">
                  <rect id="Rectángulo_41231" data-name="Rectángulo 41231" width="13.548" height="32.916" fill="#f5f5f5"/>
                </g>
              </g>
            </g>
            <g id="Grupo_131209" data-name="Grupo 131209" transform="translate(80.03 38.471)">
              <g id="Grupo_131208" data-name="Grupo 131208">
                <path id="Trazado_138541" data-name="Trazado 138541" d="M271.443,244.7V226.786h15v-9.835h20.322v-8.781h35.326v35.123Z" transform="translate(-271.443 -208.171)" fill="#e0e0e0"/>
              </g>
            </g>
            <g id="Grupo_131211" data-name="Grupo 131211" transform="translate(79.357 9.305)">
              <g id="Grupo_131210" data-name="Grupo 131210">
                <rect id="Rectángulo_41232" data-name="Rectángulo 41232" width="1.24" height="66.066" fill="#e0e0e0"/>
              </g>
            </g>
            <g id="Grupo_131213" data-name="Grupo 131213" transform="translate(94.413 9.305)">
              <g id="Grupo_131212" data-name="Grupo 131212">
                <rect id="Rectángulo_41233" data-name="Rectángulo 41233" width="1.24" height="66.066" fill="#e0e0e0"/>
              </g>
            </g>
            <g id="Grupo_131215" data-name="Grupo 131215" transform="translate(114.736)">
              <g id="Grupo_131214" data-name="Grupo 131214">
                <rect id="Rectángulo_41234" data-name="Rectángulo 41234" width="1.24" height="66.066" fill="#e0e0e0"/>
              </g>
            </g>
            <g id="Grupo_131217" data-name="Grupo 131217" transform="translate(149.019)">
              <g id="Grupo_131216" data-name="Grupo 131216">
                <rect id="Rectángulo_41235" data-name="Rectángulo 41235" width="1.24" height="66.066" fill="#e0e0e0"/>
              </g>
            </g>
            <g id="Grupo_131219" data-name="Grupo 131219" transform="translate(131.877)">
              <g id="Grupo_131218" data-name="Grupo 131218">
                <rect id="Rectángulo_41236" data-name="Rectángulo 41236" width="1.24" height="66.066" fill="#e0e0e0"/>
              </g>
            </g>
            <g id="Grupo_131221" data-name="Grupo 131221" transform="translate(1.954 53.969)">
              <g id="Grupo_131220" data-name="Grupo 131220">
                <rect id="Rectángulo_41237" data-name="Rectángulo 41237" width="78.076" height="1.24" fill="#e0e0e0"/>
              </g>
            </g>
            <g id="Grupo_131223" data-name="Grupo 131223" transform="translate(2.116 37.851)">
              <g id="Grupo_131222" data-name="Grupo 131222">
                <rect id="Rectángulo_41238" data-name="Rectángulo 41238" width="113.402" height="1.24" fill="#e0e0e0"/>
              </g>
            </g>
          </g>
          <g id="Grupo_131255" data-name="Grupo 131255" transform="translate(1.191)">
            <g id="Grupo_131250" data-name="Grupo 131250">
              <g id="Grupo_131227" data-name="Grupo 131227" transform="translate(75.277)">
                <g id="Grupo_131226" data-name="Grupo 131226">
                  <g id="Grupo_131225" data-name="Grupo 131225">
                    <path id="Trazado_138542" data-name="Trazado 138542" d="M116.6,46.446h.037a.362.362,0,0,0,.037-.007.368.368,0,0,0,.334-.364v-.306h0L117,35.107a6.139,6.139,0,0,0-9.529-5.116l-4.763-1.047a3.382,3.382,0,0,0-6.09-.747,3.4,3.4,0,0,0,1.067,4.686,3.365,3.365,0,0,0,2.122.494l4.913,5.859,0,6.542h0v.3a.374.374,0,0,0,.371.372h.118l-2.6,40.457h1.466l.571-8.9,5.6,7.389-1.177,1.509h1.159l.59-.755.572.755h1.147l-1.137-1.5,5.8-7.427.585,8.928h1.466Zm-5.45,0,3.784,7.957-8.282.006,3.9-7.963Zm1.012,0,2.972,0,.476,7.25Zm-4.18,0h1.55l-3.283,6.7.432-6.7Zm-2.027,11.284,4.425,7.176-5.436,8.558Zm.575-.81,8.928-.006-4.533,7.135Zm9.358,1.022,1.039,15.839-5.469-8.867Zm-4.975,7.83,5.318,8.623-10.8.008Zm-5.942,11.144,11.906-.008-6.046,7.743Z" transform="translate(-96.099 -26.608)" fill="#e0e0e0"/>
                  </g>
                </g>
              </g>
              <g id="Grupo_131230" data-name="Grupo 131230" transform="translate(83.521 79.249)">
                <g id="Grupo_131229" data-name="Grupo 131229">
                  <g id="Grupo_131228" data-name="Grupo 131228">
                    <path id="Trazado_138543" data-name="Trazado 138543" d="M121.475,104.542h-1.456v8.5l-6.211-6.855,6.388-6.838h.753V97.309l-15.361.009v2.045h1.028l6.182,6.823-6.658,7.127v-8.769h-2.686V314.148h2.686v-1.786l13.879-.008v1.793h2.687V104.542ZM106.616,279.679,112.8,286.5l-6.658,7.128V279.679Zm1,0,11.559-.007-5.87,6.284Zm-.787-2.045,6.466-6.922,6.266,6.915Zm-.693-.346V263.337h.476l6.182,6.823Zm1.48-13.951,11.559-.007-5.87,6.284Zm-.787-2.043,6.466-6.923,6.266,6.915Zm-.693-.347V247h.476l6.182,6.823ZM107.619,247l11.559-.007-5.87,6.284Zm-.787-2.045,6.466-6.922,6.266,6.915Zm-.693-.346V230.654h.476l6.182,6.823Zm1.48-13.951,11.559-.007-5.87,6.284Zm-.787-2.045,6.466-6.922,6.266,6.915Zm-.693-.346V214.312h.476l6.182,6.823Zm1.48-13.951,11.559-.007-5.87,6.284Zm-.787-2.043,6.466-6.923,6.266,6.915Zm-.693-.347V197.971h.476l6.182,6.823Zm1.48-13.951,11.559-.007-5.87,6.284Zm-.787-2.045L113.3,189l6.266,6.915Zm-.693-.346V181.629h.476l6.182,6.823Zm1.48-13.951,11.559-.007-5.87,6.285Zm-.787-2.045,6.466-6.922,6.266,6.915Zm-.693-.346V165.287h.476l6.182,6.823Zm1.48-13.951,11.559-.007-5.87,6.285Zm-.787-2.045,6.466-6.922,6.266,6.915Zm-.693-.346v-13.95h.476l6.182,6.823Zm1.48-13.951,11.559-.007-5.87,6.285Zm-.787-2.043,6.466-6.923,6.266,6.915Zm-.693-.347v-13.95h.476l6.182,6.823Zm1.48-13.951,11.559-.007-5.87,6.285Zm-.787,161.372,6.466-6.922,6.266,6.915Zm6.975-7.467,6.211-6.649v13.5Zm0-16.341,6.211-6.649v13.5Zm0-16.343,6.211-6.648v13.5Zm0-16.342,6.211-6.649v13.5Zm0-16.342,6.211-6.648V228Zm0-16.341,6.211-6.649v13.5Zm0-16.342,6.211-6.649v13.5Zm0-16.342,6.211-6.649v13.5Zm0-16.342,6.211-6.649v13.5Zm0-16.342,6.211-6.649v13.5Zm6.01-8.882-13.247.008,6.728-7.2Zm-6.01-7.74,6.211-6.649v13.5Zm-7.668,7.12v-13.95h.476l6.182,6.823Zm0,166.088h.476l6.182,6.823-6.658,7.128Zm1.48,0,11.559-.007-5.87,6.284Zm12.4.18v13.5l-6.211-6.855ZM113.308,122.26l-5.689-6.278,11.559-.007ZM113.3,303.4l6.266,6.915-12.732.007Zm-5.68-204.035,11.559-.007-5.87,6.284Zm12.2,14.57-13.247.008,6.728-7.2Z" transform="translate(-103.454 -97.309)" fill="#e0e0e0"/>
                  </g>
                </g>
              </g>
              <g id="Grupo_131233" data-name="Grupo 131233" transform="translate(16.762 60.808)">
                <g id="Grupo_131232" data-name="Grupo 131232">
                  <g id="Grupo_131231" data-name="Grupo 131231">
                    <path id="Trazado_138544" data-name="Trazado 138544" d="M331.89,96.939l-20.183-14.96a5.7,5.7,0,0,0-3.4-1.122H43.9v2.686h1.218l.007,13.88H43.9v2.686H330.93a1.612,1.612,0,0,0,1.612-1.611v-.265A1.613,1.613,0,0,0,331.89,96.939Zm-32.77-7.185-6.649-6.211h13.5ZM306.581,84l.007,12.732-6.923-6.466Zm-14.3.387,6.285,5.87-6.278,5.689Zm-9.5,5.369-6.649-6.211h13.5ZM290.239,84l.007,12.732-6.923-6.466Zm-14.3.387,6.285,5.87-6.278,5.689Zm-9.5,5.369-6.649-6.211h13.5ZM273.9,84,273.9,96.73l-6.923-6.466Zm-14.3.387,6.285,5.87-6.278,5.689Zm-9.5,5.369-6.649-6.211h13.5ZM257.556,84l.007,12.732-6.923-6.466Zm-14.3.387,6.285,5.87-6.278,5.689Zm-9.5,5.369L227.1,83.543h13.5ZM241.214,84l.007,12.732L234.3,90.264Zm-14.3.387,6.285,5.87-6.278,5.689Zm-9.5,5.369-6.649-6.211h13.5ZM224.873,84l.007,12.732-6.922-6.466Zm-14.3.387,6.285,5.87-6.278,5.689Zm-9.5,5.369-6.649-6.211h13.5ZM208.531,84l.007,12.732-6.923-6.466Zm-14.3.387,6.285,5.87-6.278,5.689Zm-9.5,5.369-6.649-6.211h13.5ZM192.189,84,192.2,96.73l-6.922-6.466Zm-14.3.387,6.285,5.87L177.9,95.943ZM175.854,96.73l-6.922-6.466L175.848,84Zm2.045.216,6.823-6.182,7.127,6.658H177.9Zm16.342,0,6.822-6.182,7.128,6.658h-13.95Zm16.342,0,6.822-6.182,7.128,6.658h-13.95Zm16.342,0,6.822-6.182,7.128,6.658h-13.95Zm16.342,0,6.822-6.182,7.128,6.658h-13.95Zm16.342,0,6.822-6.182,7.128,6.658h-13.95Zm16.342,0,6.822-6.182,7.128,6.658h-13.95Zm16.342,0,6.822-6.182,7.128,6.658H292.29Zm-117.048-13.4-6.855,6.211-6.649-6.211h13.5Zm-128.083.842,6.284,5.87-6.278,5.689Zm.187-.842h13.5L54,89.754Zm104.7,6.211L145.4,83.543h13.5ZM159.506,84l.007,12.732-6.922-6.466Zm-14.3.387,6.285,5.87-6.278,5.689Zm-9.5,5.369-6.649-6.211h13.5ZM143.164,84l.007,12.732-6.922-6.466Zm-14.3.387,6.284,5.87-6.278,5.689Zm-9.505,5.369-6.649-6.211h13.5ZM126.823,84l.007,12.732-6.923-6.466Zm-14.3.387,6.285,5.87-6.278,5.689Zm-9.5,5.369-6.649-6.211h13.5ZM110.481,84l.007,12.732-6.922-6.466Zm-14.3.387,6.285,5.87L96.19,95.943Zm-9.5,5.369-6.649-6.211h13.5ZM94.139,84l.007,12.732-6.922-6.466Zm-14.3.387,6.284,5.87-6.278,5.689Zm-9.505,5.369-6.649-6.211h13.5ZM77.8,84,77.8,96.73l-6.922-6.466Zm-14.3.387,6.284,5.87-6.278,5.689ZM61.456,84l.007,12.732-6.922-6.466Zm2.051,12.949,6.823-6.182,7.127,6.658H63.507Zm16.342,0,6.823-6.182L93.8,97.423H79.849Zm16.342,0,6.823-6.182,7.127,6.658H96.191Zm16.342,0,6.823-6.182,7.127,6.658h-13.95Zm16.342,0,6.823-6.182,7.127,6.658h-13.95Zm16.342,0,6.822-6.182,7.128,6.658h-13.95Zm16.334-12.562,6.285,5.87-6.278,5.689ZM47.166,96.946l6.823-6.182,7.127,6.658H47.166Zm114.392.476v-.476l6.823-6.182,7.127,6.658h-13.95Zm147.075,0-.008-13.853a6.1,6.1,0,0,1,3.14,1.066L330.14,97.423Z" transform="translate(-43.896 -80.857)" fill="#e0e0e0"/>
                  </g>
                </g>
              </g>
              <g id="Grupo_131236" data-name="Grupo 131236" transform="translate(75.556 57.739)">
                <g id="Grupo_131235" data-name="Grupo 131235">
                  <g id="Grupo_131234" data-name="Grupo 131234">
                    <path id="Trazado_138545" data-name="Trazado 138545" d="M96.486,80.944c.157,8.944-.138,35.95-.138,35.95h32.433l-.872-5.33a4.574,4.574,0,0,1,.03-1.648l2.373-11.761-5.814-18.1a2.774,2.774,0,0,0-2.642-1.932H99.267A2.775,2.775,0,0,0,96.486,80.944Z" transform="translate(-96.348 -78.119)" fill="#ebebeb"/>
                  </g>
                </g>
              </g>
              <g id="Grupo_131239" data-name="Grupo 131239" transform="translate(90.575 60.303)">
                <g id="Grupo_131238" data-name="Grupo 131238">
                  <g id="Grupo_131237" data-name="Grupo 131237">
                    <path id="Trazado_138546" data-name="Trazado 138546" d="M109.747,80.407v19.756h15.515l1.606-2.133-6.022-17.623Z" transform="translate(-109.747 -80.407)" fill="#f5f5f5"/>
                  </g>
                </g>
              </g>
              <g id="Grupo_131243" data-name="Grupo 131243" transform="translate(20.212 2.36)">
                <g id="Grupo_131242" data-name="Grupo 131242">
                  <g id="Grupo_131241" data-name="Grupo 131241">
                    <g id="Grupo_131240" data-name="Grupo 131240">
                      <path id="Trazado_138547" data-name="Trazado 138547" d="M307.937,87.161s-.25-.052-.73-.179l-2.126-.584-8.159-2.3-29.977-8.564L168.106,47.068,106.581,29.261l.253-.061C89.17,45.722,74.266,59.588,63.747,69.293c-5.259,4.852-9.421,8.665-12.288,11.243-1.428,1.295-2.543,2.269-3.3,2.924s-1.187.943-1.187.943.094-.1.285-.262.483-.4.846-.744l3.242-2.984,12.186-11.35,42.941-40.247.11-.1.145.041L168.269,46.5,267.06,75.135l29.926,8.743,8.129,2.405,2.11.64C307.7,87.071,307.937,87.161,307.937,87.161Z" transform="translate(-46.974 -28.713)" fill="#e0e0e0"/>
                    </g>
                  </g>
                </g>
              </g>
              <g id="Grupo_131246" data-name="Grupo 131246" transform="translate(0 56.947)">
                <g id="Grupo_131245" data-name="Grupo 131245">
                  <g id="Grupo_131244" data-name="Grupo 131244">
                    <path id="Trazado_138548" data-name="Trazado 138548" d="M35.549,77.429a3.2,3.2,0,0,0-2.493,1.2c-1.5,1.871-3.774,5.29-3.986,5.634s-.108,11.83-.04,17.53a3.185,3.185,0,0,0,3.186,3.147H60.946a3.185,3.185,0,0,0,3.186-3.186V80.6a3.185,3.185,0,0,0-3.188-3.186Z" transform="translate(-28.942 -77.412)" fill="#ebebeb"/>
                  </g>
                </g>
              </g>
              <g id="Grupo_131249" data-name="Grupo 131249" transform="translate(83.521 292.258)">
                <g id="Grupo_131248" data-name="Grupo 131248">
                  <g id="Grupo_131247" data-name="Grupo 131247">
                    <path id="Trazado_138549" data-name="Trazado 138549" d="M121.475,291.172h-1.456v11.907l-6.211-6.855,6.388-6.838h.753v-2.044l-15.361.009V289.4h1.028l6.182,6.823-6.658,7.128V291.172h-2.686V504.181h2.686V502.4l13.879-.007v1.792h2.687V291.172Zm-14.859,178.54,6.182,6.823-6.658,7.128V469.712Zm1,0,11.559-.007-5.87,6.284Zm-.787-2.043,6.466-6.923,6.266,6.915Zm-.693-.347V453.37h.476l6.182,6.823Zm1.48-13.951,11.559-.007-5.87,6.285Zm-.787-2.043L113.3,444.4l6.266,6.915Zm-.693-.348V437.029h.476l6.182,6.823Zm1.48-13.951,11.559-.007-5.87,6.285Zm-.787-2.045,6.466-6.922,6.266,6.915Zm-.693-.346v-13.95h.476l6.182,6.823Zm1.48-13.951,11.559-.007-5.87,6.285Zm-.787-2.044,6.466-6.922,6.266,6.915Zm-.693-.346v-13.95h.476l6.182,6.823Zm1.48-13.951,11.559-.007-5.87,6.285Zm-.787-2.043,6.466-6.923,6.266,6.915Zm-.693-.347V388h.476l6.182,6.823ZM107.619,388,119.178,388l-5.87,6.285Zm-.787-2.043,6.466-6.923,6.266,6.915Zm-.693-.347v-13.95h.476l6.182,6.823Zm1.48-13.951,11.559-.007-5.87,6.285Zm-.787-2.043L113.3,362.7l6.266,6.915Zm-.693-.347V355.32h.476l6.182,6.823Zm1.48-13.951,11.559-.007-5.87,6.285Zm-.787-2.043,6.466-6.923,6.266,6.915Zm-.693-.347V338.98h.476L112.8,345.8Zm1.48-13.951,11.559-.007-5.87,6.285Zm-.787-2.043,6.466-6.923,6.266,6.915Zm-.693-.348v-13.95h.476l6.182,6.823Zm1.48-13.951,11.559-.007-5.87,6.285Zm-.787,161.373,6.466-6.923L119.565,484Zm6.975-7.467,6.211-6.649v13.5Zm0-16.342,6.211-6.649v13.5Zm0-16.342,6.211-6.649v13.5Zm0-16.342,6.211-6.649v13.5Zm0-16.342,6.211-6.649v13.5Zm0-16.342,6.211-6.649v13.5Zm0-16.342,6.211-6.649v13.5Zm0-16.342,6.211-6.649v13.5Zm0-16.342,6.211-6.649v13.5Zm0-16.342,6.211-6.649v13.5Zm6.01-8.882-13.247.008,6.728-7.2Zm-6.01-7.74,6.211-6.649v13.5Zm-7.668,7.12v-13.95h.476l6.182,6.822Zm0,166.088h.476l6.182,6.823L106.14,500Zm1.48,0,11.559-.007-5.87,6.284Zm12.4.182v13.5l-6.211-6.855Zm-6.711-173.942-5.689-6.278,11.559-.007ZM113.3,493.429l6.266,6.915-12.732.007Zm-5.68-204.035,11.559-.007-5.87,6.284Zm12.2,14.569-13.247.008,6.728-7.2Z" transform="translate(-103.454 -287.342)" fill="#e0e0e0"/>
                  </g>
                </g>
              </g>
            </g>
            <g id="Grupo_131252" data-name="Grupo 131252" transform="translate(85.901 4.874)">
              <g id="Grupo_131251" data-name="Grupo 131251">
                <path id="Trazado_138550" data-name="Trazado 138550" d="M114.125,35.23a4.274,4.274,0,1,1-4.274-4.274A4.274,4.274,0,0,1,114.125,35.23Z" transform="translate(-105.577 -30.956)" fill="#ebebeb"/>
              </g>
            </g>
            <g id="Grupo_131254" data-name="Grupo 131254" transform="translate(76.436 1.15)">
              <g id="Grupo_131253" data-name="Grupo 131253">
                <path id="Trazado_138551" data-name="Trazado 138551" d="M101.89,30.013a2.379,2.379,0,1,1-2.379-2.379A2.378,2.378,0,0,1,101.89,30.013Z" transform="translate(-97.133 -27.634)" fill="#ebebeb"/>
              </g>
            </g>
          </g>
          <g id="Grupo_131256" data-name="Grupo 131256" transform="translate(325.076 10.089)">
            <path id="Trazado_138552" data-name="Trazado 138552" d="M370.057,55.366c.659-4.794-6.107-8.739-11.192-9.148-2.425-.2-4.943.175-7.24-.625-4.977-1.735-6.965-8.165-11.821-10.214-3.631-1.531-7.81-.167-11.33,1.6s-7,4-10.931,4.253c-3.42.219-7.135-1.05-10.127.621-2.229,1.245-3.4,3.814-5.453,5.331-2.011,1.483-4.634,1.8-7.129,1.932s-5.078.161-7.35,1.2-4.152,3.442-3.68,5.9Z" transform="translate(-283.731 -34.716)" fill="#ebebeb"/>
          </g>
        </g>
        <g id="Floor" transform="translate(40.356 536.336)">
          <g id="Grupo_131257" data-name="Grupo 131257" transform="translate(0)">
            <path id="Trazado_138553" data-name="Trazado 138553" d="M513.569,481.646c0,.161-106.523.291-237.9.291-131.418,0-237.919-.13-237.919-.291s106.5-.291,237.919-.291C407.046,481.355,513.569,481.485,513.569,481.646Z" transform="translate(-37.754 -481.355)" fill="#b5b9ba"/>
          </g>
        </g>
        <g id="Scaffold" transform="translate(16.232 58.107)">
          <g id="Grupo_131279" data-name="Grupo 131279">
            <g id="Grupo_131259" data-name="Grupo 131259" transform="translate(65.743 242.158)">
              <path id="Trazado_138554" data-name="Trazado 138554" d="M267.847,270.747l3.871,4.571L79.116,448.562l-3.871-4.571Z" transform="translate(-74.84 -270.747)" fill="#e0e0e0"/>
              <g id="Grupo_131258" data-name="Grupo 131258">
                <path id="Trazado_138555" data-name="Trazado 138555" d="M267.891,270.747s-.337.321-.992.919l-2.907,2.642c-2.562,2.318-6.326,5.723-11.175,10.108L211.68,321.539,75.485,444.208l.027-.406,3.863,4.562.008.009-.417-.028C173.673,363.157,252.82,292.1,271.72,275.273l-.006.084-2.863-3.436c-.639-.771-.961-1.175-.961-1.175s.324.361.976,1.114l2.94,3.418.038.045-.044.039c-18.725,17.02-97.739,88.227-192.447,173.416l-.224.2-.194-.229-.008-.01-3.863-4.561-.183-.216.211-.189L211.616,321.136l41.2-36.944,11.18-10,2.9-2.585C267.557,271.028,267.891,270.747,267.891,270.747Z" transform="translate(-74.884 -270.747)" fill="#b5b9ba"/>
              </g>
            </g>
            <g id="Grupo_131261" data-name="Grupo 131261" transform="translate(64.58 243.021)">
              <path id="Trazado_138556" data-name="Trazado 138556" d="M272.992,442.775l-4.084,4.381L74.219,276.261l4.084-4.381Z" transform="translate(-73.801 -271.473)" fill="#e0e0e0"/>
              <g id="Grupo_131260" data-name="Grupo 131260">
                <path id="Trazado_138557" data-name="Trazado 138557" d="M273.037,442.818s-.359-.3-1.03-.875-1.667-1.449-2.965-2.576l-11.353-9.91-41.7-36.487L78.156,272.142l.406-.02-4.074,4.372-.009.01-.021-.418c95.734,84.033,175.608,154.277,194.536,171.068l-.084,0,3.075-3.247c.692-.725,1.054-1.093,1.054-1.093s-.321.365-.992,1.1-1.7,1.853-3.048,3.321l-.039.044-.046-.039c-19.1-16.593-99.107-86.687-194.84-170.721l-.226-.2.205-.22.009-.01,4.074-4.372.194-.207.213.187,137.84,121.154,41.532,36.575,11.245,9.926,2.909,2.58C272.718,442.52,273.037,442.818,273.037,442.818Z" transform="translate(-73.846 -271.517)" fill="#b5b9ba"/>
              </g>
            </g>
            <g id="Grupo_131263" data-name="Grupo 131263" transform="translate(264.15 242.158)">
              <path id="Trazado_138558" data-name="Trazado 138558" d="M444.854,270.747l3.871,4.571-192.6,173.244-3.871-4.571Z" transform="translate(-251.846 -270.747)" fill="#e0e0e0"/>
              <g id="Grupo_131262" data-name="Grupo 131262">
                <path id="Trazado_138559" data-name="Trazado 138559" d="M444.9,270.747s-.336.321-.991.919L441,274.308l-11.175,10.108-41.137,37.122-136.2,122.669.028-.406c1.22,1.441,2.539,3,3.863,4.562l.008.009-.418-.028c94.707-85.189,173.856-156.25,192.756-173.072l-.006.084-2.864-3.436c-.638-.771-.961-1.175-.961-1.175s.325.361.977,1.114l2.94,3.418.038.045-.044.039c-18.725,17.02-97.739,88.227-192.447,173.416l-.224.2-.194-.229-.009-.01-3.862-4.561-.184-.216.211-.189L388.622,321.136l41.2-36.944,11.179-10,2.9-2.585C444.563,271.028,444.9,270.747,444.9,270.747Z" transform="translate(-251.89 -270.747)" fill="#b5b9ba"/>
              </g>
            </g>
            <g id="Grupo_131265" data-name="Grupo 131265" transform="translate(262.988 243.021)">
              <path id="Trazado_138560" data-name="Trazado 138560" d="M450,442.775l-4.084,4.381-194.689-170.9,4.084-4.381Z" transform="translate(-250.808 -271.473)" fill="#e0e0e0"/>
              <g id="Grupo_131264" data-name="Grupo 131264">
                <path id="Trazado_138561" data-name="Trazado 138561" d="M450.043,442.818s-.358-.3-1.029-.875l-2.965-2.576-11.353-9.91-41.7-36.487L255.163,272.142l.406-.02-4.076,4.372-.008.01-.021-.418C347.2,360.119,427.07,430.363,446,447.154l-.085,0,3.076-3.247c.69-.725,1.053-1.093,1.053-1.093s-.319.365-.991,1.1L446,447.241l-.04.044-.045-.039c-19.1-16.593-99.107-86.687-194.841-170.721l-.225-.2.205-.22.008-.01,4.076-4.372.193-.207.213.187L393.388,392.858c17.545,15.453,31.727,27.941,41.532,36.575l11.245,9.926,2.908,2.58C449.725,442.52,450.043,442.818,450.043,442.818Z" transform="translate(-250.853 -271.517)" fill="#b5b9ba"/>
              </g>
            </g>
            <g id="Grupo_131267" data-name="Grupo 131267" transform="translate(0 240.057)">
              <rect id="Rectángulo_41239" data-name="Rectángulo 41239" width="524.674" height="6.155" transform="translate(0.292 0.292)" fill="#e0e0e0"/>
              <g id="Grupo_131266" data-name="Grupo 131266">
                <path id="Trazado_138562" data-name="Trazado 138562" d="M541.2,275.32c0-.226-.008-1.276-.035-6.155l.035.034-524.649.258h-.026l.293-.291v6.155l-.293-.291,524.675.291-524.675.293h-.291v-6.74h.317l524.649.258h.034v.035C541.205,274.045,541.2,275.094,541.2,275.32Z" transform="translate(-16.232 -268.873)" fill="#b5b9ba"/>
              </g>
            </g>
            <g id="Grupo_131269" data-name="Grupo 131269" transform="translate(61.711)">
              <rect id="Rectángulo_41240" data-name="Rectángulo 41240" width="5.99" height="478.229" transform="translate(0.292 0.292)" fill="#e0e0e0"/>
              <g id="Grupo_131268" data-name="Grupo 131268">
                <path id="Trazado_138563" data-name="Trazado 138563" d="M77.569,533.23c0-3.2-.13-213.571-.291-478.228l.291.291H71.58L71.871,55c0,247.109-.111,450.927-.256,478.228l-.036-.036,5.989.036-5.989.036h-.037v-.037C71.4,505.929,71.287,302.11,71.287,55v-.293h6.574V55C77.7,319.658,77.571,530.033,77.569,533.23Z" transform="translate(-71.287 -54.709)" fill="#b5b9ba"/>
              </g>
            </g>
            <g id="Grupo_131271" data-name="Grupo 131271" transform="translate(260.544)">
              <rect id="Rectángulo_41241" data-name="Rectángulo 41241" width="5.99" height="478.229" transform="translate(0.292 0.292)" fill="#e0e0e0"/>
              <g id="Grupo_131270" data-name="Grupo 131270">
                <path id="Trazado_138564" data-name="Trazado 138564" d="M254.955,533.23c0-3.2-.13-213.571-.293-478.228l.293.291h-5.99l.293-.291c0,247.109-.112,450.927-.256,478.228l-.037-.036,5.99.036-5.99.036h-.036v-.037c-.145-27.3-.256-231.119-.256-478.228v-.293h6.573V55C255.085,319.658,254.957,530.033,254.955,533.23Z" transform="translate(-248.673 -54.709)" fill="#b5b9ba"/>
              </g>
            </g>
            <g id="Grupo_131273" data-name="Grupo 131273" transform="translate(459.377)">
              <rect id="Rectángulo_41242" data-name="Rectángulo 41242" width="5.99" height="478.229" transform="translate(0.292 0.292)" fill="#e0e0e0"/>
              <g id="Grupo_131272" data-name="Grupo 131272">
                <path id="Trazado_138565" data-name="Trazado 138565" d="M432.341,533.23c0-3.2-.131-213.571-.293-478.228l.291.291H426.35l.291-.291c0,247.109-.111,450.927-.256,478.228l-.036-.036,5.99.036-5.99.036h-.036v-.037c-.145-27.3-.256-231.119-.256-478.228v-.293h6.573V55C432.471,319.658,432.342,530.033,432.341,533.23Z" transform="translate(-426.059 -54.709)" fill="#b5b9ba"/>
              </g>
            </g>
            <g id="Grupo_131275" data-name="Grupo 131275" transform="translate(2.375 414.03)">
              <rect id="Rectángulo_41243" data-name="Rectángulo 41243" width="511.12" height="6.155" transform="translate(0.292 0.292)" fill="#e0e0e0"/>
              <g id="Grupo_131274" data-name="Grupo 131274">
                <path id="Trazado_138566" data-name="Trazado 138566" d="M529.762,430.528c0-.233-.007-1.309-.035-6.155l.035.034c-28.046.146-246.367.258-511.094.258h-.025l.291-.291v6.155l-.291-.291,511.119.291-511.119.291h-.293v-6.739h.317l511.094.257h.036v.036C529.77,429.219,529.764,430.3,529.762,430.528Z" transform="translate(-18.351 -424.081)" fill="#b5b9ba"/>
              </g>
            </g>
            <g id="Grupo_131278" data-name="Grupo 131278" transform="translate(1.626 129.404)">
              <g id="Grupo_131277" data-name="Grupo 131277">
                <rect id="Rectángulo_41244" data-name="Rectángulo 41244" width="507.068" height="6.155" transform="translate(0.292 0.292)" fill="#e0e0e0"/>
                <g id="Grupo_131276" data-name="Grupo 131276">
                  <path id="Trazado_138567" data-name="Trazado 138567" d="M525.043,176.6c0-.234-.007-1.319-.035-6.155l.035.035c-28.048.145-244.552.257-507.043.257h-.025l.291-.291V176.6l-.291-.291,507.068.291-507.068.291h-.293v-6.74H18c262.491,0,478.995.112,507.043.257h.036v.036C525.051,175.283,525.046,176.368,525.043,176.6Z" transform="translate(-17.683 -170.155)" fill="#b5b9ba"/>
                </g>
              </g>
            </g>
            <rect id="Rectángulo_41245" data-name="Rectángulo 41245" width="20.796" height="5.49" transform="translate(54.6 332.968)" fill="#e0e0e0"/>
            <rect id="Rectángulo_41246" data-name="Rectángulo 41246" width="20.796" height="5.49" transform="translate(53.907 75.028)" fill="#e0e0e0"/>
            <rect id="Rectángulo_41247" data-name="Rectángulo 41247" width="20.796" height="5.49" transform="translate(253.71 332.213)" fill="#e0e0e0"/>
            <rect id="Rectángulo_41248" data-name="Rectángulo 41248" width="20.796" height="5.49" transform="translate(451.661 332.213)" fill="#e0e0e0"/>
            <rect id="Rectángulo_41249" data-name="Rectángulo 41249" width="20.796" height="5.49" transform="translate(253.71 75.028)" fill="#e0e0e0"/>
            <rect id="Rectángulo_41250" data-name="Rectángulo 41250" width="20.796" height="5.49" transform="translate(451.661 75.028)" fill="#e0e0e0"/>
          </g>
        </g>
      </g>
      <rect id="Rectángulo_41251" data-name="Rectángulo 41251" width="610" height="5" rx="2.5" transform="translate(495 4090)" fill="#261a4d"/>
      <g id="Grupo_131283" data-name="Grupo 131283" transform="translate(26.486 3379.867)">
        <g id="Grupo_131074" data-name="Grupo 131074" transform="translate(678.514 255.592)">
          <g id="Grupo_131060" data-name="Grupo 131060" transform="translate(27.13 415.885)">
            <path id="Trazado_138428" data-name="Trazado 138428" d="M779.686,1696.388h5.383c5.568,0,12.927-4.514,12.927-10.081v-15.038a1.294,1.294,0,0,1,1.138-1.288,72.638,72.638,0,0,1,17.769-.013,1.292,1.292,0,0,1,1.121,1.285v27.764l1.1.634a1.2,1.2,0,0,1,.6,1.042v4.248a1.2,1.2,0,0,1-.6,1.042l-1.1.634v1.8a4.328,4.328,0,0,1-4.384,4.384c-5.3,0-7.508-1.313-13.126-1.313s-8.755,1.313-12.585,1.313a89.409,89.409,0,0,1-12.9-1.259,5.174,5.174,0,0,1-4.284-5.1v-1.12A8.941,8.941,0,0,1,779.686,1696.388Z" transform="translate(-770.745 -1669.429)" fill="#261a4d"/>
            <path id="Trazado_138429" data-name="Trazado 138429" d="M863.385,1671.268a1.294,1.294,0,0,1,1.138-1.288,72.638,72.638,0,0,1,17.769-.013,1.293,1.293,0,0,1,1.121,1.285v16.489l-20.027-11.528Z" transform="translate(-836.135 -1669.429)" fill="#233a49"/>
            <path id="Trazado_138430" data-name="Trazado 138430" d="M882.923,1703.738a.205.205,0,0,1-.1-.027l-20.027-11.528a.2.2,0,0,1,.2-.354l20.027,11.528a.2.2,0,0,1-.1.381Z" transform="translate(-835.645 -1685.221)" fill="#d66371"/>
            <path id="Trazado_138431" data-name="Trazado 138431" d="M790.279,1779.433a63.284,63.284,0,0,1-16.047-2.33.2.2,0,1,1,.1-.4,62.938,62.938,0,0,0,15.949,2.318,26.383,26.383,0,0,0,4.36-.5,45.738,45.738,0,0,1,8.225-.809,40.553,40.553,0,0,1,7.481.732,15.739,15.739,0,0,1,1.717.388.2.2,0,1,1-.117.391,15.709,15.709,0,0,0-1.668-.377,40.192,40.192,0,0,0-7.412-.726,45.366,45.366,0,0,0-8.157.8A26.714,26.714,0,0,1,790.279,1779.433Z" transform="translate(-773.097 -1745.147)" fill="#fedc72"/>
            <path id="Trazado_138432" data-name="Trazado 138432" d="M904.566,1764.972c-3.607,0-8.576-5.085-8.576-8.777,0-3.458,2.326-5.523,6.223-5.523a8.2,8.2,0,0,1,4.322,1.068.2.2,0,0,1-.216.346,7.8,7.8,0,0,0-4.106-1.006c-3.641,0-5.815,1.912-5.815,5.115,0,3.441,4.809,8.369,8.168,8.369a.2.2,0,0,1,0,.408Z" transform="translate(-859.149 -1726.775)" fill="#fedc72"/>
            <path id="Trazado_138433" data-name="Trazado 138433" d="M882.922,1683.034H862.9a.2.2,0,1,1,0-.408h20.027a.2.2,0,1,1,0,.408Z" transform="translate(-835.645 -1678.744)" fill="#d66371"/>
            <path id="Trazado_138434" data-name="Trazado 138434" d="M800.512,1796.515c-5.618,0-8.755,1.313-12.585,1.313a76.6,76.6,0,0,1-12.9-1.259h0a5.174,5.174,0,0,1-4.284-5.1v-1.12q0-.235.012-.466c4.39,1.075,10.092,2.62,17.17,2.62a26.576,26.576,0,0,0,4.394-.506,45.509,45.509,0,0,1,8.191-.807,40.4,40.4,0,0,1,7.446.729,30.439,30.439,0,0,0,5.68.584,33.153,33.153,0,0,0,4.384-.525v1.462a4.328,4.328,0,0,1-4.384,4.384C808.337,1797.828,806.13,1796.515,800.512,1796.515Z" transform="translate(-770.745 -1754.454)" fill="#5038a1"/>
          </g>
          <g id="Grupo_131061" data-name="Grupo 131061" transform="translate(115.365 415.885)">
            <path id="Trazado_138435" data-name="Trazado 138435" d="M1110.741,1696.388h-5.383c-5.568,0-12.927-4.514-12.927-10.081v-15.038a1.294,1.294,0,0,0-1.138-1.288,72.638,72.638,0,0,0-17.769-.013,1.293,1.293,0,0,0-1.121,1.285v27.764l-1.1.634a1.2,1.2,0,0,0-.6,1.042v4.248a1.2,1.2,0,0,0,.6,1.042l1.1.634v1.8a4.328,4.328,0,0,0,4.384,4.384c5.3,0,7.508-1.313,13.126-1.313s8.755,1.313,12.585,1.313a89.4,89.4,0,0,0,12.9-1.259,5.174,5.174,0,0,0,4.284-5.1v-1.12A8.941,8.941,0,0,0,1110.741,1696.388Z" transform="translate(-1070.708 -1669.429)" fill="#261a4d"/>
            <path id="Trazado_138436" data-name="Trazado 138436" d="M1096.5,1671.268a1.294,1.294,0,0,0-1.138-1.288,72.637,72.637,0,0,0-17.769-.013,1.292,1.292,0,0,0-1.121,1.285v16.489l20.027-11.528Z" transform="translate(-1074.778 -1669.429)" fill="#233a49"/>
            <path id="Trazado_138437" data-name="Trazado 138437" d="M1075.985,1703.738a.2.2,0,0,1-.1-.381l20.027-11.527a.2.2,0,0,1,.2.354l-20.028,11.527A.2.2,0,0,1,1075.985,1703.738Z" transform="translate(-1074.288 -1685.221)" fill="#d66371"/>
            <path id="Trazado_138438" data-name="Trazado 138438" d="M1126.169,1779.433a26.707,26.707,0,0,1-4.428-.51,45.371,45.371,0,0,0-8.157-.8,40.19,40.19,0,0,0-7.411.726,15.735,15.735,0,0,0-1.669.377.2.2,0,0,1-.117-.391,15.726,15.726,0,0,1,1.717-.388,40.544,40.544,0,0,1,7.48-.732,45.719,45.719,0,0,1,8.225.809,26.4,26.4,0,0,0,4.361.5,62.939,62.939,0,0,0,15.949-2.318.2.2,0,1,1,.1.4A63.285,63.285,0,0,1,1126.169,1779.433Z" transform="translate(-1094.377 -1745.147)" fill="#fdb74d"/>
            <path id="Trazado_138439" data-name="Trazado 138439" d="M1077.843,1764.972a.2.2,0,0,1,0-.408c3.359,0,8.168-4.927,8.168-8.369,0-3.2-2.174-5.115-5.815-5.115a7.8,7.8,0,0,0-4.106,1.006.2.2,0,1,1-.216-.346,8.2,8.2,0,0,1,4.322-1.068c3.9,0,6.223,2.065,6.223,5.523C1086.419,1759.887,1081.449,1764.972,1077.843,1764.972Z" transform="translate(-1074.286 -1726.775)" fill="#fdb74d"/>
            <path id="Trazado_138440" data-name="Trazado 138440" d="M1096.012,1683.034h-20.027a.2.2,0,1,1,0-.408h20.027a.2.2,0,0,1,0,.408Z" transform="translate(-1074.289 -1678.744)" fill="#d66371"/>
            <path id="Trazado_138441" data-name="Trazado 138441" d="M1093.984,1796.515c5.618,0,8.755,1.313,12.585,1.313a76.592,76.592,0,0,0,12.9-1.259h0a5.174,5.174,0,0,0,4.284-5.1v-1.12q0-.235-.012-.466c-4.39,1.075-10.092,2.62-17.17,2.62a26.576,26.576,0,0,1-4.394-.506,45.508,45.508,0,0,0-8.191-.807,40.392,40.392,0,0,0-7.446.729,30.439,30.439,0,0,1-5.68.584,33.152,33.152,0,0,1-4.384-.525v1.462a4.328,4.328,0,0,0,4.384,4.384C1086.159,1797.828,1088.366,1796.515,1093.984,1796.515Z" transform="translate(-1074.778 -1754.454)" fill="#5038a1"/>
          </g>
          <path id="Trazado_138442" data-name="Trazado 138442" d="M892.491,468.925s-4.543-5.626-2.347-12.212c3.354-10.062,20.892-7,27.5-6.9s20.125-.191,22.425,6.229c1.635,4.565-1.917,13.033-1.917,13.033Z" transform="translate(-827.469 -392.32)" fill="#5038a1"/>
          <g id="Grupo_131065" data-name="Grupo 131065" transform="translate(0 63.762)">
            <g id="Grupo_131064" data-name="Grupo 131064">
              <path id="Trazado_138443" data-name="Trazado 138443" d="M1183.871,1014.766c.149,1.585,4.779,2.844,12.661,2.742,4.057-.052,13.6-1.357,14.331-2.87l-.658-9.106-25.564.606Z" transform="translate(-1035.218 -848.696)" fill="#09151c"/>
              <path id="Trazado_138444" data-name="Trazado 138444" d="M691.3,1029.937c.293,2.561,2.438,3.291,12.054,3.192,4.344-.045,11.952.83,12.84-1.436l-7.785-13.279-15.024.219Z" transform="translate(-687.537 -857.789)" fill="#09151c"/>
              <g id="Grupo_131062" data-name="Grupo 131062" transform="translate(7.518 166.609)">
                <path id="Trazado_138445" data-name="Trazado 138445" d="M718.549,1040.1s-.986,4.975-.171,7.16,4.711,14.7,2.809,15.465-3.62,1.972-5.795-5.708c0,0-2.336,1.04-1.989,2.827s4.285,3.463,4.711,4.649a1.711,1.711,0,0,1-1.61,2.265s3.412,1.485,1.578,3.6c0,0-.531.787-2.313.156,0,0,1.481,4.105-.962,4.092s-9.179-5.538-9.751-7.477a48.185,48.185,0,0,1-.96-9.966c.142-1.785,2.349-13.538,2.282-18.406Z" transform="translate(-704.072 -1038.755)" fill="#261a4d"/>
                <path id="Trazado_138446" data-name="Trazado 138446" d="M710.411,1044.569l.281.067s6.321,1.505,11.622-.354l.224.018a29.612,29.612,0,0,1,.485-4.2l-12.172-1.345A48.024,48.024,0,0,1,710.411,1044.569Z" transform="translate(-708.546 -1038.755)" fill="#f3aa8b"/>
                <path id="Trazado_138447" data-name="Trazado 138447" d="M732.674,1114.178c1.835-2.113-1.578-3.6-1.578-3.6a1.711,1.711,0,0,0,1.61-2.265c-.426-1.187-4.364-2.862-4.711-4.649s1.989-2.827,1.989-2.827c-5.667,1.817-5.6,9.792-4.926,11.663s5.326,5.562,5.326,5.562h0c.96-1-.024-3.728-.024-3.728C732.144,1114.965,732.674,1114.178,732.674,1114.178Z" transform="translate(-718.665 -1082.576)" fill="#5038a1"/>
              </g>
              <path id="Trazado_138448" data-name="Trazado 138448" d="M743.536,491.258s-.8,6.511-8.377,8.377-24.033,8.23-30.837,12.84-14.116,31.929-17.278,45.72a266.742,266.742,0,0,0-5.558,36.138c-.439,7.462.278,17.641-1.917,27.738s-.806,21.729,2.706,35.775c.22-1.463,7.363-1.971,12.416-1.683,5.121.293,11.546,1.331,12.478,3.438,0,0,3.891-16.969,2.3-33,0,0,3.45-18.455,3.738-25.46A251.81,251.81,0,0,1,715.793,571c2.049-13.754,4.075-28.826,5.538-34.093l18.4-10.681Z" transform="translate(-678.514 -485.698)" fill="#5038a1"/>
              <g id="Grupo_131063" data-name="Grupo 131063" transform="translate(154.193 161.411)">
                <path id="Trazado_138449" data-name="Trazado 138449" d="M1203.807,1023.629s1.474,4.853.88,7.108-3.23,15.1-1.262,15.667,3.8,1.6,5.2-6.255c0,0,2.428.8,2.26,2.616s-3.92,3.871-4.226,5.094a1.711,1.711,0,0,0,1.827,2.094s-3.249,1.816-1.213,3.737c0,0,.606.73,2.317-.073,0,0-1.067,4.232,1.363,3.976s8.584-6.422,8.961-8.408a48.173,48.173,0,0,0-.033-10.013c-.318-1.761-3.68-13.238-4.1-18.089Z" transform="translate(-1202.707 -1021.084)" fill="#261a4d"/>
                <path id="Trazado_138450" data-name="Trazado 138450" d="M1219.439,1026.825l-.273.095s-6.14,2.125-11.6.8l-.222.04a29.627,29.627,0,0,0-.9-4.13l11.978-2.545A48.009,48.009,0,0,0,1219.439,1026.825Z" transform="translate(-1205.346 -1021.084)" fill="#f3aa8b"/>
                <path id="Trazado_138451" data-name="Trazado 138451" d="M1216.62,1099.44c-2.035-1.921,1.213-3.737,1.213-3.737a1.711,1.711,0,0,1-1.827-2.094c.306-1.223,4.058-3.281,4.227-5.094s-2.26-2.616-2.26-2.616c5.82,1.246,6.542,9.189,6.058,11.117s-4.749,6.063-4.749,6.063h0c-1.054-.9-.346-3.712-.346-3.712C1217.226,1100.17,1216.62,1099.44,1216.62,1099.44Z" transform="translate(-1212.055 -1066.833)" fill="#5038a1"/>
              </g>
              <path id="Trazado_138452" data-name="Trazado 138452" d="M1052.157,472.355s-.878,6.292,4.829,8.926,31.36,12.886,35.654,16.288c9.071,7.185,20.506,51.284,21.53,62.21,1.15,12.267,1.362,29.561,3.514,42.778,2.683,16.479.175,35.741.175,35.741-.415-1.636-9-2.276-13.784-2.3-4.455-.021-12.1,1.236-13.207,2.506,0,0-5.289-15.444-4.284-28.094,0,0-2.223-25.47-2.442-36.224s-3.965-28.962-3.965-28.962l-3.073-19.754-18.875-16.022Z" transform="translate(-942.215 -472.355)" fill="#5038a1"/>
              <path id="Trazado_138453" data-name="Trazado 138453" d="M824.16,477.915l44.921-5.56,1.9,11.3,4.17,25.789,24.8,16.022L897.1,545.224s5.268,38.629-2.2,48.725c0,0,4.17,10.316,3.293,16.461,0,0,6.126,32.865,6.126,49.546s.006,52.953,1.762,64.366,4.975,32.337.878,39.946c0,0,3.073,14.632,2.195,27.216s-1.024,21.07-1.61,27.216-.925,26.924-.925,26.924-20.193,7.9-37.459,0c0,0-2.879-24.875-3.464-35.41a116.291,116.291,0,0,0-3.219-20.485l1.756-15.51s-5.108-20.9-6.146-30.142c-1.509-13.437-4.534-29.082-5.39-39.909a44.11,44.11,0,0,1,.767-12.266l-.895-5.75a60.768,60.768,0,0,1-.907-12.894l-3.5,16.408a139.9,139.9,0,0,1,.1,14.471c-.259,4.946-1.2,10.318-1.854,11.847-4.39,10.243,1.463,30.143.293,36.288s-7.909,35.41-7.909,42.141,1.259,17.47,1.259,17.47-.381,19.7-.088,35.206c0,0-24.29,8.194-43.019,2.341a173.552,173.552,0,0,1-2.927-36.581s-4.089-22.241,2.349-44.775a92.8,92.8,0,0,1-2.049-24.582c.878-12.291,5.267-25.753,5.267-25.753s-4.258-41.361-2.21-65.065,4.836-37.361,4.836-37.361l.293-11.12s-5.56-11.706-4.682-24.582a40.145,40.145,0,0,0-4.682-21.948l2.341-35.7,27-36.983Z" transform="translate(-759.138 -472.355)" fill="#5038a1"/>
              <path id="Trazado_138454" data-name="Trazado 138454" d="M729.266,753.656c.415-2.651.543-5.175.741-7.606l-28.5-15.586a50.312,50.312,0,0,0-1.6,7.475Z" transform="translate(-693.615 -654.541)" fill="#e8e8e8"/>
              <path id="Trazado_138455" data-name="Trazado 138455" d="M1187.232,754.79l-30.618,5.287a61.713,61.713,0,0,1,.814,6.421l30.762-5.574A45.887,45.887,0,0,0,1187.232,754.79Z" transform="translate(-1015.979 -671.711)" fill="#e8e8e8"/>
              <path id="Trazado_138456" data-name="Trazado 138456" d="M965.324,535.7h-15.4a.257.257,0,1,1,0-.514h15.4a.257.257,0,1,1,0,.514Z" transform="translate(-869.908 -516.706)" fill="#8c6df2"/>
              <path id="Trazado_138457" data-name="Trazado 138457" d="M977.82,1049.148h-12a.257.257,0,0,1,0-.514h12a.257.257,0,0,1,0,.514Z" transform="translate(-881.124 -879.119)" fill="#8c6df2"/>
              <path id="Trazado_138458" data-name="Trazado 138458" d="M1047.409,916.685h-.014c-17.7-.945-30.728-1.337-40.986-1.235a.252.252,0,0,1-.26-.254.257.257,0,0,1,.254-.259c10.268-.1,23.3.29,41.019,1.235a.257.257,0,0,1-.013.513Z" transform="translate(-909.775 -784.738)" fill="#8c6df2"/>
              <path id="Trazado_138459" data-name="Trazado 138459" d="M826.63,921.023a.257.257,0,0,1-.044-.51c.1-.018,10.349-1.8,26.417-3.1l2.208-.18c3.992-.327,7.762-.636,11.831-.867a.257.257,0,1,1,.029.513c-4.063.231-7.83.54-11.819.866l-2.208.18c-16.042,1.3-26.268,3.079-26.369,3.1A.26.26,0,0,1,826.63,921.023Z" transform="translate(-782.88 -785.756)" fill="#233a49"/>
              <path id="Trazado_138460" data-name="Trazado 138460" d="M1053.008,587.263h-49.446c.007,4.934.048,9.676.285,14.547l41.48.377Z" transform="translate(-907.947 -553.462)" fill="#e4edf4"/>
              <path id="Trazado_138461" data-name="Trazado 138461" d="M783.411,587.263,793.4,601.31l39.948.363v-14.41Z" transform="translate(-752.555 -553.462)" fill="#e4edf4"/>
              <path id="Trazado_138462" data-name="Trazado 138462" d="M815.619,635.141l2.488,3.329,38.735.239c0-1.158-.762-2.291-.762-3.469Z" transform="translate(-775.289 -587.257)" fill="#fedc72"/>
              <path id="Trazado_138463" data-name="Trazado 138463" d="M1045.877,635.7l-41.742-.1c.16,1.176.273,2.353.346,3.529l39.567.249Z" transform="translate(-908.352 -587.582)" fill="#fedc72"/>
              <path id="Trazado_138569" data-name="Trazado 138569" d="M5.211,0H22.664a5.211,5.211,0,0,1,5.211,5.211V26.254a5.211,5.211,0,0,1-5.211,5.211H5.211A5.211,5.211,0,0,1,0,26.254V5.211A5.211,5.211,0,0,1,5.211,0Z" transform="translate(102.407 61.455)" fill="#332366"/>
              <path id="Rectángulo_41179" data-name="Rectángulo 41179" d="M5.211,0H24.639a5.21,5.21,0,0,1,5.21,5.21V23.4a5.211,5.211,0,0,1-5.211,5.211H5.211A5.211,5.211,0,0,1,0,23.4V5.211A5.211,5.211,0,0,1,5.211,0Z" transform="translate(44.899 62.114)" fill="#332366"/>
              <path id="Trazado_138464" data-name="Trazado 138464" d="M1055.318,724.227h-26.667a.257.257,0,1,1,0-.514h26.667a.257.257,0,0,1,0,.514Z" transform="translate(-925.476 -649.775)" fill="#5038a1"/>
              <path id="Trazado_138465" data-name="Trazado 138465" d="M860.749,720.465H831.668a.257.257,0,0,1,0-.514h29.081a.257.257,0,0,1,0,.514Z" transform="translate(-786.436 -647.12)" fill="#5038a1"/>
              <path id="Trazado_138466" data-name="Trazado 138466" d="M796.988,1353.709a92.8,92.8,0,0,0,2.049,24.582,79.625,79.625,0,0,0-2.517,12.92L844,1394.448c1.6-11.345,4.535-27.564,5.372-31.959.744-3.9-1.344-13.356-1.843-22.359l-47.735-3.254A107.007,107.007,0,0,0,796.988,1353.709Z" transform="translate(-761.808 -1082.574)" fill="#261a4d"/>
              <path id="Trazado_138467" data-name="Trazado 138467" d="M1061.534,1393.726c.2-9.458-1.874-20.717-2.359-20.631,3.9-7.235,1.177-26.5-.609-38.192l-50.187,3.885c1.294,8.337,1.924,14.114,1.924,14.114a185.216,185.216,0,0,0,6.146,30.142l-1.164,10.287Z" transform="translate(-911.348 -1081.181)" fill="#261a4d"/>
              <path id="Trazado_138468" data-name="Trazado 138468" d="M846.52,881.773a.257.257,0,0,1-.229-.14c-3.5-6.83-3.323-18.795-3.32-18.915a.257.257,0,0,1,.257-.252h0a.257.257,0,0,1,.252.261c0,.119-.177,11.957,3.264,18.671a.257.257,0,0,1-.229.374Z" transform="translate(-794.594 -747.714)" fill="#233a49"/>
              <path id="Trazado_138469" data-name="Trazado 138469" d="M866.1,889.162a.257.257,0,0,1-.218-.12c-1.356-2.157-2.276-5.319-2.736-9.4a45.265,45.265,0,0,1-.285-5.486.257.257,0,0,1,.514.013c0,.1-.2,9.6,2.942,14.6a.257.257,0,0,1-.217.394Z" transform="translate(-808.635 -755.789)" fill="#8c6df2"/>
              <path id="Trazado_138470" data-name="Trazado 138470" d="M824.343,879.88a.257.257,0,0,1-.255-.228c-.916-8.114,1.513-12.663,2.312-14.159.092-.172.164-.308.193-.379a.257.257,0,0,1,.477.191c-.039.1-.109.229-.217.43-.78,1.46-3.152,5.9-2.254,13.859a.256.256,0,0,1-.226.284Z" transform="translate(-781.123 -749.469)" fill="#8c6df2"/>
              <path id="Trazado_138471" data-name="Trazado 138471" d="M844.788,946.258a.256.256,0,0,1-.255-.229,29.047,29.047,0,0,1,5.289-20.421.257.257,0,0,1,.395.329,28.52,28.52,0,0,0-5.173,20.037.257.257,0,0,1-.227.283Z" transform="translate(-795.569 -792.217)" fill="#8c6df2"/>
              <path id="Trazado_138472" data-name="Trazado 138472" d="M881.8,940.464a.257.257,0,0,1-.251-.205c-1.824-8.9,1.773-17.121,1.81-17.2a.257.257,0,1,1,.469.209,31.122,31.122,0,0,0-1.775,16.89.257.257,0,0,1-.2.3A.268.268,0,0,1,881.8,940.464Z" transform="translate(-821.462 -790.373)" fill="#8c6df2"/>
              <path id="Trazado_138473" data-name="Trazado 138473" d="M1079.514,863.333a.256.256,0,0,1-.226-.379c.046-.086,4.644-8.737,4.213-22.11a.257.257,0,0,1,.248-.265.251.251,0,0,1,.265.248c.436,13.521-4.227,22.285-4.274,22.372A.257.257,0,0,1,1079.514,863.333Z" transform="translate(-961.377 -732.264)" fill="#8c6df2"/>
              <path id="Trazado_138474" data-name="Trazado 138474" d="M1105.007,874.473a.257.257,0,0,1-.233-.363c.043-.1,4.349-9.682,5.356-17.886a.257.257,0,1,1,.51.063c-1.017,8.283-5.354,17.939-5.4,18.036A.257.257,0,0,1,1105.007,874.473Z" transform="translate(-979.372 -743.148)" fill="#8c6df2"/>
              <path id="Trazado_138475" data-name="Trazado 138475" d="M1129.024,938.445a.257.257,0,0,1-.257-.256c-.037-7.02-1.932-14.723-4.829-19.624a.257.257,0,1,1,.442-.262c2.986,5.05,4.864,12.669,4.9,19.883a.257.257,0,0,1-.256.258Z" transform="translate(-992.89 -787.038)" fill="#233a49"/>
              <path id="Trazado_138476" data-name="Trazado 138476" d="M1106.288,932.388l-.038,0a.257.257,0,0,1-.216-.292c1-6.741-1.25-14.627-1.273-14.706a.257.257,0,0,1,.493-.143c.023.08,2.308,8.071,1.288,14.925A.257.257,0,0,1,1106.288,932.388Z" transform="translate(-979.372 -786.247)" fill="#8c6df2"/>
              <path id="Trazado_138477" data-name="Trazado 138477" d="M1082,937.861a.263.263,0,0,1-.057-.007.257.257,0,0,1-.193-.307c.153-.67.311-1.342.468-2.013,1.383-5.89,2.813-11.979,1.288-18.281a.257.257,0,1,1,.5-.121c1.554,6.42.109,12.571-1.287,18.519q-.236,1.006-.468,2.01A.258.258,0,0,1,1082,937.861Z" transform="translate(-963.133 -786.16)" fill="#8c6df2"/>
              <path id="Trazado_138478" data-name="Trazado 138478" d="M867.109,1645.8a.257.257,0,0,1-.174-.446c3.649-3.368,12.876-4.333,14.082-4.446l10.823-14.854a.257.257,0,0,1,.415.3l-10.891,14.947a.257.257,0,0,1-.186.1c-.1.009-10.2.911-13.895,4.323A.257.257,0,0,1,867.109,1645.8Z" transform="translate(-811.452 -1286.617)" fill="#8c6df2"/>
              <path id="Trazado_138479" data-name="Trazado 138479" d="M1002.706,1179.262a.256.256,0,0,1-.213-.112c-6.679-9.874-10.244-24.229-10.279-24.373a.257.257,0,0,1,.5-.122c.035.143,3.579,14.41,10.206,24.206a.257.257,0,0,1-.212.4Z" transform="translate(-899.932 -953.816)" fill="#8c6df2"/>
              <path id="Trazado_138480" data-name="Trazado 138480" d="M783.433,588.12a.257.257,0,0,1-.212-.111L766.54,563.848a.257.257,0,0,1,.423-.292l16.681,24.161a.257.257,0,0,1-.211.4Z" transform="translate(-740.615 -536.651)" fill="#8c6df2"/>
              <path id="Trazado_138481" data-name="Trazado 138481" d="M1136.47,587.1a.257.257,0,0,1-.224-.382l15.279-27.28a.257.257,0,1,1,.448.251l-15.279,27.28A.258.258,0,0,1,1136.47,587.1Z" transform="translate(-1001.579 -533.732)" fill="#8c6df2"/>
              <path id="Trazado_138482" data-name="Trazado 138482" d="M801.611,686.394a.257.257,0,0,1-.247-.328c3.184-11.012,4.309-22.332,5.129-30.6a74.074,74.074,0,0,1,1.3-9.7.257.257,0,0,1,.495.138,74.145,74.145,0,0,0-1.28,9.61c-.823,8.285-1.95,19.632-5.147,30.689A.257.257,0,0,1,801.611,686.394Z" transform="translate(-765.22 -594.628)" fill="#8c6df2"/>
              <path id="Trazado_138483" data-name="Trazado 138483" d="M1139.355,673.457a.257.257,0,0,1-.254-.222l-2.885-20.892a.257.257,0,0,1,.509-.071l2.885,20.892a.257.257,0,0,1-.219.29Z" transform="translate(-1001.58 -599.193)" fill="#8c6df2"/>
              <path id="Trazado_138484" data-name="Trazado 138484" d="M964.376,682.195h0l-11.852-.11a.256.256,0,0,1-.254-.258c.433-77.233-5.462-170.826-5.522-171.762a.257.257,0,0,1,.513-.033c.059.936,5.943,94.34,5.524,171.542l11.341.1c.063-3.757.757-47.615-.494-71.389-.775-14.72-.566-23.964-.346-33.75.151-6.68.307-13.588.126-22.446-.434-21.269.011-43.826.016-44.052a.257.257,0,0,1,.257-.252h.005a.257.257,0,0,1,.251.262c0,.225-.45,22.773-.016,44.031.181,8.869.025,15.783-.126,22.468-.22,9.776-.429,19.01.345,33.711,1.3,24.744.5,71.213.49,71.679A.257.257,0,0,1,964.376,682.195Z" transform="translate(-867.844 -498.779)" fill="#8c6df2"/>
            </g>
            <path id="Trazado_138485" data-name="Trazado 138485" d="M804.582,1421.907a.206.206,0,0,1-.2-.243,92.706,92.706,0,0,1,8.068-23.178.206.206,0,0,1,.364.191,92.279,92.279,0,0,0-8.027,23.06A.206.206,0,0,1,804.582,1421.907Z" transform="translate(-767.353 -1125.984)" fill="#5038a1"/>
            <path id="Trazado_138486" data-name="Trazado 138486" d="M815.525,1239.555H815.5a.205.205,0,0,1-.179-.229l3.358-27.8a.205.205,0,0,1,.408.049l-3.358,27.8A.205.205,0,0,1,815.525,1239.555Z" transform="translate(-775.078 -993.967)" fill="#8c6df2"/>
            <path id="Trazado_138487" data-name="Trazado 138487" d="M1161.171,1472.571a.206.206,0,0,1-.141-.355,27.467,27.467,0,0,0,5.659-8.052.206.206,0,0,1,.378.162,27.915,27.915,0,0,1-5.755,8.19A.2.2,0,0,1,1161.171,1472.571Z" transform="translate(-1019.05 -1172.332)" fill="#5038a1"/>
            <path id="Trazado_138488" data-name="Trazado 138488" d="M1035.319,1458.6a.19.19,0,0,1-.034,0,.206.206,0,0,1-.169-.236l2.78-16.535a.206.206,0,1,1,.406.068l-2.78,16.534A.205.205,0,0,1,1035.319,1458.6Z" transform="translate(-930.218 -1156.532)" fill="#5038a1"/>
            <path id="Trazado_138489" data-name="Trazado 138489" d="M1014.427,1379.477a.205.205,0,0,1-.157-.338c.16-.19,4.044-4.689,14.528-6.873a.206.206,0,1,1,.084.4,34.042,34.042,0,0,0-11.069,4.185,14.752,14.752,0,0,0-3.229,2.551A.206.206,0,0,1,1014.427,1379.477Z" transform="translate(-915.472 -1107.552)" fill="#5038a1"/>
            <path id="Trazado_138490" data-name="Trazado 138490" d="M1052.071,1720.66a.205.205,0,0,1-.038-.407,57.355,57.355,0,0,0,19.673-8.452.205.205,0,1,1,.238.335,57.791,57.791,0,0,1-19.834,8.521A.214.214,0,0,1,1052.071,1720.66Z" transform="translate(-942.043 -1347.187)" fill="#8c6df2"/>
            <path id="Trazado_138491" data-name="Trazado 138491" d="M1126.4,888.216a.205.205,0,0,1-.12-.372l3.878-2.78a.206.206,0,1,1,.24.334l-3.877,2.78A.2.2,0,0,1,1126.4,888.216Z" transform="translate(-994.505 -763.637)" fill="#233a49"/>
          </g>
          <g id="Grupo_131068" data-name="Grupo 131068" transform="translate(66.505 9.321)">
            <path id="Trazado_138492" data-name="Trazado 138492" d="M908.3,321.577s-3.842-23.992,2.561-26.127c0,0,.561-4.831,6.831-6.66,12.295-3.586,17.531.223,20.918,1.11,3.586.939,7.151-.387,9.307,1.537,2.391,2.134,3.074,14.429,2.732,18.357s-1.707,12.893-1.707,12.893Z" transform="translate(-906.409 -287.28)" fill="#914837"/>
            <g id="Grupo_131067" data-name="Grupo 131067" transform="translate(0 6.716)">
              <path id="Trazado_138493" data-name="Trazado 138493" d="M933.273,466.247s-4.853-3.39-1.906-6.068c4.078-3.707,20.37-3.451,23.884-1.726s.256,6.836-1.024,8.048Z" transform="translate(-922.824 -413.963)" fill="#233a49"/>
              <g id="Grupo_131066" data-name="Grupo 131066" transform="translate(10.217 38.54)">
                <path id="Trazado_138494" data-name="Trazado 138494" d="M939.336,441.132l.232,13.745c2.122,2.9,9.871,6.8,9.871,6.8s9.383-3.518,11.083-6.551l.316-4.825Z" transform="translate(-939.336 -441.132)" fill="#f3aa8b"/>
              </g>
              <path id="Trazado_138495" data-name="Trazado 138495" d="M953.889,342.756c-.874,14.143-11.847,19.812-18.626,19.757s-17.058-5.933-18.244-20.053c-1.8-21.4,4.087-32.346,18.641-32.346S955.19,321.722,953.889,342.756Z" transform="translate(-913.146 -310.113)" fill="#f3aa8b"/>
              <path id="Trazado_138496" data-name="Trazado 138496" d="M904.921,406.516c1.017,3.092,3.334,5.109,5.175,4.5s2.509-3.6,1.492-6.695-2.407-5.346-4.248-4.742S903.9,403.424,904.921,406.516Z" transform="translate(-904.603 -373.196)" fill="#f3aa8b"/>
              <path id="Trazado_138497" data-name="Trazado 138497" d="M1037.47,406.516c-1.017,3.092-3.333,5.109-5.175,4.5s-2.509-3.6-1.492-6.695,2.407-5.346,4.248-4.742S1038.487,403.424,1037.47,406.516Z" transform="translate(-993.346 -373.196)" fill="#f3aa8b"/>
            </g>
            <path id="Trazado_138498" data-name="Trazado 138498" d="M934.664,309.831c-13.668,0-20.019,7.4-19.321,26.058l1.059,4.042s1.984-19.217,8.693-20.787c4.263-1,6.771.748,10.03.665s7.128-1.678,10.2-.915c4.346,1.081,6.436,8.564,6.436,21.037l1.4-3.763C953.482,317.951,948.246,309.831,934.664,309.831Z" transform="translate(-912.147 -303.198)" fill="#914837"/>
          </g>
          <g id="Grupo_131069" data-name="Grupo 131069" transform="translate(60.954 0)">
            <path id="Trazado_138499" data-name="Trazado 138499" d="M893.159,283.851a21.461,21.461,0,1,1,42.814,3.048l6.309,8.342a309.531,309.531,0,0,1-56.55-4.025h0Z" transform="translate(-885.733 -261.465)" fill="#5038a1"/>
            <path id="Rectángulo_41180" data-name="Rectángulo 41180" d="M0,0H6.493a0,0,0,0,1,0,0V13.925a0,0,0,0,1,0,0h0A6.493,6.493,0,0,1,0,7.432V0A0,0,0,0,1,0,0Z" transform="matrix(-0.997, -0.071, 0.071, -0.997, 52.578, 31.942)" fill="#5038a1"/>
            <path id="Rectángulo_41181" data-name="Rectángulo 41181" d="M0,0H6.493a0,0,0,0,1,0,0V7.432A6.493,6.493,0,0,1,0,13.925H0a0,0,0,0,1,0,0V0A0,0,0,0,1,0,0Z" transform="matrix(-0.997, -0.071, 0.071, -0.997, 10.636, 28.957)" fill="#5038a1"/>
            <path id="Rectángulo_41182" data-name="Rectángulo 41182" d="M0,0H9.934a0,0,0,0,1,0,0V.637A3.393,3.393,0,0,1,6.541,4.03H3.393A3.393,3.393,0,0,1,0,.637V0A0,0,0,0,1,0,0Z" transform="translate(35.179 4.725) rotate(-175.928)" fill="#5038a1"/>
            <path id="Trazado_138500" data-name="Trazado 138500" d="M961.751,291.668h-.008a.288.288,0,0,1-.28-.3,10.982,10.982,0,0,0-.936-4.755l-.005-.012a11.027,11.027,0,0,0-1.636-2.626,20.562,20.562,0,0,1-3.359-5.328,30.151,30.151,0,0,1-1.865-12.61.288.288,0,1,1,.574.041,29.534,29.534,0,0,0,1.823,12.35,20.006,20.006,0,0,0,3.269,5.178,11.594,11.594,0,0,1,1.719,2.756.282.282,0,0,1,.016.036,11.56,11.56,0,0,1,.978,4.986A.288.288,0,0,1,961.751,291.668ZM932.73,289.6l-.033,0a.288.288,0,0,1-.253-.319,11.552,11.552,0,0,1,1.652-4.761.283.283,0,0,1,.056-.091,11.614,11.614,0,0,1,2.077-2.461A20,20,0,0,0,940.2,277.3a29.534,29.534,0,0,0,3.554-11.967.288.288,0,1,1,.574.041,30.151,30.151,0,0,1-3.632,12.219,20.559,20.559,0,0,1-4.08,4.8,11.02,11.02,0,0,0-1.993,2.369l-.006.009a10.988,10.988,0,0,0-1.6,4.573A.288.288,0,0,1,932.73,289.6Z" transform="translate(-918.703 -262.281)" fill="#8c6df2"/>
            <path id="Trazado_138501" data-name="Trazado 138501" d="M1011.046,274.5h-.021a.288.288,0,0,1-.267-.307l.271-3.808a.288.288,0,0,1,.574.041l-.271,3.808A.288.288,0,0,1,1011.046,274.5Z" transform="translate(-973.981 -265.841)" fill="#8c6df2"/>
            <path id="Trazado_138502" data-name="Trazado 138502" d="M962.717,271.085H962.7a.288.288,0,0,1-.267-.307l.27-3.8a.288.288,0,0,1,.574.041l-.27,3.8A.287.287,0,0,1,962.717,271.085Z" transform="translate(-939.868 -263.442)" fill="#8c6df2"/>
          </g>
          <g id="Grupo_131071" data-name="Grupo 131071" transform="translate(35.75 76.052)">
            <g id="Grupo_131070" data-name="Grupo 131070" transform="translate(0.475)">
              <path id="Trazado_138503" data-name="Trazado 138503" d="M919.089,932.475c-31.093,2.734-65.066,3.2-97.406,0-1.4-.138-2.051-2.156-1.624-3.716L822.1,921.3c.416-1.523,1.718-1.669,3.07-1.9a272.157,272.157,0,0,1,90.437,0c1.351.235,2.654.374,3.07,1.9l2.039,7.459C921.14,930.319,920.488,932.352,919.089,932.475Z" transform="translate(-814.556 -797.523)" fill="#ca923d"/>
              <path id="Trazado_138504" data-name="Trazado 138504" d="M805.849,527.716c-1.917,2.044,3.124,11.814,7.411,21.083,3.523,7.618,4.408,13.15,4.408,17.708,0,0,3.008,25.191.688,41.2-1.917,13.225-8.385,33.06-10.655,40.825-2.106,7.2-6.038,27.025-6.038,27.025l5.462,9.583s7.782-25.7,9.966-33.35c2.364-8.275,10.271-30.858,12.188-43.891,2.307-15.689-.355-40.4-.355-40.4,0-4.21-2.092-12.1-6.211-21.635-4.492-10.4-6.325-21.019-8.945-21.467S807.765,525.671,805.849,527.716Z" transform="translate(-801.664 -521.326)" fill="#fdb74d"/>
              <path id="Trazado_138505" data-name="Trazado 138505" d="M1095.758,517.97c-.767-1.31-7.762-3.61-9.328-3.833-.782-.112.263,11.308-1.278,21.722s-3.464,20.045-3.464,24.446c.333,17.017,1.074,32.785,3.783,47.548,2.89,15.749,9.445,30.081,12.362,44.218,2.614,12.668,3.607,27.281,6.8,37.183l5.814-11.564c-1.6-6.206-2.147-19.465-3.706-28.494-2.274-13.177-8.242-27-10.727-42.677-2.271-14.331-3.084-30.479-3.073-47.2,0-5.052,1.789-14.386,2.939-22.564C1097.111,528.042,1096.142,518.625,1095.758,517.97Z" transform="translate(-999.319 -514.136)" fill="#fdb74d"/>
              <path id="Trazado_138506" data-name="Trazado 138506" d="M929.593,666.032H918.945a310.546,310.546,0,0,0-50.263,0H858a2.8,2.8,0,0,1-2.8-2.8V655.12a2.8,2.8,0,0,1,2.8-2.8h10.872a340.673,340.673,0,0,1,49.891,0s13.292.015,13.453.044a2.8,2.8,0,0,1,2.3,2.756l.192,8.112a2.8,2.8,0,0,1-2.2,2.737C932.311,666.01,929.8,666.032,929.593,666.032Z" transform="translate(-839.45 -611.027)" fill="#fedc72"/>
              <path id="Trazado_138507" data-name="Trazado 138507" d="M1007.355,665.753h-.649a3.147,3.147,0,0,1-3.147-3.147h1.514a1.633,1.633,0,0,0,1.633,1.633h.649a2.913,2.913,0,0,0,2.909-2.909v-8.4a2.912,2.912,0,0,0-2.909-2.909h-.649a1.633,1.633,0,0,0-1.633,1.633h-1.514a3.147,3.147,0,0,1,3.147-3.147h.649a4.428,4.428,0,0,1,4.423,4.423v8.4A4.428,4.428,0,0,1,1007.355,665.753Z" transform="translate(-944.172 -608.981)" fill="#f6f6f6"/>
              <path id="Trazado_138508" data-name="Trazado 138508" d="M1004.246,670.771a.622.622,0,0,1-.622-.622v-8.833a.622.622,0,1,1,1.243,0v8.833A.622.622,0,0,1,1004.246,670.771Z" transform="translate(-944.217 -617.584)" fill="#a08338"/>
              <path id="Trazado_138509" data-name="Trazado 138509" d="M963.037,930.843a5.853,5.853,0,0,1-5.849-5.734l-.225-10.971a5.854,5.854,0,0,1,5.732-5.972l.847-.017a4.186,4.186,0,0,1,4.271,4.1,1.065,1.065,0,0,1-2.129.043,2.057,2.057,0,0,0-2.1-2.014l-.847.017a3.723,3.723,0,0,0-3.647,3.8l.224,10.971a3.724,3.724,0,0,0,3.8,3.647l.847-.017a2.058,2.058,0,0,0,2.014-2.1,1.065,1.065,0,1,1,2.129-.044,4.187,4.187,0,0,1-4.1,4.271l-.847.017Z" transform="translate(-911.281 -792.248)" fill="#e4edf4"/>
              <path id="Trazado_138510" data-name="Trazado 138510" d="M988.693,936.481a.775.775,0,0,1-.774-.759l-.261-12.733a.775.775,0,1,1,1.549-.032l.261,12.733a.775.775,0,0,1-.758.79Z" transform="translate(-932.948 -802.166)" fill="#a08338"/>
              <path id="Trazado_138511" data-name="Trazado 138511" d="M859.694,788.174q-.1,0-.2-.005a1.065,1.065,0,0,1,.115-2.126,1.458,1.458,0,0,0,1.535-1.378l.037-.684a2.809,2.809,0,0,0-2.651-2.953l-8.857-.477a2.8,2.8,0,0,0-2.953,2.651l-.037.684a1.461,1.461,0,0,0,1.379,1.535,1.065,1.065,0,0,1-.115,2.126,3.592,3.592,0,0,1-3.39-3.776l.037-.684a4.948,4.948,0,0,1,5.193-4.663l8.857.477a4.941,4.941,0,0,1,4.663,5.194l-.037.684A3.593,3.593,0,0,1,859.694,788.174Z" transform="translate(-831.939 -700.678)" fill="#e4edf4"/>
              <path id="Trazado_138512" data-name="Trazado 138512" d="M866.87,805.425h-.042l-10.279-.553a.775.775,0,1,1,.083-1.547l10.28.553a.775.775,0,0,1-.041,1.548Z" transform="translate(-839.886 -718.258)" fill="#a08338"/>
              <path id="Trazado_138513" data-name="Trazado 138513" d="M1078.878,775.759a3.589,3.589,0,0,1-3.575-3.35l-.045-.683a4.941,4.941,0,0,1,4.6-5.252l8.85-.589a4.94,4.94,0,0,1,5.252,4.6l.046.683a3.588,3.588,0,0,1-3.342,3.818,1.065,1.065,0,0,1-.141-2.124,1.461,1.461,0,0,0,1.359-1.552l-.046-.683a2.806,2.806,0,0,0-2.986-2.614l-8.85.589a2.809,2.809,0,0,0-2.614,2.986l.046.683a1.459,1.459,0,0,0,1.552,1.359,1.065,1.065,0,1,1,.141,2.124C1079.04,775.756,1078.958,775.759,1078.878,775.759Z" transform="translate(-994.771 -691.824)" fill="#e4edf4"/>
              <path id="Trazado_138514" data-name="Trazado 138514" d="M1088.474,792.974a.775.775,0,0,1-.051-1.547l10.272-.683a.775.775,0,0,1,.1,1.546l-10.271.683Z" transform="translate(-1003.562 -709.377)" fill="#a08338"/>
            </g>
            <path id="Trazado_138515" data-name="Trazado 138515" d="M800.94,1030.408c1.15.1,11.851,31.21,22.489,33.8s31.066,13.864,31.577,14.95-.543,9.184-1.341,9.823-21.9-12.985-32.823-15.86-20.365-27.5-20.6-28.846S799.79,1030.312,800.94,1030.408Z" transform="translate(-800.05 -878.544)" fill="#eac759"/>
            <path id="Trazado_138516" data-name="Trazado 138516" d="M1046.725,1053.416c-1.15-.479-11.8,25.587-22.434,28.175s-30.146,11.915-31.232,12.554-.073,10.7.575,11.212,22.033-13.129,32.957-16,20.23-21.562,20.9-23.862S1047.874,1053.9,1046.725,1053.416Z" transform="translate(-935.946 -894.781)" fill="#eac759"/>
          </g>
          <g id="Grupo_131073" data-name="Grupo 131073" transform="translate(68.912 34.715)">
            <path id="Trazado_138517" data-name="Trazado 138517" d="M964.537,413.417c-4.145,0-6.246,4.115-6.246,4.115,3.744-3.745,8.748-3.745,12.493,0C970.784,417.532,968.682,413.417,964.537,413.417Z" transform="translate(-944.905 -401.707)" fill="#5038a1"/>
            <path id="Trazado_138518" data-name="Trazado 138518" d="M948.036,379.057v0h0a101.092,101.092,0,0,0-25.3,0h0v0c-3.665.508-5.744,3.764-5.744,7.709,0,4.3,4.21,6.98,8.507,6.98,2.034,0,3.3-.6,4.066-1.69v.022c1.66-2.525,2.881-3.559,5.823-3.639,2.941.081,4.162,1.115,5.822,3.639v-.022c.769,1.089,2.033,1.69,4.066,1.69,4.3,0,8.507-2.684,8.507-6.98C953.779,382.821,951.7,379.564,948.036,379.057Z" transform="translate(-915.752 -376.892)" fill="#e4edf4" opacity="0.44"/>
            <g id="Grupo_131072" data-name="Grupo 131072" transform="translate(3.266 1.405)">
              <path id="Trazado_138519" data-name="Trazado 138519" d="M923.887,392.825a8.108,8.108,0,0,0,1.7,1.214l3.534-13.686q-.758.084-1.515.179v0c-.194.027-.382.063-.567.105Z" transform="translate(-923.887 -379.774)" fill="#f2f6f9"/>
              <path id="Trazado_138520" data-name="Trazado 138520" d="M933.855,394.3l3.788-14.67q-.515.046-1.029.1l-3.681,14.255Q933.383,394.165,933.855,394.3Z" transform="translate(-930.272 -379.265)" fill="#f2f6f9"/>
              <path id="Trazado_138521" data-name="Trazado 138521" d="M982.122,378.384,979.5,388.526h.007a7.927,7.927,0,0,1,2.131.309l2.679-10.372C983.587,378.427,982.855,378.4,982.122,378.384Z" transform="translate(-963.143 -378.384)" fill="#f2f6f9"/>
              <path id="Trazado_138522" data-name="Trazado 138522" d="M1011.163,380.686v0h0c-.327-.041-.653-.078-.98-.116l-3.76,14.559a7.086,7.086,0,0,0,1.977.248c.343,0,.684-.019,1.024-.053l3.634-14.073A6.362,6.362,0,0,0,1011.163,380.686Z" transform="translate(-982.145 -379.926)" fill="#f2f6f9"/>
            </g>
            <path id="Rectángulo_41183" data-name="Rectángulo 41183" d="M1.381,0h0a0,0,0,0,1,0,0V4.736a0,0,0,0,1,0,0h0A1.382,1.382,0,0,1,0,3.354V1.381A1.381,1.381,0,0,1,1.381,0Z" transform="translate(0 7.124)" fill="#d66371"/>
            <path id="Rectángulo_41184" data-name="Rectángulo 41184" d="M1.381,0h0a0,0,0,0,1,0,0V4.736a0,0,0,0,1,0,0h0A1.381,1.381,0,0,1,0,3.354V1.381A1.381,1.381,0,0,1,1.381,0Z" transform="translate(39.409 11.86) rotate(180)" fill="#d66371"/>
            <path id="Trazado_138523" data-name="Trazado 138523" d="M961.818,375.437a101.118,101.118,0,0,0-25.3,0,33.424,33.424,0,0,1,6.263-1.4c1.058-.162,2.123-.232,3.188-.323,1.066-.065,2.133-.087,3.2-.106,1.068.02,2.136.041,3.2.106,1.065.09,2.13.16,3.187.323A33.429,33.429,0,0,1,961.818,375.437Z" transform="translate(-929.534 -373.609)" fill="#5038a1"/>
            <path id="Trazado_138524" data-name="Trazado 138524" d="M944.067,393.044c-2.048,0-3.488-.587-4.4-1.794a.467.467,0,0,1-.089-.1c-1.542-2.345-2.635-3.337-5.417-3.413-2.754.076-3.847,1.068-5.389,3.413a.5.5,0,0,1-.092.1,5.111,5.111,0,0,1-4.394,1.79c-4.429,0-9.009-2.8-9.009-7.482,0-4.447,2.4-7.66,6.131-8.2l.052-.009a101.673,101.673,0,0,1,25.43,0l.052.009c3.726.54,6.13,3.753,6.13,8.2C953.076,390.245,948.5,393.044,944.067,393.044Zm-3.717-2.553a.477.477,0,0,1,.061.07c.712,1.008,1.873,1.478,3.656,1.478,3.935,0,8-2.423,8-6.478,0-3.934-2.084-6.765-5.31-7.211l-.039-.007a100.633,100.633,0,0,0-25.09,0l-.038.007c-3.226.447-5.31,3.277-5.31,7.211,0,4.055,4.07,6.478,8.005,6.478,1.783,0,2.944-.47,3.656-1.478a.5.5,0,0,1,.062-.072c1.644-2.476,3.009-3.672,6.157-3.757C937.34,386.819,938.706,388.014,940.351,390.492Z" transform="translate(-914.547 -375.688)" fill="#8c6df2"/>
          </g>
        </g>
        <path id="Trazado_138525" data-name="Trazado 138525" d="M911.723,373.393s.951-8.983,2.609-11.952l-3.025-.446a51.425,51.425,0,0,0-1.66,9.438" transform="translate(-163.144 -74.399)"/>
        <path id="Trazado_138527" data-name="Trazado 138527" d="M1041.431,379.056s.557-6.327-1.075-8.457l2.55-.008a18.88,18.88,0,0,1,0,6.407Z" transform="translate(-255.405 -81.172)"/>
        <ellipse id="Elipse_5035" data-name="Elipse 5035" cx="8.612" cy="3.089" rx="8.612" ry="3.089" transform="translate(783.355 310.753) rotate(-82.786)"/>
        <path id="Trazado_138528" data-name="Trazado 138528" d="M1045.962,394.68s-3.511,6.666-1.028,12.174c0,0,5.084.537,5.6-5.819S1045.962,394.68,1045.962,394.68Z" transform="translate(-258.009 -98.175)" fill="#8c6df2"/>
        <path id="Trazado_138529" data-name="Trazado 138529" d="M926.789,422.513a7.174,7.174,0,0,0,4.879-3.948c1.2-2.426,6.347-2.071,7.3-.23s2.436,3.8,4.326,4.178c3.362.681,7.032.345,9.311-2.558l.671,3.19s-1.186,13.77-18.466,13.138-17.824-15.3-17.824-15.3l.231-3.185S919.017,423.992,926.789,422.513Z" transform="translate(-168.326 -113.823)" fill="#332366"/>
        <ellipse id="Elipse_5036" data-name="Elipse 5036" cx="3.089" cy="8.612" rx="3.089" ry="8.612" transform="translate(742.896 294.441) rotate(-7.214)"/>
        <path id="Trazado_138568" data-name="Trazado 138568" d="M897.549,394.68s3.512,6.666,1.028,12.174c0,0-5.084.537-5.6-5.819S897.549,394.68,897.549,394.68Z" transform="translate(-150.958 -98.175)" fill="#8c6df2"/>
      </g>
    </g>
  </g>
</svg>
