<svg xmlns="http://www.w3.org/2000/svg" width="301.123" height="218.132" viewBox="0 0 301.123 218.132">
  <g id="Grupo_131955" data-name="Grupo 131955" transform="translate(-285 -686.001)">
    <g id="Grupo_131444" data-name="Grupo 131444" transform="translate(0 -14.486)">
      <g id="Grupo_131442" data-name="Grupo 131442" transform="translate(285 799.021)">
        <ellipse id="Elipse_4784" data-name="Elipse 4784" cx="141" cy="47" rx="141" ry="47" transform="translate(0 -0.021)" fill="#8c6df2" opacity="0.25"/>
      </g>
      <g id="Grupo_131443" data-name="Grupo 131443" transform="translate(319.981 700.487)">
        <path id="Trazado_138661" data-name="Trazado 138661" d="M1156.972,557.965Z" transform="translate(-1090.618 -523.6)" fill="#f5edf9"/>
        <path id="Trazado_138663" data-name="Trazado 138663" d="M997.547,1138.328v71.4h-1.074l-13.83-.005-4.912,0-6.9,0h-2.425l-5.656,0h-.364l-13.448-.006h-9.69l-4.792,0h-4.735l-10.052,0-7.171,0-25.443-.009h-3.479l-3.953,0H879.2l-13.791,0h-.481l-9.122,0h-3.575v-71.346Z" transform="translate(-818.944 -1040.997)" fill="#071e42"/>
        <g id="Grupo_131428" data-name="Grupo 131428" transform="translate(41.784 16.219)">
          <path id="Trazado_138664" data-name="Trazado 138664" d="M991.506,1370.665l-32.875-.012H958.2l-13.791,0c-.391-4.98-.789-10-1.169-14.78-1.043-13.109-1.961-24.439-2.277-28.326l-.117-1.434,13.79-.84,22.88-6.381s.182,1.546.429,3.832c.464,4.266,1.159,11.111,1.336,15.292.272,6.419,6.068,24.776,11,30.892A16.112,16.112,0,0,1,991.506,1370.665Z" transform="translate(-939.735 -1218.184)" fill="#9c2bed"/>
          <path id="Trazado_138665" data-name="Trazado 138665" d="M1053.826,571.408s-13.417,6.473-21.152,4.072a18.252,18.252,0,0,1,5.236-4.189c-.268-1.553-.476-2.9-.595-4.042a37.321,37.321,0,0,1-.327-4.13l5.176-4.071,4.909-3.9C1046.686,566.106,1053.826,571.408,1053.826,571.408Z" transform="translate(-1021.597 -537.31)" fill="#ffb27d"/>
          <path id="Trazado_138666" data-name="Trazado 138666" d="M1082.607,591.354s-3.391,6.181-9.847,7.909a37.322,37.322,0,0,1-.327-4.13l5.176-4.071Z" transform="translate(-1057.042 -569.324)" fill="#ed985f"/>
          <path id="Trazado_138667" data-name="Trazado 138667" d="M1030.157,455.619s12.8,2.094,14-5.775,3.663-12.9-4.458-14.567-10.171,1.1-11.221,3.628S1026.859,454.872,1030.157,455.619Z" transform="translate(-1017.127 -429.99)" fill="#ffb27d"/>
          <path id="Trazado_138668" data-name="Trazado 138668" d="M1014.82,395.058c.116-.133.384-.241.981-.273a2.42,2.42,0,0,0-1.114-.314,3,3,0,0,0-1.993-2.654,1.789,1.789,0,0,1,.867,1.291c-1.653-1.7-5.2-2.934-15-2.159-12.927,1.02-8.667,9.3-6.993,10.284s5.886-1.718,9-1.471,3.608,4.98,4.769,5.371c.657.222,1.161-.184,2.592-.831s1.048,1.434.635,2.976,1.553,3.576,1.553,3.576l1.987-2.14c1.987-2.14,3.86-11.205,2.957-13.138C1014.981,395.4,1014.9,395.232,1014.82,395.058Z" transform="translate(-983.137 -390.712)" fill="#632484"/>
          <path id="Trazado_138669" data-name="Trazado 138669" d="M985.045,730.166c-.129-3.086-7.11-36.414-13.133-45.558-3.883-5.9-11.944-9.925-11.944-9.925-.535-.41-3.9,1.462-6.992,2.955a9.7,9.7,0,0,1-7.207.819s-2.9,1.818-3.8,2.52a24.1,24.1,0,0,0-8.39,13.183c-1.308,5.213-2.083,14.646-2.5,24.429-.208,4.453-.357,8.906-.416,13.153v.146c-.03.44-.03.879-.03,1.317-.148,10.868,0,19.509.208,19.655a1.209,1.209,0,0,0,.8.323c2.916-.059,11.395,1.552,18.564.82a54.736,54.736,0,0,0,17.165-4.863c.775-.35,2.529-1.287,2.5-2.109-.03-.937-.119-2.255-.238-3.954-.068-.962-.147-2.039-.223-3.219-.311-4.759-.627-11.2-.442-18.515,2.583,3.751,4.508,6.433,4.7,6.849.671,1.439-.388,23.826-.388,23.826,1.366,2.674,6.665,3.023,6.665,3.023S985.174,733.252,985.045,730.166Z" transform="translate(-930.574 -643.823)" fill="#9c2bed"/>
          <path id="Trazado_138670" data-name="Trazado 138670" d="M1142.12,515.9c.217-2.291,2.451-3.053,3.183-2.343a3.167,3.167,0,0,1,.491,1.8,2.562,2.562,0,0,1-2.571,2.853S1142.045,516.689,1142.12,515.9Z" transform="translate(-1119.165 -500)" fill="#ffb27d"/>
        </g>
        <g id="Grupo_131431" data-name="Grupo 131431" transform="translate(133.802 5.626)">
          <g id="Grupo_131430" data-name="Grupo 131430" transform="translate(0 0)">
            <g id="Grupo_131429" data-name="Grupo 131429">
              <path id="Trazado_138671" data-name="Trazado 138671" d="M1852.342,294.318a6.2,6.2,0,0,0,2.283-.254c2.005-.624,5.711-2.289,11.462.951,5.311,2.991,10.969,21.307,13.283,23.09s5.438,2.587,5.09,6.234-4.512,6.076-1.735,8.39-.794,10.75-8.669,10.581-27.761-9.012-27.593-13.325,1.327-4.585,3.582-7.977-6.37-8.486-5.875-15.368C1844.618,300.409,1849.247,294.1,1852.342,294.318Z" transform="translate(-1837.051 -293.079)" fill="#632484"/>
              <path id="Trazado_138672" data-name="Trazado 138672" d="M1854.993,585.787c-4.049-9.081-5.986-11.648-6.054-14.506-.054-2.259,1.06-4.7,3.225-10.675a22.289,22.289,0,0,0,1.077-4.321c1.712-11.524-4.952-23.981-9.094-24.83-1.152-.3-3.106-4.467-3.082-11.174l-.519.1-8.721,1.727s.2,2.745.2,5.33c.006,2.155-.124,4.2-.612,4.454-.628.057-1,.094-1,.094s-7.272,10.1-7.883,19.491,5.823,13.473-.048,32.242C1816.493,602.893,1857.23,590.8,1854.993,585.787Z" transform="translate(-1817.202 -495.632)" fill="#ffb27d"/>
              <path id="Trazado_138673" data-name="Trazado 138673" d="M1913.512,522.951s.2,2.745.2,5.33c4.88-.138,7.46-4.589,8.517-7.057Z" transform="translate(-1898.888 -496.472)" fill="#e8945b"/>
              <path id="Trazado_138674" data-name="Trazado 138674" d="M1866.889,399.609s11.547.19,11.555-7,1.5-12.012-5.868-12.438-8.807,2.317-9.394,4.717S1863.886,399.374,1866.889,399.609Z" transform="translate(-1853.895 -370.681)" fill="#ffb27d"/>
              <path id="Trazado_138675" data-name="Trazado 138675" d="M1871.3,366.254s-6.984-5.738-10.776-1.944c-.791-.451-1.986-.5-3.491,1.322-2.677,3.244-.295,8.98-.295,8.98-.976-4.858.274-6.084,1.294-7.251a7.365,7.365,0,0,1,2.5-1.533c1,2.513,4.072,9.261,9.016,11.546a26.986,26.986,0,0,1-4.01-5,7.5,7.5,0,0,0,3.3,2.045c4.852,1.248,6.057-2.2,6.057-2.2S1872.075,371.415,1871.3,366.254Z" transform="translate(-1847.406 -355.426)" fill="#632484"/>
              <path id="Trazado_138676" data-name="Trazado 138676" d="M1819.1,685.576c-.463,1.454-2.05,2.117-5.887,1.72-2.345-.244-3.391-4.174-3.857-7.528-1.409,4.8-3.381,7.49-5.931,8.055-3.72.828-22.486,3.11-23.715-5.811-1.351-9.812-.946-42.953-.887-45.43.157-6.673,1.522-10.861,9.31-12.549.868-.188,2.087-.32,3.806-.547,0,0,1.014-.119,1-.094-.317.568-4.881,7.044-4.55,8.7.347,1.732,15.421.172,16.461-.78s.711-8.4.711-8.4,13.291.5,14.726,3.389c6.392,12.888-1.162,55.309-1.05,57.536A5.151,5.151,0,0,1,1819.1,685.576Z" transform="translate(-1778.719 -587.13)" fill="#071e42"/>
              <path id="Trazado_138677" data-name="Trazado 138677" d="M1989.689,460.321c.344-2.063,2.419-2.611,3.038-1.92a2.879,2.879,0,0,1,.329,1.662,2.329,2.329,0,0,1-2.515,2.422S1989.571,461.032,1989.689,460.321Z" transform="translate(-1966.791 -440.212)" fill="#ffb27d"/>
            </g>
          </g>
        </g>
        <g id="Grupo_131432" data-name="Grupo 131432" transform="translate(78.84 0)">
          <path id="Trazado_138678" data-name="Trazado 138678" d="M1323.572,248.3c-.676-1.326-5.733-10.414-15.332-5.77-13.545,6.553-14.6,23.892-19.266,26.758-8.3,5.1.392,19.926,8.573,20.275s16.646-12.252,16.646-12.252l5.061-15.442,3.969-.279.8-2.564C1326.5,252.878,1325.174,249.894,1323.572,248.3Z" transform="translate(-1284.149 -241.22)" fill="#071e42"/>
          <path id="Trazado_138679" data-name="Trazado 138679" d="M1443.62,510.335c-5.2-.06-19.333-.33-22.732-1.463a7.808,7.808,0,0,1-5.146-5.931c0-.094.343-2.017.887-4.994,1.086-2.281,1.627-3.655,1.661-5.107a8.291,8.291,0,0,0-.306-2.294c-.45-1.75-1.382-4.05-2.76-7.862a21.078,21.078,0,0,1-1.026-4.11c-1.63-10.964,4.712-22.816,8.652-23.621,1.1-.29,2.953-4.251,2.93-10.629l.494.1,8.3,1.643s-.188,2.611-.194,5.07c-.005,2.048.118,3.992.583,4.238.6.052.95.089.95.089l.024.031c1.58.1,5.774.476,6.328,1.609l-1.533,4.657-.445,1.355a35.6,35.6,0,0,1,2.81,8.39,22.2,22.2,0,0,1,.314,2.5,17.786,17.786,0,0,1,.018,2.038c-.332,7.6-5.115,12.194.029,28.634A8.47,8.47,0,0,1,1443.62,510.335Z" transform="translate(-1398.551 -422.288)" fill="#ffb27d"/>
          <path id="Trazado_138680" data-name="Trazado 138680" d="M1532.146,457.192s-.189,2.611-.194,5.071a9.562,9.562,0,0,1-8.566-5.455Z" transform="translate(-1496.125 -433.417)" fill="#e8945b"/>
          <path id="Trazado_138681" data-name="Trazado 138681" d="M1522.714,335.192s-10.984.181-10.992-6.661-1.431-11.427,5.582-11.832,8.379,2.2,8.937,4.488S1525.572,334.969,1522.714,335.192Z" transform="translate(-1485.617 -308.473)" fill="#ffb27d"/>
          <path id="Trazado_138682" data-name="Trazado 138682" d="M1317.942,627.314s9.932-24.016,9.408-41.457c-.059-1.967.042-7.172-.213-9.311.019-12.088-8.13-32.582-11.511-34.435-1.758-.964-7.125-1.136-7.093-1.112,0,0,1.312,2.447,2.542,5.317a3.867,3.867,0,0,1-2.51,5.241l-.137.038a6.861,6.861,0,0,1-3.678-.2,9.882,9.882,0,0,1-6.564-6.418c-1.071-3.253-1.4-4.6-1.4-4.6l-5.711,1.038h0v0s-4.036.857-5.946,3.732c-2.532,3.812-9.991,23.356-12.995,42.407C1271.3,592.809,1317.942,627.314,1317.942,627.314Z" transform="translate(-1272.123 -507.916)" fill="#632484"/>
          <path id="Trazado_138683" data-name="Trazado 138683" d="M1500.755,391.854c-.327-1.964-2.3-2.486-2.891-1.827a2.741,2.741,0,0,0-.314,1.582,2.217,2.217,0,0,0,2.393,2.3S1500.868,392.531,1500.755,391.854Z" transform="translate(-1473.089 -373.641)" fill="#ffb27d"/>
          <path id="Trazado_138684" data-name="Trazado 138684" d="M1493.662,292.5c-1.824-2.21-3.169-1.526-3.851-.849.2-.455.3-.728.3-.728-2.425-4.083-10.651,1.542-10.651,1.542a13.969,13.969,0,0,1-4.569,8.253s2.14,1.322,7.073.053c2.006-.516,3.728-2.241,5.066-4.107a24.408,24.408,0,0,1-5.267,7.006c5.513-2.549,7.727-10.217,7.948-11.027a8.607,8.607,0,0,1,2.4,3.193c.548,1.742.794,5.329,1.839,5.207C1493.943,301.041,1496.208,295.585,1493.662,292.5Z" transform="translate(-1452.89 -284.204)" fill="#071e42"/>
        </g>
        <g id="Grupo_131433" data-name="Grupo 131433" transform="translate(108.957 50.728)">
          <path id="Trazado_138685" data-name="Trazado 138685" d="M1652.147,938.965s-6.089,7.223-13.842,4.2a23.487,23.487,0,0,1-1.691-7.008c0-.366-.007-.721-.013-1.058-.042-3.349-.154-5.228-.154-5.228l.008,0c.353-.147,11.852-4.868,11.843-4.476C1648.1,934.452,1652.147,938.965,1652.147,938.965Z" transform="translate(-1627.037 -901.873)" fill="#ffb27d"/>
          <path id="Trazado_138686" data-name="Trazado 138686" d="M1647.142,944.794a17.986,17.986,0,0,1-10.542,7.546c-.042-3.349-.154-5.228-.154-5.228l.008,0C1636.772,947.026,1647.472,944.189,1647.142,944.794Z" transform="translate(-1627.037 -919.113)" fill="#ed975d"/>
          <path id="Trazado_138687" data-name="Trazado 138687" d="M1597.719,788.507s12.932,3.04,14.7-5.042,4.631-13.134-3.552-15.417-10.467.449-11.714,3S1594.4,787.508,1597.719,788.507Z" transform="translate(-1590.718 -760.855)" fill="#ffb27d"/>
          <path id="Trazado_138688" data-name="Trazado 138688" d="M1576.422,733.593c.177.113,2.959.968,8.229-9.53a9.143,9.143,0,0,0-.538-8.363c-1.928-3.15-8.766-5.627-14.447-6.7s-7.045,2.119-8.383,5.331c-1.4,3.372-5.46,6.149-5.46,6.149,4.9,2.737,10.8-1.177,12.843-.534s2.766,3.865,2.92,4.9.63,2.273,3.688.786c2.456-1.194.434,3.825.023,4.7C1575.3,730.323,1574.948,732.648,1576.422,733.593Z" transform="translate(-1555.162 -708.781)" fill="#7b44aa"/>
          <path id="Trazado_138689" data-name="Trazado 138689" d="M1549.748,1048.758c.078,4.283.327,9.1.662,13.988q.031.435.061.87c.214,3.03.448,6.066.715,9.027.107,1.187.221,2.361.34,3.514l.018.155c.009.431.062.9.11,1.327,1.091,11.091,2.235,19.853,2.447,19.988a1.246,1.246,0,0,0,.852.217c2.908-.365,11.586.294,18.691-1.251a53.875,53.875,0,0,0,16.628-6.895c.726-.429,2.381-1.566,2.246-2.416-.132-.934-3.36-48.387-4.67-53.109-2.436-8.772-9.04-16.461-13.53-19.089-.587-.329-3.744,1.68-6.644,3.541a12.8,12.8,0,0,1-8.239,1.952l-2.413,2.669a26.951,26.951,0,0,0-6.883,14.349c-.064.475-.119.98-.164,1.516A94.371,94.371,0,0,0,1549.748,1048.758Z" transform="translate(-1549.723 -981.821)" fill="#7b44aa"/>
          <path id="Trazado_138690" data-name="Trazado 138690" d="M1717.757,862.157c.342-2.275,2.614-2.915,3.307-2.166a3.166,3.166,0,0,1,.392,1.822,2.561,2.561,0,0,1-2.722,2.708S1717.639,862.941,1717.757,862.157Z" transform="translate(-1699.518 -843.32)" fill="#ffb27d"/>
        </g>
        <g id="Grupo_131435" data-name="Grupo 131435" transform="translate(0 38.699)">
          <path id="Trazado_138691" data-name="Trazado 138691" d="M709.575,832.156s6.088,7.223,13.842,4.2a23.488,23.488,0,0,0,1.691-7.008c0-.366.007-.721.013-1.058.042-3.349.154-5.228.154-5.228l-.008,0c-.353-.147-11.852-4.868-11.843-4.476C713.622,827.643,709.575,832.156,709.575,832.156Z" transform="translate(-691.769 -794.624)" fill="#ffb27d"/>
          <path id="Trazado_138692" data-name="Trazado 138692" d="M755.639,837.985a17.986,17.986,0,0,0,10.542,7.546c.042-3.349.154-5.228.154-5.228l-.008,0C766.009,840.216,755.31,837.379,755.639,837.985Z" transform="translate(-732.829 -811.863)" fill="#ed975d"/>
          <path id="Trazado_138693" data-name="Trazado 138693" d="M739.569,681.7s-12.933,3.04-14.7-5.042-4.63-13.134,3.552-15.417,10.467.449,11.714,3S742.888,680.7,739.569,681.7Z" transform="translate(-703.654 -653.606)" fill="#ffb27d"/>
          <path id="Trazado_138694" data-name="Trazado 138694" d="M671.151,623.165c-.176.113-2.959.968-8.229-9.53a9.143,9.143,0,0,1,.537-8.363c1.928-3.15,9.324-9.387,14.447-6.7a25.636,25.636,0,0,0,8.844,2.877c2.358,7.323-5.8,7.426-7.844,8.069s-2.766,3.865-2.919,4.9-.389,1.891-2.96.968-1.162,3.643-.751,4.516C672.276,619.9,672.625,622.221,671.151,623.165Z" transform="translate(-649.495 -597.913)" fill="#071e42"/>
          <g id="Grupo_131434" data-name="Grupo 131434" transform="translate(0 99.73)">
            <path id="Trazado_138695" data-name="Trazado 138695" d="M647.393,1569.5s-.289,3.606-.746,9.348c-.3,3.734-.664,8.373-1.068,13.511-6.891,0-8.545.071-11.858-.333a44.24,44.24,0,0,1-11.841-3.148,45.523,45.523,0,0,1-4.395-2.132c-.292-5.14-.542-9.636-.727-12.98-.213-3.861-.339-6.183-.339-6.183l17.077,1.056Z" transform="translate(-608.721 -1562.111)" fill="#a06bce"/>
            <path id="Trazado_138696" data-name="Trazado 138696" d="M579.061,1526.164s-1.14,2.858-3.055,7.531c-1.457,3.554-3.363,8.159-5.555,13.354a45.852,45.852,0,0,1-25-11.495c.175-3.15.556-7.315.915-10.89.419-4.169.808-7.533.808-7.533l23.054,6.53Z" transform="translate(-545.451 -1517.132)" fill="#a06bce"/>
          </g>
          <path id="Trazado_138697" data-name="Trazado 138697" d="M589.258,938.145c-.078,4.283-.326,9.1-.662,13.988l-.062.87c-.215,3.03-.448,6.066-.715,9.027-.107,1.187-.221,2.361-.34,3.514l-.018.155c-.009.432-.062.9-.11,1.327-1.091,11.091-2.235,19.853-2.447,19.988a1.244,1.244,0,0,1-.852.217c-2.909-.365-11.587.294-18.691-1.251a53.862,53.862,0,0,1-16.628-6.895c-.726-.429-2.381-1.566-2.246-2.415.132-.934,2.948-46.869,4.2-51.605a33.271,33.271,0,0,1,15.863-21.091,24.177,24.177,0,0,0,4.777,4.039c2.678,1.717,5.111,1.156,7.853.917l2.8,3.7a26.953,26.953,0,0,1,6.883,14.349q.1.712.164,1.516A94.241,94.241,0,0,1,589.258,938.145Z" transform="translate(-546.368 -870.768)" fill="#632484"/>
          <path id="Trazado_138698" data-name="Trazado 138698" d="M741.334,754.639c-.341-2.275-2.614-2.915-3.306-2.166a3.165,3.165,0,0,0-.392,1.822A2.562,2.562,0,0,0,740.357,757S741.451,755.423,741.334,754.639Z" transform="translate(-716.783 -735.438)" fill="#ffb27d"/>
        </g>
        <g id="Grupo_131436" data-name="Grupo 131436" transform="translate(5.257 73.966)">
          <path id="Trazado_138699" data-name="Trazado 138699" d="M871.383,926.6c.275-.531,3.439-6.159,12.455-2.28,0,0-4.608-1.537-6.267.026,0,0,4.088-.969,6.148.934s1.482,6.812.839,8.212-4.106,5.261-5.822,4.92a5.178,5.178,0,0,1-1.861-.875,23.108,23.108,0,0,1,.189,2.689c.114,8.937-6.886,14.318-9.513,12.12-1.685-1.41-3.775,1.614-3.775,1.614L852.23,930.039S865.782,919.079,871.383,926.6Z" transform="translate(-824.203 -922.968)" fill="#071e42"/>
          <path id="Trazado_138700" data-name="Trazado 138700" d="M619.1,1364.213a44.791,44.791,0,0,1-25.193-7.753c3.854-11.632,13.677-40.581,16.672-42.644,2.066-1.424,6.85-1.93,11.071-2.083,4.117-.149,7.7.038,7.7.038s3.069.005,6.99.448h0l.131.016.02,0c4.419.507,9.872,1.568,13.238,3.789,2.967,1.957,13.453,41.638,15.171,48.2Z" transform="translate(-593.903 -1269.504)" fill="#9358cc"/>
          <path id="Trazado_138701" data-name="Trazado 138701" d="M851.881,1191.648c-1.431-2.356-2.446-7.865-1.963-15.22l-.912,1.541-10.894,1.463s.034,3.4-.156,6.594a16.912,16.912,0,0,1-.984,5.373c-.04,0-.041.007-.007.011-.166.282-3.7,6.393.99,7.513,12.733,3.043,13.876-6.781,13.924-7.256C851.92,1191.662,851.923,1191.656,851.881,1191.648Z" transform="translate(-809.318 -1148.929)" fill="#ffb27d"/>
          <path id="Trazado_138702" data-name="Trazado 138702" d="M858.013,1192.1s.035,3.4-.156,6.593c6.033.2,9.556-5.093,11.05-8.057Z" transform="translate(-829.22 -1161.593)" fill="#ed975d"/>
          <path id="Trazado_138703" data-name="Trazado 138703" d="M811.844,1025.148s13.955,3.02,15.7-5.7,4.725-14.2-4.111-16.5-11.239.682-12.53,3.451S808.259,1024.138,811.844,1025.148Z" transform="translate(-786.147 -993.543)" fill="#ffb27d"/>
          <path id="Trazado_138704" data-name="Trazado 138704" d="M811.821,986.417c2.687-2.192,4.208-1.291,4.967-.319a9.978,9.978,0,0,1,12.183,4.52,16.987,16.987,0,0,0,3.488,10.928s-2.866,1.068-8.447-1.617a10.2,10.2,0,0,1-4.11-4.238,33.311,33.311,0,0,0,4.254,7.986c-6.38-4.648-7.255-14.984-7.33-16.074a11.187,11.187,0,0,0-3.864,3.461c-1.141,2.082-2.365,6.591-3.667,6.17C809.295,997.235,807.792,989.7,811.821,986.417Z" transform="translate(-785.681 -978.325)" fill="#071e42"/>
        </g>
        <g id="Grupo_131438" data-name="Grupo 131438" transform="translate(64.632 57.287)">
          <path id="Trazado_138705" data-name="Trazado 138705" d="M1276.5,987.6c0,.109.343,4.654.235,8.391-.019.661-.052,1.289-.1,1.846h13.881a16.979,16.979,0,0,1-1.68-4.674,30.631,30.631,0,0,1-.544-3.249,38.836,38.836,0,0,1-.248-4.593Z" transform="translate(-1261.815 -961.875)" fill="#ffb27d"/>
          <path id="Trazado_138706" data-name="Trazado 138706" d="M1228.423,769.544h0a12.829,12.829,0,0,0-4.835-.141,12.572,12.572,0,0,0-8.781,4.286c-1.908,2.324,1.128,19.119-1.536,24.334-.238.465,1.335.658,1.98.658,0,0,.943-.36,1.129-.88a3.353,3.353,0,0,1-.428,1.079s5.184.491,7.773-1.466c1.407-1.064,2.949-3.56,3.943-6.1l3.92.276a7.863,7.863,0,0,1-2.447,5.63s4.837.474,6.474-.865a4.512,4.512,0,0,1-.62.947s5.407.194,7.639-1.492S1243.431,766.451,1228.423,769.544Z" transform="translate(-1205.427 -769.243)" fill="#071e42"/>
          <path id="Trazado_138707" data-name="Trazado 138707" d="M1276.5,988.6s.248,3.428.255,6.657c6.095-.172,9.316-5.732,10.636-8.814Z" transform="translate(-1261.816 -962.875)" fill="#ed975d"/>
          <path id="Trazado_138708" data-name="Trazado 138708" d="M1218.271,834.556s14.42.238,14.43-8.745,1.878-15-7.329-15.533-11,2.894-11.732,5.891S1214.52,834.263,1218.271,834.556Z" transform="translate(-1205.625 -805.777)" fill="#ffb27d"/>
          <path id="Trazado_138709" data-name="Trazado 138709" d="M1211.678,802.467s-2.948,2.353-3.667,4.64-1.042,7-2.415,6.836c0,0-2.975-7.163.368-11.215C1209.509,798.432,1211.678,802.467,1211.678,802.467Z" transform="translate(-1197.52 -797.331)" fill="#071e42"/>
          <path id="Trazado_138710" data-name="Trazado 138710" d="M1187.32,1596.615l-10.052,0-7.171,0-25.443-.01h-3.479a48.06,48.06,0,0,1,1.6-8.788c2.326-7.619,3.712-12.218,4.244-13.988l.167-.557h0l.083-.279a65.729,65.729,0,0,0,22.816,1.018,44.1,44.1,0,0,0,5.065-1.051h0q1.042-.283,2.075-.625h0l.129.275c1.015,2.168,7.719,16.58,9.672,23.039Q1187.172,1596.107,1187.32,1596.615Z" transform="translate(-1141.175 -1485.196)" fill="#031530"/>
          <path id="Trazado_138711" data-name="Trazado 138711" d="M1213.45,1134.939a20.77,20.77,0,0,1-4.189-6.207c-.786-2.611-6.069-20.994-7.146-26.131-.194-.932-.3-1.477-.3-1.477v0s0,.009-.008.018a.115.115,0,0,1-.005.011c0,.013-.011.028-.02.048l-.027.064c-.008.018-.015.038-.025.06s-.011.025-.016.039c-.541,1.29-2.412,5.822-2.794,6.966a2.337,2.337,0,0,0-.149.531c-.081.63-.119,1.347-.141,1.749v0c0,.021,0,.033,0,.033s-15.973,8.062-29.957.658c0,0-.043-.346-.12-.977h0c-.081-.67-.2-1.663-.347-2.9-.593-5.064-1.624-14.286-2.315-22.8a.009.009,0,0,1,0-.005c-.188-2.325-.353-4.6-.474-6.718h0s0,0,0,0c-.325-5.62-.36-10.169.188-11.8.815-2.417,7.431-3.934,10.066-4.447a3.119,3.119,0,0,0,.262-2.657,1.176,1.176,0,0,1,1.44-1.4l.121.029a15.393,15.393,0,0,0,7.66-.717,18.751,18.751,0,0,0,4.757-2.324.726.726,0,0,1,1.127.514c.242,1.959.834,5.536,1.914,5.536,1.488-.009,11.643,1.238,12.388,2.495.259.438,2.9,6.411,6.232,14.325a.08.08,0,0,1,.005.021c.062.147.125.3.19.446,6.319,14.921,18.823,40.778,18.823,45.519,0,2.49-2.8,7.854-5.876,11.5Z" transform="translate(-1162.569 -1023.518)" fill="#e8d4ff"/>
          <path id="Trazado_138712" data-name="Trazado 138712" d="M1380.359,1319.145s-2.943,7.024-3.036,7.679c-.042.295-.077.7-.1,1.057a14.506,14.506,0,0,1-4.9,2.574c-4.979,1.509-7.143-8.036-6.846-12.8s7.34-18.355,9.685-18.638S1380.359,1319.145,1380.359,1319.145Z" transform="translate(-1341.118 -1241.539)" fill="#d5b8ff"/>
          <path id="Trazado_138713" data-name="Trazado 138713" d="M1503.168,1486.022c-.193-.932-.3-1.477-.3-1.477A7.528,7.528,0,0,1,1503.168,1486.022Z" transform="translate(-1463.624 -1406.939)" fill="#a872ce"/>
          <g id="Grupo_131437" data-name="Grupo 131437" transform="translate(5.425 83.788)">
            <path id="Trazado_138714" data-name="Trazado 138714" d="M1204.779,1549.087c-9.09,0-12.737-3.073-13.014-3.286l-.588-4.281c.087.064,12.284,7.388,31.159.374l-.4,3.243C1214.677,1547.835,1209.5,1549.087,1204.779,1549.087Z" transform="translate(-1191.177 -1541.52)" fill="#632484"/>
          </g>
          <path id="Trazado_138715" data-name="Trazado 138715" d="M1611.83,1312.583c0,2.49-2.8,7.854-5.875,11.5H1603c.583-15.824-9.909-56.572-10.18-57.463q.093.221.189.446C1599.325,1281.984,1611.83,1307.841,1611.83,1312.583Z" transform="translate(-1543.817 -1212.655)" fill="#d5b8ff"/>
          <path id="Trazado_138716" data-name="Trazado 138716" d="M1307.4,1060.641s-7.6,4.816-13.358,3.676c0,0-1.381-.872.524-1.75,1.789-.821,5.95-3.253,5.036-5.652a18.773,18.773,0,0,0,4.756-2.325.727.727,0,0,1,1.128.515C1305.731,1057.063,1306.324,1060.641,1307.4,1060.641Z" transform="translate(-1277.029 -1023.519)" fill="#d5b8ff"/>
          <path id="Trazado_138717" data-name="Trazado 138717" d="M1366.37,905.942c.177-2.51,2.6-3.4,3.419-2.645a3.464,3.464,0,0,1,.584,1.953,2.8,2.8,0,0,1-2.736,3.186S1366.308,906.807,1366.37,905.942Z" transform="translate(-1341.936 -888.52)" fill="#ffb27d"/>
          <path id="Trazado_138718" data-name="Trazado 138718" d="M1266.627,796.293s2.813,11.036,10.458,14.57c0,0-7.645-6.78-8.295-14.065S1266.627,796.293,1266.627,796.293Z" transform="translate(-1253.016 -790.8)" fill="#071e42"/>
          <path id="Trazado_138719" data-name="Trazado 138719" d="M1262.656,793.7s3.948,10.538,10.008,12.1,8.688-.065,8.688-.065a17.16,17.16,0,0,1-5.612-10.137S1265.634,788.684,1262.656,793.7Z" transform="translate(-1249.476 -789.418)" fill="#071e42"/>
        </g>
        <g id="Grupo_131439" data-name="Grupo 131439" transform="translate(149.463 58.35)">
          <path id="Trazado_138720" data-name="Trazado 138720" d="M1984.765,779.321s-11.373.66-11.684,13.353,14.034,43.515,14.034,43.515l27.358-3.054S2006.018,774.491,1984.765,779.321Z" transform="translate(-1967.65 -779.038)" fill="#9c2bed"/>
          <path id="Trazado_138721" data-name="Trazado 138721" d="M1979.77,1088.9l-25.658-.01-4.912,0-6.959,0a11.852,11.852,0,0,1,.432-6.81,65.844,65.844,0,0,0,2.829-14.053q.071-.819.118-1.618c.873-14.492-3.688-24.583-3.088-33.436.521-7.685,7.644-13.6,9.42-14.966.255-.2.4-.3.4-.3s.714-.144,1.5-.214c.477-.251.67-1.986.729-4.019.016-.564.022-1.151.02-1.735,0-1.2-.038-2.419-.082-3.485,0-.073-.007-.145-.01-.215-.073-1.707-.164-2.961-.164-2.961l8.16-1.616,1-.2h0l.713-.141,1.023-.2.648-.128v.006a35.452,35.452,0,0,0,.792,7.847c.708,3.139,1.763,5.182,2.625,5.872a1.33,1.33,0,0,0,.343.209.808.808,0,0,0,.092.031c3.42.7,8.216,7.734,10.46,16.58a37.216,37.216,0,0,1,.906,14.451,27.841,27.841,0,0,1-1.347,5.4c-.3.833-.586,1.61-.855,2.339l-.144.388c-1.548,4.191-2.521,6.711-2.878,8.752l0,.016a9.9,9.9,0,0,0-.132,1.079c-.017.248-.024.491-.018.732v0a.306.306,0,0,0,0,.032c.084,3.57,2.5,6.779,7.566,18.128C1983.835,1085.862,1982.4,1087.39,1979.77,1088.9Z" transform="translate(-1939.875 -978.518)" fill="#ffb27d"/>
          <path id="Trazado_138722" data-name="Trazado 138722" d="M2056.434,1006.131s.248,3.43.255,6.662c6.1-.172,9.323-5.736,10.644-8.82Z" transform="translate(-2041.965 -979.569)" fill="#ed975d"/>
          <path id="Trazado_138723" data-name="Trazado 138723" d="M1998.166,851.983s14.431.238,14.441-8.751,1.879-15.012-7.334-15.544-11.007,2.9-11.74,5.9S1994.413,851.689,1998.166,851.983Z" transform="translate(-1985.734 -822.361)" fill="#ffb27d"/>
          <path id="Trazado_138724" data-name="Trazado 138724" d="M2221.468,1199.751a23.9,23.9,0,0,1-6.476,1.568c-1.105-1.941-2.283-4.04-3.434-6.149-3.216-5.894-6.208-11.845-6.771-14.514-.425-2.009-1.463-6.029-2.676-10.532-.183-.681-.37-1.373-.56-2.071h0q-.234-.864-.472-1.734c-2.281-8.358-4.715-16.931-4.715-16.931v0l-.63-2.727-.437-1.891-3.515-15.222-.123-.532.292.032h0c.144.017.34.04.576.069a45.5,45.5,0,0,1,10.17,2.314,5.064,5.064,0,0,1,2.738,2.024,69.99,69.99,0,0,1,3.524,11.729c1.712,7.35,3.3,16.189,4.558,23.31,1.17,6.6,2.062,11.729,2.529,12.815.612,1.428,1.818,5.886,3.278,11.064q.215.77.441,1.56C2220.311,1195.844,2220.882,1197.82,2221.468,1199.751Z" transform="translate(-2162.519 -1091.043)" fill="#ae5dd8"/>
          <path id="Trazado_138725" data-name="Trazado 138725" d="M1968.432,1612.645c-2.461-7.421-9.505-22.375-9.505-22.375h0l-.006,0c-.683.228-1.372.435-2.062.62h0s0,0,0,0a43.815,43.815,0,0,1-5.074,1.054,65.769,65.769,0,0,1-22.831-1.019l-.251.837c-.532,1.772-1.918,6.375-4.246,14a43.032,43.032,0,0,0-1.381,6.863Z" transform="translate(-1923.07 -1502.256)" fill="#632484"/>
          <path id="Trazado_138726" data-name="Trazado 138726" d="M1983.024,1095.077a.1.1,0,0,0-.006-.021c-3.336-7.92-5.977-13.9-6.237-14.335-.745-1.257-10.907-2.5-12.4-2.5-1.081,0-1.674-3.58-1.915-5.54a.727.727,0,0,0-1.129-.515,18.78,18.78,0,0,1-4.759,2.326,15.175,15.175,0,0,1-7.786.688,1.178,1.178,0,0,0-1.442,1.4,3.117,3.117,0,0,1-.262,2.659c-2.637.514-9.258,2.031-10.073,4.451a29.77,29.77,0,0,0-.631,16.153c.688,11.662,3.7,29.084,3.7,29.084,13.993,7.41,29.978-.658,29.978-.658s.018-.358.048-.789c.027-.357.062-.762.1-1.057.092-.656,3.038-7.684,3.038-7.684s.11.545.3,1.477c1.078,5.141,4.771,22.028,7.038,23.547,1.313.879,5.513.894,9.456-.185,4.1-1.12,7.923-3.422,7.923-7.169C1997.979,1131.616,1989.285,1109.933,1983.024,1095.077Z" transform="translate(-1934.212 -1040.254)" fill="#9358cc"/>
          <path id="Trazado_138727" data-name="Trazado 138727" d="M2160.368,1336.909s-2.945,7.029-3.038,7.684c-.041.3-.077.7-.1,1.057a14.518,14.518,0,0,1-4.9,2.576c-4.983,1.51-7.148-8.042-6.85-12.807s7.345-18.368,9.691-18.651S2160.368,1336.909,2160.368,1336.909Z" transform="translate(-2121.323 -1258.425)" fill="#8f4cbf"/>
          <path id="Trazado_138728" data-name="Trazado 138728" d="M2283.262,1503.9c-.193-.932-.3-1.477-.3-1.477A7.5,7.5,0,0,1,2283.262,1503.9Z" transform="translate(-2243.913 -1423.942)" fill="#a872ce"/>
          <path id="Trazado_138729" data-name="Trazado 138729" d="M2387.93,1325.675c0,3.747-3.821,6.049-7.922,7.169,5.653-6.731-6.716-47.461-7.032-48.5C2379.236,1299.2,2387.93,1320.883,2387.93,1325.675Z" transform="translate(-2324.164 -1229.521)" fill="#8f4cbf"/>
          <path id="Trazado_138730" data-name="Trazado 138730" d="M2087.362,1078.225s-7.609,4.819-13.367,3.678c0,0-1.382-.873.525-1.751,1.79-.822,5.954-3.255,5.04-5.656a18.781,18.781,0,0,0,4.759-2.326.727.727,0,0,1,1.129.515C2085.688,1074.645,2086.281,1078.225,2087.362,1078.225Z" transform="translate(-2057.189 -1040.254)" fill="#8f4cbf"/>
          <path id="Trazado_138731" data-name="Trazado 138731" d="M1993.361,803.451s2.665-5.635,9.7,6.089c.895,1.491,4.708,2.751,6.059,2.3,6.609-2.222,4.765,6.6,4.765,6.6s.638-22.661-4.907-23.077S1993.361,803.451,1993.361,803.451Z" transform="translate(-1985.735 -793.577)" fill="#9c2bed"/>
          <path id="Trazado_138732" data-name="Trazado 138732" d="M1994.057,828.747s-3.094,2-7.583,8.864c0,0-.277-6.31,2.357-7.9A7.472,7.472,0,0,1,1994.057,828.747Z" transform="translate(-1979.587 -823.243)" fill="#9c2bed"/>
          <path id="Trazado_138733" data-name="Trazado 138733" d="M2138.651,933.252c.141-2.482,2.522-3.4,3.342-2.66a3.42,3.42,0,0,1,.6,1.921,2.768,2.768,0,0,1-2.66,3.185S2138.6,934.107,2138.651,933.252Z" transform="translate(-2115.26 -913.928)" fill="#ffb27d"/>
        </g>
        <g id="Grupo_131440" data-name="Grupo 131440" transform="translate(117.486 100.739)">
          <path id="Trazado_138734" data-name="Trazado 138734" d="M1662.6,1169.907a18.437,18.437,0,0,0-12.177,2.581c-5.593,3.729-6.4,22.084-9.225,23.949s-14.917,6.74-12.1,14.055-2.09,10.614-.423,15.629,42.9,9.9,46.092,6.314,5.784-15.519,4.056-18.731-9.334-6.039-6.566-9.289C1680.013,1195.322,1677.112,1169,1662.6,1169.907Z" transform="translate(-1628.329 -1169.74)" fill="#632484"/>
          <path id="Trazado_138735" data-name="Trazado 138735" d="M1810.607,1451.772a25.514,25.514,0,0,1-8.28,5.036c-13.147,5.115-20.027-5.625-23.129-13.232a11.813,11.813,0,0,1,4.4-2.084c.2-.053.4-.105.6-.156a5.2,5.2,0,0,0,3.724-3.54,31.14,31.14,0,0,0,.875-10.973l.665.079,11.146,1.379s0,3.479.23,6.735a33.484,33.484,0,0,0,.438,3.777,2.244,2.244,0,0,0,2.006,1.81h0a.033.033,0,0,0,.007.009A69.712,69.712,0,0,1,1810.607,1451.772Z" transform="translate(-1762.829 -1398.93)" fill="#ffb27d"/>
          <path id="Trazado_138736" data-name="Trazado 138736" d="M1654.314,1580.128c1.085-4.069,5.18-18.662,8.165-21.556,2.882-2.793,9.574-3.822,9.782-3.853h0s.109.358.3.939a60.942,60.942,0,0,0,3.111,8.183,3.578,3.578,0,0,0,.733,1.031c.577.456,4.182.824,8.235.943.324.009.652.017.981.023,5.5.1,11.44-.263,11.593-1.488.274-2.176-5.054-10.206-5.254-10.51a.041.041,0,0,1-.007-.01,26.085,26.085,0,0,1,10.042,2.294c6.133,6.2,8.747,15.074,9.542,24.028Z" transform="translate(-1651.495 -1512.157)" fill="#071e42"/>
          <path id="Trazado_138737" data-name="Trazado 138737" d="M1885.018,1428.948s0,3.476.23,6.735c-6.162.273-9.819-5.1-11.376-8.114Z" transform="translate(-1847.232 -1399.597)" fill="#ed985f"/>
          <path id="Trazado_138738" data-name="Trazado 138738" d="M1866.525,1268.242s-14.531,1.3-15.2-7.766-2.993-15,6.257-16.208,11.309,2.115,12.267,5.085S1870.287,1267.672,1866.525,1268.242Z" transform="translate(-1826.461 -1235.954)" fill="#ffb27d"/>
          <path id="Trazado_138739" data-name="Trazado 138739" d="M1842.453,1347.77c-.424-2.825-3.246-3.619-4.105-2.689a3.931,3.931,0,0,0-.487,2.262,3.18,3.18,0,0,0,3.38,3.362S1842.6,1348.744,1842.453,1347.77Z" transform="translate(-1815.126 -1325.727)" fill="#ffb27d"/>
          <path id="Trazado_138740" data-name="Trazado 138740" d="M1833.218,1229.826c-2.447-2.563-4.1-1.841-5-.953a10.2,10.2,0,0,0-12.925,3.041,17.358,17.358,0,0,1-4.92,10.638s2.771,1.445,8.77-.57a10.416,10.416,0,0,0,4.7-3.776,34.036,34.036,0,0,1-5.324,7.559c7.057-3.905,9.253-14.274,9.467-15.369,1.456-.068,4.15.792,5.616,4.3.936,2.238.8,6.42.8,6.42S1836.888,1233.669,1833.218,1229.826Z" transform="translate(-1790.627 -1221.435)" fill="#632484"/>
        </g>
      </g>
      <path id="Trazado_138741" data-name="Trazado 138741" d="M278.287,31.914a187.71,187.71,0,0,1-16.8,15.987,137.239,137.239,0,0,1-18.976,13.331,98.867,98.867,0,0,1-21.574,9.416,69.239,69.239,0,0,1-11.9,2.4c-1.026.09-2.052.206-3.092.239-.519.023-1.038.055-1.56.067l-1.571.007c-1.055.01-2.07-.035-3.112-.055-1.03-.064-2.069-.107-3.1-.209a85.536,85.536,0,0,1-23.736-6.027c-7.481-2.953-14.477-6.518-21.207-9.93-3.363-1.713-6.674-3.38-9.931-4.929-1.631-.783-3.244-1.517-4.85-2.234-.8-.344-1.6-.7-2.4-1.027l-2.463-1.016c-6.859-2.821-13.563-5.448-20.164-7.543-3.3-1.049-6.563-1.966-9.773-2.7-1.6-.368-3.2-.694-4.767-.967s-3.126-.478-4.652-.637a44.109,44.109,0,0,0-16.454,1.012,29.612,29.612,0,0,0-3.362,1.173c-.535.219-1.053.464-1.563.71l-.751.386c-.226.131-.452.251-.674.388A23.572,23.572,0,0,0,64.982,43.6c-.36.376-.713.756-1.047,1.155l-1.3,1.486c-.45.512-.852,1.048-1.281,1.561-.414.523-.79,1.06-1.19,1.579a40.137,40.137,0,0,0-3.8,6.471A36.211,36.211,0,0,0,53.984,62.5a36.752,36.752,0,0,0-1.066,6.9,52.7,52.7,0,0,0,1.3,14.8,78.511,78.511,0,0,0,5.391,15.6,84.117,84.117,0,0,0,3.959,7.58c.716,1.218,1.458,2.408,2.2,3.528.371.555.748,1.093,1.109,1.58.18.242.359.477.519.667a3.217,3.217,0,0,0,.222.249c.028.023.068.07.079.063l.014,0s.017.017,0-.027l-.079-.18a32.86,32.86,0,0,1-11.736,44.488,31.769,31.769,0,0,1-43.776-11.926l-.251-.49-.161-.335-.257-.561-.439-1.005c-.277-.647-.524-1.256-.765-1.862-.48-1.207-.917-2.377-1.342-3.537-.838-2.317-1.6-4.6-2.3-6.893-1.4-4.578-2.57-9.181-3.558-13.856A137.782,137.782,0,0,1,0,88.251,104.225,104.225,0,0,1,4.475,57.817a90.505,90.505,0,0,1,5.983-14.676,83.561,83.561,0,0,1,8.466-13.232A85.46,85.46,0,0,1,29.3,18.794c.934-.809,1.858-1.632,2.8-2.41.954-.761,1.9-1.543,2.863-2.267l1.452-1.076c.494-.363.933-.692,1.525-1.109,1.115-.8,2.259-1.552,3.421-2.275A63.628,63.628,0,0,1,56.217,2.851c.649-.206,1.307-.387,1.962-.572.642-.168,1.276-.331,1.914-.485,1.278-.3,2.557-.57,3.838-.79A67.071,67.071,0,0,1,71.578.113,72.69,72.69,0,0,1,86.241.785,87.861,87.861,0,0,1,99.624,3.849a134.654,134.654,0,0,1,23.292,9.943c7.159,3.812,13.832,7.963,20.253,12.077l2.5,1.612c.859.553,1.689,1.12,2.53,1.68,1.654,1.132,3.288,2.27,4.871,3.418,3.183,2.292,6.231,4.6,9.239,6.849,6.007,4.5,11.8,8.823,17.768,12.481a70.35,70.35,0,0,0,18.6,8.358c.81.227,1.627.4,2.445.6l1.234.242.619.123c.205.037.407.057.612.087l1.225.168c.411.048.825.077,1.239.117.827.094,1.667.11,2.507.156.841.027,1.69.025,2.54.022.852-.04,1.706-.031,2.563-.11l1.288-.092c.43-.033.86-.09,1.29-.134.862-.086,1.722-.218,2.584-.351.865-.114,1.721-.306,2.586-.456.862-.168,1.72-.372,2.582-.559.853-.23,1.711-.444,2.565-.688.848-.262,1.707-.492,2.552-.778,1.7-.544,3.378-1.162,5.039-1.842.832-.336,1.664-.676,2.484-1.049l1.235-.55,1.217-.59a90.93,90.93,0,0,0,18.3-11.789,90.21,90.21,0,0,0,15.128-15.858,3.753,3.753,0,0,1,5.308-.778,3.9,3.9,0,0,1,.766,5.394,3.821,3.821,0,0,1-.283.342Z" transform="translate(586.123 899.133) rotate(176)" fill="#fdb74d"/>
    </g>
  </g>
</svg>
