<svg xmlns="http://www.w3.org/2000/svg" xmlns:xlink="http://www.w3.org/1999/xlink" width="200.099" height="213.224" viewBox="0 0 200.099 213.224">
  <defs>
    <clipPath id="clip-path">
      <rect id="Rectángulo_34841" data-name="Rectángulo 34841" width="135.493" height="186.241" fill="none"/>
    </clipPath>
  </defs>
  <g id="Grupo_131958" data-name="Grupo 131958" transform="translate(-1125 -1181)">
    <g id="Grupo_131957" data-name="Grupo 131957">
      <g id="Grupo_130977" data-name="Grupo 130977" transform="translate(839.111 197)">
        <g id="Grupo_130954" data-name="Grupo 130954" transform="translate(320.95 1031.42)">
          <ellipse id="Elipse_4784" data-name="Elipse 4784" cx="55.387" cy="72.051" rx="55.387" ry="72.051" transform="translate(0 0)" fill="#8c6df2" opacity="0.25"/>
        </g>
        <path id="Trazado_138318" data-name="Trazado 138318" d="M181.877,90.41a123.649,123.649,0,0,0-10.852-11.084,87.723,87.723,0,0,0-12.277-9.219,61.149,61.149,0,0,0-13.987-6.475,41.987,41.987,0,0,0-7.729-1.619c-.667-.058-1.334-.134-2.01-.152-.338-.013-.675-.034-1.014-.04l-1.022,0c-.686,0-1.347.034-2.025.052-.67.05-1.346.084-2.016.16a53.168,53.168,0,0,0-15.47,4.316c-4.881,2.1-9.449,4.616-13.844,7.029-2.2,1.212-4.358,2.39-6.485,3.487-1.065.554-2.118,1.074-3.166,1.582-.522.244-1.045.5-1.564.728l-1.607.721c-4.476,2-8.85,3.865-13.154,5.358-2.15.748-4.279,1.4-6.371,1.931-1.046.265-2.082.5-3.106.7s-2.036.348-3.029.466a26.722,26.722,0,0,1-10.7-.631,18.144,18.144,0,0,1-2.181-.8c-.347-.151-.683-.319-1.013-.488l-.487-.266c-.146-.09-.293-.173-.436-.268a15.236,15.236,0,0,1-3.151-2.664c-.233-.26-.46-.525-.676-.8L41.667,81.4c-.29-.356-.549-.728-.826-1.084s-.509-.737-.766-1.1a28.054,28.054,0,0,1-2.441-4.5,26.187,26.187,0,0,1-1.512-4.631,27.24,27.24,0,0,1-.659-4.811,39.539,39.539,0,0,1,.919-10.34,58.29,58.29,0,0,1,3.584-10.912c.782-1.81,1.668-3.6,2.613-5.31.472-.854.96-1.688,1.449-2.473.244-.389.492-.766.729-1.108.118-.169.236-.334.341-.468a2.246,2.246,0,0,1,.145-.175c.018-.016.044-.049.052-.044l.009,0s.011-.012,0,.019l-.052.126c5.832-10.916,2.513-24.8-7.413-31S15.134,1.2,9.3,12.111l-.166.343-.106.235-.17.393-.29.7c-.183.453-.347.879-.507,1.3-.318.845-.608,1.663-.89,2.476-.557,1.621-1.062,3.22-1.53,4.822-.935,3.2-1.717,6.421-2.383,9.689A103.4,103.4,0,0,0,1.134,52.353,77.28,77.28,0,0,0,3.893,73.579,64.979,64.979,0,0,0,7.713,83.8,57.947,57.947,0,0,0,13.154,93a57.011,57.011,0,0,0,6.694,7.712c.6.561,1.2,1.131,1.812,1.67s1.226,1.069,1.851,1.57l.939.744c.32.251.6.479.987.767.721.551,1.462,1.073,2.214,1.572a39.452,39.452,0,0,0,9.627,4.683c.421.141.848.265,1.273.391s.828.225,1.243.33c.83.2,1.661.386,2.493.534a40.571,40.571,0,0,0,4.97.587,44.2,44.2,0,0,0,9.541-.536,54.409,54.409,0,0,0,8.721-2.2,85.894,85.894,0,0,0,15.2-7.048c4.676-2.694,9.037-5.622,13.234-8.524l1.637-1.137c.562-.39,1.1-.789,1.654-1.185,1.081-.8,2.15-1.6,3.185-2.408,2.082-1.615,4.076-3.243,6.044-4.824,3.929-3.168,7.718-6.213,11.62-8.794a45.033,45.033,0,0,1,12.143-5.92c.528-.162,1.06-.285,1.594-.428l.8-.175.4-.089c.134-.027.265-.042.4-.063l.8-.123c.267-.036.537-.057.807-.088.538-.069,1.085-.084,1.631-.12s1.1-.025,1.652-.027c.554.024,1.11.014,1.667.065l.838.058c.28.021.559.059.839.088.56.056,1.119.144,1.679.233s1.118.206,1.68.307,1.117.251,1.677.378c.554.157,1.111.3,1.665.468s1.108.335,1.656.531c1.1.372,2.191.8,3.269,1.263.54.231,1.079.464,1.611.721l.8.378.789.406a57.7,57.7,0,0,1,11.843,8.146,60.047,60.047,0,0,1,9.762,11,2.324,2.324,0,0,0,3.449.519,2.868,2.868,0,0,0,.525-3.769,2.579,2.579,0,0,0-.182-.237Z" transform="translate(487.033 1033.416) rotate(116)" fill="#fdb74d"/>
        <g id="Grupo_130976" data-name="Grupo 130976" transform="translate(285.889 984)">
          <g id="Grupo_80940" data-name="Grupo 80940" clip-path="url(#clip-path)">
            <path id="Trazado_115935" data-name="Trazado 115935" d="M65.583,164.381c1.364-3.246.717-4.505-2.373-5.426-.568-.169-1.11-1.118-1.279-1.8-.48-1.952-.974-3.315-3.249-4.385-2.6-1.225-5.583-2.493-6.727-6.155-.626-2-3.463-3.328-5.334-4.921-.313-.266-.914-.228-1.17-.518-1.059-1.2-2.277-.843-3.654-.99-2.368-.252-4.627-1.821-6.856-2.981-1.263-.658-2.342-1.665-3.581-2.38a1.531,1.531,0,0,0-1.448.139c-2.573,2.927-5.363,1.288-8.131.5-.771-.219-1.583-.295-2.361-.494-1.16-.3-2.414-.121-2.448-2.2-.015-.936-1.939-2.412-3.177-2.631-2.234-.4-4.066-.927-5.1-3.1-.163-.343-.518-.806-.824-.838-3.429-.353-5.013-3.076-7.873-5.894l5.6-1.477c-2.529-3.012-2.02-5.768,1.625-8.378l.883,2.026.129-1.082a30.53,30.53,0,0,0,3.855-1.592,8.406,8.406,0,0,0,2.731-2.311c1.8-2.583,3.252-5.412,5.134-7.926.956-1.277,1.834-2.027.109-3.311-.324-.241.041-1.409.1-2.314l-1.182,1.306c-1.709-1.48-2.638-2.968-.41-4.911a2.81,2.81,0,0,0,.638-2.06c-.2-2.931-.472-5.861-.864-8.772-.092-.682-.75-1.287-1.15-1.931,3.363-2.626,3.33-2.606,1.026-6.393-.275-.452.015-1.273.1-1.915.241-1.753,1.657-3.363-1.134-4.911-1.822-1.01-2.763-3.713-3.908-5.764-.269-.482.136-1.431.4-2.1.383-.971.92-1.881,1.479-2.991l1.412,1.556c1.307-1.513,2.919-2.817,3.7-4.505.431-.93-.629-2.491-.843-3.8-.218-1.33-2.707-2.33-.435-4.269,1.152,3.066,5.5,3.873,5.028,8.362.6-.229,1.7-.522,1.685-.665-.312-2.324-.766-4.628-1.212-7.07A53.858,53.858,0,0,0,29.306,40a11.185,11.185,0,0,0,2.608-3.155c1.036-1.765,1.763-3.576,4.5-2.909.547.133,2.295-1.829,2.145-2.11-1.469-2.761.593-5.173.544-7.77-.1-5.058,4.408-6.409,7.667-8.591.747-.5,2.3.2,2.941.81l1.6,2.752.774-.039a26.126,26.126,0,0,1,1.526-4.806c.487-.919,2.135-2.234,2.578-2.011,4.915,2.474,8.629,0,12.429-2.572A20.729,20.729,0,0,1,72.88,7.414c2.824-1.068,3.777-2.223,3.953-5.463,2.054.532,3.3-.646,4.915-1.731,1.057-.711,3.6.467,5.308,1.2.709.307.961,1.669,1.769,3.219-2.7,1.179-5.278,2.183-7.733,3.424-1.223.618-2.754,1.451-3.22,2.572-.99,2.38-3.253,3.206-4.741,4.862a18.168,18.168,0,0,0-4.856,9.936c-.386,2.963-.93,6.108-3.314,8.445a13.174,13.174,0,0,0-1.575,2.931l3.226-1.082a14.1,14.1,0,0,1,2.665,1.4,3.231,3.231,0,0,1,.931,1.831A10.841,10.841,0,0,0,73.394,45.2c1.341,1.305,1.24,2.873.5,4.749-.666,1.691-.39,3.759-.483,5.663-.01.214.3.645.433.635,2.569-.2,2.781,2.043,3.784,3.515a2.646,2.646,0,0,0,1.72,1.1c3.16.2,6.329.266,9.5.3.6.007,1.206-.468,1.821-.5a27.171,27.171,0,0,1,4.159.018,18.183,18.183,0,0,1,3.688.8,4.269,4.269,0,0,1,1.966,1.189c1.876,2.3,3.613,4.706,5.45,7.035,1.17,1.484,2.42,2.314,4.325.828a4.11,4.11,0,0,1,2.837-.395,23.5,23.5,0,0,0,11.515-1.1c1.184-.412,2.684.083,4.037.163l.541,2.75c-1.569,3.457-3.626,6.429-4.192,9.662a24.693,24.693,0,0,0,.569,10.657c.935,3.3,3.239,6.22,5.089,9.572l-6.107,5.517c4.636,1.275,6.92,4.5,8.32,8.545.868,2.511,1.7,5.035,2.464,7.58.184.616.282,1.619-.057,1.939-.422.4-1.338.273-2.041.373-.079-.645-.189-1.288-.231-1.935-.151-2.327.2-4.732-2.21-6.4-.685-.475-.7-1.921-1.087-3.137l-6.446,4.538-2.639-2.03c-.114,1.2-.193,2.015-.3,3.153-3.878,0-8.106.173-12.314-.043-5.493-.283-5.6-.31-5.586,5.024,0,.556,0,1.112,0,1.826,1.052.131,2.075.292,3.1.382,4.436.384,4.436.377,4.683,4.427L100.2,132.8c0,2.793-.124,5.29.075,7.761a3.61,3.61,0,0,0,1.582,2.1c1.809,1.292,3.766,2.113,3.571,5.11-.117,1.8,1.59,3.654,1.728,5.539.143,1.952-.634,3.968-.982,5.961-1.54,8.813-3.069,17.628-4.7,26.974-1.432-1.572-2.376-3.182-3.781-3.975-1.2-.676-2.924-.412-4.936-.616l7.523-12.051c-3.082-1.816-5.939-3.641-8.947-5.173a3.414,3.414,0,0,0-2.98.334c-1.678,1.266-2.98.821-4.465-.187s-2.867-2.148-4.42.3A4.523,4.523,0,0,1,75.7,166.36c-3.373-.538-7.151.588-10.121-1.98" transform="translate(0 0)" fill="#8c6df2"/>
          </g>
        </g>
      </g>
    </g>
  </g>
</svg>
