<svg xmlns="http://www.w3.org/2000/svg" width="136.973" height="136.973" viewBox="0 0 136.973 136.973">
  <g id="Grupo_132224" data-name="Grupo 132224" transform="translate(-16380.105 11226)">
    <g id="Grupo_132141" data-name="Grupo 132141" transform="translate(16380.105 -11226)">
      <g id="Trazado_137458" data-name="Trazado 137458" transform="translate(0 0)" fill="#fff">
        <path d="M 68.48631286621094 131.9726409912109 C 59.91350936889648 131.9726409912109 51.59981155395508 130.2947692871094 43.77611541748047 126.9856185913086 C 40.01535797119141 125.3949661254883 36.38774871826172 123.4259033203125 32.9940071105957 121.1331405639648 C 29.6312255859375 118.8612899780273 26.46885681152344 116.2520523071289 23.5947265625 113.3779220581055 C 20.72059631347656 110.503791809082 18.11135673522949 107.341423034668 15.83950805664062 103.9786376953125 C 13.5467472076416 100.5848999023438 11.57768249511719 96.95726776123047 9.987030029296875 93.196533203125 C 6.677877902984619 85.37283325195312 5.000008583068848 77.05912017822266 5.000008583068848 68.48631286621094 C 5.000008583068848 59.91350936889648 6.677877902984619 51.59981155395508 9.987030029296875 43.77611541748047 C 11.57768249511719 40.01535797119141 13.5467472076416 36.38774871826172 15.83950805664062 32.9940071105957 C 18.11135673522949 29.6312255859375 20.72059631347656 26.46885681152344 23.5947265625 23.5947265625 C 26.46885681152344 20.72059631347656 29.6312255859375 18.11135673522949 32.9940071105957 15.83950805664062 C 36.38774871826172 13.5467472076416 40.01535797119141 11.57768249511719 43.77611541748047 9.987030029296875 C 51.59981155395508 6.677877902984619 59.91350936889648 5.000008583068848 68.48631286621094 5.000008583068848 C 77.05912017822266 5.000008583068848 85.37283325195312 6.677877902984619 93.196533203125 9.987030029296875 C 96.95726776123047 11.57768249511719 100.5848999023438 13.5467472076416 103.9786376953125 15.83950805664062 C 107.341423034668 18.11135673522949 110.503791809082 20.72059631347656 113.3779220581055 23.5947265625 C 116.2520523071289 26.46885681152344 118.8612899780273 29.6312255859375 121.1331405639648 32.9940071105957 C 123.4259033203125 36.38774871826172 125.3949661254883 40.01535797119141 126.9856185913086 43.77611541748047 C 130.2947692871094 51.59981155395508 131.9726409912109 59.91350936889648 131.9726409912109 68.48631286621094 C 131.9726409912109 77.05912017822266 130.2947692871094 85.37283325195312 126.9856185913086 93.196533203125 C 125.3949661254883 96.95726776123047 123.4259033203125 100.5848999023438 121.1331405639648 103.9786376953125 C 118.8612899780273 107.341423034668 116.2520523071289 110.503791809082 113.3779220581055 113.3779220581055 C 110.503791809082 116.2520523071289 107.341423034668 118.8612899780273 103.9786376953125 121.1331405639648 C 100.5848999023438 123.4259033203125 96.95726776123047 125.3949661254883 93.196533203125 126.9856185913086 C 85.37283325195312 130.2947692871094 77.05912017822266 131.9726409912109 68.48631286621094 131.9726409912109 Z" stroke="none"/>
        <path d="M 68.48631286621094 10.00000762939453 C 36.23686981201172 10.00000762939453 10.00000762939453 36.23686981201172 10.00000762939453 68.48631286621094 C 10.00000762939453 100.7357559204102 36.23686981201172 126.9726181030273 68.48631286621094 126.9726181030273 C 100.7357559204102 126.9726181030273 126.9726181030273 100.7357559204102 126.9726181030273 68.48631286621094 C 126.9726181030273 36.23686981201172 100.7357559204102 10.00000762939453 68.48631286621094 10.00000762939453 M 68.48631286621094 0 C 106.3102569580078 0 136.9726257324219 30.66236877441406 136.9726257324219 68.48631286621094 C 136.9726257324219 106.3102569580078 106.3102569580078 136.9726257324219 68.48631286621094 136.9726257324219 C 30.66236877441406 136.9726257324219 0 106.3102569580078 0 68.48631286621094 C 0 30.66236877441406 30.66236877441406 0 68.48631286621094 0 Z" stroke="none" fill="#8c6df2"/>
      </g>
    </g>
    <g id="Grupo_132164" data-name="Grupo 132164" transform="translate(16981.301 -11405.73)">
      <path id="Trazado_189387" data-name="Trazado 189387" d="M-519.562,279.8h-26.77a6.1,6.1,0,0,0-.45-.567q-8.863-8.874-17.738-17.734a1.392,1.392,0,0,1-.462-1.085q.023-12.636,0-25.273a1.394,1.394,0,0,1,.448-1.091q8.949-8.92,17.868-17.87a1.393,1.393,0,0,1,1.09-.45q12.634.02,25.268,0a1.393,1.393,0,0,1,1.087.457q8.854,8.883,17.729,17.743a6.335,6.335,0,0,0,.566.453v26.775a3.533,3.533,0,0,0-.433.32q-8.947,8.941-17.886,17.889A3.534,3.534,0,0,0-519.562,279.8Zm-25.752-33.738c-.216-.038-.36-.056-.5-.088a5.382,5.382,0,0,0-6.643,4.589,36.754,36.754,0,0,0-.078,5.807,14.341,14.341,0,0,0,5.913,11.217c1.595,1.205,3.253,2.327,4.9,3.466a1.39,1.39,0,0,0,.749.215q9.443.017,18.885-.006a.97.97,0,0,0,.7-.351c1.533-2.258,3.075-4.511,4.537-6.815a20.343,20.343,0,0,0,3.383-10.144c.194-5.08.181-10.171.118-15.256a5.329,5.329,0,0,0-6.507-5.1c-.154.03-.314.029-.555.049a5.646,5.646,0,0,0-1.819-5.071,5.45,5.45,0,0,0-5.172-1.129c-.8-3.3-2.691-5-5.477-4.981a5.216,5.216,0,0,0-3.347,1.193,5.428,5.428,0,0,0-2.026,4.429.869.869,0,0,1-.237.017,5.453,5.453,0,0,0-6.828,5.624c.061,2.333.011,4.67.011,7Z" fill="#8c6df2"/>
      <path id="Trazado_189388" data-name="Trazado 189388" d="M-464.852,310.3c.572,0,1.088,0,1.6,0,1.188,0,2.378-.03,3.564.024a5.449,5.449,0,0,1,5.3,4.954c.017.141.025.283.039.46h3.732a9.146,9.146,0,0,0-3.174-6.909,9.615,9.615,0,0,0-7.274-2.274c-.017-.258-.039-.438-.039-.619,0-6.652-.012-13.3.02-19.956a2.764,2.764,0,0,1,.5-1.476,1.372,1.372,0,0,1,1.587-.429,1.509,1.509,0,0,1,1.135,1.208,4.739,4.739,0,0,1,.07.932q.006,6.975,0,13.95v.8h3.753v-.814q0-9.665,0-19.33c0-.25,0-.5.016-.75a1.6,1.6,0,0,1,1.6-1.521,1.624,1.624,0,0,1,1.669,1.525c.018.207.009.417.009.625q0,9.759,0,19.518v.77h3.753v-.733q0-7.538,0-15.076a1.655,1.655,0,0,1,1.722-1.856,1.6,1.6,0,0,1,1.538,1.381,6.193,6.193,0,0,1,.032.811q0,7.351,0,14.7v.771h3.753v-.763q0-4.254,0-8.508a4.54,4.54,0,0,1,.065-.87,1.582,1.582,0,0,1,1.5-1.277,1.567,1.567,0,0,1,1.634,1.1,3.5,3.5,0,0,1,.116.986q.011,6.1.005,12.2a19.782,19.782,0,0,1-3.421,11.309c-.954,1.418-1.9,2.838-2.836,4.27a.845.845,0,0,1-.81.427c-5.212-.013-10.424-.006-15.636-.018a1.4,1.4,0,0,1-.747-.212c-1.306-.9-2.616-1.788-3.88-2.741a10.7,10.7,0,0,1-4.395-8.464c-.066-1.54-.027-3.086-.013-4.629a1.762,1.762,0,0,1,1.752-1.883,1.742,1.742,0,0,1,1.743,1.877c.011,1.918,0,3.837,0,5.755Z" transform="translate(-80.463 -52.319)" fill="#8c6df2"/>
    </g>
  </g>
</svg>
