<svg xmlns="http://www.w3.org/2000/svg" width="136.973" height="136.973" viewBox="0 0 136.973 136.973">
  <g id="Grupo_132226" data-name="Grupo 132226" transform="translate(-18203.961 11322)">
    <g id="Grupo_132147" data-name="Grupo 132147" transform="translate(18203.961 -11322)">
      <g id="Trazado_137458" data-name="Trazado 137458" transform="translate(0 0)" fill="#fff">
        <path d="M 68.48631286621094 131.9726409912109 C 59.91350936889648 131.9726409912109 51.59981155395508 130.2947692871094 43.77611541748047 126.9856185913086 C 40.01535797119141 125.3949661254883 36.38774871826172 123.4259033203125 32.9940071105957 121.1331405639648 C 29.6312255859375 118.8612899780273 26.46885681152344 116.2520523071289 23.5947265625 113.3779220581055 C 20.72059631347656 110.503791809082 18.11135673522949 107.341423034668 15.83950805664062 103.9786376953125 C 13.5467472076416 100.5848999023438 11.57768249511719 96.95726776123047 9.987030029296875 93.196533203125 C 6.677877902984619 85.37283325195312 5.000008583068848 77.05912017822266 5.000008583068848 68.48631286621094 C 5.000008583068848 59.91350936889648 6.677877902984619 51.59981155395508 9.987030029296875 43.77611541748047 C 11.57768249511719 40.01535797119141 13.5467472076416 36.38774871826172 15.83950805664062 32.9940071105957 C 18.11135673522949 29.6312255859375 20.72059631347656 26.46885681152344 23.5947265625 23.5947265625 C 26.46885681152344 20.72059631347656 29.6312255859375 18.11135673522949 32.9940071105957 15.83950805664062 C 36.38774871826172 13.5467472076416 40.01535797119141 11.57768249511719 43.77611541748047 9.987030029296875 C 51.59981155395508 6.677877902984619 59.91350936889648 5.000008583068848 68.48631286621094 5.000008583068848 C 77.05912017822266 5.000008583068848 85.37283325195312 6.677877902984619 93.196533203125 9.987030029296875 C 96.95726776123047 11.57768249511719 100.5848999023438 13.5467472076416 103.9786376953125 15.83950805664062 C 107.341423034668 18.11135673522949 110.503791809082 20.72059631347656 113.3779220581055 23.5947265625 C 116.2520523071289 26.46885681152344 118.8612899780273 29.6312255859375 121.1331405639648 32.9940071105957 C 123.4259033203125 36.38774871826172 125.3949661254883 40.01535797119141 126.9856185913086 43.77611541748047 C 130.2947692871094 51.59981155395508 131.9726409912109 59.91350936889648 131.9726409912109 68.48631286621094 C 131.9726409912109 77.05912017822266 130.2947692871094 85.37283325195312 126.9856185913086 93.196533203125 C 125.3949661254883 96.95726776123047 123.4259033203125 100.5848999023438 121.1331405639648 103.9786376953125 C 118.8612899780273 107.341423034668 116.2520523071289 110.503791809082 113.3779220581055 113.3779220581055 C 110.503791809082 116.2520523071289 107.341423034668 118.8612899780273 103.9786376953125 121.1331405639648 C 100.5848999023438 123.4259033203125 96.95726776123047 125.3949661254883 93.196533203125 126.9856185913086 C 85.37283325195312 130.2947692871094 77.05912017822266 131.9726409912109 68.48631286621094 131.9726409912109 Z" stroke="none"/>
        <path d="M 68.48631286621094 10.00000762939453 C 36.23686981201172 10.00000762939453 10.00000762939453 36.23686981201172 10.00000762939453 68.48631286621094 C 10.00000762939453 100.7357559204102 36.23686981201172 126.9726181030273 68.48631286621094 126.9726181030273 C 100.7357559204102 126.9726181030273 126.9726181030273 100.7357559204102 126.9726181030273 68.48631286621094 C 126.9726181030273 36.23686981201172 100.7357559204102 10.00000762939453 68.48631286621094 10.00000762939453 M 68.48631286621094 0 C 106.3102569580078 0 136.9726257324219 30.66236877441406 136.9726257324219 68.48631286621094 C 136.9726257324219 106.3102569580078 106.3102569580078 136.9726257324219 68.48631286621094 136.9726257324219 C 30.66236877441406 136.9726257324219 0 106.3102569580078 0 68.48631286621094 C 0 30.66236877441406 30.66236877441406 0 68.48631286621094 0 Z" stroke="none" fill="#8c6df2"/>
      </g>
    </g>
    <path id="Trazado_189389" data-name="Trazado 189389" d="M95.432,319.07c0-.932-.009-1.769,0-2.606a2.622,2.622,0,1,1,5.244,0c.012.851,0,1.7,0,2.578h20.868c0-.905-.013-1.792,0-2.677a2.593,2.593,0,0,1,1.745-2.408,2.624,2.624,0,0,1,2.906.833,2.719,2.719,0,0,1,.593,1.776c0,.815,0,1.63,0,2.438a23.038,23.038,0,0,1,2.428.226,7.89,7.89,0,0,1,6.411,7.824c.019,4.081,0,8.161,0,12.242,0,6.923.021,13.845-.01,20.768a7.771,7.771,0,0,1-4.462,7.271,7.176,7.176,0,0,1-3.37.8q-16.693.008-33.386,0a7.887,7.887,0,0,1-7.824-7.853q-.025-16.669,0-33.338a7.917,7.917,0,0,1,7.761-7.865C94.689,319.064,95.031,319.07,95.432,319.07Zm34.916,13.968c0-2.175.076-4.305-.027-6.427a2.442,2.442,0,0,0-2.7-2.293q-16.5-.009-33,0a2.6,2.6,0,0,0-2.783,2.816c-.007,1.8,0,3.606,0,5.41,0,.158.019.316.031.494ZM111.11,358c.364,0,.729.012,1.093,0a2.624,2.624,0,0,0,.058-5.243,21.721,21.721,0,0,0-2.294,0,2.624,2.624,0,0,0,.05,5.243C110.38,358.014,110.745,358,111.11,358Zm11.276,0c.346,0,.693.01,1.038,0a2.625,2.625,0,0,0,.033-5.25c-.728-.027-1.458-.029-2.186,0a2.625,2.625,0,0,0,.021,5.247C121.656,358.014,122.021,358,122.385,358Zm-22.53,0c.346,0,.692.01,1.037,0a2.624,2.624,0,0,0,.136-5.24,19.025,19.025,0,0,0-2.345,0A2.623,2.623,0,0,0,98.764,358C99.127,358.014,99.491,358,99.855,358Zm11.236-10.167v0c.418,0,.839.028,1.254-.005a2.607,2.607,0,0,0,2.4-2.525,2.558,2.558,0,0,0-2.255-2.646,14.894,14.894,0,0,0-2.775,0,2.558,2.558,0,0,0-2.244,2.6,2.61,2.61,0,0,0,2.363,2.561C110.252,347.867,110.673,347.837,111.091,347.837Zm11.257,0c.436,0,.875.032,1.309-.006a2.608,2.608,0,0,0,2.357-2.568,2.558,2.558,0,0,0-2.252-2.6,14.942,14.942,0,0,0-2.775,0,2.558,2.558,0,0,0-2.25,2.6,2.61,2.61,0,0,0,2.358,2.567C121.509,347.867,121.93,347.836,122.348,347.836Zm-22.506,0c.419,0,.84.03,1.256-.005a2.581,2.581,0,0,0,2.363-2.557,2.532,2.532,0,0,0-2.232-2.608,14.743,14.743,0,0,0-2.778,0,2.554,2.554,0,0,0-2.239,2.61,2.609,2.609,0,0,0,2.375,2.555C99,347.868,99.424,347.838,99.843,347.838Z" transform="translate(18161.387 -11594.809)" fill="#8c6df2"/>
  </g>
</svg>
