<svg xmlns="http://www.w3.org/2000/svg" width="136.973" height="136.973" viewBox="0 0 136.973 136.973">
  <g id="Grupo_132227" data-name="Grupo 132227" transform="translate(-18447.119 11140)">
    <g id="Grupo_132150" data-name="Grupo 132150" transform="translate(18447.119 -11140)">
      <g id="Trazado_137458" data-name="Trazado 137458" transform="translate(0 0)" fill="#fff">
        <path d="M 68.48631286621094 131.9726409912109 C 59.91350936889648 131.9726409912109 51.59981155395508 130.2947692871094 43.77611541748047 126.9856185913086 C 40.01535797119141 125.3949661254883 36.38774871826172 123.4259033203125 32.9940071105957 121.1331405639648 C 29.6312255859375 118.8612899780273 26.46885681152344 116.2520523071289 23.5947265625 113.3779220581055 C 20.72059631347656 110.503791809082 18.11135673522949 107.341423034668 15.83950805664062 103.9786376953125 C 13.5467472076416 100.5848999023438 11.57768249511719 96.95726776123047 9.987030029296875 93.196533203125 C 6.677877902984619 85.37283325195312 5.000008583068848 77.05912017822266 5.000008583068848 68.48631286621094 C 5.000008583068848 59.91350936889648 6.677877902984619 51.59981155395508 9.987030029296875 43.77611541748047 C 11.57768249511719 40.01535797119141 13.5467472076416 36.38774871826172 15.83950805664062 32.9940071105957 C 18.11135673522949 29.6312255859375 20.72059631347656 26.46885681152344 23.5947265625 23.5947265625 C 26.46885681152344 20.72059631347656 29.6312255859375 18.11135673522949 32.9940071105957 15.83950805664062 C 36.38774871826172 13.5467472076416 40.01535797119141 11.57768249511719 43.77611541748047 9.987030029296875 C 51.59981155395508 6.677877902984619 59.91350936889648 5.000008583068848 68.48631286621094 5.000008583068848 C 77.05912017822266 5.000008583068848 85.37283325195312 6.677877902984619 93.196533203125 9.987030029296875 C 96.95726776123047 11.57768249511719 100.5848999023438 13.5467472076416 103.9786376953125 15.83950805664062 C 107.341423034668 18.11135673522949 110.503791809082 20.72059631347656 113.3779220581055 23.5947265625 C 116.2520523071289 26.46885681152344 118.8612899780273 29.6312255859375 121.1331405639648 32.9940071105957 C 123.4259033203125 36.38774871826172 125.3949661254883 40.01535797119141 126.9856185913086 43.77611541748047 C 130.2947692871094 51.59981155395508 131.9726409912109 59.91350936889648 131.9726409912109 68.48631286621094 C 131.9726409912109 77.05912017822266 130.2947692871094 85.37283325195312 126.9856185913086 93.196533203125 C 125.3949661254883 96.95726776123047 123.4259033203125 100.5848999023438 121.1331405639648 103.9786376953125 C 118.8612899780273 107.341423034668 116.2520523071289 110.503791809082 113.3779220581055 113.3779220581055 C 110.503791809082 116.2520523071289 107.341423034668 118.8612899780273 103.9786376953125 121.1331405639648 C 100.5848999023438 123.4259033203125 96.95726776123047 125.3949661254883 93.196533203125 126.9856185913086 C 85.37283325195312 130.2947692871094 77.05912017822266 131.9726409912109 68.48631286621094 131.9726409912109 Z" stroke="none"/>
        <path d="M 68.48631286621094 10.00000762939453 C 36.23686981201172 10.00000762939453 10.00000762939453 36.23686981201172 10.00000762939453 68.48631286621094 C 10.00000762939453 100.7357559204102 36.23686981201172 126.9726181030273 68.48631286621094 126.9726181030273 C 100.7357559204102 126.9726181030273 126.9726181030273 100.7357559204102 126.9726181030273 68.48631286621094 C 126.9726181030273 36.23686981201172 100.7357559204102 10.00000762939453 68.48631286621094 10.00000762939453 M 68.48631286621094 0 C 106.3102569580078 0 136.9726257324219 30.66236877441406 136.9726257324219 68.48631286621094 C 136.9726257324219 106.3102569580078 106.3102569580078 136.9726257324219 68.48631286621094 136.9726257324219 C 30.66236877441406 136.9726257324219 0 106.3102569580078 0 68.48631286621094 C 0 30.66236877441406 30.66236877441406 0 68.48631286621094 0 Z" stroke="none" fill="#8c6df2"/>
      </g>
    </g>
    <g id="Grupo_132166" data-name="Grupo 132166" transform="translate(18486.119 -11101)">
      <path id="Trazado_187702" data-name="Trazado 187702" d="M433.2,213.593q1.089-4.128,2.178-8.255c.753-2.852,1.5-5.705,2.261-8.554a3.447,3.447,0,0,1,4.552-2.7q2.733.739,5.455,1.518a3.566,3.566,0,0,1,2.6,4.559c-.194.812-.416,1.618-.641,2.487l9.585-.535c-.032-.184-.052-.353-.091-.517-.495-2.092-1-4.181-1.486-6.275a1.418,1.418,0,0,1,.678-1.7,1.255,1.255,0,0,1,1.6.325,2.523,2.523,0,0,1,.4.9q1.8,7.525,3.565,15.059c.131.562.337.767.9.728.793-.054,1.593-.014,2.476-.014-.075-1.2-.141-2.341-.218-3.485q-.375-5.572-.756-11.143-.2-2.9-.383-5.807c-.076-1.183.691-1.939,1.681-1.669a1.378,1.378,0,0,1,1,1.347q.234,3.195.443,6.392.466,6.95.919,13.9c.023.351.13.475.476.469,1.105-.018,2.211-.011,3.316,0,1.33.008,1.962.65,1.963,2.018q.007,9.351,0,18.7v.791h3.476c-.684-1.037-.636-2.282-.855-3.446-.562-2.979-1.047-5.973-1.568-8.959-.189-1.081.259-1.663,1.325-1.665q5.318-.008,10.636,0c1.042,0,1.518.563,1.338,1.611q-.981,5.7-2,11.387a7.223,7.223,0,0,1-.4,1.112c.588,0,1.208-.008,1.827,0a2.22,2.22,0,0,1,2.3,2.366c.013.96.01,1.921,0,2.882a1.418,1.418,0,0,1-1.545,1.611c-.416.011-.833,0-1.3,0a5.645,5.645,0,0,0-2.153-4.257,5.019,5.019,0,0,0-3.364-1.085c-2.738.106-4.468,1.866-5.187,5.343h-3.173c-.648,0-1.3-.019-1.944.007-.362.014-.489-.11-.533-.485a5.291,5.291,0,0,0-5.6-4.855,5.388,5.388,0,0,0-4.927,4.865c-.013.132-.024.265-.037.42a19.579,19.579,0,0,1-2.07-.018,1.14,1.14,0,0,1-.991-1,4.594,4.594,0,0,1-.08-.873q-.007-6.5,0-13v-.767h-1.4c-1.163,0-2.326.012-3.488,0a1.4,1.4,0,1,1,0-2.789c1.6-.019,3.2-.005,4.865-.005.01-.233.027-.439.027-.644,0-2-.013-4,.016-6a2.554,2.554,0,0,1,.32-.948,12.678,12.678,0,0,0,.817-1.722c.133-.467.276-.681.747-.6a3.544,3.544,0,0,0,.491,0l-.984-4.161c-.226.106-.39.2-.565.262a.939.939,0,0,1-1.128-.2,5.715,5.715,0,0,0-3.482-1.285c-1.827-.274-3.655-.55-5.477-.863a1.288,1.288,0,0,1-.673-.47c-1.3-1.59-2.58-3.2-3.867-4.8a1.346,1.346,0,0,0-.435-.386c.058.156.109.316.177.468,1.017,2.255,2.044,4.505,3.048,6.766a.906.906,0,0,0,.8.6q3.619.533,7.227,1.139a2.371,2.371,0,1,1-.788,4.673c-2.86-.458-5.719-.922-8.584-1.344a2.681,2.681,0,0,1-2.224-1.683c-1.166-2.615-2.356-5.219-3.537-7.827a1.413,1.413,0,0,0-.329-.493q.415,2.073.83,4.145c.286,1.418.638,2.826.847,4.256a4.543,4.543,0,0,0,3.879,3.823c.242.034.482.089.777.144-.268,1.032-.553,2.022-.768,3.028a1.547,1.547,0,0,0,.125.975q2.031,3.745,4.122,7.456a3.781,3.781,0,0,1,.49,2.357c-.456,4.146-.883,8.3-1.305,12.445a2.863,2.863,0,0,1-1.962,2.748,2.676,2.676,0,0,1-3.427-2.9c.139-1.776.351-3.547.538-5.319.236-2.24.483-4.478.712-6.719a1.01,1.01,0,0,0-.119-.552q-2.951-5.37-5.921-10.728a1.8,1.8,0,0,0-.2-.215c.414,1.785.8,3.465,1.192,5.143.394,1.694.881,3.373,1.148,5.088a11.855,11.855,0,0,1-.076,3.138q-.632,5.425-1.364,10.838a2.666,2.666,0,0,1-2.486,2.352,2.59,2.59,0,0,1-2.686-1.93,5.951,5.951,0,0,1-.026-2.028c.436-3.674.913-7.344,1.365-11.016a1.891,1.891,0,0,0-.066-.634q-1.375-6-2.762-12a.574.574,0,0,0-.085-.146Z" transform="translate(-433.2 -184.587)" fill="#8c6df2"/>
      <path id="Trazado_187703" data-name="Trazado 187703" d="M501.407,158.446a3.668,3.668,0,0,1-3.459-3.886,3.683,3.683,0,1,1,7.344.564A3.666,3.666,0,0,1,501.407,158.446Z" transform="translate(-488.129 -151.1)" fill="#8c6df2"/>
      <path id="Trazado_187704" data-name="Trazado 187704" d="M647.875,511.426a2.436,2.436,0,0,1,4.872-.019,2.461,2.461,0,0,1-2.452,2.446A2.437,2.437,0,0,1,647.875,511.426Zm1.578-.019a.856.856,0,0,0,.855.868.878.878,0,0,0,.858-.829.86.86,0,0,0-.841-.882A.844.844,0,0,0,649.453,511.407Z" transform="translate(-616.022 -455.867)" fill="#8c6df2"/>
      <path id="Trazado_187705" data-name="Trazado 187705" d="M763.83,508.987a2.433,2.433,0,1,1-2.426,2.422A2.44,2.44,0,0,1,763.83,508.987Zm.877,2.431a.864.864,0,1,0-1.727.018.864.864,0,0,0,1.727-.018Z" transform="translate(-711.202 -455.866)" fill="#8c6df2"/>
    </g>
  </g>
</svg>
