<svg xmlns="http://www.w3.org/2000/svg" width="136.973" height="136.973" viewBox="0 0 136.973 136.973">
  <g id="Grupo_132228" data-name="Grupo 132228" transform="translate(-18798.119 11150.973)">
    <g id="Grupo_132153" data-name="Grupo 132153" transform="translate(18798.119 -11150.973)">
      <g id="Trazado_137458" data-name="Trazado 137458" transform="translate(0 0)" fill="#fff">
        <path d="M 68.48631286621094 131.9726409912109 C 59.91350936889648 131.9726409912109 51.59981155395508 130.2947692871094 43.77611541748047 126.9856185913086 C 40.01535797119141 125.3949661254883 36.38774871826172 123.4259033203125 32.9940071105957 121.1331405639648 C 29.6312255859375 118.8612899780273 26.46885681152344 116.2520523071289 23.5947265625 113.3779220581055 C 20.72059631347656 110.503791809082 18.11135673522949 107.341423034668 15.83950805664062 103.9786376953125 C 13.5467472076416 100.5848999023438 11.57768249511719 96.95726776123047 9.987030029296875 93.196533203125 C 6.677877902984619 85.37283325195312 5.000008583068848 77.05912017822266 5.000008583068848 68.48631286621094 C 5.000008583068848 59.91350936889648 6.677877902984619 51.59981155395508 9.987030029296875 43.77611541748047 C 11.57768249511719 40.01535797119141 13.5467472076416 36.38774871826172 15.83950805664062 32.9940071105957 C 18.11135673522949 29.6312255859375 20.72059631347656 26.46885681152344 23.5947265625 23.5947265625 C 26.46885681152344 20.72059631347656 29.6312255859375 18.11135673522949 32.9940071105957 15.83950805664062 C 36.38774871826172 13.5467472076416 40.01535797119141 11.57768249511719 43.77611541748047 9.987030029296875 C 51.59981155395508 6.677877902984619 59.91350936889648 5.000008583068848 68.48631286621094 5.000008583068848 C 77.05912017822266 5.000008583068848 85.37283325195312 6.677877902984619 93.196533203125 9.987030029296875 C 96.95726776123047 11.57768249511719 100.5848999023438 13.5467472076416 103.9786376953125 15.83950805664062 C 107.341423034668 18.11135673522949 110.503791809082 20.72059631347656 113.3779220581055 23.5947265625 C 116.2520523071289 26.46885681152344 118.8612899780273 29.6312255859375 121.1331405639648 32.9940071105957 C 123.4259033203125 36.38774871826172 125.3949661254883 40.01535797119141 126.9856185913086 43.77611541748047 C 130.2947692871094 51.59981155395508 131.9726409912109 59.91350936889648 131.9726409912109 68.48631286621094 C 131.9726409912109 77.05912017822266 130.2947692871094 85.37283325195312 126.9856185913086 93.196533203125 C 125.3949661254883 96.95726776123047 123.4259033203125 100.5848999023438 121.1331405639648 103.9786376953125 C 118.8612899780273 107.341423034668 116.2520523071289 110.503791809082 113.3779220581055 113.3779220581055 C 110.503791809082 116.2520523071289 107.341423034668 118.8612899780273 103.9786376953125 121.1331405639648 C 100.5848999023438 123.4259033203125 96.95726776123047 125.3949661254883 93.196533203125 126.9856185913086 C 85.37283325195312 130.2947692871094 77.05912017822266 131.9726409912109 68.48631286621094 131.9726409912109 Z" stroke="none"/>
        <path d="M 68.48631286621094 10.00000762939453 C 36.23686981201172 10.00000762939453 10.00000762939453 36.23686981201172 10.00000762939453 68.48631286621094 C 10.00000762939453 100.7357559204102 36.23686981201172 126.9726181030273 68.48631286621094 126.9726181030273 C 100.7357559204102 126.9726181030273 126.9726181030273 100.7357559204102 126.9726181030273 68.48631286621094 C 126.9726181030273 36.23686981201172 100.7357559204102 10.00000762939453 68.48631286621094 10.00000762939453 M 68.48631286621094 0 C 106.3102569580078 0 136.9726257324219 30.66236877441406 136.9726257324219 68.48631286621094 C 136.9726257324219 106.3102569580078 106.3102569580078 136.9726257324219 68.48631286621094 136.9726257324219 C 30.66236877441406 136.9726257324219 0 106.3102569580078 0 68.48631286621094 C 0 30.66236877441406 30.66236877441406 0 68.48631286621094 0 Z" stroke="none" fill="#8c6df2"/>
      </g>
    </g>
    <g id="Grupo_132167" data-name="Grupo 132167" transform="translate(18839.119 -11111.973)">
      <path id="Trazado_187706" data-name="Trazado 187706" d="M101.039,574.567c0-2.8.013-5.593,0-8.39a.772.772,0,0,1,.453-.8q4.433-2.408,8.838-4.868a2.229,2.229,0,0,1,1.8-.214c3.1.892,6.217,1.747,9.315,2.653a8.038,8.038,0,0,1,5.887,7.624c.019.589-.03,1.183.022,1.768a2.032,2.032,0,0,1-1.182,2.23Zm13.168-6.859c-1.654,0-3.308,0-4.962,0a1.72,1.72,0,1,0-.03,3.424q4.991.01,9.981,0a1.719,1.719,0,1,0-.027-3.424C117.515,567.7,115.861,567.707,114.207,567.707Z" transform="translate(-71.313 -516.067)" fill="#8c6df2"/>
      <path id="Trazado_187707" data-name="Trazado 187707" d="M-157.86,574.645a1.956,1.956,0,0,1-1.27-2.114,13.1,13.1,0,0,1,.5-4.45,8.21,8.21,0,0,1,5.858-5.19q4.393-1.216,8.769-2.489a2.409,2.409,0,0,1,1.968.2c2.921,1.629,5.856,3.232,8.776,4.863a.849.849,0,0,1,.424.563c.023,2.872.01,5.744.006,8.616Zm11.912-3.434v0c1.635,0,3.27,0,4.906,0a1.736,1.736,0,0,0,1.929-1.718,1.721,1.721,0,0,0-1.929-1.708q-4.934,0-9.868,0a2.483,2.483,0,0,0-.621.056,1.725,1.725,0,0,0-1.285,1.792,1.731,1.731,0,0,0,1.735,1.57C-149.371,571.225-147.66,571.212-145.948,571.212Z" transform="translate(159.131 -516.146)" fill="#8c6df2"/>
      <path id="Trazado_187708" data-name="Trazado 187708" d="M-12.3,174c1.232.505,1.393,1.534,1.25,2.718a12.952,12.952,0,0,1,8.685,5.149,12.522,12.522,0,0,1,2.474,6.47,59.608,59.608,0,0,0-25.61-.008c-.03-3.814,3.419-10.421,11.048-11.617-.1-1.161.017-2.255,1.353-2.713Zm1.266,8.536a1.716,1.716,0,0,0-1.673-1.742,1.744,1.744,0,0,0-1.749,1.678,1.726,1.726,0,0,0,1.686,1.733A1.7,1.7,0,0,0-11.031,182.536Z" transform="translate(40.765 -174)" fill="#8c6df2"/>
      <path id="Trazado_187709" data-name="Trazado 187709" d="M-84.8,321.949c-1.092.393-2.108.748-3.112,1.134a.567.567,0,0,0-.239.4,8.444,8.444,0,0,0-.074,1.136c-.007,1.976,0,3.952,0,5.946a10.48,10.48,0,0,1-4.687-2.938,3.853,3.853,0,0,1,.1-5.3,11.018,11.018,0,0,1,4.831-2.916,38.249,38.249,0,0,1,9.827-1.927,57.132,57.132,0,0,1,10.837.111,32.469,32.469,0,0,1,10.372,2.531,9.114,9.114,0,0,1,3.089,2.21,3.914,3.914,0,0,1,.019,5.393,11.149,11.149,0,0,1-4.722,2.888c.032-.513.083-.974.084-1.436,0-1.789-.012-3.579-.011-5.368a.839.839,0,0,0-.655-.92c-.884-.272-1.753-.6-2.712-.926-.014.3-.03.5-.032.7-.013,1.656.042,3.316-.045,4.968a11.553,11.553,0,0,1-10.058,10.435A11.571,11.571,0,0,1-84.8,326.48C-84.79,325.016-84.8,323.551-84.8,321.949Z" transform="translate(101.374 -300.912)" fill="#8c6df2"/>
      <path id="Trazado_187710" data-name="Trazado 187710" d="M33.545,510.626c0,1.25.011,2.408-.014,3.565a.621.621,0,0,1-.305.415q-3.588,2-7.2,3.961a.684.684,0,0,1-.559-.008q-3.633-1.975-7.245-3.99a.557.557,0,0,1-.277-.369c-.021-1.175-.012-2.35-.012-3.608A15.01,15.01,0,0,0,33.545,510.626Z" transform="translate(2.296 -472.133)" fill="#8c6df2"/>
    </g>
  </g>
</svg>
