<svg xmlns="http://www.w3.org/2000/svg" xmlns:xlink="http://www.w3.org/1999/xlink" width="190" height="151.267" viewBox="0 0 190 151.267">
  <defs>
    <linearGradient id="linear-gradient" x1="1.714" y1="0.5" x2="2.714" y2="0.5" gradientUnits="objectBoundingBox">
      <stop offset="0" stop-color="#fff"/>
      <stop offset="0.996" stop-color="#ebeff2"/>
    </linearGradient>
    <clipPath id="clip-path">
      <path id="Trazado_138076" data-name="Trazado 138076" d="M-1469.771,1818.386l90.5,5.609v-95.513l-90.5-2.361Z" transform="translate(1469.771 -1726.121)" fill="none"/>
    </clipPath>
    <linearGradient id="linear-gradient-2" x1="2.868" y1="-1.156" x2="2.994" y2="1.719" gradientUnits="objectBoundingBox">
      <stop offset="0.004" stop-color="#f36f56"/>
      <stop offset="1" stop-color="#ffc444"/>
    </linearGradient>
    <linearGradient id="linear-gradient-3" x1="8.65" y1="1.141" x2="8.637" y2="-1.691" gradientUnits="objectBoundingBox">
      <stop offset="0" stop-color="#311944"/>
      <stop offset="1" stop-color="#893976"/>
    </linearGradient>
    <linearGradient id="linear-gradient-4" x1="10.93" y1="1.272" x2="10.925" y2="0.376" gradientUnits="objectBoundingBox">
      <stop offset="0" stop-color="#ab316d"/>
      <stop offset="1" stop-color="#792d3d"/>
    </linearGradient>
    <linearGradient id="linear-gradient-5" x1="10.253" y1="0.85" x2="10.392" y2="-0.358" xlink:href="#linear-gradient-4"/>
    <linearGradient id="linear-gradient-6" x1="30.172" y1="1.321" x2="30.638" y2="-2.776" xlink:href="#linear-gradient-4"/>
    <linearGradient id="linear-gradient-7" x1="37.591" y1="1.535" x2="38.07" y2="-2.554" xlink:href="#linear-gradient-4"/>
    <linearGradient id="linear-gradient-8" x1="7.899" y1="0.699" x2="8.182" y2="-0.21" gradientUnits="objectBoundingBox">
      <stop offset="0" stop-color="#311944"/>
      <stop offset="1" stop-color="#6b3976"/>
    </linearGradient>
    <linearGradient id="linear-gradient-9" x1="8.515" y1="0.59" x2="8.826" y2="-0.646" xlink:href="#linear-gradient-8"/>
  </defs>
  <g id="Grupo_131948" data-name="Grupo 131948" transform="translate(6635 5712.5)">
    <g id="Grupo_131947" data-name="Grupo 131947" transform="translate(-7800.381 -11470.5)">
      <g id="Grupo_130809" data-name="Grupo 130809" transform="translate(1165.381 5800.771)">
        <path id="Trazado_115813" data-name="Trazado 115813" d="M189.282,21.359a126.827,126.827,0,0,1-11.43,10.7,93.373,93.373,0,0,1-12.907,8.922,67.815,67.815,0,0,1-14.674,6.3,47.768,47.768,0,0,1-8.094,1.6c-.7.061-1.4.138-2.1.16-.353.015-.706.037-1.061.045l-1.068,0c-.717.007-1.408-.023-2.117-.036-.7-.043-1.407-.072-2.107-.14a58.946,58.946,0,0,1-16.145-4.034c-5.088-1.977-9.847-4.362-14.425-6.646-2.287-1.147-4.54-2.262-6.755-3.3-1.109-.524-2.207-1.015-3.3-1.5-.544-.23-1.089-.469-1.63-.687l-1.675-.68c-4.665-1.888-9.225-3.646-13.715-5.048-2.243-.7-4.464-1.316-6.648-1.809-1.092-.247-2.173-.465-3.242-.647s-2.126-.32-3.164-.426a30.475,30.475,0,0,0-11.192.677,20.362,20.362,0,0,0-2.286.785c-.364.147-.716.31-1.063.475l-.511.258c-.153.088-.308.168-.458.26A16,16,0,0,0,44.2,29.178c-.245.251-.485.506-.712.773l-.885.995c-.306.343-.579.7-.871,1.044s-.538.71-.809,1.057a26.767,26.767,0,0,0-2.586,4.331,23.98,23.98,0,0,0-1.616,4.45,24.233,24.233,0,0,0-.725,4.617,34.725,34.725,0,0,0,.884,9.907,51.979,51.979,0,0,0,3.667,10.437,55.979,55.979,0,0,0,2.693,5.073c.487.815.992,1.612,1.5,2.362.252.372.509.731.755,1.057.122.162.244.319.353.447a2.165,2.165,0,0,0,.151.167c.019.015.046.047.054.042l.009,0s.011.011,0-.018L46,75.8A21.8,21.8,0,1,1,8.243,97.592l-.171-.328-.109-.224-.175-.375-.3-.673c-.188-.433-.357-.841-.52-1.246-.326-.808-.624-1.591-.913-2.367-.57-1.551-1.086-3.08-1.564-4.613-.954-3.064-1.748-6.145-2.42-9.273A90.8,90.8,0,0,1,0,59.064,68.721,68.721,0,0,1,3.044,38.7a60.025,60.025,0,0,1,4.069-9.822,55.821,55.821,0,0,1,5.759-8.856,57.577,57.577,0,0,1,7.057-7.439c.635-.541,1.264-1.092,1.907-1.613s1.29-1.033,1.947-1.517l.988-.72c.336-.243.634-.463,1.037-.742.758-.533,1.536-1.038,2.327-1.522a43.615,43.615,0,0,1,10.1-4.555c.441-.138.889-.259,1.334-.383s.868-.222,1.3-.325c.869-.2,1.739-.381,2.611-.528a46.331,46.331,0,0,1,5.2-.6,50.237,50.237,0,0,1,9.973.45,60.585,60.585,0,0,1,9.1,2.051A92.388,92.388,0,0,1,83.6,9.231c4.869,2.551,9.408,5.33,13.775,8.083l1.7,1.079c.585.37,1.149.749,1.721,1.125,1.125.758,2.237,1.519,3.313,2.288,2.165,1.534,4.238,3.081,6.284,4.584,4.085,3.01,8.025,5.905,12.085,8.353a48.234,48.234,0,0,0,12.654,5.594c.551.152,1.107.266,1.663.4l.839.162.421.082c.14.025.277.038.416.058l.833.112c.279.032.561.051.843.079.562.063,1.134.074,1.7.1s1.149.017,1.727.015c.579-.027,1.16-.021,1.743-.074l.876-.061c.293-.022.585-.06.878-.09.586-.057,1.171-.146,1.757-.235s1.171-.2,1.759-.305,1.17-.249,1.756-.374c.58-.154,1.164-.3,1.744-.46s1.161-.329,1.735-.521c1.155-.364,2.3-.778,3.427-1.233.566-.225,1.132-.452,1.689-.7l.84-.368.828-.395a61.976,61.976,0,0,0,12.445-7.89,60.808,60.808,0,0,0,10.289-10.613,2.579,2.579,0,1,1,3.939,3.318Z" transform="translate(0 0)" fill="#fdb74d"/>
        <g id="Grupo_80729" data-name="Grupo 80729" transform="translate(40.046 3.938)">
          <ellipse id="Elipse_4784" data-name="Elipse 4784" cx="71.749" cy="48.389" rx="71.749" ry="48.389" transform="translate(0 0)" fill="#8c6df2" opacity="0.25"/>
        </g>
      </g>
      <g id="Grupo_130810" data-name="Grupo 130810" transform="translate(1192.646 5758)">
        <g id="Grupo_130803" data-name="Grupo 130803" transform="translate(36.896 12.411)">
          <path id="Trazado_138058" data-name="Trazado 138058" d="M-1513.147,1758.261v77.756c0,3.588,2.436,6.681,5.524,6.9l25.642,1.833.028,0,78.488,5.611a5.6,5.6,0,0,0,1.5-.094c.091-.016.177-.04.268-.059.173-.047.346-.1.515-.157s.335-.13.5-.209a5.876,5.876,0,0,0,.7-.4c.15-.1.295-.2.433-.315s.28-.232.41-.358a6.535,6.535,0,0,0,1.92-4.041,7.48,7.48,0,0,0,.138-.791v-82.06c0-.074,0-.146,0-.22s-.012-.169-.016-.256a7.85,7.85,0,0,0-1.1-3.266c-.016-.031-.083-.059-.1-.087a6.44,6.44,0,0,0-3.953-2.986,5.828,5.828,0,0,0-.583-.114,5.147,5.147,0,0,0-.606-.033l-11.812-.313h-.008l-25.492-.749-66.865-1.919a1.8,1.8,0,0,0-.208,0c-.083,0-.165,0-.248,0s-.161.01-.24.018C-1511.062,1752.286-1513.147,1754.949-1513.147,1758.261Z" transform="translate(1513.271 -1744.678)" fill="#fff"/>
          <path id="Trazado_138059" data-name="Trazado 138059" d="M-1399.232,1853.492a4.1,4.1,0,0,0,4.2-4.363v-81.957a4.618,4.618,0,0,0-4.2-4.782l-104.22-3.071c-2.1-.062-3.806,1.873-3.806,4.312v77.83c0,2.439,1.706,4.544,3.806,4.692Z" transform="translate(1509.039 -1749.983)" fill="url(#linear-gradient)"/>
          <path id="Trazado_138060" data-name="Trazado 138060" d="M-1508,1751.924l104.22,2.969c3.41.1,6.183,3.243,6.183,7.026v4.914l-115.99-3.916v-4.658C-1513.59,1754.672-1511.092,1751.836-1508,1751.924Z" transform="translate(1513.59 -1744.667)" fill="#d8dee8"/>
          <path id="Trazado_138061" data-name="Trazado 138061" d="M-1140.238,1778.151a2.107,2.107,0,0,0,2.011,2.107,1.954,1.954,0,0,0,2.015-1.981,2.107,2.107,0,0,0-2.015-2.107A1.955,1.955,0,0,0-1140.238,1778.151Z" transform="translate(1245.223 -1762.095)" fill="#fff"/>
          <path id="Trazado_138062" data-name="Trazado 138062" d="M-1165.253,1777.387a2.1,2.1,0,0,0,2,2.1,1.945,1.945,0,0,0,2-1.975,2.1,2.1,0,0,0-2-2.1A1.945,1.945,0,0,0-1165.253,1777.387Z" transform="translate(1263.204 -1761.551)" fill="#fff"/>
          <path id="Trazado_138063" data-name="Trazado 138063" d="M-1190.11,1776.627a2.088,2.088,0,0,0,1.986,2.093,1.936,1.936,0,0,0,1.989-1.969,2.087,2.087,0,0,0-1.989-2.093A1.936,1.936,0,0,0-1190.11,1776.627Z" transform="translate(1281.071 -1761.009)" fill="#fff"/>
          <path id="Trazado_138064" data-name="Trazado 138064" d="M-1490.406,1895.221l102.262,6.989v-64.576l-102.262-4.019Z" transform="translate(1496.925 -1803.388)" fill="#d8dee8"/>
          <g id="Grupo_130796" data-name="Grupo 130796" transform="translate(6.519 23.847)" opacity="0.5">
            <path id="Trazado_138065" data-name="Trazado 138065" d="M-1320.4,1817.1l54.458,1.977v3.488l-54.458-2.062Z" transform="translate(1368.208 -1815.361)" fill="#fff"/>
            <path id="Trazado_138066" data-name="Trazado 138066" d="M-1484.453,1811.142v3.337l-5.953-.226v-3.328Z" transform="translate(1490.406 -1810.926)" fill="#fff"/>
          </g>
          <g id="Grupo_130797" data-name="Grupo 130797" transform="translate(31.287 9.807)" opacity="0.5" style="mix-blend-mode: soft-light;isolation: isolate">
            <path id="Trazado_138067" data-name="Trazado 138067" d="M-1402.327,1851.271l78.519,5.607a5.6,5.6,0,0,0,1.5-.094c.09-.016.177-.04.267-.059.173-.047.346-.1.516-.157s.335-.13.5-.209a5.907,5.907,0,0,0,.7-.4c.15-.1.295-.2.433-.315s.279-.232.41-.358a6.5,6.5,0,0,0,1.932-4.037c0-.075.126-.153.126-.228V1768.4c0-.075,0-.146,0-.22s-.012-.169-.016-.256a7.96,7.96,0,0,0-1.078-3.266c-.016-.031-.095-.059-.11-.087a6.316,6.316,0,0,0-5.186-3.242l-11.711-.331c-.008.028.006.055.006.082v0a13.587,13.587,0,0,0-.769,2.144,44.333,44.333,0,0,1-4.337,8.806c-.114.181-.243.358-.36.535a35.748,35.748,0,0,1-4.385,5.434,33.067,33.067,0,0,1-3.8,3.313,36.48,36.48,0,0,1-4.687,2.978s0,0,0,0a61.425,61.425,0,0,1-7.236,3.238c-9.431,3.62-19.024,5.921-25.87,16.458-6.535,10.057-3.16,16.254-7.22,29.726-.425,1.409-.929,2.9-1.538,4.481q-.236.62-.5,1.263c-.775,1.92-1.613,3.75-2.5,5.5q-1.133,2.236-2.365,4.3-.614,1.027-1.243,2.007S-1402.327,1851.267-1402.327,1851.271Z" transform="translate(1402.327 -1760.996)" fill="#fff"/>
          </g>
          <g id="Grupo_130801" data-name="Grupo 130801" transform="translate(12.322)">
            <g id="Grupo_130800" data-name="Grupo 130800" clip-path="url(#clip-path)">
              <g id="Grupo_130799" data-name="Grupo 130799" transform="translate(5.502 19.916)">
                <path id="Trazado_138068" data-name="Trazado 138068" d="M-1372.325,2013.39c3.155-8.222-1.3-22.326-4.092-28.75-8.116-18.645-22.9-20.021-34.894-21.138-11.678-1.087-22.852-2.128-30.969,11.089-5.275,8.589-10.107,24.573-6.887,33.464,3.4,9.375,12.872,2.958,35.691,4.434C-1387.908,2014.142-1376.254,2023.629-1372.325,2013.39Z" transform="translate(1450.204 -1916.243)" fill="url(#linear-gradient-2)"/>
                <path id="Trazado_138069" data-name="Trazado 138069" d="M-1351.1,1966.363c0,2.255,5.268,5.245,11.8,5.6,6.561.354,11.9-2.088,11.9-4.363s-5.343-1.534-11.9-1.873C-1345.831,1965.387-1351.1,1964.107-1351.1,1966.363Z" transform="translate(1378.967 -1917.786)" fill="url(#linear-gradient-3)"/>
                <path id="Trazado_138070" data-name="Trazado 138070" d="M-1328.9,1916.159c1.809.083-2.363,13.1,4.214,15.252a.772.772,0,0,1,.162,1.4c-1.769.9-5.076,1.989-10.481,1.7a13.533,13.533,0,0,1-7.377-2.7.761.761,0,0,1,.077-1.283c2.007-.978,4.8-4.279,3.964-14.472Z" transform="translate(1372.926 -1882.567)" fill="url(#linear-gradient-4)"/>
                <path id="Trazado_138071" data-name="Trazado 138071" d="M-1324.37,1840.518c-.027.165-.576,12.232-3.233,18.144-.762,1.695-4.534,1.308-6.969.984-2.111-.281-5.414.365-6.343-1.2-3.727-6.268-3.1-21.331-3.1-21.331s1.909-4.95,9.768-4.521C-1326.338,1833.029-1324.37,1840.518-1324.37,1840.518Z" transform="translate(1373.901 -1822.554)" fill="url(#linear-gradient-5)"/>
                <path id="Trazado_138072" data-name="Trazado 138072" d="M-1283.03,1878.166s1.66-1.934,3.226-2.136,2.591,4.057.45,6.707-4.6.264-4.6.264Z" transform="translate(1330.704 -1853.787)" fill="url(#linear-gradient-6)"/>
                <path id="Trazado_138073" data-name="Trazado 138073" d="M-1350.113,1875.063s-1.638-2.06-3.179-2.389-2.541,3.8-.443,6.61a2.974,2.974,0,0,0,4.537.666Z" transform="translate(1381.72 -1851.367)" fill="url(#linear-gradient-7)"/>
                <path id="Trazado_138074" data-name="Trazado 138074" d="M-1333.1,1821.232c-.209.39-.448.75-.61.7-.671-.21,1.918-6.9-.467-9.37-1.231-1.277-2.617-.211-7.642-.644-5.042-.434-6.328-1.741-7.847-.837-1.382.822-2.618,3.274-1.594,10.721l-.855-.243a8.059,8.059,0,0,0-.514-4.941,5.794,5.794,0,0,1-.932-2.958c.03-.81.288-.837.33-1.5.124-1.944-2-2.551-2.1-4.479-.079-1.484,1.141-1.776.918-3.333-.19-1.324-1.142-1.6-.992-2.55.163-1.021,1.439-1.74,2.336-1.976.915-.24,1.246.073,1.783-.3.869-.6.451-1.723,1.079-2.115,1.118-.7,3.345,2.316,4.787,1.634.873-.414.537-1.749,1.31-2.044,1.5-.571,4.143,3.892,5.21,3.348.51-.261.018-1.344.735-2.1a2.883,2.883,0,0,1,3.789.183c.861.94.13,2,1.042,3.19.819,1.066,1.767.673,2.693,1.537,1.575,1.47,1.026,4.649.831,5.783-.673,3.9-2.768,4.615-2.3,7.311a6.292,6.292,0,0,1,.2,2.573A5.082,5.082,0,0,1-1333.1,1821.232Z" transform="translate(1382.075 -1796.948)" fill="url(#linear-gradient-8)"/>
                <g id="Grupo_130798" data-name="Grupo 130798" transform="translate(28.769 6.468)" opacity="0.3" style="mix-blend-mode: multiply;isolation: isolate">
                  <path id="Trazado_138075" data-name="Trazado 138075" d="M-1346.872,1828.536c.183-1.908-1.235-2.854-1-4.21a3.078,3.078,0,0,1,2.493-2.2c2.383-.363,3.927,3.365,6.3,3.057,1.841-.239,1.636-2.566,3.717-3.422,3.3-1.361,6.776,3.285,8.983,2.115.664-.352,1.336-1.3,1.384-3.923,1.269,1.557.771,4.449.586,5.52-.674,3.9-2.768,4.615-2.3,7.311a6.3,6.3,0,0,1,.2,2.573,5.078,5.078,0,0,1-1.191,2.412c-.209.39-.448.75-.61.7-.671-.21,1.918-6.9-.466-9.37-1.231-1.277-2.617-.211-7.643-.644-5.041-.434-6.328-1.741-7.847-.837-1.382.822-2.618,3.274-1.594,10.721l-.855-.243a8.057,8.057,0,0,0-.514-4.941c-.144-.3-.335-.629-.508-1.009a8.965,8.965,0,0,1,.357-2.06A7.718,7.718,0,0,0-1346.872,1828.536Z" transform="translate(1347.896 -1819.949)" fill="url(#linear-gradient-9)"/>
                </g>
              </g>
            </g>
          </g>
          <g id="Grupo_130802" data-name="Grupo 130802" transform="translate(37.621 82.188)">
            <path id="Trazado_138077" data-name="Trazado 138077" d="M-1264.1,2028.516a3.854,3.854,0,0,0,3.517,3.856,3.344,3.344,0,0,0,3.527-3.441,3.853,3.853,0,0,0-3.527-3.856A3.344,3.344,0,0,0-1264.1,2028.516Z" transform="translate(1296.638 -2023.194)" fill="#fff"/>
            <path id="Trazado_138078" data-name="Trazado 138078" d="M-1322.314,2025.141a3.82,3.82,0,0,0,3.474,3.831,3.313,3.313,0,0,0,3.483-3.421,3.819,3.819,0,0,0-3.483-3.831A3.314,3.314,0,0,0-1322.314,2025.141Z" transform="translate(1338.479 -2020.782)" fill="#fff"/>
            <path id="Trazado_138079" data-name="Trazado 138079" d="M-1379.8,2021.808a3.785,3.785,0,0,0,3.43,3.805,3.283,3.283,0,0,0,3.44-3.4,3.784,3.784,0,0,0-3.44-3.806A3.284,3.284,0,0,0-1379.8,2021.808Z" transform="translate(1379.801 -2018.401)" fill="#fff"/>
          </g>
        </g>
        <g id="Grupo_130807" data-name="Grupo 130807" transform="translate(0)">
          <g id="Grupo_130804" data-name="Grupo 130804">
            <path id="Trazado_138080" data-name="Trazado 138080" d="M-1576.355,1724.648a23.229,23.229,0,0,0,5.346-14.572c0-15.514-16.519-28.091-36.9-28.091s-36.9,12.577-36.9,28.091,16.519,28.091,36.9,28.091a45.246,45.246,0,0,0,20.619-4.792c3.891.664,9.931,1.779,13.118,2.372a1.225,1.225,0,0,0,1.371-1.637Z" transform="translate(1644.8 -1681.985)" fill="#8652d8"/>
          </g>
          <g id="Grupo_130806" data-name="Grupo 130806" transform="translate(13.678 16.408)">
            <path id="Trazado_138081" data-name="Trazado 138081" d="M-1548.473,1741.753a1.416,1.416,0,0,1-1.416,1.417h-44.854a1.417,1.417,0,0,1-1.417-1.417h0a1.417,1.417,0,0,1,1.417-1.416h44.854a1.416,1.416,0,0,1,1.416,1.416Z" transform="translate(1596.159 -1740.337)" fill="#fff"/>
            <g id="Grupo_130805" data-name="Grupo 130805" transform="translate(0 8.499)">
              <path id="Trazado_138082" data-name="Trazado 138082" d="M-1548.473,1771.977a1.416,1.416,0,0,1-1.416,1.416h-44.854a1.417,1.417,0,0,1-1.417-1.416h0a1.417,1.417,0,0,1,1.417-1.417h44.854a1.416,1.416,0,0,1,1.416,1.417Z" transform="translate(1596.159 -1770.56)" fill="#fff"/>
              <path id="Trazado_138083" data-name="Trazado 138083" d="M-1569.719,1802.2a1.416,1.416,0,0,1-1.417,1.416h-23.607a1.417,1.417,0,0,1-1.417-1.416h0a1.417,1.417,0,0,1,1.417-1.417h23.607a1.416,1.416,0,0,1,1.417,1.417Z" transform="translate(1596.159 -1792.284)" fill="#fff"/>
            </g>
          </g>
        </g>
      </g>
    </g>
  </g>
</svg>
