<svg xmlns="http://www.w3.org/2000/svg" width="136.973" height="136.973" viewBox="0 0 136.973 136.973">
  <g id="Grupo_132229" data-name="Grupo 132229" transform="translate(-19149.119 11116)">
    <g id="Grupo_132156" data-name="Grupo 132156" transform="translate(19149.119 -11116)">
      <g id="Trazado_137458" data-name="Trazado 137458" transform="translate(0 0)" fill="#fff">
        <path d="M 68.48631286621094 131.9726409912109 C 59.91350936889648 131.9726409912109 51.59981155395508 130.2947692871094 43.77611541748047 126.9856185913086 C 40.01535797119141 125.3949661254883 36.38774871826172 123.4259033203125 32.9940071105957 121.1331405639648 C 29.6312255859375 118.8612899780273 26.46885681152344 116.2520523071289 23.5947265625 113.3779220581055 C 20.72059631347656 110.503791809082 18.11135673522949 107.341423034668 15.83950805664062 103.9786376953125 C 13.5467472076416 100.5848999023438 11.57768249511719 96.95726776123047 9.987030029296875 93.196533203125 C 6.677877902984619 85.37283325195312 5.000008583068848 77.05912017822266 5.000008583068848 68.48631286621094 C 5.000008583068848 59.91350936889648 6.677877902984619 51.59981155395508 9.987030029296875 43.77611541748047 C 11.57768249511719 40.01535797119141 13.5467472076416 36.38774871826172 15.83950805664062 32.9940071105957 C 18.11135673522949 29.6312255859375 20.72059631347656 26.46885681152344 23.5947265625 23.5947265625 C 26.46885681152344 20.72059631347656 29.6312255859375 18.11135673522949 32.9940071105957 15.83950805664062 C 36.38774871826172 13.5467472076416 40.01535797119141 11.57768249511719 43.77611541748047 9.987030029296875 C 51.59981155395508 6.677877902984619 59.91350936889648 5.000008583068848 68.48631286621094 5.000008583068848 C 77.05912017822266 5.000008583068848 85.37283325195312 6.677877902984619 93.196533203125 9.987030029296875 C 96.95726776123047 11.57768249511719 100.5848999023438 13.5467472076416 103.9786376953125 15.83950805664062 C 107.341423034668 18.11135673522949 110.503791809082 20.72059631347656 113.3779220581055 23.5947265625 C 116.2520523071289 26.46885681152344 118.8612899780273 29.6312255859375 121.1331405639648 32.9940071105957 C 123.4259033203125 36.38774871826172 125.3949661254883 40.01535797119141 126.9856185913086 43.77611541748047 C 130.2947692871094 51.59981155395508 131.9726409912109 59.91350936889648 131.9726409912109 68.48631286621094 C 131.9726409912109 77.05912017822266 130.2947692871094 85.37283325195312 126.9856185913086 93.196533203125 C 125.3949661254883 96.95726776123047 123.4259033203125 100.5848999023438 121.1331405639648 103.9786376953125 C 118.8612899780273 107.341423034668 116.2520523071289 110.503791809082 113.3779220581055 113.3779220581055 C 110.503791809082 116.2520523071289 107.341423034668 118.8612899780273 103.9786376953125 121.1331405639648 C 100.5848999023438 123.4259033203125 96.95726776123047 125.3949661254883 93.196533203125 126.9856185913086 C 85.37283325195312 130.2947692871094 77.05912017822266 131.9726409912109 68.48631286621094 131.9726409912109 Z" stroke="none"/>
        <path d="M 68.48631286621094 10.00000762939453 C 36.23686981201172 10.00000762939453 10.00000762939453 36.23686981201172 10.00000762939453 68.48631286621094 C 10.00000762939453 100.7357559204102 36.23686981201172 126.9726181030273 68.48631286621094 126.9726181030273 C 100.7357559204102 126.9726181030273 126.9726181030273 100.7357559204102 126.9726181030273 68.48631286621094 C 126.9726181030273 36.23686981201172 100.7357559204102 10.00000762939453 68.48631286621094 10.00000762939453 M 68.48631286621094 0 C 106.3102569580078 0 136.9726257324219 30.66236877441406 136.9726257324219 68.48631286621094 C 136.9726257324219 106.3102569580078 106.3102569580078 136.9726257324219 68.48631286621094 136.9726257324219 C 30.66236877441406 136.9726257324219 0 106.3102569580078 0 68.48631286621094 C 0 30.66236877441406 30.66236877441406 0 68.48631286621094 0 Z" stroke="none" fill="#8c6df2"/>
      </g>
    </g>
    <g id="Grupo_132168" data-name="Grupo 132168" transform="translate(20239.533 -11410.167)">
      <path id="Trazado_189390" data-name="Trazado 189390" d="M-1015.069,333.167a1.392,1.392,0,0,1,.917,1.313,16.672,16.672,0,0,0,3.013,9.368c1.8,2.706,3.771,5.3,5.628,7.974a31.378,31.378,0,0,1,5.466,12.556,24.661,24.661,0,0,1-.424,11.694,21.828,21.828,0,0,1-5.62,9.274,21.545,21.545,0,0,1-8.168,5.082,21.545,21.545,0,0,1-10.458.985,21.639,21.639,0,0,1-12.139-6.081,21.546,21.546,0,0,1-5.971-10.657,22.464,22.464,0,0,1-.565-6.12,30.279,30.279,0,0,1,1.127-7.543,15.128,15.128,0,0,1,4.228-7.184,9.312,9.312,0,0,1,1.08-.839,1.276,1.276,0,0,1,2.112.856,33.691,33.691,0,0,0,1.071,3.539,8.163,8.163,0,0,0,3.138,4.1,15.631,15.631,0,0,0,1.8.862c.1-1.941.185-3.745.272-5.55a29.935,29.935,0,0,1,7.517-18.8,29.626,29.626,0,0,1,5.29-4.831Zm-12.988,43.978a10.343,10.343,0,0,0-.144,7.287,7.027,7.027,0,0,0,5.881,4.72,6.816,6.816,0,0,0,6.829-3.255c1.634-2.413,1.581-5.047.833-7.735a17.791,17.791,0,0,0-2.732-5.107c-.66-.975-1.26-1.992-1.847-3.013a12.23,12.23,0,0,1-.6-1.424,10.878,10.878,0,0,0-2.645,5.738c-.163,1.357-.2,2.731-.259,4.1-.05,1.19-.619,1.687-1.8,1.512a3.9,3.9,0,0,1-2.527-1.421C-1027.4,378.14-1027.679,377.686-1028.057,377.145Z" fill="#8c6df2"/>
    </g>
  </g>
</svg>
